<svg xmlns="http://www.w3.org/2000/svg" width="140" height="19.541" viewBox="0 0 140 19.541">
    <defs>
        <style>
            .cls-1{fill:#006b6e}
        </style>
    </defs>
    <g id="Cathay_Pacific_logo" transform="translate(-.068)">
        <path id="Path_637" d="M6.357 9.4c-.067.009-.142-.084-.174-.127-.01-.013-.047-.087-.038-.1s.091.014.111.03a.315.315 0 0 1 .115.18.015.015 0 0 1-.015.015m-1.625-.854c-.046.016-.158-.105-.19-.15-.058-.082-.116-.174-.177-.255a.434.434 0 0 1-.135-.249c0-.014-.01-.052 0-.051.062 0 .121.107.152.148s.049.058.069.088.043.1.075.138l.128.148a.32.32 0 0 1 .066.088c.006.019.026.089.013.1m-.466-.017c-.035 0-.049-.023-.071-.038a.24.24 0 0 1-.106-.2c0-.009 0-.012.01-.012.068 0 .137.1.163.145a.163.163 0 0 1 .023.078c0 .018-.008.026-.019.026m-1.548.3a.023.023 0 0 1-.018.009c-.074 0-.1-.106-.128-.153s-.05-.083-.077-.123a.686.686 0 0 1-.06-.088.944.944 0 0 0-.054-.119.706.706 0 0 0-.049-.057.682.682 0 0 1-.1-.17c-.006-.023-.013-.045-.018-.068-.015-.039-.034-.082-.048-.123a.183.183 0 0 1-.008-.078c0-.006.006-.011.012-.009.056.008.11.138.138.186s.078.092.1.144.032.108.058.154.056.064.08.1a1.228 1.228 0 0 1 .075.15c.026.055.065.1.088.151a.156.156 0 0 1 .007.086m-.287-2a.609.609 0 0 1-.04-.079c-.012-.03-.013-.057-.026-.085l-.133-.28a.233.233 0 0 1-.03-.157c0-.007.017 0 .024 0a.362.362 0 0 1 .038.034c.009.013.011.028.021.041a.672.672 0 0 1 .066.1c.036.074.046.157.082.23.023.047.062.089.088.137a.613.613 0 0 1 .029.082.386.386 0 0 1 .006.066c0 .025 0 .04-.011.041-.068 0-.088-.083-.113-.129M17.14 13c-.085-.3-1.009-.17-1.768-.236a11.309 11.309 0 0 1-2.644-.528 19.756 19.756 0 0 1-2.8-1.135l-.376-.189c-.07-.04-.125-.069-.194-.11a1.658 1.658 0 0 0-.15-.078.994.994 0 0 1-.149-.083c-.052-.031-.123-.063-.176-.093-.077-.045-.125-.08-.2-.13a1.339 1.339 0 0 0-.129-.076c-.036-.02-.1-.054-.134-.074-.067-.042-.11-.077-.179-.122-.041-.028-.072-.045-.121-.074s-.1-.065-.138-.094a.729.729 0 0 1-.08-.057c-.05-.045-.1-.086-.151-.125s-.092-.075-.138-.109c-.03-.02-.081-.061-.11-.081-.076-.052-.124-.091-.2-.143-.049-.034-.09-.08-.138-.114s-.1-.082-.161-.121a.769.769 0 0 1-.104-.08c-.036-.041-.07-.07-.108-.111s-.081-.061-.113-.091a.922.922 0 0 0-.179-.161.473.473 0 0 1-.063-.065.565.565 0 0 0-.054-.062l-.053-.049c-.012-.012-.03-.024-.071-.063-.013-.013-.034-.041-.056-.068s-.036-.049-.049-.061l-.088-.089L6 8.267c-.015-.015-.026-.033-.039-.049a.36.36 0 0 0-.035-.047c-.022-.023-.04-.015-.044-.013s-.019.034 0 .063a.947.947 0 0 0 .065.1l.01.013.02.033a.444.444 0 0 0 .033.05.874.874 0 0 0 .088.095.39.39 0 0 1 .029.029.4.4 0 0 1 .051.063.767.767 0 0 0 .056.068.2.2 0 0 1 .027.032.383.383 0 0 0 .031.036l.051.047a1.145 1.145 0 0 0 .085.078c.022.017.043.039.065.059.056.064.118.128.169.189a.614.614 0 0 0 .115.084.576.576 0 0 1 .093.1c.022.025.071.066.094.092a.754.754 0 0 0 .17.158.524.524 0 0 1 .114.1c.021.026.085.084.109.113.061.074.089.143.08.145-.042.011-.143-.074-.2-.111s-.058-.045-.1-.078a.837.837 0 0 1-.111-.089 1.375 1.375 0 0 1-.093-.094 1.584 1.584 0 0 0-.211-.2c-.071-.066-.159-.124-.228-.183-.021-.02-.041-.041-.061-.063s-.051-.041-.072-.063a.965.965 0 0 0-.114-.141c-.04-.03-.07-.057-.111-.086-.015-.009-.027-.027-.042-.038a.282.282 0 0 1-.058-.047c-.047-.057-.093-.116-.142-.173-.022-.028-.053-.05-.074-.078-.046-.062-.085-.125-.131-.183-.066-.081-.16-.139-.223-.221s-.1-.182-.165-.27c-.026-.038-.067-.065-.1-.1-.017-.021-.026-.045-.042-.068-.033-.047-.071-.094-.1-.138-.043-.061-.072-.126-.116-.19a.461.461 0 0 0-.049-.083 1.138 1.138 0 0 1-.094-.114c-.031-.044-.044-.074-.066-.1s-.035-.061-.05-.082l-.056-.078c-.04-.058-.051-.085-.092-.138-.025-.033-.053-.06-.076-.052s-.011.033-.007.047a.309.309 0 0 0 .038.073c.033.057.045.084.081.136.016.025.044.082.067.112s.046.069.061.095a1.421 1.421 0 0 0 .066.13.842.842 0 0 1 .06.1 1.432 1.432 0 0 0 .113.165l.07.126c.047.067.1.13.149.2l.084.144c.028.04.067.073.094.113s.051.1.085.148.06.072.086.109c.045.063.085.126.133.186.026.033.06.061.086.094s.064.1.1.138a1.055 1.055 0 0 1 .092.1c.051.06.18.231.158.232-.075.01-.22-.146-.281-.2a1.358 1.358 0 0 1-.133-.119c-.049-.062-.084-.132-.133-.192-.017-.022-.044-.039-.061-.06a1.175 1.175 0 0 0-.1-.12.592.592 0 0 1-.048-.044c-.059-.072-.109-.149-.166-.224-.025-.03-.056-.057-.08-.087s-.029-.051-.045-.077-.054-.066-.076-.1-.028-.05-.046-.076c-.031-.045-.073-.084-.1-.129s-.031-.085-.057-.122c-.065-.094-.135-.189-.2-.283-.017-.024-.024-.051-.039-.075-.052-.077-.1-.16-.151-.236-.019-.028-.026-.061-.045-.088s-.06-.061-.083-.094a.567.567 0 0 1-.04-.085c-.019-.04-.045-.079-.067-.117s-.02-.047-.035-.068a2.434 2.434 0 0 1-.163-.29c-.026-.052-.065-.1-.091-.154l-.085-.175a1.855 1.855 0 0 1-.044-.117c-.03-.061-.076-.113-.1-.176-.02-.043-.031-.082-.05-.119s-.034-.04-.05-.03-.019.028-.008.062a1.331 1.331 0 0 0 .074.175c.035.072.054.148.088.222.018.041.047.08.067.12.034.07.067.141.1.207.019.039.034.076.056.113a.628.628 0 0 1 .038.062c.022.047.028.1.051.142s.062.086.085.131a5.771 5.771 0 0 0 .377.673c.039.059.06.13.1.188s.1.107.138.167.042.118.074.171c.044.079.106.146.156.22.013.021.017.044.031.066s.044.056.063.085a1.329 1.329 0 0 0 .067.119c.03.04.073.071.1.111s.063.1.1.154c.026.034.068.057.1.092.043.053.192.239.236.291a2.032 2.032 0 0 1 .238.3c.017.032.076.109.064.124-.031.02-.179-.134-.2-.156a1.9 1.9 0 0 1-.169-.2c-.013-.014-.155-.146-.167-.16l-.041-.053c-.04-.056-.064-.123-.106-.176-.018-.022-.045-.039-.062-.061-.033-.041-.055-.087-.088-.128-.049-.066-.115-.124-.165-.189s-.094-.155-.15-.227c-.028-.035-.063-.066-.09-.1-.012-.016-.016-.033-.028-.05a.767.767 0 0 1-.063-.094.669.669 0 0 0-.043-.086c-.058-.086-.117-.178-.174-.264-.027-.039-.042-.08-.067-.119-.044-.064-.1-.121-.142-.186S4.054 7.006 4 6.93c-.033-.051-.073-.1-.106-.148s-.056-.119-.09-.175-.069-.1-.095-.148-.047-.109-.075-.167c-.015-.03-.039-.061-.053-.092s-.022-.078-.042-.115c-.05-.106-.126-.206-.179-.312a2.19 2.19 0 0 1-.1-.232 1.171 1.171 0 0 0-.045-.125c-.047-.1-.1-.2-.148-.3l-.058-.154A.406.406 0 0 0 3 4.923c-.022-.045-.05-.09-.069-.134s-.034-.1-.052-.157c-.072-.17-.136-.362-.2-.539a1 1 0 0 0-.024-.107c-.035-.09-.071-.182-.1-.272-.02-.046-.066-.031-.056.016s.022.078.034.127c0 .026.01.05.015.075s.024.062.033.091c.019.055.02.108.039.16.028.073.056.144.082.219.006.038.015.075.023.113s.027.071.04.1c.04.093.078.182.112.273.015.053.029.1.042.157.015.029.036.059.049.087s.015.049.026.076c.025.059.047.119.076.178s.051.1.072.15c.01.026.01.047.019.072.06.155.124.318.2.466.017.036.022.074.04.111s.035.065.049.095l.022.06c.022.043.059.079.081.122a2.226 2.226 0 0 0 .191.338 1.867 1.867 0 0 1 .153.337 1.173 1.173 0 0 0 .092.147c.016.025.026.053.04.08a1.364 1.364 0 0 0 .095.163.445.445 0 0 1 .058.113.655.655 0 0 1 .033.131c-.01.007-.069-.027-.09-.048a.466.466 0 0 1-.1-.128c-.015-.031-.044-.084-.06-.114a2 2 0 0 0-.146-.208 1.313 1.313 0 0 1-.065-.128c-.038-.08-.083-.16-.124-.242a1 1 0 0 0-.063-.1c-.022-.032-.032-.065-.054-.1a2.045 2.045 0 0 1-.137-.223c-.028-.056-.042-.112-.069-.167a.481.481 0 0 0-.035-.051c-.019-.028-.026-.059-.043-.091s-.052-.082-.073-.125c-.042-.086-.067-.176-.108-.261-.021-.04-.054-.074-.074-.113-.031-.061-.033-.137-.064-.2-.079-.169-.17-.342-.236-.518-.01-.03-.015-.064-.024-.095-.029-.076-.067-.148-.1-.223-.013-.034-.017-.066-.031-.1-.019-.051-.045-.1-.065-.157 0-.017-.008-.036-.015-.053-.024-.048-.038-.106-.062-.157-.013-.026-.033-.053-.044-.082-.019-.051-.013-.115-.033-.162-.027-.072-.059-.149-.086-.22-.017-.041-.019-.081-.035-.123l-.056-.148c-.019-.048-.017-.1-.035-.153s-.03-.08-.044-.117c-.03-.056-.044-.129-.069-.194l-.013-.036c-.007-.018-.019-.035-.038-.03s-.022.031-.02.048a.548.548 0 0 0 .039.139 1.318 1.318 0 0 1 .039.132c.007.027.006.056.013.084s.026.08.037.12 0 .078.015.109c.027.086.058.184.088.266.013.043.015.092.028.129l.05.132c.016.044.018.072.034.107a1.146 1.146 0 0 1 .051.116c.017.053.015.106.035.157.032.082.072.159.1.238.01.029.013.06.024.089.026.068.044.141.07.209.038.1.085.193.123.289s.042.209.083.3c.022.044.066.07.086.113a.491.491 0 0 1 .02.091c.012.036.03.073.044.107s.017.061.026.09.04.072.056.107a1.485 1.485 0 0 0 .075.167 1.022 1.022 0 0 1 .082.117c.023.047.031.1.054.147.034.072.074.142.1.217a1.658 1.658 0 0 0 .071.2c.035.059.077.113.111.171s.043.089.065.133.051.067.073.1.052.092.074.137a.725.725 0 0 0 .044.1c.03.047.053.084.085.13a.872.872 0 0 1 .079.143.537.537 0 0 0 .054.107.925.925 0 0 1 .076.095.352.352 0 0 1 .038.151c-.026.009-.1-.057-.117-.08-.057-.065-.085-.153-.137-.223a1.273 1.273 0 0 1-.134-.2 1.947 1.947 0 0 0-.1-.183.954.954 0 0 1-.09-.125c-.018-.039-.027-.085-.045-.123-.027-.055-.082-.091-.11-.148s-.046-.128-.08-.188c-.017-.029-.038-.061-.053-.092s-.028-.074-.047-.113c-.038-.078-.1-.143-.133-.22s-.062-.165-.1-.244c-.021-.043-.058-.08-.08-.124s-.043-.117-.072-.175c-.018-.035-.044-.069-.061-.1-.024-.05-.033-.1-.058-.157l-.168-.358c-.021-.045-.026-.092-.048-.138s-.042-.08-.064-.12c-.047-.1-.065-.225-.114-.329-.025-.053-.056-.1-.079-.16-.035-.09-.047-.182-.083-.273-.053-.14-.1-.285-.148-.423-.016-.041-.017-.082-.034-.126l-.047-.121c-.011-.034-.018-.08-.027-.122l-.118-.355c-.01-.028-.011-.079-.022-.115a.644.644 0 0 0-.026-.063c-.009-.027-.009-.05-.018-.078-.029-.086-.054-.187-.083-.273-.008-.027-.011-.066-.02-.1a3.732 3.732 0 0 0-.113-.388c-.008-.022-.024-.046-.047-.04s-.018.03-.016.051c.007.056.029.1.039.151a.616.616 0 0 1 .006.075.426.426 0 0 0 .013.069c.024.073.053.159.075.231.008.035 0 .089.011.129a3.356 3.356 0 0 0 .1.36 2.6 2.6 0 0 1 .078.313c.008.045.011.09.018.135a.549.549 0 0 0 .047.109c.011.027.01.05.021.078.023.074.042.148.069.223.019.052.049.1.069.151.008.023.006.043.012.068.014.052.023.1.038.154.039.1.076.213.114.313.022.057.028.111.049.166l.256.655.042.146c.014.046.049.09.071.134s.036.116.06.176.061.124.09.2c.013.034.026.073.043.107s.035.049.049.075c.023.043.026.1.048.141a1.287 1.287 0 0 0 .088.119 1.3 1.3 0 0 1 .047.129c.032.067.073.128.1.2.013.03.018.056.032.084s.042.063.058.1a.09.09 0 0 1 0 .018c0 .013.009.03.014.043a.4.4 0 0 0 .038.065l.035.04a.2.2 0 0 1 .018.021 1.518 1.518 0 0 1 .058.16c.025.048.069.088.094.138s.03.134.006.138c-.1 0-.112-.138-.147-.211-.028-.057-.07-.1-.1-.157a.247.247 0 0 1-.013-.059.376.376 0 0 0-.022-.052c-.013-.026-.013-.022-.022-.041s-.039-.053-.047-.07c-.04-.061-.067-.147-.1-.188-.016-.022-.037-.045-.053-.068A1.124 1.124 0 0 1 2.8 6.8c-.019-.039-.051-.078-.07-.119s-.024-.11-.049-.159c-.012-.027-.035-.054-.049-.079-.029-.057-.047-.117-.076-.172-.013-.027-.039-.052-.053-.079-.023-.047-.035-.1-.061-.141a3.215 3.215 0 0 1-.158-.3c-.027-.058-.037-.117-.063-.173s-.055-.1-.078-.144a.775.775 0 0 1-.033-.1c-.022-.055-.048-.111-.069-.166-.014-.036-.025-.118-.041-.151s-.038-.086-.057-.127c-.029-.06-.038-.123-.066-.184s-.047-.1-.065-.144-.02-.079-.038-.117-.031-.061-.042-.091a1.134 1.134 0 0 1-.032-.141c-.019-.052-.042-.1-.058-.153s-.012-.127-.021-.151c-.058-.159-.111-.33-.165-.489-.024-.074-.036-.148-.058-.219-.008-.03-.008-.066-.017-.095-.015-.046-.035-.094-.051-.141a1.36 1.36 0 0 1-.02-.1.67.67 0 0 0-.04-.1c-.032-.1-.05-.2-.08-.292-.01-.039-.01-.09-.021-.125-.04-.116-.048-.251-.084-.373-.008-.036-.013-.071-.022-.1C1 1.647.973 1.392.9 1.173c-.013-.042 0-.1-.008-.141S.866.936.85.891A.6.6 0 0 1 .838.829C.826.792.809.762.787.767S.767.8.768.827a.679.679 0 0 0 .018.135C.8 1 .789 1.026.8 1.056c.022.07.029.171.042.235 0 .026 0 .063.006.094s.034.075.041.111S.9 1.6.9 1.655s.024.084.035.124 0 .068.014.1a.916.916 0 0 1 .036.1c.006.04 0 .1.008.135.054.2.07.437.132.629.008.028.009.057.016.085.051.169.091.348.145.514.007.026.006.053.013.082.017.059.032.122.046.18.006.028.006.053.014.08.018.061.04.121.062.181.008.03.011.059.017.088s.018.049.026.072.008.068.019.1a.394.394 0 0 1 .029.059c.008.036.013.072.024.107s.039.084.057.125.014.07.028.1c.025.058.052.128.076.191s.022.1.042.156c.013.035.031.07.043.1s.013.053.023.081a1.127 1.127 0 0 0 .057.1 1.154 1.154 0 0 1 .02.125c.013.04.037.072.051.109s.013.078.024.116.033.058.045.086l.038.1c.01.02.028.043.04.063.018.037.033.078.049.117a1.748 1.748 0 0 1 .043.184c0 .018 0 .061-.007.066-.027 0-.057-.036-.075-.06a.779.779 0 0 1-.084-.138C2 5.9 2 5.883 1.989 5.864c-.017-.041-.031-.09-.051-.131-.012-.026-.03-.054-.04-.082s-.008-.088-.024-.122-.039-.053-.053-.082-.015-.055-.027-.082a.894.894 0 0 0-.055-.092.781.781 0 0 1-.023-.094.692.692 0 0 0-.044-.12c-.018-.038-.042-.076-.06-.116-.012-.02-.012-.043-.019-.065s-.028-.061-.04-.09a.54.54 0 0 0-.023-.067l-.047-.1c-.014-.032-.012-.059-.023-.088-.019-.051-.037-.107-.056-.157s-.015-.077-.027-.116-.036-.09-.054-.135-.015-.078-.023-.115-.044-.093-.061-.144-.013-.082-.022-.12l-.092-.3c-.031-.1-.04-.229-.072-.338l-.081-.223c-.009-.04-.01-.077-.021-.115a2.566 2.566 0 0 0-.086-.29c-.015-.047-.01-.1-.025-.147s-.015-.112-.033-.166a.646.646 0 0 1-.033-.1c-.01-.043-.009-.093-.015-.125S.695 1.72.688 1.684s-.007-.1-.011-.122-.034-.1-.038-.119 0-.045-.013-.088-.035-.135-.039-.162 0-.082-.01-.109S.551.993.538.948.536.837.52.785.494.71.479.674A.72.72 0 0 1 .456.582L.45.47C.448.447.435.389.433.344A.888.888 0 0 0 .4.181V.112C.379.052.364 0 .332 0S.3.022.31.061.326.144.34.19A.716.716 0 0 1 .347.3c0 .033 0 .04.008.072C.358.38.363.41.367.424a.341.341 0 0 1 .011.067v.074a.166.166 0 0 0 .007.048A.27.27 0 0 1 .4.667v.054a.176.176 0 0 0 .01.061.325.325 0 0 1 .025.153.371.371 0 0 0 .023.176c.007.035 0 .073.007.107s.026.095.038.144 0 .075.015.113.053.123.058.147 0 .088.01.128.018.087.021.113 0 .038 0 .057.03.111.034.134 0 .036.01.061.027.124.031.155 0 .051.01.083c.01.049.031.09.041.136s0 .057.009.085c.011.044.026.084.035.125s.008.065.014.1c.016.07.026.142.047.212.013.041.038.08.051.12s.014.077.024.113.033.06.042.094 0 .059.01.088.023.066.03.1 0 .051.01.078.025.057.033.085.007.072.017.109.03.084.044.122.006.076.018.116c.025.086.055.18.085.261.013.043.011.088.028.134a.865.865 0 0 0 .04.079c.01.028 0 .058.01.09.015.052.022.122.042.173s.057.1.078.16.023.117.044.178.047.1.068.148.011.1.028.142.055.085.075.134.036.113.054.169c.007.024.011.048.016.072.022.074.064.135.091.2.01.032.013.06.023.09a1.269 1.269 0 0 0 .065.15c.02.043.05.086.071.13s.022.08.04.122.038.084.054.125c.01.026.011.049.023.072.053.111.117.224.171.333.028.06.042.124.073.186s.051.093.074.144c.014.032.018.063.033.094.029.06.071.121.1.179a.2.2 0 0 1 .021.1s0 .008-.006.01-.058-.027-.081-.048c-.076-.068-.088-.2-.14-.291-.015-.026-.033-.055-.046-.082a.507.507 0 0 0-.022-.057c-.033-.059-.074-.111-.1-.173-.022-.045-.024-.1-.044-.138C2 6.753 1.9 6.585 1.818 6.41c-.038-.08-.046-.17-.079-.257-.02-.051-.053-.093-.076-.142s-.022-.077-.04-.116-.058-.1-.078-.151c-.012-.035-.017-.07-.031-.1s-.044-.071-.063-.108a1.223 1.223 0 0 1-.051-.177c-.011-.034-.026-.069-.037-.1s-.013-.059-.024-.087c-.025-.067-.067-.124-.093-.192-.017-.045-.013-.1-.035-.148s-.047-.065-.063-.1 0-.088-.015-.134-.032-.086-.047-.129c-.008-.027-.011-.053-.019-.078-.022-.054-.042-.109-.063-.163C1 4.2 1 4.171.985 4.146s-.04-.063-.054-.1C.917 3.995.913 3.939.9 3.888.877 3.818.85 3.763.829 3.7a.634.634 0 0 0-.011-.065C.8 3.572.792 3.505.775 3.446c-.007-.029-.006-.053-.014-.081A3.543 3.543 0 0 0 .706 3.2C.7 3.164.7 3.129.686 3.1.657 3.008.631 2.9.6 2.82c0-.025 0-.048-.01-.076C.568 2.677.539 2.6.523 2.528c-.008-.04-.008-.079-.017-.116S.477 2.32.467 2.273v-.056a.646.646 0 0 0-.013-.09c-.034-.122-.083-.27-.111-.392-.009-.044-.01-.088-.015-.135S.32 1.534.311 1.5a.692.692 0 0 1-.031-.1c-.007-.052-.007-.1-.015-.153a.086.086 0 0 0 0-.011C.251 1.182.219 1.055.211 1S.2.883.187.824C.185.785.178.744.173.7.164.641.148.586.141.521.136.478.138.44.132.4S.128.341.1.341.071.374.069.4a1.036 1.036 0 0 0 .015.19c.009.074 0 .148.01.223C.1.857.114.9.119.939c.011.072.019.145.028.213a.812.812 0 0 0 .013.094.036.036 0 0 0 0 .009v.015a.415.415 0 0 0 .01.042c.008.027 0 .049.013.078.023.083.017.173.042.254.035.121.053.254.09.373.009.035 0 .07.01.107l.03.113c.01.039 0 .092.016.138s.029.083.042.125.015.1.029.153a1.561 1.561 0 0 1 .046.167c.011.062.018.132.031.2s.042.119.056.178c0 .02 0 .04.006.059.008.043.022.084.031.125 0 .019 0 .036.01.057.02.078.047.176.072.254.006.021.009.043.015.066.017.055.034.1.041.126s.008.057.016.085.026.079.034.116.012.055.02.084a.73.73 0 0 0 .04.1c.025.07.028.144.054.213.016.04.036.08.05.122s.015.088.027.132l.079.212c.026.068.049.169.078.245.013.031.01.061.021.094.024.076.051.162.078.239.014.041.014.08.031.119.027.065.067.119.092.185s.026.114.049.166c.03.07.063.142.093.217.019.051.026.1.049.15s.044.084.065.126.026.072.039.109a1.234 1.234 0 0 0 .064.113c.024.051.028.1.049.159.031.083.075.167.111.245.015.03.017.059.03.091.022.055.06.1.084.148s.03.1.052.147a.371.371 0 0 1 .058.2.019.019 0 0 1-.014.02c-.019.007-.041-.024-.054-.036a.477.477 0 0 1-.1-.173C1.89 7.407 1.822 7.3 1.77 7.2c-.028-.055-.039-.116-.066-.173-.017-.034-.041-.069-.057-.1-.024-.05-.037-.1-.064-.147a1.988 1.988 0 0 1-.1-.217c-.012-.028-.013-.055-.026-.082s-.036-.054-.049-.082c-.019-.044-.033-.1-.052-.147-.042-.088-.09-.18-.126-.273s-.048-.167-.081-.254c-.014-.036-.032-.074-.045-.11s-.011-.061-.023-.091c-.03-.078-.068-.161-.1-.235C.96 5.247.955 5.211.94 5.172l-.058-.148c-.024-.063-.025-.136-.05-.2-.053-.142-.123-.289-.169-.437-.008-.034-.006-.069-.017-.1C.622 4.21.6 4.128.572 4.048s-.024-.18-.052-.265C.483 3.671.44 3.556.4 3.446c-.01-.033-.006-.068-.017-.1A1.833 1.833 0 0 0 .3 3.08C.287 3.041.287 3 .271 2.961S.2 2.932.209 2.983a1 1 0 0 0 .025.128c.006.032.006.063.013.1.015.059.035.109.052.163s.019.109.035.167l.031.087c.018.058.018.12.039.173s.028.091.042.135c.008.029.007.053.017.082.016.053.033.1.051.157.008.03.006.056.012.084s.023.084.035.123.01.088.024.128c.024.072.053.148.078.217s.033.154.061.232c.052.136.1.292.151.43.014.035.01.071.021.109.017.059.031.117.053.176.01.028.03.056.042.081s.021.07.038.1.032.055.043.084c.016.043.01.1.028.138l.046.1c.014.031.015.078.031.114s.037.06.052.09a.587.587 0 0 1 .029.091c.014.033.033.067.047.1s.017.074.034.11.036.061.049.094.014.072.027.109c.022.053.057.1.081.151s.02.08.038.119.049.088.07.131c.028.059.049.121.076.176.046.1.062.207.11.3.035.073.083.14.117.211.018.04.024.082.044.119s.059.079.079.123.03.087.049.128.064.1.09.157c.015.03.022.06.037.09.028.06.076.109.106.167l.043.116c.031.063.081.116.113.179a.99.99 0 0 0 .067.138c.044.067.074.11.117.178a1.571 1.571 0 0 1 .09.155c.023.047.061.086.083.132s.052.095.078.138.058.084.091.13c.051.074.084.154.136.23.035.053.076.106.115.157.1.136.254.378.318.46.054.066.1.145.147.213s.084.107.125.157.06.086.093.129l.026.033a15.273 15.273 0 0 0 3.869 3.372 5.277 5.277 0 0 0 .943.468c.077.031.025.084-.015.108l-6.89 4.182c-.022.014-.074.051-.053.092s.085.014.1.008c5.531-1.839 9.543-3.352 12-4.455C16.4 13.958 17.231 13.318 17.14 13" class="cls-1" data-name="Path 637"/>
        <path id="Path_638" d="M136.682 30.18v-.394h.478a5.972 5.972 0 0 1 1.563.119 2.014 2.014 0 0 1 1.451 2.177 2.246 2.246 0 0 1-2.262 2.349 3.214 3.214 0 0 1-1.23-.305zm1.943 5.231a3.442 3.442 0 0 0 3.6-3.353 3.068 3.068 0 0 0-2.616-3.108 7.479 7.479 0 0 0-1.817-.138h-4.009l.068.067s.684.1.684 1.305v7.483c0 1.2-.684 1.3-.684 1.3l-.068.072h3.65l-.067-.072s-.68-.1-.68-1.3v-2.612a4.782 4.782 0 0 0 1.943.356m53.226.45l-.8 2.738a11.961 11.961 0 0 1-3.235.593c-3.966 0-5.888-2.725-5.888-5.192 0-3.068 2.33-5.353 6.036-5.353a8.7 8.7 0 0 1 3.5.707v2.21l-.06-.049a3.591 3.591 0 0 0-3.274-1.873c-2.322 0-3.8 1.718-3.8 4.344s1.522 4.069 3.715 4.069a4.687 4.687 0 0 0 3.718-2.136zm-25.77-5.681v7.483c0 1.2.686 1.3.686 1.3l.069.072h-3.654l.07-.072s.682-.1.682-1.3V30.18c0-1.2-.682-1.305-.682-1.305l-.07-.067h3.654l-.069.067s-.686.1-.686 1.305m8.537-1.372a3.706 3.706 0 0 0 1.378-.115v1.826l-.069-.056a2.11 2.11 0 0 0-1.707-.691h-2.59v3.269h2.155c1.2 0 1.3-.526 1.3-.526l.072-.071v2.2l-.072-.071s-.1-.528-1.3-.528h-2.159v3.62c0 1.2.679 1.3.679 1.3l.072.072h-3.65l.065-.072s.682-.1.682-1.3v-7.481c0-1.2-.682-1.3-.682-1.3l-.065-.071h5.886zm-12.845 7.109l.087-.057-.8 2.738a11.959 11.959 0 0 1-3.238.593c-3.962 0-5.884-2.725-5.884-5.192 0-3.068 2.326-5.351 6.036-5.351a8.676 8.676 0 0 1 3.495.705v2.21l-.058-.049a3.593 3.593 0 0 0-3.27-1.873c-2.325 0-3.8 1.718-3.8 4.344s1.516 4.069 3.713 4.069a4.7 4.7 0 0 0 3.718-2.136m18.366-5.738v7.483c0 1.2.683 1.3.683 1.3l.069.072h-3.654l.069-.072s.683-.1.683-1.3V30.18c0-1.2-.683-1.305-.683-1.305l-.069-.067h3.654l-.069.067s-.683.1-.683 1.305m-35.7 4.946l1.576-3.316 1.44 3.316h-3.016zm6.536 2.518l-4.496-9.344-4.464 9.348c-.669 1.279-1.405 1.306-1.405 1.306l-.069.071h3.056l-.067-.071s-.856-.169-.315-1.306l.805-1.65h3.824l.778 1.65c.541 1.137-.313 1.306-.313 1.306l-.069.071h4.208l-.07-.071s-.775-.005-1.405-1.306m-42.724 0v-7.483c0-1.204.683-1.291.683-1.291l.07-.067h-3.654l.067.067s.684.088.684 1.291.006 2.937.006 2.937h-5.025v-2.936c0-1.2.685-1.287.685-1.287l.067-.069h-3.659l.072.069s.681.083.681 1.287v7.483c0 1.206-.681 1.309-.681 1.309l-.072.068h3.651l-.067-.068s-.685-.1-.685-1.309v-3.543h5.025v3.543c0 1.206-.681 1.309-.681 1.309l-.071.068H109l-.071-.068s-.684-.1-.684-1.309m-19.17-8.839a3.657 3.657 0 0 1-1.374-.115v2.033l.07-.051a2.111 2.111 0 0 1 1.75-.881h1.715v7.854c0 1.206-.679 1.309-.679 1.309l-.071.068h3.652l-.068-.068s-.684-.1-.684-1.309l.009-7.854h1.674a2.2 2.2 0 0 1 1.783.881l.071.051v-2.033a3.665 3.665 0 0 1-1.375.115zm24.176 6.317l1.579-3.316 1.437 3.316zm6.54 2.518L115.3 28.3l-4.465 9.348c-.668 1.279-1.4 1.306-1.4 1.306l-.069.071h3.054l-.065-.071s-.855-.169-.316-1.306l.8-1.65h3.829l.777 1.65c.543 1.137-.311 1.306-.311 1.306l-.069.071h4.208l-.07-.071s-.775-.006-1.4-1.306M127 28.81l.071.069s.9.254.222 1.313c-.334.515-1.339 1.954-2.255 3.345-.92-1.391-1.911-2.839-2.242-3.354-.68-1.06.226-1.3.226-1.3l.066-.069h-4.207l.068.069s.609.1 1.408 1.3c.335.508 2.044 2.9 2.963 4.289v3.176c0 1.206-.683 1.309-.683 1.309l-.068.068h3.652l-.07-.068s-.68-.1-.68-1.309c0-.509-.007-1.786-.007-3.176.921-1.393 2.633-3.771 2.97-4.281a2.68 2.68 0 0 1 1.7-1.313l.071-.069zm-53.7 9.244c-2.2 0-3.713-1.441-3.713-4.069s1.474-4.344 3.793-4.344a3.591 3.591 0 0 1 3.274 1.873l.057.049v-2.21a8.669 8.669 0 0 0-3.5-.705c-3.708 0-6.035 2.283-6.035 5.351 0 2.468 1.922 5.192 5.885 5.192a11.98 11.98 0 0 0 3.238-.593l.8-2.738-.088.057a4.694 4.694 0 0 1-3.711 2.137m7.768-2.928l1.577-3.316 1.438 3.316zm6.54 2.518L83.116 28.3l-4.465 9.348c-.668 1.279-1.406 1.306-1.406 1.306l-.067.071h3.057l-.074-.071s-.853-.169-.31-1.306l.8-1.65h3.829l.778 1.65c.54 1.137-.313 1.306-.313 1.306l-.067.071h4.209l-.072-.071s-.776-.006-1.4-1.306" class="cls-1" data-name="Path 638" transform="translate(-51.782 -19.651)"/>
    </g>
</svg>
