<svg xmlns="http://www.w3.org/2000/svg" width="131" height="31.491" viewBox="0 0 131 31.491">
    <defs>
        <style>
            .cls-1{fill:#002b5c}.cls-2{fill:#ed1c24}
        </style>
    </defs>
    <g id="g10" transform="translate(-1.975 98.082)">
        <path id="path22" d="M307.387-62.728l-.112.432s1.419-.023 1.991-.023c1.31 0 2.108.119 2.2.916a3.829 3.829 0 0 1-.315 1.561c-.139.492-.265.965-.4 1.45a3.693 3.693 0 0 1-.573 1.31 2.094 2.094 0 0 1-1.118.753 29.459 29.459 0 0 1-3.5.056c-.072.18-.115.39-.172.585 1.863.1 3.658-.03 5.564.028a7.958 7.958 0 0 0 1.778-.028 2.229 2.229 0 0 0 1.692-1.506c.256-.752.488-1.627.717-2.425a5.719 5.719 0 0 1 .4-1.2 2.73 2.73 0 0 1 .745-.837 2.325 2.325 0 0 1 2.409-.39 1.2 1.2 0 0 1 .689 1.227 5.772 5.772 0 0 1-.344 1.561c-.444 1.577-.836 2.918-1.262 4.462a12.629 12.629 0 0 1-.43 1.478 2.817 2.817 0 0 1-2.151 1.673 18.23 18.23 0 0 1-2.725.028h-8.2s-.14.4-.2.613c3.6.051 7.309.027 10.811.027.954 0 1.837.025 2.667-.055a16.411 16.411 0 0 0 6.223-1.84 17.451 17.451 0 0 0 6.825-6.552 5.65 5.65 0 0 1 5.2-2.847c.076-.2.114-.288.176-.458z" class="cls-1" transform="translate(-203.095 -23.769)"/>
        <path id="path26" d="M103.064-73.746h3.327c-1.453 5.112-2.865 10.264-4.331 15.364h-3.3c1.4-5.151 2.851-10.258 4.3-15.364" class="cls-1" transform="translate(-65.071 -16.361)"/>
        <path id="path30" d="M1.975-51.689v-.083c1.166-3.978 2.234-8.052 3.413-12.018H16.6a6.719 6.719 0 0 1 1.721.139 2.729 2.729 0 0 1 1.95 3.4c-.212.954-.551 2-.8 2.872-.417 1.445-.808 2.866-1.2 4.266a7.351 7.351 0 0 1-.431 1.422c-1.08-.018-2.236.037-3.269-.027.6-2.247 1.4-5.008 2.065-7.334a3.5 3.5 0 0 0 .2-1.143c-.1-1.1-1.358-.955-2.581-.948-.783 2.754-1.567 5.555-2.323 8.281a7.8 7.8 0 0 1-.372 1.171c-1.08-.018-2.237.037-3.27-.027.836-3.176 1.773-6.252 2.61-9.425H7.94c-.871 3.171-1.74 6.343-2.667 9.454h-3.3" class="cls-1" transform="translate(0 -23.054)"/>
        <path id="path34" d="M60.924-63.8h5.047c1.828 0 3.285-.1 4.359.641a2.711 2.711 0 0 1 1.147 2.231 8.347 8.347 0 0 1-.487 2.428c-.638 2.247-1.278 4.632-1.921 6.8h-5.334c-1.7 0-3.849.219-4.99-.363a2.278 2.278 0 0 1-1.233-1.84 4.7 4.7 0 0 1 .832-2.984 4.645 4.645 0 0 1 2.122-1.728c1.929-.81 4.716-.251 7.313-.418a2.13 2.13 0 0 0 .143-1.646c-.421-.827-2.234-.585-3.556-.585h-4.158c.219-.865.451-1.718.717-2.537m1.806 7.306a1.538 1.538 0 0 0-1.577 1.756c.153.35.529.471.975.5 1.265.088 3.007-.066 4.33 0q.32-1.125.631-2.259c-1.332.074-3.056-.1-4.359 0" class="cls-1" transform="translate(-37.327 -23.044)"/>
        <path id="path38" d="M119.477-63.81h5.223a20.721 20.721 0 0 1 2.552.055 2.917 2.917 0 0 1 2.748 3.43 20 20 0 0 1-.775 2.9c-.556 1.964-1.028 3.855-1.605 5.716h-5.506c-1.784 0-3.882.2-4.99-.474a2.243 2.243 0 0 1-1.061-1.784 4.67 4.67 0 0 1 .86-2.928 4.559 4.559 0 0 1 2.094-1.728c1.932-.811 4.753-.249 7.313-.418a2.124 2.124 0 0 0 .143-1.646c-.421-.826-2.234-.585-3.556-.585h-4.157c.225-.859.451-1.717.717-2.537m1.778 7.306a2.422 2.422 0 0 0-.832.223 1.56 1.56 0 0 0-.689 1.589c.1.274.522.416.918.446 1.392.1 2.973-.079 4.36 0q.329-1.116.631-2.259c-1.4.093-2.947-.123-4.388 0" class="cls-1" transform="translate(-76.695 -23.034)"/>
        <path id="path42" d="M158.1-63.79h3.3c-.52 1.969-1.232 4.376-1.835 6.581-.195.711-.679 1.812-.259 2.426.333.485 1.143.418 2.007.418h2.38c.923-3.108 1.776-6.286 2.667-9.425h3.327c-1.194 4.3-2.453 8.786-3.642 12.994a5.375 5.375 0 0 1-1.577 2.621 6.545 6.545 0 0 1-2.667 1.534 17.248 17.248 0 0 1-4.072.167h-4.187c.191-.883.463-1.687.689-2.537h3.155c1.111 0 2.245.068 3.154 0a2.439 2.439 0 0 0 1.922-1.116 7.4 7.4 0 0 0 .488-1.562c-2.682-.071-5.891.425-6.968-1.255a2.572 2.572 0 0 1-.373-1.143 7.46 7.46 0 0 1 .459-2.565c.652-2.315 1.372-4.8 1.978-7.055.025-.022.017-.076.058-.083" class="cls-1" transform="translate(-101.9 -23.054)"/>
        <path id="path46" d="M213.316-63.868c-.246.839-.469 1.7-.717 2.537h-5.965a4.871 4.871 0 0 0-1.806.167A1.521 1.521 0 0 0 204-59.6c.206.466.776.5 1.319.5h1.835a8.672 8.672 0 0 1 3.326.334 2.39 2.39 0 0 1 1.291 2.537 5.023 5.023 0 0 1-1.434 3.04 4.811 4.811 0 0 1-3.126 1.394c-1.427.134-3 .028-4.531.028h-4.5c.159-.8.457-1.712.689-2.537h6.682a3.812 3.812 0 0 0 1.922-.279 1.458 1.458 0 0 0 .631-1.506c-.23-.7-2.147-.473-3.126-.473a8.613 8.613 0 0 1-3.27-.335 2.292 2.292 0 0 1-1.348-2.537 4.719 4.719 0 0 1 .516-1.729 4.843 4.843 0 0 1 4.216-2.7c1.372-.085 2.763 0 4.13 0h4.1z" class="cls-1" transform="translate(-131.906 -22.977)"/>
        <path id="path50" d="M244.176-63.79h3.3a928.663 928.663 0 0 1-3.384 12.074c-.9.064-2.32.01-3.27.028-.066-.109 0-.257.029-.363 1.07-3.818 2.211-7.8 3.3-11.656 0-.04 0-.079.029-.083" class="cls-1" transform="translate(-160.558 -23.054)"/>
        <path id="path54" d="M261.138-63.79h6.768c2.135 0 3.739.818 3.785 2.872a8.5 8.5 0 0 1-.488 2.426 470.999 470.999 0 0 1-1.921 6.776c-1.717.051-3.554.028-5.392.028-1.727 0-3.844.22-4.989-.391a2.291 2.291 0 0 1-.975-1.031 3.985 3.985 0 0 1 .374-3.29 4.678 4.678 0 0 1 2.036-2.063c2.031-1.034 5.082-.361 7.657-.557a2.171 2.171 0 0 0 .143-1.646c-.409-.828-2.244-.585-3.556-.585h-4.158c.188-.848.461-1.615.66-2.454.024-.022.017-.076.057-.083m1.778 7.306a2.449 2.449 0 0 0-.831.223 1.542 1.542 0 0 0-.689 1.617c.116.264.542.39.946.418 1.384.1 2.953-.073 4.331 0 .2-.761.426-1.5.63-2.259-1.4.094-2.938-.124-4.388 0" class="cls-1" transform="translate(-171.928 -23.054)"/>
        <path id="path58" d="M229.512-23.3c-.555 2.276-1.306 4.6-1.893 6.943h-1q.975-3.43 1.921-6.888c.22-.121.663-.025.975-.055" class="cls-1" transform="translate(-151.027 -50.27)"/>
        <path id="path62" d="M193.541-18.712h2.208c1.133 0 2.233-.145 2.495.641a2.9 2.9 0 0 1-.258 1.673c-.281 1-.569 2.122-.861 3.123-1.131-.06-2.465.079-3.585 0-.745-.053-1.289-.43-1.319-1.171a2.194 2.194 0 0 1 .8-1.673c.9-.7 2.527-.371 4.015-.447.086-.324.328-.7.2-1.059-.16-.447-1.141-.307-1.807-.307h-2.122a4.042 4.042 0 0 1 .229-.781m.258 3.095a1.15 1.15 0 0 0-.545 1.116c.165.815 2.157.3 3.1.446.136-.422.254-.92.373-1.338.038-.132.157-.3.058-.418-.822.154-2.349-.179-2.983.195" class="cls-1" transform="translate(-127.903 -53.353)"/>
        <path id="path66" d="M212.542-18.691c-.467 1.841-1.005 3.614-1.491 5.437h-.975q.74-2.738 1.52-5.437z" class="cls-1" transform="translate(-139.907 -53.375)"/>
        <path id="path70" d="M216.914-13.241h-.975c.21-.865.541-1.977.832-3.039s.546-2.025 1.548-2.342a8.664 8.664 0 0 1 1.893-.083 3.484 3.484 0 0 1-.23.78 7.736 7.736 0 0 0-1.061.028c-.835.162-.979.92-1.2 1.7-.267.923-.6 2.206-.8 2.955" class="cls-1" transform="translate(-143.849 -53.359)"/>
        <path id="path74" d="M234.974-18.691c-.513 1.806-1.012 3.626-1.52 5.437h-.975q.743-2.679 1.492-5.354a.075.075 0 0 1 .057-.083z" class="cls-1" transform="translate(-154.969 -53.375)"/>
        <path id="path78" d="M239.862-18.744c1.79.181 4.575-.651 4.473 1.31a5.265 5.265 0 0 1-.258 1.06c-.271.979-.587 2.068-.832 3.067h-1c.218-.845.583-2.079.86-3.067.132-.47.34-1.049.058-1.366-.425-.478-1.684-.1-2.524-.223-.478 1.515-.884 3.1-1.319 4.656h-.975c.494-1.824.995-3.643 1.52-5.437" class="cls-1" transform="translate(-158.911 -53.321)"/>
        <path id="path82" d="M262.87-18.743c-.082.255-.133.54-.229.781-.789.049-1.513-.066-2.179 0a2.2 2.2 0 0 0-1.807 1.478c1.09.064 2.3.009 3.441.028-.051.266-.14.5-.2.753h-3.441a1.572 1.572 0 0 0-.086 1c.276.954 2.065.515 3.155.613.04.243-.133.521-.172.781-1.625-.058-3.254.293-3.843-.725-.723-1.251.233-3.212 1.09-3.96a3.1 3.1 0 0 1 1.663-.753c.877-.08 1.636.059 2.609 0" class="cls-1" transform="translate(-171.624 -53.322)"/>
        <path id="path86" d="M278.429-18.667c-.092.246-.144.529-.229.781-1.011.141-2.646-.236-3.413.111-.322.146-.778.656-.545 1.116.251.493 2.228.118 2.839.39.856.382.757 1.587.258 2.259a1.989 1.989 0 0 1-1.376.754c-1.173.117-2.659-.089-3.929 0a6.051 6.051 0 0 1 .23-.781c1.168-.144 3.6.349 4.216-.419a.938.938 0 0 0 .143-.892c-.307-.628-2.508-.069-3.154-.5a1.133 1.133 0 0 1-.4-1.06 2.113 2.113 0 0 1 1.979-1.757c1.14-.093 2.2.07 3.384 0" class="cls-1" transform="translate(-181.562 -53.371)"/>
        <path id="path90" d="M342.889-86.789c-2.019.045-3.53-.821-3.674-2.649-.029-.369 0-.713-.029-1.032a8.236 8.236 0 0 0-.66-2.593c-1.316-3.022-3.913-4.687-8.087-5.019h-12.961c-.025.227-.126.379-.143.613h8.373a11.449 11.449 0 0 1 2.7.083 1.393 1.393 0 0 1 1.061 1.45 6.7 6.7 0 0 1-.373 1.422c-.4 1.388-.745 2.763-1.147 4.155a6.918 6.918 0 0 1-1 2.537 2.44 2.44 0 0 1-2.524.892 1.3 1.3 0 0 1-.831-.529c-.433-.667-.035-1.693.172-2.426.113-.4.237-.776.344-1.144a4.759 4.759 0 0 0 .287-1.2 1.1 1.1 0 0 0-.8-1.116 6.565 6.565 0 0 0-1.807-.083c-1.846 0-3.837-.023-5.621.028-.038.195-.112.356-.143.557 1.606 0 4.187-.2 4.187 1.116a3.592 3.592 0 0 1-.2.976c-.171.594-.35 1.182-.516 1.785a7.26 7.26 0 0 1-.258.892 1.7 1.7 0 0 1-1.807 1.282h-3.139l-.075.292h28.577c.044-.13.068-.194.107-.292" class="cls-2" transform="translate(-209.914)"/>
    </g>
</svg>
