<svg xmlns="http://www.w3.org/2000/svg" id="Nordwind_Airlines_logo" width="135.12" height="20.473" viewBox="0 0 135.12 20.473">
    <defs>
        <style>
            .cls-1{fill:#cd202c}
        </style>
    </defs>
    <path id="Path_615" d="M182.173 23.318a5.463 5.463 0 0 1-1.2-.145l.048-.482a4.3 4.3 0 0 0 1.06.145c.482 0 .819-.1.867-.385 0-.289-.289-.385-.771-.482-.963-.193-1.156-.53-1.156-.915 0-.674.578-.867 1.3-.867a4.751 4.751 0 0 1 1.156.145l-.048.482a3.939 3.939 0 0 0-1.012-.145c-.434 0-.723.1-.723.337 0 .193.1.337.819.482.963.193 1.108.626 1.108.915 0 .723-.626.915-1.445.915zm-4.335-1.927h1.734c.145-.434-.048-.771-.723-.771a1.028 1.028 0 0 0-1.012.772zm1.108 1.445a2.626 2.626 0 0 0 1.154-.236l.1.482a3.38 3.38 0 0 1-1.349.241 1.591 1.591 0 1 1-.048-3.179c1.156 0 1.638.578 1.252 1.686h-2.312a1.164 1.164 0 0 0 1.202 1.007zm-4.962-2.216a2.373 2.373 0 0 1 1.3-.482c.771 0 1.06.434 1.06 1.156v1.976h-.578v-1.927a.59.59 0 0 0-.674-.674 2.306 2.306 0 0 0-1.108.434v2.12h-.578v-3.036h.578v.434zm-2.168-.385h.578v3.035h-.578zm-1.59-1.06h.578v4.095h-.578zm-1.975 1.445a2.363 2.363 0 0 1 1.252-.482v.53a2.79 2.79 0 0 0-1.252.434v2.12h-.578v-3.035h.578v.434zm-2.168-.385h.578v3.035h-.578zm-2.5-.385l-.674 1.831h1.349zm.385-.674l1.541 4.095h-.674l-.385-1.06h-1.69l-.385 1.06h-.675l1.541-4.095zm2.12 0h.578v.578h-.578v-.578zm5.732 0h.578v.578h-.578v-.578zM202.645 8h.963v1.2h-.963V8zm16.282 0v8.43h-.963v-.482h-.048a3.328 3.328 0 0 1-2.023.626 3.005 3.005 0 0 1-3.131-3.227 3.1 3.1 0 0 1 3.179-3.324 5.541 5.541 0 0 1 1.975.385h.048V8h.963zm-.963 7.226v-4a5.684 5.684 0 0 0-1.879-.385 2.3 2.3 0 0 0-2.36 2.457 2.251 2.251 0 0 0 2.36 2.457 3.728 3.728 0 0 0 1.879-.529zm-11.706-4.239a5.732 5.732 0 0 1 2.842-.963c1.59 0 2.216.867 2.216 2.312v4.094h-.963v-4.046c0-1.108-.53-1.541-1.59-1.541a5.135 5.135 0 0 0-2.5.963v4.624h-.963v-6.31h.963v.867zm-3.613-.867h.963v6.31h-.963zm-8.237 6.359h-1.252L190.8 10.12h1.06l1.927 5.443 1.879-5.443h1.06l1.927 5.443 1.879-5.443h1.06l-2.312 6.359h-1.252l-1.879-4.913zM189.784 8v8.43h-.963v-.482h-.048a3.328 3.328 0 0 1-2.023.626 3.005 3.005 0 0 1-3.131-3.227 3.1 3.1 0 0 1 3.179-3.324 5.541 5.541 0 0 1 1.975.385h.048V8zm-.963 7.226v-4a5.684 5.684 0 0 0-1.879-.385 2.3 2.3 0 0 0-2.36 2.457 2.251 2.251 0 0 0 2.36 2.457 3.6 3.6 0 0 0 1.878-.529zm-8.526-4.239c.048 0 .048.048 0 0a5.112 5.112 0 0 1 2.746-.963v.915a5.77 5.77 0 0 0-2.746.915v4.624h-.963V10.12h.963zm-8 2.312a2.237 2.237 0 0 0 2.312 2.457 2.261 2.261 0 0 0 2.312-2.457 2.261 2.261 0 0 0-2.312-2.457A2.237 2.237 0 0 0 172.3 13.3zm-.963 0a3.276 3.276 0 1 1 6.551 0 3.276 3.276 0 1 1-6.551 0zm-2.7 3.131l-4.624-6.888v6.888H163V8h1.2l4.624 6.888V8h1.012v8.43z" data-name="Path 615" transform="translate(-83.807 -4.146)"/>
    <path id="Path_616" d="M56.457 20.473h-20.04L25.242 1.2 14.114 20.473H0L7.9 6.84C10.068 3.035 14.885 0 18.642 0h20.039l11.128 19.317L60.985 0H75.1l-7.9 13.632c-2.169 3.806-6.986 6.841-10.743 6.841z" class="cls-1" data-name="Path 616"/>
</svg>
