<svg xmlns="http://www.w3.org/2000/svg" width="113.758" height="32.292" viewBox="0 0 113.758 32.292">
    <defs>
        <style>
            .cls-1{fill:#525a68}.cls-2{fill:#5c0d34}.cls-3{fill:#757f8b}
        </style>
    </defs>
    <g id="qatar-airways-vector-logo" transform="translate(-41.5 -254.607)">
        <path id="Path_647" d="M138.215 391.737h-1.555l.834-1.915zm.948 2.143h1.176c-.36-.721-.834-1.915-1.195-2.617-.247-.721-.721-1.783-1.081-2.863h-.493c-.247.588-.588 1.669-1.422 3.451l-.948 2.029h.721a14.966 14.966 0 0 1 .588-1.669h1.9l.36.834z" class="cls-1" data-name="Path 647" transform="translate(-75.932 -108.422)"/>
        <path id="Path_648" d="M165.014 390.783a34.262 34.262 0 0 1-.114 3.584h1.176a15.875 15.875 0 0 1-.114-2.617 20.456 20.456 0 0 1 .114-2.75H164.9a10.764 10.764 0 0 1 .114 1.783" class="cls-1" data-name="Path 648" transform="translate(-100 -108.908)"/>
        <path id="Path_649" d="M180 392.317a1.413 1.413 0 0 0 1.308-1.422 1.065 1.065 0 0 0-.36-.834 1.445 1.445 0 0 0-1.195-.36h-2.143v2.143a30.526 30.526 0 0 1-.114 3.224h1.062v-2.5h.247a17.151 17.151 0 0 1 1.308 1.915 2.264 2.264 0 0 0 .36.588h1.308c-.474-.588-.721-.948-1.308-1.783-.114-.114-.247-.474-.36-.588zm-1.308-2.389h.588a.868.868 0 0 1 .721.247 1.065 1.065 0 0 1 .36.834 1.007 1.007 0 0 1-1.081 1.081h-.588z" class="cls-1" data-name="Path 649" transform="translate(-110.21 -109.475)"/>
        <path id="Path_650" d="M202.357 392.5c-.36-1.081-.834-2.617-1.081-3.584H200.1c.36.834.588 1.555.834 2.143.36 1.081.588 1.669.834 2.617l.247.588h.607c.114-.36.247-.948.36-1.195.36-.948.36-1.081.721-2.143l.247-.588a8.438 8.438 0 0 1 .36.948c.114.247.474 1.422.588 1.669a14.049 14.049 0 0 0 .474 1.422h.721c.36-.948.36-1.081.721-2.257.474-1.195.721-1.915 1.195-3.091h-.721c-.247 1.081-.474 1.555-.588 2.143-.36 1.081-.36 1.195-.588 1.783-.247-.721-.474-1.308-.721-2.029a10.117 10.117 0 0 1-.834-2.029h-.721c-.247.948-1.081 3.224-1.195 3.451l-.114.474z" class="cls-1" data-name="Path 650" transform="translate(-128.525 -108.827)"/>
        <path id="Path_651" d="M240.715 391.737h-1.555l.834-1.915zm.948 2.143h1.176c-.36-.721-.834-1.915-1.195-2.617-.247-.721-.721-1.783-1.081-2.863h-.493c-.247.588-.588 1.669-1.422 3.451l-.948 2.029h.721a14.969 14.969 0 0 1 .588-1.669h1.9l.36.834z" class="cls-1" data-name="Path 651" transform="translate(-158.995 -108.422)"/>
        <path id="Path_652" d="M263.444 392.224c0-.114 0-.114.114-.247.36-.588.588-1.195.948-1.669.114-.246.721-1.081.834-1.308h-.834c-.588 1.195-.721 1.555-1.308 2.617-.721-1.195-.948-1.783-1.422-2.617H260.6c.36.721 1.081 1.783 1.422 2.5l.474.834v2.143h1.062v-2.257z" class="cls-1" data-name="Path 652" transform="translate(-177.552 -108.908)"/>
        <path id="Path_653" d="M287.047 392.686a1.108 1.108 0 0 1-.247.834 3.646 3.646 0 0 0 1.422.36 1.813 1.813 0 0 0 2.029-1.669 1.444 1.444 0 0 0-.36-1.081 2.617 2.617 0 0 0-1.081-.588c-.721-.247-1.081-.474-1.081-.948a.851.851 0 0 1 .948-.834 1.073 1.073 0 0 1 1.081.721h.114c.114-.36.114-.36.247-.721a3.6 3.6 0 0 0-1.308-.36c-1.422 0-1.783.834-1.783 1.555a1.48 1.48 0 0 0 .948 1.422c.247.114.588.247.834.36a1.021 1.021 0 0 1 .588.948c0 .588-.36.948-1.081.948-.436 0-.777-.114-1.271-.948z" class="cls-1" data-name="Path 653" transform="translate(-198.784 -108.422)"/>
        <path id="Path_654" d="M44.629 296.537c0-5.954 3.224-7.509 5.613-7.509 3.812 0 5.48 3.224 5.48 6.675a9.576 9.576 0 0 1-1.195 5.253 5.336 5.336 0 0 1-4.286 2.389c-4.3-.019-5.613-4.191-5.613-6.808m11.795 12.155a17.329 17.329 0 0 1 2.617-1.422l-5.366-3.337a8.18 8.18 0 0 0 5.366-8.116c0-5.613-4.286-8.116-8.7-8.116-4.779 0-8.818 2.617-8.818 8.59a7.839 7.839 0 0 0 2.143 5.841 8.838 8.838 0 0 0 6.561 2.389h.834z" class="cls-2" data-name="Path 654" transform="translate(0 -26.817)"/>
        <path id="Path_655" d="M152.678 298.185c-.721 0-1.422.114-2.143.114-.834 0-1.669-.114-2.5-.114l2.389-5.841zm2.636 6.542c.474 0 1.081-.114 1.783-.114s1.422.114 1.783.114c-1.081-2.257-2.617-5.841-3.451-7.87s-2.257-5.253-3.337-8.457a1.6 1.6 0 0 1-.721.114 2.415 2.415 0 0 1-.834-.114c-.588 1.915-1.915 5.006-4.286 10.373l-2.75 6.087c.36 0 .721-.114 1.081-.114s.834.114 1.081.114a35.644 35.644 0 0 1 1.915-5.12c.948 0 1.915-.114 2.863-.114a26.048 26.048 0 0 1 2.977.114l.948 2.5z" class="cls-2" data-name="Path 655" transform="translate(-82.658 -27.384)"/>
        <path id="Path_656" d="M227.47 293.386v-2.617c1.669 0 3.337 0 4.646.114a2.415 2.415 0 0 1-.114-.834 3.433 3.433 0 0 1 .114-.948 55.1 55.1 0 0 1-6.2.247c-1.783 0-4.418 0-6.315-.114a3.116 3.116 0 0 1 0 1.669c1.195-.114 3.451-.114 3.7-.114h1.195v9.178c0 1.783-.114 3.584-.247 5.367a9.737 9.737 0 0 1 1.555-.114c.247 0 1.081.114 1.669.114v-11.948z" class="cls-2" data-name="Path 656" transform="translate(-144.327 -27.952)"/>
        <path id="Path_657" d="M291 298.185c-.721 0-1.422.114-2.143.114-.834 0-1.669-.114-2.5-.114l2.389-5.841zm2.617 6.542c.474 0 1.081-.114 1.783-.114s1.422.114 1.783.114c-1.081-2.257-2.617-5.841-3.451-7.87s-2.257-5.253-3.337-8.457a1.6 1.6 0 0 1-.721.114 2.415 2.415 0 0 1-.834-.114c-.588 1.915-1.915 5.006-4.286 10.373l-2.75 6.087c.36 0 .721-.114 1.081-.114s.834.114 1.081.114a35.649 35.649 0 0 1 1.915-5.12c.948 0 1.915-.114 2.863-.114a26.048 26.048 0 0 1 2.977.114l.948 2.5z" class="cls-2" data-name="Path 657" transform="translate(-194.732 -27.384)"/>
        <path id="Path_658" d="M382.587 297.23c2.143-.36 4.058-1.783 4.058-4.418a3.657 3.657 0 0 0-1.081-2.617 4.814 4.814 0 0 0-3.7-1.195c-.588 0-3.224.114-3.944.114-1.195 0-1.783-.114-2.389-.114.114 2.977.114 3.337.114 6.447 0 4.532 0 5.006-.247 9.652a7.7 7.7 0 0 1 1.669-.114c.588 0 1.081.114 1.555.114 0-.588-.114-3.7-.114-4.286v-3.223h.588c1.308 1.783 2.75 3.812 3.944 5.727.36.588.834 1.422 1.195 1.915a9.513 9.513 0 0 1 1.915-.114c.834 0 1.422.114 2.143.114-1.422-1.915-2.143-2.75-3.944-5.253-.36-.474-.834-1.308-1.195-1.782zm-3.944-6.921c.36 0 1.195-.114 1.669-.114a3.244 3.244 0 0 1 2.143.588 2.675 2.675 0 0 1 .948 2.5 2.992 2.992 0 0 1-3.224 3.224 7.7 7.7 0 0 1-1.669-.114v-6.087z" class="cls-2" data-name="Path 658" transform="translate(-270.583 -27.871)"/>
        <path id="Path_659" d="M571.815 330.374a34.17 34.17 0 0 1-5.12.36 6.73 6.73 0 0 1-1.195-.834c3.565.228 6.315.36 6.315.474" class="cls-3" data-name="Path 659" transform="translate(-424.634 -61.015)"/>
        <path id="Path_660" d="M569.186 304.428a23.9 23.9 0 0 1-4.286.36 3.519 3.519 0 0 1 1.195-.588 15.731 15.731 0 0 1 3.091.228" class="cls-3" data-name="Path 660" transform="translate(-424.148 -40.188)"/>
        <path id="Path_661" d="M464.92 356.669h-2.977c-1.195 0-2.143-.36-2.143-.834s.948-.834 2.143-.834H466c-.721 1.081-.948 1.555-1.081 1.669" class="cls-3" data-name="Path 661" transform="translate(-338.978 -81.355)"/>
        <path id="Path_662" d="M468.12 369.5a7.093 7.093 0 0 0 1.308 1.308s.247.246.721 0a4.046 4.046 0 0 0 1.669-1.308c1.669 0 3.337.114 5.006.114a8.607 8.607 0 0 1 .721 1.195c-4.779.114-9.9.246-12.516.246-1.081 0-2.029-.36-2.029-.721 0-.474.834-.721 2.029-.721a25.911 25.911 0 0 1 3.091-.114" class="cls-3" data-name="Path 662" transform="translate(-341.571 -93.106)"/>
        <path id="Path_663" d="M472.983 384.141c-.948 0-1.783-.36-1.783-.721s.834-.721 1.783-.721c2.617 0 7.87.114 12.4.246a3.69 3.69 0 0 1 .588.948c-4.646.247-10.259.247-12.99.247" class="cls-3" data-name="Path 663" transform="translate(-348.216 -103.802)"/>
        <path id="Path_664" d="M498.212 398.6c-3.812.114-10.373.247-12.99.247-.721 0-1.422-.247-1.422-.474s.588-.474 1.422-.474c2.617 0 8.7.114 12.516.247.114.095.228.322.474.455" class="cls-3" data-name="Path 664" transform="translate(-358.427 -116.12)"/>
        <path id="Path_665" d="M504.034 409.1c2.257 0 9.064.114 9.064.36s-6.789.36-9.064.36c-.474 0-.834-.114-.834-.36 0-.114.36-.36.834-.36" class="cls-3" data-name="Path 665" transform="translate(-374.148 -125.196)"/>
        <path id="Path_666" d="M468.864 330.155c-2.863 0-5.366.114-6.921.114-1.195 0-2.143-.36-2.143-.834s.948-.834 2.143-.834c1.915 0 5.006 0 8.344.114a9.183 9.183 0 0 0-1.422 1.441" class="cls-3" data-name="Path 666" transform="translate(-338.978 -59.961)"/>
        <path id="Path_667" d="M578.474 317.3c1.669.114 2.75.247 2.75.247a13.352 13.352 0 0 1-3.224.36c.36-.247.474-.493.474-.607" class="cls-3" data-name="Path 667" transform="translate(-434.764 -50.804)"/>
        <path id="Path_668" d="M465.629 316.841c-1.081 0-2.029-.36-2.029-.721 0-.474.834-.721 2.029-.721 2.257 0 6.315 0 10.373.114-.474.474-.948.834-1.422 1.308-3.584.019-6.921.019-8.951.019" class="cls-3" data-name="Path 668" transform="translate(-342.057 -49.264)"/>
        <path id="Path_669" d="M483.976 302.827c-4.172.114-8.7.114-11.093.114-.948 0-1.783-.36-1.783-.721s.834-.721 1.783-.721c2.617 0 7.87.114 12.4.247-.246.114-.474.36-.721.474a4.32 4.32 0 0 0-.588.607" class="cls-3" data-name="Path 669" transform="translate(-348.135 -38)"/>
        <path id="Path_670" d="M484.522 290.459c-.721 0-1.422-.247-1.422-.474s.588-.474 1.422-.474c2.977-.114 10.126 0 13.71.247-.247.114-.474.36-.721.474-3.679.095-10.24.228-12.99.228" class="cls-3" data-name="Path 670" transform="translate(-357.86 -28.249)"/>
        <path id="Path_671" d="M460.743 343.469c-1.195 0-2.143-.36-2.143-.834s.948-.834 2.143-.834c1.422 0 3.7 0 6.2.114-.474.588-.834 1.081-1.195 1.555h-5.006" class="cls-3" data-name="Path 671" transform="translate(-338.006 -70.658)"/>
        <path id="Path_672" d="M503.2 279.96c0-.247.36-.36.834-.36 2.257 0 9.064.114 9.064.36s-6.789.36-9.064.36c-.474 0-.834-.247-.834-.36" class="cls-3" data-name="Path 672" transform="translate(-374.148 -20.253)"/>
        <path id="Path_673" d="M507.578 271.388v1.195c-3.944.114-7.756.36-7.756.721 0 .246 3.7.474 7.623.721-.114.474-.114.948-.247 1.308-3.812.114-7.4.36-7.4.588s3.337.474 7.035.588a7.525 7.525 0 0 1-.588 1.422c-3.224.114-5.841.36-5.841.588 0 .247 2.257.36 5.253.588-.114.247-.36.474-.474.721a4.285 4.285 0 0 0-.588.834c-1.783.114-3.091.247-3.091.474a6.178 6.178 0 0 0 2.257.36 15.97 15.97 0 0 1-2.617 2.029s-1.195-1.081-2.257-2.257a52.321 52.321 0 0 1-3.224-4.646c-.474-.588-.721-.834-1.308-.588a7.319 7.319 0 0 1-1.783.36c-.228 0-.36-.114 0-.247a5.026 5.026 0 0 0 2.863-2.617c.948-1.783.114-4.418.114-4.418a4 4 0 0 1-1.081 1.915 4.1 4.1 0 0 0-.588-3.224l-.474 1.422s-.246 0-.721.474a3.7 3.7 0 0 0-.721 1.081 1.3 1.3 0 0 0 .948-.246 18.865 18.865 0 0 1-2.257 5.48 3.454 3.454 0 0 1-1.915 1.669c-.588.246-.721 0-.721 0l-1.308-1.308h.114c.246 0 .834-.474.834-.721.114-.247.114-.36 0-.36s-.114.114-.721.474a.588.588 0 0 1-.948-.114c-.114-.114 0-.36.114-.474s2.863-5.366 10.373-10.98c9.785-7.282 16.1-9.178 16.46-9.425.247-.114.588-.247.721-.114a.457.457 0 0 1 .114.36c0 .114-.114.114-.474.36a70.335 70.335 0 0 0-10.619 6.087c-3.091 1.555-5.954 3.7-6.087 3.7-.247.114-.114.36.114.247a65.062 65.062 0 0 1 18.015-7.756c.36-.114.474-.114.588 0s.114.114.114.247-.114.247-.36.247c-7.282 2.75-12.516 5.12-15.986 7.509 0 0-.36.247-.36.474 0 .114.247.114.247.114 1.669 0 4.058.114 5.12.247 0 0-.114.588-1.195.948a5.046 5.046 0 0 1-2.257.247c-.114 0-.36.114-.114.36-.209.228 1.327 2.75 7.054 3.337" class="cls-2" data-name="Path 673" transform="translate(-360.171)"/>
        <path id="Path_674" d="M315.9 393.532h-.948s-.114-.588.247-.834a3.069 3.069 0 0 1 .721-.36v1.195zm4.532-2.276a6.189 6.189 0 0 0-.948.721c-.36.36.114.474.114.474v1.081h-2.863v-3.944a8.3 8.3 0 0 0-1.081 1.081c-.114.114.247.247.247.247v.36s-.36.247-.948.588c-.474.36-.834.721-.834 1.081 0 .247-.114 1.422-.114 1.422h6.561v-3.091h-.133zm-5.841-1.422c.36 0 .588-.114.588-.36s-.114-.474-.588-.474c-.36 0-.474.114-.474.474.114.246.228.36.474.36m1.195 0c.36 0 .588-.114.588-.36s-.114-.474-.588-.474c-.36 0-.474.114-.474.474.114.246.228.36.474.36m1.9 4.892c-.36 0-.474.114-.474.474 0 .247.114.36.474.36s.588-.114.588-.36c-.114-.36-.228-.474-.588-.474m1.195 0c-.36 0-.474.114-.474.474 0 .247.114.36.474.36s.588-.114.588-.36c0-.36-.228-.474-.588-.474m14.07-4.892c.36 0 .588-.114.588-.36s-.114-.474-.588-.474c-.36 0-.474.114-.474.474 0 .246.114.36.474.36m1.195 0c.36 0 .588-.114.588-.36s-.114-.474-.588-.474c-.36 0-.474.114-.474.474 0 .246.114.36.474.36m3.451.114c-.114.114-.114.36.114.36v4.172h.948v-5.12c.019-.114-.929.36-1.062.588m-3.7 2.276h-.597c0-.36.588-.474.588-.474zm-3.925.721v.588h-5.253v-.948c.114-.36.36-.36.721-.36h3.812c.834 0 .721.474.721.721m6.068-2.75v3.337h-1.176v-2.977s-.247.114-.588.247c-.36.114-1.555.721-1.555 1.308v.834h1.308v.588h-2.977v-.721a1.584 1.584 0 0 0-1.555-1.555h-3.451c-.588 0-.948.114-1.081.36v-2.5a6.188 6.188 0 0 0-.948.721c-.36.36 0 .474 0 .474v3.224h-1.195v-2.75s-.834.588-1.081.721c-.247.114-.114.36.114.36v2.5a.856.856 0 0 1-1.195.834s-.247 0 0 .247a1.065 1.065 0 0 0 .834.36 1.4 1.4 0 0 0 1.422-1.422h14.431v-5.12s-.834.588-1.081.721c-.455.095-.455.209-.228.209" class="cls-2" data-name="Path 674" transform="translate(-220.826 -108.908)"/>
    </g>
</svg>
