<svg xmlns="http://www.w3.org/2000/svg" width="119.996" height="13.98" viewBox="0 0 119.996 13.98">
    <defs>
        <style>
            .cls-1{fill:#2b4779}.cls-2{fill:#f4ca35}
        </style>
    </defs>
    <g id="g4156" transform="translate(.001 .038)">
        <g id="g4140" transform="translate(16.303 1.163)">
            <path id="path8540" d="M957.705 1034.568l-3.729-4.818h-1.4v4.818H948.3v-12.681h6.363c4.653 0 7.629 1.322 7.629 3.949 0 1.776-1.711 2.879-4.037 3.459l4.1 5.272h-4.653zm-3.25-10.471h-1.882v3.533h2.121c2.19 0 3.318-.6 3.318-1.758 0-1.141-.991-1.775-3.557-1.775z" class="cls-1" transform="translate(-948.297 -1021.885)"/>
            <path id="path8546" d="M994.634 1029.783v4.782h-4.276v-4.746l-6.159-7.935h4.722l1.847 2.572a16.33 16.33 0 0 1 1.78 2.953 18.873 18.873 0 0 1 1.779-2.953l1.847-2.572h4.653l-6.193 7.9z" class="cls-1" transform="translate(-969.928 -1021.884)"/>
            <path id="path8552" d="M1032.93 1034.568l-1.128-2.645h-5.371l-1.129 2.645h-4.379l6.124-12.681h4.174l6.123 12.681zm-2.7-6.267c-.411-.979-.958-2.447-1.129-3.079a26.93 26.93 0 0 1-1.095 3.043l-.65 1.541h3.524l-.65-1.5z" class="cls-1" transform="translate(-991.805 -1021.885)"/>
            <path id="path8558" d="M1076.259 1034.57l-4.413-5.652a30.279 30.279 0 0 1-1.813-2.572c.034.78.068 2.083.068 2.88v5.344h-3.9v-12.68h4.311l4.208 5.562c.582.76 1.437 1.938 1.882 2.645-.034-.78-.136-2.156-.136-2.954v-5.253h3.9v12.679h-4.105z" class="cls-1" transform="translate(-1018.939 -1021.887)"/>
            <path id="path8564" d="M1118.366 1034.568l-1.13-2.645h-5.371l-1.129 2.645h-4.379l6.123-12.681h4.175l6.124 12.681zm-2.7-6.267c-.411-.979-.958-2.447-1.129-3.079a26.858 26.858 0 0 1-1.095 3.043l-.65 1.541h3.525l-.65-1.5z" class="cls-1" transform="translate(-1042.985 -1021.885)"/>
            <path id="path8570" d="M1151.892 1021.882h4.276v12.68h-4.276z" class="cls-1" transform="translate(-1070.35 -1021.882)"/>
            <path id="path8576" d="M1181.323 1034.568l-3.73-4.818h-1.4v4.818h-4.277v-12.681h6.364c4.653 0 7.629 1.322 7.629 3.949 0 1.776-1.71 2.879-4.036 3.459l4.1 5.272h-4.652zm-3.251-10.471h-1.881v3.533h2.12c2.19 0 3.318-.6 3.318-1.758 0-1.141-.991-1.775-3.557-1.775z" class="cls-1" transform="translate(-1082.278 -1021.885)"/>
        </g>
        <g id="g4149" transform="translate(-.001 -.037)">
            <path id="path8582" d="M916.583 1019.621a13.626 13.626 0 0 0 2.78.635l.667.007.021-.019a4.252 4.252 0 0 0 1.081-.251c.042-.01.142-.035.184.022a.193.193 0 0 1-.095.211 5.988 5.988 0 0 1-1.575.833v-.011a4.7 4.7 0 0 0-.544.17 5.965 5.965 0 0 1-2.113.275c-1.355-.07-2.506-.557-3.7-.5a3.274 3.274 0 0 0-2.917 1.274 3.6 3.6 0 0 0-.655 1.5c.035.49.719.678.975 1.083a6.315 6.315 0 0 1 .331.769 14.577 14.577 0 0 0 .913 1.506l-.009.01a2.265 2.265 0 0 0 .914.791 4.061 4.061 0 0 1 1.2 1.292l-.014.008a12.589 12.589 0 0 1 .688 1.456c.1.3.215.569.3.863.03.027.03.072.047.111.081.233.149.481.248.7-.042.032.033.045.024.076.005.131.132.327-.037.415a2.8 2.8 0 0 1-.509-.774 15.094 15.094 0 0 0-.983-1.49l.011-.01c-.22-.278-.464-.592-.715-.88-1.061-1.182-2.621-1.893-3.761-3.018l-.011.01a2.245 2.245 0 0 1-.238-.3l.008-.011c-.139-.2-.221-.419-.356-.619l.008-.01a9.728 9.728 0 0 1-.92-1.646 5.342 5.342 0 0 1-.15-.741l-.027-.093c.015-.258-.621-.408-.272-.9.22-.239 1.07-.533 1.359-.98a.242.242 0 0 0-.035-.207c0-.048-.049-.1-.084-.148-.161-.2-.6-.042-.59-.339.045 0 0-.042.032-.058a.694.694 0 0 1 .007-.367 2 2 0 0 0 .157-.77c.018-.092.109-.147.2-.183a4.381 4.381 0 0 1 .517-.094l.022.018a1.367 1.367 0 0 1 1.176.32 1.159 1.159 0 0 1-.04.786c-.021.143-.176.259-.14.41a.236.236 0 0 0 .239.021 6.919 6.919 0 0 0 1.612-1.432 1.931 1.931 0 0 1 1.592-.446 19.021 19.021 0 0 1 3.17.735z" class="cls-2" transform="translate(-907.279 -1018.863)"/>
            <path id="path8588" d="M920.671 1025.743c.161.214-.054.4-.118.591a17.314 17.314 0 0 0-1.348 3.222.151.151 0 0 1-.147.034.343.343 0 0 1-.1-.346 9.266 9.266 0 0 1 .9-3.308.617.617 0 0 1 .57-.317.48.48 0 0 1 .253.124z" class="cls-2" transform="translate(-914.309 -1022.906)"/>
            <path id="path8594" d="M924.1 1026.466c.086.384-.19.7-.312 1.042a22.83 22.83 0 0 0-1.82 3.964.2.2 0 0 1-.1.123.093.093 0 0 1-.116-.051 3.411 3.411 0 0 1 .162-1.653 17.415 17.415 0 0 1 1.449-3.447c.073-.056.084-.1.175-.129a.6.6 0 0 1 .562.151z" class="cls-2" transform="translate(-915.97 -1023.318)"/>
            <path id="path8600" d="M927.784 1026.724c.176.134.085.387.016.544-.764 1.713-2 3.19-2.513 4.987-.141.381-.233.774-.351 1.158-.021.069-.12.071-.192.054a1.468 1.468 0 0 1-.048-.546 10.865 10.865 0 0 1 1.2-4.1 67.02 67.02 0 0 1 .955-1.805.753.753 0 0 1 .479-.387.865.865 0 0 1 .455.1z" class="cls-2" transform="translate(-917.773 -1023.54)"/>
            <path id="path8606" d="M931.358 1026.765c.122.205 0 .431-.051.627a22.591 22.591 0 0 1-2.124 3.722 18.723 18.723 0 0 0-1.45 3.251c-.144.332-.2.7-.37 1.016-.014.034-.059.014-.09.022-.107-.091-.093-.22-.119-.334a12.456 12.456 0 0 1 1.116-3.879c.626-1.391 1.466-2.72 2.037-4.158a.809.809 0 0 1 .479-.472.613.613 0 0 1 .571.207z" class="cls-2" transform="translate(-919.255 -1023.406)"/>
        </g>
    </g>
</svg>
