<svg xmlns="http://www.w3.org/2000/svg" width="120" height="44.017" viewBox="0 0 120 44.017">
    <defs>
        <style>
            .cls-1{fill:#fcb130}.cls-1,.cls-2{fill-rule:evenodd}.cls-2,.cls-3{fill:#1d4886}
        </style>
    </defs>
    <g id="g10" transform="translate(0 128.38)">
        <g id="g12" transform="translate(0 -128.38)">
            <g id="g5458">
                <path id="path50" d="M25.381-93.143h87.456l-1.737 2.708H25.381v-2.707" class="cls-1" transform="translate(-25.381 134.451)"/>
                <g id="g4758" transform="translate(86.599)">
                    <path id="path52" d="M300.436-163.188h-3.216l6.492-9.591a4.5 4.5 0 0 0-.3-4.088l-9.049-14.033a2.558 2.558 0 0 1 0-2.549l2.678-3.753 10.62 16.242a6.329 6.329 0 0 1-.239 7.617l-6.985 10.151" class="cls-1" transform="translate(-289.979 203.271)"/>
                    <path id="path54" d="M301.061-176.728l3.949-5.711a4.634 4.634 0 0 1 4.128-2.359h4.188l2.917 4.376s-2.3-.227-3.336 1.336l-4.307 6.166a5.737 5.737 0 0 1-5.16 2.884h-20.282l7.718-11.252s1.091-1.321-.434-3.509l-6.865-10.485s-1.69-1.549.06-4.205l2-2.885 9.543 14.69a3.659 3.659 0 0 1 0 4.433l-7.165 10.613h15.107s1.705.3 3.171-1.776l3.754-5.484a5.617 5.617 0 0 1 2.737-2.6h-3.036a3.855 3.855 0 0 0-2.8 1.847l-3.335 4.9a4.632 4.632 0 0 1-3.89 2.074h-5.28l6.372-9.391s3.47-4.333 1.032-8.311l-10.56-16.594a2.8 2.8 0 0 1 .12-2.771l2.3-3.282 12.026 18.4s1.765 2.756 1.765 4.887-1.406 4.547-2.184 5.768l-5.295 7.843s-.6.753-.179 1.037.853-.227 1.211-.64" class="cls-1" transform="translate(-282.842 214.022)"/>
                </g>
                <g id="g5439" transform="translate(.045 15.896)">
                    <path id="path16" d="M147.379-128.532h1.87v7.4h4.562v1.586h-6.432v-8.989" class="cls-2" transform="translate(-103.39 141.171)"/>
                    <path id="path18" d="M169.177-119.542h1.855v-8.989h-1.855z" class="cls-2" transform="translate(-117.319 141.171)"/>
                    <path id="path20" d="M106.106-119.542h1.84v-8.989h-1.84z" class="cls-2" transform="translate(-77.014 141.171)"/>
                    <path id="path24" d="M211.071-128.532h7.045v1.481h-5.175v2.2h4.4v1.631h-4.4v2.183h5.175v1.5h-7.045v-8.989" class="cls-2" transform="translate(-144.092 141.171)"/>
                    <path id="path26" d="M238.546-162.015h7.045v1.481h-5.175v2.184h4.412v1.63h-4.412v2.184h5.175v1.481h-7.045v-8.959" class="cls-2" transform="translate(-161.65 162.568)"/>
                    <path id="path28" d="M119.118-119.542v-8.989h5.34a2.571 2.571 0 0 1 2.573 2.617 2.975 2.975 0 0 1-1.944 3.006l2.707 3.365h-2.3l-3.739-4.667h1.944a1.4 1.4 0 0 0 1.391-1.436 1.352 1.352 0 0 0-1.466-1.436h-2.633v7.539h-1.87" class="cls-2" transform="translate(-85.329 141.171)"/>
                    <path id="path30" d="M210.159-153.055v-8.959h5.34a2.572 2.572 0 0 1 2.573 2.618 2.985 2.985 0 0 1-1.944 2.991l2.707 3.35h-2.3l-3.739-4.636h1.944a1.4 1.4 0 0 0 1.391-1.436 1.343 1.343 0 0 0-1.466-1.436h-2.632v7.509h-1.87" class="cls-2" transform="translate(-143.509 162.568)"/>
                    <path id="path38" d="M98.481-154.611h2.528v-4.113h1.791v5.669h-4.708a4.423 4.423 0 0 1-4.128-4.367 4.447 4.447 0 0 1 4.263-4.592h4.622v1.586h-4.173a2.788 2.788 0 0 0-2.8 2.946 3 3 0 0 0 2.6 2.872" class="cls-2" transform="translate(-69.254 162.568)"/>
                    <path id="path40" d="M181.07-128.534h1.885v1.391l1.182-1.391h2.229a2.874 2.874 0 0 1 3.051 3.1v5.893h-1.9v-6.178a1.293 1.293 0 0 0-1.346-1.227h-3.216v7.4h-1.885v-8.989" class="cls-2" transform="translate(-124.919 141.173)"/>
                    <path id="path42" d="M66.117-162.017h1.869v1.376l1.182-1.376H71.4a2.884 2.884 0 0 1 3.066 3.1v5.863h-1.9v-6.147a1.312 1.312 0 0 0-1.361-1.226h-3.218v7.374h-1.87v-8.959" class="cls-2" transform="translate(-51.459 162.571)"/>
                    <path id="path44" d="M53.851-153.056h1.84v-8.959h-1.84z" class="cls-2" transform="translate(-43.62 162.569)"/>
                    <path id="path46" d="M236-119.557v-1.526h5.2s1.032.194 1.032-1.062-.778-1.122-1.062-1.122h-3.007s-2.318.164-2.318-2.558a2.4 2.4 0 0 1 2.289-2.707h5.713v1.585h-5.011s-1.092 0-1.092 1.032.733 1.226 1.421 1.226h2.678s2.259-.24 2.259 2.453a2.387 2.387 0 0 1-2.318 2.678H236" class="cls-2" transform="translate(-159.929 141.171)"/>
                    <path id="path48" d="M25.656-153.055v-1.525h5.205s1.032.195 1.032-1.062-.778-1.122-1.062-1.122h-3.007a2.225 2.225 0 0 1-2.318-2.543 2.383 2.383 0 0 1 2.289-2.707h5.713v1.586H28.5s-1.092 0-1.092 1.032.748 1.226 1.421 1.226H31.5s2.259-.239 2.259 2.438a2.387 2.387 0 0 1-2.318 2.677h-5.785" class="cls-2" transform="translate(-25.506 162.568)"/>
                    <path id="path4192" d="M183.773-163.548a4.908 4.908 0 0 0-4.9 4.9 4.894 4.894 0 0 0 4.9 4.894 4.877 4.877 0 0 0 4.9-4.894 4.887 4.887 0 0 0-4.9-4.9m0 7.994a3.07 3.07 0 0 1-3.059-3.091 3.09 3.09 0 0 1 3.059-3.094 3.115 3.115 0 0 1 3.1 3.094 3.1 3.1 0 0 1-3.1 3.091" class="cls-3" transform="translate(-123.517 163.548)"/>
                    <path id="path4194" d="M128.012-162.016h-1.978l-4.265 8.959h2.1l1.134-2.576h4.063l1.12 2.576h2.1m-6.757-3.9l1.5-3.668 1.481 3.659z" class="cls-3" transform="translate(-87.023 162.569)"/>
                    <path id="path4194-3" d="M79.488-128.531H77.51l-4.265 8.989h2.1l1.134-2.585h4.063l1.12 2.585h2.1M77-123.45l1.5-3.68 1.481 3.671z" class="cls-3" transform="translate(-56.014 141.17)"/>
                    <path id="path4190" d="M159.112-162.016h-4.977v8.959h1.909v-4.351l1.1 1.518h1.965a2.925 2.925 0 0 0 2.875-3.064 2.928 2.928 0 0 0-2.875-3.064m-.068 4.466h-3v-2.818h3c.674 0 1.134.745 1.134 1.419a1.3 1.3 0 0 1-1.134 1.4" class="cls-3" transform="translate(-107.706 162.569)"/>
                </g>
            </g>
        </g>
    </g>
</svg>
