<svg xmlns="http://www.w3.org/2000/svg" width="138.12" height="21.672" viewBox="0 0 138.12 21.672">
    <defs>
        <style>
            .cls-1{fill:#fff}.cls-2{fill:#c70a0c}
        </style>
    </defs>
    <g id="layer1" transform="translate(46.512 -93.447)">
        <g id="surface44525" transform="translate(-46.512 93.447)">
            <path id="path10" d="M18.5 21.594a8.444 8.444 0 0 0-2.6-8.878 10.226 10.226 0 0 0-3.177 14.1c2.638-.734 4.957-2.125 5.781-5.223m4.553 9.842a10.221 10.221 0 1 0-6.476-19.111c4.907 1.664 7.545 4.194 7.728 6.786a4.622 4.622 0 0 1-1.631 3.7l6.938-.485c.2-.013.258.215.02.283l-16.557 4.748a10.2 10.2 0 0 0 9.97 4.08M22.49 10.58a10.836 10.836 0 1 1-1.137-.059 11.117 11.117 0 0 1 1.137.059" class="cls-1" transform="translate(-10.521 -10.521)"/>
            <path id="path12" d="M11.423 23.2a10.152 10.152 0 0 0 1.439 3.767c2.638-.734 4.957-2.125 5.781-5.223a8.444 8.444 0 0 0-2.605-8.878A10.225 10.225 0 0 0 11.423 23.2m20.158-3.387A10.221 10.221 0 0 1 13.225 27.5l16.549-4.745c.238-.069.176-.3-.02-.283l-6.938.485a4.622 4.622 0 0 0 1.631-3.7c-.183-2.592-2.821-5.122-7.728-6.786a10.215 10.215 0 0 1 14.862 7.339" class="cls-2" transform="translate(-10.667 -10.668)"/>
            <path id="path14" d="M105.623 27.187v-3.563h-3.573v3.563h-1.96V18.7h1.961v3.381h3.572V18.7h1.977v8.486zm0 0" transform="translate(-27.828 -12.101)"/>
            <path id="path16" d="M54.567 18.7v5.313a3.968 3.968 0 0 0 .257 1.508 2.575 2.575 0 0 0 .73 1.012 3.009 3.009 0 0 0 1.14.58 5.643 5.643 0 0 0 1.494.186 5.483 5.483 0 0 0 1.479-.186 2.705 2.705 0 0 0 1.089-.577 2.617 2.617 0 0 0 .684-1.013 4.156 4.156 0 0 0 .243-1.51V18.7h-1.834v5.256a1.966 1.966 0 0 1-.395 1.285 1.878 1.878 0 0 1-2.523 0 1.938 1.938 0 0 1-.4-1.286V18.7zm0 0" transform="translate(-19.032 -12.101)"/>
            <path id="path18" d="M47 27.188v-6.9h-2.3V18.7h6.586v.76a.825.825 0 0 1-.824.825h-1.496v6.9zm0 0" transform="translate(-17.125 -12.101)"/>
            <path id="path20" d="M86.622 18.7h1.961v8.486h-1.961zm0 0" transform="translate(-25.225 -12.101)"/>
            <path id="path22" d="M78.057 23.228l.066.084 2.505 3.228a1.66 1.66 0 0 0 1.32.647h1.562l-3.589-4.565-.053-.067.053-.067 2.95-3.788H80.83l-2.706 3.658-.068.088V18.7h-1.961v8.487h1.961v-3.959zm0 0" transform="translate(-23.191 -12.1)"/>
            <path id="path24" d="M67.595 22.585h1.143a1.219 1.219 0 0 0 .932-.335 1.2 1.2 0 0 0 .308-.85 1.24 1.24 0 0 0-.3-.862 1.21 1.21 0 0 0-.94-.337h-1.143zm3.922 4.6a1.678 1.678 0 0 1-1.429-.805l-1.526-2.519h-.967v3.325h-1.96V18.7h3.495a2.936 2.936 0 0 1 2.09.7 2.472 2.472 0 0 1 .734 1.877 2.566 2.566 0 0 1-.315 1.2 2.241 2.241 0 0 1-1.089.95l-.113.053 2.381 3.709zm0 0" transform="translate(-21.17 -12.101)"/>
            <path id="path26" d="M91.048 26.795v-1.627a5.551 5.551 0 0 0 2.26.574c.957 0 1.442-.328 1.442-.957 0-.738-.651-.82-1.955-1.381a2.493 2.493 0 0 1-1.733-2.433c0-1.654 1.262-2.434 3.009-2.434a6.432 6.432 0 0 1 2.163.383v1.586a5.2 5.2 0 0 0-2.025-.452c-.86 0-1.262.315-1.262.861 0 .574.486.753 1.359 1.081 1.123.56 2.427.807 2.427 2.721 0 1.654-1.317 2.557-3.079 2.557a6.559 6.559 0 0 1-2.607-.479" transform="translate(-26.081 -12.07)"/>
            <path id="path28" d="M166.135 27.186V18.7h5.314v.77a.816.816 0 0 1-.815.815H168.1v1.826h2.85v1.417h-2.85V25.6h3.353v1.584zm0 0" transform="translate(-40.59 -12.101)"/>
            <path id="path30" d="M142.1 27.185V18.7h.953a1.009 1.009 0 0 1 1.008 1.008v5.95h3.13v1.529zm0 0" transform="translate(-35.946 -12.101)"/>
            <path id="path32" d="M127.055 27.185V18.7h1.961v8.481zm0 0" transform="translate(-33.038 -12.102)"/>
            <path id="path34" d="M133.675 22.583h1.143a1.219 1.219 0 0 0 .932-.335 1.206 1.206 0 0 0 .308-.85 1.238 1.238 0 0 0-.3-.862 1.211 1.211 0 0 0-.939-.337h-1.143zm3.922 4.6a1.68 1.68 0 0 1-1.429-.8l-1.525-2.519h-.967v3.324h-1.96V18.7h3.494a2.938 2.938 0 0 1 2.09.7 2.472 2.472 0 0 1 .734 1.877 2.559 2.559 0 0 1-.316 1.2 2.246 2.246 0 0 1-1.088.95l-.113.053 2.381 3.709zm0 0" transform="translate(-33.939 -12.101)"/>
            <path id="path36" d="M117.974 24.093l.77-2.145c.171-.483.342-.992.456-1.367h.028c.1.389.271.871.442 1.367l.742 2.145zm2.423-5.4h-2.252l-3.2 8.487h1.413a.827.827 0 0 0 .788-.569l.329-1h3.442l.5 1.565h2.125zm0 0" transform="translate(-30.698 -12.101)"/>
            <path id="path38" d="M174.674 26.795v-1.627a5.556 5.556 0 0 0 2.26.574c.957 0 1.442-.328 1.442-.957 0-.738-.652-.82-1.955-1.38a2.494 2.494 0 0 1-1.734-2.434c0-1.654 1.262-2.434 3.009-2.434a6.437 6.437 0 0 1 2.164.383v1.586a5.212 5.212 0 0 0-2.025-.451c-.86 0-1.262.315-1.262.861 0 .574.485.752 1.359 1.08 1.124.56 2.427.807 2.427 2.721 0 1.654-1.317 2.557-3.078 2.557a6.556 6.556 0 0 1-2.607-.479" transform="translate(-42.24 -12.07)"/>
            <path id="path40" d="M154.633 18.7h1.216a1.671 1.671 0 0 1 1.419.788l2.367 3.8a13.764 13.764 0 0 1 .761 1.375h.042a19.947 19.947 0 0 1-.042-1.294V18.7h1.718v8.486h-2.15l-2.88-4.586a18.67 18.67 0 0 1-.747-1.307h-.028c.014.368.042.8.042 1.212v4.686h-1.718zm0 0" transform="translate(-38.367 -12.101)"/>
            <path id="path42" d="M149.976 27.185V18.7h1.961v8.481zm0 0" transform="translate(-37.467 -12.102)"/>
        </g>
    </g>
</svg>
