<svg xmlns="http://www.w3.org/2000/svg" viewBox="0 0 91.7 100">
    <path fill="#00833e" d="M71.6 38.9s-3.6-.6-13 1.4c-9.3 1.9-10.5 2.8-10.5 2.8s0-2.2.6-17.4c.2-8.8 2.4-17.5 6.4-25.4h-4.2s-.4.7-2.5 5.7l-1.2 3c-.3-.4-.8-.8-1.4-1.4-2.2-2.3-4.1-4.8-5.9-7.4h-5.4s1.7 2.4 5.7 7.7c1.9 2.5 3.6 5.1 4.9 7.9-1.6 6.3-2.7 12.8-3.4 19.3-1.9-.5-5.1-1.4-9.7-2.7-5.7-1.5-11.6-2.6-11.6-2.6l-.2 3.7c2.5.3 5 .7 7.5 1.3 1.6.5 3.1 1.3 4.5 2.2-1.8 5.6-3.2 11.2-4.3 17-1.1 7.1-2.2 16.4-2.2 16.4l5.8 3s.5-12.3 1.3-19.2c.6-5.4 2-10.7 4.3-15.7 1.4.4 2.8 1.1 4 1.9-1.4 15.1-1.2 33.5-1.2 33.5l11.2.6s0-.3-1.5-10.4-1-15.5-1-15.5c2.2-1.2 4.5-2.1 6.8-2.9-.2 5.2-.2 10.4.2 15.6.8 8.7 1.4 13 1.4 13l7.1-2.6s.2-7.8.6-14.8c.2-4 2.5-11.2 3.5-14.2 2-.3 3.3-.5 3.3-.5l.1-3.3zm-10.1 13c-.7 3.9-1.1 7.9-1.1 11.8l-.8-1.9s-.8-11.8-.8-17.2c1.6-.5 3.2-.8 4.7-1.2-.6 2.1-1.4 5.3-2.1 8.3l.1.2z"/>
    <path fill="#00833e" d="M63.1 37s.6-4.4 2.4-6.6c1.9-1.9 4.4-2.8 7-2.7 0 0 .7 4.5-2.5 6.9-2.1 1.4-4.4 2.2-6.9 2.4zM65.9 27.1s-1.5-4.1-.2-6.8c1.2-2.7 6.6-3.3 6.6-3.3s.8 4.2-1.3 6.6c-1.5 1.4-3.2 2.6-5.1 3.5zM51.2 39.7s-1.4-4.9 1-8.7c3.9-6.3 11.5-5.2 11.5-5.2.7 3.9-1 7.9-4.4 10-5.8 3.6-8.1 3.9-8.1 3.9zM52.4 26s-.6-7.3 2.4-10.9c2.4-2.9 6.1-4.4 9.8-4 0 0 1.2 6.6-3.6 10.7S52.4 26 52.4 26zM30.7 38.6s-1.8 4.9-6.1 5.3c-4.2.5-5.3-1.6-5.3-1.6.7-2.4 2.5-4.3 4.9-5.1 3.1-1.2 6.5 1.4 6.5 1.4zM29.6 28.9s-4.5.5-7.1-1.7c-1.7-1.5-2.7-3.6-2.7-5.9 0 0 5-.1 6.9 2.2 1.3 1.6 2.3 3.4 2.9 5.4zM39.6 32.5S33 30.8 31 27.4s-.8-8.1-.8-8.1 5.2-.4 7.4 3c2.1 3.4 2 10.2 2 10.2zM40.9 21s-6.3-3.2-7.3-7.9c-.6-2.7-.2-5.6 1-8.1 0 0 4.8 2.9 6.1 7.4.7 2.8.8 5.7.2 8.6zM27.1 21.2c-1.9-.4-3.7-1.3-5.1-2.7-1.7-1.9-1.2-5.3-1.2-5.3 1.8.2 3.4 1 4.5 2.4 1.2 1.7 1.8 3.6 1.8 5.6zM32.7 18s-5.4-1.4-7-3.2c-2.8-3.1-2.1-8.7-2.1-8.7 2.5.6 4.7 2 6.4 3.9 2.4 3.1 2.7 8 2.7 8zM31.7 9.6c-1.4-.7-2.6-1.9-3.1-3.4-.6-1.5-.5-3.1.4-4.4 0 0 3.3 1.6 3.3 4.1.1 1.3-.2 2.5-.6 3.7zM46.5 5.9c-.8-.6-1.4-1.5-1.6-2.5-.1-1.3.4-2.5 1.3-3.4 1 .7 1.5 1.8 1.5 3-.2 1.1-.6 2.1-1.2 2.9zM54.5 11.3s.6-4 2.7-6.1c2.1-2.1 6.1-1.7 6.1-1.7s-.5 4.5-2.4 5.8c-1.9 1.4-6.4 2-6.4 2zM63.7 8.6c.3-1.2 1.1-2.1 2.2-2.7 1.2-.5 2.6-.6 3.9-.2-.5 1.2-1.4 2.2-2.6 2.8-1.1.4-2.3.4-3.5.1zM2.2 91h.3c.4 0 .8.1 1.2.3.4.2.7.5.8.9v.7c0 .5-.2.9-.5 1.3-.3.3-.6.5-1 .7-.3.2-.5.3-.5.4 0 .1.3.3.9.5.4.1.8.4 1 .8.1.3.2.7.2 1 0 .5-.3 1-.8 1.1-.6.2-1.1.3-1.7.4l.1-8.1zM0 99.7h2c1 0 2-.2 2.9-.7.7-.3 1.1-1 1.2-1.7 0-.4-.2-.9-.5-1.2-.5-.5-1-.9-1.6-1.2.5-.2 1-.6 1.4-.9.4-.3.6-.8.6-1.2v-.1c0-.4-.1-.8-.4-1.2-.3-.5-.9-.8-1.6-.8H0v.5l.4-.1h.5v8.3H0v.3zM12.8 95h-1.9c-.2 0-.3 0-.3-.1l1.6-2.9 1.3 2.9c-.2.1-.4.1-.7.1zm-.3-4.4H12c-.5.9-1 1.9-1.7 3-.5.8-1.2 1.8-1.9 3l-1.9 3 .1.1h1.1c.4-.6.8-1.3 1.2-1.9l.7-1.2c.1-.2.3-.5.5-.8.2-.2.5-.3.8-.3l.7.1h1.2l1-.2c.3.5.6 1 .8 1.5l.7 1.5c.3.7.5 1.2.7 1.5.5-.1.9-.2 1.4-.3-.2-.5-.8-1.6-1.6-3.3-.7-1.4-1.2-2.5-1.6-3.3-.4-.8-.7-1.6-1-2.5-.4.1-.6.1-.7.1zM18.6 99.5l-.6.1c-.2 0-.4.1-.5.2 0-.6 0-1.4.1-2.2.1-.8.1-1.6.1-2.5 0-.8.1-1.5.1-2.1v-2.6c.2 0 .3 0 .5-.1l.6-.1c.6.7 1.3 1.5 2.2 2.5.6.7 1.5 1.6 2.5 2.6l2.5 2.6v-3.3c0-.6 0-1.2-.1-1.9s-.1-1.3-.1-2c.2 0 .4 0 .6-.1.2-.1.4-.2.6-.2v6.2c0 .6 0 1.1.1 1.7 0 .3.1.7.2 1-.2.1-.4.2-.6.4l-.5.3-2.4-2.4c-1.2-1.2-2-1.9-2.4-2.4-.8-.8-1.6-1.7-2.4-2.5 0 .7 0 1.5-.1 2.4-.1.9-.1 1.7-.2 2.6s-.2 1.3-.2 1.8zM28.8 89.8c.4.6.8 1.2 1.2 1.7.3.3.7.9 1.3 1.6l1.4 1.7c.5-.4.9-.8 1.3-1.3l1.2-1.5 1-1.5h.6l.3-.1.1.3c-.4.6-.8 1.1-1.2 1.7-.3.4-.8 1-1.4 1.6L33 95.6v4.1l-.6-.1h-.7v-3.7c0-.2 0-.3-.1-.5-.4-.4-.9-.9-1.4-1.6-.3-.3-.7-.9-1.3-1.6s-1.1-1.3-1.4-1.7v-.2l.7-.2c.2 0 .4-.1.6-.3zM43.7 95h-1.9c-.2 0-.3 0-.3-.1l1.6-2.9 1.3 2.9c-.2.1-.4.1-.7.1zm-.3-4.4h-.6c-.5.9-1 1.9-1.7 3-.5.8-1.2 1.8-1.9 3l-1.9 2.9.1.1h1.1c.4-.6.8-1.3 1.2-1.9.2-.3.4-.7.7-1.2.1-.2.3-.5.5-.8.2-.2.5-.3.7-.3l.7.1H43.5l1-.2c.3.5.6 1 .8 1.5 0 .1.3.7.7 1.5.3.7.5 1.2.7 1.5.5-.1 1-.2 1.4-.3-.2-.5-.8-1.6-1.6-3.3-.7-1.4-1.3-2.5-1.6-3.3-.4-.8-.7-1.6-1-2.5-.2.2-.4.2-.5.2zM49.5 99.5l-.5.1c-.2 0-.4.1-.5.2v-2.2c0-.8.1-1.6.1-2.4s.1-1.6.1-2.2v-2.6c.2 0 .3 0 .5-.1l.6-.1c.6.7 1.3 1.5 2.2 2.5.6.7 1.5 1.5 2.6 2.6l2.5 2.6v-5.2c0-.7-.1-1.4-.1-2 .2 0 .4 0 .6-.1.2-.1.4-.1.6-.2v3.1c0 1.7-.1 2.8-.1 3.1 0 .6 0 1.1.1 1.7 0 .3.1.7.2 1l-.6.4-.5.3-2.4-2.4c-1.2-1.2-2-1.9-2.4-2.4-.8-.8-1.6-1.7-2.4-2.5 0 .7 0 1.5-.1 2.4-.1.9-.1 1.7-.2 2.6-.1.7-.3 1.3-.3 1.8zM71.3 91.3h-2.7v8.3h-1.4c0-.2 0-.8.1-1.8v-6.6H65c-.4 0-.8-.1-1.2-.2l.3-.3c.1-.1.2-.2.2-.4 0 .1.4.2 1.1.2.7.1 1.5.1 2.4.1.8 0 1.6 0 2.4-.1.6 0 1.2-.1 1.7-.3l.1.1c-.1.1-.1.3-.2.4-.1.4-.3.5-.5.6zM72.9 91.1h-.7v-.5c.4 0 .8-.1 1.3-.1h1.7c.7 0 1.5.1 2.2.4.7.3 1.2 1 1.2 1.8-.1.6-.4 1.2-.9 1.7s-1 .9-1.6 1.3c.3.4.7.8 1.2 1.2.5.4 1 .8 1.7 1.3.2.2.7.5 1.3.9-.1.1-.4.3-.8.6l-.3.3c-.9-.6-1.7-1.3-2.5-2s-1.4-1.4-2.2-2.1v-.2c.5 0 1-.2 1.4-.5.4-.2.7-.5.9-.8.1-.2.1-.4.1-.6v-.5c0-.6-.3-1.2-.7-1.6-.5-.5-1.2-.7-1.9-.7 0 .9 0 1.9-.1 2.8-.1 1 0 2-.1 3.1v2.6c-.3.1-.5.1-.8.1h-.7c0-.5 0-1.2.1-1.9s.1-1.6.1-2.4.1-1.6.1-2.1v-2.1zM80.5 90.5c.4 0 .8 0 1.2.1.4.1.8.1 1.2.1.9 0 1.8-.1 2.7-.2v.3l-.8.6c-.2-.1-.4-.1-.6-.1h-2l-.2 3.4h1.2c.5 0 .9 0 1.4-.1.4 0 .7-.1 1.1-.2l.1.2-.9.9c-.2-.1-.5-.1-.7-.1h-2.3l-.2 3.8h1.6c.4 0 .9 0 1.3-.1.3 0 .6-.2.9-.3l.2.2-.9.9h-4.5c.1-.8.2-1.7.2-2.6 0-.9 0-1.9.1-2.9v-2.2c0-.7 0-1.2-.1-1.7zM86.3 90.5c.4 0 .8 0 1.2.1.4.1.8.1 1.2.1.9 0 1.8-.1 2.7-.2v.3l-.8.6c-.2-.1-.3-.1-.5-.1h-2l-.1 3.4h1.2c.5 0 .9 0 1.4-.1.4 0 .7-.1 1.1-.2l.1.2-.9.9c-.2-.1-.5-.1-.7-.1H88l-.2 3.8h1.6c.4 0 .9 0 1.3-.1.3 0 .6-.2.9-.3l.2.2-.9.9h-4.5c.1-.8.2-1.7.2-2.6 0-.9.1-1.9.1-2.9V92c-.2-.5-.3-1-.4-1.5z"/>
</svg>