<svg xmlns="http://www.w3.org/2000/svg" viewBox="0 0 124.9 100"><path fill="#27A536" d="M71.8 25.3c-.8 2.9-1.6 6-2.5 9.5-1.5 6-4.3 21.5-5.2 31.7-.5.2-1.8.4-2.4.4-2.1 0-4.5-1.3-4.7-4.6-.2-4.1 2.2-19.1 5.8-33.1.1-.4.2-.9.3-1.3-4.6 1.6-8.9 3.3-12.8 4.9-1.4 6.3-3.4 16-4.1 25.6-.2.2-1.5.3-2.2.3-2.5 0-4.2-1.6-4.2-4.4 0-5.5 1.2-12.7 2.3-17.8-5.2 2.5-9.1 4.7-11.3 6-.4-.7-.5-1.9-.4-2.5.1-.8.6-2.6 2.6-4 3.2-2.2 6.8-4.4 10.7-6.5 2-8.1 4.7-16.4 7-21.3C52.1 5.2 54 4 57.2 4c.8 0 2 .2 2.6.4-2.9 6.3-5.6 13.8-7.7 21.2 4-1.7 8.3-3.4 13-4.9 2.3-7.9 4.3-13.6 6.2-17.2 1.2-2.3 3.2-3.2 5-3.4 1.6-.2 3 0 4.2.3-3 7.1-4.9 12.3-6.6 17.7 3.2-.9 6.6-1.7 10.1-2.4 1.9-.4 8.9-1.6 10.2 5.1-7.8.9-15.4 2.5-22.4 4.5M41.1 76c-1.2 0-2.4 1.1-2.4 2.4 0 .9.7 1.6 1.6 1.6 1.2 0 2.5-1.1 2.5-2.4-.1-.9-.8-1.6-1.7-1.6m-8.4 1.1C32 80.5 29.8 91 29.8 91c-.1.6-.9 3.6 2.3 3.6h.5l4.2-20.2s-3.4-.6-4.1 2.7m5 7.1c-.7 3.2-1.4 6.8-1.4 6.8-.1.6-.9 3.6 2.3 3.6h.4l2.7-13.2c-.1.1-3.3-.5-4 2.8m-9.2 1.7c0 2.8-1.1 5.5-3.1 7.1-1.2 1-2.9 1.7-4.8 1.7-3 0-5.1-1.6-5.1-4.7 0-2.8 1.1-5.4 3.1-7 1.2-1 2.9-1.7 4.8-1.7 2.9 0 5.1 1.5 5.1 4.6m-3.6.1c0-1.4-.5-2.4-1.9-2.4-.9 0-1.7.5-2.2 1.3-1.2 1.4-1.8 3.6-1.8 5.1 0 1.4.6 2.4 2 2.4.9 0 1.6-.5 2.2-1.3 1.1-1.4 1.7-3.6 1.7-5.1m66.6-9.8c-.5 2.5-3 14.8-3 14.8-.2.7-.9 3.6 2.3 3.6h.5l4.3-21c-.9-.1-3.5-.1-4.1 2.6m12.4 5.1c-1.7 0-3.1.8-4.1 1.8 0 0-.1-2.6-3.5-1.5.6 1.8.3 2.4-.4 6l-.7 3.4c-.1.6-.9 3.6 2.3 3.6h.5l1.3-6.1c.3-1.6 1-4.7 3.5-4.7 1.2 0 1.8.8 1.5 2.6l-.9 4.5c-.1.6-.9 3.6 2.3 3.6h.5l1.7-8.3c.5-3.4-1.3-4.9-4-4.9m-91.6-4.9c-.2.8-.5 2.4-1.1 5.2l-5.9 1.2L7 74.5c-.5-.1-3.4-.3-4 2.7C2.9 78.1.2 91 .2 91c-.1.7-.9 3.6 2.3 3.6H3l1.7-8.2 5.9-1.2C10 88 9.4 91 9.4 91c-.1.6-.9 3.6 2.3 3.6h.5l4.3-21c-.1 0-3.5-.6-4.2 2.8m106 4.9c-1.7 0-3.1.8-4 1.8 0 0-.1-2.6-3.5-1.5.6 1.8.3 2.4-.4 6l-.7 3.5c-.1.6-.9 3.6 2.3 3.6h.5l1.3-6.1c.3-1.6 1-4.7 3.5-4.7 1.2 0 1.8.8 1.5 2.6l-.9 4.5c-.1.6-.9 3.6 2.3 3.6h.5l1.7-8.3c.4-3.5-1.4-5-4.1-5m-66.4 2.4c-.2-.1-.6-.2-1-.2-2.7 0-4.9 3.3-4.9 6.4 0 1.5.7 2.3 1.9 2.3.9 0 1.4-.3 1.9-.9.5-.6.8-1.4 1-2.3l1.1-5.3zm5.4-9.3l-4.2 20.2h-.5c-1.1 0-2-.4-2.3-1.4-.7.8-2 1.4-3.6 1.4-2.7 0-4.4-1.8-4.4-4.6 0-4.6 3.6-8.8 8.7-8.8.5 0 1 0 1.3.1 0 .2.6-2.6.9-4.2.7-3.2 3.8-2.7 4.1-2.7m12.4 8.1l-2.5 12.2h-.5c-1.1 0-2-.4-2.3-1.4-.7.8-2 1.4-3.6 1.4-2.7 0-4.3-1.8-4.3-4.6 0-4.9 3.9-8.8 8.7-8.8 1.7 0 3.1.4 4.5 1.2m-3.8 1.2c-.2-.1-.5-.2-.8-.2-3.1 0-5 3.7-5 6.4 0 1.5.6 2.3 1.8 2.3.9 0 1.5-.3 1.9-.9.5-.6.8-1.4 1-2.3l1.1-5.3zm14.3.6c.7-3.4 4.1-2.8 4.1-2.8l-2.4 11.2c-.5 2.3-1.1 3.9-2.2 5-1.3 1.4-3.3 2.3-5.8 2.3-2.9 0-5.2-1.3-5.2-3.6 0-1.5 1-2.6 3-3.1-.5-.6-.9-1.4-.9-2.3 0-.7.2-1.5.3-2.2 0 0 .1-.6.9-4.3s4.2-3 4.2-3l-1.6 7.4c-.1.6-.8 3.1 1.4 3.1 2.5 0 3.1-3.1 3.4-4.7.1 0 0 .3.8-3m-2 9.1c-.7.6-1.9.9-3.2 1.1-1.9.2-3.2.5-3.2 1.9 0 1 1 1.6 2.2 1.6 1 0 1.9-.3 2.6-1 .7-.7 1.2-1.6 1.4-2.6l.2-1zM124.1 82c0-.1-.1-.2-.2-.2h-.1v.4h.2c0 .1.1 0 .1-.2m.2.8h-.1c-.1 0-.1 0-.2-.1l-.2-.3h-.2v.4h-.2v-.9h-.1v-.1h.4c.2 0 .4.1.4.3 0 .2-.1.3-.2.3l.1.2c.2.1.2.1.3.2-.1-.1 0-.1 0-.1v.1zm.4-.5c0-.5-.3-.9-.8-.9s-.8.3-.8.9c0 .5.3.9.8.9.5-.1.8-.4.8-.9m.2 0c0 .6-.4 1-1 1s-1-.4-1-1 .4-1 1-1 1 .4 1 1m-56-24.6c0-.1-.1-.2-.2-.2h-.1v.4h.2s.1-.1.1-.2m.2.7c-.2 0-.2 0-.3-.1l-.1-.3h-.2v.4h-.2v-.9h-.1v-.1h.4c.2 0 .4.1.4.3 0 .2-.1.3-.2.3l.1.2.2.2c-.1-.1 0-.1 0-.1v.1zm.4-.5c0-.5-.3-.9-.8-.9s-.8.3-.8.9c0 .5.3.9.8.9.5-.1.8-.4.8-.9m.2 0c0 .6-.4 1-1 1s-1-.4-1-1 .4-1 1-1 1 .4 1 1"/></svg>