<svg xmlns="http://www.w3.org/2000/svg" viewBox="0 0 258 100"><path fill="#FFF" d="M126 45.3c3.4-2.8 15.3-8.9 15.3-22.6S129.4 2.8 126 0c-3.3 2.8-15.2 8.8-15.2 22.6-.1 13.8 11.9 19.9 15.2 22.7"/><linearGradient id="a" gradientUnits="userSpaceOnUse" x1="376.77" y1="-71.359" x2="520.381" y2="72.252" gradientTransform="matrix(.1384 0 0 -.1384 64.622 22.634)"><stop offset="0" stop-color="#7d5422"/><stop offset=".052" stop-color="#886029"/><stop offset=".244" stop-color="#ae8d4d"/><stop offset=".39" stop-color="#c9af6a"/><stop offset=".473" stop-color="#d6bf77"/><stop offset=".626" stop-color="#d3bb74"/><stop offset=".72" stop-color="#caaf6a"/><stop offset=".797" stop-color="#bd9e5c"/><stop offset=".865" stop-color="#ab8949"/><stop offset=".927" stop-color="#966f35"/><stop offset=".985" stop-color="#7f5522"/><stop offset=".987" stop-color="#7e5421"/></linearGradient><path fill="url(#a)" d="M126 41.8V3.3c4 3.1 12.4 8 12.4 19.5 0 11.1-8.5 16.3-11.5 18.3-.6.4-.9.7-.9.7"/><radialGradient id="b" cx="10156.098" cy="809.991" r="241.768" gradientTransform="rotate(180 579.449 58.49) scale(.1022)" gradientUnits="userSpaceOnUse"><stop offset="0" stop-color="#7d5422"/><stop offset=".157" stop-color="#805723"/><stop offset=".281" stop-color="#875f26"/><stop offset=".394" stop-color="#936c2e"/><stop offset=".5" stop-color="#a6823b"/><stop offset=".601" stop-color="#bfa14f"/><stop offset=".689" stop-color="#e1ca6b"/><stop offset=".954" stop-color="#e1ca6b"/><stop offset=".996" stop-color="#e1ca6b"/></radialGradient><path fill="url(#b)" d="M126 3.3v38.5c-.9-1-12.5-6.2-12.5-18.9 0-11.7 8.6-16.7 12.5-19.6z"/><path fill="#A28347" d="M126 43.7c-3.2-2.6-13.9-8.1-13.9-21.1 0-13 10.7-18.5 13.9-21.1V0c-3.3 2.8-15.3 8.8-15.3 22.6s11.9 19.9 15.3 22.6v-1.5z"/><linearGradient id="c" gradientUnits="userSpaceOnUse" x1="405.537" y1="85.107" x2="575.11" y2="-84.466" gradientTransform="rotate(180 97.346 11.317) scale(.1384)"><stop offset=".009" stop-color="#583714"/><stop offset=".569" stop-color="#5d3d20"/><stop offset="1" stop-color="#61422b"/></linearGradient><path fill="url(#c)" d="M126 43.7c3.2-2.6 13.9-8.1 13.9-21.1 0-13-10.7-18.5-13.9-21.1V0c3.4 2.8 15.3 8.8 15.3 22.6s-12 19.9-15.3 22.6v-1.5z"/><linearGradient id="d" gradientUnits="userSpaceOnUse" x1="408.615" y1="127.958" x2="476.731" y2="-126.252" gradientTransform="matrix(.1384 0 0 -.1384 64.622 22.634)"><stop offset=".572" stop-color="#fff"/><stop offset=".669" stop-color="#fbfaf8"/><stop offset=".727" stop-color="#f1eeea"/><stop offset=".775" stop-color="#e5e0d7"/><stop offset=".818" stop-color="#d7cec0"/><stop offset=".857" stop-color="#c4b9a5"/><stop offset=".893" stop-color="#b0a186"/><stop offset=".927" stop-color="#986"/><stop offset=".96" stop-color="#816d46"/><stop offset=".99" stop-color="#695527"/><stop offset="1" stop-color="#614d1e"/></linearGradient><path opacity=".55" fill="url(#d)" d="M134.2 11c-2.9-3.9-6.7-6-8.2-7.4-1 .8-2.7 1.8-4.5 3.5-1.3 1.1-2.7 2.5-3.9 4-1.4 1.8-2.6 4-3.2 6.6-.4 1.6-.6 3.2-.6 5.1 0 2.8.6 5.2 1.4 7.3 1.8 4.2 4.8 7 7.4 9 .6.4 1.1.8 1.6 1.1.4.2.7.5 1 .7.3.2.7.5.8.5.5-.3.7-.5 1.3-.8.5-.4 1.1-.7 1.7-1.1.7-.5 1.3-1 2.1-1.7.2-.2.6-.5.8-.7 3.1-2.9 6.2-7.4 6.2-14.2 0-5.1-1.7-9-3.9-11.9z"/><path fill="#9E8949" d="M119.9 11.5l-.3-.4h12.8l-.3.4z"/><path fill="#8A5D25" d="M119.6 12.3l.3-.4v-.4l-.3-.4z"/><path fill="#D6BF77" d="M119.9 34v-.4l-.3-.3v1z"/><linearGradient id="e" gradientUnits="userSpaceOnUse" x1="397.072" y1="-83.123" x2="489.742" y2="-83.123" gradientTransform="matrix(.1384 0 0 -.1384 64.622 22.634)"><stop offset="0" stop-color="#ad9a49"/><stop offset=".14" stop-color="#b8a355"/><stop offset=".444" stop-color="#cdb66d"/><stop offset=".617" stop-color="#d6bf77"/></linearGradient><path fill="url(#e)" d="M132.4 34.3h-12.8l.3-.3h12.2z"/><linearGradient id="f" gradientUnits="userSpaceOnUse" x1="397.149" y1="-.89" x2="427.427" y2="-.89" gradientTransform="matrix(.1384 0 0 -.1384 64.622 22.634)"><stop offset="0" stop-color="#d6bf77"/><stop offset=".653" stop-color="#734e1f"/><stop offset=".779" stop-color="#8a5d25"/><stop offset=".805" stop-color="#91652a"/><stop offset=".849" stop-color="#a47e3d"/><stop offset=".907" stop-color="#c8ac67"/><stop offset=".923" stop-color="#d6bf77"/></linearGradient><path fill="url(#f)" d="M119.6 12.3l.3-.4s3.9 0 3.9 4.9V29c0 1.2-.5 4.3-3.9 4.6l-.3-.4s3.8.3 3.8-4.7V16.7s.1-4.4-3.8-4.4z"/><linearGradient id="g" gradientUnits="userSpaceOnUse" x1="-938.957" y1="-.89" x2="-908.682" y2="-.89" gradientTransform="rotate(180 1.234 11.317) scale(.1384)"><stop offset=".275" stop-color="#734e1f"/><stop offset=".359" stop-color="#7a5423"/><stop offset=".499" stop-color="#8b6633"/><stop offset=".675" stop-color="#aa8954"/><stop offset=".881" stop-color="#dcc58c"/><stop offset=".923" stop-color="#ebd79c"/></linearGradient><path fill="url(#g)" d="M132.4 12.3l-.3-.4s-3.9 0-3.9 4.9V29c0 1.2.5 4.3 3.9 4.6l.3-.4s-3.8.3-3.8-4.7V16.7s-.1-4.4 3.8-4.4z"/><path fill="#D6BF77" d="M132.4 12.3l-.3-.4v-.4l.3-.4zM132.1 34v-.4l.3-.3v1z"/><path fill="#FFF" d="M119.9 34v-.4c3.4-.2 3.8-3.3 3.9-4.6v-.5-11.7c0-4.9-3.9-4.9-3.9-4.9v-.4h12.3v.4s-3.9 0-3.9 4.9V29c0 1.2.5 4.3 3.9 4.6v.4h-12.3z"/><g><g fill="#55544B"><path d="M151.4 78.8v-.5c-.4 0-1.5 0-1.5-1.4V61.4c0-1.4 1.1-1.4 1.5-1.4v-.6h-5.5v.6c.4 0 1.5 0 1.5 1.4v15.4c0 1.4-1.2 1.4-1.5 1.4v.5h5.5zM5.9 78.8v-.6c-.4 0-1.7 0-1.7-1.5V58.9c0-1.5 1.3-1.5 1.7-1.5v-.6H0v.6c.4 0 1.7 0 1.7 1.5v17.8c0 1.5-1.3 1.5-1.7 1.5v.6h5.9zM252.5 78.8v-3.2h-.6c0 .4 0 1.5-1.4 1.5h-4.9V61.4c0-1.4 1.2-1.4 1.5-1.4v-.6h-5.5v.6c.4 0 1.5 0 1.5 1.4v15.4c0 1.4-1.2 1.4-1.5 1.4v.5h10.9zM101.7 77.8c1.5 0 4.9-.8 4.9-8.1 0-5.6-2.7-9.1-6.1-9.1-2.4 0-5.1 1.6-5.1 7.9-.1 5.1 2.4 9.3 6.3 9.3m-.9 1.4c-5.8 0-8.1-5.6-8.1-10.1C92.7 64.7 95 59 101 59c5 0 8.1 3.7 8.1 9.6 0 6-3.1 10.6-8.3 10.6M167.3 59.4v.6c.4 0 1.5 0 1.5 1.4v13l-9.9-14.9h-3.3v.5c.4 0 1.5 0 1.5 1.4v15.4c0 1.4-1.2 1.4-1.5 1.4v.5h4.8v-.5c-.4 0-1.5 0-1.5-1.4V64l9.9 14.8h1.8V61.4c0-1.4 1.2-1.4 1.5-1.4v-.6h-4.8zM203.8 59.4v.6c.4 0 1.5 0 1.5 1.4v13l-9.9-14.9H192v.5c.4 0 1.5 0 1.5 1.4v15.4c0 1.4-1.2 1.4-1.5 1.4v.5h4.8v-.5c-.4 0-1.5 0-1.5-1.4V64l9.9 14.8h1.8V61.4c0-1.4 1.2-1.4 1.5-1.4v-.6h-4.7zM55.3 78.8v-3.2h-.6c0 .4 0 1.5-1.4 1.5h-5.7v-7.5h4.6c1.4 0 1.4 1.2 1.4 1.5h.6v-4.5h-.6c0 .4-.1 1.3-1.4 1.3h-4.6v-7h5.8c1.4 0 1.4 1.2 1.4 1.5h.6v-3.2H43.6v.6c.4 0 1.5 0 1.5 1.4v15.4c0 1.4-1.2 1.4-1.5 1.4v.5l11.7.3zM187.7 78.8v-3.2h-.6c0 .4 0 1.5-1.4 1.5H180v-7.5h4.6c1.4 0 1.4 1.2 1.4 1.5h.6v-4.5h-.6c0 .4-.1 1.3-1.4 1.3H180v-7h5.7c1.4 0 1.4 1.2 1.4 1.5h.6v-3.2H176v.6c.4 0 1.5 0 1.5 1.4v15.4c0 1.4-1.1 1.4-1.5 1.4v.5l11.7.3zM85.1 79c1.3 0 3.9-.3 5.4-1.1l.7-4.2-.6-.1c-1.1 3.2-3.1 3.8-5.1 3.8-3.1 0-7.2-2.6-7.2-9.5 0-4.9 1.9-9.9 6.4-9.9 5 0 5.6 3.9 5.6 4.4h.6v-4.9c-1.8-.6-4.3-.9-5.8-.9-6.6 0-9.7 4.6-9.7 11.4 0 6.2 3.4 11 9.7 11zM223.8 62.6h-.6c0-.4 0-1.5-1.4-1.5h-3.4v15.8c0 1.4 1.1 1.4 1.5 1.4v.6h-5.5v-.6c.4 0 1.5 0 1.5-1.4V61.1h-3.4c-1.4 0-1.4 1.2-1.4 1.5h-.6v-3.2h13.2l.1 3.2zM234.2 72.3l1.7 4.6c.5 1.4-.7 1.4-1 1.4v.5h5.4v-.5c-.4 0-1.4-.2-2.2-2.2l-6-16.6h-1.6l-6 16.6c-.8 2-1.6 2.2-2 2.2v.5h4.7v-.5c-.4 0-1.5 0-1-1.4l1.7-4.6h6.3zm-3.2-9l2.7 7.4h-5.4l2.7-7.4zM21.1 59.4v.6c.4 0 1.5 0 1.5 1.4v13l-9.9-14.9H9.5v.5c.4 0 1.5 0 1.5 1.4v15.4c0 1.4-1.2 1.4-1.5 1.4v.5h4.8v-.5c-.4 0-1.5 0-1.5-1.4V64l9.9 14.8h1.8V61.4c0-1.4 1.2-1.4 1.5-1.4v-.6h-4.9zM41.1 62.6h-.5c0-.4 0-1.5-1.4-1.5h-3.4v15.8c0 1.4 1.2 1.4 1.5 1.4v.6h-5.5v-.6c.4 0 1.5 0 1.5-1.4V61.1h-3.4c-1.4 0-1.4 1.2-1.4 1.5h-.6v-3.2h13.2v3.2zM123.5 59.4v.6c.4 0 1.5 0 1.5 1.4v13l-10-15h-3.3v.6c.4 0 1.5 0 1.5 1.4v15.4c0 1.4-1.2 1.4-1.5 1.4v.5h4.8v-.5c-.4 0-1.5 0-1.5-1.4V64l9.9 14.8h1.8V61.4c0-1.4 1.2-1.4 1.5-1.4v-.6h-4.7zM143.5 62.6h-.6c0-.4 0-1.5-1.4-1.5h-3.4v15.8c0 1.4 1.2 1.4 1.5 1.4v.6h-5.5v-.6c.4 0 1.5 0 1.5-1.4V61.1h-3.4c-1.4 0-1.4 1.2-1.4 1.5h-.6v-3.2h13.3v3.2zM73.2 77.4c-2.3-2.1-3.9-4.6-6-7.7 0 0 3.6-1.3 3.6-5.3 0-1.9-1.1-5-6.5-5h-5.4v.6c.4 0 1.5 0 1.5 1.4v15.4c0 1.4-1.2 1.4-1.5 1.4v.5h5.5v-.5c-.4 0-1.5 0-1.5-1.4v-6.6h1.9c.9 1.2 3.2 4.5 3.9 5.5 2 2.8 3.7 3.4 5.6 3.4.5 0 1-.1 1.1-.1v-.6c-.3 0-1.1 0-2.2-1zm-10-8.6h-.3v-8.1h.3c3.7 0 4.9 1.3 4.9 3.8 0 1.8-1 4.3-4.9 4.3z"/></g></g><g><g fill="#55544B"><path d="M44.1 99.8h-1.4v-4.3H37v4.3h-1.4v-10H37v4.3h5.6v-4.3H44v10zM60.2 94.8c0 2.9-2.2 5.2-5.5 5.2-3.2 0-5.3-2.3-5.3-5.1 0-2.6 1.9-5.2 5.3-5.2s5.5 2.5 5.5 5.1zm-9.3.1c0 2.3 1.8 3.8 3.9 3.8 1.1 0 2.2-.4 2.9-1.2.6-.7 1-1.8 1-2.6 0-1.7-1.3-3.8-3.9-3.8-2.7 0-3.9 2.1-3.9 3.8zM72.2 91.1h-3.5v8.7h-1.4v-8.7h-3.4v-1.3h8.4v1.3zM82.8 91.1h-4.2v3.1h4.1v1.3h-4.1v3.1H83v1.3h-5.8v-10h5.6v1.2zM89.9 98.5h4.5v1.3h-6v-10h1.4c.1 0 .1 8.7.1 8.7zM104 92c-.8-.8-1.7-1.1-2.4-1.1-1 0-1.6.5-1.6 1.1 0 .8.6 1.2 2.5 2.3.4.3.9.6 1.3 1.1.3.4.5 1 .5 1.7 0 1.6-1.1 2.7-2.9 2.7-1 0-1.9-.4-2.7-.9v-1.8c.3.4 1.2 1.4 2.7 1.4.7 0 1.5-.5 1.5-1.3s-.8-1.4-1.3-1.7c-1.6-1-2-1.2-2.5-1.8-.3-.4-.5-.9-.5-1.5 0-1.5 1.1-2.7 2.9-2.7.8 0 1.6.3 2.3.7l.2 1.8zM125.3 99.8h-1.8l-1.1-1.4c-.6.5-.7.6-.9.7-.6.4-1.5.8-2.3.8-1.2 0-2.5-.9-2.5-2.4 0-1 .6-1.9 2.4-3-.4-.4-1.1-1.3-1.1-2.3 0-1 .7-2.3 2.5-2.3s2.5 1.3 2.5 2.2c0 1.4-1.2 2.2-1.8 2.6l1.4 1.6c.2-.2.6-.7 1.1-1.6h1.4c-.5 1.3-1.2 2.2-1.6 2.6l1.8 2.5zm-3.8-2.3l-1.6-1.9-.6.4c-.6.4-1.1.9-1.1 1.5 0 .5.5 1.1 1.2 1.1.6 0 1.4-.4 1.8-.8l.3-.3zm0-5.2c0-.6-.5-1-1.1-1-.6 0-1.1.4-1.1 1 0 .8.8 1.6.9 1.7 1-.7 1.3-1.2 1.3-1.7zM140.4 89.8c.5 0 1.1 0 1.7.4 1.1.4 1.6 1.4 1.6 2.5s-.6 2-1.7 2.5c.9.6 1.4 1.5 2.2 2.8.4.7.7 1 1.4 2h-1.7c-.4-.5-1.7-2.7-2.1-3.1-1-1.3-1.4-1.3-2.1-1.3h-.4v4.3h-1.4V90h2.5zm-1 1.3v3.2h.6c.2 0 1 0 1.4-.1.7-.3 1-.9 1-1.4s-.3-1.1-.7-1.4c-.4-.2-.8-.2-1.7-.2-.1-.1-.6-.1-.6-.1zM156.1 91.1h-4.2v3.1h4.1v1.3h-4.1v3.1h4.4v1.3h-5.8v-10h5.6v1.2zM166.4 92c-.8-.8-1.7-1.1-2.4-1.1-1 0-1.6.5-1.6 1.1 0 .8.6 1.2 2.5 2.3.4.3.9.6 1.3 1.1.3.4.5 1 .5 1.7 0 1.6-1.1 2.7-2.9 2.7-1 0-1.9-.4-2.7-.9v-1.8c.3.4 1.2 1.4 2.7 1.4.7 0 1.5-.5 1.5-1.3s-.8-1.4-1.3-1.7c-1.6-1-2-1.2-2.5-1.8-.3-.4-.5-.9-.5-1.5 0-1.5 1.1-2.7 2.9-2.7.8 0 1.6.3 2.3.7l.2 1.8zM182.4 94.8c0 2.9-2.2 5.2-5.5 5.2-3.2 0-5.3-2.3-5.3-5.1 0-2.6 1.9-5.2 5.3-5.2s5.5 2.5 5.5 5.1zm-9.3.1c0 2.3 1.8 3.8 3.9 3.8 1.1 0 2.2-.4 2.9-1.2.6-.7 1-1.8 1-2.6 0-1.7-1.3-3.8-3.9-3.8-2.8 0-3.9 2.1-3.9 3.8zM190.3 89.8c.5 0 1.1 0 1.7.4 1.1.4 1.6 1.4 1.6 2.5s-.6 2-1.7 2.5c.9.6 1.4 1.5 2.2 2.8.4.7.7 1 1.4 2h-1.7c-.4-.5-1.7-2.7-2.1-3.1-1-1.3-1.4-1.3-2.1-1.3h-.4v4.3h-1.4V90h2.5zm-1.1 1.3v3.2h.6c.2 0 1 0 1.4-.1.7-.3 1-.9 1-1.4s-.3-1.1-.7-1.4c-.4-.2-.8-.2-1.7-.2-.1-.1-.6-.1-.6-.1zM206.4 91.1h-3.5v8.7h-1.4v-8.7h-3.4v-1.3h8.4v1.3zM216.2 92c-.8-.8-1.7-1.1-2.3-1.1-1 0-1.6.5-1.6 1.1 0 .8.6 1.2 2.5 2.3.4.3.9.6 1.3 1.1.3.4.5 1 .5 1.7 0 1.6-1.1 2.7-2.9 2.7-1 0-1.9-.4-2.7-.9v-1.8c.3.4 1.2 1.4 2.7 1.4.7 0 1.5-.5 1.5-1.3s-.8-1.4-1.3-1.7c-1.6-1-2.1-1.2-2.5-1.8-.3-.4-.5-.9-.5-1.5 0-1.5 1.1-2.7 2.9-2.7.8 0 1.6.3 2.3.7l.1 1.8z"/></g></g><path fill="#55544B" d="M255.8 74.9c.4 0 .8.1 1.1.3.4.2.6.5.8.8s.3.7.3 1.1c0 .4-.1.8-.3 1.1-.2.4-.5.6-.8.8s-.7.3-1.1.3c-.4 0-.8-.1-1.1-.3-.4-.2-.6-.5-.8-.8-.2-.4-.3-.7-.3-1.1 0-.4.1-.8.3-1.1.2-.4.5-.6.8-.8s.7-.3 1.1-.3m0 .3c-.5 0-1 .2-1.3.5-.4.4-.5.8-.5 1.3s.2 1 .5 1.3c.4.4.8.5 1.3.5s1-.2 1.3-.5c.4-.4.5-.8.5-1.3s-.2-1-.5-1.3c-.4-.3-.8-.5-1.3-.5m-.5 3.1h-.4v-2.4h.8c.3 0 .5 0 .6.1.1 0 .2.1.3.2s.1.2.1.4 0 .4-.2.5c-.1.1-.3.2-.5.2l.3.2c.1.1.2.2.3.4l.3.5h-.5l-.2-.4c-.1-.3-.3-.4-.4-.5-.1-.1-.2-.1-.4-.1h-.2l.1.9zm0-2.1v.7h.5c.2 0 .4 0 .4-.1.1 0 .1-.2.1-.3 0-.1 0-.2-.1-.3-.1 0-.3-.1-.5-.1 0 .1-.4.1-.4.1z"/></svg>