<svg xmlns="http://www.w3.org/2000/svg" viewBox="0 0 713.8 100"><g fill="#231F20"><path d="M68.807 54.792l1-2c9-16.5 16.5-33.625 31.25-46 6.375-5.375 21.625-8.5 18.625 7.25-4.875 17.75-27.625 37-48.25 40.25l-2.625.5zm39 24.25c7.25.375 28.25-7.5 27.875-18.25-1.125-5.625-7.75-4.875-11.75-3.625-10 3-18.75 14.125-23.25 21.25-3.125 5.125-7.625 8.75-13.25 11-9 3.375-18.25 3.625-26.75 2.125-5.5-1-7.25-1.375-16.75-3.875 10.25-8.5 17-20.5 24.375-31.25 12.625-1.625 37.5-8.25 51.5-33.75 4.625-8.5 6.125-20.5-5.125-22.375-6.5-1.125-12.25 1.625-18.625 6.125-18 12.5-27.375 30.875-36.5 49.375-4 .5-8.75.125-11.75-.375-1.875-.375-8-1.125-16.5-6.875-8.25-5.375-15.75-18.625-11.75-34.75l-2.125.875c-2.625 7.5-1 17.625 3.375 25.375 4 7.125 9.125 11.125 18 14.625 2.625 1 6.5 2.625 17.625 3l2.625-.125-1.375 2.5c-3.125 5.875-5.875 11.125-9.5 16.75-.375.625-1 1.625-1.5 2.375-2.125 2.875-3.875 4.875-6.375 7.5-11.625-3.125-25.75-5.125-34.25-2 0 0-5.875 1.625-6 6.5-.375 6.375 10 7.75 10 7.75 10.5 1.875 20.25-2 30.625-8.75 10 3.5 21.875 11.125 34.25 9.625 2.625-.375 5.875-1 8.5-2.375 2.125-1.125 4.375-2.125 6.375-3.625 3.625-3 8.25-7.625 10.625-11.625-1.5 4.375-1.375 7.5-.5 10.25.625 2.625 3.125 5.375 6.625 6.125 12.75 3 22.75-7 30.25-17l-1.375.125c-4.5 6-15.25 18.125-26.75 15.25-7.75-3.375-3.625-12.625-.875-17.875zm.875-1.875c3.375-5.875 9.5-15.5 18-19.5 2.375-1.125 5.125-.375 6 1.875.625 1.875 1 3.875-2.625 7.75-2.25 2.625-11.875 9.375-21.375 9.875zm-75 14.125c-3.875 2.375-14.5 7.5-22.875 6.375 0 0-9.5-1-10-5.125-.625-5 4.875-6.5 8.5-7.125 7.25-1.5 21.875 1.375 27.875 4l-.5.375-3 1.5M649.682 98.042V36.167l63.875 63.875.375-94.75-13.5.125v62.125L636.557 3.667l.375 94.25h12.75M417.307 98.042h14.625V5.417h-14.625v92.625zM537.307 98.042h14.625V5.417h-14.625v92.625zM328.932 4.417h-52.25v93.625h54.625v-12.25h-40v-28.75h35.375V44.917h-35.375v-27.75h37.5V4.417M622.057 4.417h-52.125v93.625h54.625v-12.25h-40v-28.75h35.375V44.917h-35.375v-27.75h37.5V4.417M174.307 97.792l6-55.625 32.125 55.875 31.875-55.5 6 55.5 14-.125-12.625-94.5-39 68.75-38.875-68.75-13 94.5h13.5M379.932 57.792c3.5-1.125 6.875-3.5 10.5-8.125 3.875-4.625 6.125-10.75 6.125-17.5 0-8.25-3.5-15.25-9.5-20.5-5.5-4.625-14.5-6.625-26.75-6.625h-16.25v92.625h13.875v-36.75h7.5l25.625 36.75h16.5l-27.625-39.875zm-17.25-7.625h-4.5V16.542h5c12.75 0 19.125 5.875 19.125 17 .125 10.75-6.5 16.625-19.625 16.625M505.932 17.167c-4.625-4.375-10-7.25-15.75-9.125-5.375-1.875-12.75-2.875-21.875-2.875h-19.5v92.75h19.125c9.25 0 16.625-.875 21.75-2.625 5.5-1.625 11.125-4.5 16.125-8.75 10-8.75 15.5-20.625 15.5-34.875-.125-14.125-6-25.625-15.375-34.5zm-10 59c-3.375 3-7.125 5.375-11.25 6.625-4.125 1.375-9.5 2-15.625 2h-6.375v-66.25h6.375c12 0 21 2.875 27.125 8.5 6.875 6.375 10.75 14.625 10.75 24.75-.25 10-4.25 18.125-11 24.375"/></g></svg>