<svg xmlns="http://www.w3.org/2000/svg" viewBox="0 0 133.8 100"><path d="M26.1 88h2.1l3.5 5.5 3.5-5.5h2.1l.5 11.7h-2.2l-.4-8.1-3.1 4.8h-1L28 91.7l-.4 8h-2.1l.6-11.7zM46.7 88H49l4.4 11.7h-2.5l-1-3h-4.4l-1 3h-2.3L46.7 88zm2.6 6.9l-1.5-4.6-1.6 4.6h3.1zM58.1 88h4.4c.7 0 1.4.1 1.9.3.5.2.9.5 1.2.9.3.4.5.7.7 1.1.1.4.2.8.2 1.2 0 .7-.2 1.4-.5 1.9-.3.6-.8 1-1.5 1.4l2.7 4.9h-2.5L62.4 95h-2.2v4.6H58l.1-11.6zm4.4 5.2c.5 0 1-.2 1.3-.5.3-.3.5-.7.5-1.2s-.2-.9-.5-1.2c-.3-.3-.8-.5-1.3-.5h-2.3v3.4h2.3zM72.3 88h4.4c.7 0 1.4.1 1.9.3.5.2.9.5 1.3.9.3.4.5.7.7 1.1.1.4.2.8.2 1.2 0 .7-.2 1.4-.5 1.9-.3.6-.8 1-1.5 1.4l2.7 4.9H79L76.6 95h-2.2v4.6h-2.1V88zm4.4 5.2c.5 0 1-.2 1.3-.5.3-.3.5-.7.5-1.2s-.2-.9-.5-1.2c-.3-.3-.8-.5-1.3-.5h-2.3v3.4h2.3zM87 88h2.2v11.7H87V88zM100.7 100c-.9 0-1.6-.2-2.4-.5-.7-.3-1.4-.8-1.9-1.3s-1-1.2-1.3-2c-.3-.7-.5-1.6-.5-2.4 0-.9.2-1.6.5-2.4.3-.7.7-1.4 1.3-1.9.5-.5 1.2-1 1.9-1.3.7-.3 1.5-.5 2.4-.5.9 0 1.6.2 2.4.5s1.4.8 1.9 1.3 1 1.2 1.3 1.9c.3.7.5 1.6.5 2.4 0 .9-.2 1.7-.5 2.4s-.7 1.4-1.3 2c-.5.6-1.2 1-1.9 1.3-.8.3-1.6.5-2.4.5zm0-2.1c.6 0 1.1-.1 1.6-.3.5-.2.9-.5 1.2-.9s.6-.8.8-1.3c.2-.5.3-1 .3-1.6 0-.5-.1-1.1-.3-1.6-.2-.5-.4-.9-.8-1.3s-.7-.7-1.2-.9c-.5-.2-1-.3-1.6-.3-.6 0-1.1.1-1.6.3-.5.2-.9.5-1.2.9-.3.4-.6.8-.8 1.3-.2.5-.3 1-.3 1.6 0 .5.1 1.1.3 1.6.2.5.4 1 .8 1.3.3.4.7.7 1.2.9.5.2 1 .3 1.6.3zM113.7 89.9h-4V88h10.2v1.9h-4v9.8h-2.2v-9.8zM127.6 89.9h-4V88h10.2v1.9h-4v9.8h-2.2v-9.8z"/><g><path fill="#AB0C37" d="M85.5 76.2h19.8l-33.1-75-16.7 7.7L67.1 35l-5.4 12.2L41 0 24.2 7.3l13.5 30.2s0 .1-.1.1c-8.3 19-18.5 24.2-19.5 24.6-2.4.9-4.9 1.4-7.6 1.4-.8 0-1.6-.1-2.4-.1L0 80c2.7 1.5 5.7 2.3 8.9 2.3 4.1 0 7.8-1.3 10.9-3.6v.1s7.7-3.7 15.9-24c0 0 3-6.5 4.6-10.6l.2-.5L55 76.2h19.8L64.5 53.4l5.4-12.2 15.6 35z"/></g></svg>