<svg xmlns="http://www.w3.org/2000/svg" viewBox="0 0 297.6 100"><path fill="#E4151B" d="M18.3 71.5H33v14.9H18.3z"/><path fill="#FBBA3D" d="M33.1 71.5h14.7v14.9H33.1z"/><path fill="#019D81" d="M47.8 71.5h14.7v14.9H47.8z"/><path fill="#2E4193" d="M62.6 71.5h14.7v14.9H62.6z"/><path fill="#E4151B" d="M77.3 71.5H92v14.9H77.3z"/><path fill="#FBBA3D" d="M92.1 71.5h14.7v14.9H92.1z"/><path fill="#019D81" d="M106.8 71.5h14.7v14.9h-14.7z"/><path fill="#2E4193" d="M121.6 71.5h14.7v14.9h-14.7z"/><path fill="#E4151B" d="M136.3 71.5H151v14.9h-14.7z"/><path fill="#FBBA3D" d="M151.1 71.5h14.7v14.9h-14.7z"/><path d="M205.3 73.7s6.4-1.1 10.5.4 6.6 3.5 6.1 5.3c-.5 1.7-3.1 1.9-4.7 2.1-1.7.2-1.4.3-2 .9-.6.6 0 2.1 2 5.5s9 9.8 10.1 9.5-1.1-2.1-2.3-3.8c-1.3-1.7-6.7-10.3-6.4-10.6.4-.4 3.8.2 5.5-2.1s-.4-6.8-4.7-8.9c-4.3-2.1-8.4-2.8-11-1.4-2.7 1.3-4.6 3.6-3.1 3.1z"/><path d="M215.3 76.4s-4.4 12.6-5.6 17.1c-1.2 4.5-.9 6.3-1.3 6.5-.4.2-1-.9-2.1-2.1-1.1-1.1-1.7-2.2.4-7.7 2.2-5.5 9.1-18.2 8.6-13.8zM232.2 79.1c.1.1.8-1.4 1.2-1.2.5.2 2 .9 1.1 2.6-.8 1.6-2 5-.8 5.3 1.1.3 2.4-1.6 2.4-1.6s.9.4 0 1.6c-.9 1.2-2.2 2.7-3.4 2.7-1.3 0-1.5-1.2-1.5-1.2s-1.6 1.8-3.8 1.8c-2.1 0-3.2-3.2-.6-7.2 2.4-4.1 4.1-4 5.4-2.8zm-3.5 3.7c-1.7 2.8-.9 5 1 3.7 1.9-1.3 1.9-5.3 1.9-5.3.2-2.1-1.2-1.1-2.9 1.6zM246.1 78c0-.2.9-6.7.8-9.4-.2-2.6-.6-3.5 1.1-2 1.8 1.5 2.8 4 1.8 7.5s-3.3 13.6-4.7 13.6c-1.3 0-.5-2.3-.5-2.3s-.8.4-2.3 1.1c-1.4.7-4.2.4-4.2-2.8 0-3.1 3.3-9.3 5.5-7.5 1.6 1.7 2.5 1.8 2.5 1.8zm-5.1 6.8c1.4.8 3.5-.6 4.8-3.1-2.5 0-2.8-2.8-2.8-2.8-1.4-.4-3.4 5.2-2 5.9zM253.9 78.6s.8-1.5-.5-2.2c-1.3-.6-1.9 0-2.4 2.5s-.4 6.4 1.1 6.7c1.5.2 3-1.7 5.1-3.9 2.2-2.2 2.6-2.8 2.6-2.8s2 1.9.8 3.5c-1.2 1.7-2 1.9-2 1.9s-.6.8.9.8 2.8-.4 4-1.5c1.2-1.2 1.3-3.3 0-5.1-1.3-1.7-2-2-2.1-2.4-.2-.4-.4-1.4-1.3 0s-3.3 4.4-4.8 6c-1.5 1.5-2.8 2.5-2.5 0 .3-2.5 1.1-3.5 1.1-3.5zM254.3 71.6c.3-1.4.3-2.1 1.7-1.7 1.4.4 1.3 1.3.2 2.4-1.1 1.1-2.4 1.3-1.9-.7zM266 79s.8-.4 2.2-2.5c1.4-2.1 1.7-3 2.4-3s.6.5 0 1.4-.8 1.7.6 2.8c1.4 1.1 3 2.9 1.7 5.1-1.3 2.2-4.4 2.2-5.4 1.8-.9-.4.3-.6 1.2-1.6.9-.9 1.3-2.3.9-3.6-.3-1.2-.8-1.7-1.7-.8-.9.9-1.6 1.7-2 1.3-.3-.2-.1-.8.1-.9zM281.6 75.7s-4 6.2-2.5 6.6c1.5.4 2.4-.6 2.1-1.7-.3-1.1-.4-1.9 0-2.3.4-.4.9.5 1.5 1.8.5 1.3.6 2.6-3.6 4.3-2.5.8-4.6.4-2.8-3.6 1.8-4 3.1-5.7 4.4-6 1.5-.3 1.2.6.9.9zM289.9 77.9s-1.1 2.7-1.4 3.6c-.3.9.8-.4 1.5-1.8.8-1.4 2.1-3.5 3.3-1 1.2 2.5 2.2 3.9 3.4 5.1 1.2 1.2.9 2 .2 2.8-.8.8-2.5.2-3.2-1.9-.8-2.1-1.1-4.7-1.8-4.9-.7-.2-1.7 2.9-2.9 4.5s-3.2.6-3.1-1.5c.2-2.1.9-6.6 2.4-6.6 1.5.1 2 .7 1.6 1.7zM218.4 94.9s20.4-6.1 35.1-6.8c14.7-.8 24.2-1 26.8-.8 2.6.3 3 1.5 1.4 1.5s-2.6.5-2.8.8c-.2.2 1.8.8-2.6.5-4.3-.2-8.6 0-8.3.3.3.3-.7.7-1.5.7s-10.9-.1-26 1.5c-15.1 1.7-21.2 3.2-21.2 3.2s-2.9.3-.9-.9zM284.3 87.8s2.2 0 4.8.2c2.6.2 2.5.8 1.6 1.7-.8.8-3.5.8-4.3 0-.8-.8-.9-.4-2.1-.7-1.1-.3-1-1.2 0-1.2zM190 75.2c-.4-.2-.8-.3-1.3-.3-.9 0-1.7.3-2.2.6v-4.1h-1.1v10.2c0 .2.2.4.6.6.4.2.9.3 1.7.3.9 0 1.8-.2 2.6-.8.8-.6 1.2-1.5 1.2-2.7 0-1.1-.2-2.1-.6-2.8-.2-.5-.5-.8-.9-1zm-.4 5.6c-.5.4-1.1.6-1.9.6-.7 0-1-.1-1.2-.2v-4.3c.1-.1.9-.8 2.2-.8.3 0 .6.1.7.2.3.2.5.4.6.8.2.4.2 1.1.2 1.8.2 1-.2 1.5-.6 1.9zM199.5 75.1h-1.3l-1.9 3.9-2.6-3.9h-1.3l3.4 5.2-2.8 5.9h1.3z"/><g fill="#2E4193"><path d="M86.3 28.1s1.1-12.6-20-12.6c0 0-20.2-2.2-21.2 14.7h13.2s1.2-5.4 7-5.4c5.9 0 7.5 2.8 7.5 5.1s-.7 3.6-5.3 4.2c-4 .6-15.1.8-21 5.9v-1c0-13-8.5-23.5-19.1-23.5-5.3 0-10 2.6-13.5 6.9V17H0v69h14.4V56.3v-.1c3.4 4 8 6.4 13 6.4 6.5 0 12.2-4 15.7-10.1C44.7 58 49.8 62.9 59 62.6c9 0 14.1-6.9 14.4-4.7.3 2.2-.2 3.5 1.3 3.5h13.8s-2.2-3-2.2-6.6V28.1zM22.7 51.4c-5 0-9.1-5.5-9.1-12.4 0-6.8 4.1-12.4 9.1-12.4s9.1 5.5 9.1 12.4-4 12.4-9.1 12.4zm45.9 1.1c-5.3 2.2-11.6.5-11-4.3.7-7 12.1-4.5 15.2-7.6-.1-.1 1.2 9.6-4.2 11.9zM185.4 17.1h14.3v44.3h-14.3zM185.4 0h14.3v11.8h-14.3zM166.5 17.1h-16.6l-13 14.8V0h-14.3v16.9c-13.1-2.7-16.4 8.1-16.4 8.1v-8H91.8v44.3h14.3V38.2c1.7-11.7 13.6-9.4 16.4-8.6v31.8h14.3V47l3.6-3.7 11.3 18h17.5l-19.1-27.9 16.4-16.3zM233.8 15.9c-7.7 0-12.2 3.1-14.7 6.4V17h-14.3v44.3H219V35.8s.5-8.5 8.1-8.5c4.8 0 7.3 2.3 7.3 11v23.1h14.1V29.7s.5-13.8-14.7-13.8zM282.8 15.9c-7.7 0-12.2 3.1-14.7 6.4V17h-14.3v44.3H268V35.8s.5-8.5 8.1-8.5c4.8 0 7.3 2.3 7.3 11v23.1h14.1V29.7s.5-13.8-14.7-13.8z"/></g></svg>