<svg xmlns="http://www.w3.org/2000/svg" viewBox="0 0 333.1 100"><path fill="#0B0C0B" d="M123.2 2.4s-4.9-6.1-4 1.1c0 0 .8 15.3-1.7 34.3-.4-.8-.8-1.7-1.1-2.5 0 0-4.4-5.7-9.7-4 0 0-6.1 2.1-9.7 11.4 0 0-2.8 6.8-2.1 11.7 0 0 0 12.9 15.7 3.6 0 0 1.7-.8 3.6-2.8-.4 1.7-1.1 2.8-1.1 4.4 0 0-.4 3.2 1.1 4 .4.4 1.1 0 2.5-3.2 0 0 11.4-29 11.7-40.7.1-.1 4.1-6.1-5.2-17.3zm-19.3 51.9s-1.1-.8-1.1-4c0 0 .4-6.1 4.4-10.8 0 0 1.1-1.7 2.1-1.7.4-.4.8 0 1.1 2.1 0 .4-1.1.4-.8 2.1 0 0 2.5 5.7 6.8 3.2-.4.8-.4 2.1-.8 3.2-2.4 3.1-7.3 9.1-11.7 5.9z"/><path fill="#194E9C" d="M37.4 86.1c.8-.4 1.1-1.1 3.2-2.1 0 0 76.2-25.8 177.1-20.5 0 0 5.7-.4 4 2.5-.8 1.1-2.8 1.7-6.1 1.7h-5.3s10.4 4-30.7 3.2c0 0 3.6 3.6-11.4 2.8 0 0-41.9-2.1-126.4 13.3.5-.1-5.9 1.6-4.4-.9z"/><path fill="#0B0C0B" d="M162.3 31c-2.8-5.3-4.4-.8-4.4-.8-1.7 4.9-12.1 16.5-14 18.6-8.9 7.6-5.7 2.8-6.4-.4 0 0 .4-6.4 2.1-7.6 0 0 .8.4 1.7-3.2 0 0 2.1-5.3-3.6-6.1 0 0-3.6-2.5-5.3 4.9 0 0-3.6 14 .8 20.5 0 0 2.5 4.4 14.6-7.2h-.8c4.4-4 10.4-11.4 10.4-11.4 6.8 12.1-3.2 15.3-3.2 15.3-4 2.5 0 2.8 0 2.8 15.3.4 16.5-8.9 16.5-8.9.5-6.8-8.4-16.5-8.4-16.5zM148.6 16.4c.4-2.1-1.1-4-3.2-4.4-2.1-.4-3.6 1.1-4 3.6 0 .8 0 1.7-.4 2.8 0 .8-.8 4 0 4.4 1.1 0 4-2.1 5.7-2.8 1.2-.8 1.9-1.9 1.9-3.6zM213 29.3S202.2 45 202.2 50.7c0 0-.4 4.9 5.3 4.4 0 0 5.7-.4 9.7-3.6 0 0 2.5-2.5 4-2.8 0 0 3.6.4 2.5-4.4 0 0-1.1-5.7-2.5-7.6 0 0-1.7-2.5-2.8-1.7 0 0-1.7.8-1.1 3.2 0 0 0 .4.8 2.5 0 0 1.7 5.3.8 5.3 0 0-.8.4-1.1.8l-1.7 1.7s-4.9 3.2-4-1.7c0 0 .8-2.8 1.7-4.4 0 0 2.8-7.6 5.7-11.7 0 0 2.8-3.6-.8-3.2h-.8c-.5-.3-2.4-1.8-4.9 1.8zM190.5 36.1c-2.1-1.1-4-5.7-2.5-7.6.8-1.1 2.1-2.1 2.1-3.2-.4-2.8-5.7 0-6.4 3.6-2.1 5.3-7.6 8.5-7.6 8.5-.8.8-.8 2.8-.8 2.8-.4 4 2.1 1.1 2.1 1.1 3.6-2.8 6.1-4.9 6.1-4.9 6.4 12.5-3.6 15.7-3.6 15.7-1.1.4-1.7.8-1.7 1.7 0 1.1 2.1 1.1 2.1 1.1 15.3.4 16.5-8.9 16.5-8.9.5-4.2-3.9-8.2-6.3-9.9zM90.6 54.7c-.4-.4-2.5.4-4.4 1.7-.4.4-.8.4-1.1.8-.4.4-1.1.8-1.7.8 0 0-1.1 1.1-1.1-1.1 0-.4 0-1.1.4-2.1 0 0 1.7-6.8 2.5-8.9 0 0 .4-2.1 1.1-4.4 0 0 2.8-2.8-2.8-4 0 0-2.5-6.4-5.7 3.6 0-.8-.8-2.5-2.5-3.2-.4 0-.8-.4-1.1-.4h-1.1s-2.5-.8-5.3 2.8c-3.2 3.2-12.1 14-10 22.9 0 0 1.1 4.9 5.3 4.9 0 0 5.3 0 9.7-4 0 0 1.1-1.1 2.5-2.8 0 .8 0 1.1.4 2.1 0 0 0 1.1.8 2.1.8.4 1.7 1.1 3.2.8h.8s5.7-1.7 5.7-4c-.4-1.1.4-1.1.4-1.1v-.8c-.5-.4 4.4-3.6 4-5.7zm-16.4 3.6c-.4.8-.8 1.7-2.1 2.5 0 0-6.4 4-6.4-1.7 0 0 .4-3.2 1.7-6.1 0 0 2.8-7.2 7.2-11.7.4-.4.8-.4.8 0 .8.8.8 2.1 1.1 2.8.4 0 .4.4.4.4-.4 2.8-1.7 8.1-2.1 12.1.1.5-.3 1.3-.6 1.7zM30.2 28.2c-.4-.4-1.7 0-3.6 3.6 0 0-19.3 32.2-22.9 47.6 0 0-4.4 10.4 1.1 14.6 0 0 1.1 2.1 2.8 2.5.4 2.1 1.1 4 2.8 3.6.8-.4.8-2.5.8-4 0-1.7 0-2.8.4-4V91s.4-.4.4-1.1c2.1-7.2 10.4-41.1 17.8-55.1 0-.6 1.5-4.4.4-6.6z"/><path fill="#0B0C0B" d="M59.2 82.5S42.7 57.9 41 52.4c0 0-.8-2.1-2.1-2.8 1.1 0 2.5 0 3.6-.4 0 0 8.9 0 12.5-6.8 1.1-1.7 2.8-8.1-4.4-16.1 0 0-9.7-11.4-31.1-12.9 0 0-6.1-2.8-16.9 6.4 0 0-4.4 3.6-2.1 4.4h2.8s18.2-6.1 40.4 6.8c0 0 8.9 5.7 3.6 10.8 0 0-2.5 2.5-8.1 3.6 0 0-1.1 0-3.6.4h-3.2s-2.5 0-2.5.8c0 .4.4.4 1.7 1.1-2.5.4-3.2.4-4 1.1 0 0-.4.4 0 1.1 1.7 4 8.5 21 24.6 34.7 0 0 9.3 7.2 11.4 5.3.9-.2-1.6-3-4.4-7.4zM261.3 51.5c-2.8-1.7-9.7-16.1-9.7-16.1-1.7-2.5-4.4.8-4.4.8-2.1 1.1-4.9 6.1-6.1 8.9-2.1 3.2-1.7-.8-1.7-.8.4-1.1.8-3.2 2.1-4 0 0 .8.8 2.1-2.8 0 0 2.1-4.9-3.2-6.1 0 0-3.6-2.8-6.1 4.4 0 0-3.2 10.4-2.1 16.9 0 0 .8 7.6 7.2 1.7.8-.4 1.1-1.7 2.1-2.5 1.1-2.1 1.7-2.8 2.8-4.9 1.7-4 4-7.2 4.9-7.6-.4 4 4.4 15.7 4.4 15.7 2.1 6.1 4.9 5.7 4.9 5.7 14.6.3 2.8-9.3 2.8-9.3z"/><path fill="#194E9C" d="M228.7 64c3.2.4 6.4.4 11.4.8 2.5.4 6.4.4 6.8 2.1.8 1.7-1.1 2.8-4.4 3.6-2.1.4-2.8.8-4.4.4-2.1 0-5.7.4-6.1-2.1 0-1.1-2.5-1.1-4-1.1-3.6 0-3.2-1.1-2.5-2.5.4-.5 1.2-1.2 3.2-1.2z"/><path fill="#0B0C0B" d="M167.6 86.5h-1.7v5.3H159v-5.3h-1.5v12.1h1.5v-5.3h6.9v5.3h1.7zM171.2 92.6c0 3.2 2.8 6.1 6.4 6.1 4.4 0 6.8-2.8 6.8-6.1 0-3.6-2.8-6.4-6.4-6.4-4-.1-6.8 3.1-6.8 6.4zm2 0c0-2.8 2.1-4.9 4.9-4.9 2.5 0 4.4 2.1 4.4 4.9s-2.1 4.4-4.4 4.4c-3-.1-4.9-1.6-4.9-4.4zM196.2 86.5h-10.5V88h4.4v10.6h1.5V88h4.6zM206.2 86.5h-6.8v12.1h6.8v-1.7h-5.3v-3.6h4.9v-1.5h-4.9V88h5.3zM211.5 86.5h-1.7v12.1h7.2v-1.7h-5.5zM225.9 87.3c-.8-.8-2.1-1.1-2.8-1.1-2.5 0-3.6 1.7-3.6 3.2 0 3.6 5.3 3.6 5.3 6.4 0 .4-.8 1.7-2.1 1.7-1.1 0-2.5-.8-3.2-2.1v2.5c.8.8 2.1.8 3.2.8 2.1 0 3.6-1.1 3.6-3.2 0-3.6-5.3-3.6-5.3-6.1 0-.8.8-1.7 2.1-1.7.8 0 1.7.4 2.8 1.1v-1.5zM243.7 92.6c-.4.8-.8 1.7-1.7 2.1l-1.7-2.1c1.7-1.1 2.5-2.1 2.5-3.2 0-1.7-1.1-2.8-3.2-2.8-1.7 0-2.8 1.1-2.8 2.8 0 1.1.4 2.1 1.1 2.8-1.7 1.1-2.8 2.5-2.8 3.6 0 1.7 1.1 2.8 3.2 2.8.8 0 2.1-.4 3.6-1.7l1.7 1.7h2.1l-2.5-2.8c.8-1.1 1.7-2.5 2.1-3.2h-1.6zm-2.8 3.2c-.8.8-1.7 1.1-2.5 1.1s-1.7-.4-1.7-1.1.8-1.7 2.5-2.5l1.7 2.5zm-2.5-6.5c0-.8.4-1.1 1.1-1.1.8 0 1.7.4 1.7 1.1 0 .8-.4 1.1-1.7 2.1-.7-.5-1.1-1.3-1.1-2.1zM254.9 86.5v12.1h2.1v-5.3h.4c1.1 0 1.7.4 3.2 2.8l1.7 2.5h2.5c-1.1-1.1-1.1-1.7-2.1-2.5-.8-1.7-1.7-2.5-2.5-3.2 1.1-.8 2.1-1.7 2.1-3.2 0-2.1-1.7-3.2-4-3.2h-3.4zM257 88h.8c2.1 0 2.5.4 2.5 1.7 0 1.1-.4 2.1-2.5 2.1h-.8V88zM274.2 86.5h-6.8v12.1h6.8v-1.7h-5.1v-3.6h5.1v-1.5h-5.1V88h5.1zM283.5 87.3c-.8-.8-1.7-1.1-2.8-1.1-2.1 0-3.6 1.7-3.6 3.2 0 3.6 5.3 3.6 5.3 6.4 0 .4-.4 1.7-2.1 1.7-1.1 0-2.1-.8-3.2-2.1v2.5c1.1.8 2.5.8 3.6.8 2.1 0 3.2-1.1 3.2-3.2 0-3.6-5.3-3.6-5.3-6.1 0-.8.8-1.7 2.1-1.7.8 0 2.1.4 2.8 1.1v-1.5zM287.1 92.6c0 3.2 2.5 6.1 6.4 6.1s6.4-2.8 6.4-6.1c0-3.6-2.5-6.4-6.4-6.4-3.9-.1-6.4 3.1-6.4 6.4zm1.7 0c0-2.8 2.1-4.9 4.9-4.9 2.8 0 4.9 2.1 4.9 4.9s-2.1 4.4-4.9 4.4c-3-.1-4.9-1.6-4.9-4.4zM303.6 86.5v12.1h2.1v-5.3h.8c.8 0 1.7.4 3.2 2.8l1.7 2.5h2.1c-.8-1.1-1.1-1.7-1.7-2.5-1.1-1.7-1.7-2.5-2.8-3.2 1.1-.8 2.1-1.7 2.1-3.2 0-2.1-1.7-3.2-4-3.2h-3.5zm2.1 1.5h1.1c1.7 0 2.1.4 2.1 1.7 0 1.1-.4 2.1-2.1 2.1h-1.1V88zM323.9 86.5h-10.7V88h4.6v10.6h1.5V88h4.6zM332.6 87.3c-.8-.8-1.7-1.1-2.8-1.1-2.1 0-3.6 1.7-3.6 3.2 0 3.6 5.3 3.6 5.3 6.4 0 .4-.4 1.7-2.1 1.7-1.1 0-2.5-.8-3.2-2.1v2.5c1.1.8 2.1.8 3.6.8 2.1 0 3.2-1.1 3.2-3.2 0-3.6-5.3-3.6-5.3-6.1 0-.8.8-1.7 2.1-1.7.8 0 1.7.4 2.8 1.1v-1.5z"/><path fill="#194E9C" d="M273.5 68.7c0 .8.8 1.7 2.1 1.7h55.9c.8 0 1.7-.8 1.7-1.7V12.4c0-.8-.8-1.7-1.7-1.7h-55.9c-1.1 0-2.1.8-2.1 2.1v55.9z"/><path fill="#FFF" d="M311 38.6H305.7l-14 17.2v.4h2.5l2.8-4H302.3l-.8 3.6s0 .4.4.4h6.1l3-17.6s.3 0 0 0zm-8.6 11.7h-4l5.3-6.4-1.3 6.4zM278.2 53.9c0 .4 0 .4.4.8.8.4 2.8 2.1 6.1 2.1 6.1 0 8.1-4 7.2-7.2 0-.8-1.1-5.7-1.1-6.1-.4-2.1.4-3.2 2.1-3.2s2.5.4 3.2 1.1h.4c0-.4.4-1.7.4-1.7s0-.4-.4-.4c-.4-.4-2.1-1.1-4.9-1.1-5.3 0-7.6 3.6-6.4 7.2 0 1.1 1.1 5.7 1.1 6.4 0 .4.4 2.8-2.5 2.8-2.5 0-4.4-2.1-4.9-2.5 0-.4-.4 0-.4 0l-.3 1.8zM309.6 54.3s0 .4.4.4c.8.8 2.8 2.1 6.1 2.1 6.1 0 8.1-4 7.2-7.2 0-.8-1.1-5.7-1.1-6.1-.4-2.1.4-3.2 2.1-3.2 1.7 0 2.5.4 3.2 1.1h.4c0-.4.4-1.7.4-1.7s0-.4-.4-.4c-.4-.4-2.1-1.1-4.9-1.1-5.3 0-7.6 3.6-6.4 7.2 0 1.1 1.1 5.7 1.1 6.4 0 .4.4 2.8-2.5 2.8-2.5 0-4-2.1-4.9-2.5h-.4l-.3 2.2z"/></svg>