<svg xmlns="http://www.w3.org/2000/svg" viewBox="0 0 248.7 100">
    <path fill="#919191" d="M86.9 18.9v24.7c0 2.4-.2 4.9-.9 7.3-.6 1.9-1.6 3.7-2.9 5-1.4 1.4-3.2 2.4-5.2 3-2.7.7-5.3 1-8 1s-5.3-.3-7.9-1.2c-2.1-.7-3.9-1.8-5.4-3.2-1.1-1-1.8-2.4-1.9-4 0-1 .3-1.9 1.1-2.6.7-.7 1.7-1 2.6-1 1.3 0 2.4.7 3.2 1.7l1.4 1.7c.4.6 1 1.1 1.7 1.6.7.4 1.3.8 2.1.9.9.2 1.9.3 2.9.3 1.8.1 3.6-.2 5.1-.9 1.1-.6 2-1.4 2.6-2.6.4-1.1.8-2.3.9-3.6.1-1.2.1-3.3.2-6.1-1.2 1.7-2.8 3.1-4.5 4.2-1.9 1-4 1.4-6.1 1.4-2.7 0-5.2-.8-7.4-2.2-2.2-1.6-3.9-3.7-4.9-6.1-1.2-2.9-1.8-6-1.7-9.1 0-2.3.3-4.7 1-6.9.7-1.9 1.7-3.7 3-5.2 1.2-1.3 2.8-2.4 4.4-3.2 1.8-.8 3.7-1.1 5.5-1.1 2.2 0 4.3.4 6.2 1.3 1.9 1.1 3.7 2.6 4.9 4.3v-1.1c-.1-1.2.3-2.4 1.1-3.4.7-.8 1.8-1.2 2.8-1.2 1.3-.2 2.6.4 3.2 1.6.7 1.4.9 3 .8 4.5M62.1 29.4c-.2 2.8.6 5.5 2.2 7.8 1.4 1.8 3.6 2.7 5.9 2.7 1.4 0 2.8-.4 4-1.1 1.3-.8 2.4-2 3.1-3.4.8-1.8 1.2-3.7 1.2-5.5.2-2.9-.7-5.8-2.3-8.1-1.4-1.9-3.7-3-6-2.9-2.3-.1-4.4 1-5.9 2.8-1.5 2.2-2.3 4.9-2.2 7.7M141.2 30c0 2.4-.3 4.8-1.2 7-.8 2.1-1.9 4-3.4 5.5-1.6 1.6-3.3 2.8-5.3 3.6-2.2.9-4.7 1.2-7 1.2s-4.8-.3-7-1.2c-4.1-1.7-7.3-4.9-8.8-9.1-1.6-4.5-1.6-9.5 0-14.1.8-2 1.9-3.9 3.4-5.4s3.3-2.8 5.3-3.6c4.5-1.7 9.4-1.7 14 0 2 .8 3.9 2 5.4 3.6s2.7 3.4 3.4 5.4c.8 2.3 1.2 4.6 1.2 7.1m-8.6 0c.2-2.9-.7-5.8-2.3-8.1-1.4-1.9-3.8-3-6.1-2.9-1.6 0-3.1.4-4.4 1.3-1.3 1-2.3 2.3-2.9 3.8-1.3 3.8-1.3 7.9 0 11.8.6 1.6 1.6 2.9 2.9 3.9 1.3.9 2.9 1.3 4.4 1.3 2.4.1 4.7-1 6.1-2.9 1.6-2.5 2.5-5.3 2.3-8.2M186.9 42.4v-.9c-1 1.2-2.1 2.2-3.3 3.2-1.1.8-2.3 1.4-3.7 1.9-1.3.4-2.8.7-4.2.7-2 0-3.9-.4-5.7-1.3s-3.3-2.1-4.5-3.7c-1.3-1.7-2.3-3.6-2.9-5.7-.7-2.2-1-4.7-1-7 0-5.3 1.3-9.4 3.9-12.4s6.3-4.5 10.2-4.4c2.1-.1 4.2.3 6.1 1.2 1.9 1 3.6 2.3 4.9 3.9V5.3c-.1-1.4.2-2.8 1-4 .7-.9 1.8-1.4 3-1.3 1.1-.1 2.2.3 3 1.2.8 1 1.1 2.3 1 3.7v37.5c.1 1.3-.3 2.7-1.1 3.7-.8.8-1.8 1.2-2.9 1.2s-2.1-.4-2.9-1.2c-.7-1.1-1.1-2.4-.9-3.7M170 29.9c0 2 .3 4 1.1 5.9.6 1.4 1.7 2.8 3 3.7 1.2.8 2.7 1.2 4.1 1.2 1.4 0 2.9-.4 4.1-1.2 1.3-.9 2.3-2.1 3-3.6.8-1.9 1.2-4 1.1-6 0-2-.3-4-1.1-5.9-.7-1.6-1.7-2.8-3.1-3.8-1.2-.9-2.7-1.3-4.1-1.3s-3 .4-4.2 1.3c-1.3 1-2.3 2.3-2.9 3.8-.8 2-1.1 4-1 5.9M239.2 42.4c-1.8 1.4-3.8 2.7-6 3.6-2.1.8-4.2 1.2-6.4 1.2-2 0-4-.4-5.8-1.3-1.6-.8-2.9-2-3.8-3.6-.9-1.4-1.3-3.1-1.3-4.8 0-2.2.8-4.3 2.2-6 1.7-1.8 3.8-2.9 6.1-3.3l4-.9c2.1-.4 4-.8 5.5-1.2s3.2-.8 5-1.3c0-1.8-.4-3.4-1.3-5-.8-1-2.4-1.6-5-1.6-1.7-.1-3.3.2-4.9.9-1.1.7-2.1 1.6-2.8 2.7-.8 1.2-1.3 2-1.7 2.3-.6.4-1.3.7-2.1.6-.9 0-1.8-.3-2.4-.9s-1.1-1.4-1-2.3c0-1.6.6-3.1 1.6-4.3 1.3-1.6 3-2.8 5-3.4 2.7-1 5.5-1.4 8.3-1.3 3-.1 6 .3 8.8 1.3 2 .8 3.7 2.2 4.5 4.2 1 2.4 1.4 5 1.3 7.7v9.6c0 1.7.3 3.3.8 5 .3 1.1.7 2.2.8 3.3 0 1-.4 1.8-1.2 2.4-.8.7-1.8 1.1-2.8 1.1s-1.9-.4-2.6-1.2c-1.1-.9-2-2.1-2.8-3.5m-.5-12.2c-1.8.6-3.6 1.1-5.4 1.4-2.3.6-4 .9-5 1.1-1 .2-1.9.8-2.7 1.4-.9.8-1.3 1.8-1.2 2.9 0 1.2.6 2.4 1.6 3.3 1.1.9 2.4 1.4 3.9 1.3 1.6 0 3.2-.3 4.5-1.1 1.2-.7 2.3-1.7 3.1-2.9.9-2 1.3-4.2 1.1-6.3 0 .1.1-1.1.1-1.1zM23.3 42.4c-1.8 1.4-3.9 2.7-6 3.6-2.1.8-4.2 1.2-6.4 1.2-2 0-4-.4-5.8-1.3-1.6-.8-2.9-2-3.8-3.6C.4 40.9 0 39.2 0 37.5c0-2.2.8-4.3 2.2-6 1.7-1.8 3.8-2.9 6.1-3.3l4-.9c2.1-.4 4-.8 5.5-1.2 1.6-.3 3.2-.8 5-1.3 0-1.8-.4-3.4-1.3-5-.8-1-2.4-1.6-5-1.6-1.7-.1-3.3.2-4.9.9-1.1.7-2.1 1.6-2.8 2.7-.8 1.2-1.3 2-1.7 2.3-.6.4-1.3.7-2.1.6-.9 0-1.8-.3-2.4-.9s-1.1-1.4-1-2.3c0-1.6.6-3.1 1.6-4.3 1.3-1.7 3.1-2.9 5.1-3.6 2.7-1 5.5-1.4 8.4-1.3 3-.1 6 .3 8.8 1.3 2 .8 3.7 2.2 4.5 4.2 1 2.4 1.4 5 1.3 7.7v9.6c0 1.7.3 3.3.8 5 .3 1.1.7 2.2.8 3.3 0 .9-.4 1.8-1.2 2.4C31 46.5 30 47 29 47c-1 0-1.9-.4-2.6-1.2-1-1.1-2-2.3-2.7-3.6m-.7-12c-1.8.6-3.6 1.1-5.4 1.4-2.3.6-4 .9-5 1.1s-1.9.8-2.7 1.4c-.9.9-1.4 1.9-1.2 3 0 1.2.6 2.4 1.6 3.3 1.1.9 2.4 1.4 3.9 1.3 1.6 0 3.2-.3 4.5-1.1 1.3-.7 2.4-1.7 3.1-2.9.9-2 1.3-4.2 1.1-6.3l.1-1.2z"/>
    <circle fill="#ED2224" cx="16.3" cy="83.7" r="16.3"/>
    <circle fill="#F69E1D" cx="70.2" cy="83.7" r="16.3"/>
    <circle fill="#19AC5B" cx="124.3" cy="83.7" r="16.3"/>
    <circle fill="#8150A0" cx="178.2" cy="83.7" r="16.3"/>
    <circle fill="#347FC2" cx="232.3" cy="83.7" r="16.3"/>
</svg>