<svg xmlns="http://www.w3.org/2000/svg" width="30.657" height="30.656" viewBox="0 0 30.657 30.656">
    <defs>
        <style>
            .prefix__cls-1{fill:#444f5e}
        </style>
    </defs>
    <g id="prefix__field" transform="translate(0 .075)">
        <path id="prefix__Path_253" d="M287.814 401a19.14 19.14 0 0 0-13.464 5.627.6.6 0 0 0 0 .844.607.607 0 0 0 .85 0 17.924 17.924 0 0 1 12.614-5.274.6.6 0 1 0 0-1.2z" class="prefix__cls-1" data-name="Path 253" transform="translate(-257.762 -377.065)"/>
        <path id="prefix__Path_254" d="M177.938 387.544a.6.6 0 0 0-.832-.162 23.533 23.533 0 0 0-6.424 6.429.6.6 0 0 0 .162.832.612.612 0 0 0 .335.1.606.606 0 0 0 .5-.263 22.43 22.43 0 0 1 6.1-6.106.6.6 0 0 0 .159-.83z" class="prefix__cls-1" data-name="Path 254" transform="translate(-160.367 -364.165)"/>
        <path id="prefix__Path_255" d="M372.114 320.5a23.466 23.466 0 0 0-7.872 1.359.6.6 0 0 0 .2 1.167.575.575 0 0 0 .2-.036 22.343 22.343 0 0 1 7.471-1.293.6.6 0 0 0 .006-1.2z" class="prefix__cls-1" data-name="Path 255" transform="translate(-342.061 -301.384)"/>
        <path id="prefix__Path_256" d="M8.579 26.474a27.3 27.3 0 0 1 15.93-10.039h.006a26.73 26.73 0 0 1 5.543-.587.6.6 0 0 0 0-1.2 28.11 28.11 0 0 0-5.065.461v-1.291a8.877 8.877 0 0 0 3.352-6.789A8.941 8.941 0 0 0 24.772.055a.6.6 0 0 0-.748 0 8.933 8.933 0 0 0-3.574 6.974 8.858 8.858 0 0 0 3.35 6.789v1.539a27.633 27.633 0 0 0-3.358.988v-3.509a.583.583 0 0 0-.174-.419l-3.352-3.37a.593.593 0 0 0-.425-.174H9.638a.618.618 0 0 0-.425.174l-3.352 3.37a.6.6 0 0 0-.174.425v2.287c-.419-.078-.838-.144-1.257-.2v-2.135A6.837 6.837 0 0 0 6.962 7.6 6.907 6.907 0 0 0 4.2 2.21a.6.6 0 0 0-.748 0A6.88 6.88 0 0 0 .7 7.592a6.828 6.828 0 0 0 2.532 5.2v2c-.873-.092-1.753-.13-2.632-.13a.6.6 0 1 0 0 1.2 27 27 0 0 1 13.6 3.67 27.882 27.882 0 0 0-2.826 2.2A23.789 23.789 0 0 0 .6 19.122a.6.6 0 1 0 0 1.2 22.594 22.594 0 0 1 9.83 2.275 27.736 27.736 0 0 0-2.544 2.82A18.772 18.772 0 0 0 .6 23.941a.6.6 0 0 0 0 1.2A17.518 17.518 0 0 1 7.136 26.4c-.413.575-.808 1.167-1.179 1.772l-.91 1.5a.594.594 0 0 0 .2.82.591.591 0 0 0 .82-.2l.91-1.5a26.2 26.2 0 0 1 1.539-2.251.376.376 0 0 0 .063-.067zM21.635 7.035a7.651 7.651 0 0 1 2.754-5.723 7.651 7.651 0 0 1 2.754 5.723 7.44 7.44 0 0 1-2.155 5.142V7.592a.6.6 0 0 0-1.2 0v4.586a7.467 7.467 0 0 1-2.153-5.143zM1.9 7.592a5.61 5.61 0 0 1 1.931-4.13 5.6 5.6 0 0 1 1.934 4.13 5.4 5.4 0 0 1-1.335 3.5V7.113a.6.6 0 0 0-1.2 0v3.981A5.4 5.4 0 0 1 1.9 7.592zm16.5 4.651h-5.158l-2.167-2.179h5.154zm-8.762-1.927l1.916 1.922H7.723zm-2.754 3.125h5.508v3.807c-.275-.126-.557-.251-.838-.371v-2.011a.6.6 0 0 0-.6-.6H8.321a.6.6 0 0 0-.6.6v.712c-.275-.072-.557-.144-.838-.2zm3.473 2.959q-.709-.26-1.437-.485v-.455h1.437zm3.233 1.425v-4.39h5.645v3.376a28.247 28.247 0 0 0-3 1.455c-.311.174-.617.353-.922.539-.562-.347-1.137-.671-1.724-.976z" class="prefix__cls-1" data-name="Path 256"/>
        <path id="prefix__Path_257" d="M398 81.2a.63.63 0 0 0 .425-.174.593.593 0 0 0 .174-.425.629.629 0 0 0-.174-.425A.593.593 0 0 0 398 80a.618.618 0 0 0-.425.174.593.593 0 0 0-.174.425.593.593 0 0 0 .6.6z" class="prefix__cls-1" data-name="Path 257" transform="translate(-373.61 -75.281)"/>
        <path id="prefix__Path_258" d="M317.874 362.568a.593.593 0 0 0-.174.425.63.63 0 0 0 .174.425.593.593 0 0 0 .425.174.629.629 0 0 0 .425-.174.593.593 0 0 0 .174-.425.63.63 0 0 0-.174-.425.593.593 0 0 0-.425-.174.569.569 0 0 0-.425.174z" class="prefix__cls-1" data-name="Path 258" transform="translate(-298.681 -340.77)"/>
    </g>
</svg>
