<svg xmlns="http://www.w3.org/2000/svg" width="27.652" height="32.925" viewBox="0 0 27.652 32.925">
    <defs>
        <style>
            .prefix__cls-1{fill:#444f5e}
        </style>
    </defs>
    <g id="prefix__bell">
        <path id="prefix__Path_333" d="M265.663 332a.659.659 0 1 0 .659.659.66.66 0 0 0-.659-.659zm0 0" class="prefix__cls-1" data-name="Path 333" transform="translate(-247.984 -310.672)"/>
        <path id="prefix__Path_334" d="M67.579 19.014a.65.65 0 0 0-.031.2 24.615 24.615 0 0 1-1.119 7.345 1.932 1.932 0 0 0 .483 3.8h4.516a3.174 3.174 0 0 0 6.232 0h4.516a1.932 1.932 0 0 0 .483-3.8 24.614 24.614 0 0 1-1.119-7.345.656.656 0 0 0-.006-.091 7.066 7.066 0 0 0-4.884-6.446l.711-9.416a2.847 2.847 0 1 0-5.634 0l.711 9.42a7.332 7.332 0 0 0-4.859 6.333zm6.966 12.625a1.919 1.919 0 0 1-1.8-1.293h3.6a1.919 1.919 0 0 1-1.801 1.293zm7.632-2.572H66.912a.643.643 0 0 1 0-1.286h15.267a.643.643 0 0 1 0 1.286zM74.544 1.286A1.582 1.582 0 0 1 76.1 3.1v.042l-.7 9.258a7.021 7.021 0 0 0-1.536-.02l-.166.019-.7-9.258v-.042a1.582 1.582 0 0 1 1.546-1.813zM73.98 13.66a5.733 5.733 0 0 1 6.288 5.76v.039a25.9 25.9 0 0 0 1.041 7.034H67.778a25.906 25.906 0 0 0 1.036-6.706.648.648 0 0 0 .006-.091 5.951 5.951 0 0 1 5.16-6.036zm0 0" class="prefix__cls-1" data-name="Path 334" transform="translate(-60.718)"/>
        <path id="prefix__Path_335" d="M205.651 233.319a3.293 3.293 0 0 1 3.3 3.3.659.659 0 0 0 .659.659.659.659 0 0 0 .659-.659v-.022a4.613 4.613 0 0 0-4.618-4.597.659.659 0 1 0 0 1.319zm0 0" class="prefix__cls-1" data-name="Path 335" transform="translate(-191.886 -217.151)"/>
        <path id="prefix__Path_336" d="M2.127 169.483a5.927 5.927 0 0 1 3.537-8.7.659.659 0 0 0-.355-1.27 7.245 7.245 0 0 0-4.323 10.63.659.659 0 0 0 1.14-.662zm0 0" class="prefix__cls-1" data-name="Path 336" transform="translate(0 -149.358)"/>
        <path id="prefix__Path_337" d="M42.912 200.146a4.615 4.615 0 0 0-2.353 6.465.659.659 0 1 0 1.162-.622 3.3 3.3 0 0 1 1.679-4.619.659.659 0 1 0-.49-1.224zm0 0" class="prefix__cls-1" data-name="Path 337" transform="translate(-37.374 -187.314)"/>
        <path id="prefix__Path_338" d="M337.617 159.512a.659.659 0 1 0-.355 1.27 5.927 5.927 0 0 1 3.537 8.7.659.659 0 0 0 1.14.662 7.245 7.245 0 0 0-4.322-10.63zm0 0" class="prefix__cls-1" data-name="Path 338" transform="translate(-315.274 -149.356)"/>
        <path id="prefix__Path_339" d="M334.655 206.88a.659.659 0 0 0 .893-.27 4.614 4.614 0 0 0-2.353-6.465.659.659 0 1 0-.49 1.224 3.3 3.3 0 0 1 1.68 4.618.66.66 0 0 0 .27.893zm0 0" class="prefix__cls-1" data-name="Path 339" transform="translate(-311.08 -187.313)"/>
    </g>
</svg>
