<svg xmlns="http://www.w3.org/2000/svg" width="33.136" height="37.091" viewBox="0 0 33.136 37.091">
    <defs>
        <style>
            .prefix__cls-1{fill:#444f5e}
        </style>
    </defs>
    <g id="prefix__taxi" transform="translate(1.645)">
        <path id="prefix__Path_325" d="M94.776 5.749a3.1 3.1 0 00-2.124-.838H74.783l-.474-1.858A4.054 4.054 0 0070.379 0a.637.637 0 00-.637.637v7.217a4.422 4.422 0 00.581 2.189A5.886 5.886 0 0075.422 13h7.739l-1.414 2.508a.637.637 0 00.555.95h1.946a5.664 5.664 0 004.581-2.344.666.666 0 00.05-.081l.274-.531h6.204a3.012 3.012 0 002.757-1.99 3.071 3.071 0 00-.785-3.375zm-2.1 1.639h1.987l.781.73h-2.768a.365.365 0 010-.73zm-8.428 7.8h-.855l1.938-3.437h3.294l-.856 1.658a4.387 4.387 0 01-3.521 1.776zm12.672-4.125a1.735 1.735 0 01-1.607 1.164h-5.502l.116-.227a1.171 1.171 0 00.1-.572 1.183 1.183 0 00-.086-.6.644.644 0 00-.574-.353h-4.409a.637.637 0 00-.555.325l-.524.929h-8.457a4.609 4.609 0 01-3.993-2.319 3.142 3.142 0 01-.414-1.556V1.348a2.779 2.779 0 012.058 2.02l.6 2.338a.637.637 0 00.617.48H92.2a1.639 1.639 0 00.478 3.207h4.062a1.837 1.837 0 01.18 1.67zm0 0" class="prefix__cls-1" data-name="Path 325" transform="translate(-66.831)"/>
        <path id="prefix__Path_326" d="M169.14 113.09h-12.374a.637.637 0 000 1.274h12.374a.637.637 0 000-1.274zm0 0" class="prefix__cls-1" data-name="Path 326" transform="translate(-147.705 -105.873)"/>
        <path id="prefix__Path_327" d="M17.5 44.074a.637.637 0 100 1.274h.9a.637.637 0 100-1.274zm0 0" class="prefix__cls-1" data-name="Path 327" transform="translate(-17.327 -41.262)"/>
        <path id="prefix__Path_328" d="M1.636 94.746h-2.643a.637.637 0 00-.637.637.637.637 0 00.637.637h2.643a.637.637 0 000-1.274zm0 0" class="prefix__cls-1" data-name="Path 328" transform="translate(0 -88.7)"/>
        <path id="prefix__Path_329" d="M15.263 145.418h-1.294a.637.637 0 000 1.274h1.294a.637.637 0 000-1.274zm0 0" class="prefix__cls-1" data-name="Path 329" transform="translate(-14.021 -136.138)"/>
        <path id="prefix__Path_330" d="M109.735 433.836a2.3 2.3 0 102.3 2.3 2.3 2.3 0 00-2.3-2.3zm0 3.176a.871.871 0 11.87-.871.871.871 0 01-.87.871zm0 0" class="prefix__cls-1" data-name="Path 330" transform="translate(-102.114 -406.151)"/>
        <path id="prefix__Path_331" d="M338.5 433.836a2.3 2.3 0 102.3 2.3 2.3 2.3 0 00-2.3-2.3zm0 3.176a.871.871 0 11.87-.871.871.871 0 01-.87.871zm0 0" class="prefix__cls-1" data-name="Path 331" transform="translate(-316.277 -406.151)"/>
        <path id="prefix__Path_332" d="M83.607 281.633h-.69a2.233 2.233 0 00-1.45.532l-1.117-3.272-.009-.025a2 2 0 00-1.854-1.276h-2.269a1.988 1.988 0 00-1.982-1.867h-3.808a1.988 1.988 0 00-1.982 1.867h-2.564a2 2 0 00-1.854 1.275l-.009.025-1.119 3.292a2.234 2.234 0 00-1.471-.551h-.691a1.228 1.228 0 00-1.227 1.226v.886a1.228 1.228 0 001.227 1.226h.116a2.73 2.73 0 00-.807 1.94v2.419a2.741 2.741 0 002.737 2.738h.116v1.8a1.353 1.353 0 001.351 1.352h1.9a1.353 1.353 0 001.352-1.352v-1.8h9.368v1.8a1.353 1.353 0 001.351 1.352h1.9a1.353 1.353 0 001.351-1.352v-1.8h.119a2.74 2.74 0 002.737-2.737v-2.419a2.73 2.73 0 00-.807-1.939h.089a1.228 1.228 0 001.226-1.226v-.886a1.227 1.227 0 00-1.23-1.228zm-.69 1.433h.483v.472h-1.221a.813.813 0 01.737-.471zm-12.489-5.906h3.808a.554.554 0 01.539.433h-4.886a.554.554 0 01.539-.433zm-5.058 2.212a.556.556 0 01.512-.345h12.6a.556.556 0 01.512.345l1.639 4.8h-1.31a2.3 2.3 0 00-4.6 0H63.731zm12.52 4.8h-1.732a.869.869 0 011.733 0zm-16.949-1.108h.484a.813.813 0 01.738.472h-1.222zm5.125 10.723h-1.733v-1.722h1.734zm13.969 0H78.3v-1.722h1.734zm2.856-4.459a1.305 1.305 0 01-1.3 1.3H62.78a1.3 1.3 0 01-1.3-1.3v-2.419a1.305 1.305 0 011.3-1.3h18.808a1.306 1.306 0 011.3 1.3zm0 0" class="prefix__cls-1" data-name="Path 332" transform="translate(-57.25 -258.132)"/>
    </g>
</svg>
