<svg xmlns="http://www.w3.org/2000/svg" width="24.425" height="34.737" viewBox="0 0 24.425 34.737">
    <defs>
        <style>
            .prefix__cls-1{fill:#444f5e}
        </style>
    </defs>
    <g id="prefix__cooker" transform="translate(-9.5)">
        <path id="prefix__Path_316" d="M18.128 24.261a1.628 1.628 0 1 0-1.628-1.629 1.63 1.63 0 0 0 1.628 1.629zm0-2.171a.543.543 0 1 1-.543.543.543.543 0 0 1 .543-.543z" class="prefix__cls-1" data-name="Path 316" transform="translate(-3.201 -9.604)"/>
        <path id="prefix__Path_317" d="M26.128 24.261a1.628 1.628 0 1 0-1.628-1.629 1.63 1.63 0 0 0 1.628 1.629zm0-2.171a.543.543 0 1 1-.543.543.543.543 0 0 1 .543-.543z" class="prefix__cls-1" data-name="Path 317" transform="translate(-6.858 -9.604)"/>
        <path id="prefix__Path_318" d="M38.127 24.261a1.628 1.628 0 1 0-1.627-1.629 1.63 1.63 0 0 0 1.627 1.629zm0-2.171a.543.543 0 1 1-.543.543.543.543 0 0 1 .543-.543z" class="prefix__cls-1" data-name="Path 318" transform="translate(-12.345 -9.604)"/>
        <path id="prefix__Path_319" d="M44.5 22.632A1.628 1.628 0 1 0 46.127 21a1.63 1.63 0 0 0-1.627 1.632zm2.171 0a.543.543 0 1 1-.543-.543.543.543 0 0 1 .542.543z" class="prefix__cls-1" data-name="Path 319" transform="translate(-16.002 -9.604)"/>
        <path id="prefix__Path_320" d="M16.043 29a.543.543 0 0 0-.543.543v1.628a.542.542 0 0 0 .543.543v11.943a.542.542 0 0 0 .543.543h17.368a.542.542 0 0 0 .543-.543V31.718a.542.542 0 0 0 .543-.543v-1.628A.543.543 0 0 0 34.5 29zm.543 1.086h17.368v.543H16.586zm16.825 13.028H17.128v-11.4h16.283z" class="prefix__cls-1" data-name="Path 320" transform="translate(-2.743 -13.261)"/>
        <path id="prefix__Path_321" d="M10.043 7.057h3.334a2.174 2.174 0 0 0 .25.589.542.542 0 0 0-.328.5v1.083h-.543a1.63 1.63 0 0 0-1.628 1.628V31.48a1.63 1.63 0 0 0 1.628 1.628v1.086a.542.542 0 0 0 .543.543h5.428a.542.542 0 0 0 .543-.543v-1.085h6.511v1.086a.542.542 0 0 0 .543.543h5.428a.542.542 0 0 0 .543-.543v-1.086a1.63 1.63 0 0 0 1.628-1.628V10.858A1.63 1.63 0 0 0 32.3 9.229h-.543V8.144a.542.542 0 0 0-.327-.5 2.151 2.151 0 0 0 .327-1.132V3.258h.543a.543.543 0 1 0 0-1.086h-.62a2.17 2.17 0 0 0-2.1-1.629h-1.626a.543.543 0 1 0-1.086 0H25.24a2.169 2.169 0 0 0-2.094 1.628h-.62a.543.543 0 1 0 0 1.086h.543v3.257a2.151 2.151 0 0 0 .331 1.133.542.542 0 0 0-.327.5v1.082h-1.089V8.144a.543.543 0 0 0-.328-.5 2.15 2.15 0 0 0 .327-1.132.543.543 0 0 0-.543-.543h-11.4a.543.543 0 0 0 0 1.086zm9.769.543h-4.341a1.082 1.082 0 0 1-.935-.543h6.21a1.079 1.079 0 0 1-.934.543zm-1.627 26.052h-4.342v-.543h4.342zm13.024 0h-4.342v-.543h4.342zm1.63-22.794V31.48a.543.543 0 0 1-.543.543h-19.54a.543.543 0 0 1-.543-.543V10.858a.543.543 0 0 1 .543-.543H32.3a.543.543 0 0 1 .539.543zM25.245 7.6h-.005a1.087 1.087 0 0 1-1.086-1.086V3.258h6.513v3.256A1.088 1.088 0 0 1 29.581 7.6zm-.005-5.971h4.345a1.083 1.083 0 0 1 .932.543h-6.212a1.083 1.083 0 0 1 .935-.543zm-1.086 7.058h6.513v.543h-6.513zm-9.769.543v-.543H20.9v.543z" class="prefix__cls-1" data-name="Path 321"/>
        <path id="prefix__Path_322" d="M18.537 6.262a.543.543 0 0 0 .545.936 1.025 1.025 0 0 0 .5-.642 1.51 1.51 0 0 0-.3-1.23.754.754 0 0 1-.149-.333.543.543 0 0 0-.544-.937 1.023 1.023 0 0 0-.505.642 1.51 1.51 0 0 0 .3 1.23.756.756 0 0 1 .149.334z" class="prefix__cls-1" data-name="Path 322" transform="translate(-3.911 -1.829)"/>
        <path id="prefix__Path_323" d="M23.535 6.262a.543.543 0 0 0 .545.936 1.025 1.025 0 0 0 .5-.642 1.51 1.51 0 0 0-.3-1.23.747.747 0 0 1-.149-.333.543.543 0 0 0-.544-.937 1.023 1.023 0 0 0-.505.642 1.51 1.51 0 0 0 .3 1.23.749.749 0 0 1 .149.334z" class="prefix__cls-1" data-name="Path 323" transform="translate(-6.197 -1.829)"/>
        <path id="prefix__Path_324" d="M28.533 6.262a.543.543 0 0 0 .545.936 1.025 1.025 0 0 0 .5-.642 1.51 1.51 0 0 0-.3-1.23.747.747 0 0 1-.149-.333.543.543 0 0 0-.544-.937 1.023 1.023 0 0 0-.505.642 1.51 1.51 0 0 0 .3 1.23.749.749 0 0 1 .149.334z" class="prefix__cls-1" data-name="Path 324" transform="translate(-8.482 -1.829)"/>
    </g>
</svg>
