<svg xmlns="http://www.w3.org/2000/svg" width="671.618" height="500.5" viewBox="0 0 671.618 500.5"><defs><style>.a{fill:#ebebeb;}.b{fill:#fafafa;}.c{fill:#f0f0f0;}.d{fill:#f5f5f5;}.e,.g{fill:#e0e0e0;}.e,.l{opacity:0.5;}.f{fill:#e6e6e6;}.h,.j,.o{fill:#fff;}.i,.p{fill:#407bff;}.j{opacity:0.7;}.k{opacity:0.9;}.m{fill:#263238;}.n,.p,.r{opacity:0.2;}.o{opacity:0.4;}.q{fill:#b55b52;}.s{fill:#a02724;}</style></defs><g transform="translate(640 -142.953)"><g transform="translate(-640 142.953)"><rect class="a" width="671.618" height="0.335" transform="translate(0 439.835)"/><path class="a" d="M305.251,434.883H45.875a7.676,7.676,0,0,1-7.668-7.667V62.619a7.676,7.676,0,0,1,7.668-7.666h259.38a7.675,7.675,0,0,1,7.666,7.666v364.6a7.676,7.676,0,0,1-7.67,7.668ZM45.875,55.293a7.338,7.338,0,0,0-7.331,7.33V427.215a7.339,7.339,0,0,0,7.331,7.331h259.38a7.338,7.338,0,0,0,7.329-7.331V62.619a7.338,7.338,0,0,0-7.33-7.33Z" transform="translate(13.114 -54.953)"/><path class="a" d="M521.547,434.883H262.167a7.675,7.675,0,0,1-7.666-7.667V62.619a7.674,7.674,0,0,1,7.666-7.666h259.38a7.675,7.675,0,0,1,7.669,7.666v364.6a7.676,7.676,0,0,1-7.669,7.668ZM262.171,55.293a7.338,7.338,0,0,0-7.33,7.33V427.215a7.338,7.338,0,0,0,7.33,7.331h259.38a7.34,7.34,0,0,0,7.332-7.331V62.619a7.34,7.34,0,0,0-7.332-7.33Z" transform="translate(87.354 -54.953)"/><g transform="translate(70.465 448.983)"><rect class="a" width="34.921" height="0.335" transform="translate(498.938 12.474)"/><rect class="a" width="60.481" height="0.335" transform="translate(347.281 16.119)"/><rect class="a" width="81.658" height="0.335" transform="translate(415.935)"/><rect class="a" width="25.836" height="0.335" transform="translate(0 2.256)"/><rect class="a" width="74.27" height="0.335" transform="translate(37.796 2.256)"/><rect class="a" width="100.027" height="0.335" transform="translate(157.437 7.929)"/></g><g transform="translate(62.109 51.106)"><g transform="translate(0 134.596)"><rect class="b" width="28.479" height="98.56" transform="translate(0 155.574)"/><rect class="b" width="28.479" height="76.94" transform="translate(24.939 177.194)"/><rect class="b" width="28.479" height="140.346" transform="translate(43.149 113.788)"/><rect class="b" width="28.479" height="254.134" transform="translate(62.076)"/><rect class="b" width="76.421" height="234.352" transform="translate(84.574 19.781)"/></g><g transform="translate(387.167 214.795)"><rect class="b" width="32.538" height="67.457" transform="translate(103.461 173.935) rotate(180)"/><rect class="b" width="32.538" height="52.66" transform="translate(74.967 173.934) rotate(180)"/><rect class="b" width="32.538" height="96.055" transform="translate(54.161 173.935) rotate(180)"/><rect class="b" width="32.538" height="173.934" transform="translate(32.538 173.934) rotate(180)"/></g><g transform="translate(70.261)"><g transform="translate(234.557 176.25)"><rect class="c" width="99.845" height="212.48"/><g transform="translate(18.195 8.905)"><rect class="d" width="4.754" height="25.858" transform="translate(67.387)"/><rect class="d" width="4.754" height="25.858" transform="translate(67.387 40.436)"/><rect class="d" width="4.754" height="25.858" transform="translate(67.387 80.872)"/><rect class="d" width="4.754" height="25.858" transform="translate(67.387 121.307)"/><rect class="d" width="4.754" height="25.858" transform="translate(67.387 161.743)"/><rect class="d" width="4.754" height="25.858" transform="translate(50.54)"/><rect class="d" width="4.754" height="25.858" transform="translate(50.54 40.436)"/><rect class="d" width="4.754" height="25.858" transform="translate(50.54 80.872)"/><rect class="d" width="4.754" height="25.858" transform="translate(50.54 121.307)"/><rect class="d" width="4.754" height="25.858" transform="translate(50.54 161.743)"/><rect class="d" width="4.754" height="25.858" transform="translate(33.694)"/><rect class="d" width="4.754" height="25.858" transform="translate(33.694 40.436)"/><rect class="d" width="4.754" height="25.858" transform="translate(33.694 80.872)"/><rect class="d" width="4.754" height="25.858" transform="translate(33.694 121.307)"/><rect class="d" width="4.754" height="25.858" transform="translate(33.694 161.743)"/><rect class="d" width="4.754" height="25.858" transform="translate(16.846)"/><rect class="d" width="4.754" height="25.858" transform="translate(16.846 40.436)"/><rect class="d" width="4.754" height="25.858" transform="translate(16.846 80.872)"/><rect class="d" width="4.754" height="25.858" transform="translate(16.846 121.307)"/><rect class="d" width="4.754" height="25.858" transform="translate(16.846 161.743)"/><rect class="d" width="4.754" height="25.858"/><rect class="d" width="4.754" height="25.858" transform="translate(0 40.436)"/><rect class="d" width="4.754" height="25.858" transform="translate(0 80.872)"/><rect class="d" width="4.754" height="25.858" transform="translate(0 121.307)"/><rect class="d" width="4.754" height="25.858" transform="translate(0 161.743)"/></g><path class="e" d="M273.168,224.213H293.74l8.945,212.48H273.168Z" transform="translate(-273.168 -224.213)"/></g><g transform="translate(138.107 94.148)"><path class="c" d="M236.628,163.09l59.211,11.2V457.672H236.628Z" transform="translate(-189.258 -163.09)"/><rect class="f" width="47.369" height="294.582"/><rect class="g" width="106.581" height="1.509" transform="translate(106.581 25.917) rotate(180)"/><rect class="g" width="106.581" height="1.509" transform="translate(106.581 41.957) rotate(180)"/><rect class="g" width="106.581" height="1.509" transform="translate(106.581 57.997) rotate(180)"/><rect class="g" width="106.581" height="1.509" transform="translate(106.581 74.037) rotate(180)"/><rect class="g" width="106.581" height="1.509" transform="translate(106.581 90.077) rotate(180)"/><rect class="g" width="106.581" height="1.509" transform="translate(106.581 106.116) rotate(180)"/><rect class="g" width="106.581" height="1.509" transform="translate(106.581 122.157) rotate(180)"/><rect class="g" width="106.581" height="1.509" transform="translate(106.581 138.196) rotate(180)"/><rect class="g" width="106.581" height="1.509" transform="translate(106.581 154.237) rotate(180)"/><rect class="g" width="106.581" height="1.509" transform="translate(106.581 170.276) rotate(180)"/><rect class="g" width="106.581" height="1.509" transform="translate(106.581 186.316) rotate(180)"/><rect class="g" width="106.581" height="1.509" transform="translate(106.581 202.356) rotate(180)"/><rect class="g" width="106.581" height="1.509" transform="translate(106.581 218.395) rotate(180)"/><rect class="g" width="106.581" height="1.509" transform="translate(106.581 234.436) rotate(180)"/><rect class="g" width="106.581" height="1.509" transform="translate(106.581 250.475) rotate(180)"/><rect class="g" width="106.581" height="1.509" transform="translate(106.581 266.516) rotate(180)"/><rect class="g" width="106.581" height="1.509" transform="translate(106.581 282.555) rotate(180)"/></g><g transform="translate(62.668)"><rect class="c" width="49.526" height="357.189" transform="translate(0.003 31.541)"/><path class="b" d="M194.729,124.541H145.2L163.429,93h70.922Z" transform="translate(-145.2 -93)"/><path class="a" d="M182.074,124.541,221.7,93V481.727H182.078Z" transform="translate(-132.545 -93)"/><rect class="g" width="89.147" height="1.901" transform="translate(0.003 48.183)"/><rect class="g" width="89.147" height="1.901" transform="translate(0.003 68.401)"/><rect class="g" width="89.147" height="1.902" transform="translate(0.003 88.619)"/><rect class="g" width="89.147" height="1.902" transform="translate(0.003 108.837)"/><rect class="g" width="89.147" height="1.902" transform="translate(0.003 129.055)"/><rect class="g" width="89.147" height="1.902" transform="translate(0.003 149.273)"/><rect class="g" width="89.147" height="1.902" transform="translate(0.003 169.491)"/><rect class="g" width="89.147" height="1.902" transform="translate(0.003 189.709)"/><rect class="g" width="89.147" height="1.901" transform="translate(0.003 209.926)"/><rect class="g" width="89.147" height="1.901" transform="translate(0.003 230.144)"/><rect class="g" width="89.147" height="1.901" transform="translate(0.003 250.361)"/><rect class="g" width="89.147" height="1.902" transform="translate(0.003 270.579)"/><rect class="g" width="89.147" height="1.902" transform="translate(0.003 290.797)"/><rect class="g" width="89.147" height="1.902" transform="translate(0.003 311.015)"/><rect class="g" width="89.147" height="1.902" transform="translate(0.003 331.233)"/><rect class="g" width="89.147" height="1.902" transform="translate(0.003 351.451)"/><rect class="g" width="89.147" height="1.902" transform="translate(0.003 371.669)"/></g><g transform="translate(0 191.61)"><rect class="c" width="54.063" height="184.347" transform="translate(0 12.772)"/><rect class="f" width="8.677" height="29.587" transform="translate(10.642 22.302)"/><rect class="f" width="8.677" height="29.587" transform="translate(31.927 22.302)"/><rect class="f" width="8.677" height="29.587" transform="translate(10.642 60.618)"/><rect class="f" width="8.677" height="29.587" transform="translate(31.927 60.618)"/><rect class="f" width="8.677" height="29.587" transform="translate(10.642 98.933)"/><rect class="f" width="8.677" height="29.587" transform="translate(31.927 98.933)"/><rect class="f" width="8.677" height="29.587" transform="translate(10.642 137.249)"/><rect class="f" width="8.677" height="29.587" transform="translate(31.927 137.249)"/><path class="h" d="M152.609,248.42H98.546l12.682-12.772h54.063Z" transform="translate(-98.546 -235.648)"/><path class="f" d="M138.795,248.42l12.682-12.772,12.682,12.772V432.768H138.795Z" transform="translate(-84.731 -235.648)"/></g></g></g></g><g transform="translate(-564.63 613.034)"><ellipse class="d" cx="260.438" cy="15.21" rx="260.438" ry="15.21" transform="translate(0 0)"/></g><g transform="translate(-271.48 223.051)"><rect class="i" width="196.261" height="405.193" rx="9.289" transform="translate(7.756)"/><rect class="i" width="196.261" height="405.193" rx="9.289"/><rect class="j" width="196.261" height="405.193" rx="9.289"/><g class="k"><rect class="h" width="10.622" height="405.193" transform="translate(28.761)"/><rect class="h" width="6.515" height="405.193" transform="translate(145.295)"/><path class="h" d="M274.353,183.211v10.622l196.261-12.16V171.047Z" transform="translate(-274.353 -95.203)"/><rect class="h" width="10.622" height="196.261" transform="translate(0 349.636) rotate(-90)"/><rect class="h" width="5.787" height="196.261" transform="translate(0 146.829) rotate(-90)"/><path class="h" d="M274.353,338.531v12.16l196.261-66.409v-12.16Z" transform="translate(-274.353 -60.511)"/><path class="h" d="M328.273,114.583H317.651L346.2,519.776h10.622Z" transform="translate(-259.492 -114.583)"/></g></g><g transform="translate(-536.872 407.212)"><g transform="translate(0 0)"><g transform="translate(193.793 106.633)"><path class="i" d="M454.7,403.905H221.049V331.071H427.013l19.216,15.621a22.928,22.928,0,0,1,8.469,17.794Z" transform="translate(-221.049 -331.071)"/><path class="l" d="M454.7,403.905H221.049V331.071H427.013l19.216,15.621a22.928,22.928,0,0,1,8.469,17.794Z" transform="translate(-221.049 -331.071)"/></g><g transform="translate(163.892 124.768)"><path class="m" d="M227.346,392.7c0-26.584,12.053-48.133,26.92-48.133H225.709c-14.867,0-26.92,21.55-26.92,48.133s12.053,48.132,26.92,48.132h28.557C239.4,440.837,227.346,419.287,227.346,392.7Z" transform="translate(-198.789 -344.572)"/><ellipse class="m" cx="26.92" cy="48.133" rx="26.92" ry="48.133" transform="translate(28.557 0)"/><ellipse class="h" cx="19.085" cy="37.533" rx="19.085" ry="37.533" transform="translate(38.557 10.599)"/></g><g transform="translate(8.731 124.768)"><path class="m" d="M111.836,392.7c0-26.584,12.053-48.133,26.92-48.133H110.2c-14.867,0-26.92,21.55-26.92,48.133s12.053,48.132,26.92,48.132h28.557C123.886,440.837,111.836,419.287,111.836,392.7Z" transform="translate(-83.276 -344.572)"/><ellipse class="m" cx="26.92" cy="48.133" rx="26.92" ry="48.133" transform="translate(28.557 0)"/></g><g transform="translate(348.364 124.768)"><path class="m" d="M364.68,392.7c0-26.584,12.051-48.133,26.919-48.133H363.043c-14.868,0-26.92,21.55-26.92,48.133s12.051,48.132,26.92,48.132H391.6C376.731,440.837,364.68,419.287,364.68,392.7Z" transform="translate(-336.123 -344.572)"/><ellipse class="m" cx="26.92" cy="48.133" rx="26.92" ry="48.133" transform="translate(28.556 0)"/><ellipse class="h" cx="19.085" cy="37.533" rx="19.085" ry="37.533" transform="translate(38.556 10.599)"/></g><g transform="translate(0 138.572)"><path class="i" d="M237.413,402.609H202.884l-1.928-1.929a10.613,10.613,0,0,0-7.5-3.109H107.142a10.614,10.614,0,0,0-7.5,3.109l-1.177,1.177H95.315a18.54,18.54,0,0,1-18.539-18.538v-28.47H272.659l-15.607,33.882A20.834,20.834,0,0,1,237.413,402.609Z" transform="translate(-76.776 -354.849)"/><path class="n" d="M237.413,402.609H202.884l-1.928-1.929a10.613,10.613,0,0,0-7.5-3.109H107.142a10.614,10.614,0,0,0-7.5,3.109l-1.177,1.177H95.315a18.54,18.54,0,0,1-18.539-18.538v-28.47H272.659l-15.607,33.882A20.834,20.834,0,0,1,237.413,402.609Z" transform="translate(-76.776 -354.849)"/></g><path class="m" d="M348.332,269.145a.66.66,0,0,1-.338-.088.67.67,0,0,1-.24-.918l9.4-16.119a.671.671,0,1,1,1.159.677l-9.4,16.119A.672.672,0,0,1,348.332,269.145Z" transform="translate(16.201 -251.688)"/><path class="i" d="M435.38,348.139v-18.32c0-9.627-14-55.073-33.249-63.579s-65.819-12.315-95.146-10.746S238.536,318.4,238.536,318.4l4.255,52.759c5.958,0,24.95-1.792,27.736,50.405a14.354,14.354,0,0,0,14.311,13.62h102.7a14.317,14.317,0,0,0,14.187-12.311c2.634-18.6,9.7-51.724,26.6-51.724,11.866,0,20.373,10.157,20.373,21.8h0a78.916,78.916,0,0,0-9.062-36.715Z" transform="translate(-21.255 -250.497)"/><g transform="translate(64.32 4.996)"><path class="i" d="M238.612,255.4c-53.431,0-113.951,62.907-113.951,62.907H277.62s39.128-61.341,68.449-62.907Z" transform="translate(-124.661 -255.405)"/><path class="o" d="M239.195,255.4c-45.012,0-92.2,44.636-105.966,58.71a2.469,2.469,0,0,0,1.765,4.2H258.38a31.577,31.577,0,0,0,25.471-12.864c13.263-18.078,38.833-48.934,59.525-50.043Z" transform="translate(-121.965 -255.405)"/></g><path class="i" d="M294.055,302.238l-56.508,44.587-152.041-.484s-8.728,12.687-8.728,26.567h195.88C275.867,364.4,287.117,355,298.31,355,298.31,339.177,294.055,302.238,294.055,302.238Z" transform="translate(-76.776 -234.335)"/><path class="n" d="M211.174,334.3a.672.672,0,0,1-.1-1.336,74.447,74.447,0,0,0,36.667-17.057,10.834,10.834,0,0,0,1.95-14.426.671.671,0,0,1,1.107-.759,12.173,12.173,0,0,1-2.187,16.211,75.8,75.8,0,0,1-37.335,17.357.879.879,0,0,1-.1.01Z" transform="translate(-30.876 -234.954)"/><path class="i" d="M83.276,346.341s26.709-31.118,55.589-44.1H291.824l-56.508,44.587Z" transform="translate(-74.545 -234.335)"/><rect class="m" width="100.294" height="2.911" transform="translate(26.71 112.007)"/><path class="h" d="M170.449,335.033l5.394-5.394a8.924,8.924,0,0,1,4.413-2.408l40.586-8.84a8.93,8.93,0,0,1,4.315.129l2.168.61a8.924,8.924,0,0,1,4.3,14.459l-8.728,9.971a8.924,8.924,0,0,1-5.884,3.008l-39.422,3.652a8.924,8.924,0,0,1-7.117-2.561h0a8.924,8.924,0,0,1-.023-12.627Z" transform="translate(-45.521 -228.86)"/><path class="h" d="M104.825,335.96l-4.457-8.311a7.327,7.327,0,0,0-2.694-2.82h0a7.328,7.328,0,0,0-7.169-.206l-3.371,1.765a7.327,7.327,0,0,0-3.535,4.135l-2.064,6.08a7.327,7.327,0,0,0,5.688,9.574l9.278,1.6a7.327,7.327,0,0,0,7.7-3.746l.615-1.143a7.325,7.325,0,0,0,.012-6.93Z" transform="translate(-75.277 -226.938)"/><path class="o" d="M263.711,317.7H405.12a7.685,7.685,0,0,0,7.355-9.9c-3.217-10.755-9.414-27.547-18.683-36.119a7.747,7.747,0,0,0-3.67-1.878c-16.671-3.53-43.467-5.884-63.35-7.257a62.512,62.512,0,0,0-48.894,18.588,171.553,171.553,0,0,0-20.4,24.893,7.5,7.5,0,0,0,6.23,11.678Z" transform="translate(-15.189 -248.007)"/><path class="m" d="M198.864,368.611c0,4.413-4.511,7.985-10.074,7.985s-10.074-3.575-10.074-7.985,4.511-7.984,10.074-7.984S198.864,364.2,198.864,368.611Z" transform="translate(-41.787 -214.293)"/><path class="m" d="M135.547,330.532c3.306,0,4.919,3.382,3.6,7.551s-5.063,7.551-8.369,7.551-4.919-3.381-3.6-7.551S132.241,330.532,135.547,330.532Z" transform="translate(-59.633 -224.623)"/><path class="m" d="M84.276,368.611c0,4.413-1.269,7.985-2.836,7.985s-2.836-3.575-2.836-7.985,1.269-7.984,2.836-7.984S84.276,364.2,84.276,368.611Z" transform="translate(-76.148 -214.293)"/><path class="m" d="M258.549,306.011v-4.527a8.74,8.74,0,0,1,10.524-8.556l17.22,3.59a8.74,8.74,0,0,1,6.957,8.556v.936a8.74,8.74,0,0,1-8.74,8.741h-17.22a8.74,8.74,0,0,1-8.74-8.74Z" transform="translate(-14.385 -237.594)"/><path class="m" d="M327.613,264.059s-2.3-.229-6.306-.588c17.713,36.284,13.2,53.858,13.2,53.858h13.506C348.149,295.245,327.613,264.059,327.613,264.059Z" transform="translate(7.156 -247.639)"/><path class="p" d="M236.883,300.782A11.523,11.523,0,0,1,225.415,311.2H155.807c-5.08,0-6.919-5.66-3.245-9.888a197.292,197.292,0,0,1,21.574-21.059c13.106-11.036,29.387-16.776,44.6-15.719,1.853.13,3.781.27,5.759.422a11.535,11.535,0,0,1,10.389,9.094C237.388,285.747,237.486,294.634,236.883,300.782Z" transform="translate(-51.426 -247.32)"/><path class="n" d="M332.5,408.328a.671.671,0,0,1-.672-.672c0-13.592,6.928-69.641,8.747-78.048,1.765-8.153,1.765-17.25.012-23.175a.672.672,0,1,1,1.289-.38c1.813,6.122,1.819,15.48.011,23.838-1.809,8.378-8.715,64.224-8.715,77.765a.67.67,0,0,1-.672.672Z" transform="translate(10.766 -233.19)"/><path class="n" d="M335.717,325.714H319.341a2.029,2.029,0,0,1-2.043-2.481l.337-1.9a3.1,3.1,0,0,1,2.918-2.481H336.93a2.029,2.029,0,0,1,2.043,2.481l-.337,1.9A3.1,3.1,0,0,1,335.717,325.714Z" transform="translate(5.765 -228.633)"/></g></g><g transform="translate(-214.685 264.055)"><path class="i" d="M377.274,181.874h-1.344a35.3,35.3,0,0,0-1.471-10.1l1.289-.382a36.663,36.663,0,0,1,1.526,10.478ZM371.481,164.7A35.5,35.5,0,0,0,340.5,146.453V145.11a36.845,36.845,0,0,1,32.153,18.937Z" transform="translate(-308.443 -145.11)"/><path class="i" d="M348.7,148.611a32.061,32.061,0,0,0-32.06,32.055c0,30.882,32.06,52.064,32.06,52.064s32.073-21.182,32.073-52.063A32.067,32.067,0,0,0,348.7,148.611Zm0,47.169a14.965,14.965,0,1,1,14.978-14.965A14.965,14.965,0,0,1,348.7,195.78Z" transform="translate(-316.635 -143.909)"/></g><g transform="translate(-280.899 327.903)"><g transform="translate(0 0)"><path class="q" d="M297.974,419.554l8.109-.127,2.339-18.8-8.109.128Z" transform="translate(-256.826 -121.258)"/><path class="q" d="M328.047,419.446l7.878-2.414-4.888-17.821-7.878,2.414Z" transform="translate(-248.182 -121.743)"/><path class="m" d="M334.819,411.14l-8.782,4.534a.707.707,0,0,0-.36.809l1.885,7.139a1.192,1.192,0,0,0,1.715.736c2.8-1.507,4.778-2.736,8.335-4.574,2.19-1.13,8.91-4.315,11.933-5.87,2.958-1.527,1.877-4.755.5-4.387-6.178,1.65-11.224,2.135-13.827,1.454a1.966,1.966,0,0,0-1.4.159Z" transform="translate(-247.324 -118.211)"/><path class="m" d="M306.957,413.924l-8.852.138a.706.706,0,0,0-.681.566l-1.489,7.229a1.177,1.177,0,0,0,1.189,1.424c3.192-.1,7.8-.364,11.817-.428,4.693-.073,6.055.12,11.559.033,3.327-.052,4.2-3.432,2.8-3.714-6.363-1.289-8.848-1.355-14.381-4.649a3.756,3.756,0,0,0-1.962-.6Z" transform="translate(-257.534 -116.693)"/><path class="q" d="M316.149,231.054c1.839,3.688,3.916,7.6,6,11.317,2.107,3.737,4.287,7.424,6.641,10.911.6.851,1.167,1.751,1.788,2.578l1.508,2.064a8.637,8.637,0,0,1,.537.693c.044.088.083.221.472.247.773.055,2.393-.755,3.837-1.879.737-.568,1.485-1.21,2.228-1.89.723-.669,1.471-1.476,2.111-2.118l5.3,2.987a27.462,27.462,0,0,1-1.591,3.458,23.953,23.953,0,0,1-2.059,3.244,19.515,19.515,0,0,1-2.826,3.066,13.108,13.108,0,0,1-4.257,2.542,10.6,10.6,0,0,1-6.128.334,12.18,12.18,0,0,1-5.133-2.746,12.474,12.474,0,0,1-.918-.871l-.436-.443-.309-.349-1.177-1.351c-.8-.9-1.516-1.827-2.271-2.746a117.9,117.9,0,0,1-7.926-11.548c-1.184-1.991-2.354-3.985-3.421-6.037-1.087-2.07-2.124-4.048-3.123-6.3Z" transform="translate(-254.414 -179.459)"/><g transform="translate(46.982 45.289)"><g transform="translate(0 0)"><path class="i" d="M302.531,232.716c-2.192,7.435,13.2,27.712,13.2,27.712l15.516-9.983A98.948,98.948,0,0,0,320.5,232.212C314.139,224.11,304.929,224.554,302.531,232.716Z" transform="translate(-302.317 -226.36)"/></g><g class="r" transform="translate(0 0)"><path d="M302.531,232.716c-2.192,7.435,13.2,27.712,13.2,27.712l15.516-9.983A98.948,98.948,0,0,0,320.5,232.212C314.139,224.11,304.929,224.554,302.531,232.716Z" transform="translate(-302.317 -226.36)"/></g></g><path class="n" d="M311.089,237.629c3.191,1.363,7.887,9.049,10.332,14.746l-6.586,4.231a123.888,123.888,0,0,1-9.9-15.513C307.019,238.812,309.4,236.911,311.089,237.629Z" transform="translate(-254.436 -177.256)"/><path class="q" d="M331.322,250.784l5.616-9.082,4.893,7.825a9.617,9.617,0,0,1-5.406,4.413Z" transform="translate(-245.38 -175.805)"/><path class="q" d="M343.328,242.3l-.021,2.809a3.837,3.837,0,0,1-.861,2.4l-2.05,2.52-4.893-7.825,5.06-1.849a2.059,2.059,0,0,1,2.764,1.947Z" transform="translate(-243.945 -176.31)"/><path class="i" d="M339.513,255.125l-8.839-.135,4.89-18.308,8.839.135Z" transform="translate(-245.602 -177.528)"/><path class="m" d="M340.179,255.125l-8.839-.135,4.89-18.308,8.839.135Z" transform="translate(-245.374 -177.528)"/><path class="n" d="M308.131,400.626l-1.2,9.693-8.113.127,1.2-9.694Z" transform="translate(-256.537 -121.256)"/><path class="n" d="M323.159,401.628l7.881-2.415,2.515,9.187-7.881,2.415Z" transform="translate(-248.182 -121.742)"/><g transform="translate(12.726 44.082)"><g transform="translate(0 0)"><path class="i" d="M277.005,236.959c6.616,28.509,5.176,56.773,5.9,62.873,6.342-.461,30.225-2.242,43.246-3.213,4.146-46.33-5.681-69.849-5.681-69.849s-2.78-.54-6.561-.929c-1.187-.121-2.465-.228-3.8-.294-.734-.044-1.483-.067-2.241-.083a160.81,160.81,0,0,0-18.385,1.373c-1.151.144-2.325.317-3.461.5-1.053.18-2.086.371-3.059.566l-.131.025a7.5,7.5,0,0,0-5.833,9.029Z" transform="translate(-276.816 -225.464)"/></g><g class="r" transform="translate(0 0)"><path d="M277.005,236.959c6.616,28.509,5.176,56.773,5.9,62.873,6.342-.461,30.225-2.242,43.246-3.213,4.146-46.33-5.681-69.849-5.681-69.849s-2.78-.54-6.561-.929c-1.187-.121-2.465-.228-3.8-.294-.734-.044-1.483-.067-2.241-.083a160.81,160.81,0,0,0-18.385,1.373c-1.151.144-2.325.317-3.461.5-1.053.18-2.086.371-3.059.566l-.131.025a7.5,7.5,0,0,0-5.833,9.029Z" transform="translate(-276.816 -225.464)"/></g></g><path class="n" d="M283.714,238.481l-4.961,6.383a1.26,1.26,0,0,1,.028.233c.686,4.326,1.229,8.567,1.631,12.642C285.15,251.869,284.446,241.271,283.714,238.481Z" transform="translate(-263.423 -176.91)"/><path class="q" d="M288.4,217.585c1.035,4.356.973,9.192-2.15,12.65,3.452,2.955,7.929,6.335,14.97,6.058s5.455-5.014,3.411-7.425c-6.016-.973-6.026-4.879-6.073-9.17a2.078,2.078,0,0,0-1.444-1.955l-6.6-2.119a1.652,1.652,0,0,0-2.11,1.961Z" transform="translate(-260.85 -184.785)"/><path class="i" d="M304.013,256.785c-3.621,0-6.968-4.352-7.624-9.915-.4-3.432.342-6.591,2-8.457a4.552,4.552,0,0,1,3.437-1.645h.011c3.622,0,6.97,4.352,7.625,9.914.4,3.432-.342,6.594-2,8.457a4.542,4.542,0,0,1-3.437,1.646Zm-2.179-18.673h-.008a3.2,3.2,0,0,0-2.435,1.192c-1.384,1.559-2.021,4.4-1.667,7.408.559,4.734,3.437,8.728,6.29,8.728h.008a3.2,3.2,0,0,0,2.435-1.192c1.385-1.559,2.023-4.4,1.667-7.408h0C307.569,242.106,304.689,238.111,301.834,238.111Z" transform="translate(-257.406 -177.498)"/><path class="n" d="M297.114,218.814l-6.645.857c.152.294.331.581.511.856,1.257,2.017,4.062,3.345,6.909,3.825A14.067,14.067,0,0,1,297.114,218.814Z" transform="translate(-259.402 -183.661)"/><path class="m" d="M301.836,208.291c3.7.625,10.608-3.578,8.994-9.162-2.071,2.59-8.994,1.726-8.994,1.726Z" transform="translate(-255.5 -190.417)"/><path class="m" d="M293.57,210.516c.4,3.726-4.2,10.375-9.681,8.434,2.71-1.915,2.255-8.876,2.255-8.876Z" transform="translate(-261.66 -186.66)"/><path class="q" d="M287.311,207.479c-.992,7.984-1.98,12.607,1.249,17.4,4.856,7.218,15.276,5.425,18.632-2.1,3.022-6.775,4.137-18.694-3-23.281a10.973,10.973,0,0,0-16.881,7.977Z" transform="translate(-260.815 -190.907)"/><path class="m" d="M288.186,217.243c1.949,2.053,7.306-6.332,6.328-9.326,2.015.875,5.884-.806,5.642-4.144,6.034,3.223,14.768,5.78,14.906-.058s-5.374-10.132-10.775-10.591c.643,1.727-1.061,2.475-4.562,1.727S282.7,187.9,284.2,200.32C279.178,200.652,278.509,207.055,288.186,217.243Z" transform="translate(-262.786 -192.644)"/><path class="q" d="M283.317,209.756a7.649,7.649,0,0,0,2.961,5.035c2.157,1.6,3.488-.1,3.692-2.629.184-2.279-.018-5.856-2.562-6.459C284.9,205.11,283,207.3,283.317,209.756Z" transform="translate(-261.868 -188.195)"/><path class="m" d="M292.379,280.55l28.428-2.114s3.673,58.337,3.4,83.076c-.284,25.725-12.053,88.827-12.053,88.827l-13.729.21s1.079-61.2,1.079-86.464c0-34.028-7.128-83.534-7.128-83.534" transform="translate(-258.746 -163.197)"/><path class="n" d="M300.559,325.149c.374,1.686,10.943,48.98,14.355,76.6,1.824-11.482,3.69-24.358,4.947-35.729Z" transform="translate(-255.938 -147.163)"/><path class="m" d="M309.249,279.285s21.629,53.011,26.513,76.257c5.348,25.456,13.895,89.836,13.895,89.836l-14.667,2.3s-11.12-48.129-17.331-72.72c-7.073-28.01-35.085-72.385-36.307-93.59Z" transform="translate(-262.531 -162.905)"/><path class="i" d="M338.83,405.443l-18.24,4.27-2.3-7.018,19.907-3.417Z" transform="translate(-249.852 -121.719)"/><path class="i" d="M312.587,408.06l-16.356.256-.082-5.285,18.279-.565Z" transform="translate(-257.453 -120.625)"/><path class="m" d="M295.353,208.344c-.121.642.123,1.228.542,1.305s.858-.379.981-1.021-.124-1.228-.542-1.307S295.473,207.7,295.353,208.344Z" transform="translate(-257.736 -187.608)"/><path class="m" d="M301.278,209.6c-.121.643.123,1.228.542,1.305s.858-.379.981-1.021-.123-1.228-.542-1.305S301.4,208.957,301.278,209.6Z" transform="translate(-255.703 -187.177)"/><path class="s" d="M299.607,209.22a23.455,23.455,0,0,0,2.042,6.073,3.772,3.772,0,0,1-3.178,0Z" transform="translate(-256.655 -186.954)"/><path class="m" d="M298.353,215.913a5.393,5.393,0,0,1-3.488-2.464.2.2,0,0,1,.34-.18,5.189,5.189,0,0,0,4.026,2.394.192.192,0,0,1-.034.383A6.279,6.279,0,0,1,298.353,215.913Z" transform="translate(-257.901 -185.6)"/><path class="m" d="M294.823,206.366a.377.377,0,0,1-.163-.106.383.383,0,0,1,.026-.542,3.807,3.807,0,0,1,3.364-.981.383.383,0,0,1-.191.742h0a3.049,3.049,0,0,0-2.657.807.38.38,0,0,1-.379.079Z" transform="translate(-257.997 -188.517)"/><path class="m" d="M305.054,208.645a.381.381,0,0,1-.25-.263A3.046,3.046,0,0,0,303,206.276a.384.384,0,0,1,.236-.731,3.815,3.815,0,0,1,2.314,2.633.383.383,0,0,1-.269.472.378.378,0,0,1-.223-.006Z" transform="translate(-255.194 -188.221)"/><g transform="translate(50.104 289.522)"><path class="i" d="M335.316,411.381a9.513,9.513,0,0,1-2.019.713.191.191,0,0,1-.207-.283c.177-.3,1.765-2.927,2.774-2.928a.612.612,0,0,1,.541.331,1.155,1.155,0,0,1,.112,1.079,2.451,2.451,0,0,1-1.2,1.089Zm-1.648.219c1.35-.385,2.267-.916,2.492-1.45a.785.785,0,0,0-.088-.738c-.077-.128-.153-.144-.211-.144-.524,0-1.53,1.3-2.193,2.333Z" transform="translate(-294.888 -407.946)"/><path class="i" d="M333.489,412.318a.2.2,0,0,1-.266-.1c-.037-.091-.938-2.255-.455-3.375a1.051,1.051,0,0,1,.614-.593h0a.625.625,0,0,1,.773.167c.567.726-.059,3.047-.6,3.836a.2.2,0,0,1-.07.064Zm-.054-3.671a.686.686,0,0,0-.315.352,4.616,4.616,0,0,0,.315,2.7c.45-.945.753-2.611.418-3.04-.03-.039-.1-.13-.337-.043h0a.729.729,0,0,0-.08.032Z" transform="translate(-295.037 -408.183)"/><path class="i" d="M304.775,415.214a.2.2,0,0,1-.031-.352c.366-.2,3.6-1.9,4.591-1.366a.611.611,0,0,1,.326.506h0a1.073,1.073,0,0,1-.345.938c-.877.8-3.2.519-4.511.28Zm4.309-1.409c-.615-.2-2.371.5-3.647,1.133,1.795.269,3.127.171,3.619-.279a.7.7,0,0,0,.222-.621.227.227,0,0,0-.124-.2.405.405,0,0,0-.07-.029Z" transform="translate(-304.641 -406.397)"/><path class="i" d="M304.774,415.692a.252.252,0,0,1-.05-.026.2.2,0,0,1-.082-.172c.008-.093.2-2.279,1.21-3.143a1.4,1.4,0,0,1,1.058-.345h0c.53.046.686.31.724.526.163.915-1.748,2.7-2.72,3.151a.19.19,0,0,1-.139.009Zm2.3-3.267a.882.882,0,0,0-.2-.036h0a1.02,1.02,0,0,0-.778.255,4.5,4.5,0,0,0-1.032,2.517c.989-.617,2.285-2.015,2.188-2.562-.011-.034-.023-.122-.182-.174Zm-.181-.229Z" transform="translate(-304.642 -406.875)"/></g><g transform="translate(0 46.519)"><path class="q" d="M293.226,237.485c-2.678,4.771-5.37,9.86-7.785,14.869a114.764,114.764,0,0,0-6.255,15.16c-.2.628-.349,1.242-.53,1.863-.076.282-.2.686-.237.869-.023.16-.087.3-.108.477a7.669,7.669,0,0,0,.078,2.535,23.236,23.236,0,0,0,2.618,6.542,81.415,81.415,0,0,0,9.693,13.148l-3.89,4.682a58.778,58.778,0,0,1-13.677-12.567,29.994,29.994,0,0,1-4.935-9.076,17.508,17.508,0,0,1-.842-6.08c.016-.551.1-1.123.17-1.683.077-.531.156-.83.233-1.256.161-.785.3-1.6.49-2.371a101.167,101.167,0,0,1,6.1-17.379,149.445,149.445,0,0,1,8.327-16.016Z" transform="translate(-267.342 -225.93)"/><g transform="translate(2.625 0)"><path class="i" d="M284.114,227.838c-7.475,2.047-14.818,23.069-14.818,23.069l18,4.992s3.968-5.021,7.492-14.4C298.629,231.287,293.17,225.358,284.114,227.838Z" transform="translate(-269.295 -227.275)"/><g class="r"><path d="M284.114,227.838c-7.475,2.047-14.818,23.069-14.818,23.069l18,4.992s3.968-5.021,7.492-14.4C298.629,231.287,293.17,225.358,284.114,227.838Z" transform="translate(-269.295 -227.275)"/></g></g><path class="q" d="M282.769,276.139l8.214,2.162-3.262,7.729s-7.378-1.569-7.327-5.59Z" transform="translate(-262.86 -210.504)"/><path class="q" d="M292.267,283l-2.425,6.105-3.993-3.622,3.262-7.728Z" transform="translate(-260.987 -209.952)"/></g></g></g></g></svg>