<svg xmlns="http://www.w3.org/2000/svg" id="prefix__parking" width="22.209" height="22.209" viewBox="0 0 22.209 22.209">
    <defs>
        <style>
            .prefix__cls-1{fill:#444f5e}
        </style>
    </defs>
    <g id="prefix__Group_72" data-name="Group 72">
        <g id="prefix__Group_71" data-name="Group 71">
            <path id="prefix__Path_299" d="M19.047 0H3.162A3.166 3.166 0 0 0 0 3.162v15.885a3.166 3.166 0 0 0 3.162 3.162h15.885a3.166 3.166 0 0 0 3.162-3.162V3.162A3.166 3.166 0 0 0 19.047 0zm2.277 19.047a2.28 2.28 0 0 1-2.277 2.277H3.162a2.28 2.28 0 0 1-2.277-2.277V3.162A2.28 2.28 0 0 1 3.162.885h15.885a2.28 2.28 0 0 1 2.277 2.277v15.885z" class="prefix__cls-1" data-name="Path 299"/>
        </g>
    </g>
    <g id="prefix__Group_74" data-name="Group 74" transform="translate(7.326 4.021)">
        <g id="prefix__Group_73" data-name="Group 73">
            <path id="prefix__Path_300" d="M173.073 92.7h-3.622c-.334.022-.551.217-.551.473v13.4c0 .334.317.512.651.512.317 0 .651-.178.651-.512v-5.314h2.833c2.3 0 4.095-1.141 4.095-4.19v-.2c-.006-3.05-1.776-4.169-4.057-4.169zm2.754 4.424c0 2.047-1.041 3.01-2.793 3.01H170.2V93.9h2.833c1.752 0 2.793.946 2.793 2.993z" class="prefix__cls-1" data-name="Path 300" transform="translate(-168.9 -92.7)"/>
        </g>
    </g>
    <g id="prefix__Group_76" data-name="Group 76" transform="translate(1.505 13.36)">
        <g id="prefix__Group_75" data-name="Group 75">
            <path id="prefix__Path_301" d="M35.142 308a.444.444 0 0 0-.442.442v.178a.442.442 0 0 0 .885 0v-.178a.444.444 0 0 0-.443-.442z" class="prefix__cls-1" data-name="Path 301" transform="translate(-34.7 -308)"/>
        </g>
    </g>
    <g id="prefix__Group_78" data-name="Group 78" transform="translate(1.505 15.13)">
        <g id="prefix__Group_77" data-name="Group 77">
            <path id="prefix__Path_302" d="M35.142 348.8a.444.444 0 0 0-.442.442v3.583a.442.442 0 0 0 .885 0v-3.583a.444.444 0 0 0-.443-.442z" class="prefix__cls-1" data-name="Path 302" transform="translate(-34.7 -348.8)"/>
        </g>
    </g>
</svg>
