<svg xmlns="http://www.w3.org/2000/svg" width="27.663" height="27.663" viewBox="0 0 27.663 27.663">
    <defs>
        <style>
            .prefix__cls-1{fill:#444f5e}
        </style>
    </defs>
    <g id="prefix__washbasin" transform="translate(-8 -8)">
        <path id="prefix__Path_259" d="M37.84 57.847h.468a.447.447 0 0 0 .446-.446v-.446h2.231a.447.447 0 0 0 .446-.446V40.446a.447.447 0 0 0-.445-.446h-23.2a.447.447 0 0 0-.446.446v16.063a.447.447 0 0 0 .446.446h2.231v.445a.447.447 0 0 0 .446.446h.468a8.479 8.479 0 0 0 4.69 7.139H16v.892h26.771v-.892H33.15a8.49 8.49 0 0 0 4.69-7.139zm.022-.892H20.908v-.892h16.955zm-8.031-3.569v1.784h-.892v-1.785zm6.247 0v1.784h-.892v-1.785zm-16.062 2.23v.446h-1.785v-15.17H40.54v15.17h-1.785v-.446a.447.447 0 0 0-.446-.446H36.97v-2.231a.447.447 0 0 0-.446-.446h-.446V51.6h1.339v-.892h-1.785a.447.447 0 0 0-.446.446v1.339h-.446a.447.447 0 0 0-.446.446v2.231h-3.57v-1.785h.892v-.892h-4.462v.892h.892v1.785h-7.584a.447.447 0 0 0-.446.446zm1.807 2.231h15.125a7.575 7.575 0 0 1-15.125 0z" class="prefix__cls-1" data-name="Path 259" transform="translate(-7.554 -30.215)"/>
        <path id="prefix__Path_260" d="M35.217 8H8.446A.447.447 0 0 0 8 8.446v19.632a.447.447 0 0 0 .446.446h3.123v-.892H8.892V8.892h25.879v18.74h-2.677v.892h3.123a.447.447 0 0 0 .446-.446V8.446A.447.447 0 0 0 35.217 8z" class="prefix__cls-1" data-name="Path 260"/>
        <path id="prefix__Path_261" d="M130.3 150.762l4.462-4.462.63.63-4.462 4.462z" class="prefix__cls-1" data-name="Path 261" transform="translate(-115.479 -130.587)"/>
        <path id="prefix__Path_262" d="M210.3 150.762l4.462-4.462.63.63-4.462 4.462z" class="prefix__cls-1" data-name="Path 262" transform="translate(-191.017 -130.587)"/>
        <path id="prefix__Path_263" d="M290.3 150.862l4.462-4.462.63.63-4.462 4.462z" class="prefix__cls-1" data-name="Path 263" transform="translate(-266.555 -130.681)"/>
    </g>
</svg>
