<svg xmlns="http://www.w3.org/2000/svg" width="36.169" height="23.36" viewBox="0 0 36.169 23.36">
    <g id="prefix__bicycle" transform="translate(0 -90.658)">
        <g id="prefix__Group_79" data-name="Group 79" transform="translate(0 90.658)">
            <path id="prefix__Path_303" d="M28.635 98.947a7.517 7.517 0 0 0-1.989.267l-1.941-5.047.7-.722a.755.755 0 0 0-.008-1.059L23.89 90.88a.755.755 0 0 0-.533-.221h-3.765a.754.754 0 1 0 0 1.507h3.455l.762.761-.521.534a.756.756 0 0 0-.164.79v.006l.693 1.8-10.254 1.283v-1.407h2.261a.754.754 0 1 0 0-1.507H11.3a.754.754 0 0 0 0 1.507h.754v2.056L11 99.794a7.535 7.535 0 1 0 3.915 8.2h1.034a2.26 2.26 0 1 0 3.917-2.137l4.834-7.513.542 1.412a7.533 7.533 0 1 0 3.4-.809zM7.536 112.51a6.028 6.028 0 1 1 2.708-11.41l-3.359 5.759a.752.752 0 0 0 .651 1.133h5.838a6.038 6.038 0 0 1-5.838 4.518zm1.312-6.029l2.649-4.54a6.016 6.016 0 0 1 2.067 4.54zm7.106 0h-.883a7.524 7.524 0 0 0-2.8-5.86l.544-.933 3.55 6.086a2.287 2.287 0 0 0-.411.707zm2.131 1.508a.754.754 0 1 1 .753-.753.755.755 0 0 1-.753.753zm.518-2.954a2.3 2.3 0 0 0-.518-.06 2.218 2.218 0 0 0-.423.04L14.036 98.8l9.324-1.166zm10.031 7.475a6.027 6.027 0 0 1-2.85-11.339l2.147 5.581a.757.757 0 0 0 .7.483.781.781 0 0 0 .27-.051.755.755 0 0 0 .434-.973l-2.149-5.583a6.028 6.028 0 1 1 1.445 11.881z" data-name="Path 303" transform="translate(0 -90.658)" style="fill:#444f5e"/>
        </g>
    </g>
</svg>
