<svg xmlns="http://www.w3.org/2000/svg" width="28.856" height="28.845" viewBox="0 0 28.856 28.845">
    <defs>
        <style>
            .prefix__cls-1{fill:#444f5e}
        </style>
    </defs>
    <g id="prefix__room-service" transform="translate(1 1)">
        <g id="prefix__Group_32" data-name="Group 32" transform="translate(-1 -1)">
            <g id="prefix__Group_31" data-name="Group 31">
                <path id="prefix__Path_265" d="M195.484 57.8a6.7 6.7 0 0 0-6.392 4.662.48.48 0 0 0 .286.624h.143a.474.474 0 0 0 .481-.338 5.724 5.724 0 0 1 5.481-3.992.478.478 0 1 0 0-.957z" class="prefix__cls-1" data-name="Path 265" transform="translate(-178.175 -54.432)"/>
                <path id="prefix__Path_266" d="M27.364 22.558a.457.457 0 0 0 .481-.481V11.022a.457.457 0 0 0-.481-.481H26.4v-6.26a2.443 2.443 0 0 0-.241-1.094 1.67 1.67 0 0 1-.241-.865v-2.36a.964.964 0 0 0-.96-.962h-1.925a.968.968 0 0 0-.962.962v2.354a1.539 1.539 0 0 1-.029.326A8.524 8.524 0 0 0 16.785.455v-.974A.457.457 0 0 0 16.3-1a.457.457 0 0 0-.481.481v.974a8.682 8.682 0 0 0-8.151 8.11h-.013a.51.51 0 0 0-.435.241.566.566 0 0 0 0 .481l.624 1.249H6.732L5.249 5.587a.575.575 0 0 0-.481-.338H2.19a1.925 1.925 0 1 0 0 2.887h.8l.819 3.03v10.911a.457.457 0 0 0 .481.481h1.446v.974a2.153 2.153 0 1 0 2.045.945h16.106a2.169 2.169 0 1 0 2.045-.945v-.974zM25.25 3.565a1.294 1.294 0 0 1 .109.241h-2.7a.746.746 0 0 1 .046-.1l.017-.092c.011-.017.017-.04.029-.057a3.093 3.093 0 0 0 .286-1.249v-.433h1.925v.435a2.911 2.911 0 0 0 .288 1.255zm.189 1.2v.965h-2.887v-.962zm-2.709 5.771a.367.367 0 0 0-.172-.046V6.7h2.887v3.843l-2.715-.006zm.309-10.574h1.925v.963h-1.925zm-6.73 1.443a7.554 7.554 0 0 1 5.384 2.211 2.833 2.833 0 0 0-.092.613c0 .017-.006.04-.006.063v4.273H8.617a7.725 7.725 0 0 1 7.692-7.159zM8.422 9.579H21.6v.962H8.9zm-8.46-2.887a.968.968 0 0 1 .963-.962.949.949 0 0 1 .67.27c.017.023.034.04.052.063a.9.9 0 0 1 .223.47v.011a.257.257 0 0 1 .006.063c0 .029.006.052.006.08a.378.378 0 0 1-.006.08c0 .023-.006.046-.006.063v.011a.994.994 0 0 1-.223.47c-.017.023-.034.04-.052.063a.974.974 0 0 1-.67.275.964.964 0 0 1-.963-.957zm3.414.481H2.8a1.715 1.715 0 0 0 .046-.481 1.715 1.715 0 0 0-.046-.481h1.63l1.3 4.324H4.67l-.819-3.03a.512.512 0 0 0-.475-.332zM4.768 11.5h22.114v10.1h-2.405v-.481a.481.481 0 0 0-.962 0v.481h-.962v-2.891a.481.481 0 0 0-.962 0V21.6h-.962v-.962a.481.481 0 1 0-.962 0v.962H12.46v-1.448a.481.481 0 1 0-.962 0V21.6h-.962v-.962a.481.481 0 0 0-.962 0v.962h-.963v-2.891a.481.481 0 0 0-.962 0V21.6h-.962v-.481a.481.481 0 0 0-.962 0v.481h-.957zm1.2 15.385a1.2 1.2 0 1 1 1.2-1.2 1.188 1.188 0 0 1-1.197 1.197zm20.912-1.2a1.2 1.2 0 1 1-1.2-1.2 1.188 1.188 0 0 1 1.202 1.195zm-1.922-2.165H6.687v-.962h18.271v.962z" class="prefix__cls-1" data-name="Path 266" transform="translate(1 1)"/>
            </g>
        </g>
    </g>
</svg>
