<svg xmlns="http://www.w3.org/2000/svg" width="30" height="30" viewBox="0 0 30 30">
    <defs>
        <style>
            .prefix__cls-1{fill:#444f5e}
        </style>
    </defs>
    <g id="prefix__vacuum-cleaner" transform="translate(-8 -8)">
        <path id="prefix__Path_267" d="M37.516 8H26.871a.485.485 0 0 0-.484.484v1.935a.485.485 0 0 0 .484.484h.768l1.8 1.8a.48.48 0 0 0 .345.139h.968v21.771a.484.484 0 0 1-.968 0v-.968a5.33 5.33 0 0 0-5.323-5.323h-1.939v-4.838h.484A.485.485 0 0 0 23.49 23v-1.935a.485.485 0 0 0-.484-.484H22.5a6.3 6.3 0 0 0-6.266-5.806h-.968A6.3 6.3 0 0 0 9 20.581h-.516a.485.485 0 0 0-.484.484V23a.485.485 0 0 0 .484.484h.484v8.71h-.484a.485.485 0 0 0-.484.483v1.935a.485.485 0 0 0 .484.484h.75a1.873 1.873 0 0 0-.266.968 1.936 1.936 0 1 0 3.6-.968h6.345a1.873 1.873 0 0 0-.266.968 1.936 1.936 0 1 0 3.6-.968H23a.485.485 0 0 0 .484-.484v-1.935a.485.485 0 0 0-.484-.483h-.484v-.968h1.935a2.419 2.419 0 0 1 2.419 2.419v.968a3.387 3.387 0 0 0 6.774 0V12.839h.968a.49.49 0 0 0 .345-.139l1.79-1.8h.768a.485.485 0 0 0 .485-.481V8.484A.485.485 0 0 0 37.516 8zM20.962 18.645h-4.736v-2.9a5.314 5.314 0 0 1 4.736 2.9zm-5.7-2.9v3.387a.485.485 0 0 0 .484.484h5.607a5.158 5.158 0 0 1 .181.968H9.96a5.326 5.326 0 0 1 5.298-4.842zm-6.29 5.806h13.544v.968H8.968zm2.9 14.516a.968.968 0 1 1-.972-.967.971.971 0 0 1 .971.965zm9.677 0a.968.968 0 1 1-.968-.968.971.971 0 0 1 .967.966zm.968-1.935H8.968v-.968h13.548zM9.935 32.194v-8.71h11.613v8.71zm12.581-2.9h.968v.968h-.968zm7.742 7.742a2.419 2.419 0 0 1-2.419-2.419v-.968a3.389 3.389 0 0 0-3.387-3.387v-.972a4.36 4.36 0 0 1 4.355 4.355v.968a1.452 1.452 0 0 0 2.9 0V14.774h.968v19.839a2.419 2.419 0 0 1-2.417 2.419zm2.419-23.226h-.967v-.968h.968zm1.736-1.935h-4.44l-.968-.968h6.375zm2.619-1.935h-9.677v-.972h9.677z" class="prefix__cls-1" data-name="Path 267"/>
        <path id="prefix__Path_268" d="M79.258 280h-6.774a.485.485 0 0 0-.484.484v3.871a.485.485 0 0 0 .484.484h6.774a.485.485 0 0 0 .484-.484v-3.871a.485.485 0 0 0-.484-.484zm-.484 3.871h-5.806v-2.9h5.806z" class="prefix__cls-1" data-name="Path 268" transform="translate(-60.129 -255.548)"/>
        <path id="prefix__Path_269" d="M104 312h3.871v.968H104z" class="prefix__cls-1" data-name="Path 269" transform="translate(-90.194 -285.613)"/>
    </g>
</svg>
