<svg xmlns="http://www.w3.org/2000/svg" width="33.472" height="33.891" viewBox="0 0 33.472 33.891">
    <path id="prefix__XMLID_1442_" d="M7.771 26.636a.659.659 0 0 1-.6.415.584.584 0 0 1-.238-.051c-2.491-.985-4-2.254-4.371-3.671A.652.652 0 1 1 3.824 23c.252.977 1.53 1.97 3.589 2.784a.667.667 0 0 1 .358.852zm2.214-6.82a.633.633 0 0 0 .423.155.663.663 0 0 0 .5-.228.648.648 0 0 0-.073-.92c-.326-.277-.643-.57-.936-.871-2.865-2.865-4.362-6.495-3.907-9.4a8.387 8.387 0 0 1 3.939.423.729.729 0 0 0 .187.065 14.389 14.389 0 0 1 5.266 3.418 15.135 15.135 0 0 1 1.139 1.27.648.648 0 0 0 1.009-.814 17.8 17.8 0 0 0-1.237-1.375 15.719 15.719 0 0 0-5.453-3.606 6.393 6.393 0 0 1 .578-3.1 6.734 6.734 0 0 1 3.19 1.88 16.429 16.429 0 0 0-.334 1.717.649.649 0 0 0 1.286.179C16 5.418 17.383 2.74 19.3 1.341c1.913 1.4 3.3 4.078 3.736 7.268a.649.649 0 1 0 1.286-.179 16.428 16.428 0 0 0-.334-1.717 6.734 6.734 0 0 1 3.19-1.88 6.489 6.489 0 0 1 .578 3.1 15.719 15.719 0 0 0-5.456 3.606 16.41 16.41 0 0 0-1.237 1.375.648.648 0 1 0 1.009.814 15.284 15.284 0 0 1 1.139-1.27 14.351 14.351 0 0 1 5.265-3.418.514.514 0 0 0 .187-.065 8.493 8.493 0 0 1 3.937-.423c.456 2.9-1.042 6.536-3.907 9.4-.3.3-.619.594-.936.863a.652.652 0 0 0 .846.993c.35-.3.692-.61 1.017-.936 3.3-3.3 4.948-7.634 4.175-11.02a.65.65 0 0 0-.488-.488 9.041 9.041 0 0 0-4.257.147 7.249 7.249 0 0 0-.985-3.744.656.656 0 0 0-.627-.3 7.38 7.38 0 0 0-3.874 1.856A10.241 10.241 0 0 0 19.638 0a.661.661 0 0 0-.692 0 10.241 10.241 0 0 0-3.931 5.323 7.319 7.319 0 0 0-3.874-1.856.664.664 0 0 0-.627.3 7.175 7.175 0 0 0-.993 3.743 9.044 9.044 0 0 0-4.257-.147.65.65 0 0 0-.488.488c-.773 3.386.871 7.716 4.175 11.02.342.335.684.644 1.034.945zm-.309 5.095a.647.647 0 0 0-.4-.83c-1.961-.684-3.133-1.555-3.133-2.32 0-.5.513-1.058 1.441-1.579a.652.652 0 0 0-.635-1.139c-1.392.781-2.1 1.7-2.1 2.71 0 1.408 1.384 2.637 4.012 3.549a.693.693 0 0 0 .212.041.651.651 0 0 0 .603-.432zm19.533-.789a.648.648 0 0 0 .212 1.262.638.638 0 0 0 .212-.033c2.718-.92 4.151-2.165 4.151-3.6 0-.977-.659-1.864-1.961-2.629a.653.653 0 0 0-.667 1.123c.846.5 1.319 1.034 1.319 1.506.006.783-1.248 1.687-3.266 2.37zm-3.443 4.761a1.2 1.2 0 0 1-1.2 1.2.651.651 0 1 0 0 1.3 2.5 2.5 0 0 0 2.5-2.5.651.651 0 0 0-1.3 0zm9.767-6.348a.655.655 0 0 0-.8.464c-.252.977-1.53 1.97-3.589 2.784a.654.654 0 0 0 .236 1.262.584.584 0 0 0 .236-.049c2.491-.985 4-2.254 4.371-3.671a.635.635 0 0 0-.454-.791zm-11.565.285a.639.639 0 0 1-.643.643.651.651 0 1 0 0 1.3 1.945 1.945 0 0 0 1.945-1.945.651.651 0 0 0-1.3 0zM22.1 18.66h.171a.651.651 0 1 0 0-1.3H22.1a.651.651 0 1 0 0 1.3zm6.723 7.463A4.84 4.84 0 0 1 24.9 33.79H13.721a4.842 4.842 0 0 1-2.336-9.083 3.912 3.912 0 0 1 2.287-5.274 3.012 3.012 0 0 1 2.482-4.733h6.316a3.02 3.02 0 0 1 0 6.039h-6.316a3.007 3.007 0 0 1-1.148-.228h-.049a2.616 2.616 0 0 0-2.613 2.613 2.57 2.57 0 0 0 .448 1.457.336.336 0 0 1 .057.09 2.6 2.6 0 0 0 2.108 1.066h8.7a2.613 2.613 0 0 0 1.668-4.623.653.653 0 1 1 .838-1 3.913 3.913 0 0 1-2.5 6.926h-8.705A3.881 3.881 0 0 1 12.1 25.8a3.541 3.541 0 0 0 1.62 6.69H24.9a3.543 3.543 0 0 0 3.54-3.54 3.476 3.476 0 0 0-.667-2.059.652.652 0 0 1 .146-.912.642.642 0 0 1 .907.145zm-14.39-8.4a1.723 1.723 0 0 0 1.717 1.717h6.32a1.717 1.717 0 0 0 0-3.435h-6.316a1.723 1.723 0 0 0-1.717 1.719z" transform="translate(-2.541 .1)" style="fill:#444f5e"/>
</svg>
