<svg xmlns="http://www.w3.org/2000/svg" width="30.046" height="30.046" viewBox="0 0 30.046 30.046">
    <defs>
        <style>
            .prefix__cls-1{fill:#919be5}
        </style>
    </defs>
    <g id="prefix__food-and-restaurant">
        <g id="prefix__Group_132" data-name="Group 132" transform="translate(11.504 7.277)">
            <path id="prefix__Path_1101" d="M39.977 40.419l.039-.018a6.614 6.614 0 0 0 3.03-5.561v-3.932a1.408 1.408 0 0 0-1.408-1.408H27.32a1.408 1.408 0 0 0-1.408 1.408v8.157a3.8 3.8 0 0 0 1.314 2.875h-2.254a.469.469 0 0 0-.329.8l2.837 2.817a.469.469 0 0 0 .331.137h10.52a.469.469 0 0 0 .329-.137l2.84-2.814a.469.469 0 0 0-.329-.8h-2.256a3.827 3.827 0 0 0 1.062-1.524zm.253-9.98h1.408a.469.469 0 0 1 .469.469v3.932a5.658 5.658 0 0 1-1.878 4.205zm-.2 12.441l-1.891 1.878H28l-1.888-1.878z" class="prefix__cls-1" data-name="Path 1101" transform="translate(-24.505 -22.927)"/>
            <path id="prefix__Path_1102" d="M29.969 20.195a.469.469 0 0 0 .469-.469 1.991 1.991 0 0 1 .8-1.546 2.907 2.907 0 0 0 1.076-2.21.469.469 0 1 0-.939 0 1.991 1.991 0 0 1-.8 1.546 2.907 2.907 0 0 0-1.076 2.21.469.469 0 0 0 .469.469z" class="prefix__cls-1" data-name="Path 1102" transform="translate(-27.155 -15.5)"/>
            <path id="prefix__Path_1103" d="M40.969 20.195a.469.469 0 0 0 .469-.469 1.991 1.991 0 0 1 .8-1.546 2.907 2.907 0 0 0 1.076-2.21.469.469 0 1 0-.939 0 1.991 1.991 0 0 1-.8 1.546 2.907 2.907 0 0 0-1.076 2.21.469.469 0 0 0 .47.469z" class="prefix__cls-1" data-name="Path 1103" transform="translate(-32.991 -15.5)"/>
            <path id="prefix__Path_1104" d="M52.469 20.195a.469.469 0 0 0 .469-.469 1.991 1.991 0 0 1 .8-1.546 2.907 2.907 0 0 0 1.076-2.21.469.469 0 0 0-.939 0 1.991 1.991 0 0 1-.8 1.546A2.907 2.907 0 0 0 52 19.725a.469.469 0 0 0 .469.469z" class="prefix__cls-1" data-name="Path 1104" transform="translate(-39.092 -15.5)"/>
        </g>
        <path id="prefix__Path_1105" d="M21.361 5.634h-1.409V4.225a1.408 1.408 0 0 0-1.408-1.408h-1.936V1.408A1.408 1.408 0 0 0 15.2 0H8.979A1.408 1.408 0 0 0 7.57 1.408v1.409H5.633a1.408 1.408 0 0 0-1.408 1.408v1.409H1.408a1.408 1.408 0 0 0-1.249 2.06l4.066 7.79v5.877a1.408 1.408 0 0 0 1.408 1.408h12.91a1.408 1.408 0 0 0 1.408-1.408v-6.573h1.408a1.408 1.408 0 0 0 1.408-1.408V7.042a1.408 1.408 0 0 0-1.406-1.408zm-17.136 7.82L.994 7.259a.469.469 0 0 1 .414-.687h2.817zM8.509 1.408a.469.469 0 0 1 .47-.469H15.2a.469.469 0 0 1 .469.469v1.409h-7.16zm10.5 19.952a.469.469 0 0 1-.469.469H5.633a.469.469 0 0 1-.469-.469v-1.408h13.849zm0-2.347H5.164v-1.877h2.347a.469.469 0 1 0 0-.939H5.164v-2.935h2.347a.469.469 0 1 0 0-.939H5.164V9.389h2.347a.469.469 0 1 0 0-.939H5.164V6.573h13.849zm0-13.38H5.164V4.225a.469.469 0 0 1 .469-.469h12.91a.469.469 0 0 1 .469.469zm2.821 7.747a.469.469 0 0 1-.469.469h-1.409V6.573h1.408a.469.469 0 0 1 .469.469z" data-name="Path 1105" style="fill:#444f5e"/>
    </g>
</svg>
