<?xml version="1.0" encoding="utf-8"?>
<!-- Generator: Adobe Illustrator 24.1.2, SVG Export Plug-In . SVG Version: 6.00 Build 0)  -->
<svg version="1.1" id="Слой_1" xmlns="http://www.w3.org/2000/svg" xmlns:xlink="http://www.w3.org/1999/xlink" x="0px" y="0px"
	 viewBox="0 0 512.2 327" style="enable-background:new 0 0 512.2 327;" xml:space="preserve">
<path style="fill:#ECECEC;" d="M462.8,288.4h38.8v-0.3h-38.8V288.4z"/>
<path style="fill:#ECECEC;" d="M352.3,291.6h10.2v-0.3h-10.2V291.6z"/>
<path style="fill:#ECECEC;" d="M439.1,277.6h22.5v-0.3h-22.5V277.6z"/>
<path style="fill:#ECECEC;" d="M35.7,279.5h50.6v-0.3H35.7V279.5z"/>
<path style="fill:#ECECEC;" d="M96.8,279.5h7.4v-0.3h-7.4V279.5z"/>
<path style="fill:#ECECEC;" d="M128.3,284.5h109.8v-0.3H128.3V284.5z"/>
<g transform="translate(0 -666.665)">
	<g transform="translate(269.331 200.319)">
		<path style="fill:#E2EAF0;" d="M-25.8,539.3c0,28.5,23.1,51.7,51.7,51.7c0,0,0,0,0,0c28.5,0,51.7-23.1,51.7-51.7c0,0,0,0,0,0
			c0-28.5-23.1-51.7-51.7-51.7C-2.7,487.7-25.8,510.8-25.8,539.3"/>
	</g>
	<g transform="translate(25.79 187.426)">
		<path style="fill:#F5F5F5;" d="M32,646.5c6.1-6.1,25.6-10.2,36.9-34.4c11.2-24.2,48.1-74.6,62.1-81.6s29.6-37.6,35.2-41.9
			S179,496,181,503c5.1,17.9,29.3,68.8,43.7,78.5c14.5,9.8,15.4,30.9,19.5,43c4,12.1,28.7,19.2,34.3,34.8s68,89.2,68,89.2H-25.8
			C-7.2,735.1,8.6,670,32,646.5"/>
	</g>
	<g transform="translate(152.25 200.33)">
		<path style="fill:#F0F0F0;" d="M40.3,492.5c0,6-1.8,33.9-8.1,40.6s-0.7-8.3-11.3,0s-15.3,25.5-33,31.5c-17.7,6-16.2-9.1-7.6-17.7
			c8.6-8.6,18.8-23.7,26.8-28.1C15.3,514.4,40.3,474,40.3,492.5"/>
	</g>
	<g transform="translate(79.998 322.635)">
		<path style="fill:#F0F0F0;" d="M68.8,494.7c8.4-11.7-29.4,1.8-40.9-2.3s-2.6-9.9-19.3,4.7s-45.6,28.7-30,33.6
			C-5.7,535.6,53.2,516.3,68.8,494.7"/>
	</g>
	<g transform="translate(352.656 308.385)">
		<path style="fill:#F0F0F0;" d="M12.1,514.8c-6.5-7.7-13.9-22.3-23.4-24.8s-16-4.1-14.1,1.8S22.2,526.8,12.1,514.8"/>
	</g>
	<g transform="translate(442.731 339.326)">
		<path style="fill:#F0F0F0;" d="M26.9,525.4c-1.7-5.4-6.8-5.3-11.3-13.9S4.4,488.3-6.5,487.7c-10.9-0.6-28.3,3.7-13.7,14.7
			C-5.5,513.3,32.6,544.4,26.9,525.4"/>
	</g>
	<g transform="translate(322.786 253.997)">
		<path style="fill:#FAFAFA;" d="M51.4,500.5c21.2,0,61.7-1.7,45.5-8.9c-16.2-7.1-28.3,7.1-35.3,1.1c-7.1-6.1-18.6-6.9-28.1-1.1
			s-6.7-3.3-18.2,0c-16.1,4.5-67.7,8.9-23.8,8.9L51.4,500.5z"/>
	</g>
</g>
<g transform="translate(0 -666.665)">
	<g>
		<defs>
			<rect id="SVGID_1_" x="-25.8" y="487.7" width="586.1" height="586.1"/>
		</defs>
		<clipPath id="SVGID_2_">
			<use xlink:href="#SVGID_1_"  style="overflow:visible;"/>
		</clipPath>
		<g style="clip-path:url(#SVGID_2_);">
			<g transform="translate(88.814 183.147)">
				<path style="fill:#E5F1FF;" d="M346.2,553.4c-42.7-33.9-84.5-21.5-131.4-21.6c-50.4-0.1-68-32.4-113.2-41.6
					c-1.3-0.3-2.6-0.5-3.9-0.7H53.2c-35.1,5.9-65.4,25.3-73.5,53.1c-14.6,49.9-0.6,89.9,49.6,128.5c41.8,32.2,103.8,56.6,155.4,72.1
					c107.9,32.3,172.9,3.6,188.4-92.3C378.7,615.8,379.8,580,346.2,553.4z"/>
			</g>
		</g>
	</g>
</g>
<g transform="translate(0 -666.665)">
	<g>
		<defs>
			<rect id="SVGID_3_" x="-25.8" y="487.7" width="586.1" height="586.1"/>
		</defs>
		<clipPath id="SVGID_4_">
			<use xlink:href="#SVGID_3_"  style="overflow:visible;"/>
		</clipPath>
		<g style="clip-path:url(#SVGID_4_);">
			<g transform="translate(65.779 474.678)">
				<path style="fill:#F5F5F5;" d="M428.8,500.9c0,7.3-101.8,13.3-227.3,13.3s-227.3-5.9-227.3-13.3c0-7.3,101.8-13.3,227.3-13.3
					S428.8,493.6,428.8,500.9"/>
			</g>
		</g>
	</g>
</g>
<g transform="translate(0 -666.665)">
	<g>
		<defs>
			<rect id="SVGID_5_" x="-25.8" y="487.7" width="586.1" height="586.1"/>
		</defs>
		<clipPath id="SVGID_6_">
			<use xlink:href="#SVGID_5_"  style="overflow:visible;"/>
		</clipPath>
		<g style="clip-path:url(#SVGID_6_);">
			<g transform="translate(242.612 380.079)">
				<path style="fill:#1A2E35;" d="M8.3,593c14.7,0,26.6-23.6,26.6-52.7c0-29.1-11.9-52.7-26.6-52.7h-34.1V593H8.3z"/>
			</g>
			<g transform="translate(215.89 380.08)">
				<path style="fill:#1A2E35;" d="M-25.8,540.3c0-29.1,11.9-52.7,26.6-52.7s26.6,23.6,26.6,52.7c0,29.1-11.9,52.7-26.6,52.7
					S-25.8,569.4-25.8,540.3"/>
			</g>
			<g transform="translate(437.642 380.079)">
				<path style="fill:#1A2E35;" d="M8.3,593c14.7,0,26.6-23.6,26.6-52.7c0-29.1-11.9-52.7-26.6-52.7h-34.1V593H8.3z"/>
			</g>
			<g transform="translate(410.92 380.08)">
				<path style="fill:#1A2E35;" d="M-25.8,540.3c0-29.1,11.9-52.7,26.6-52.7s26.6,23.6,26.6,52.7c0,29.1-11.9,52.7-26.6,52.7
					S-25.8,569.4-25.8,540.3"/>
			</g>
			<g transform="translate(53.001 362.172)">
				<path style="fill:#007CFF;" d="M23.6,584.4l-18.2-4.5c-6.2-1.5-11.5-5.7-14.3-11.5l0,0c-1.2-2.5-3-4.8-5.1-6.6l-4.5-4
					c-5.2-4.6-7.9-11.4-7.2-18.4l2.5-25.8c0.8-8.8,7-16.3,15.5-18.8l13-3.9l47-3.3L23.6,584.4z"/>
			</g>
			<g transform="translate(107.997 380.079)">
				<path style="fill:#1A2E35;" d="M8.3,593c14.7,0,26.6-23.6,26.6-52.7c0-29.1-11.9-52.7-26.6-52.7h-34.1V593H8.3z"/>
			</g>
			<g transform="translate(81.276 380.08)">
				<path style="fill:#1A2E35;" d="M-25.8,540.3c0-29.1,11.9-52.7,26.6-52.7s26.6,23.6,26.6,52.7c0,29.1-11.9,52.7-26.6,52.7
					S-25.8,569.4-25.8,540.3"/>
			</g>
			<g transform="translate(89.212 391.118)">
				<path style="fill:#007CFF;" d="M-25.8,529.3c0-23,8.4-41.6,18.7-41.6s18.7,18.6,18.7,41.6c0,23-8.4,41.6-18.7,41.6
					S-25.8,552.3-25.8,529.3"/>
			</g>
			<g transform="translate(84.087 305.107)">
				<path style="fill:#007CFF;" d="M267.9,641.5l45.9-102.6c0,0-68.7-51.2-155.9-51.2c-141.3,0-136.5,19.1-183.8,60.4l20.6,14.6
					c36.7,0,39.8,58.2,45.7,74.6c0.9,2.5,3.3,4.2,6,4.2L267.9,641.5"/>
			</g>
			<g transform="translate(303.027 380.079)">
				<path style="fill:#1A2E35;" d="M8.3,593c14.7,0,26.6-23.6,26.6-52.7c0-29.1-11.9-52.7-26.6-52.7h-34.1V593H8.3z"/>
			</g>
			<g transform="translate(276.306 380.08)">
				<path style="fill:#1A2E35;" d="M-25.8,540.3c0-29.1,11.9-52.7,26.6-52.7s26.6,23.6,26.6,52.7c0,29.1-11.9,52.7-26.6,52.7
					S-25.8,569.4-25.8,540.3"/>
			</g>
			<g transform="translate(284.242 391.118)">
				<path style="fill:#007CFF;" d="M-25.8,529.3c0-23,8.4-41.6,18.7-41.6s18.7,18.6,18.7,41.6c0,23-8.4,41.6-18.7,41.6
					S-25.8,552.3-25.8,529.3"/>
			</g>
			<g transform="translate(275.36 356.27)">
				<path style="fill:#007CFF;" d="M49.2,581.8c-4.2-19.2-24.5-70.3-48.7-70.3l-26.3-23.9h148.3c10.3,0,55.9,6.3,81.7,23.8
					c20.9,14.1,23.4,35.6,26.5,67c0.6,6.4-5,11.9-12.1,11.9c-59.4,0-131.4,0.2-157.6,0.3C55.3,590.7,50.3,587,49.2,581.8"/>
			</g>
			<g transform="translate(261.144 310.553)">
				<g>
					<defs>
						<rect id="SVGID_7_" x="-25.8" y="487.7" width="151.8" height="45.7"/>
					</defs>
					<clipPath id="SVGID_8_">
						<use xlink:href="#SVGID_7_"  style="overflow:visible;"/>
					</clipPath>
					<g style="opacity:0.8;clip-path:url(#SVGID_8_);">
						<g transform="translate(-0.001 0)">
							<path style="fill:#FFFFFF;" d="M126,533.4H29.3c-4.5,0-8.8-2.2-11.4-6c-10.8-15.9-29.8-32.1-43.8-39.8
								C72,487.7,126,533.4,126,533.4"/>
						</g>
					</g>
				</g>
			</g>
			<g transform="translate(121.759 310.553)">
				<g>
					<defs>
						<rect id="SVGID_9_" x="-25.8" y="487.7" width="170.1" height="45.7"/>
					</defs>
					<clipPath id="SVGID_10_">
						<use xlink:href="#SVGID_9_"  style="overflow:visible;"/>
					</clipPath>
					<g style="opacity:0.8;clip-path:url(#SVGID_10_);">
						<g transform="translate(0 0.001)">
							<path style="fill:#FFFFFF;" d="M111.2,492.5c11.7,8.5,25.1,21.6,32.5,34.7c1.1,2,0.5,4.5-1.5,5.6c-0.6,0.4-1.3,0.6-2.1,0.6
								H-18.2c-16.8,0-11.2-41.9,76.6-45c8.3-0.7,27.6-0.7,38.2-0.7C101.8,487.7,106.9,489.4,111.2,492.5"/>
						</g>
					</g>
				</g>
			</g>
			<g transform="translate(363.744 436.049)">
				<path style="fill:#1A2E35;" d="M-22.4,487.7l50.8,3.8c1.6,0.1,2.9,1.5,2.9,3.1v3.5c0,1.7-1.4,3.1-3.1,3.1c0,0,0,0,0,0h-50.8
					c-1.7,0-3.1-1.4-3.2-3.1c0,0,0,0,0,0v-7.3c0-1.7,1.4-3.1,3.1-3.1C-22.6,487.7-22.5,487.7-22.4,487.7"/>
			</g>
			<g transform="translate(512.068 436.736)">
				<path style="fill:#1A2E35;" d="M-9.3,487.7l-14,2.8c-1.5,0.3-2.5,1.6-2.5,3.1v3.8c0,1.7,1.4,3.1,3.1,3.1c0,0,0,0,0,0h14.8
					c1.7,0,3.1-1.4,3.1-3.1c0-0.1,0-0.3,0-0.4l-0.8-6.6c-0.2-1.7-1.8-3-3.5-2.8C-9.1,487.7-9.2,487.7-9.3,487.7"/>
			</g>
			<g transform="translate(338.003 373.541)">
				<g transform="translate(0 0)">
					<g>
						<defs>
							<rect id="SVGID_11_" x="-25.8" y="487.7" width="70.9" height="15.6"/>
						</defs>
						<clipPath id="SVGID_12_">
							<use xlink:href="#SVGID_11_"  style="overflow:visible;"/>
						</clipPath>
						<g style="opacity:0.8;clip-path:url(#SVGID_12_);">
							<g transform="translate(0.001 0)">
								<path style="fill:#FFFFFF;" d="M45.1,491.1l-70.9-3.4c0,0-0.7,12.6,25.6,15.3C26,505.6,45.1,491.1,45.1,491.1"/>
							</g>
						</g>
					</g>
				</g>
			</g>
			<g transform="translate(54.524 382.004)">
				<g transform="translate(0 0)">
					<g>
						<defs>
							<rect id="SVGID_13_" x="-25.8" y="487.7" width="7.3" height="17.3"/>
						</defs>
						<clipPath id="SVGID_14_">
							<use xlink:href="#SVGID_13_"  style="overflow:visible;"/>
						</clipPath>
						<g style="opacity:0.3;clip-path:url(#SVGID_14_);">
							<g transform="translate(0 0.001)">
								<path d="M-24.7,493.8c0.2-2.1,0.7-4.1,1.5-6l4.8-0.1c0,0,0.2,18.4-6.7,17.3c-0.2,0-0.4-0.1-0.6-0.1L-24.7,493.8z"/>
							</g>
						</g>
					</g>
				</g>
			</g>
			<g transform="translate(484.542 375.865)">
				<g>
					<defs>
						<rect id="SVGID_15_" x="-25.8" y="487.7" width="30.2" height="13.3"/>
					</defs>
					<clipPath id="SVGID_16_">
						<use xlink:href="#SVGID_15_"  style="overflow:visible;"/>
					</clipPath>
					<g style="opacity:0.8;clip-path:url(#SVGID_16_);">
						<g transform="translate(0 0)">
							<path style="fill:#FFFFFF;" d="M-11.9,487.7c2.4,1.3,4.7,2.7,7,4.2c3.4,2.3,6.6,5,9.3,8.1c-1,0.3-2,0.5-3,0.7
								c-15.7,2.7-27.2-11.8-27.2-11.8L-11.9,487.7z"/>
						</g>
					</g>
				</g>
			</g>
			<g transform="translate(420.831 396.796)">
				<path style="fill:#1A2E35;" d="M-15.7,487.7h50.2c1.8,0,3.5,0.6,4.9,1.6l8.8,6.1c2,1.4,3.3,3.6,3.7,6l2.2,16.6
					c0.6,4.1-2.2,7.9-6.2,8.5c-0.4,0.1-0.8,0.1-1.3,0.1H-7.1c-3.3,0-6.2-1.9-7.7-4.8l-10-19.6c-1.5-2.7-1.2-6,0.6-8.5l2.5-3.2
					C-20.3,488.7-18.1,487.6-15.7,487.7"/>
			</g>
			<g transform="translate(163.501 437.322)">
				<g>
					<defs>
						<rect id="SVGID_17_" x="-25.8" y="487.7" width="103.3" height="10.4"/>
					</defs>
					<clipPath id="SVGID_18_">
						<use xlink:href="#SVGID_17_"  style="overflow:visible;"/>
					</clipPath>
					<g style="opacity:0.1;clip-path:url(#SVGID_18_);">
						<g transform="translate(0 0)">
							<path d="M-22.9,487.7h98.1c1.3,0,2.3,1,2.3,2.3c0,0.1,0,0.1,0,0.2l-0.5,5.7c-0.1,1.2-1.1,2.1-2.3,2.1h-98.1
								c-1.3,0-2.3-1-2.3-2.3c0-0.1,0-0.1,0-0.2l0.5-5.7C-25.2,488.6-24.2,487.7-22.9,487.7"/>
						</g>
					</g>
				</g>
			</g>
			<g transform="translate(185.868 309.413)">
				<path style="fill:#007CFF;" d="M-14,488.8l5.9-1.1l-12,52.8h-5.6L-14,488.8z"/>
			</g>
			<g transform="translate(198.339 368.086)">
				<path style="fill:#1A2E35;" d="M-5.1,487.7h-20.1l-0.5,2.1c-0.5,1.6,0.3,3.3,1.9,3.8c0.4,0.1,0.7,0.2,1.1,0.2h12.2
					c2.3-0.1,4.3-1.7,4.9-4L-5.1,487.7z"/>
			</g>
			<g transform="translate(129.192 368.086)">
				<path style="fill:#1A2E35;" d="M-5.1,487.7h-20.1l-0.5,2.1c-0.5,1.6,0.3,3.3,1.9,3.8c0.4,0.1,0.7,0.2,1.1,0.2h12.2
					c2.3-0.1,4.3-1.7,4.9-4L-5.1,487.7z"/>
			</g>
			<g transform="translate(187.138 360.086)">
				<g>
					<defs>
						<rect id="SVGID_19_" x="-25.8" y="487.7" width="2.8" height="70.4"/>
					</defs>
					<clipPath id="SVGID_20_">
						<use xlink:href="#SVGID_19_"  style="overflow:visible;"/>
					</clipPath>
					<g style="opacity:0.1;clip-path:url(#SVGID_20_);">
						<g transform="translate(0 0)">
							<path d="M-23.6,558.1c-0.4,0-0.7-0.3-0.7-0.7l-1.5-69.1c0-0.4,0.3-0.7,0.7-0.7c0,0,0,0,0,0h0c0.4,0,0.7,0.3,0.7,0.7l1.5,69.1
								C-23,557.8-23.3,558.1-23.6,558.1L-23.6,558.1z"/>
						</g>
					</g>
				</g>
			</g>
		</g>
	</g>
</g>
<g transform="translate(220.145 -201.981)">
	<path style="fill:#FF8C7B;" d="M-16.9,503.8l-6.9-0.1l-2-16.1l6.9,0.1L-16.9,503.8z"/>
</g>
<g transform="translate(180.568 -204.411)">
	<path style="fill:#FF8C7B;" d="M-19.5,506.1l-6.3-3.5l4.7-14.9l6.3,3.5L-19.5,506.1z"/>
</g>
<g>
	<defs>
		<rect id="SVGID_21_" x="-25.8" y="-179" width="586.1" height="586.1"/>
	</defs>
	<clipPath id="SVGID_22_">
		<use xlink:href="#SVGID_21_"  style="overflow:visible;"/>
	</clipPath>
	<g style="clip-path:url(#SVGID_22_);">
		<g transform="translate(165.788 474.404)">
			<path style="fill:#1A2E35;" d="M-11.6-177.1l7.3,4.2c0.2,0.1,0.4,0.4,0.3,0.7l-1.9,6c-0.2,0.5-0.7,0.8-1.3,0.7
				c-0.1,0-0.1-0.1-0.2-0.1c-2.3-1.4-4-2.5-7-4.2c-1.8-1-7.5-4-10-5.4c-2.5-1.4-1.4-4.1-0.3-3.8c5.2,1.6,9.5,2.2,11.8,1.7
				C-12.4-177.3-12-177.3-11.6-177.1"/>
		</g>
		<g transform="translate(205.195 479.943)">
			<path style="fill:#1A2E35;" d="M-9-179l7.6,0.1c0.3,0,0.5,0.2,0.6,0.5l1.3,6.2c0.1,0.5-0.2,1.1-0.8,1.2c-0.1,0-0.2,0-0.2,0
				c-2.7-0.1-6.7-0.3-10.1-0.4c-4-0.1-7.5,0.1-12.2,0c-2.8,0-3.6-2.9-2.4-3.2c5.4-1.1,9.9-1.2,14.6-4C-10.2-178.8-9.6-179-9-179"/>
		</g>
		<g transform="translate(176.706 266.748)">
			<path style="fill:#FF8C7B;" d="M16.2-168c-4,3.2-8.1,6.3-12.4,9.1c-2.2,1.4-4.4,2.8-6.7,4c-2.4,1.4-5,2.5-7.6,3.4
				c-0.8,0.3-1.6,0.5-2.4,0.6c-0.4,0.1-1,0.1-1.4,0.2c-0.6,0-1.1,0-1.7,0c-1.2-0.1-2.4-0.5-3.5-1c-1-0.6-2-1.3-2.7-2.2
				c-1.2-1.4-2.1-3.1-2.6-4.9c-0.4-1.4-0.7-2.9-0.8-4.4c-0.4-5.3,0.2-10.7,1.5-15.9l5.2,0.7c0,4.7,0.4,9.3,1.3,13.9
				c0.2,1,0.5,1.9,0.9,2.8c0.2,0.6,0.6,1.2,1.1,1.6c0.1,0.1,0.2,0.1,0.2,0c0,0,0-0.1,0.1-0.1c0.6-0.1,1.2-0.3,1.7-0.6
				c2-0.9,3.9-1.9,5.8-3.1c2-1.2,4-2.5,5.9-3.9c3.9-2.7,7.9-5.7,11.6-8.6L16.2-168z"/>
		</g>
		<g transform="translate(190.675 264.562)">
			<path style="fill:#007CFF;" d="M4.4-169c-3.2,7.1-15.3,14.5-22.1,17.6c-2,0.9-1.7,3.6-2.9,2.4c0,0-5.2-9.5-5.2-11.5
				c0-2,1.7-0.8,3.1-2.1c5.1-4.7,15.7-15,22.3-16.1C8.3-180.2,7.3-175.6,4.4-169"/>
		</g>
		<g transform="translate(186.892 281.612)">
			<path style="fill:#1A2E35;" d="M-21.3-178.8c-0.7-1-3.4,1.6-4.3,2.7c-0.9,1.1,1.5,5,2.3,7.1c0.7,2.1-0.7,4.2,1.5,4.5
				c1.2,0.2,4.5-0.3,5.2-1.1C-15.1-167.7-19.7-176.4-21.3-178.8"/>
		</g>
		<g transform="translate(207.307 272.482)">
			<g>
				<defs>
					<rect id="SVGID_23_" x="-25.8" y="-179" width="14.1" height="15"/>
				</defs>
				<clipPath id="SVGID_24_">
					<use xlink:href="#SVGID_23_"  style="overflow:visible;"/>
				</clipPath>
				<g style="opacity:0.2;clip-path:url(#SVGID_24_);">
					<g transform="translate(0.001 -0.001)">
						<path d="M-25.8-164c5.7-3.6,11.5-8.3,13.5-12.9c0.1-0.3,0.3-0.6,0.4-0.9l0.1-1.2C-19.4-177.7-24.7-169.9-25.8-164"/>
					</g>
				</g>
			</g>
		</g>
		<g transform="translate(177.397 259.966)">
			<path style="fill:#FF8C7B;" d="M-20.7-169.4l4.5-6.6l-7.3-3c0,0-4.1,4.7-1.2,8.8L-20.7-169.4z"/>
		</g>
		<g transform="translate(179.648 255.582)">
			<path style="fill:#FF8C7B;" d="M-16.6-178.8l-6.7-0.2l-2.5,4.4l7.3,3L-16.6-178.8z"/>
		</g>
		<g transform="translate(220.147 464.687)">
			<g>
				<defs>
					<rect id="SVGID_25_" x="-25.8" y="-179" width="8" height="8.4"/>
				</defs>
				<clipPath id="SVGID_26_">
					<use xlink:href="#SVGID_25_"  style="overflow:visible;"/>
				</clipPath>
				<g style="opacity:0.2;clip-path:url(#SVGID_26_);">
					<g transform="translate(0 0.001)">
						<path d="M-25.8-179l1,8.3l6.9,0.1l-1-8.3L-25.8-179z"/>
					</g>
				</g>
			</g>
		</g>
		<g transform="translate(182.86 462.258)">
			<g>
				<defs>
					<rect id="SVGID_27_" x="-25.8" y="-179" width="8.8" height="11.2"/>
				</defs>
				<clipPath id="SVGID_28_">
					<use xlink:href="#SVGID_27_"  style="overflow:visible;"/>
				</clipPath>
				<g style="opacity:0.2;clip-path:url(#SVGID_28_);">
					<g transform="translate(0 0)">
						<path d="M-17-175.5l-6.3-3.5l-2.4,7.7l6.3,3.5L-17-175.5z"/>
					</g>
				</g>
			</g>
		</g>
		<g transform="translate(210.336 263.723)">
			<path style="fill:#007CFF;" d="M18.6-175.3c-7.5,26.3-6,54.2-6.6,59.9c-5.4-0.4-25.8-1.9-36.9-2.7c-3.5-39.6,4.9-59.7,4.9-59.7
				s2.4-0.5,5.6-0.8c1-0.1,2.1-0.2,3.2-0.3c0.6,0,1.3-0.1,1.9-0.1c5.3,0.1,10.5,0.5,15.7,1.2c1,0.1,2,0.3,3,0.4
				c0.9,0.2,1.8,0.3,2.6,0.5C15.7-176.2,18.6-175.3,18.6-175.3"/>
		</g>
		<g transform="translate(224.384 263.729)">
			<path style="fill:#1A2E35;" d="M-23.4-179c-3.1,1.7-4,7.8,2,8s12-4,13.7-6.8L-23.4-179z"/>
		</g>
		<g transform="translate(246.663 278.664)">
			<g>
				<defs>
					<rect id="SVGID_29_" x="-25.8" y="-179" width="4.5" height="17"/>
				</defs>
				<clipPath id="SVGID_30_">
					<use xlink:href="#SVGID_29_"  style="overflow:visible;"/>
				</clipPath>
				<g style="opacity:0.2;clip-path:url(#SVGID_30_);">
					<g transform="translate(-0.001 0)">
						<path d="M-25.6-179c-0.7,2.5,0.1,14.2,2.8,17c0.4-3.7,0.8-7.6,1.5-11.6L-25.6-179z"/>
					</g>
				</g>
			</g>
		</g>
		<g transform="translate(225.51 247.103)">
			<path style="fill:#FF8C7B;" d="M-9-179c-1.4,5-3,14.2,0.2,17.8c-2.9,2.5-6.3,4.3-12.4,4.1c-6-0.2-5.1-3.2-3.3-5.2
				c5.7-0.9,5.9-5.1,5.2-9.1L-9-179z"/>
		</g>
		<g transform="translate(232.035 250.168)">
			<g>
				<defs>
					<rect id="SVGID_31_" x="-25.8" y="-179" width="6.2" height="7.3"/>
				</defs>
				<clipPath id="SVGID_32_">
					<use xlink:href="#SVGID_31_"  style="overflow:visible;"/>
				</clipPath>
				<g style="opacity:0.2;clip-path:url(#SVGID_32_);">
					<g transform="translate(-0.001 0)">
						<path d="M-19.7-179l-6.1,4.4c0.2,0.9,0.3,1.9,0.3,2.8c2.2-0.1,5.3-2.3,5.7-4.5C-19.6-177.2-19.6-178.1-19.7-179"/>
					</g>
				</g>
			</g>
		</g>
		<g transform="translate(223.412 232.398)">
			<path style="fill:#1A2E35;" d="M-22.6-166.2c0,0-4.2-6-3-10.6C-24-182.8-14.3-175.5-22.6-166.2"/>
		</g>
		<g transform="translate(223.411 228.784)">
			<path style="fill:#FF8C7B;" d="M-5.8-168.2c-0.9,6.8-1.1,10.8-4.8,14.1c-5.6,4.9-13.8,1.1-14.9-5.8c-1-6.3,0.7-16.3,7.6-18.6
				c4.9-1.6,10.2,1.1,11.8,6C-5.7-171.2-5.5-169.7-5.8-168.2"/>
		</g>
		<g transform="translate(223.288 224.732)">
			<path style="fill:#1A2E35;" d="M-10.9-170.3c-4.3,1.3-16.2,2.6-14.8-3.5c2-8.6,7.4-4.1,8.3-2.9c3.4-2.5,18.6-0.3,15.6,4.6
				c3.3,0.5,5.2,4.1,2.8,5.9c-2.4,1.8-5.2,9-6.8,8.8c-1.9-0.3-3.8-0.8-5.6-1.6l3.2-4.3C-8.2-163.4-12.1-167.2-10.9-170.3"/>
		</g>
		<g transform="translate(245.656 230.756)">
			<path style="fill:#1A2E35;" d="M-25.8-177.4c2.3-0.6,4.5-0.8,6.4,0.9C-19.5-179.4-23.5-179.9-25.8-177.4"/>
		</g>
		<g transform="translate(239.134 242.516)">
			<path style="fill:#FF8C7B;" d="M-18.9-174.2c-1,1.4-2.6,2.3-4.3,2.6c-2.3,0.3-3.1-1.8-2.2-3.8c0.8-1.8,2.9-4.1,5.1-3.5
				c1.6,0.5,2.4,2.1,2,3.6C-18.5-174.9-18.7-174.5-18.9-174.2"/>
		</g>
		<g transform="translate(203.51 324.507)">
			<path style="fill:#007CFF;" d="M-10.7-32.2L1-32c0,0-6.8-46.3-5.7-67.9c0.3-6.6-0.7-15.7,1-25.6c2.2-12.4,3.2-17.3,6.1-33
				c2-11.2,3.8-18.8,3.8-18.8l-24.3-1.8c0,0-7.9,55.8-7.7,76.9C-25.5-80.1-10.7-32.2-10.7-32.2"/>
		</g>
		<g transform="translate(203.51 324.507)">
			<g>
				<defs>
					<rect id="SVGID_33_" x="-25.8" y="-179" width="32" height="147"/>
				</defs>
				<clipPath id="SVGID_34_">
					<use xlink:href="#SVGID_33_"  style="overflow:visible;"/>
				</clipPath>
				<g style="opacity:0.6;clip-path:url(#SVGID_34_);">
					<g transform="translate(0 0)">
						<path d="M-10.7-32.2L1-32c0,0-6.8-46.3-5.7-67.9c0.3-6.6-0.7-15.7,1-25.6c2.2-12.4,3.2-17.3,6.1-33c2-11.2,3.8-18.8,3.8-18.8
							l-24.3-1.8c0,0-7.9,55.8-7.7,76.9C-25.5-80.1-10.7-32.2-10.7-32.2"/>
					</g>
				</g>
			</g>
		</g>
		<g transform="translate(203.517 378.097)">
			<g transform="translate(0 0)">
				<g>
					<defs>
						<rect id="SVGID_35_" x="-25.8" y="-179" width="22.1" height="64.9"/>
					</defs>
					<clipPath id="SVGID_36_">
						<use xlink:href="#SVGID_35_"  style="overflow:visible;"/>
					</clipPath>
					<g style="opacity:0.2;clip-path:url(#SVGID_36_);">
						<g transform="translate(-0.001 0)">
							<path d="M-3.7-179c-0.8,5.1-1.2,10.3-1,15.5c-2,5.7-3.8,11.1-5,15.9c-2.1,8.4-5.5,21.2-8.9,33.4c-3.6-14.4-7.1-30.9-7.2-41.5
								L-3.7-179z"/>
						</g>
					</g>
				</g>
			</g>
		</g>
		<g transform="translate(181.319 325.48)">
			<path style="fill:#007CFF;" d="M17.2-179c0,0-17.4,44.1-24.1,63.3C-14.1-94.7-25.8-38-25.8-38l11,6.3c0,0,17.2-46.7,24.3-67.2
				c8.1-23.3,30.4-60.1,31.5-78.2L17.2-179z"/>
		</g>
		<g transform="translate(181.318 325.481)">
			<g>
				<defs>
					<rect id="SVGID_37_" x="-25.8" y="-179" width="66.8" height="147.2"/>
				</defs>
				<clipPath id="SVGID_38_">
					<use xlink:href="#SVGID_37_"  style="overflow:visible;"/>
				</clipPath>
				<g style="opacity:0.6;clip-path:url(#SVGID_38_);">
					<g transform="translate(0 -0.001)">
						<path d="M17.2-179c0,0-17.4,44.1-24.1,63.3C-14.1-94.7-25.8-38-25.8-38l11,6.3c0,0,17.2-46.7,24.3-67.2
							c8.1-23.3,30.4-60.1,31.5-78.2L17.2-179z"/>
					</g>
				</g>
			</g>
		</g>
		<g transform="translate(179.862 460.929)">
			<path style="fill:#007CFF;" d="M-25.8-174l13,7.4l2.2-3.9L-25-179L-25.8-174z"/>
		</g>
		<g transform="translate(215.553 466.8)">
			<path style="fill:#007CFF;" d="M-24.2-174.2l14,0.2l0.1-4.5l-15.6-0.5L-24.2-174.2z"/>
		</g>
		<g transform="translate(233.006 239.627)">
			<path style="fill:#1A2E35;" d="M-24.5-177.9c0,0.6-0.4,1-0.7,1c-0.4,0-0.6-0.5-0.6-1.1c0-0.6,0.4-1,0.7-1
				C-24.7-179-24.4-178.5-24.5-177.9"/>
		</g>
		<g transform="translate(225.6 239.159)">
			<path style="fill:#1A2E35;" d="M-24.5-177.9c0,0.6-0.4,1-0.7,1s-0.6-0.5-0.6-1.1c0-0.6,0.4-1,0.7-1
				C-24.7-179-24.4-178.5-24.5-177.9"/>
		</g>
		<g transform="translate(225.6 240.643)">
			<path style="fill:#FF5551;" d="M-22.8-179c-0.8,1.7-1.8,3.2-3,4.6c0.7,0.6,1.7,0.9,2.6,0.7L-22.8-179z"/>
		</g>
		<g transform="translate(227.108 247.642)">
			<path style="fill:#1A2E35;" d="M-24.9-177.1c1.3-0.1,2.5-0.6,3.3-1.6c0.1-0.1,0-0.2,0-0.2c0,0,0,0,0,0c-0.1-0.1-0.2,0-0.2,0
				c0,0,0,0,0,0c-0.9,1.1-2.3,1.6-3.7,1.5c-0.1,0-0.2,0.1-0.2,0.1c0,0,0,0,0,0c0,0.1,0.1,0.2,0.2,0.2
				C-25.4-177.1-25.2-177.1-24.9-177.1"/>
		</g>
		<g transform="translate(232.861 236.743)">
			<path style="fill:#1A2E35;" d="M-23.2-176.9c0.1,0,0.1,0,0.2-0.1c0.2-0.1,0.2-0.3,0.1-0.5c0,0,0,0,0,0c-0.6-0.9-1.5-1.5-2.6-1.5
				c-0.2,0-0.3,0.1-0.3,0.3c0,0.2,0.1,0.3,0.3,0.3c0.8,0.1,1.6,0.5,2,1.2C-23.4-177-23.3-176.9-23.2-176.9"/>
		</g>
		<g transform="translate(223.893 236.008)">
			<path style="fill:#1A2E35;" d="M-25.5-177.3c0.1,0,0.2,0,0.3-0.1c0.5-0.6,1.3-1,2.2-1c0.2,0,0.3-0.1,0.4-0.3
				c0-0.2-0.1-0.3-0.3-0.4c-1.1-0.1-2.1,0.4-2.8,1.2c-0.1,0.1-0.1,0.3,0,0.5c0,0,0,0,0,0C-25.6-177.3-25.6-177.3-25.5-177.3"/>
		</g>
		<g transform="translate(176.33 474.1)">
			<path style="fill:#007CFF;" d="M-23.3-176.6c-1.1-0.4-1.9-0.9-2.1-1.3c-0.1-0.2,0-0.4,0.1-0.6c0.1-0.1,0.1-0.1,0.2-0.1
				C-24.7-178.7-23.9-177.5-23.3-176.6 M-24.7-176.9c0.5,0.3,1.1,0.5,1.7,0.7c0.1,0,0.1,0,0.2-0.1c0-0.1,0-0.1,0-0.2
				c-0.1-0.3-1.4-2.6-2.3-2.6c-0.2,0-0.4,0.1-0.5,0.3c-0.2,0.3-0.2,0.6-0.1,0.9C-25.5-177.4-25.2-177-24.7-176.9"/>
		</g>
		<g transform="translate(178.378 473.385)">
			<path style="fill:#007CFF;" d="M-25-178.6c0.1,0.1,0.2,0.2,0.3,0.3c0.1,0.8,0,1.6-0.4,2.3c-0.4-0.8-0.6-2.3-0.3-2.6
				C-25.3-178.6-25.2-178.7-25-178.6C-25-178.6-25-178.6-25-178.6 M-25.1-175.5C-25.1-175.5-25.1-175.4-25.1-175.5
				c0.2,0,0.2,0,0.2-0.1c0-0.1,0.9-1.9,0.5-2.9c-0.1-0.2-0.3-0.4-0.5-0.5l0,0c-0.2-0.1-0.5-0.1-0.7,0.1
				C-26.1-178.2-25.6-176.2-25.1-175.5C-25.2-175.5-25.1-175.5-25.1-175.5"/>
		</g>
		<g transform="translate(217.128 479.335)">
			<path style="fill:#007CFF;" d="M-25.3-178.6c0.5-0.2,2,0.4,3.1,1c-1.5,0.2-2.7,0.1-3.1-0.2c-0.1-0.1-0.2-0.3-0.2-0.5
				C-25.5-178.5-25.4-178.6-25.3-178.6C-25.3-178.6-25.3-178.6-25.3-178.6 M-21.6-177.4c0.1,0,0.1-0.1,0.1-0.1c0-0.1,0-0.1-0.1-0.2
				c-0.3-0.2-3.1-1.6-3.9-1.2c-0.2,0.1-0.3,0.3-0.3,0.4c0,0.3,0.1,0.6,0.3,0.8C-24.7-177-22.8-177.2-21.6-177.4L-21.6-177.4"/>
		</g>
		<g transform="translate(218.854 477.737)">
			<path style="fill:#007CFF;" d="M-25.2-178.8L-25.2-178.8z M-25.3-178.6c0.1,0,0.1,0,0.2,0c0.2,0,0.5,0.1,0.7,0.2
				c0.5,0.6,0.8,1.4,0.9,2.1c-0.8-0.5-2-1.7-1.9-2.2C-25.5-178.5-25.4-178.6-25.3-178.6 M-23.3-175.8
				C-23.3-175.9-23.3-175.9-23.3-175.8c0.1-0.1,0.1-0.1,0.1-0.2c-0.1-1-0.4-1.9-1-2.7c-0.2-0.2-0.6-0.3-0.9-0.3
				c-0.5,0-0.6,0.3-0.6,0.4c-0.1,0.8,1.5,2.3,2.3,2.7C-23.4-175.8-23.4-175.8-23.3-175.8"/>
		</g>
		<g transform="translate(247.17 271.563)">
			<path style="fill:#FF8C7B;" d="M-16.5-179c1.5,2.8,2.8,5.6,4.2,8.5c1.3,2.9,2.5,5.8,3.7,8.7c1.2,2.9,2.3,5.9,3.3,9l0.7,2.3
				l0.6,2.4c0.2,0.8,0.4,1.6,0.6,2.5l0.1,0.6l0.1,0.8c0.1,0.6,0.1,1,0.1,1.6c0.1,1.8,0,3.5-0.2,5.3c-0.2,1.7-0.4,3.3-0.7,4.9
				c-0.6,3.2-1.3,6.2-2.1,9.3c-1.6,6.1-3.4,12-5.6,17.9l-5-1.4c1.1-6,2.1-12.1,2.9-18.1c0.4-3,0.8-6,1.1-8.9
				c0.1-1.5,0.2-2.9,0.3-4.3c0.1-1.3,0-2.6-0.1-3.9c0-0.2-0.1-0.6-0.1-0.7l-0.1-0.3l-0.1-0.5c-0.2-0.7-0.4-1.3-0.6-2l-0.7-2
				l-0.8-2.1c-1-2.7-2.2-5.5-3.4-8.2c-1.2-2.8-2.5-5.5-3.8-8.2c-1.3-2.7-2.6-5.5-3.9-8.1L-16.5-179z"/>
		</g>
		<g transform="translate(244.353 266.776)">
			<path style="fill:#007CFF;" d="M-15.4-178.4c5,1.6,11.5,22.2,14.1,30.9c1.7,1.5,0.8,4.2,0.8,4.2l-10.1,4.5
				c-2.4-1.1-3.8-3.6-2.9-4.8c-5.3-10-9.5-17.5-11.5-23.4C-27.9-175.9-23-180.8-15.4-178.4"/>
		</g>
		<g transform="translate(256.944 300.327)">
			<path style="fill:#1A2E35;" d="M-25.6-174.8c-1,0.6,2.1,3.8,3.1,4.8c1,0.9,4.4-1.5,6.5-2.1s4.2,1,4.6-1.2c0.2-1.2,0-4.5-0.8-5.2
				C-14.1-180.2-23.1-176.2-25.6-174.8"/>
		</g>
		<g transform="translate(252.326 340.962)">
			<path style="fill:#FF8C7B;" d="M-20.4-179l-5.4,4.5l6.7,4.9c0,0,4.4-4.7,2.4-7.5L-20.4-179z"/>
		</g>
		<g transform="translate(249.239 345.459)">
			<path style="fill:#FF8C7B;" d="M-25.8-172.7l6.7,3.2l3.2-4.7l-6.7-4.9L-25.8-172.7z"/>
		</g>
	</g>
</g>
</svg>
