<?xml version="1.0" encoding="utf-8"?>
<svg xmlns="http://www.w3.org/2000/svg" xmlns:xlink="http://www.w3.org/1999/xlink" width="18" height="18" viewBox="0 0 18 18">
    <path d="M18 7.383a7.384 7.384 0 01-.966 3.653.7.7 0 01-1.222-.7 5.973 5.973 0 10-2.269 2.264.7.7 0 11.689 1.226 7.378 7.378 0 01-8.294-.733L1.2 17.8a.7.7 0 01-.991-1l4.733-4.7A7.381 7.381 0 1118 7.383zM11.32 4.36a.7.7 0 00-1.406 0v3.585a.7.7 0 101.406 0zm-.7 5.344a.7.7 0 10.7.7.7.7 0 00-.702-.704zm0 0" data-name="search (3)" transform="translate(-.001)" style="fill:#f76a43"/>
</svg>
