<svg xmlns="http://www.w3.org/2000/svg" viewBox="0 0 18 17.154">
    <path d="M8.777 16.75a.346.346 0 01-.345.345 4.252 4.252 0 00-4.249 4.249.345.345 0 01-.689 0 4.943 4.943 0 014.938-4.938.343.343 0 01.345.344zm9.186-.461a9.161 9.161 0 00-4.835-4.451.345.345 0 00-.254.642 8.5 8.5 0 014.473 4.12.343.343 0 00.31.19.4.4 0 00.155-.034.345.345 0 00.152-.467zm-2.508.353a.337.337 0 00.289.155.344.344 0 00.289-.534 7.547 7.547 0 00-2.883-2.59.346.346 0 10-.315.616 6.857 6.857 0 012.621 2.353zm1.986 9.074a1.239 1.239 0 01-1.237 1.237H1.237a1.237 1.237 0 010-2.473h3.791v-.737H1.6a.346.346 0 01-.345-.345v-1.78a7.489 7.489 0 017.123-7.459v-1.886h-.1a1.237 1.237 0 110-2.473h.892a1.237 1.237 0 110 2.473h-.1v1.887a7.489 7.489 0 017.123 7.459V23.4a.346.346 0 01-.345.345h-3.43v.737h3.792a1.239 1.239 0 011.232 1.235zm-8.72-14.132h.444a.547.547 0 100-1.094h-.892a.547.547 0 100 1.094zm3.352 11.47H15.5v-1.435a6.78 6.78 0 00-13.56 0v1.435zm-6.36.689v.737h6.015v-.737zm11.039 1.973a.548.548 0 00-.547-.547H1.237a.547.547 0 000 1.094H16.21a.547.547 0 00.543-.546z" transform="translate(0 -9.8)" style="fill:#444f5e"/>
</svg>