<svg xmlns="http://www.w3.org/2000/svg" width="30" height="30" viewBox="0 0 30 30">
    <defs>
        <style>
            .prefix__cls-1{fill:#ffdb8a}.prefix__cls-2{fill:#ffcd60}.prefix__cls-3{fill:#ffbe35}.prefix__cls-7{fill:#414040}
        </style>
    </defs>
    <g id="prefix__map" transform="translate(0 .001)">
        <path id="prefix__Path_1135" d="M20.395 140.138l-2.551-12.88-7.76-2.306-1.913-.568v9.687z" class="prefix__cls-1" data-name="Path 1135" transform="translate(-7.692 -117.101)"/>
        <path id="prefix__Path_1136" d="M17.843 292.469L8.17 289.6v9.673l9.673 2.87 1.913-4.837z" class="prefix__cls-2" data-name="Path 1136" transform="translate(-7.692 -272.621)"/>
        <path id="prefix__Path_1137" d="M452.551 298.721v9.673l-1.913-.568-1.276-11.587z" class="prefix__cls-3" data-name="Path 1137" transform="translate(-423.03 -278.873)"/>
        <path id="prefix__Path_1138" d="M305.344 250.872v9.672l-7.76-2.3-2.551-12.225z" class="prefix__cls-2" data-name="Path 1138" transform="translate(-277.736 -231.592)"/>
        <path id="prefix__Path_1139" d="M183.057 282.787v9.673l-9.674 2.87v-9.673l4.837-3.294z" class="prefix__cls-3" data-name="Path 1139" transform="translate(-163.221 -265.81)"/>
        <path id="prefix__Path_1140" d="M452.549 164.279v9.673l-1.914-.566-1.276-4.837 1.276-4.837z" class="prefix__cls-2" data-name="Path 1140" transform="translate(-423.028 -154.116)"/>
        <path id="prefix__Path_1141" d="M315.6 126.688v9.673l-7.76-2.3-1.913-4.837 1.913-4.837z" class="prefix__cls-1" data-name="Path 1141" transform="translate(-287.991 -117.094)"/>
        <path id="prefix__Path_1142" d="M183.057 124.383v9.673l-9.674 2.87v-9.673z" class="prefix__cls-2" data-name="Path 1142" transform="translate(-163.221 -117.092)"/>
        <path id="prefix__Path_1143" d="M338.607 8.17v14.565s5.422-5.414 5.422-9.142a5.428 5.428 0 0 0-5.422-5.423z" data-name="Path 1143" transform="translate(-318.764 -7.692)" style="fill:#e02e00"/>
        <path id="prefix__Path_1144" d="M251.433 8.17a5.428 5.428 0 0 0-5.422 5.422c0 3.729 5.422 9.142 5.422 9.142s4.146-5.414 4.146-9.142c-.001-2.992-1.86-5.422-4.146-5.422z" data-name="Path 1144" transform="translate(-231.591 -7.692)" style="fill:#f76a43"/>
        <path id="prefix__Path_1145" d="M292.456 57.485a2.87 2.87 0 1 1 2.87-2.87 2.87 2.87 0 0 1-2.87 2.87z" data-name="Path 1145" transform="translate(-272.616 -48.716)" style="fill:#fff"/>
        <path id="prefix__Path_1146" d="M30 19.832v-9.673a.479.479 0 0 0-.342-.459l-4.476-1.328a6.667 6.667 0 0 0 .562-2.472 5.9 5.9 0 1 0-11.809 0 6.667 6.667 0 0 0 .565 2.472L10.158 9.66.615 6.828A.479.479 0 0 0 0 7.287v19.361a.479.479 0 0 0 .343.459l9.673 2.87h.012a.466.466 0 0 0 .055.012h.015a.486.486 0 0 0 .061 0 .49.49 0 0 0 .061 0h.016a.472.472 0 0 0 .055-.012h.009l9.343-2.772a.476.476 0 0 0 .389 0l9.351 2.771A.479.479 0 0 0 30 29.52v-9.684a.023.023 0 0 1 0-.004zm-.957-9.315V19.2l-8.724-2.59v-1.36a27.714 27.714 0 0 0 4.46-6zM19.84.957A4.952 4.952 0 0 1 24.787 5.9a6.24 6.24 0 0 1-.665 2.52.479.479 0 0 0-.049.1 26.065 26.065 0 0 1-4.233 5.834 26.065 26.065 0 0 1-4.233-5.834.478.478 0 0 0-.049-.1 6.24 6.24 0 0 1-.665-2.52A4.952 4.952 0 0 1 19.84.957zm-.479 14.292v1.36L10.638 19.2v-8.68L14.9 9.253a27.752 27.752 0 0 0 4.461 5.996zm-18.4 2.36l3.308.982a.479.479 0 1 0 .272-.918L.957 16.61V7.928l8.723 2.589V19.2l-3.307-.981a.479.479 0 0 0-.272.918L9.68 20.2v8.68L.957 26.291zm19.361 8.68v-3.465a.479.479 0 1 0-.957 0v3.466l-8.723 2.59V20.2l8.723-2.588v3.3a.479.479 0 0 0 .957 0v-3.3l8.72 2.588v8.68z" class="prefix__cls-7" data-name="Path 1146"/>
        <path id="prefix__Path_1147" d="M284.765 50.272a3.349 3.349 0 1 0-3.349-3.349 3.349 3.349 0 0 0 3.349 3.349zm0-5.74a2.392 2.392 0 1 1-2.392 2.392 2.392 2.392 0 0 1 2.392-2.392z" class="prefix__cls-7" data-name="Path 1147" transform="translate(-264.923 -41.024)"/>
    </g>
</svg>
