<svg xmlns="http://www.w3.org/2000/svg" width="30.001" height="30" viewBox="0 0 30.001 30">
    <defs>
        <style>
            .prefix__cls-3{fill:#414040}
        </style>
    </defs>
    <g id="prefix__favorite" transform="translate(-.014 -.017)">
        <path id="prefix__Path_1130" d="M38.83 24.415A14.416 14.416 0 1 1 24.415 10 14.416 14.416 0 0 1 38.83 24.415zm0 0" data-name="Path 1130" transform="translate(-9.403 -9.402)" style="fill:#ffcd60"/>
        <path id="prefix__Path_1131" d="M105.358 112.433l-4.7 3.426a.893.893 0 0 1-1.376-1l1.809-5.524-4.72-3.412a.893.893 0 0 1 .524-1.617h5.825l1.783-5.522a.894.894 0 0 1 1.7 0l1.785 5.52h5.824a.893.893 0 0 1 .524 1.617l-4.72 3.412 1.809 5.524a.894.894 0 0 1-1.376 1zm0 0" data-name="Path 1131" transform="translate(-90.347 -92.382)" style="fill:#fff"/>
        <path id="prefix__Path_1132" d="M90.7 107.213a1.476 1.476 0 0 1-.868-.288 1.456 1.456 0 0 1-.536-1.656l1.677-5.12-4.373-3.164a1.478 1.478 0 0 1 .868-2.676h5.4l1.654-5.117a1.479 1.479 0 0 1 2.815 0l1.654 5.117h5.4a1.479 1.479 0 0 1 .868 2.677l-4.381 3.163 1.677 5.12a1.479 1.479 0 0 1-2.277 1.654l-4.354-3.177-4.353 3.176a1.476 1.476 0 0 1-.871.291zm-3.237-11.735a.309.309 0 0 0-.181.559L92 99.451a.585.585 0 0 1 .213.656l-1.809 5.527a.309.309 0 0 0 .477.347l4.7-3.428a.585.585 0 0 1 .69 0l4.7 3.428a.309.309 0 0 0 .477-.347l-1.809-5.526a.584.584 0 0 1 .213-.656l4.722-3.413a.309.309 0 0 0-.181-.559h-5.83a.585.585 0 0 1-.556-.4l-1.787-5.528a.309.309 0 0 0-.588 0l-1.785 5.522a.585.585 0 0 1-.556.4zm0 0" class="prefix__cls-3" data-name="Path 1132" transform="translate(-80.914 -82.971)"/>
        <path id="prefix__Path_1133" d="M15.008 30.017q-.574 0-1.15-.043a15 15 0 1 1 13.348-6.215.586.586 0 1 1-.952-.684 13.829 13.829 0 1 0-3.182 3.182.586.586 0 1 1 .684.952 15 15 0 0 1-8.748 2.808zm0 0" class="prefix__cls-3" data-name="Path 1133"/>
        <path id="prefix__Path_1134" d="M420.537 421.128a.589.589 0 1 1 .416-.175.589.589 0 0 1-.416.175zm0 0" data-name="Path 1134" transform="translate(-395.35 -395.351)"/>
    </g>
</svg>
