<svg xmlns="http://www.w3.org/2000/svg" width="33.214" height="30" viewBox="0 0 33.214 30">
    <defs>
        <style>
            .prefix__cls-1{fill:#ffcd60}.prefix__cls-2{fill:#414040}
        </style>
    </defs>
    <g id="prefix__elearning" transform="translate(0 -7.355)">
        <g id="prefix__Group_172" data-name="Group 172" transform="translate(4.858 10.812)">
            <path id="prefix__Path_1126" d="M103.5 308.973H80V304h23.5z" class="prefix__cls-1" data-name="Path 1126" transform="translate(-80 -286.444)"/>
            <path id="prefix__Path_1127" d="M277.595 33.729H272V32h5.595z" class="prefix__cls-1" data-name="Path 1127" transform="translate(-258.573 -32)"/>
        </g>
        <path id="prefix__Path_1128" d="M32.143 33.309v-20.06a2.682 2.682 0 0 0-2.679-2.679h-1.607V7.355h-22.5v3.214H3.75a2.682 2.682 0 0 0-2.679 2.679V32H0v2.679a2.682 2.682 0 0 0 2.679 2.68h27.857a2.682 2.682 0 0 0 2.679-2.679V32zm-15-15.24zm-1.072 0zM6.429 8.426h20.357v11.786h-8.572v.536a1.607 1.607 0 1 1-3.214 0v-.536H6.429zm-4.288 4.822a1.609 1.609 0 0 1 1.607-1.607h1.607v1.072H4.286a1.072 1.072 0 0 0-1.072 1.072v17.141h1.072V13.784h1.071v7.5h8.626a2.679 2.679 0 0 0 5.249 0h8.626v-7.5h1.072v17.142H30V13.784a1.072 1.072 0 0 0-1.072-1.072h-1.071v-1.071h1.607a1.609 1.609 0 0 1 1.609 1.607V32H2.141zm9.644 19.822h9.643v.536a.536.536 0 0 1-.536.536h-8.57a.536.536 0 0 1-.536-.536zm20.357 1.607a1.609 1.609 0 0 1-1.607 1.607H2.679a1.609 1.609 0 0 1-1.607-1.607v-1.608h9.643v.536a1.609 1.609 0 0 0 1.607 1.608h8.571a1.609 1.609 0 0 0 1.607-1.606v-.537h9.643z" class="prefix__cls-2" data-name="Path 1128"/>
        <path id="prefix__Rectangle_122" d="M0 0H5.477V0.913H0z" class="prefix__cls-2" data-name="Rectangle 122" transform="translate(18.203 12.874)"/>
        <path id="prefix__Rectangle_123" d="M0 0H5.477V0.913H0z" class="prefix__cls-2" data-name="Rectangle 123" transform="translate(18.203 15.056)"/>
        <path id="prefix__Rectangle_124" d="M0 0H2.738V0.913H0z" class="prefix__cls-2" data-name="Rectangle 124" transform="translate(18.286 17.238)"/>
        <path id="prefix__Rectangle_126" d="M0 0H5.477V0.913H0z" class="prefix__cls-2" data-name="Rectangle 126" transform="translate(9.535 10.844)"/>
        <path id="prefix__Rectangle_127" d="M0 0H5.477V0.913H0z" class="prefix__cls-2" data-name="Rectangle 127" transform="translate(9.535 12.874)"/>
        <path id="prefix__Rectangle_128" d="M0 0H5.477V0.913H0z" class="prefix__cls-2" data-name="Rectangle 128" transform="translate(9.535 15.056)"/>
        <path id="prefix__Rectangle_129" d="M0 0H5.477V0.913H0z" class="prefix__cls-2" data-name="Rectangle 129" transform="translate(9.535 17.238)"/>
        <path id="prefix__Rectangle_130" d="M0 0H0.913V0.913H0z" class="prefix__cls-2" data-name="Rectangle 130" transform="translate(2.282 34.16)"/>
        <path id="prefix__Rectangle_131" d="M0 0H0.913V0.913H0z" class="prefix__cls-2" data-name="Rectangle 131" transform="translate(4.564 34.16)"/>
        <path id="prefix__Rectangle_132" d="M0 0H0.913V0.913H0z" class="prefix__cls-2" data-name="Rectangle 132" transform="translate(6.548 34.16)"/>
    </g>
</svg>
