<svg xmlns="http://www.w3.org/2000/svg" width="30.001" height="30" viewBox="0 0 30.001 30">
    <defs>
        <style>
            .prefix__cls-4{fill:#ffc66c}.prefix__cls-5{fill:#414040}
        </style>
    </defs>
    <g id="prefix__price-tag_1_" data-name="price-tag (1)" transform="translate(.004)">
        <path id="prefix__Path_1148" d="M202.457 26.352a1.206 1.206 0 0 0-.735-.543l-4.883-1.262a1.712 1.712 0 0 0-.2.448l-2.132 7.64a1.127 1.127 0 0 0 .121.885l10.03 16.717 7.523-4.179a1.713 1.713 0 0 0 .665-2.388z" data-name="Path 1148" transform="translate(-183.702 -23.061)" style="fill:#ffcd60"/>
        <circle id="prefix__Ellipse_19" cx="1.454" cy="1.454" r="1.454" data-name="Ellipse 19" transform="translate(10.532 4.015)" style="fill:#fff"/>
        <path id="prefix__Path_1149" d="M139.991 224.161a1.807 1.807 0 0 1-.676-.672l-9.388-16.26v16.036a1.817 1.817 0 0 0 1.817 1.817h6.666a1.816 1.816 0 0 0 1.581-.921z" data-name="Path 1149" transform="translate(-122.441 -195.689)" style="fill:#ffbe35"/>
        <g id="prefix__Group_173" data-name="Group 173" transform="translate(13.929 15.337)">
            <circle id="prefix__Ellipse_20" cx="1.52" cy="1.52" r="1.52" class="prefix__cls-4" data-name="Ellipse 20" transform="translate(8.113 2.605)"/>
            <circle id="prefix__Ellipse_21" cx="1.52" cy="1.52" r="1.52" class="prefix__cls-4" data-name="Ellipse 21"/>
        </g>
        <path id="prefix__Path_1150" d="M29.681 20.372L19.628 2.96a1.747 1.747 0 0 0-1.066-.819L10.89.081a2.346 2.346 0 0 0-.782-.075.6.6 0 0 0-.069 0h-7.9a2.145 2.145 0 0 0-.357 4.26l2.869.484-1.562 1.557a1.746 1.746 0 0 0-.515 1.243v20.106A2.346 2.346 0 0 0 4.918 30h10.9a2.348 2.348 0 0 0 1.727-.762l.064.02a2.357 2.357 0 0 0 .61.081 2.33 2.33 0 0 0 1.168-.315l9.439-5.45a2.343 2.343 0 0 0 .858-3.2zM1.979 3.105a.973.973 0 0 1 .162-1.932h6.087L5.67 3.729zm5.561.412l-.135.5-.316-.053zm-.981 25.31v-5.154a.586.586 0 1 0-1.172 0v5.155h-.469a1.173 1.173 0 0 1-1.172-1.172V7.55a.582.582 0 0 1 .172-.415l2.153-2.15 1.029.173-1.144 4.259a1.746 1.746 0 0 0 .175 1.335l10.052 17.412a2.354 2.354 0 0 0 .324.436 1.172 1.172 0 0 1-.691.227zm22.226-6.981a1.164 1.164 0 0 1-.546.712L18.8 28.007a1.172 1.172 0 0 1-1.6-.429L7.148 10.167a.582.582 0 0 1-.058-.445l1.173-4.368 1.752.3a1.994 1.994 0 1 0 .139-1.165l-1.587-.272.583-2.177a1.174 1.174 0 0 1 1.436-.829L15.03 2.4c0 .008.008.016.012.023l2.842 4.924a.586.586 0 0 0 1.016-.581l-2.27-3.931 1.629.437a.582.582 0 0 1 .355.273l10.052 17.413a1.164 1.164 0 0 1 .119.889zM11.4 5.876a.586.586 0 0 0 .1-1.164l-.09-.012a.825.825 0 0 1 .156-.117.815.815 0 0 1 .409-.11.821.821 0 1 1-.575 1.403z" class="prefix__cls-5" data-name="Path 1150"/>
        <path id="prefix__Path_1151" d="M367.374 297.043a2.126 2.126 0 1 0 2.9.779 2.126 2.126 0 0 0-2.9-.779zm1.947 2.077a.916.916 0 1 1-.647-1.12.914.914 0 0 1 .647 1.121z" class="prefix__cls-5" data-name="Path 1151" transform="translate(-345.138 -279.464)"/>
        <path id="prefix__Path_1152" d="M235.032 253.8a2.125 2.125 0 1 0 1.291.99 2.125 2.125 0 0 0-1.291-.99zm.333 2.29a.914.914 0 1 1-.091-.694.908.908 0 0 1 .091.699z" class="prefix__cls-5" data-name="Path 1152" transform="translate(-218.818 -238.944)"/>
        <path id="prefix__Path_1153" d="M321.086 236.384a.606.606 0 0 0-.606.606v8.956a.606.606 0 1 0 1.211 0v-8.956a.606.606 0 0 0-.605-.606z" class="prefix__cls-5" data-name="Path 1153" transform="translate(-301.731 -222.761)"/>
        <path id="prefix__Path_1154" d="M92.592 342.92a.606.606 0 1 0 .428.177.606.606 0 0 0-.428-.177z" class="prefix__cls-5" data-name="Path 1154" transform="translate(-86.608 -322.855)"/>
        <path id="prefix__Path_1155" d="M330.09 154.721a.606.606 0 1 0 .428.177.606.606 0 0 0-.428-.177z" class="prefix__cls-5" data-name="Path 1155" transform="translate(-310.209 -145.668)"/>
    </g>
</svg>
