<svg xmlns="http://www.w3.org/2000/svg" id="prefix__cross-tv-logo" width="17" height="17" viewBox="0 0 17 17">
    <path id="prefix__Path_186" d="M16.1 0H.9a.9.9 0 0 0-.9.9v15.2a.9.9 0 0 0 .9.9h15.2a.9.9 0 0 0 .9-.9V.9a.9.9 0 0 0-.9-.9zM2.756 13.393a1.227 1.227 0 1 1 1.227-1.227 1.227 1.227 0 0 1-1.227 1.227zm5.171-5.777h-.966v5.656H5.26V7.616h-.877V6.061h.877V3.607h1.7v2.454h.966zm4.6 5.712h-1.426L8.215 6.075h1.942l1.708 4.555 1.65-4.563h1.956z" data-name="Path 186" style="fill:#444f5e"/>
</svg>
