<svg xmlns="http://www.w3.org/2000/svg" width="16" height="18.286" viewBox="0 0 16 18.286">
    <g id="prefix__bag" transform="translate(-32)">
        <g id="prefix__Group_15" data-name="Group 15" transform="translate(32)">
            <path id="prefix__Path_181" d="M47.973 4a.551.551 0 0 0-.2-.457l-1.853-1.39.841-1.264A.573.573 0 0 0 46.286 0H33.714a.571.571 0 0 0-.475.888l.843 1.264-1.853 1.391a.551.551 0 0 0-.2.457H32v12a2.288 2.288 0 0 0 2.286 2.286h11.428A2.288 2.288 0 0 0 48 16V4zm-3.4 5.143a4.571 4.571 0 1 1-9.143 0V7.429a.571.571 0 1 1 1.143 0v1.714a3.429 3.429 0 0 0 6.857 0V7.429a.571.571 0 1 1 1.143 0zM34.286 3.429l.914-.686a.572.572 0 0 0 .133-.774l-.551-.826h10.435l-.55.826a.57.57 0 0 0 .133.774l.914.686z" data-name="Path 181" transform="translate(-32)" style="fill:#444f5e"/>
        </g>
    </g>
</svg>
