<svg xmlns="http://www.w3.org/2000/svg" width="26.794" height="24.56" viewBox="0 0 26.794 24.56">
    <defs>
        <style>
            .prefix__cls-1{fill:#444f5e}
        </style>
    </defs>
    <g id="prefix__track" transform="translate(-.007 -21.31)">
        <g id="prefix__Group_28" data-name="Group 28" transform="translate(.007 21.31)">
            <g id="prefix__Group_27" data-name="Group 27">
                <path id="prefix__Path_229" d="M286.523 281.4a.523.523 0 10.523.523.525.525 0 00-.523-.523z" class="prefix__cls-1" data-name="Path 229" transform="translate(-271.033 -267.788)"/>
                <path id="prefix__Path_230" d="M110.188 213.33a13.059 13.059 0 01-2.617-3.972 4.478 4.478 0 00-8.269 0 12.72 12.72 0 01-2.8 4.145l-.005.005a4.485 4.485 0 00-1.5 3.339 4.439 4.439 0 002.025 3.763 4.976 4.976 0 004.072.659 9.063 9.063 0 012.329-.293 8.865 8.865 0 012.366.3 4.918 4.918 0 004.051-.638 4.508 4.508 0 00.345-7.311zm-.921 6.442a3.891 3.891 0 01-3.192.5 9.887 9.887 0 00-2.648-.34 10.037 10.037 0 00-2.606.33 3.938 3.938 0 01-3.213-.518 3.409 3.409 0 01-1.56-2.894 3.462 3.462 0 011.141-2.559 13.491 13.491 0 003.072-4.517c0-.005 0-.005.005-.01a3.436 3.436 0 016.343 0c0 .005 0 .005.005.01a14.126 14.126 0 002.863 4.318c.016.016.031.026.047.042a3.462 3.462 0 01-.256 5.636z" class="prefix__cls-1" data-name="Path 230" transform="translate(-90.029 -196.903)"/>
                <path id="prefix__Path_231" d="M305.844 316.921a.522.522 0 10-.874.57 14.654 14.654 0 001.93 2.409.522.522 0 00.733-.743 14.022 14.022 0 01-1.789-2.236z" class="prefix__cls-1" data-name="Path 231" transform="translate(-288.929 -301.227)"/>
                <path id="prefix__Path_232" d="M122.981 28.459a5.331 5.331 0 00.576-3.2c-.267-2.25-1.816-4.134-3.554-3.93a2.675 2.675 0 00-1.963 1.45 5.331 5.331 0 00-.576 3.2c.436 3.678 3.858 5.379 5.517 2.48zm-4.03-5.16a1.605 1.605 0 011.308-.937c1.031 0 2.062 1.382 2.256 3.02a4.273 4.273 0 01-.445 2.559c-1.2 2.109-3.281.33-3.564-2.083a4.265 4.265 0 01.445-2.558z" class="prefix__cls-1" data-name="Path 232" transform="translate(-111.279 -21.31)"/>
                <path id="prefix__Path_233" d="M6.7 168.5a4.743 4.743 0 00-.518-2.9 4.757 4.757 0 00-2.067-2.1 2.842 2.842 0 00-2.6-.063 2.829 2.829 0 00-1.45 2.156 4.743 4.743 0 00.518 2.9 4.757 4.757 0 002.067 2.1 2.827 2.827 0 002.6.063A2.83 2.83 0 006.7 168.5zm-1.931 1.225a1.818 1.818 0 01-1.659-.073 3.717 3.717 0 01-1.6-1.643 3.712 3.712 0 01-.413-2.256 1.8 1.8 0 01.9-1.392 1.84 1.84 0 011.659.073 3.717 3.717 0 011.6 1.643 3.712 3.712 0 01.413 2.256 1.828 1.828 0 01-.905 1.394z" class="prefix__cls-1" data-name="Path 233" transform="translate(-.007 -155.723)"/>
                <path id="prefix__Path_234" d="M279.669 30.209c1.586 0 3.035-1.732 3.3-3.946.277-2.355-.911-4.663-2.795-4.663-1.586 0-3.035 1.732-3.3 3.946-.274 2.354.911 4.663 2.795 4.663zm-1.753-4.543c.194-1.638 1.23-3.02 2.256-3.02a.927.927 0 01.126.005 1.77 1.77 0 011.246 1.047 4.356 4.356 0 01.382 2.439c-.2 1.7-1.324 3.151-2.386 3.014h-.005a1.755 1.755 0 01-1.24-1.047 4.4 4.4 0 01-.379-2.438z" class="prefix__cls-1" data-name="Path 234" transform="translate(-262.347 -21.585)"/>
                <path id="prefix__Path_235" d="M389.9 165.591a2.7 2.7 0 00-4.051-2.093 4.983 4.983 0 00-2.585 5.008 2.7 2.7 0 004.051 2.093 4.983 4.983 0 002.585-5.008zm-3.046 4.072a1.817 1.817 0 01-1.659.073 1.837 1.837 0 01-.9-1.392 3.934 3.934 0 012.015-3.9 1.663 1.663 0 012.554 1.319 3.943 3.943 0 01-2.011 3.9z" class="prefix__cls-1" data-name="Path 235" transform="translate(-363.156 -155.727)"/>
            </g>
        </g>
    </g>
</svg>
