<svg xmlns="http://www.w3.org/2000/svg" width="46.396" height="32" viewBox="0 0 46.396 32">
    <defs>
        <style>
            .prefix__cls-3{fill:#fff}
        </style>
    </defs>
    <g id="prefix__american-express" transform="translate(0 -79.4)">
        <path id="prefix__Path_36" d="M46.387 108.746a2.743 2.743 0 0 1-2.745 2.745H2.745A2.755 2.755 0 0 1 0 108.746v-26.51A2.741 2.741 0 0 1 2.745 79.5h40.906a2.749 2.749 0 0 1 2.749 2.745v26.5z" data-name="Path 36" transform="translate(0 -.091)" style="fill:#306fc5"/>
        <path id="prefix__Path_37" d="M1.96 108.655v-26.51A2.758 2.758 0 0 1 4.722 79.4h-1.96A2.764 2.764 0 0 0 0 82.145v26.51a2.758 2.758 0 0 0 2.762 2.745h1.96a2.764 2.764 0 0 1-2.762-2.745z" data-name="Path 37" style="fill:#202121;opacity:.15"/>
        <g id="prefix__Group_14" data-name="Group 14" transform="translate(3.346 88.76)">
            <path id="prefix__Path_38" d="M74.6 203.069h1.395l-.7-1.769z" class="prefix__cls-3" data-name="Path 38" transform="translate(-71.145 -199.65)"/>
            <path id="prefix__Path_39" d="M155.9 286.1v.82h2.352v.893H155.9v.948h2.607l1.2-1.331-1.14-1.331z" class="prefix__cls-3" data-name="Path 39" transform="translate(-145.12 -276.719)"/>
            <path id="prefix__Path_40" d="M349.357 201.3l-.757 1.769h1.45z" class="prefix__cls-3" data-name="Path 40" transform="translate(-320.379 -199.65)"/>
            <path id="prefix__Path_41" d="M213.941 284.819V281.2l-1.641 1.778z" class="prefix__cls-3" data-name="Path 41" transform="translate(-196.412 -272.266)"/>
            <path id="prefix__Path_42" d="M244.133 286.674a.644.644 0 0 0-.7-.574H242.1v1.14h1.395c.383 0 .638-.192.638-.566z" class="prefix__cls-3" data-name="Path 42" transform="translate(-223.517 -276.719)"/>
            <path id="prefix__Path_43" d="M295.378 287.657a.5.5 0 0 0 .191-.447.355.355 0 0 0-.191-.447 1.244 1.244 0 0 0-.511-.064H293.6v1.012h1.267a1.116 1.116 0 0 0 .511-.054z" class="prefix__cls-3" data-name="Path 43" transform="translate(-270.358 -277.264)"/>
            <path id="prefix__Path_44" d="M70.757 183.2v.757l-.38-.757h-2.958v.757l-.38-.757h-4.025a3.817 3.817 0 0 0-1.764.383v-.383h-2.832v.383a1.791 1.791 0 0 0-1.194-.383H47.111l-.7 1.586-.687-1.586h-3.208v.757l-.316-.757h-2.768l-1.257 2.981-1.447 3.236-.027.064h3.275l.027-.064.38-.948h.817l.38 1.012h3.645v-.757l.317.757h1.827l.317-.757v.757h8.747v-1.65h.127c.127 0 .127 0 .127.191v1.395h4.532v-.383a3.726 3.726 0 0 0 1.7.383H64.8l.38-1.012h.877l.38 1.012h3.645v-.957l.57.948h2.958V183.2zm-21.32 5.324h-1.014v-3.492l-.063.146-1.465 3.346h-.914l-1.511-3.483v3.483h-2.144l-.443-.948h-2.135l-.443.948H38.2l1.863-4.44h1.574l1.764 4.248v-4.248h1.673l.027.064.8 1.741.57 1.3.018-.064 1.257-3.045h1.7l-.009 4.44zm4.342-3.483h-2.452v.82h2.388v.884h-2.388v.884h2.451v.948h-3.519v-4.5h3.519v.966zm4.487 1.632a.251.251 0 0 1 .063.082 1.257 1.257 0 0 1 .226.748v1.03h-.941v-.52a1.488 1.488 0 0 0-.19-.884.551.551 0 0 0-.181-.128 1.2 1.2 0 0 0-.57-.064h-1.131v1.586h-1.067v-4.44h2.388a2.375 2.375 0 0 1 1.257.191 1.049 1.049 0 0 1 .5.985 1.253 1.253 0 0 1-.751 1.167.972.972 0 0 1 .396.247zm2.117 1.851h-1.069v-4.44h1.067zm12.266 0h-1.386l-2.008-3.364v2.79l-.009-.009v.583H67.12l-.38-.948h-2.2l-.38 1.012h-1.2a2.177 2.177 0 0 1-1.511-.511 2.231 2.231 0 0 1-.57-1.714 2.606 2.606 0 0 1 .57-1.778 1.965 1.965 0 0 1 1.574-.511h1v.948h-1a1.125 1.125 0 0 0-.814.255 1.5 1.5 0 0 0-.317 1.012 1.373 1.373 0 0 0 .317 1.076 1 1 0 0 0 .751.255h.44l1.447-3.483h1.574l1.764 4.248v-4.248h1.574l1.827 3.109v-3.109h1.067l-.009 4.385z" class="prefix__cls-3" data-name="Path 44" transform="translate(-36.7 -183.2)"/>
            <path id="prefix__Path_45" d="M246.842 204.293a.277.277 0 0 0 .046-.064.687.687 0 0 0 .091-.474c0-.018-.009-.036-.009-.055v-.018a.354.354 0 0 0-.191-.219 1.244 1.244 0 0 0-.511-.064H245v1.012h1.267a1.244 1.244 0 0 0 .511-.064.191.191 0 0 0 .055-.036c-.01.001-.001-.011.009-.018z" class="prefix__cls-3" data-name="Path 45" transform="translate(-226.155 -201.558)"/>
            <path id="prefix__Path_46" d="M165.006 268.748a2.409 2.409 0 0 0-.319-1.2V264.5h-3.054a1.817 1.817 0 0 0-.875.383v-.383h-2.918a2 2 0 0 0-1.267.383v-.383h-5.2v.383a2.44 2.44 0 0 0-1.395-.383h-3.419v.383a2.4 2.4 0 0 0-1.459-.383h-3.8l-.884.948-.82-.948h-5.7v6.409h5.579l.921-.921.793.921h3.555v-1.459h.319a3.836 3.836 0 0 0 1.459-.191v1.714h2.854v-1.65h.128c.191 0 .191 0 .191.191v1.459h8.624a2.471 2.471 0 0 0 1.459-.383v.383h2.726a2.833 2.833 0 0 0 1.522-.319 2.114 2.114 0 0 0 1-1.7c0-.018.009-.046.009-.064a.207.207 0 0 1-.029-.142zm-19.966-.374h-1.267v1.65h-2.088l-1.213-1.395v.009l-.055-.064-1.4 1.44h-4.057v-4.44h4.121l1.121 1.231.237.255.036-.036 1.331-1.459h3.364a1.648 1.648 0 0 1 1.659.82 1.618 1.618 0 0 1 .055.447c-.011 1.287-.895 1.543-1.843 1.543zm6.336-.064a1.435 1.435 0 0 1 .191.82v.884h-1.076v-.574a1.4 1.4 0 0 0-.191-.884c-.128-.191-.383-.191-.757-.191H148.4v1.65h-1.076v-4.5h2.407a2.532 2.532 0 0 1 1.269.185 1.124 1.124 0 0 1 .574 1.012 1.274 1.274 0 0 1-.757 1.2 1.164 1.164 0 0 1 .56.399zm4.376-1.842h-2.471v.82h2.407v.884h-2.407v.884h2.471v.957h-3.546v-4.5h3.546zm2.662 3.546h-2.033v-.948h2.033a.538.538 0 0 0 .447-.128.463.463 0 0 0 0-.638.539.539 0 0 0-.383-.128c-1.012-.064-2.215 0-2.215-1.395 0-.638.383-1.331 1.522-1.331h2.088v1.076H157.9a.946.946 0 0 0-.447.064c-.128.064-.128.191-.128.319 0 .191.128.255.255.319a.809.809 0 0 0 .383.064h.574a1.6 1.6 0 0 1 1.2.383 1.312 1.312 0 0 1 .319.948c.009.959-.565 1.397-1.641 1.397zm5.452-.438a1.836 1.836 0 0 1-1.331.447h-2.024v-.948h2.024a.538.538 0 0 0 .447-.128.463.463 0 0 0 0-.638.539.539 0 0 0-.383-.128c-1.012-.064-2.215 0-2.215-1.395a1.3 1.3 0 0 1 1.194-1.313 1.836 1.836 0 0 1 .328-.027h2.088v1.076h-1.969a.946.946 0 0 0-.447.064.487.487 0 0 0-.128.319c0 .191.064.255.255.319a.809.809 0 0 0 .383.064h.574a2.064 2.064 0 0 1 .675.1 1.355 1.355 0 0 1 .884 1 1.775 1.775 0 0 1 .018.228 1.257 1.257 0 0 1-.372.962z" class="prefix__cls-3" data-name="Path 46" transform="translate(-125.329 -257.088)"/>
        </g>
    </g>
</svg>
