<svg xmlns="http://www.w3.org/2000/svg" width="29.65" height="21.743" viewBox="0 0 29.65 21.743">
    <defs>
        <style>
            .prefix__cls-1{fill:#444f5e}
        </style>
    </defs>
    <g id="prefix__payment_1_" data-name="payment (1)" transform="translate(0 -64)">
        <path id="prefix__Path_236" d="M27.179 64H6.424a2.47 2.47 0 0 0-2.471 2.471v.494H2.471A2.47 2.47 0 0 0 0 69.436v13.836a2.47 2.47 0 0 0 2.471 2.471h20.755a2.47 2.47 0 0 0 2.474-2.471v-.494h1.482a2.47 2.47 0 0 0 2.471-2.471V66.471A2.47 2.47 0 0 0 27.179 64zM.988 69.436a1.479 1.479 0 0 1 1.482-1.482h20.756a1.479 1.479 0 0 1 1.482 1.482v.988H.988zm0 1.977h23.72v.987H.988zm23.72 11.86a1.479 1.479 0 0 1-1.482 1.482H2.471a1.479 1.479 0 0 1-1.483-1.483v-9.883h23.72zm3.953-2.965a1.479 1.479 0 0 1-1.482 1.482H25.7V69.436a2.47 2.47 0 0 0-2.471-2.471H4.942v-.494a1.479 1.479 0 0 1 1.482-1.482h20.755a1.479 1.479 0 0 1 1.482 1.482z" class="prefix__cls-1" data-name="Path 236"/>
        <path id="prefix__Path_237" d="M244.754 304a1.96 1.96 0 0 0-1.482.686 1.978 1.978 0 1 0 0 2.594 1.975 1.975 0 1 0 1.482-3.28zm-2.965 2.965a.988.988 0 1 1 .988-.988.991.991 0 0 1-.988.988zm2.965 0a.988.988 0 1 1 .988-.988.991.991 0 0 1-.988.988z" class="prefix__cls-1" data-name="Path 237" transform="translate(-224.987 -225.175)"/>
    </g>
</svg>
