<svg xmlns="http://www.w3.org/2000/svg" width="84.174" height="25.689" viewBox="0 0 84.174 25.689"><defs><style>.a{fill:#d4002a;}</style></defs><path class="a" d="M81.689,2.543V1.874h.382c.221,0,.47.063.47.32,0,.284-.275.349-.522.349Zm-.423,1.322h.423V2.884H82l.543.981h.512L82.42,2.838a.626.626,0,0,0,.543-.634c0-.5-.434-.688-.883-.688h-.814ZM80.321,2.7a1.762,1.762,0,1,1,1.754,1.763A1.758,1.758,0,0,1,80.321,2.7Zm-.331,0A2.092,2.092,0,1,0,82.075.619,2.063,2.063,0,0,0,79.99,2.7Zm-30.4,22.368h5.938V.619H49.589ZM47.223.619H40.7L35.036,18.287,29.271.619H22.642L31.9,25.067h5.9L47.223.619ZM26.245,25.067,16.246.619H10.364L0,25.067H6.532l1.793-4.8H17.79l1.9,4.8ZM16.164,15.539H10.02l3.1-8.391ZM73.951,6.72a6.372,6.372,0,0,0-4.493-1.853c-1.519,0-3.419.52-3.419,2.454,0,1.621,1.452,2.17,3.766,2.9,3.314,1.071,7.6,2.454,7.6,7.322,0,5.627-4.524,8.148-9.357,8.148a12.891,12.891,0,0,1-9.151-3.522l3.62-3.715a7.744,7.744,0,0,0,5.531,2.369c1.794,0,3.383-.693,3.383-2.659,0-1.865-1.866-2.488-5.077-3.529-3.105-1-6.248-2.55-6.248-6.967C60.1,2.244,65,0,69.561,0a12.239,12.239,0,0,1,8.012,3L73.951,6.72" transform="translate(0 0)"/></svg>