<svg xmlns="http://www.w3.org/2000/svg" width="21.095" height="17.458" viewBox="0 0 21.095 17.458">
    <path id="prefix__dinner" d="M36.728 56h.364v9.456h-2.91v-6.91A2.549 2.549 0 0 1 36.728 56zm-1.091 16.73a.727.727 0 1 0 1.455 0v-6.546h-1.455zM18.179 62.547v2.91h.727v-2.91zM26.908 60A5.092 5.092 0 1 0 32 65.092 5.092 5.092 0 0 0 26.908 60zm-9.093 12.73a.727.727 0 1 0 1.455 0v-6.546h-1.455zM18.906 60v-2.932a.364.364 0 1 0-.727 0V60a.364.364 0 1 0 .727 0zm15.929 6.183A8 8 0 0 1 20 69.126V65.82a.364.364 0 0 0-.364-.364V61.8a1.73 1.73 0 0 1-.239.017h-1.7A1.694 1.694 0 0 1 16 60.026l.281-3.685a.364.364 0 1 1 .726.046l-.281 3.683a.967.967 0 0 0 .965 1.021h1.7a.967.967 0 0 0 .965-1.023l-.281-3.682a.364.364 0 1 1 .726-.046l.256 3.291a8 8 0 0 1 12.394.862v5.327a.364.364 0 0 0 .364.364zm-2.108-1.091a5.819 5.819 0 1 0-5.819 5.819 5.819 5.819 0 0 0 5.819-5.819z" transform="translate(-15.997 -56)" style="fill:#444f5e"/>
</svg>
