<svg xmlns="http://www.w3.org/2000/svg" width="17.055" height="15" viewBox="0 0 17.055 15">
    <path id="prefix__email" d="M15.223 30.9H1.832A1.835 1.835 0 0 0 0 32.732v8.794a1.835 1.835 0 0 0 1.832 1.832h4.314a.169.169 0 0 1 .133.067l1.576 2.135a.831.831 0 0 0 .666.34.825.825 0 0 0 .666-.333l1.613-2.142a.169.169 0 0 1 .133-.067h4.29a1.835 1.835 0 0 0 1.832-1.832v-8.794a1.833 1.833 0 0 0-1.832-1.832zm.833 10.626a.731.731 0 0 1-.033.227l-5.133-4.5 5.167-4.287zm-.833-9.626a.816.816 0 0 1 .42.113l-6.582 5.46a.83.83 0 0 1-1.063 0l-6.582-5.464a.837.837 0 0 1 .416-.113zm-14.19 9.853A.866.866 0 0 1 1 41.526v-8.561l5.167 4.287zM10 42.822l-1.476 1.962-1.442-1.955a1.172 1.172 0 0 0-.939-.473H1.855l5.09-4.456.413.343a1.836 1.836 0 0 0 1.169.423 1.817 1.817 0 0 0 1.173-.424l.413-.343 5.087 4.46h-4.267a1.179 1.179 0 0 0-.933.463z" transform="translate(0 -30.9)" style="fill:#1ba0ff"/>
</svg>
