<svg xmlns="http://www.w3.org/2000/svg" id="prefix__share" width="15" height="15" viewBox="0 0 15 15">
    <path id="prefix__Path_312" d="M268.586 4.676a.391.391 0 0 1-.391-.391V.781h-3.5a.391.391 0 0 1 0-.781h3.895a.391.391 0 0 1 .391.391v3.894a.391.391 0 0 1-.395.391zm0 0" data-name="Path 312" transform="translate(-253.977)" style="fill:#00acea"/>
    <path id="prefix__Path_313" d="M152.994 11.039a.391.391 0 0 1-.277-.666l8.18-8.258a.391.391 0 1 1 .555.55l-8.18 8.258a.39.39 0 0 1-.278.116zm0 0" data-name="Path 313" transform="translate(-146.643 -1.921)" style="fill:#1ba0ff"/>
    <path id="prefix__Path_314" d="M12.662 56.29a.391.391 0 0 0-.391.391v4.278A1.173 1.173 0 0 1 11.1 62.13H1.953a1.173 1.173 0 0 1-1.172-1.171v-9.146a1.173 1.173 0 0 1 1.172-1.172h4.278a.391.391 0 0 0 0-.781H1.953A1.955 1.955 0 0 0 0 51.813v9.146a1.955 1.955 0 0 0 1.953 1.953H11.1a1.955 1.955 0 0 0 1.953-1.953v-4.278a.391.391 0 0 0-.391-.391zm0 0" data-name="Path 314" transform="translate(0 -47.912)" style="fill:#444f5e"/>
</svg>
