<svg xmlns="http://www.w3.org/2000/svg" width="19.316" height="19.41" viewBox="0 0 19.316 19.41">
    <path id="prefix__Path_1121" d="M19.316 9.375a9.426 9.426 0 0 1-9.5 9.375 9.6 9.6 0 0 1-4.593-1.2L0 19.316l1.7-5.034A9.077 9.077 0 0 1 .315 9.438a9.5 9.5 0 1 1 19-.063zm-9.5-7.865a7.882 7.882 0 0 0-7.928 7.865A8.064 8.064 0 0 0 3.4 14.031l-1.009 2.957 3.083-.944a8.066 8.066 0 0 0 4.4 1.321 7.949 7.949 0 0 0 7.991-7.928A8.043 8.043 0 0 0 9.816 1.51zM14.6 11.577c-.063-.126-.189-.126-.44-.252s-1.384-.692-1.573-.755-.378-.126-.5.126a5.473 5.473 0 0 1-.755.881.368.368 0 0 1-.5.063 6.885 6.885 0 0 1-1.888-1.133 12.992 12.992 0 0 1-1.331-1.572.288.288 0 0 1 .126-.44l.378-.378c.126-.126.126-.252.252-.378a.4.4 0 0 0 0-.378c-.063-.126-.5-1.258-.692-1.7s-.378-.378-.5-.378h-.44A.956.956 0 0 0 6.1 5.6a2.558 2.558 0 0 0-.815 1.95 4.569 4.569 0 0 0 .944 2.391 9.7 9.7 0 0 0 3.964 3.459c2.391.944 2.391.629 2.768.566a2.479 2.479 0 0 0 1.573-1.07 3.2 3.2 0 0 0 .066-1.319z" data-name="Path 1121" transform="translate(0 .094)" style="fill:#1ba0ff"/>
</svg>
