<svg xmlns="http://www.w3.org/2000/svg" width="43.925" height="51.264" viewBox="0 0 43.925 51.264"><defs><style>.a{fill:#1ba0ff;}.b{fill:#414040;}.c,.e{fill:none;}.c{stroke:#fff;}.d{stroke:none;}</style></defs><g transform="translate(0 0.016)"><path class="a" d="M-249.727-1362.222a44.272,44.272,0,0,0,.863,4.761c.193.075,3.4,5.815,3.4,5.815l2.444,2.793,4.447-5.846,2.122-5.534-.408-4.346-2.747-3.147-3.414-.684-2.444.406-2.942,2.1Z" transform="translate(278 1369)"/><g transform="translate(-36.578)"><path class="b" d="M59.734,51.217A21.964,21.964,0,0,0,75.923,15.861c1.522-2.466,2.909-5.532,2.909-8.518a7.269,7.269,0,0,0-.766-3.268c-.185-.371-1.529.3-1.344.669a5.781,5.781,0,0,1,.608,2.6c0,4.843-4.3,10.21-5.841,11.978-1.37-1.57-4.918-5.98-5.69-10.345a.066.066,0,0,0-.006-.034,9.347,9.347,0,0,1-.144-1.6A5.848,5.848,0,0,1,71.489,1.5a5.517,5.517,0,0,1,5.233,3.242c.342.235,1.344-.669,1.344-.669A6.618,6.618,0,0,0,71.489,0a7.351,7.351,0,0,0-7.342,7.342c0,.236.01.473.026.71C50,4.3,35.565,16.048,36.634,30.887A22.04,22.04,0,0,0,42.5,44.29c.551.589,1.883-.185,1.1-1.026a20.453,20.453,0,0,1-3.708-5.549l1.39-3.639a6.011,6.011,0,0,0,.392-2.431L41.5,27.913a4.558,4.558,0,0,1,.487-2.262l1.774-3.5a6.024,6.024,0,0,0,.4-4.477l-.672-2.236a20.557,20.557,0,0,1,6.753-4.855l1.381,4.98a5.47,5.47,0,0,0,4.234,3.889,3.912,3.912,0,0,1,2.934,2.424l.069.174a5.445,5.445,0,0,0,3.132,3.09l7.378,2.794a.632.632,0,0,1,.4.518l.382,3.193A2.16,2.16,0,0,0,73.9,32.78l1.168-1.366a3.928,3.928,0,0,1,2.99-1.378h.93a20.342,20.342,0,0,1-3.7,10.988l-.443-.635A3.4,3.4,0,0,0,70,39.664l-3.867,3.019a1.87,1.87,0,0,1-1.553.354l-5.258-1.145a3.359,3.359,0,0,0-3.124.93l-5.354,5.436a20.438,20.438,0,0,1-4.716-2.7.751.751,0,1,0-.912,1.193,22.116,22.116,0,0,0,14.516,4.467ZM42.723,18.108a4.529,4.529,0,0,1-.3,3.366l-1.774,3.5A6.062,6.062,0,0,0,40,27.981l.168,3.732a4.521,4.521,0,0,1-.295,1.828l-.8,2.084a20.57,20.57,0,0,1,3.26-18.815Zm31.2,12.33L72.757,31.8a.636.636,0,0,1-1.112-.337l-.382-3.193A2.129,2.129,0,0,0,69.9,26.531l-7.378-2.794A3.941,3.941,0,0,1,60.256,21.5l-.069-.174a5.4,5.4,0,0,0-4.053-3.349,3.959,3.959,0,0,1-3.064-2.814l-1.426-5.141a20.586,20.586,0,0,1,12.764-.343c1.216,5.692,6.3,11.029,6.541,11.283a.751.751,0,0,0,1.082,0A32.483,32.483,0,0,0,75.049,17.2a20.52,20.52,0,0,1,3.939,11.338h-.931a5.427,5.427,0,0,0-4.131,1.9ZM52.407,48.812l4.862-4.936A1.867,1.867,0,0,1,59,43.359L64.262,44.5a3.366,3.366,0,0,0,2.8-.638l3.867-3.019a1.875,1.875,0,0,1,2.691.4l.719,1.029A20.636,20.636,0,0,1,52.411,48.8Z"/><g class="c" transform="translate(68.578 5.133)"><circle class="d" cx="3" cy="3" r="3"/><circle class="e" cx="3" cy="3" r="2.5"/></g></g></g></svg>