<svg xmlns="http://www.w3.org/2000/svg" width="50.982" height="50.978" viewBox="0 0 50.982 50.978"><defs><style>.a{fill:#1ba0ff;}.b{fill:#414040;}.c,.e{fill:none;}.c{stroke:#fff;}.d{stroke:none;}</style></defs><circle class="a" cx="9.5" cy="9.5" r="9.5" transform="translate(16 1)"/><g transform="translate(0 -0.01)"><path class="b" d="M45.892,12.4H35.423A10.178,10.178,0,0,0,25.491.01c-1.463,0-3.706.174-7,2.878l-1.145,1.2c4.017-2.284.579-.772,0,0A10.183,10.183,0,0,0,15.56,12.4H5.091A5.1,5.1,0,0,0,0,17.509v20.8a5.1,5.1,0,0,0,5.091,5.1H6.53v6.832a.751.751,0,0,0,1.242.559l8.334-7.39H38.6a.747.747,0,1,0,0-1.494H15.823a.747.747,0,0,0-.5.188l-7.3,6.477V42.667a.747.747,0,0,0-.747-.747H5.091a3.609,3.609,0,0,1-3.6-3.612v-20.8a3.609,3.609,0,0,1,3.6-3.612H16.016a10.2,10.2,0,0,0,2.061,3.251c.008.009.014.019.022.027a10.167,10.167,0,0,0,14.766.018l.02-.025a10.2,10.2,0,0,0,2.08-3.271H45.891a3.609,3.609,0,0,1,3.6,3.612v20.8a3.608,3.608,0,0,1-3.6,3.612H43.016a.747.747,0,0,0,0,1.494h2.875a5.1,5.1,0,0,0,5.091-5.1v-20.8a5.1,5.1,0,0,0-5.09-5.109Z"/><path class="b" d="M81.282,228.809h33.491a.747.747,0,1,0,0-1.494H81.282a.747.747,0,0,0,0,1.494Z" transform="translate(-72.537 -204.671)"/><path class="b" d="M115.52,278.752a.747.747,0,0,0-.747-.747H81.282a.747.747,0,1,0,0,1.494h33.491A.747.747,0,0,0,115.52,278.752Z" transform="translate(-72.537 -250.314)"/><path class="b" d="M81.282,328.7a.747.747,0,1,0,0,1.494h20.1a.747.747,0,0,0,0-1.494Z" transform="translate(-72.537 -295.956)"/></g><circle class="a" cx="10.5" cy="10.5" r="10.5" transform="translate(15)"/><g class="c" transform="translate(21 5)"><circle class="d" cx="4.5" cy="4.5" r="4.5"/><circle class="e" cx="4.5" cy="4.5" r="4"/></g><path class="c" d="M-682.99-1445.47s2.619-5.208,6.887-4.974,7.094,4.974,7.094,4.974" transform="translate(702.06 1464.452)"/></svg>