<svg xmlns="http://www.w3.org/2000/svg" width="592.137" height="366.79" viewBox="0 0 592.137 366.79"><defs><style>.a{fill:#1ba0ff;}.a,.aa,.ab,.b,.c,.d,.e,.f,.g,.h,.i,.j,.k,.n,.o,.p,.q,.r,.s,.t,.u,.v,.w,.x,.y,.z{fill-rule:evenodd;}.b{fill:#0e79c6;}.c{fill:#e6e6e6;}.d{fill:#fff;}.e{fill:#fc0;}.f{fill:#ffb900;}.g{fill:#ea8e00;}.h{fill:#ff4646;}.i{fill:#ffe45f;}.j{fill:#f1f1f1;}.ab,.l,.m{fill:none;}.l,.m{stroke:#ea8e00;stroke-miterlimit:22.926;}.l{stroke-width:2.835px;}.m{stroke-width:2.126px;}.n{fill:#333;}.o{fill:#666;}.p{fill:#ff6;}.q{fill:#fa0;}.r{fill:#ccc;}.s{fill:#039;}.t{fill:#00258b;}.u{fill:#630;}.v{fill:#006;}.w{fill:#fc9;}.x{fill:#ffba87;}.y{fill:#f96;}.z{fill:#f63;}.aa{fill:#ea511e;}.ab{stroke:#000;stroke-miterlimit:10;stroke-width:0.342px;}</style></defs><g transform="translate(-0.004)"><g transform="translate(19.929)"><path class="a" d="M371.974,103.343C509.546,56.676,644.32,87.394,673.005,171.953S613.419,362.894,475.849,409.562,203.5,425.51,174.818,340.951,234.4,150.011,371.974,103.344Z" transform="translate(-106.202 -66.417)"/><g transform="translate(1.125 53.771)"><path class="b" d="M628.655,140.7c16.811-5.7,33.076-2.546,36.332,7.05s-7.732,22-24.542,27.7-33.077,2.546-36.333-7.05,7.733-22,24.544-27.7Z" transform="translate(-94.472 -118.52)"/><path class="b" d="M604.567,120.3c8.546,2.931,13.794,10.207,11.721,16.251s-10.682,8.565-19.227,5.635-13.794-10.207-11.72-16.251,10.68-8.566,19.226-5.635Z" transform="translate(-95.024 -119.076)"/><path class="b" d="M630.177,120.146c4.585-1.556,9.226-.089,10.367,3.273s-1.651,7.352-6.236,8.906-9.226.089-10.367-3.274,1.651-7.351,6.236-8.9Z" transform="translate(-93.875 -119.063)"/><path class="c" d="M152.566,239.677c-6.674,12.785-18,20.061-25.3,16.252s-7.806-17.264-1.131-30.049,18-20.061,25.3-16.251,7.805,17.264,1.13,30.048Z" transform="translate(-108.747 -116.425)"/><path class="c" d="M125.2,189.255c6.753,2.652,10.708,8.673,8.833,13.448s-8.87,6.5-15.623,3.847-10.709-8.674-8.834-13.448S118.449,186.6,125.2,189.255Z" transform="translate(-109.112 -117.036)"/><path class="c" d="M139.453,175.9c1.823-3.8,5.564-5.8,8.354-4.466s3.575,5.506,1.752,9.306-5.564,5.8-8.354,4.466-3.575-5.507-1.752-9.306Z" transform="translate(-108.243 -117.539)"/></g><g transform="translate(54.536 15.124)"><path class="c" d="M315.814,91.148C432.5,130.406,549.874,45.107,586.555,182c21.429,79.973-140.975,107.583-236.089,119.863s-179.459-30.446-188.4-95.425,37.057-154.553,153.744-115.3Z" transform="translate(-160.988 -81.541)"/><path class="d" d="M199.012,102.94l-8.657,35.231,103.8,26.67-5.961-80.936q3.561.643,7.223,1.458l.608,8.227,55.3,12.98,1.138-6.847c2.358.342,4.712.662,7.063.936l-1.156,6.976,55.185,4.387,1.221-9.74q3.612-.121,7.2-.272l-1.36,10.853,30.22,4.625,1.839-16.981q3.606-.164,7.153-.295L447.6,213.019l30.028,3.9L488.356,100.1q3.578.153,7.077.42L485.255,211.29l4.685.976,3.053-31.851,52.4,16.13.863-80.232a76.619,76.619,0,0,1,7,5.443l-.561,52.024,30.124-3.938c.877,2.6,1.706,5.335,2.513,8.13l-32.732,4.279-.715,66.154q-3.43,2.136-7.108,4.169l.22-20.3-60.526-12.6-.745,8.122L473.2,266.371l5.894,11.416q-3.622,1-7.285,1.961l-6.345-12.288,11.32-41.444.068-.74-30.162-3.914-4.357,40.232-34.121-5.564-4.379,37.936q-3.657.615-7.273,1.194l5.723-49.613-.617-34.516-55.682-13.557-2.695,93.754,10.017,3.226,23.179,3.777c-9.1,1.32-17.858,2.5-26.105,3.568-.326.042-.651.077-.979.117l-36.639-11.8,1.334,13.751q-3.592-.056-7.147-.21l-1.468-15.135-52.039-1.812-1.579,7.584q-3.454-1.069-6.817-2.252l1.163-5.584-16.456-.576a158.834,158.834,0,0,1-16.9-8.987l35.1,1.219,5.891-28.3L213.3,248.051l-7.387,24.315q-3.16-2.2-6.127-4.539L209.757,235l-7-6.907,13.936-36.072-37.4-8.79L168.2,228.37a84.518,84.518,0,0,1-4.307-12.427l25.5-103.8a93.146,93.146,0,0,1,9.621-9.2Zm16.8,136.825,42.622,1.852,42.5.066-2.965-30.559L223.814,193.7l-12.376,32.026,6.651,6.555-2.275,7.483Zm85.932,10.312-40.665-.063-5.9,28.357,49.482,1.718-2.912-30.012Zm-82.026-65.924L230.2,157.025l-41.841-10.753-7.088,28.846,38.448,9.035Zm17.556-25.312-10.426,26.987,70.267,16.513-.835-8.608-.014-.115-1.473-20-57.517-14.782Zm59.385-56.523,6.67,90.573h0l3.177,32.758,31.557,1.281,1.411-49.119,10.466-62.985L296.664,102.32Zm60.312,13.637L346.519,178.9l-.288,10.058,55.962,13.623L412.5,120.367l-55.52-4.413Zm62.58,5.211L416.6,144.715l30.581,6.342,2.734-25.244-30.363-4.645Zm-4,31.879-6.879,54.876.682,38.161-.192,1.631,27.067,4.413,10.039-92.7-30.72-6.371Zm81.364,60.675L545.1,223.749l.2-18.554-46.2-14.221-2.18,22.746Zm-189.6,20.366,4.562,47.026,24.394,7.858,1.542-53.646Z" transform="translate(-160.902 -81.471)"/></g><g transform="translate(0 123.688)"><path class="c" d="M210.665,380.487c-62.55,1.783-102.645,4.528-102.645,7.609,0,3.448,50.241,6.479,126,8.2a145.614,145.614,0,0,1-23.357-15.814Z" transform="translate(-108.02 -181.254)"/><path class="e" d="M248.032,253.664c-24.92,8.181-67.155,12.555-97.781,21.873S108.02,302.17,108.02,307.116v30.247c0,7.99,10.169,15.887,25.491,24.73s28.915,7.04,36.715,7.04h3.348a50,50,0,1,1,94.1,0h264.52a50.012,50.012,0,0,1,87.288-46.659,259.437,259.437,0,0,0,25.1-28.171,47.868,47.868,0,0,1-.485-6.4c0-19.213-37.1-57.451-42.994-63.539s-13.316-13.316-12.555-16.17,8.9-1.343,9.511-3.614-18.071-6.088-38.808-9.513-83.891-9.891-125.935-7.606-65.632,8.18-99.113,23.78-53.457,29.106-86.177,42.422Z" transform="translate(-108.02 -186.984)"/><path class="f" d="M394.452,326.1c-53.171,0-96.275,1.2-96.275,2.686s43.1,2.686,96.275,2.686,96.274-1.2,96.274-2.686S447.623,326.1,394.452,326.1Z" transform="translate(-102.389 -182.865)"/><path class="g" d="M629.9,285.658c0-.21-.009-.421-.009-.63,0-.288-.01-.576-.026-.87a67.883,67.883,0,0,0-20.838,7.764c-1.919,1.136-3.909,2.57-6.044,4.1-4.272,3.07-9.114,6.556-15.05,8.8q.863.446,1.708.926c5.538-2.3,10.124-5.6,14.2-8.532,2.091-1.5,4.047-2.912,5.931-4.029a66.2,66.2,0,0,1,20.122-7.534Z" transform="translate(-93.809 -184.106)"/><path class="h" d="M627.832,277.629c-3.253-8.835-10.528-19.428-18.132-29.006-8.221-1.151-11.745-1.309-12.444.945-.923,2.974,14.606,24.337,22.851,26.948a27.149,27.149,0,0,0,7.721,1.112Z" transform="translate(-93.534 -185.182)"/><path class="d" d="M153.93,271.922q-1.906.54-3.762,1.1c-22.075,6.716-34.267,17.587-39.355,24.986,12.415,5.214,42.47-2.747,49.895-4.6,8.853-2.213,6.811-14.641,4.257-17.787-2.8-2.715-6.639-3.77-11.033-3.7Z" transform="translate(-107.937 -184.469)"/><path class="i" d="M588.175,256.078c-6.515,7.126-90.3,6.85-113.006,6.854-47.5.008-154.513,8.695-154.513,7.24,0-2.677,15.557-3.4,51.343-7.035,18.194-1.852,41.617-3.765,70.882-5.329,86.822-4.639,154.775-12.1,145.294-1.727Z" transform="translate(-101.724 -185.092)"/><path class="j" d="M146.254,277.006c-4.183,0-11.053,4.459-15.343,9.959s-4.376,9.958-.192,9.958,11.054-4.458,15.344-9.958,4.376-9.959.192-9.959Z" transform="translate(-107.44 -184.318)"/><path class="k" d="M567.019,302.6A46.145,46.145,0,0,0,529.3,375.342c28.912-15.542,54.286-33.78,75.15-53.58A46.085,46.085,0,0,0,567.019,302.6Z" transform="translate(-95.795 -183.56)"/><path class="k" d="M218.713,302.6a46.145,46.145,0,1,0,46.145,46.145A46.145,46.145,0,0,0,218.713,302.6Z" transform="translate(-106.109 -183.56)"/><path class="d" d="M541.615,207.719c6.391,5.272,15.337,30.194,16.935,39.3,0,0-103.686,5.112-119.183,7.029l2.4-57.2s92.183,4.8,99.851,10.865Z" transform="translate(-98.209 -186.691)"/><path class="j" d="M541.606,207.618c3.992,3.293,8.981,14.253,12.553,24.236-8.172,3.047-19.12,3.2-24.691,7.008-3.55,2.428-2.982,5.958-.672,9.573-22.247,1.162-52.051,2.776-71.478,4.073,11.313-9.9,4.029-21.258,12.088-27.157,11.211-8.208,37.879,0,45.511-8.751,2.666-3.056,3.5-8.286,3.464-13.8,11.906,1.446,21.034,3.079,23.23,4.818ZM439.68,246.235l.125-2.963a11.488,11.488,0,0,0,3.477-.776,7.771,7.771,0,0,0,4.191-3.894c1.209-2.506,1.505-6.156.346-11.241-2.175-9.546,2.671-13.8,10.181-15.511,6.679-1.522,15.469-.881,22.953-.334,6.31.46,11.645.851,13.335-.122,3.134-1.8,2.119-5.063.228-8.354-.527-.915-1.142-1.866-1.77-2.8q1.861.157,3.717.321.309.5.6,1.015c2.672,4.65,3.933,9.356-1.312,12.376-2.487,1.428-8.225,1.009-15.009.514-7.291-.533-15.857-1.158-22.1.264-5.852,1.334-9.63,4.625-7.952,11.992,1.321,5.8.916,10.1-.566,13.17a10.649,10.649,0,0,1-5.738,5.348,14.533,14.533,0,0,1-4.71,1Z" transform="translate(-98.2 -186.591)"/><path class="d" d="M429.311,196.854l-10.7,59.429S294.95,267.949,293.512,266.51s8.761-29.707,9.559-31.684,46.679-31.741,126.24-37.972Z" transform="translate(-102.532 -186.691)"/><path class="j" d="M429.311,196.854l-2.83,15.719c-12.568,1.211-25.354,1.675-27.375,6.954-5.085,13.286,16.405,12.827,11.589,30.812a12.437,12.437,0,0,1-4.832,7.137c-31.608,2.932-111.2,10.187-112.35,9.035-.363-.363.016-2.434.8-5.359,25.509-9.182,56.741-6.747,56.741-14.131,0-9.911-21.767-8.059-18.94-19.265,2.754-10.922,47.37-12.131,49.653-23.905a347.983,347.983,0,0,1,47.547-6.995ZM300.047,243.235c.63-1.81,1.214-3.454,1.7-4.807,3.656-1.687,7.319-1.41,10.378-1.179,2.478.186,4.436.335,5.072-.94.647-1.3-.6-3.408-1.959-5.709-.509-.863-1.031-1.746-1.5-2.647q1.241-.672,2.622-1.386c.431.863.931,1.709,1.418,2.532,1.785,3.025,3.425,5.8,2.064,8.526-1.523,3.053-4.354,2.839-7.935,2.568-3.445-.259-7.783-.587-11.859,3.042Z" transform="translate(-102.532 -186.691)"/><path class="d" d="M298.77,237.752s-40.059,24.722-41.814,27.671,34.4,0,34.4,0a144.815,144.815,0,0,1,7.419-27.671Z" transform="translate(-103.612 -185.48)"/><path class="e" d="M325.221,252.123c-.423,7.62-6.516,9.567-10.745,9.058s-14.725-4.153-14.725-9.058,6.091-10.323,12.733-10.323,13.11,3.513,12.736,10.321Z" transform="translate(-102.343 -185.36)"/><path class="d" d="M554.184,260.121c.085,3.131,3.555,4.57-7.2,4.232s-20.9,2.369-20.056-.931,8.167-5.5,13.9-5.5,13.95-1.523,13.349,2.2Z" transform="translate(-95.617 -184.892)"/><path class="d" d="M418.9,268.5c.084,3.131,3.55,4.569-7.2,4.231s-20.9,2.371-20.058-.931,8.168-5.5,13.9-5.5,13.95-1.523,13.35,2.2Z" transform="translate(-99.623 -184.644)"/><path class="l" d="M562.978,247.02s8.36,31.822,3.594,40.47-16.871,9.786-33.46,25.519-16.021,36.332-20.983,38.866-87.76,2.392-87.76,2.392-126.956,4.66-130.752,1.134-3.794-41.507-3.794-52.157-.5-30.1,3.736-36.82m144.329-69.57-6.3,57.2c-2.167,8.538-7.214,59.316-7.214,100.218" transform="translate(-102.637 -186.691)"/><path class="i" d="M114.457,315.436c0,1.1,33.595,4.768,40.526,2.207s6.4-7.505-1.015-7.505-15.673,3.042-24.237,3.62-15.274.576-15.274,1.677Z" transform="translate(-107.83 -183.337)"/><path class="d" d="M131.645,330.312s-.873,7.784-.238,10.405,1.823,5.085,4.924,5,7.926-4.125,7.926-10.325-12.613-5.085-12.613-5.085Z" transform="translate(-107.334 -182.741)"/><path class="m" d="M126.153,328c8.026.793,16.828-.987,19.763,2.929,2.641,3.527,2.129,8.093-2.922,14.86" transform="translate(-107.483 -182.808)"/><path class="n" d="M566.538,318.854a29.407,29.407,0,0,0-23.025,47.7,351.75,351.75,0,0,0,47.888-34,29.384,29.384,0,0,0-24.865-13.7Z" transform="translate(-95.314 -183.079)"/><path class="o" d="M587.331,334.878a25.666,25.666,0,0,0-12.98-10.753,29.445,29.445,0,0,1,3.492,18.324q4.859-3.733,9.488-7.569Z" transform="translate(-94.211 -182.923)"/><path class="n" d="M218.231,318.854a29.409,29.409,0,1,0,29.408,29.409,29.409,29.409,0,0,0-29.408-29.409Z" transform="translate(-105.627 -183.079)"/><path class="o" d="M202.544,368.424a25.579,25.579,0,0,0,34.243-37.679,29.424,29.424,0,0,1-34.243,37.679Z" transform="translate(-105.221 -182.727)"/><path class="p" d="M159.384,279.029c-2.772,0-7.323,2.954-10.164,6.6s-2.9,6.6-.128,6.6,7.323-2.953,10.164-6.6S162.155,279.029,159.384,279.029Z" transform="translate(-106.864 -184.258)"/><path class="q" d="M306.568,255.538c2.708,1.523,4.76,2.072,2.295,8.61s-4,7.553-11.141,7.553-6.556-5.077-2.156-9.647,7.867-7.955,11-6.516Z" transform="translate(-102.564 -184.964)"/></g><g transform="translate(304.216)"><path class="r" d="M425.135,138.42c4.163,0,7.537.672,7.537,1.5s-3.374,1.5-7.537,1.5-7.537-.672-7.537-1.5S420.972,138.42,425.135,138.42Z" transform="translate(-403.069 -64.733)"/><path class="h" d="M425.552,66.852a22.065,22.065,0,0,1,22.065,22.065c0,12.184-22.065,53.127-22.065,53.127S403.487,101.1,403.487,88.917a22.065,22.065,0,0,1,22.065-22.065Z" transform="translate(-403.487 -66.852)"/><path class="a" d="M425.135,80.961A7.537,7.537,0,1,1,417.6,88.5,7.537,7.537,0,0,1,425.135,80.961Z" transform="translate(-403.069 -66.434)"/></g></g><g transform="translate(0.004 43.348)"><path class="k" d="M199.847,127.127s-.288,9.641-3.652,12.561-4.673-12.708-4.673-12.708Z" transform="translate(-85.622 -108.419)"/><path class="c" d="M184.539,410.559h-2.368c-51.641,0-93.5,2.889-93.5,6.453s41.863,6.453,93.5,6.453c18.344,0,35.449-.365,49.887-.995h0c26.209-1.143,43.616-3.16,43.616-5.458C275.672,413.5,235.082,410.645,184.539,410.559Z" transform="translate(-88.668 -100.022)"/><path class="s" d="M197.646,182.463c.039-3.928.168-8.339-2.006-11.865s-12.324-1.31-19.982-1.588-25.77-5.1-28.473,1.311,0,11.107,0,11.107a57.523,57.523,0,0,0-10.8,12.348c-4.1,6.761-7.44,19.654-9.7,24.071s-4.43,15.387-3.093,22.838,1,15.935,3.845,18.694,11.451,5.7,23.99,6.4,40.134,6.858,40.134-10.281,12.253-28.205,6.089-73.037Z" transform="translate(-87.646 -107.234)"/><path class="t" d="M197.4,182.343c.031-3.158.121-6.628-.975-9.7-3.837.055-8.442.576-12.389.432-7.656-.276-25.77-5.1-28.473,1.31s0,11.107,0,11.107a57.494,57.494,0,0,0-10.809,12.348c-4.1,6.761-7.44,19.654-9.7,24.072s-4.43,15.387-3.093,22.838c1.309,7.291,1.017,15.566,3.666,18.505a72.635,72.635,0,0,0,15.547,2.406c12.538.7,40.134,6.858,40.134-10.281s12.253-28.205,6.089-73.037Z" transform="translate(-87.397 -107.113)"/><path class="u" d="M240.814,407.816s1.151,9.577-7.963,9.279a142.739,142.739,0,0,1-16.475-1.5v1.5H201.907v-6.82Z" transform="translate(-85.315 -100.103)"/><path class="v" d="M206.169,277.171l13.069,118.651h-14.9L182.084,311.16l-18.475,89.356H148.587l-.106-123.342Z" transform="translate(-86.897 -103.971)"/><path class="w" d="M197.334,228.2c3.191,9.13,9.573,17.82,20,16.943s0-28.092,0-28.092Z" transform="translate(-85.45 -105.752)"/><path class="x" d="M220.087,226.914a95.645,95.645,0,0,0-3.057-9.859l-9.476,5.283c-.144,6.22,1.588,12.58,9.173,12.894l3.358-8.317Z" transform="translate(-85.148 -105.752)"/><path class="w" d="M169.117,159.008l-2.4,28.651h19.893s-4.544-15.761-4.544-23.849l-12.951-4.8Z" transform="translate(-86.357 -107.471)"/><path class="y" d="M169.063,159.008l-.5,5.976c4.5,4.617,10.475,8.9,15.041,10.674a64.81,64.81,0,0,1-1.591-11.848l-12.951-4.8Z" transform="translate(-86.302 -107.471)"/><path class="w" d="M197.2,121.93s7.248,47.511-16.346,47.511S160.036,137,160.036,128.833v-6.9Z" transform="translate(-86.557 -108.569)"/><path class="k" d="M157.506,141.52c7.3.58,12.643-4.25,12.643-8.244a18.46,18.46,0,0,0-2.238-7.915,28.318,28.318,0,0,0,20.173,8.142c12.556-.219,18.112-6.716,17.382-14.9-.475-5.306-5.335-9.652-9.813-9.652s-12.264,3.34-17.716,3.34-11.512-2.324-15.341.944-3.542,6.534-3.542,6.534-9.326,2.324-9.326,10.383,6.12,11.9,7.552,11.817Z" transform="translate(-86.86 -108.953)"/><path class="k" d="M177.008,143.413a1.5,1.5,0,1,1-1.434,1.5A1.467,1.467,0,0,1,177.008,143.413Z" transform="translate(-86.094 -107.933)"/><path class="k" d="M191.02,143.6a1.5,1.5,0,1,1-1.439,1.5,1.467,1.467,0,0,1,1.439-1.5Z" transform="translate(-85.679 -107.927)"/><path class="y" d="M185.818,143.806c2.331,4.2,3.9,7.521-3.314,8.8a.564.564,0,0,1-.672-.393c-.03-.255.224-.5.568-.534,6.031-1.067,4.317-3.77,2.283-7.433-.142-.227,0-.511.31-.634a.7.7,0,0,1,.826.192Z" transform="translate(-85.909 -107.928)"/><path class="z" d="M144.391,192.81c2-2.974,24.052-14.7,24.052-14.7s3.55,7.349,10.346,7.349,6.325-8.109,6.325-8.109,23.372,6.215,25.573,8.607,11.9,39.611,11.9,39.611-6.4,4.951-18.8,4.208c0,0,3,30.615,4,37.218s3.138,11.363,2.54,12.107c-4.062,5.043-17.114,6.931-22.872,7.708-13.86,1.871-29.518-.426-42.02-6.877-1.6-.825,2.461-35.963,3.66-42.235,0,0-15.1-3.63-15.2-4.621S142.492,195.45,144.391,192.81Z" transform="translate(-87.328 -106.927)"/><path class="aa" d="M210.515,228.74a36.23,36.23,0,0,1-5.118.509l-.851-32.064c6.346,10.718,6.158,27.034,5.968,31.554Z" transform="translate(-85.237 -106.34)"/><path class="aa" d="M165.181,179.361l.547-.3a15.708,15.708,0,0,0,4.969,5.8,11.052,11.052,0,0,0,7.584,2.411c5.1-.618,6.831-3.287,7.221-5.962a11.343,11.343,0,0,0-.126-3.646l.68.185a11.545,11.545,0,0,1,.083,3.524c-.421,2.884-2.278,5.756-7.765,6.428a11.759,11.759,0,0,1-8.1-2.538,16.405,16.405,0,0,1-5.092-5.9Z" transform="translate(-86.402 -106.919)"/><path class="w" d="M213.049,232.307c-1.489,7.256.984,13.65,4.724,13.863s7.291-1.517,12.827-11.7,10.745-36.431,11.595-37.923,9.042-.088,11.381-2.985,3.933-16.213,0-16.213-16.558,5.236-19.283,15.683-14.035,18.733-21.238,39.272Z" transform="translate(-84.997 -106.927)"/><path class="z" d="M215.558,384.009c5.388,2,2.42,12.7,3.742,14.7s4.617,3.358,9.565,2.359,13.3-.09,13.3,5.9-2.123,8.166-13.3,8.166-26.643.018-27.326-2.087-.707-20.419.689-22.415c.438-.523,4.161.548,5.6-.722,2.155-1.9,2.718-6.183,7.736-5.9Z" transform="translate(-85.34 -100.808)"/><path class="k" d="M230.542,400.316c-2.475.318-4.06,2.3-5.021,4.016a.69.69,0,0,1-.829.308.507.507,0,0,1-.372-.684c1.247-2.229,3.07-4.327,6.223-4.7a.54.54,0,1,1,0,1.06Z" transform="translate(-84.653 -100.356)"/><path class="k" d="M225.073,400.855a7.7,7.7,0,0,0-4.808,2.957.7.7,0,0,1-.851.266.5.5,0,0,1-.321-.7,8.868,8.868,0,0,1,5.98-3.582.54.54,0,1,1,0,1.06Z" transform="translate(-84.808 -100.34)"/><path class="k" d="M220.292,399.767c-.892-.059-2.494,1.27-2.986,1.727a.724.724,0,0,1-.883.179.48.48,0,0,1-.217-.728c1.022-.972,2.675-2.39,4.427-2.2a.526.526,0,0,1,.448.652.672.672,0,0,1-.79.368Z" transform="translate(-84.894 -100.373)"/><path class="k" d="M211.4,399.945a18.036,18.036,0,0,1,3.442-4.158c-4.137-.333-7.336-1.945-3.661-3.262,1.388-.5,3.837.166,6.3,1.186,4.076-2.752,7.925-3.447,6.131-.52a5.181,5.181,0,0,1-2.893,2.039,35.159,35.159,0,0,1,3.919,2.322.47.47,0,0,1-.09.746.738.738,0,0,1-.9-.075,47.205,47.205,0,0,0-4.66-2.575,16.068,16.068,0,0,1-2.15.192,23.485,23.485,0,0,0-4.182,4.337.657.657,0,0,1-.767.4.537.537,0,0,1-.48-.635Zm4.827-5.324.185-.142c-2.609-1.074-5-1.663-5.372-.469.436.466,2.741.72,5.181.612Zm2.572-.334.115.055c1.983-.344,3.593-1,3.726-2.066a10.016,10.016,0,0,0-3.837,2.015Z" transform="translate(-85.088 -100.592)"/><path class="v" d="M195.723,178.216c4.235.992,6.524,4.062,8.47,11.053s5.093,27.208,4.125,37.929a114.433,114.433,0,0,1-4.294,21.187s-2.058-20.62-2.574-25.154-5.78-31.836-8.184-37.6-4.006-6.54-3.605-7.415,6.068,0,6.068,0Z" transform="translate(-85.68 -106.914)"/><path class="u" d="M144.8,410.694l-2.743.1c.164,4.668-1.034,11.241,13.5,11.436s13.5-4.745,13.563-9.941L144.8,410.7Z" transform="translate(-87.086 -100.018)"/><path class="v" d="M156.134,181.478c3.985-2.082,5.884-1.832,6.356-1.247a24.567,24.567,0,0,1,4.826,12.074c.824,6.993,2.185,21.98,1.53,31.347s-10.874,30.22-22.346,31.472V237.129c.928.236,1.7.414,2.218.5,2.837.468,9.819.658,12.682-.618,0,0,1.5-11.006,1.5-16.58,0-4.525-2.981-25.368-5.7-29.379s-4.036-4.828-4.136-5.5.454-2.539,3.077-4.079Z" transform="translate(-86.955 -106.855)"/><path class="w" d="M154.225,143.883c0,3.174,2.59,5.372,5.877,5.372s4.4-4.437,4.4-5.447-1.439-5.038-5.135-5.038a4.875,4.875,0,0,0-5.136,5.109Z" transform="translate(-86.728 -108.069)"/><path class="y" d="M158.623,140.87c1.919-.226,4.045.922,3.827,3.166-.037.378-2.509.4-1.979,1.07a1.564,1.564,0,0,0,2.08.2c-.154.836-2.428,1.466-2.941,0-.249-.715.288-1.631,1.783-1.661a2.183,2.183,0,0,0-2.524-2.059c-2.188.326-2.42,1.35-2.569,1.987-.357-.833.192-2.443,2.323-2.694Z" transform="translate(-86.668 -108.009)"/><path class="w" d="M137.832,233.008c-1.247,4.04-2.6,10.417-1.04,15.829,2.507,8.692,19.392,52.565,19.392,52.565l7.022-4.967s-9.018-45.8-9.521-49.764a43.429,43.429,0,0,0,4.125-10.409,36.927,36.927,0,0,1-8.789-.646c-1.935-.32-7.813-1.6-11.193-2.61Z" transform="translate(-87.263 -105.279)"/><path class="h" d="M238.271,160.443l14.295,1.084a1.715,1.715,0,0,1,1.743,1.727L251.4,189.343a1.864,1.864,0,0,1-2.1,1.439L235.012,189.7a1.715,1.715,0,0,1-1.743-1.727l2.907-26.089A1.864,1.864,0,0,1,238.271,160.443Z" transform="translate(-84.386 -107.428)"/><path class="k" d="M250.391,162.81h0a1.328,1.328,0,0,1,1.35,1.343l-.433,3.872a1.439,1.439,0,0,1-1.621,1.114h0a1.328,1.328,0,0,1-1.35-1.343l.432-3.872a1.444,1.444,0,0,1,1.622-1.113Z" transform="translate(-83.941 -107.358)"/><path class="n" d="M250.284,163.5a.849.849,0,0,1,.863.863.924.924,0,0,1-1.041.715.849.849,0,0,1-.863-.863.924.924,0,0,1,1.041-.715Z" transform="translate(-83.913 -107.337)"/><path class="d" d="M249.848,167.311a.5.5,0,0,1,.51.508.545.545,0,0,1-.615.422.5.5,0,0,1-.51-.508.546.546,0,0,1,.615-.422Z" transform="translate(-83.914 -107.225)"/><path class="n" d="M250.072,165.407a.85.85,0,0,1,.863.863.923.923,0,0,1-1.041.714.848.848,0,0,1-.863-.863.924.924,0,0,1,1.041-.715Z" transform="translate(-83.92 -107.281)"/><path class="z" d="M157.422,391.733c10.361.414,7.105,9.07,6.77,12.812s4.765,4.989,4.932,8.3-2.842,7.272-13.249,7.272-13.834-3.778-13.834-9.408,5.627-6.153,5.627-9.609-2.967-9.138,9.754-9.363Z" transform="translate(-87.088 -100.58)"/><path class="k" d="M150.291,408.839c2.3-1.48,6.052-1.2,8.352.135a.468.468,0,0,1,0,.749.743.743,0,0,1-.909,0c-1.646-.916-4.914-1.169-6.567-.108a.742.742,0,0,1-.909-.027.468.468,0,0,1,.032-.749Z" transform="translate(-86.85 -100.103)"/><path class="k" d="M151.075,405.468c1.931-.959,5.133-1.141,6.916.192a.468.468,0,0,1-.051.748.741.741,0,0,1-.907-.041c-1.109-.815-3.922-.666-5.116-.1a.739.739,0,0,1-.906-.053.468.468,0,0,1,.064-.747Z" transform="translate(-86.826 -100.196)"/><path class="k" d="M151.158,402.763c1.369-1.56,5.468-1.707,7.157-.051a.48.48,0,0,1-.177.735.732.732,0,0,1-.891-.145c-1.062-1.041-4.272-.773-4.948-.051a.714.714,0,0,1-.863.225.488.488,0,0,1-.273-.715Z" transform="translate(-86.82 -100.289)"/><path class="k" d="M148.514,403.327a22.28,22.28,0,0,1,4.859-4.356c-3.387-.931-5.8-2.713-4.054-3.995,1.549-1.135,3.972.8,6.161,2.787,5.468-2.7,9.9-1.623,7.432.384a8.366,8.366,0,0,1-5.445,1.439,9.262,9.262,0,0,0,1.852,1.395,21.722,21.722,0,0,0,4.118,1.468.521.521,0,0,1,.425.662.672.672,0,0,1-.8.351l-2.221-.672a16.251,16.251,0,0,1-5.359-3.37,29.376,29.376,0,0,0-5.794,4.344.706.706,0,0,1-.853.262.5.5,0,0,1-.315-.7Zm5.513-5.24c-1.414-1.323-2.583-2.358-3.83-2.334-.034.02-.072.047-.081.075C149.846,396.764,151.693,397.61,154.026,398.087Zm3.111.384c2.275.1,4.371-.22,4.989-1.188C161.7,396.414,159.557,397.17,157.138,398.471Z" transform="translate(-86.898 -100.494)"/><path class="aa" d="M154.468,237.06c1.424-2.59,6.6-11.454,7.335-26.175a80.858,80.858,0,0,1,.863,8.626c0,5.574-1.5,16.58-1.5,16.58a19.5,19.5,0,0,1-6.694.969Z" transform="translate(-86.72 -105.935)"/><path class="k" d="M165.7,292.452c-3.742,4.408-6.866,7.664-13.561,8.367a.54.54,0,1,1,0-1.06c6.056-.641,9.087-3.878,12.436-7.819a.718.718,0,0,1,.872-.208.486.486,0,0,1,.252.72Z" transform="translate(-86.808 -103.542)"/><path class="w" d="M253.61,177.8s-6.578-5.614-7.893-4.3,5.724,6.117,5.724,6.117-7.668-4.163-7.888-2.41S251,183.565,251,183.565s-7.011-2.191-7.449-.22,6.573,3.07,6.573,3.07-7.23,0-7.668,1.1,9.421,3.5,9.421,3.5Z" transform="translate(-84.115 -107.048)"/><path class="ab" d="M173.269,139.629a4.9,4.9,0,0,1,3.989-1.66" transform="translate(-86.163 -108.094)"/><path class="ab" d="M188.936,140.816a4.893,4.893,0,0,1,4.264.689" transform="translate(-85.699 -108.016)"/><path class="ab" d="M178.184,154.465a7.291,7.291,0,0,0,8.255.672" transform="translate(-86.017 -107.605)"/></g></g></svg>