<svg xmlns="http://www.w3.org/2000/svg" width="140" height="21.615" viewBox="0 0 140 21.615">
    <defs>
        <style>
            .cls-1{fill:#2e5c99}.cls-2{fill:url(#linear-gradient)}.cls-3{fill:#ce210f}
        </style>
        <linearGradient id="linear-gradient" x1=".699" x2=".338" y1="-.197" y2="1.163" gradientUnits="objectBoundingBox">
            <stop offset="0" stop-color="#e6ebef"/>
            <stop offset=".076" stop-color="#bbcee5"/>
            <stop offset=".185" stop-color="#85a9d8"/>
            <stop offset=".28" stop-color="#5d8fcf"/>
            <stop offset=".354" stop-color="#457ec9"/>
            <stop offset=".4" stop-color="#3c78c7"/>
            <stop offset=".9" stop-color="#2e5c99"/>
        </linearGradient>
    </defs>
    <g id="British_Airways_Logo" transform="translate(-.388 -.281)">
        <g id="Group_483" data-name="Group 483" transform="translate(.388 12.055)">
            <g id="Group_482" data-name="Group 482">
                <path id="Path_643" d="M.388 30.244a.947.947 0 0 0 .445-.849v-7.826a.961.961 0 0 0-.445-.86h3.73c1.664 0 3.286.681 3.286 2.57a2.145 2.145 0 0 1-1.814 1.969 2.428 2.428 0 0 1 2.667 2.312c0 2.139-2.243 2.684-3.821 2.684H.388zm3.02-8.714a4.162 4.162 0 0 0-.611.038v3.337h.378c1.143 0 2.248-.353 2.248-1.678s-.884-1.697-2.015-1.697zm.238 4.235c-.273 0-.517 0-.849.025v3.524a6.749 6.749 0 0 0 1.273.108A1.732 1.732 0 0 0 6 27.533c0-1.443-1.151-1.768-2.355-1.768zm8.3-4.235a3.377 3.377 0 0 0-.489.052v3.3c.156.011.3.027.452.027a1.681 1.681 0 0 0 1.867-1.759c0-1.195-.781-1.62-1.83-1.62zm4.808 8.77a4.041 4.041 0 0 1-1.118-.09c-.649-.191-1.545-1.654-1.9-2.228-.554-.933-1.035-2.217-2.277-2.231v3.644a.938.938 0 0 0 .452.849H9.046a.944.944 0 0 0 .444-.849v-7.826a.975.975 0 0 0-.444-.86h3.448c1.5 0 3.377.576 3.377 2.378a2.368 2.368 0 0 1-2.646 2.287c1.985.012 3.151 4.667 5.342 4.681a6.377 6.377 0 0 1-1.813.245zm1.956-.056a.932.932 0 0 0 .484-.849v-7.826a.954.954 0 0 0-.484-.86h2.934a.924.924 0 0 0-.481.86v7.826a.9.9 0 0 0 .481.849zm6.368 0a.923.923 0 0 0 .468-.849V21.8h-2.108a3.03 3.03 0 0 0-1.483.307l.655-1.4h6.99a8.179 8.179 0 0 0 1.695-.129 2.009 2.009 0 0 1-1.515 1.249c-.555-.013-1.473-.05-2.264-.05v7.616a.939.939 0 0 0 .474.849h-2.912zm6.566 0a.934.934 0 0 0 .48-.849v-7.826a.956.956 0 0 0-.48-.86h2.934a.933.933 0 0 0-.488.86v7.826a.912.912 0 0 0 .488.849zm8.648-2.157c0-1.816-4.278-2.226-4.278-5.125 0-1.795 1.707-2.382 3.208-2.382a6.1 6.1 0 0 1 2.252.375l.107 1.782a2.556 2.556 0 0 0-2.194-1.357c-.692 0-1.417.342-1.417 1.133 0 1.883 4.35 2.343 4.35 5.089 0 1.993-1.741 2.818-3.5 2.818a5.673 5.673 0 0 1-2.945-.707 6.784 6.784 0 0 1-.068-.979 7.886 7.886 0 0 1 .092-1.164 3.068 3.068 0 0 0 2.735 1.965c.95.001 1.657-.413 1.657-1.448zm9.164 2.157a.941.941 0 0 0 .429-.849v-3.548a19.554 19.554 0 0 0-2.023-.082 20.217 20.217 0 0 0-2.054.082v3.548a.953.953 0 0 0 .426.849h-2.826a.938.938 0 0 0 .433-.849v-7.826a.964.964 0 0 0-.433-.86h2.825a.961.961 0 0 0-.426.86v3.206c.523.055 1.229.082 2.054.082.8 0 1.513-.035 2.023-.082v-3.206a.966.966 0 0 0-.429-.86h2.821a.956.956 0 0 0-.421.86v7.826a.948.948 0 0 0 .421.849z" class="cls-1" data-name="Path 643" transform="translate(-.388 -20.579)"/>
                <path id="Path_644" d="M102.782 30.244a.425.425 0 0 0 .173-.332 1.025 1.025 0 0 0-.091-.329l-.875-2.379a14.871 14.871 0 0 0-1.8-.073 16.512 16.512 0 0 0-1.712.073c-.08.213-.919 2.333-.919 2.333a1.8 1.8 0 0 0-.152.447c0 .142.122.211.225.26H95.71a1.49 1.49 0 0 0 .65-.734l3.154-8.141a.29.29 0 0 0 .02-.117.64.64 0 0 0-.35-.543h2.474l3.208 8.793a1.472 1.472 0 0 0 .646.742h-2.73zm-2.491-7.72l-1.446 3.712a12.092 12.092 0 0 0 1.314.059 12.391 12.391 0 0 0 1.48-.059zm5.71 7.72a.931.931 0 0 0 .481-.849v-7.826a.952.952 0 0 0-.481-.86h2.933a.929.929 0 0 0-.482.86V29.4a.907.907 0 0 0 .482.849zm7.391-8.714a3.32 3.32 0 0 0-.475.052v3.3c.153.011.293.027.442.027a1.68 1.68 0 0 0 1.868-1.759c-.002-1.195-.786-1.619-1.836-1.619zm5.047 8.77a4.062 4.062 0 0 1-1.117-.09c-.65-.191-1.544-1.654-1.9-2.228-.552-.933-1.27-2.231-2.5-2.231V29.4a.937.937 0 0 0 .442.849H110.5a.936.936 0 0 0 .451-.849v-7.831a.966.966 0 0 0-.451-.86h3.455c1.5 0 3.37.576 3.37 2.378a2.36 2.36 0 0 1-2.4 2.287c2.057.118 3.3 4.681 5.339 4.681a6.433 6.433 0 0 1-1.826.245zm11.9-8.66l-2.9 8.6a1.127 1.127 0 0 1-.606-.176 8.033 8.033 0 0 1-.9-1.854l-1.31-3.308-1.886 5.338h-.9l-3.243-8.626a1.684 1.684 0 0 0-.731-.909h2.818a.454.454 0 0 0-.2.4 1.232 1.232 0 0 0 .082.332l2.112 5.706 2.249-6.436 2.477 6.2 1.876-5.616a1.011 1.011 0 0 0 .074-.305.337.337 0 0 0-.168-.283h1.867a1.66 1.66 0 0 0-.715.937zm3.464.884l-1.445 3.712a12.219 12.219 0 0 0 1.317.059 12.371 12.371 0 0 0 1.478-.059zm2.488 7.72a.4.4 0 0 0 .173-.332 1.428 1.428 0 0 0-.086-.329s-.778-2.131-.872-2.379a14.981 14.981 0 0 0-1.806-.073 16.575 16.575 0 0 0-1.711.073c-.082.213-.915 2.333-.915 2.333a1.538 1.538 0 0 0-.153.447c0 .142.117.211.219.26h-1.92a1.472 1.472 0 0 0 .647-.734l3.165-8.141a.425.425 0 0 0 .018-.117.636.636 0 0 0-.356-.543h2.477l3.207 8.793a1.494 1.494 0 0 0 .649.742h-2.737zm8.609-8.534l-2.259 3.96v3.73a.946.946 0 0 0 .426.849h-2.81a1 1 0 0 0 .419-.849v-3.741l-1.963-3.146c-.176-.294-.995-1.665-1.993-1.665a6.316 6.316 0 0 1 1.651-.26 1.834 1.834 0 0 1 1.947.97l1.817 2.879c.153-.282 1.591-2.784 1.591-2.784a2.02 2.02 0 0 0 .292-.626.356.356 0 0 0-.2-.318h2.024a2.5 2.5 0 0 0-.942 1.001zm5.287 6.377c0-1.816-4.278-2.226-4.278-5.125 0-1.795 1.7-2.382 3.2-2.382a6.094 6.094 0 0 1 2.251.375l.107 1.782a2.561 2.561 0 0 0-2.195-1.357c-.693 0-1.414.342-1.414 1.133 0 1.883 4.35 2.343 4.35 5.089 0 1.993-1.729 2.818-3.5 2.818a5.689 5.689 0 0 1-2.949-.707 6.323 6.323 0 0 1-.075-.979 7.66 7.66 0 0 1 .1-1.164 3.071 3.071 0 0 0 2.738 1.965c.96.002 1.668-.412 1.668-1.448z" class="cls-1" data-name="Path 644" transform="translate(-40.42 -20.579)"/>
            </g>
        </g>
        <path id="Path_645" d="M223.5 9.192c-1.6 1.593-5.076 2.961-6.785 3.6-2.335.877-3.371 1.187-4.677 1.612-1.478.48-4.436 1.375-4.436 1.375a72.7 72.7 0 0 0 10.445 2.381 33.044 33.044 0 0 0 5.2-2.326 13.429 13.429 0 0 0 3.183-2.034 3.085 3.085 0 0 0 .946-1.575 2.127 2.127 0 0 0 .037-.349s0-.1-.009-.191a.852.852 0 0 0-.021-.171 2.561 2.561 0 0 0-.079-.311 2.063 2.063 0 0 0-.564-.781 4.809 4.809 0 0 0-1.919-1.075 11.308 11.308 0 0 0-1.19-.3z" class="cls-2" data-name="Path 645" transform="translate(-87.025 -3.682)"/>
        <path id="Path_646" d="M200.645 8.158a1.646 1.646 0 0 0-.051-.315 1.213 1.213 0 0 0-.176-.381 3.278 3.278 0 0 0-.454-.534 4.033 4.033 0 0 0-.537-.419 7.168 7.168 0 0 0-2.869-.987 27.291 27.291 0 0 0-3.337-.168c-.546-.008-4.072.021-4.979.038-4.026.083-8.954.094-10.246.094-13.328.061-19.13-.226-25.587-1.521a74.23 74.23 0 0 1-8.54-2.128C148.713 1.671 176.982.5 182.14.361c3.376-.1 5.774-.115 7.692 0a25.785 25.785 0 0 1 3.049.334 14.641 14.641 0 0 1 2.512.678 5.967 5.967 0 0 1 2.6 1.67 4.365 4.365 0 0 1 .334.4c.215.3.465.668.55.805a17.854 17.854 0 0 1 1.14 1.952c.125.244.235.5.342.744a4.85 4.85 0 0 1 .182.5 2.822 2.822 0 0 1 .1.551z" class="cls-3" data-name="Path 646" transform="translate(-60.257)"/>
    </g>
</svg>
