<svg xmlns="http://www.w3.org/2000/svg" width="75.79" height="52.185" viewBox="0 0 75.79 52.185">
    <defs>
        <style>
            .cls-1{fill:#d72027}
        </style>
    </defs>
    <g id="emirates-vector-logo" transform="translate(-41 -50.7)">
        <path id="Path_581" d="M215.956 53.859a4.573 4.573 0 0 0-.956 2.785v8.743a3.281 3.281 0 0 1-.708 1.8c-.228.228-1.575 1.438-1.689 1.575l.753.023c.251-.228 2.854-2.534 3.1-2.854a4.47 4.47 0 0 0 1.187-3.013v-8.4a3.222 3.222 0 0 1 .89-2.306c.32-.342 1.324-1.187 1.507-1.393l-.8-.023c-.16.205-3.013 2.785-3.287 3.059z" class="cls-1" data-name="Path 581" transform="translate(-132.427 -.077)"/>
        <path id="Path_582" d="M199.2 161.441l3.173 2.762h2.127a7.688 7.688 0 0 0 5.433-2.237 6.547 6.547 0 0 0 1.781-4.7v-4.543a3.69 3.69 0 0 0-1.233-2.694C210.34 149.89 209.4 149 209.4 149v3.493s1.027 1.05 1.21 1.256c.936 1 .936 2.831-2.055 5.73a6.071 6.071 0 0 1-4.055 1.921l-5.3.046z" class="cls-1" data-name="Path 582" transform="translate(-122.086 -75.86)"/>
        <path id="Path_583" d="M168.754 104.2a3.529 3.529 0 0 0-.685 2.1v1.712h1.731a2.62 2.62 0 0 0 1.758-.936v-1.712a4.238 4.238 0 0 0 .936.982c.183-.228 1.781-2.146 3.1-2.169 2.214-.023 1.712 2.785.822 3.675-.3.3-1.6 1.484-2.009 1.872-1.05 1-2.854.525-2.854-2.055 0 0-1.918 1.826-2.214 2.077s-1.278 1.3-1.278 1.3v4.554a4.428 4.428 0 0 1-1.3 3.561c-.228.251-2.671 2.488-3.013 2.739l-.8.023s1.438-1.3 1.712-1.6a3.109 3.109 0 0 0 .708-2.169c0-.3-.046-7.122-.046-7.122H154.19c-3.881 0-4.7-4.292-4.725-5.456v-4.316A2.888 2.888 0 0 0 148.3 99h1.1c.137.046.822.32.822 2.968 0 0-.046 3.059-.046 3.242a2.843 2.843 0 0 0 2.6 2.876l12.6-.023a4.7 4.7 0 0 1 .959-2.306c.342-.388 3.059-2.854 3.356-3.1h.8c-.114.114-1.438 1.278-1.712 1.6zm4.132 2.58a11.142 11.142 0 0 0 1.073 1.256c1.37 1.1 2.009-.091 1.1-1.324-.365-.5-1.758-.365-2.169.068z" class="cls-1" data-name="Path 583" transform="translate(-82.806 -37.274)"/>
        <path id="Path_584" d="M182.832 159.825c0 .616-1.94 2.237-2.055 2.328-.137-.662-.639-1.37-2.077-2.831l2.123-2.123c1.438 1.438 2.009 1.758 2.009 2.625z" class="cls-1" data-name="Path 584" transform="translate(-106.266 -82.188)"/>
        <path id="Path_585" d="M174.568 53.234c.434.434 1.347 1.575.8 2.146-.479.479-1.233 1.256-1.233 1.256-.046-.274-.753-.959-.753-.959v2.306c-.023.936-.365 1.187-.365 1.187a6.14 6.14 0 0 1 1.712 3.881v2.237a1.528 1.528 0 0 1-.434 1.141c-.16.183-1.735 1.781-1.986 1.986a1.844 1.844 0 0 1-1.3.479h-5.912c-.936 0-1.895-.73-1.895-1.461 0-.183.023-2.191.023-2.191a1.636 1.636 0 0 0 1.347.753 2.127 2.127 0 0 0 1.347-.639c.16-.183 4.474-4.657 4.474-4.657a36.256 36.256 0 0 0-3.333-2.762 1.153 1.153 0 0 0-1.644.685 14.885 14.885 0 0 0 0 4.474l-1.621-1.621a2.234 2.234 0 0 1 .16-2.922 4.273 4.273 0 0 1 2.831-1.461h2.351a6.207 6.207 0 0 1 3.31 1.575 1.009 1.009 0 0 0 .251-.548c0-.822-.023-2.99-.023-2.99-1.187-1.187-1.347-2.42-.776-2.99 1.073-1.073 1.461-1.438 1.461-1.438a3.681 3.681 0 0 0 1.21 2.534zM167.149 65.1a5.182 5.182 0 0 1-1.233 1.1h6.666c1.8 0 1.438-1.119 1.119-1.689a24.749 24.749 0 0 0-2.762-3.31s-3.675 3.789-3.789 3.9z" class="cls-1" data-name="Path 585" transform="translate(-94.304)"/>
        <path id="Path_586" d="M143.5 140.4h-1.1a2.609 2.609 0 0 1 1.164 2.306v5.319a6.65 6.65 0 0 0 6.323 6.643h2.9a4.172 4.172 0 0 0 3.4-1.347 14.787 14.787 0 0 0 1.073-1.119 3.739 3.739 0 0 0 1.256-3.013v-1.735a3.194 3.194 0 0 0-1.3-2.557c-.274-.274-1-.982-1-.982v3.561s.73.776 1.05 1.027a1.829 1.829 0 0 1-1.1 3.242H149.8a5.644 5.644 0 0 1-5.5-5.547v-2.876c.023-2.922-.8-2.922-.8-2.922z" class="cls-1" data-name="Path 586" transform="translate(-78.252 -69.223)"/>
        <path id="Path_587" d="M163.832 159.925c0 .616-1.94 2.237-2.055 2.328-.137-.662-.639-1.37-2.077-2.831l2.123-2.123c1.415 1.415 2.009 1.735 2.009 2.625z" class="cls-1" data-name="Path 587" transform="translate(-91.603 -82.265)"/>
        <path id="Path_588" d="M49.971 228.543h-3.424c-1.073 0-.982-.89-1.1-1.644v-4.885s.753-.023 1.6-.023a6.141 6.141 0 0 1 3.264.5 3.474 3.474 0 0 0-3.264-1.986h-1.573v-1.575a3.992 3.992 0 0 0-.342-1.758h2.26c1.94 0 3.447-.023 5.022 1 0 0-.3-2.58-4.063-2.58H41a4.346 4.346 0 0 1 1.233 3.31l.046 8.9c0 2.237.89 2.306.89 2.306h7.236a1.994 1.994 0 0 0 2.214-1.8l.023-.845s-.525 1.073-2.671 1.073z" class="cls-1" data-name="Path 588" transform="translate(0 -127.257)"/>
        <path id="Path_589" d="M110.062 237.591v-6.232c0-2.42-1.963-3.059-3.447-3.059a2.987 2.987 0 0 0-2.785 2.191 3.269 3.269 0 0 0-3.2-2.191 3.091 3.091 0 0 0-2.945 2.237s-.046-2.169-1.94-2.169H93.9s1.073.434 1.073 2.306v6.917c0 2.283.913 2.328.913 2.328h3.059a2.93 2.93 0 0 1-1.164-2.351v-6.141a1.731 1.731 0 0 1 1.8-1.187 1.685 1.685 0 0 1 1.552 1.644v5.707c0 2.306.913 2.328.913 2.328h3.059a2.963 2.963 0 0 1-1.164-2.351v-6.141a1.722 1.722 0 0 1 3.356.479v5.684c.023 2.328.913 2.306.913 2.306h3.059a2.921 2.921 0 0 1-1.21-2.306z" class="cls-1" data-name="Path 589" transform="translate(-40.824 -137.057)"/>
        <path id="Path_590" d="M174.981 237.745a2.919 2.919 0 0 0 1.164 2.328h-3.059s-.936.023-.936-2.306v-6.963c0-1.826-1.05-2.306-1.05-2.306h1.849c.662 0 2.009 0 2.009 2.58v6.62z" class="cls-1" data-name="Path 590" transform="translate(-100.401 -137.212)"/>
        <path id="Path_591" d="M203.062 229.467a1.526 1.526 0 0 0-1.552-.822c-1.918 0-2.374 2.283-2.374 2.283-.16-1.8-.639-2.328-1.986-2.328h-1.85s1.073.434 1.073 2.306v6.917c0 2.283.913 2.328.913 2.328h3.059a2.919 2.919 0 0 1-1.164-2.328v-5.684a1.635 1.635 0 0 1 .753-1.164 2.4 2.4 0 0 1 3.173.457l-.046-1.963z" class="cls-1" data-name="Path 591" transform="translate(-119.076 -137.289)"/>
        <path id="Path_592" d="M273 220.926a3.778 3.778 0 0 1 1.8.457v-1.735h-2.557V217a9.868 9.868 0 0 1-2.055 2.306 18.343 18.343 0 0 1-2.694 1.6l1.94.023v8.035c0 2.237.936 2.237.936 2.237h3.036a2.877 2.877 0 0 1-1.187-2.26v-8.013z" class="cls-1" data-name="Path 592" transform="translate(-174.794 -128.337)"/>
        <path id="Path_593" d="M307.351 233.215c-1.712 1.781-3.059 1.507-4.132 2.831a3.177 3.177 0 0 0 1.529 2.4 2.646 2.646 0 0 0 3.561-1.21v1.864s-.776.913-3.264.913c-2.99 0-5.045-2.351-5.045-5.547 0-3.15 1.666-6.049 4.84-6.072 3.082-.046 4.771 2.465 2.511 4.817zm-1.872-.73c.5-.936.913-3.31-.822-3.173-2.009.16-1.621 5.479-1.621 5.479.662-.73 1.666-.89 2.443-2.306z" class="cls-1" data-name="Path 593" transform="translate(-199.875 -137.132)"/>
        <path id="Path_594" d="M177.115 215.085a1.393 1.393 0 1 0-1.415-1.393 1.413 1.413 0 0 0 1.415 1.393z" class="cls-1" data-name="Path 594" transform="translate(-103.951 -124.71)"/>
        <path id="Path_595" d="M230.788 238.746a1.374 1.374 0 0 1-1.187-1.461c0-2.876 2.351-3.287 2.99-4.041v4.862a2.2 2.2 0 0 1-1.8.639zm1.8-6.62c-.708 1.233-6.232 1.507-5.387 5.776a2.558 2.558 0 0 0 2.876 2.191 2.742 2.742 0 0 0 2.557-1.393c.205 1.278.867 1.37.867 1.37h3.059a2.9 2.9 0 0 1-1.187-2.306v-6.506c0-1.552-1.712-2.762-3.538-2.762a4.87 4.87 0 0 0-2.854.845v2.009a2.582 2.582 0 0 1 2.214-1.6c1.552 0 1.666.776 1.666 1.164a2.059 2.059 0 0 1-.274 1.21z" class="cls-1" data-name="Path 595" transform="translate(-143.63 -137.208)"/>
        <path id="Path_596" d="M346.594 236.769a2.037 2.037 0 0 1-2.26 1.895 2.6 2.6 0 0 1-2.237-1.621v2.057a5.411 5.411 0 0 0 2.9.822c2.077 0 4.2-1.575 4.155-3.789a3.514 3.514 0 0 0-.708-2.009 10.728 10.728 0 0 0-2.991-2.214 1.876 1.876 0 0 1-.867-1.187c-.023-.388.183-1.164 1.712-1.164a2.605 2.605 0 0 1 2.169 1.6v-1.94a5.094 5.094 0 0 0-2.922-.913c-1.826 0-3.493 1.21-3.447 2.762a3.643 3.643 0 0 0 1.712 3.082 13.977 13.977 0 0 0 1.575.982 1.988 1.988 0 0 1 1.21 1.644z" class="cls-1" data-name="Path 596" transform="translate(-232.362 -137.057)"/>
    </g>
</svg>
