<svg xmlns="http://www.w3.org/2000/svg" width="85" height="41.543" viewBox="0 0 85 41.543">
    <defs>
        <style>
            .cls-1{fill:#c89801}
        </style>
    </defs>
    <g id="etihad-airways-vector-logo" transform="translate(-26.993 -178.9)">
        <path id="Path_617" d="M347.2 191.052l1.236-1.252 1.128 1.144.108.093-1.236 1.252z" class="cls-1" data-name="Path 617" transform="translate(-274.965 -9.215)"/>
        <path id="Path_618" d="M363.3 191.052l1.236-1.252 1.128 1.144.108.108-1.236 1.236z" class="cls-1" data-name="Path 618" transform="translate(-288.791 -9.215)"/>
        <path id="Path_619" d="M282.819 194.607a1.171 1.171 0 0 1-.587-.139 1.415 1.415 0 0 1-.742-1.453.962.962 0 0 1 .015-.247v-.2H271v-9.458c0-.4-.263-.51-.479-.634a.637.637 0 0 1-.417-.464v-.155a13.729 13.729 0 0 0 2.5-2.457v11.56h8.917v-.448c-.015-.4-.046-1.221-1.994-1.236 0 0-.912.015-1.824.015-.51 0-1.02 0-1.36-.015-.556-.046-.865-.665-.881-1.221a1.017 1.017 0 0 1 .4-.865l.138-.09.077.139c.17.34.912.495 2.3.495h.139c.556 0 1.19-.015 1.916-.031h.124c2.364 0 2.627 2.055 2.643 2.936v.34h2.334v-3.493s.031-.263-.448-.525a.913.913 0 0 1-.4-.556 7.36 7.36 0 0 0 2.411-2.534v8.7h-3.925v.124c0 .525.093 1.205.4 1.437l.17.139-.185.108a1.351 1.351 0 0 1-.742.232" class="cls-1" data-name="Path 619" transform="translate(-209.377 -.423)"/>
        <path id="Path_620" d="M201.293 217.807v-1.314H195.9v-1.623h6.862V217s-.077.665 1.221.665a.788.788 0 0 0 .819-.819v-3.8a.537.537 0 0 0-.6-.6h-8.283V207.7a8.683 8.683 0 0 0 1.916 1.746c.155.093.077.355-.4.665-.093.062-.216.108-.216.247v.587h8.206c.958.015 1.051 1.02 1.051 1.329v5.44c0 .015-.077 1.468-2.426 1.468-2.921.015-2.751-1.375-2.751-1.375" class="cls-1" data-name="Path 620" transform="translate(-145.263 -24.349)"/>
        <path id="Path_621" d="M441.7 192.229V179l.278.448a5.419 5.419 0 0 0 1.051 1.066 4.185 4.185 0 0 0 .912.665c.139.062.263.108.263.263v.139a.608.608 0 0 1-.417.479.674.674 0 0 0-.448.634c-.031.309 0 9.535 0 9.535z" class="cls-1" data-name="Path 621" transform="translate(-356.116 -.085)"/>
        <path id="Path_622" d="M389.755 193.86l1.654-1.669-2.009-1.978v-11.3a8.376 8.376 0 0 0 2.055 2.5v.124a.6.6 0 0 1-.325.464.675.675 0 0 0-.371.649c-.015.294 0 6.6 0 6.707l1.669 1.731 1.669-1.731s.015-6.4 0-6.707a.675.675 0 0 0-.371-.649.542.542 0 0 1-.325-.464v-.093a6.577 6.577 0 0 0 2.055-2.55v11.142l-2.009 2.117 1.669 1.669-2.674 2.689zm2.689 1.113l1.113-1.128-1.113-1.113-1.128 1.113z" class="cls-1" data-name="Path 622" transform="translate(-311.402)"/>
        <path id="Path_623" d="M295.4 320.99l2.828-3.044v-6.012c0-.046.062-.093.062-.093l.417-.2v-.34h-3.8v.34l.386.247c.108.062.124.108.124.155v3.446h-7.6l-1.715 2.179v-5.61l.015-.108a.382.382 0 0 1 .093-.062l.355-.232.031-.015v-.34H282.8v.34l.371.247c.062.031.077.062.093.062v10.323l-.015.139a.154.154 0 0 1-.077.062l-.371.247v.34h3.786v-.34l-.4-.247-.093-.046V317.7l.4.124.525-.309a.948.948 0 0 1 .232-.108.514.514 0 0 1 .216-.031h7.933z" class="cls-1" data-name="Path 623" transform="translate(-220.257 -114.245)"/>
        <path id="Path_624" d="M519.072 315.805a6.064 6.064 0 0 0-3.029-3.431 12.671 12.671 0 0 0-6.12-1.174H499.6v.34s.433.294.448.294v1.221h9.86a8.993 8.993 0 0 1 4.343.788 3.651 3.651 0 0 1 2.1 3.261 3.394 3.394 0 0 1-.541 1.87 4.248 4.248 0 0 1-1.638 1.406 9.807 9.807 0 0 1-4.327.742H504.7V313.9h-2.813v8.283l-.015.124-.077.077-.34.216-.031.015v.34h8.438a19.819 19.819 0 0 0 3.786-.278 8.906 8.906 0 0 0 3.23-1.329 5.579 5.579 0 0 0 1.994-2.164 4.334 4.334 0 0 0 .433-1.947 6.345 6.345 0 0 0-.232-1.437" class="cls-1" data-name="Path 624" transform="translate(-407.311 -114.159)"/>
        <path id="Path_625" d="M364.379 334.349a.627.627 0 0 1-.155-.046l7.078-7.356-1.638-1.746-9.164 9.582h4.219v-.4h-.155c-.062-.015-.124-.015-.185-.031" class="cls-1" data-name="Path 625" transform="translate(-286.836 -126.084)"/>
        <path id="Path_626" d="M418.105 312.9l1.808 1.916 1.87 1.885h-3.153l-1.73 1.809.371.263.4-.216a.392.392 0 0 1 .108-.031h5.7l3.724 3.987s-.062.062-.386.062h-.139v.4h4.222L419.728 311.2z" class="cls-1" data-name="Path 626" transform="translate(-335.574 -114.16)"/>
        <path id="Path_627" d="M249.415 311.555l.371.247c.093.062.139.108.139.155v10.2l-.031.139a.467.467 0 0 1-.108.077l-.386.247v.34h3.771v-.34l-.34-.247a.556.556 0 0 1-.077-.062h-.015v-10.354l.015-.108.093-.077.34-.232v-.34h-3.771z" class="cls-1" data-name="Path 627" transform="translate(-191.027 -114.159)"/>
        <path id="Path_628" d="M45.585 320.7l-.495.278a1.129 1.129 0 0 1-.216.108l-8.422.015a9.96 9.96 0 0 1-4.358-.742 3.521 3.521 0 0 1-2.164-3.292 3.381 3.381 0 0 1 .556-1.854 4.834 4.834 0 0 1 3.276-2.071 5.64 5.64 0 0 1 1.035-.093h4.343c.263-.015.216.046.232.077l-.046.309h.355l1.854-2.241h-5.176a24.813 24.813 0 0 0-2.782.124c-.34.046-.665.108-.989.17a9.217 9.217 0 0 0-2.457.958 6.47 6.47 0 0 0-2.7 2.735 4.544 4.544 0 0 0-.433 2.055 5 5 0 0 0 3.029 4.5 9.315 9.315 0 0 0 3.044 1.02 21.742 21.742 0 0 0 3.384.2h7.835l1.87-2.272H46z" class="cls-1" data-name="Path 628" transform="translate(0 -114.159)"/>
        <path id="Path_629" d="M59.1 341.887l1.824-2.287H48.636l-1.236 1.839h11.081c.2.015.278.077.294.108l-.046.325h.371z" class="cls-1" data-name="Path 629" transform="translate(-17.253 -138.048)"/>
        <path id="Path_630" d="M118.2 313.617l.355.124.046.015.541-.263a.844.844 0 0 1 .448-.139h6.769v9.1l-.031.124c-.031.031-.062.062-.077.062l-.386.263v.34h3.786v-.34l-.386-.247-.093-.093v-9.211h6.028c.232.031.263.077.263.093v.325h.34l1.87-2.272h-17.758z" class="cls-1" data-name="Path 630" transform="translate(-78.593 -114.417)"/>
        <path id="Path_631" d="M137.6 431.617l2.859-7.217h.927l2.828 7.217h-1.468l-.572-1.5H140.3l-.4-1.02h1.885l-.742-1.994-.2-.618-.2.618-1.7 4.513z" class="cls-1" data-name="Path 631" transform="translate(-95.05 -211.344)"/>
        <path id="Rectangle_87" d="M0 0h1.406v7.217H0z" class="cls-1" data-name="Rectangle 87" transform="translate(51.945 213.056)"/>
        <path id="Path_632" d="M243.964 431.617l-1.654-2.364h-.8v2.364h-1.41V424.4h2.318a2.9 2.9 0 0 1 1.947.572 2.137 2.137 0 0 1 .665 1.715 2.616 2.616 0 0 1-.386 1.453 2.138 2.138 0 0 1-1.082.9l1.963 2.55h-1.561zm-2.442-3.354h.912c.788 0 1.19-.479 1.19-1.422a1.539 1.539 0 0 0-.278-.989 1.118 1.118 0 0 0-.927-.34h-.9z" class="cls-1" data-name="Path 632" transform="translate(-183.093 -211.344)"/>
        <path id="Path_633" d="M295.433 431.617L293.3 424.4h1.453l1.329 5.146h.062l1.283-3.987-.371-1.159h1.375l1.669 5.146h.031l1.345-5.146h1.375l-2.179 7.217h-1.19l-1.453-4.466-1.453 4.466z" class="cls-1" data-name="Path 633" transform="translate(-228.981 -211.344)"/>
        <path id="Path_634" d="M370.1 431.617l2.859-7.217h.927l2.828 7.217h-1.453l-.572-1.5H372.8l-.4-1.02h1.9l-.757-1.994-.2-.618-.2.618-1.7 4.513z" class="cls-1" data-name="Path 634" transform="translate(-294.849 -211.344)"/>
        <path id="Path_635" d="M428.364 431.617v-2.952L426 424.4h1.561l1.561 3.044 1.623-3.044h1.375l-2.364 4.265v2.952z" class="cls-1" data-name="Path 635" transform="translate(-342.855 -211.344)"/>
        <path id="Path_636" d="M487.432 430.857a3.156 3.156 0 0 1-1.839-.479v-1.468a2.735 2.735 0 0 0 1.87.742c.865 0 1.3-.34 1.3-1a.739.739 0 0 0-.263-.6 2.478 2.478 0 0 0-.912-.371l-.263-.062a2.031 2.031 0 0 1-1.824-2.071 2.088 2.088 0 0 1 .665-1.654 2.825 2.825 0 0 1 1.9-.587 3.14 3.14 0 0 1 1.839.464v1.468a2.9 2.9 0 0 0-1.9-.711 1.5 1.5 0 0 0-.9.216.77.77 0 0 0-.278.665.747.747 0 0 0 .232.6 2.177 2.177 0 0 0 .881.371l.263.062a2.853 2.853 0 0 1 1.437.711 1.8 1.8 0 0 1 .448 1.329 2.3 2.3 0 0 1-.68 1.746 2.714 2.714 0 0 1-1.978.634" class="cls-1" data-name="Path 636" transform="translate(-393.871 -210.414)"/>
    </g>
</svg>
