<svg xmlns="http://www.w3.org/2000/svg" width="120" height="30.358" viewBox="0 0 120 30.358">
    <defs>
        <style>
            .cls-1{fill:#8f174f}.cls-2{fill:none}.cls-3{fill:#7bcbe2}.cls-4{fill:#089bc9}.cls-5{fill:#c8c4c3}.cls-6{fill:#b4175e}
        </style>
    </defs>
    <g id="Eurowings_Logo" transform="translate(-3.539 -3.535)">
        <path id="Path_597" d="M3.547 16.984v13.94h8.725l.481-2.32H6.327v-3.539h5.317l.484-2.511h-5.8V19.3h5.907l.519-2.317z" class="cls-1" data-name="Path 597" transform="translate(-.001 -1.758)"/>
        <path id="Path_598" d="M106.358 25.442a6.026 6.026 0 0 1 1.581.342 2.718 2.718 0 0 1 .858.69 2.37 2.37 0 0 1 .449.862 3.528 3.528 0 0 1 .137.969v.2a3.232 3.232 0 0 1-.313 1.478 2.582 2.582 0 0 1-.89 1 5.744 5.744 0 0 1-1.661.577 8.406 8.406 0 0 1-1.792.176 13.43 13.43 0 0 1-1.762-.126 11.453 11.453 0 0 1-1.879-.422l.436-1.911a13.337 13.337 0 0 0 1.664.344 12.058 12.058 0 0 0 1.488.107 7.849 7.849 0 0 0 1.075-.027 1.455 1.455 0 0 0 .654-.219.85.85 0 0 0 .349-.428 1.2 1.2 0 0 0 .051-.411 1.119 1.119 0 0 0-.233-.714 1.373 1.373 0 0 0-.944-.378l-1.454-.2a4.814 4.814 0 0 1-2.549-.89 2.594 2.594 0 0 1-.725-1.918v-.2a2.613 2.613 0 0 1 1.146-2.32 6.976 6.976 0 0 1 3.585-.842 10.6 10.6 0 0 1 1.909.157 7.9 7.9 0 0 1 1.36.353l-.466 1.854a11.214 11.214 0 0 0-1.36-.262 10.125 10.125 0 0 0-1.4-.093 4.048 4.048 0 0 0-1.8.238.92.92 0 0 0-.148 1.485 2.1 2.1 0 0 0 1 .337z" class="cls-1" data-name="Path 598" transform="translate(-13.2 -2.292)"/>
        <path id="Path_599" d="M95.162 21.354a9.14 9.14 0 0 0-2.315-.238 9.311 9.311 0 0 0-2.393.289 4.192 4.192 0 0 0-1.606.871 3.814 3.814 0 0 0-1.016 1.508 6.065 6.065 0 0 0-.356 2.193v.685a5.5 5.5 0 0 0 1.006 3.65 4.36 4.36 0 0 0 3.243 1.276 3.909 3.909 0 0 0 2.953-1.058v.445a3.272 3.272 0 0 1-.637 2.278 2.725 2.725 0 0 1-2.3.741 12.994 12.994 0 0 1-1.7-.166 12.292 12.292 0 0 1-1.548-.357l-.455 2.074a10.633 10.633 0 0 0 1.962.479 18.99 18.99 0 0 0 2.226.148 4.98 4.98 0 0 0 3.85-1.371 5.316 5.316 0 0 0 1.282-3.877v-8.751a10.394 10.394 0 0 0-2.186-.819m-.483 5.54a3.169 3.169 0 0 1-.527 2.016 2.054 2.054 0 0 1-1.685.647 2.579 2.579 0 0 1-1.087-.2 1.483 1.483 0 0 1-.656-.577 2.485 2.485 0 0 1-.322-.931 8.034 8.034 0 0 1-.089-1.272v-.7a3.326 3.326 0 0 1 .6-2.233 2.419 2.419 0 0 1 1.89-.666 5.464 5.464 0 0 1 1.018.1 2.577 2.577 0 0 1 .861.313v3.5z" class="cls-1" data-name="Path 599" transform="translate(-11.373 -2.283)"/>
        <path id="Rectangle_84" d="M0 0h119.993v30.355H0z" class="cls-2" data-name="Rectangle 84" transform="translate(3.546 3.536)"/>
        <path id="Path_600" d="M74.5 31.511v-10.16h2.48l.156 1.1a3.137 3.137 0 0 1 1.263-.989 4.336 4.336 0 0 1 1.771-.343 5.772 5.772 0 0 1 1.62.215 3.153 3.153 0 0 1 1.165.656 3 3 0 0 1 .763 1.106 4.083 4.083 0 0 1 .274 1.566v6.851h-2.7v-6.208a2.684 2.684 0 0 0-.449-1.752 1.782 1.782 0 0 0-1.454-.517 2.067 2.067 0 0 0-1.689.864 4.567 4.567 0 0 0-.411 2.363v5.244H74.5z" class="cls-1" data-name="Path 600" transform="translate(-9.616 -2.334)"/>
        <path id="Path_601" d="M35.869 23.642a10.078 10.078 0 0 0-.568-.118 4 4 0 0 0-.686-.057 2.339 2.339 0 0 0-1.87.674 2.561 2.561 0 0 0-.483 1.866v5.521h-2.928V21.367h2.615l.157 1.214a3.186 3.186 0 0 1 1.214-1.009 4.05 4.05 0 0 1 1.742-.342 4.412 4.412 0 0 1 .7.049 3.723 3.723 0 0 1 .636.166z" class="cls-1" data-name="Path 601" transform="translate(-3.499 -2.35)"/>
        <path id="Path_602" d="M25.654 21.39v10.161h-2.48l-.156-1.1a3.143 3.143 0 0 1-1.263.988 4.339 4.339 0 0 1-1.771.343 5.746 5.746 0 0 1-1.621-.216 3.144 3.144 0 0 1-1.164-.656 3.014 3.014 0 0 1-.764-1.106 4.1 4.1 0 0 1-.274-1.566V21.39h2.7v6.21a2.687 2.687 0 0 0 .45 1.752 1.784 1.784 0 0 0 1.454.516A2.067 2.067 0 0 0 22.449 29a4.567 4.567 0 0 0 .411-2.362V21.39z" class="cls-1" data-name="Path 602" transform="translate(-1.796 -2.322)"/>
        <path id="Path_603" d="M70.438 16.608a1.768 1.768 0 0 1 1.209.349 1.542 1.542 0 0 1 0 2 1.77 1.77 0 0 1-1.209.335 1.813 1.813 0 0 1-1.222-.335 1.542 1.542 0 0 1 0-2 1.811 1.811 0 0 1 1.222-.349m-1.355 4.1h2.758v10.163h-2.758z" class="cls-1" data-name="Path 603" transform="translate(-8.875 -1.705)"/>
        <path id="Path_604" d="M60.839 27.632l1.495-6.242h2.715l-3 10.161h-2.473l-1.77-6.145-1.748 6.145H53.49L50.426 21.39H53.3l1.511 6.31 1.665-5.876h2.7z" class="cls-1" data-name="Path 604" transform="translate(-6.338 -2.373)"/>
        <path id="Rectangle_85" d="M0 0h120v30.355H0z" class="cls-2" data-name="Rectangle 85" transform="translate(3.539 3.536)"/>
        <path id="Path_605" d="M47.863 24.064a3.835 3.835 0 0 0-.763-1.546 3.645 3.645 0 0 0-1.44-1.018 7.219 7.219 0 0 0-2.474-.367 7.369 7.369 0 0 0-2.508.4 3.629 3.629 0 0 0-1.439 1.018 3.918 3.918 0 0 0-.774 1.546 7.38 7.38 0 0 0-.282 1.914v.823a7.869 7.869 0 0 0 .264 1.944 3.9 3.9 0 0 0 .764 1.556 3.577 3.577 0 0 0 1.438 1.028 7.5 7.5 0 0 0 2.537.4 7.1 7.1 0 0 0 2.52-.4 3.614 3.614 0 0 0 1.439-1.056 3.948 3.948 0 0 0 .744-1.557 8 8 0 0 0 .263-1.9v-.823a8.045 8.045 0 0 0-.289-1.958m-2.426 2.927a3.8 3.8 0 0 1-.5 2.242 2.049 2.049 0 0 1-1.733.655 3.431 3.431 0 0 1-1.038-.137 1.5 1.5 0 0 1-.714-.469 2.029 2.029 0 0 1-.411-.891 6.387 6.387 0 0 1-.127-1.4v-1.139a3.653 3.653 0 0 1 .518-2.223 2.135 2.135 0 0 1 1.772-.655 2.042 2.042 0 0 1 1.741.655 3.811 3.811 0 0 1 .49 2.223v1.135z" class="cls-1" data-name="Path 605" transform="translate(-4.694 -2.285)"/>
        <path id="Path_606" d="M120.412 3.581c-2.215-.3-3.339.93-4.89 2.063l-5.3 4.163 1.021.54h.007a4.487 4.487 0 0 0 4.432-.5l2.239-1.779.856-.681L123.039 4z" class="cls-3" data-name="Path 606" transform="translate(-14.314)"/>
        <path id="Rectangle_86" d="M0 0h119.993v30.355H0z" class="cls-2" data-name="Rectangle 86" transform="translate(3.546 3.536)"/>
        <path id="Path_607" d="M110.221 10.447l1.019.541h.007a4.484 4.484 0 0 0 4.433-.5l2.238-1.778.857-.681z" class="cls-4" data-name="Path 607" transform="translate(-14.463 -.64)"/>
        <path id="Path_608" d="M130.122 6.488l-2.846-.512a4.66 4.66 0 0 0-3.637.811s-1.222.909-2.124 1.612l-2 1.588-4.637 3.688-.039.031 1.4.74a4.486 4.486 0 0 0 4.439-.5l4.146-3.284 3.343-2.633z" class="cls-1" data-name="Path 608" transform="translate(-14.971 -.335)"/>
        <path id="Path_609" d="M121.031 8.457c.9-.7 2.122-1.612 2.122-1.612a4.117 4.117 0 0 1 .959-.554l-5.166 1.493-.857.68-2.237 1.779a4.484 4.484 0 0 1-4.433.5c1.132.678 2.89.835 5.539.045l1.809-.539.26-.206z" class="cls-5" data-name="Path 609" transform="translate(-14.484 -.392)"/>
        <path id="Path_610" d="M129.036 10.421a11.126 11.126 0 0 1 2.138-1.439l-5.783 1.854-.34.268-4.146 3.283a4.484 4.484 0 0 1-4.439.5c2.041 1.121 5.185.3 7.828-.643l.158-.128s4.425-3.58 4.583-3.694" class="cls-5" data-name="Path 610" transform="translate(-15.203 -.732)"/>
        <path id="Path_611" d="M136.57 14.948c-2.321-.674-3.017-.248-5.752.575l-.228.19h-.007l-4.407 3.494a4.7 4.7 0 0 1-4.546.46c1.638.854 3.332.645 6.23-.259l11.615-3.566z" class="cls-5" data-name="Path 611" transform="translate(-15.937 -1.492)"/>
        <path id="Path_612" d="M137.107 9.277l-3.072-.559c-1.841-.341-2.711.254-4.5 1.653-.158.115-4.583 3.694-4.583 3.694l-4.968 4.008 1.4.74a4.7 4.7 0 0 0 4.559-.455l4.407-3.494h.006z" class="cls-1" data-name="Path 612" transform="translate(-15.703 -.724)"/>
        <path id="Path_613" d="M119.252 10.429l9.825-2.884-3.919 3.087-10.323 3.31z" class="cls-6" data-name="Path 613" transform="translate(-14.971 -.571)"/>
        <path id="Path_614" d="M124.8 14.521l10.7-3.581-4.915 4.06-10.6 3.4z" class="cls-6" data-name="Path 614" transform="translate(-15.703 -.992)"/>
    </g>
</svg>
