<svg xmlns="http://www.w3.org/2000/svg" width="120" height="14.053" viewBox="0 0 120 14.053">
    <defs>
        <style>
            .cls-1{fill:#1c4e9d}.cls-2{fill:#fff}.cls-3{fill:#ed192d}
        </style>
    </defs>
    <g id="layer1" transform="translate(-350.618 -469.151)">
        <path id="path3189" d="M453.3 476.871s.785-1.841 1.12-2.371a10.394 10.394 0 0 1 1.3 2.394 9.044 9.044 0 0 1-2.419-.023m-22.451-1.4V473.4s.022-1.548 1.248-1.548 1.078 1.5 1.09 1.694-.068 1.927-2.338 1.927zm3.842-5.188a75.018 75.018 0 0 1-9.208.146.4.4 0 0 0-.49.34.417.417 0 0 0 .128.571c.337.235 1.316.806 1.316 2.923v4.086s.191 2.246-1.36 3.091c0 0-.316.107-.148.553a.373.373 0 0 0 .469.339 38.608 38.608 0 0 1 6.386-.022s.3.022.378-.172a1.122 1.122 0 0 1 .11-.209s.3-.3-.152-.593-1.187-.742-1.249-2.626a9.02 9.02 0 0 1 0-1.927h.275s.952-.087 1.591 1.359c0 0 1.233 2.961 1.422 3.32a1.661 1.661 0 0 0 1.89 1 87.2 87.2 0 0 1 14.194.022.945.945 0 0 0 1-.594s1.145-3.07 1.42-3.56c0 0 2.421-.062 3.737-.042a4.015 4.015 0 0 1 .486 1.823 1.244 1.244 0 0 1-.868 1.229.425.425 0 0 0-.191.593.443.443 0 0 0 .488.381 65.349 65.349 0 0 1 9.95-.044s.383.151.509-.358a.408.408 0 0 0-.17-.594s-1.5-.337-1.5-2.733.021-4.085.021-4.085 1.143 1.629 2.5 4.066 2.081 3.473 2.081 3.473a1.448 1.448 0 0 0 2.014.614 39.053 39.053 0 0 0 3.608-2.077.391.391 0 0 0 .148-.552l-.125-.252s-.023-.147-.467-.191c0 0-1 .235-1.02-1.185s-.085-3.43 0-5.483a1.825 1.825 0 0 1 1.211-1.632s.422-.04.232-.549l-.127-.256s0-.212-.3-.168a20.288 20.288 0 0 1-3.712.044.44.44 0 0 0-.428.421s-.1.383.193.509a2.14 2.14 0 0 1 1.4 2.137c.061 1.635.083 3.9.083 3.9s-2.42-3.558-3.969-6.289a1.1 1.1 0 0 0-1.169-.677 33.649 33.649 0 0 1-4.687.018.456.456 0 0 0-.51.447.547.547 0 0 0 .255.633s1.274.806 1.274 1.081-.024 5.91-.024 5.91.109 2.309-.508 2.012c0 0-.36.233-1.23-1.357a82 82 0 0 1-3.819-8.26s-.384-1.227-1.167-1.227a2.421 2.421 0 0 0-.954.294 18.139 18.139 0 0 1-3.65 1.613.433.433 0 0 0-.3.549s-.061.316.4.491a1.956 1.956 0 0 1 1 .589 19.112 19.112 0 0 1-1.379 3.181c-.891 1.607-2.035 4.275-5.325 4.275h-1.3s-.338.04-.338-.424v-3.408h.849s1.377-.3 2.038 1.481c0 0 .125.55.592.337a.546.546 0 0 0 .488-.593 24.308 24.308 0 0 1 .021-3.239.432.432 0 0 0-.382-.465.517.517 0 0 0-.594.106 2.453 2.453 0 0 1-2 .929h-.993v-3.176s-.023-.21.124-.231 2-.468 3.077.4a4.742 4.742 0 0 1 1.379 1.549.47.47 0 0 0 .762.172s.427-.066.213-.723a21.4 21.4 0 0 1-.635-2.542.7.7 0 0 0-.786-.633 55.893 55.893 0 0 1-9.484.252.427.427 0 0 0-.531.362.468.468 0 0 0 .169.61s1.25.575 1.25 2.775v3.686s.214 2.923-.825 2.923c0 0-.447.19-1.209-1.314s-.806-1.547-.806-1.547a3.334 3.334 0 0 0-3.27-2.054s3.671-.614 3.332-3.367c0 0-.062-2.1-2.819-2.181" class="cls-1" transform="translate(-46.387 -.284)"/>
        <path id="path3191" d="M572.976 474.21a7.544 7.544 0 0 1 1.3 2.393 11.351 11.351 0 0 1-2.416-.021 18.585 18.585 0 0 1 1.119-2.372m9.615 3.432s.083 2.771-.956 2.58c0 0-.363.235-1.232-1.354a82.683 82.683 0 0 1-3.819-8.256s-.382-1.23-1.167-1.23a2.423 2.423 0 0 0-.953.294 18.035 18.035 0 0 1-3.649 1.613.432.432 0 0 0-.3.549s-.065.319.4.487a1.95 1.95 0 0 1 1 .594 18.985 18.985 0 0 1-1.378 3.175c-.89 1.611-1.678 3.96-3.776 5.018 0 0-.407.087-.276.575.149.549.424.4.424.4a13.4 13.4 0 0 1 3.735 0c.55.04.465-.4.465-.4a.359.359 0 0 0-.042-.446l-.233-.3s-.913-.235.381-2.837c0 0 2.422-.062 3.735-.044a3.969 3.969 0 0 1 .49 1.82 1.241 1.241 0 0 1-.872 1.229.428.428 0 0 0-.193.593.45.45 0 0 0 .491.384c.423-.044 7.469-.34 13.2.019a.506.506 0 0 0 .507-.336.531.531 0 0 0-.167-.7 2.532 2.532 0 0 1-1.21-2.305c-.086-1.8-.062-5.214-.062-5.214s-.086-1.9 1.121-2.494a.418.418 0 0 0 .151-.576.446.446 0 0 0-.47-.359 45.054 45.054 0 0 1-6.277.022s-.429-.022-.511.337a.462.462 0 0 0 .151.618 3.122 3.122 0 0 1 1.293 2.879v3.663" class="cls-1" transform="translate(-134.783 -.145)"/>
        <path id="path3193" d="M634.5 476.234v-2.076s.044-1.543 1.211-1.543 1.185 1.307 1.125 1.735-.169 1.884-2.335 1.884m3.65-5.274a48.707 48.707 0 0 1-9 .129.47.47 0 0 0-.617.421s-.041.381.195.533 1.187.718 1.25 2.707.106 1.418.065 4.13c0 0 .164 2.6-1.316 3.238 0 0-.384.084-.172.637 0 0 .128.423.485.274a51.113 51.113 0 0 1 6.5.022s.341.128.445-.319c0 0 .276-.3-.147-.614a2.727 2.727 0 0 1-1.277-2.2c-.085-1.336-.062-2.39-.062-2.39h.3s1-.13 1.676 1.439 1.146 2.711 1.146 2.711a3.589 3.589 0 0 0 1.166 1.651s.3.277 1.4.146a11.094 11.094 0 0 0 3.586-.927.4.4 0 0 0 .274-.552s.087-.364-.42-.467-.89-.594-1.252-1.315-.915-1.778-.915-1.778a3.353 3.353 0 0 0-3.161-1.862s3.331-.571 3.331-3.073-2.967-2.538-2.967-2.538" class="cls-1" transform="translate(-173.455 -1.128)"/>
        <path id="path3195" d="M401.5 476.19a7.032 7.032 0 1 1-7.029-7.023 7.023 7.023 0 0 1 7.029 7.023" class="cls-2" transform="translate(-22.949 -.01)"/>
        <path id="path3197" d="M398.819 471.952a5.242 5.242 0 0 1 3.6 6.018l-.008.046a5.964 5.964 0 0 1-1.072 2.506l-.01.011a7.037 7.037 0 0 0-10.159-9.649l-.018.016a4.908 4.908 0 0 0-1.288 5.288l.009.025a3.105 3.105 0 0 0 5.93-1.288l-.009-1.336a1.625 1.625 0 0 1 .848-1.423h.005a2.77 2.77 0 0 1 2.166-.214" class="cls-3" transform="translate(-24.281)"/>
        <path id="path3199" d="M366.128 482.333a7.048 7.048 0 0 0 10.014.78l.017-.012a4.889 4.889 0 0 0 1.288-5.28l-.009-.022a3.1 3.1 0 0 0-5.929 1.279l.009 1.337a1.618 1.618 0 0 1-.849 1.419h-.005a2.771 2.771 0 0 1-1.327.341 2.879 2.879 0 0 1-.838-.128 5.229 5.229 0 0 1-3.6-6.007l.006-.044a5.927 5.927 0 0 1 1.077-2.5l.007-.011a7.022 7.022 0 0 0-.759 7.473l-.058.044s-.273.209-.827-.424-3.8-4.554-3.8-4.554a15.521 15.521 0 0 1 4.076-3.091s.527-.17.4-.634l-.086-.277s-.018-.3-.488-.235a25.829 25.829 0 0 1-4.879.022.539.539 0 0 0-.467.278s-.214.359 0 .568.978.743.978 1.463c0 0 .165.532-1 1.376a27.435 27.435 0 0 1-2.376 1.655l.019-1.991a3.024 3.024 0 0 1 1.147-2.459.319.319 0 0 0 .19-.4l-.082-.212a.38.38 0 0 0-.428-.3 44.935 44.935 0 0 1-6.281.044.408.408 0 0 0-.381.191l-.084.168s-.149.384.084.552a2.784 2.784 0 0 1 1.253 2.5s.105 3.326-.044 4.617a3.733 3.733 0 0 1-1.296 2.941.474.474 0 0 0-.149.531l.149.274s.105.213.465.172a36.039 36.039 0 0 1 6.281-.044.271.271 0 0 0 .34-.147l.149-.3a.4.4 0 0 0-.149-.53 2.735 2.735 0 0 1-1.187-2.221c-.021-1.313-.021-2.145-.021-2.145s.573.236 3.626 4.748a2.375 2.375 0 0 0 3.374.742 19.669 19.669 0 0 0 2.376-1.5l.074-.044" class="cls-1" transform="translate(0 -1.637)"/>
    </g>
</svg>
