<svg xmlns="http://www.w3.org/2000/svg" width="150" height="26.42" viewBox="0 0 150 26.42">
    <defs>
        <style>
            .cls-1{clip-path:url(#clip-path)}.cls-2{fill:#0a1d3d}
        </style>
        <clipPath id="clip-path">
            <path id="path16" d="M0-585.825h150v26.42H0z" transform="translate(0 585.825)"/>
        </clipPath>
    </defs>
    <g id="g10" transform="translate(0 585.825)">
        <g id="g12" transform="translate(0 -585.825)">
            <g id="g14" class="cls-1">
                <g id="g20" transform="translate(.426 .426)">
                    <path id="path22" d="M-375.637-216.855c-.1 0-.179 0-.225.008-.054.1-.133.228-.251.409a29.191 29.191 0 0 1 5.33.481l-.519.5a25.668 25.668 0 0 0-4.793-.412h-.371c-.061.092-.2.271-.337.437.156-.01.458-.015.874-.015a26.181 26.181 0 0 1 4.259.343l-.519.5a25.325 25.325 0 0 0-3.7-.274c-.435 0-.928.015-1.37.041-.1.115-.36.4-.44.483a19.11 19.11 0 0 1 2-.089 21.4 21.4 0 0 1 3.121.217l-.519.5a19.907 19.907 0 0 0-2.311-.138 9.12 9.12 0 0 0-5.064 1.391 9.006 9.006 0 0 0 6.384 2.646h.225l-.839.811a27.83 27.83 0 0 1-10.175-4.254 33.186 33.186 0 0 0-6.3-3.607l-.015-.593 1.562.67.532-.422 5.1 2.337-.332.266-2.618-1.138-.258.2 1.36.759a5.885 5.885 0 0 0 2.83.925c1.767 0 3.352-1.253 4.374-3.454a19.8 19.8 0 0 1 2.577-.146 32.988 32.988 0 0 1 6.217.611l-.542.524a30.991 30.991 0 0 0-5.243-.524m-4.957 14.559a12.019 12.019 0 0 1-12.017-12.017 12.02 12.02 0 0 1 12.017-12.017 12.02 12.02 0 0 1 12.017 12.017 12.019 12.019 0 0 1-12.021 12.02m0-24.8a12.772 12.772 0 0 0-12.784 12.784 12.772 12.772 0 0 0 12.784 12.784 12.772 12.772 0 0 0 12.784-12.784 12.772 12.772 0 0 0-12.784-12.784m33.774 17.873h7.33v3.433h-11.274v-17.046h3.945zm16.193-8.839h3.677v12.273h-3.458v-1.407a3.63 3.63 0 0 1-3.482 1.777c-3.141 0-4.773-1.412-4.773-5.454v-7.183h3.677v7.013c0 1.632.706 2.362 2.192 2.362 1.339 0 2.167-.73 2.167-2.362zm6.5-.463c0-2.971 1.875-4.554 4.821-4.554a7.345 7.345 0 0 1 1.558.146v2.971s-.511-.049-.95-.049c-1.144 0-1.753.39-1.753 1.461v.487h2.7v3h-2.7v9.278h-3.677v-9.278h-1.851v-3h1.851v-.463m12.857.463h2.8v3h-2.8v4.773c0 1.315.682 1.656 1.753 1.656.438 0 1.047-.073 1.047-.073v2.946a8.942 8.942 0 0 1-1.753.195c-2.946 0-4.724-1.339-4.724-4.31v-5.187h-1.852v-3h1.851v-3.58h3.677zm10.941-.365c3.117 0 4.749 1.412 4.749 5.454v7.184h-3.677v-7.006c0-1.631-.706-2.362-2.24-2.362-1.388 0-2.216.73-2.216 2.362v7.013h-3.677v-17.021h3.7v5.942a3.769 3.769 0 0 1 3.36-1.558m14.123 7.865c0 1.339-1.266 2.338-3.214 2.338-.95 0-1.51-.438-1.51-1.266 0-.633.39-1.169 1.632-1.339l2.119-.292a6.21 6.21 0 0 0 .974-.195zm-2.045-7.865c-3.628 0-5.382 1.388-5.528 3.994h3.579c.049-.682.438-1.193 1.948-1.193 1.339 0 1.972.438 1.972 1.1 0 .585-.365.8-1.266.9l-2.338.243c-3.166.341-4.6 1.656-4.6 4.042 0 2.216 1.364 3.92 4.261 3.92a4.793 4.793 0 0 0 4.164-1.9v1.534h3.36v-8.06c0-3.385-1.972-4.578-5.552-4.578m14.054 0c3.19 0 4.822 1.412 4.822 5.454v7.184h-3.677v-7.016c0-1.631-.706-2.362-2.24-2.362-1.388 0-2.216.73-2.216 2.362v7.013h-3.677v-12.273h3.458v1.412a3.661 3.661 0 0 1 3.531-1.778m12.578 4.943c3.117.414 4.675 1.388 4.675 3.945 0 2.581-1.826 4.115-5.7 4.115-4.213 0-5.7-1.68-5.771-4.14h3.628c.1.9.731 1.339 2.143 1.339 1.437 0 2.021-.341 2.021-1.023 0-.633-.487-.925-1.753-1.1l-1.291-.171c-2.7-.365-4.261-1.412-4.261-3.847 0-2.338 1.729-4.067 5.357-4.067 3.36 0 5.162 1.339 5.333 3.994h-3.58c-.122-.706-.511-1.144-1.753-1.144-1.218 0-1.68.414-1.68.95s.292.828 1.339.974l1.291.17m13.88 2.922c0 1.339-1.267 2.338-3.214 2.338-.95 0-1.51-.438-1.51-1.266 0-.633.39-1.169 1.632-1.339l2.119-.292a6.189 6.189 0 0 0 .974-.195zm-2.046-7.865c-3.628 0-5.381 1.388-5.527 3.994h3.58c.049-.682.438-1.193 1.948-1.193 1.339 0 1.973.438 1.973 1.1 0 .584-.365.8-1.266.9l-2.338.243c-3.166.341-4.6 1.656-4.6 4.042 0 2.216 1.364 3.92 4.261 3.92a4.793 4.793 0 0 0 4.164-1.9v1.534h3.36v-8.06c0-3.385-1.972-4.578-5.552-4.578" class="cls-2" transform="translate(393.378 227.097)"/>
                </g>
            </g>
        </g>
    </g>
</svg>
