<svg xmlns="http://www.w3.org/2000/svg" width="64" height="29.244" viewBox="0 0 64 29.244">
    <defs>
        <style>
            .cls-1,.cls-2{fill:#c6037c;fill-rule:evenodd}.cls-2{fill:#660f6f}
        </style>
    </defs>
    <g id="g2498" transform="translate(-10.63 170.663)">
        <path id="path2504" d="M157.829-155.182h19.347l-13.44 15.934h9.608l-.785 4.486H153.4l13.083-15.938h-8.655v-4.486" class="cls-1" transform="translate(-102.545 -10.695)"/>
        <path id="path2506" d="M108.452-163.164H129.5l-15.085 17.911h8.285l-4.056 4.976h-15.556l14.468-17.911-10.393-.017 1.29-4.959" class="cls-2" transform="translate(-66.57 -5.181)"/>
        <path id="path2508" d="M100.7-148.568h-5.232l3.57-22.095h5.271l-3.609 22.095" class="cls-1" transform="translate(-60.348)"/>
        <path id="path2510" d="M93.53-92.173a3.378 3.378 0 0 1 3.365 3.383 3.378 3.378 0 0 1-3.365 3.383 3.382 3.382 0 0 1-3.384-3.383 3.382 3.382 0 0 1 3.384-3.383" class="cls-1" transform="translate(-56.507 -56.013)"/>
        <path id="path2512" d="M10.63-159.172l2.9 21.654h4.449l6.67-12.282.991 12.277h4.374l11.627-21.654h-6.523l-5.608 11.66-.9-11.656h-5.119l-5.944 11.656-.972-11.656H10.63" class="cls-2" transform="translate(0 -7.938)"/>
    </g>
</svg>
