<?xml version="1.0" encoding="utf-8"?>
<!-- Generator: Adobe Illustrator 18.1.1, SVG Export Plug-In . SVG Version: 6.00 Build 0)  -->
<svg version="1.1" id="Слой_1" xmlns="http://www.w3.org/2000/svg" xmlns:xlink="http://www.w3.org/1999/xlink" x="0px" y="0px"
	 viewBox="0 0 100 100" enable-background="new 0 0 100 100" xml:space="preserve">
<path id="path22" d="M69.4,40.1c-0.4,0-0.7,0-0.9,0c-0.2,0.4-0.5,0.9-1,1.6c7,0,14,0.6,20.8,1.9l-2,2c-6.2-1.1-12.5-1.7-18.7-1.6
	h-1.5c-0.2,0.4-0.8,1.1-1.3,1.7c0.6,0,1.8-0.1,3.4-0.1c5.6,0,11.2,0.4,16.7,1.3l-2,2c-4.8-0.7-9.6-1.1-14.5-1.1
	c-1.7,0-3.6,0.1-5.4,0.2c-0.4,0.4-1.4,1.6-1.7,1.9c2.6-0.3,5.2-0.4,7.8-0.3c4.1,0,8.2,0.3,12.2,0.8l-2,2c-3-0.4-6-0.5-9-0.5
	c-7-0.2-13.9,1.7-19.8,5.4c6.6,6.6,15.6,10.4,25,10.3h0.9L73,70.7c-14.2-2.8-27.8-8.5-39.8-16.6C25.6,48.5,17.3,43.8,8.6,40
	l-0.1-2.3l6.1,2.6l2.1-1.7l19.9,9.1l-1.3,1l-10.2-4.5l-1,0.8l5.3,3c3.3,2.1,7.1,3.4,11.1,3.6c6.9,0,13.1-4.9,17.1-13.5
	c3.3-0.4,6.7-0.6,10.1-0.6c8.2,0,16.3,0.8,24.3,2.4l-2.1,2C83.1,40.8,76.3,40.1,69.4,40.1 M50,97c-26,0-47-21-47-47
	c0-26,21-47,47-47c26,0,47,21,47,47C97,75.9,76,97,50,97C50,97,50,97,50,97 M50,0C22.4,0,0,22.3,0,49.9c0,0,0,0.1,0,0.1
	c0,27.6,22.3,50,49.9,50c0,0,0.1,0,0.1,0c27.6,0,50-22.3,50-49.9c0,0,0-0.1,0-0.1C100,22.4,77.7,0,50,0C50.1,0,50,0,50,0"/>
</svg>
