<svg xmlns="http://www.w3.org/2000/svg" id="prefix__budget-2" width="80.823" height="29.373" viewBox="0 0 80.823 29.373">
    <defs>
        <style>
            .prefix__cls-1{fill:#d06738;fill-rule:evenodd}
        </style>
    </defs>
    <path id="prefix__Path_1225" d="M17.666 75.388a4.566 4.566 0 0 0-1.757-1.827 4.749 4.749 0 0 0 1.557-1.6 5.947 5.947 0 0 0 .528-2.571v-2.651a4.5 4.5 0 0 0-1.339-3.233 5.134 5.134 0 0 0-3.4-1.126H2.834v23.5h9.1a8.044 8.044 0 0 0 4.591-1.12 4.364 4.364 0 0 0 1.473-3.523v-2.748a8.586 8.586 0 0 0-.332-3.101zm-9.147-9.406h2.369a1.506 1.506 0 0 1 1.465 1.224 6.657 6.657 0 0 1 .007 3.345c-.28.959-.829 1.494-1.472 1.494H8.519zm3.849 14.661c-.276 1.033-.814 1.636-1.48 1.636H8.52v-6.822h2.369c.647 0 1.2.529 1.478 1.547a8.075 8.075 0 0 1 .001 3.639zM26.711 68.73h4.927v17.15h-4.927v-.38a10.514 10.514 0 0 1-3.094.433 5.242 5.242 0 0 1-3.61-.933c-.937-.857-1.065-2.445-1.065-3.856V68.73h4.927v11.56a2.515 2.515 0 0 0 .587 1.885 1.3 1.3 0 0 0 1.669 0 2.516 2.516 0 0 0 .586-1.885V68.73zm14.023-6.349v5.875h-4.453a3.79 3.79 0 0 0-3.79 3.79v9.949a3.789 3.789 0 0 0 3.79 3.79h5.59a3.81 3.81 0 0 0 1.452-.289 3.75 3.75 0 0 0 1.226-.822 4.117 4.117 0 0 0 .827-1.229 3.649 3.649 0 0 0 .38-1.451V62.381zm.013 18.875a1.621 1.621 0 0 1-.661 1.125 1.723 1.723 0 0 1-1.546 0 1.619 1.619 0 0 1-.661-1.125 4.111 4.111 0 0 1-.082-.987v-6.307a4.111 4.111 0 0 1 .082-.988 1.621 1.621 0 0 1 .661-1.125 1.726 1.726 0 0 1 1.546 0 1.621 1.621 0 0 1 .661 1.125 4.111 4.111 0 0 1 .082.988v6.308a4.107 4.107 0 0 1-.082.987zm14.2-12.906l-.663.663a4.341 4.341 0 0 0-.851-.473 2.766 2.766 0 0 0-.949-.19h-1.99a3.791 3.791 0 0 0-3.79 3.79v9a3.791 3.791 0 0 0 3.79 3.79h4.454v1.9c0 .559.013 1.211-.461 1.56a1.939 1.939 0 0 1-1.773.143 1.183 1.183 0 0 1-.7-1.135v-1.614h-4.931v2.653a3.371 3.371 0 0 0 1.558 2.588 5.727 5.727 0 0 0 3.179.729h3.127a5.769 5.769 0 0 0 3.573-.829 4.306 4.306 0 0 0 1.26-3.245V68.35h-4.833zm.013 11.864a1.62 1.62 0 0 1-.661 1.125 1.725 1.725 0 0 1-1.547 0 1.62 1.62 0 0 1-.661-1.125 4.112 4.112 0 0 1-.082-.988v-5.075a4.112 4.112 0 0 1 .082-.988 1.621 1.621 0 0 1 .661-1.125 1.728 1.728 0 0 1 1.547 0 1.621 1.621 0 0 1 .661 1.125 4.112 4.112 0 0 1 .082.988v5.076a4.089 4.089 0 0 1-.082.987zm18.94-7.679v5.1h-7.678v2.916a4.052 4.052 0 0 0 .083.986 1.7 1.7 0 0 0 .633 1.118 1.462 1.462 0 0 0 1.412 0 1.7 1.7 0 0 0 .633-1.118 4.054 4.054 0 0 0 .083-.986v-1.662h4.832v2.637a4.263 4.263 0 0 1-4.263 4.264H64.99a4.263 4.263 0 0 1-4.263-4.264v-8.991a4.262 4.262 0 0 1 4.263-4.264h4.643a4.258 4.258 0 0 1 1.631.325 4.4 4.4 0 0 1 1.371.909 4.1 4.1 0 0 1 .9 1.293l-.014-2.543H75.7v-3.79h5.4v3.79h2.558v3.411H81.1v9.286a2.28 2.28 0 0 0 .276 1.316 1.486 1.486 0 0 0 1.145.578h1.042v3.127h-3.412A4.434 4.434 0 0 1 77 84.618a5.1 5.1 0 0 1-1.3-3.382v-9.569h-1.9l.1.868zm-4.9.5a1.633 1.633 0 0 0-.673-1.188 1.741 1.741 0 0 0-1.552 0 1.638 1.638 0 0 0-.674 1.188 4.113 4.113 0 0 0-.066 1.305h3.032A4.089 4.089 0 0 0 69 73.036zm-6.05 16.217a2.182 2.182 0 0 1-.037-.393.4.4 0 0 0-.1-.289.167.167 0 0 0-.105-.059.337.337 0 0 0 .176-.143.5.5 0 0 0 .07-.267.552.552 0 0 0-.086-.289.536.536 0 0 0-.5-.191h-.758v1.741h.29v-.715h.438a.3.3 0 0 1 .207.056c.105.124.059.289.078.428a.532.532 0 0 0 .045.231H63c.012-.068-.035-.062-.052-.11zm-.384-.91a.349.349 0 0 1-.128.05c-.161.015-.357 0-.535.007v-.531c.181 0 .362-.008.541.007a.244.244 0 0 1 .193.137.279.279 0 0 1-.073.33z" class="prefix__cls-1" data-name="Path 1225" transform="translate(-2.834 -62.381)"/>
    <path id="prefix__Path_1226" d="M139.8 120.142a1.47 1.47 0 1 0 .2.734 1.478 1.478 0 0 0-.2-.734zm-.176 1.373a1.245 1.245 0 1 1 .167-.623 1.249 1.249 0 0 1-.163.624z" class="prefix__cls-1" data-name="Path 1226" transform="translate(-79.075 -94.772)"/>
</svg>
