<svg xmlns="http://www.w3.org/2000/svg" id="prefix__Enterprise_Rent-A-Car_Logo" width="122.648" height="24.532" viewBox="0 0 122.648 24.532">
    <defs>
        <style>
            .prefix__cls-2{fill:#fff}.prefix__cls-3{fill:#009750}
        </style>
    </defs>
    <path id="prefix__rect236" fill="#231f20" d="M0 0H98.118V24.532H0z" transform="translate(24.53)"/>
    <path id="prefix__path238" d="M146.242 25.653a5.273 5.273 0 0 1-3.524-1.268v4.97h-2.785V16.788h2.785v.933a5.83 5.83 0 0 1 3.524-1.158 7.115 7.115 0 0 1 4.765 1.549 3.844 3.844 0 0 1 1.425 2.986c0 2.685-2.476 4.555-6.189 4.555m2.446-6.453a3.6 3.6 0 0 0-2.6-.885c-2.083 0-3.373 1.094-3.373 2.7a2.464 2.464 0 0 0 .794 1.834 3.562 3.562 0 0 0 2.579.888 3.615 3.615 0 0 0 2.6-.888 2.53 2.53 0 0 0 0-3.65z" class="prefix__cls-2" transform="translate(-71.356 -8.446)"/>
    <path id="prefix__path240" d="M187.68 11.607a2.384 2.384 0 0 1-1.514-.467.994.994 0 0 1-.459-.793 1.048 1.048 0 0 1 .459-.808 2.468 2.468 0 0 1 1.487-.468 2.508 2.508 0 0 1 1.511.468 1.055 1.055 0 0 1 .454.808c0 .7-.869 1.26-1.939 1.26m1.5 10.055h-3.051v-8.694h3.051z" class="prefix__cls-2" transform="translate(-94.697 -4.625)"/>
    <path id="prefix__path242" d="M200.72 25.742c-2.4 0-3.781-.46-5.02-1.559l-.166-.157.214-.116 1.88-1 .118-.075.12.1a4.7 4.7 0 0 0 2.855.961 3.351 3.351 0 0 0 2.057-.52.474.474 0 0 0 .218-.385c0-.711-1.419-.926-2.442-1.079l-.357-.039c-2.117-.307-4.314-.828-4.314-2.6a2.094 2.094 0 0 1 .832-1.619 7.876 7.876 0 0 1 4.481-1.158 5.947 5.947 0 0 1 4.448 1.465l.146.157-2.119 1.04-.141.076-.12-.094a3.5 3.5 0 0 0-2.359-.793c-.971 0-1.793.271-1.793.772 0 .754 1.463.944 2.531 1.08.166.038.336.038.454.077 2.069.308 4.122.868 4.122 2.642 0 2.084-3.1 2.834-5.645 2.834" class="prefix__cls-2" transform="translate(-99.708 -8.407)"/>
    <path id="prefix__path244" d="M58.287 25.408v-5.045a1.73 1.73 0 0 0-.6-1.4 3.186 3.186 0 0 0-2-.565c-2.015 0-2.6.945-2.6 2.589v4.425h-3.032v-8.623h3.029v.982a5.021 5.021 0 0 1 3.566-1.207 5.7 5.7 0 0 1 3.632 1.075 2.822 2.822 0 0 1 1.032 2.269v5.5h-3.027" class="prefix__cls-2" transform="translate(-25.524 -8.446)"/>
    <path id="prefix__path246" d="M74.616 16.274V14.48h1.995v-2.341h3.04v2.341h3.192v1.794h-3.192v3.967c0 .845.36 1.371 1.718 1.371a3.487 3.487 0 0 0 1.473-.263v1.774a7.786 7.786 0 0 1-2.242.277c-3.259 0-3.99-1-3.99-2.987v-4.139h-1.994" class="prefix__cls-2" transform="translate(-38.049 -6.19)"/>
    <path id="prefix__path248" d="M102.222 22.763a5.731 5.731 0 0 1-6.284-.241 1.733 1.733 0 0 1-.5-.873h9.423c.493-.006.749-.208.749-.821a4.289 4.289 0 0 0-1.3-2.918 7.618 7.618 0 0 0-5.216-1.713 7.722 7.722 0 0 0-5.39 1.94 3.787 3.787 0 0 0-1.217 2.717 3.873 3.873 0 0 0 1.217 2.79 7.932 7.932 0 0 0 5.467 1.838 10.389 10.389 0 0 0 3.193-.466 6.617 6.617 0 0 0 1.225-.564 5.1 5.1 0 0 0 1.069-.843 3.169 3.169 0 0 0 .5-.686c.1-.209-.257-.16-.483-.165h-2.441l-.015.01m.064-2.806h-7.015a4.256 4.256 0 0 1 3.782-1.936 4.08 4.08 0 0 1 3.648 1.524c.202.35-.129.408-.413.408z" class="prefix__cls-2" transform="translate(-47.162 -8.258)"/>
    <path id="prefix__path250" d="M129.374 16.753a6.219 6.219 0 0 0-1.141-.124 5.679 5.679 0 0 0-3.521 1.58v-1.354h-3.028v8.618h3.028v-4.309c0-1.682 1.1-2.492 3.321-2.492a7.209 7.209 0 0 1 1.1.109l.243.058v-2.086" class="prefix__cls-2" transform="translate(-62.05 -8.479)"/>
    <path id="prefix__path252" d="M175.881 16.753a6.21 6.21 0 0 0-1.141-.124 5.68 5.68 0 0 0-3.521 1.58v-1.354h-3.027v8.618h3.027v-4.309c0-1.682 1.1-2.492 3.322-2.492a7.213 7.213 0 0 1 1.1.109l.243.058v-2.086" class="prefix__cls-2" transform="translate(-85.766 -8.479)"/>
    <path id="prefix__path254" d="M228.8 22.763a5.731 5.731 0 0 1-6.284-.241 1.732 1.732 0 0 1-.5-.873h9.423c.493-.006.75-.208.75-.821a4.285 4.285 0 0 0-1.3-2.918 7.624 7.624 0 0 0-5.218-1.713 7.731 7.731 0 0 0-5.392 1.94 3.791 3.791 0 0 0-1.216 2.717 3.877 3.877 0 0 0 1.216 2.79 7.938 7.938 0 0 0 5.469 1.838 10.379 10.379 0 0 0 3.193-.466 6.6 6.6 0 0 0 1.225-.564 5.1 5.1 0 0 0 1.069-.843 3.134 3.134 0 0 0 .5-.686c.1-.209-.258-.16-.483-.165h-2.441l-.016.01m.064-2.806h-7.016a4.25 4.25 0 0 1 3.78-1.936 4.08 4.08 0 0 1 3.648 1.524c.198.35-.129.408-.412.408z" class="prefix__cls-2" transform="translate(-111.705 -8.258)"/>
    <path id="prefix__path256" d="M22.9 18.361c-.482-2.4-3.287-4.823-7.716-4.823-3.907 0-6.744 2.072-7.662 4.2-.02.043-.093.229-.119.31H0v2.178h20.714c1.023-.008 1.754-.029 2.073-.418.217-.265.252-.712.112-1.446m-3.278-.48c-.069.135-.309.16-.535.165h-8.529a1.792 1.792 0 0 1 .178-.31 5.692 5.692 0 0 1 4.513-2.02A5.062 5.062 0 0 1 19.54 17.5c.101.178.126.3.08.381z" class="prefix__cls-2" transform="translate(0 -6.903)"/>
    <path id="prefix__path258" d="M23.018 29.947a5.7 5.7 0 0 1-4.267-1.758h-3.3c.869 2.085 3.494 4.109 7.6 4.1 4.214 0 5.911-1.476 7.014-2.917a1.632 1.632 0 0 0 .126-.2h-3.864a5.815 5.815 0 0 1-3.309.769" class="prefix__cls-2" transform="translate(-7.88 -14.375)"/>
    <path id="prefix__path260" d="M0 0v11.143h7.4c.026-.081.1-.267.119-.31.917-2.126 3.755-4.2 7.662-4.2 4.429 0 7.233 2.427 7.716 4.823.14.734.105 1.18-.112 1.446-.318.389-1.05.41-2.073.418H0v11.212h24.531V0H0m22.189 15c-1.1 1.442-2.8 2.912-7.014 2.917-4.107.006-6.733-2.018-7.6-4.1h3.3a5.7 5.7 0 0 0 4.267 1.758 5.815 5.815 0 0 0 3.309-.769h3.868a1.647 1.647 0 0 1-.13.194z" class="prefix__cls-3"/>
    <path id="prefix__path262" fill="#00a564" d="M30.6 20.148c.046-.086.021-.2-.081-.379a5.062 5.062 0 0 0-4.292-1.787A5.692 5.692 0 0 0 21.719 20a1.8 1.8 0 0 0-.178.31h8.528c.227 0 .467-.029.536-.165" transform="translate(-10.984 -9.17)"/>
    <path id="prefix__path264" d="M21.5 20.033a.555.555 0 0 0 .2-.538c-.04-1.142-2.028-4.205-6.528-4.205-4.333 0-5.917 2.517-6.3 3.29a3.525 3.525 0 0 0-.169.359h.5a2.634 2.634 0 0 1 .149-.31c.353-.653 1.975-2.895 5.815-2.895 4.477 0 6.051 3.036 6.052 3.69a.222.222 0 0 1-.065.186c-.126.119-.295.177-1.415.177H0v.444h19.747c1.447 0 1.613-.1 1.752-.2" class="prefix__cls-3" transform="translate(0 -7.796)"/>
    <path id="prefix__path266" d="M30.133 29.151l-.048.063c-1.744 2.173-5.384 2.128-5.793 2.115-3.117-.052-5.26-1.647-6.01-3.164h.509c.717 1.252 2.527 2.643 5.515 2.72.14.007 3.437.139 5.23-1.734h.6" class="prefix__cls-3" transform="translate(-9.322 -14.362)"/>
    <path id="prefix__path268" d="M3.263 44.6a.94.94 0 0 1 0 1.321.892.892 0 0 1-.663.279.892.892 0 0 1-.659-.275.908.908 0 0 1-.269-.663.931.931 0 0 1 .928-.931.9.9 0 0 1 .658.274m.107-.1a1.046 1.046 0 0 0-.765-.315 1.082 1.082 0 0 0 0 2.164 1.084 1.084 0 0 0 1.087-1.094 1.038 1.038 0 0 0-.317-.76zm-.606.714a.574.574 0 0 1-.2.026h-.182v-.43h.179a.541.541 0 0 1 .252.044.214.214 0 0 1-.044.36zm-.6.64h.209v-.468h.165a.51.51 0 0 1 .233.038.29.29 0 0 1 .112.272V45.851a.049.049 0 0 0 0 .012h.2l-.007-.015a.163.163 0 0 1-.011-.062V45.6a.319.319 0 0 0-.065-.184.288.288 0 0 0-.195-.116.477.477 0 0 0 .173-.058.259.259 0 0 0 .116-.234.294.294 0 0 0-.185-.3.9.9 0 0 0-.324-.043h-.413v1.188z" class="prefix__cls-2" transform="translate(-.778 -22.53)"/>
</svg>
