<svg xmlns="http://www.w3.org/2000/svg" id="prefix__europcar-logo" width="107.888" height="34.887" viewBox="0 0 107.888 34.887">
    <path id="prefix__Path_1227" fill="#0e8102" d="M45.807 34.887h107.888V0H45.807z" data-name="Path 1227" transform="translate(-45.807)"/>
    <path id="prefix__Path_1228" fill="#ffea00" d="M403.9 434.005c-28.408 0-48.6 1.75-48.6 1.75v.76h50.275l.536-2.515c-.651 0-1.422 0-2.211.005zm3.729 0l-.459 2.515h45.857v-.76c-.004-.005-18.946-1.612-45.401-1.755z" data-name="Path 1228" transform="translate(-349.964 -410.268)"/>
    <path id="prefix__Path_1229" fill="#fff" d="M536.169 160.905l-2.669 12.566h9.6l.383-2.362h-6.551l.607-2.893h5.944l.459-2.515H538l.536-2.362h6.628l.383-2.439zm32.071 3.046c-3.74 0-5.255 1.99-5.867 4.878s.815 4.949 3.806 4.949c3.554 0 5.255-1.99 5.868-4.878s-.357-4.949-3.807-4.949zm21.4 0c-3.74 0-5.178 1.99-5.791 4.878s.738 4.949 3.735 4.949c3.035 0 4.752-1.444 5.561-3.658h-2.816a2.245 2.245 0 0 1-2.286 1.526c-1.679 0-1.832-1.433-1.526-2.893s1.061-2.893 2.74-2.893c1.3 0 1.651.908 1.6 1.98h2.74c.169-2.314-.947-3.889-3.954-3.889zm-9.826.153a4.371 4.371 0 0 0-2.893.913l.153-.684h-2.74c-.093.6-2.816 14.015-2.816 14.015h2.668l1.143-5.485c.525.815 2.012.99 2.669.99 2.685 0 3.921-2.6 4.418-4.949.511-2.465.014-4.804-2.6-4.804zm20.26 0c-4.79-.131-4.571 2.969-4.571 2.969h2.515s-.033-1.219 1.75-1.219c0 0 1.613-.071 1.372 1.066a.974.974 0 0 1-1.143.913s-5.31-.552-5.714 3.352a2.57 2.57 0 0 0 2.893 2.74 4.936 4.936 0 0 0 2.969-1.066 1.182 1.182 0 0 0 1.143.607h1.526l.459-1.826-.23-.153s-.186.022-.077-.459l.99-4.8c.434-2.08-3.88-2.128-3.88-2.128zm-53.622.23l-1.3 5.944a6.142 6.142 0 0 0-.153 1.449c.044 1.329 1.679 1.98 2.592 1.98a4.105 4.105 0 0 0 2.74-.837v.607h2.74c.06-.536.137-1.066.23-1.6l1.6-7.546h-2.745l-1.143 5.255a1.907 1.907 0 0 1-1.979 1.6c-1.176 0-1.252-.514-1.066-1.373l1.219-5.485h-2.74zm10.28 0c-.1.678-1.826 9.143-1.826 9.143h2.894l.99-4.725a4.185 4.185 0 0 1 .459-1.75 2.163 2.163 0 0 1 1.526-.607h1.3l.53-2.056a4.74 4.74 0 0 0-3.122.684v-.684zm49.739 0c-.109.678-1.826 9.143-1.826 9.143h2.893l.913-4.725a4.289 4.289 0 0 1 .536-1.75 2.164 2.164 0 0 1 1.526-.607h1.219l.607-2.056a4.739 4.739 0 0 0-3.122.684v-.684zm-38.617 1.526c1.679 0 1.755 1.509 1.449 2.969s-.815 2.816-2.668 2.816c-1.679 0-1.832-1.433-1.526-2.893s1.069-2.892 2.748-2.892zm10.74.377c1.247 0 1.591 1.187 1.3 2.592s-1.033 2.592-2.439 2.592c-1.476 0-1.641-1.334-1.372-2.592s1.037-2.592 2.517-2.592zm21.862 3.2s-.4 2.515-2.439 2.515c0 0-1.143.077-1.143-.837 0 0 .027-1.17 1.673-1.373a9.91 9.91 0 0 0 1.912-.306z" data-name="Path 1229" transform="translate(-518.419 -152.102)"/>
</svg>
