<svg xmlns="http://www.w3.org/2000/svg" id="prefix__translation" width="30.319" height="30.325" viewBox="0 0 30.319 30.325">
    <defs>
        <style>
            .prefix__cls-1{fill:#444f5e}
        </style>
    </defs>
    <path id="prefix__Path_304" d="M27.838 10.661H19.51c.024-.29.041-.586.041-.888A9.786 9.786 0 0 0 4.886 1.3a.594.594 0 0 0 .592 1.031 8.589 8.589 0 1 1 4.295 16.03 8.476 8.476 0 0 1-5.384-1.9.6.6 0 0 0-.545-.107l-1.57.409.616-1.356a.591.591 0 0 0-.059-.592 8.444 8.444 0 0 1-1.647-5.04 8.539 8.539 0 0 1 1.155-4.3.593.593 0 0 0-1.025-.6A9.807 9.807 0 0 0 0 9.773a9.668 9.668 0 0 0 1.67 5.461l-1 2.18a.6.6 0 0 0 .083.628.58.58 0 0 0 .6.19l2.517-.657a9.838 9.838 0 0 0 5.893 1.972 10.316 10.316 0 0 0 1.362-.095v5.188a2.487 2.487 0 0 0 2.488 2.488H22l3.743 3.062a.591.591 0 0 0 .373.136.554.554 0 0 0 .255-.059.594.594 0 0 0 .338-.533v-2.607h1.125a2.487 2.487 0 0 0 2.488-2.488v-11.49a2.478 2.478 0 0 0-2.484-2.488zm1.3 13.978a1.307 1.307 0 0 1-1.3 1.3H26.12a.594.594 0 0 0-.592.592v1.949L22.6 26.09c-.16-.148-.3-.148-.622-.148h-8.355a1.307 1.307 0 0 1-1.3-1.3v-5.428a9.81 9.81 0 0 0 7.007-7.368h8.511a1.307 1.307 0 0 1 1.3 1.3z" class="prefix__cls-1" data-name="Path 304"/>
    <path id="prefix__Path_305" d="M294.024 255.934a.585.585 0 0 0 .338-.533.594.594 0 0 0-.592-.592h-.243l-1.907-4.353a.6.6 0 0 0-.545-.355.589.589 0 0 0-.545.355l-1.907 4.353h-.243a.591.591 0 0 0-.255 1.125l-.711 1.623a.593.593 0 0 0 1.084.48l.894-2.037h3.358l.894 2.037a.586.586 0 0 0 .545.355.675.675 0 0 0 .237-.047.586.586 0 0 0 .3-.782zm-4.111-1.125l1.161-2.642 1.161 2.642z" class="prefix__cls-1" data-name="Path 305" transform="translate(-270.345 -235.287)"/>
    <path id="prefix__Path_306" d="M45.992 46.585a.623.623 0 0 0 .421-.172.586.586 0 0 0 .172-.421.623.623 0 0 0-.172-.421.586.586 0 0 0-.421-.172.623.623 0 0 0-.421.172.586.586 0 0 0-.172.421.587.587 0 0 0 .592.592z" class="prefix__cls-1" data-name="Path 306" transform="translate(-42.711 -42.711)"/>
    <path id="prefix__Path_307" d="M100.416 93.722a.6.6 0 0 0-.237.806.591.591 0 0 0 .521.308.613.613 0 0 0 .284-.071 6.776 6.776 0 0 0 2.932-3.181 6.776 6.776 0 0 0 2.932 3.181.613.613 0 0 0 .284.071.6.6 0 0 0 .521-.308.591.591 0 0 0-.237-.806 5.588 5.588 0 0 1-2.843-4.075h2.63a.592.592 0 0 0 0-1.185h-2.695v-2.47a.592.592 0 0 0-1.185 0v2.47h-2.138a.592.592 0 1 0 0 1.185h2.079a5.611 5.611 0 0 1-2.848 4.075z" class="prefix__cls-1" data-name="Path 307" transform="translate(-94.179 -80.342)"/>
</svg>
