<svg xmlns="http://www.w3.org/2000/svg" width="27.469" height="25.008" viewBox="0 0 27.469 25.008">
    <defs>
        <style>
            .prefix__cls-1{fill:#444f5e}
        </style>
    </defs>
    <g id="prefix__bell" transform="translate(0 -.5)">
        <path id="prefix__Path_278" d="M230.856 279.814h.916a.458.458 0 1 0 0-.916h-.916a.458.458 0 1 0 0 .916zm0 0" class="prefix__cls-1" data-name="Path 278" transform="translate(-218.038 -263.462)"/>
        <path id="prefix__Path_279" d="M282.059 279.814h.916a.458.458 0 1 0 0-.916h-.916a.458.458 0 0 0 0 .916zm0 0" class="prefix__cls-1" data-name="Path 279" transform="translate(-266.494 -263.462)"/>
        <path id="prefix__Path_280" d="M452.726 152.373a.457.457 0 0 0 .324-.134l.458-.458a.458.458 0 0 0-.647-.647l-.458.458a.458.458 0 0 0 .324.781zm0 0" class="prefix__cls-1" data-name="Path 280" transform="translate(-428.004 -142.43)"/>
        <path id="prefix__Path_281" d="M479.24 202.1h-.916a.458.458 0 0 0 0 .916h.916a.458.458 0 1 0 0-.916zm0 0" class="prefix__cls-1" data-name="Path 281" transform="translate(-452.23 -190.786)"/>
        <path id="prefix__Path_282" d="M77.3 109.807a.458.458 0 0 0 .819-.409l-.458-.916a.458.458 0 1 0-.819.409zm0 0" class="prefix__cls-1" data-name="Path 282" transform="translate(-72.674 -101.948)"/>
        <path id="prefix__Path_283" d="M409.846 110.054a.458.458 0 0 0 .614-.2l.458-.916a.458.458 0 1 0-.819-.409l-.458.916a.458.458 0 0 0 .2.614zm0 0" class="prefix__cls-1" data-name="Path 283" transform="translate(-387.618 -101.989)"/>
        <path id="prefix__Path_284" d="M34.826 152.237a.458.458 0 0 0 .647-.647l-.458-.458a.458.458 0 0 0-.647.647zm0 0" class="prefix__cls-1" data-name="Path 284" transform="translate(-32.402 -142.429)"/>
        <path id="prefix__Path_285" d="M.458 203.017h.916a.458.458 0 0 0 0-.916H.458a.458.458 0 1 0 0 .916zm0 0" class="prefix__cls-1" data-name="Path 285" transform="translate(0 -190.786)"/>
        <path id="prefix__Path_286" d="M10.472 14.606a1.959 1.959 0 0 1-.772 1.212 1.82 1.82 0 0 0-.712 1.449v.458a.458.458 0 0 0 .458.458h10.992v.917h-9.614a.458.458 0 0 0-.458.458v1.458a1.373 1.373 0 0 0-.915 1.284v.121a.786.786 0 0 1-.354.6 1.378 1.378 0 0 0-.562 1.108v.916a.458.458 0 0 0 .458.458H34.63a.458.458 0 0 0 .458-.458v-.916a1.379 1.379 0 0 0-.562-1.108.785.785 0 0 1-.354-.6V22.3a1.373 1.373 0 0 0-.916-1.289v-1.455a.458.458 0 0 0-.456-.456h-9.615v-.916h10.987a.458.458 0 0 0 .458-.458v-.458a1.82 1.82 0 0 0-.712-1.449 1.961 1.961 0 0 1-.767-1.212c-.581-3.487-3.681-7.25-7.677-7.25h-.882a1.353 1.353 0 0 0 .081-.447A1.373 1.373 0 0 0 23.3 5.536h-.916v-.5a2.289 2.289 0 1 0-.916 0v.5h-.916a1.373 1.373 0 0 0-1.374 1.373 1.355 1.355 0 0 0 .081.447h-1.11c-3.996 0-7.096 3.763-7.677 7.25zm22.784 7.7v.121a1.675 1.675 0 0 0 .728 1.341.454.454 0 0 1 .188.37v.458H9.451v-.458a.454.454 0 0 1 .188-.37 1.675 1.675 0 0 0 .728-1.341V22.3a.458.458 0 0 1 .458-.458H32.8a.458.458 0 0 1 .457.458zm-.916-2.289v.916H11.282v-.916zM21.354 19.1v-.916h.916v.916zm-.8-16.31a1.373 1.373 0 1 1 1.373 1.373 1.373 1.373 0 0 1-1.374-1.374zm0 3.662H23.3a.454.454 0 0 1 .054.9H20.5a.454.454 0 0 1 .054-.9zm4.921 1.82c3.517 0 6.254 3.366 6.776 6.485a2.839 2.839 0 0 0 1.111 1.786.911.911 0 0 1 .354.725H9.908a.912.912 0 0 1 .356-.725 2.841 2.841 0 0 0 .229-.211.36.36 0 0 0 .056.011l8.515.01a.458.458 0 0 0 0-.916l-7.907-.009a2.651 2.651 0 0 0 .218-.67c.519-3.12 3.257-6.485 6.773-6.485zm0 0" class="prefix__cls-1" data-name="Path 286" transform="translate(-8.077)"/>
    </g>
</svg>
