<svg xmlns="http://www.w3.org/2000/svg" id="prefix__dinner" width="31" height="31" viewBox="0 0 31 31">
    <defs>
        <style>
            .prefix__cls-1{fill:#444f5e}
        </style>
    </defs>
    <path id="prefix__Path_293" d="M26.46 4.54A15.5 15.5 0 0 0 4.54 26.46 15.5 15.5 0 0 0 26.46 4.54zm-.71 21.211a14.5 14.5 0 0 1-20.5-20.5 14.5 14.5 0 0 1 20.5 20.5z" class="prefix__cls-1" data-name="Path 293"/>
    <path id="prefix__Path_294" d="M105.8 70.966a.5.5 0 0 0-.248.663 8.6 8.6 0 0 1-3.592 11.021V64.465a.507.507 0 0 0-.3-.462.494.494 0 0 0-.542.094 6.512 6.512 0 0 0-1.279 1.714 9.88 9.88 0 0 0-2.129-.234c-.194 0-.382.007-.569.02v-1.132a.5.5 0 1 0-1 0V65.7a10.423 10.423 0 0 0-1.141.258v-1.493a.5.5 0 0 0-1 0v1.855a9.5 9.5 0 0 0-1.138.569v-2.424a.5.5 0 0 0-1 0v3.1a9.6 9.6 0 0 0-.944 14.4.5.5 0 0 0 .71 0 .505.505 0 0 0 0-.71 8.585 8.585 0 0 1 .228-12.367v2.009a1.584 1.584 0 0 0 1.071 1.493v12.429a1.573 1.573 0 1 0 3.147 0v-.174a9.633 9.633 0 0 0 1.64.141 10.178 10.178 0 0 0 1.1-.06v.094a1.573 1.573 0 0 0 3.147 0v-1.025a9.615 9.615 0 0 0 4.506-12.574.5.5 0 0 0-.663-.254zm-9.668-4.245v2.6H94.99v-2.31a8.1 8.1 0 0 1 1.138-.29zm-2.143.7v1.9h-1.142v-1.24a9.171 9.171 0 0 1 1.138-.663zm1.071 17.4a.569.569 0 0 1-1.138 0V71.964a.506.506 0 0 0-.5-.5.569.569 0 0 1-.569-.569v-.569h3.281v.569a.569.569 0 0 1-.569.569.506.506 0 0 0-.5.5zm2.64-1.04a8.956 8.956 0 0 1-1.64-.154V72.386a1.571 1.571 0 0 0 1.071-1.493v-4.3c.187-.013.375-.02.569-.02a8.271 8.271 0 0 1 1.681.167c-1.8 4.285-1.66 10.786-1.647 11.128a.5.5 0 0 0 .5.489h.569v5.35a8.745 8.745 0 0 1-1.103.074zm3.247 1.038a.569.569 0 1 1-1.138 0v-6.963a.506.506 0 0 0-.5-.5h-.576a41.1 41.1 0 0 1 .3-4.928 16.7 16.7 0 0 1 1.915-6.555z" class="prefix__cls-1" data-name="Path 294" transform="translate(-82.201 -59.678)"/>
    <path id="prefix__Path_295" d="M312.16 121.007a8.657 8.657 0 0 1 .991.991.51.51 0 0 0 .382.174.523.523 0 0 0 .328-.121.507.507 0 0 0 .06-.71 9.685 9.685 0 0 0-1.111-1.111.5.5 0 0 0-.71.06.521.521 0 0 0 .06.716z" class="prefix__cls-1" data-name="Path 295" transform="translate(-291.096 -112.069)"/>
    <path id="prefix__Path_296" d="M63.413 324.85a12.429 12.429 0 0 1-4.714-4.633.5.5 0 1 0-.864.5 13.405 13.405 0 0 0 5.1 5.008.535.535 0 0 0 .241.06.5.5 0 0 0 .241-.937z" class="prefix__cls-1" data-name="Path 296" transform="translate(-53.899 -298.543)"/>
    <path id="prefix__Path_297" d="M320.3 58.627c.355.2.7.429 1.031.663a.482.482 0 0 0 .295.094.514.514 0 0 0 .408-.208.5.5 0 0 0-.114-.7c-.355-.254-.73-.5-1.111-.716a.5.5 0 0 0-.683.181.49.49 0 0 0 .174.69z" class="prefix__cls-1" data-name="Path 297" transform="translate(-298.622 -53.826)"/>
    <path id="prefix__Path_298" d="M364.489 95.219a13.326 13.326 0 0 0-3.609-6.649.5.5 0 0 0-.71.71 12.347 12.347 0 0 1 3.334 6.146.5.5 0 0 0 .489.4.668.668 0 0 0 .107-.013.5.5 0 0 0 .388-.589z" class="prefix__cls-1" data-name="Path 298" transform="translate(-335.92 -82.505)"/>
</svg>
