<svg xmlns="http://www.w3.org/2000/svg" width="29.455" height="27" viewBox="0 0 29.455 27">
    <g id="prefix__bed_3_" data-name="bed (3)" transform="translate(0 -21.334)">
        <g id="prefix__Group_30" data-name="Group 30" transform="translate(0 21.334)">
            <path id="prefix__Path_264" d="M29.407 39.953a.6.6 0 0 0 .02-.39L27 31.677V24.4a3.072 3.072 0 0 0-3.068-3.068H5.523A3.072 3.072 0 0 0 2.455 24.4v7.275L.028 39.563a.6.6 0 0 0 .02.39 1.818 1.818 0 0 0-.048.4v7.367a.614.614 0 0 0 .614.614h2.454a.614.614 0 0 0 .614-.614v-1.841h22.091v1.841a.614.614 0 0 0 .614.614h2.455a.614.614 0 0 0 .614-.614v-7.363a1.822 1.822 0 0 0-.049-.404zM3.682 24.4a1.843 1.843 0 0 1 1.841-1.841h18.409a1.843 1.843 0 0 1 1.841 1.841v6.75H24.1l-.572-2.288a1.841 1.841 0 0 0-1.787-1.394H17.8a1.843 1.843 0 0 0-1.841 1.841v1.841H13.5v-1.84a1.843 1.843 0 0 0-1.841-1.841H7.708a1.842 1.842 0 0 0-1.787 1.394l-.571 2.289H3.682zm19.163 7.742a.613.613 0 0 1-.485.236H17.8a.615.615 0 0 1-.614-.614v-2.453a.615.615 0 0 1 .614-.611h3.952a.612.612 0 0 1 .6.464l.614 2.455a.609.609 0 0 1-.122.525zm-10.571-2.831V31.766a.614.614 0 0 1-.612.611H7.1a.614.614 0 0 1-.6-.763l.614-2.455a.614.614 0 0 1 .6-.464h3.946a.615.615 0 0 1 .614.616zm-8.753 3.068h1.847a1.788 1.788 0 0 0 1.727 1.227h4.564a1.839 1.839 0 0 0 1.728-1.227h2.68a1.838 1.838 0 0 0 1.733 1.228h4.56a1.836 1.836 0 0 0 1.452-.707 1.807 1.807 0 0 0 .274-.52h1.848l1.895 6.158a1.77 1.77 0 0 0-.215-.022H1.841a1.726 1.726 0 0 0-.214.022zM2.455 47.107H1.227v-1.228h1.228v1.227zm25.773 0H27v-1.228h1.227zm0-2.455h-27v-4.3a.615.615 0 0 1 .614-.614h25.772a.615.615 0 0 1 .614.614z" data-name="Path 264" transform="translate(0 -21.334)" style="fill:#444f5e"/>
        </g>
    </g>
</svg>
