<svg xmlns="http://www.w3.org/2000/svg" width="30.471" height="28.739" viewBox="0 0 30.471 28.739">
    <defs>
        <style>
            .prefix__cls-1{fill:#444f5e}
        </style>
    </defs>
    <g id="prefix__swimming-pool_1_" data-name="swimming-pool (1)" transform="translate(0 -14.6)">
        <g id="prefix__Group_54" data-name="Group 54" transform="translate(0 22.218)">
            <g id="prefix__Group_53" data-name="Group 53">
                <path id="prefix__Rectangle_87" d="M0 0H30.471V1.018H0z" class="prefix__cls-1" data-name="Rectangle 87"/>
            </g>
        </g>
        <g id="prefix__Group_56" data-name="Group 56" transform="translate(14.218 14.6)">
            <g id="prefix__Group_55" data-name="Group 55">
                <path id="prefix__Path_287" d="M241.947 14.6a3.053 3.053 0 0 0-3.047 3.047v13.712h1.018V17.647a2.029 2.029 0 1 1 4.059 0v5.493h1.018v-5.493a3.045 3.045 0 0 0-3.048-3.047z" class="prefix__cls-1" data-name="Path 287" transform="translate(-238.9 -14.6)"/>
            </g>
        </g>
        <g id="prefix__Group_58" data-name="Group 58" transform="translate(14.729 25.265)">
            <g id="prefix__Group_57" data-name="Group 57">
                <path id="prefix__Rectangle_88" d="M0 0H8.124V1.018H0z" class="prefix__cls-1" data-name="Rectangle 88"/>
            </g>
        </g>
        <g id="prefix__Group_60" data-name="Group 60" transform="translate(22.347 14.6)">
            <g id="prefix__Group_59" data-name="Group 59">
                <path id="prefix__Path_288" d="M378.547 14.6a3.053 3.053 0 0 0-3.047 3.047v13.712h1.018V17.647a2.029 2.029 0 0 1 4.059 0v5.493h1.018v-5.493a3.049 3.049 0 0 0-3.048-3.047z" class="prefix__cls-1" data-name="Path 288" transform="translate(-375.5 -14.6)"/>
            </g>
        </g>
        <g id="prefix__Group_62" data-name="Group 62" transform="translate(14.729 28.312)">
            <g id="prefix__Group_61" data-name="Group 61">
                <path id="prefix__Rectangle_89" d="M0 0H8.124V1.018H0z" class="prefix__cls-1" data-name="Rectangle 89"/>
            </g>
        </g>
        <g id="prefix__Group_64" data-name="Group 64" transform="translate(.196 41.219)">
            <g id="prefix__Group_63" data-name="Group 63">
                <path id="prefix__Path_289" d="M29.486 462.531a2.205 2.205 0 0 1-2.66 0 3.205 3.205 0 0 0-3.886 0 2.205 2.205 0 0 1-2.66 0 3.205 3.205 0 0 0-3.886 0 2.205 2.205 0 0 1-2.66 0 3.205 3.205 0 0 0-3.886 0 2.205 2.205 0 0 1-2.66 0 3.205 3.205 0 0 0-3.886 0l.619.809a2.2 2.2 0 0 1 2.654 0 3.232 3.232 0 0 0 3.892 0 2.2 2.2 0 0 1 2.654 0 3.232 3.232 0 0 0 3.892 0 2.2 2.2 0 0 1 2.654 0 3.232 3.232 0 0 0 3.892 0 2.2 2.2 0 0 1 2.654 0 3.22 3.22 0 0 0 3.892 0 2.2 2.2 0 0 1 2.654 0l.619-.809a3.214 3.214 0 0 0-3.892 0z" class="prefix__cls-1" data-name="Path 289" transform="translate(-3.3 -461.875)"/>
            </g>
        </g>
        <g id="prefix__Group_66" data-name="Group 66" transform="translate(.196 37.66)">
            <g id="prefix__Group_65" data-name="Group 65">
                <path id="prefix__Path_290" d="M29.486 402.731a2.205 2.205 0 0 1-2.66 0 3.205 3.205 0 0 0-3.886 0 2.205 2.205 0 0 1-2.66 0 3.205 3.205 0 0 0-3.886 0 2.205 2.205 0 0 1-2.66 0 3.205 3.205 0 0 0-3.886 0 2.205 2.205 0 0 1-2.66 0 3.205 3.205 0 0 0-3.886 0l.619.809a2.2 2.2 0 0 1 2.654 0 3.232 3.232 0 0 0 3.892 0 2.2 2.2 0 0 1 2.654 0 3.232 3.232 0 0 0 3.892 0 2.2 2.2 0 0 1 2.654 0 3.232 3.232 0 0 0 3.892 0 2.2 2.2 0 0 1 2.654 0 3.22 3.22 0 0 0 3.892 0 2.2 2.2 0 0 1 2.654 0l.619-.809a3.232 3.232 0 0 0-3.892 0z" class="prefix__cls-1" data-name="Path 290" transform="translate(-3.3 -402.075)"/>
            </g>
        </g>
        <g id="prefix__Group_68" data-name="Group 68" transform="translate(.196 34.107)">
            <g id="prefix__Group_67" data-name="Group 67">
                <path id="prefix__Path_291" d="M29.486 343.031a2.205 2.205 0 0 1-2.66 0 3.205 3.205 0 0 0-3.886 0 2.205 2.205 0 0 1-2.66 0 3.205 3.205 0 0 0-3.886 0 2.205 2.205 0 0 1-2.66 0 3.205 3.205 0 0 0-3.886 0 2.205 2.205 0 0 1-2.66 0 3.205 3.205 0 0 0-3.886 0l.619.809a2.2 2.2 0 0 1 2.654 0 3.232 3.232 0 0 0 3.892 0 2.2 2.2 0 0 1 2.654 0 3.232 3.232 0 0 0 3.892 0 2.2 2.2 0 0 1 2.654 0 3.232 3.232 0 0 0 3.892 0 2.2 2.2 0 0 1 2.654 0 3.22 3.22 0 0 0 3.892 0 2.2 2.2 0 0 1 2.654 0l.619-.809a3.214 3.214 0 0 0-3.892 0z" class="prefix__cls-1" data-name="Path 291" transform="translate(-3.3 -342.375)"/>
            </g>
        </g>
        <g id="prefix__Group_70" data-name="Group 70" transform="translate(.196 30.554)">
            <g id="prefix__Group_69" data-name="Group 69">
                <path id="prefix__Path_292" d="M29.486 283.331a2.205 2.205 0 0 1-2.66 0 3.205 3.205 0 0 0-3.886 0 2.205 2.205 0 0 1-2.66 0 3.205 3.205 0 0 0-3.886 0 2.205 2.205 0 0 1-2.66 0 3.205 3.205 0 0 0-3.886 0 2.205 2.205 0 0 1-2.66 0 3.205 3.205 0 0 0-3.886 0l.619.809a2.2 2.2 0 0 1 2.654 0 3.232 3.232 0 0 0 3.892 0 2.2 2.2 0 0 1 2.654 0 3.232 3.232 0 0 0 3.892 0 2.2 2.2 0 0 1 2.654 0 3.232 3.232 0 0 0 3.892 0 2.2 2.2 0 0 1 2.654 0 3.22 3.22 0 0 0 3.892 0 2.2 2.2 0 0 1 2.654 0l.619-.809a3.214 3.214 0 0 0-3.892 0z" class="prefix__cls-1" data-name="Path 292" transform="translate(-3.3 -282.675)"/>
            </g>
        </g>
    </g>
</svg>
