<svg xmlns="http://www.w3.org/2000/svg" width="27.59" height="25.281" viewBox="0 0 27.59 25.281">
    <defs>
        <style>
            .prefix__cls-1{fill:#444f5e}
        </style>
    </defs>
    <g id="prefix__family" transform="translate(0 -21.42)">
        <g id="prefix__Group_34" data-name="Group 34" transform="translate(6.003 30.193)">
            <g id="prefix__Group_33" data-name="Group 33">
                <path id="prefix__Path_270" d="M113.9 184.321a.4.4 0 0 0-.568.059.751.751 0 0 1-1.219 0 .4.4 0 1 0-.628.509 1.558 1.558 0 0 0 2.475 0 .4.4 0 0 0-.06-.568z" class="prefix__cls-1" data-name="Path 270" transform="translate(-111.397 -184.231)"/>
            </g>
        </g>
        <g id="prefix__Group_36" data-name="Group 36" transform="translate(5.079 27.885)">
            <g id="prefix__Group_35" data-name="Group 35">
                <path id="prefix__Path_271" d="M94.663 141.386a.4.4 0 0 0-.4.4v.462a.4.4 0 0 0 .808 0v-.462a.4.4 0 0 0-.408-.4z" class="prefix__cls-1" data-name="Path 271" transform="translate(-94.259 -141.386)"/>
            </g>
        </g>
        <g id="prefix__Group_38" data-name="Group 38" transform="translate(8.773 27.885)">
            <g id="prefix__Group_37" data-name="Group 37">
                <path id="prefix__Path_272" d="M163.215 141.386a.4.4 0 0 0-.4.4v.462a.4.4 0 1 0 .808 0v-.462a.4.4 0 0 0-.408-.4z" class="prefix__cls-1" data-name="Path 272" transform="translate(-162.811 -141.386)"/>
            </g>
        </g>
        <g id="prefix__Group_40" data-name="Group 40" transform="translate(19.394 32.502)">
            <g id="prefix__Group_39" data-name="Group 39">
                <path id="prefix__Path_273" d="M362.4 227.165a.4.4 0 0 0-.568.059.751.751 0 0 1-1.219 0 .4.4 0 1 0-.628.509 1.558 1.558 0 0 0 2.475 0 .4.4 0 0 0-.06-.568z" class="prefix__cls-1" data-name="Path 273" transform="translate(-359.898 -227.075)"/>
            </g>
        </g>
        <g id="prefix__Group_42" data-name="Group 42" transform="translate(18.47 30.193)">
            <g id="prefix__Group_41" data-name="Group 41">
                <path id="prefix__Path_274" d="M343.163 184.231a.4.4 0 0 0-.4.4v.462a.4.4 0 1 0 .808 0v-.462a.4.4 0 0 0-.408-.4z" class="prefix__cls-1" data-name="Path 274" transform="translate(-342.759 -184.231)"/>
            </g>
        </g>
        <g id="prefix__Group_44" data-name="Group 44" transform="translate(22.164 30.193)">
            <g id="prefix__Group_43" data-name="Group 43">
                <path id="prefix__Path_275" d="M411.715 184.231a.4.4 0 0 0-.4.4v.462a.4.4 0 1 0 .808 0v-.462a.4.4 0 0 0-.408-.4z" class="prefix__cls-1" data-name="Path 275" transform="translate(-411.311 -184.231)"/>
            </g>
        </g>
        <g id="prefix__Group_46" data-name="Group 46" transform="translate(0 21.42)">
            <g id="prefix__Group_45" data-name="Group 45">
                <path id="prefix__Path_276" d="M26.465 38.186L23.3 36.919a.53.53 0 0 1-.049-.024 8.363 8.363 0 0 0 3.269-1.367.4.4 0 0 0 .144-.37 52.358 52.358 0 0 1-.458-6.407 5.483 5.483 0 1 0-10.967 0c0 .828-.038 1.842-.1 2.8l-.882.441-2.59-1.292-.023-.01a4.527 4.527 0 0 0 .233-1.131 1.327 1.327 0 0 0 .475-2.274v-2.69a2.249 2.249 0 0 0-.991-1.855 1.777 1.777 0 0 0-1.722-1.32H5.945a3.641 3.641 0 0 0-3.636 3.636v2.227a1.327 1.327 0 0 0 .475 2.274 4.558 4.558 0 0 0 1.834 3.316v1.117l-3.342 1A1.778 1.778 0 0 0 0 36.707v4.51a.4.4 0 0 0 .4.4h.062V46.3a.4.4 0 0 0 .808 0v-4.678h1.5V46.3a.4.4 0 0 0 .808 0v-6.971a1.784 1.784 0 0 0-.3-.993L2.587 37.3a.4.4 0 1 0-.673.448l.691 1.036a.978.978 0 0 1 .165.544v1.485H.808v-4.106a.975.975 0 0 1 .7-.94l1.387-.416a4.561 4.561 0 0 0 6.6 2.955 1.326 1.326 0 0 0 1.071.545h.058v.058a3.638 3.638 0 0 0 1.847 3.164v.659a.058.058 0 0 1-.039.055l-1.508.5a1.787 1.787 0 0 0-1.224 1.7V46.3a.4.4 0 1 0 .808 0v-1.31a.98.98 0 0 1 .671-.931l.443-.148a3.175 3.175 0 0 0 5.275 0l.443.148a.98.98 0 0 1 .671.931v1.31a.4.4 0 0 0 .808 0v-1.31a1.787 1.787 0 0 0-1.224-1.7l-1.508-.5a.058.058 0 0 1-.039-.055v-.659a3.651 3.651 0 0 0 1.711-2.181 4.1 4.1 0 0 0 6.865-1.573l1.543.617a.976.976 0 0 1 .617.911v1.89h-1.5v-.519a.4.4 0 0 0-.808 0V46.3a.4.4 0 0 0 .808 0v-3.754h1.036V46.3a.4.4 0 0 0 .808 0v-3.754h.058a.4.4 0 0 0 .4-.4v-2.299a1.78 1.78 0 0 0-1.121-1.661zm-10.419-9.435a4.675 4.675 0 1 1 9.35 0 53.063 53.063 0 0 0 .433 6.277 8.652 8.652 0 0 1-2.857 1.1v-.643a4.525 4.525 0 0 0 .613-.417 4.55 4.55 0 0 0 1.7-3.548c0-2.284-1.652-2.612-3.25-2.929a6.483 6.483 0 0 1-2.9-1.08.4.4 0 0 0-.657.316c0 .011-.018 1.074-1.541 1.455a.4.4 0 0 0 .2.784 2.674 2.674 0 0 0 2.007-1.571 8.465 8.465 0 0 0 2.742.89c1.708.339 2.6.588 2.6 2.137a3.741 3.741 0 0 1-1.4 2.919 3.751 3.751 0 0 1-4.54.131 4.567 4.567 0 0 0-1.106-1.705v-1.808a.4.4 0 0 0-.585-.361l-.873.436c.04-.841.064-1.642.064-2.383zm.577 2.963v1.463l-1.463-.731zm-4.733 0l1.463.731-1.463.731zM9.7 36.139v.384a1.328 1.328 0 0 0-.462 1 3.752 3.752 0 0 1-5.564-2.405l1-.3a2.712 2.712 0 0 0 5.067.724 4.545 4.545 0 0 0-.041.597zm-4.274-1.848v-.936a4.554 4.554 0 0 0 3.809 0v.937a1.9 1.9 0 0 1-3.809.005v-.006zm1.9-1.327a3.756 3.756 0 0 1-3.752-3.752.4.4 0 0 0-.4-.4.519.519 0 1 1 0-1.039H4.1a.4.4 0 0 0 .383-.276l.371-1.113a15.365 15.365 0 0 0 5.429-.962.4.4 0 1 0-.363-.722c-1.74.87-5.324.881-5.36.881a.4.4 0 0 0-.383.276l-.37 1.109h-.69v-1.91a2.831 2.831 0 0 1 2.828-2.828h3.694a.974.974 0 0 1 .964.827.4.4 0 0 0 .2.289 1.443 1.443 0 0 1 .74 1.251v2.368h-.519a.4.4 0 1 0 0 .808h.462a.519.519 0 0 1 0 1.039.4.4 0 0 0-.4.4 3.756 3.756 0 0 1-3.756 3.754zm2.713 1.328v-1.418a4.6 4.6 0 0 0 1.043-1.074v1.066A4.566 4.566 0 0 0 10.04 34.4c.002-.033.003-.071.003-.108zm6.044 9.348a2.364 2.364 0 0 1-3.662 0l.258-.086a.865.865 0 0 0 .592-.821v-.323a3.618 3.618 0 0 0 1.962 0v.322a.865.865 0 0 0 .592.821zm1.4-5.6a.4.4 0 0 0-.4.4v.46a2.828 2.828 0 0 1-5.656 0v-.462a.4.4 0 0 0-.4-.4h-.462a.52.52 0 0 1-.519-.519.513.513 0 0 1 .261-.446A.4.4 0 0 0 10.4 37a15.389 15.389 0 0 0 6.366-1.433.4.4 0 1 0-.4-.7 14.562 14.562 0 0 1-5.86 1.321v-.047a3.755 3.755 0 0 1 .64-2.093.4.4 0 0 0 .522.146l2.59-1.295 2.59 1.295a.4.4 0 0 0 .522-.146 3.755 3.755 0 0 1 .64 2.093v.59a.4.4 0 0 0 .2.349.513.513 0 0 1 .261.446.52.52 0 0 1-.519.519zm3.232 2.309a3.294 3.294 0 0 1-2.761-1.5 1.324 1.324 0 0 0 .857-2.329v-.384a4.544 4.544 0 0 0-.026-.485 4.557 4.557 0 0 0 3.373.191v.592A1.321 1.321 0 0 0 23 37.67l.872.349a3.288 3.288 0 0 1-3.151 2.333z" class="prefix__cls-1" data-name="Path 276" transform="translate(0 -21.42)"/>
            </g>
        </g>
        <g id="prefix__Group_48" data-name="Group 48" transform="translate(12.929 39.428)">
            <g id="prefix__Group_47" data-name="Group 47">
                <path id="prefix__Path_277" d="M242.438 355.7a.4.4 0 0 0-.568.059.751.751 0 0 1-1.219 0 .4.4 0 0 0-.628.509 1.558 1.558 0 0 0 2.475 0 .4.4 0 0 0-.06-.568z" class="prefix__cls-1" data-name="Path 277" transform="translate(-239.932 -355.61)"/>
            </g>
        </g>
        <g id="prefix__Group_50" data-name="Group 50" transform="translate(12.475 37.583)">
            <g id="prefix__Group_49" data-name="Group 49">
                <circle id="prefix__Ellipse_13" cx=".404" cy=".404" r=".404" class="prefix__cls-1" data-name="Ellipse 13"/>
            </g>
        </g>
        <g id="prefix__Group_52" data-name="Group 52" transform="translate(15.223 37.583)">
            <g id="prefix__Group_51" data-name="Group 51">
                <circle id="prefix__Ellipse_14" cx=".404" cy=".404" r=".404" class="prefix__cls-1" data-name="Ellipse 14"/>
            </g>
        </g>
    </g>
</svg>
