<svg xmlns="http://www.w3.org/2000/svg" width="37.032" height="35.291" viewBox="0 0 37.032 35.291">
    <path id="prefix__XMLID_975_" d="M18.057 24.1a.711.711 0 0 1-.709.709 8.747 8.747 0 0 0-8.741 8.741.709.709 0 0 1-1.418 0 10.169 10.169 0 0 1 10.159-10.16.706.706 0 0 1 .709.71zm18.9-.949a18.846 18.846 0 0 0-9.946-9.157.71.71 0 0 0-.523 1.321 17.494 17.494 0 0 1 9.2 8.466.706.706 0 0 0 .638.39.831.831 0 0 0 .319-.071.71.71 0 0 0 .312-.95zm-5.159.727a.692.692 0 0 0 .594.319.709.709 0 0 0 .594-1.1 15.527 15.527 0 0 0-5.93-5.328.712.712 0 0 0-.647 1.268 14.106 14.106 0 0 1 5.391 4.84zm4.087 18.669a2.55 2.55 0 0 1-2.545 2.543H2.544a2.544 2.544 0 0 1 0-5.088h7.8v-1.516H3.289a.711.711 0 0 1-.709-.709v-3.661a15.407 15.407 0 0 1 14.653-15.345v-3.883h-.2a2.544 2.544 0 1 1 0-5.088h1.835a2.544 2.544 0 1 1 0 5.088h-.2v3.883a15.407 15.407 0 0 1 14.645 15.345v3.661a.711.711 0 0 1-.709.709h-7.056V40h7.8a2.548 2.548 0 0 1 2.536 2.546zM17.942 13.47h.913a1.126 1.126 0 0 0 0-2.252H17.02a1.126 1.126 0 0 0 0 2.252zm6.9 23.6H31.9v-2.954a13.949 13.949 0 0 0-27.9 0v2.952zm-13.087 1.416V40H24.13v-1.514zm22.711 4.06a1.127 1.127 0 0 0-1.126-1.126H2.544a1.126 1.126 0 0 0 0 2.252h30.8a1.126 1.126 0 0 0 1.122-1.126z" transform="translate(0 -9.8)" style="fill:#444f5e"/>
</svg>
