<svg xmlns="http://www.w3.org/2000/svg" width="28.125" height="30" viewBox="0 0 28.125 30">
    <defs>
        <style>
            .prefix__cls-1{fill:#919be5}.prefix__cls-2{fill:#444f5e}
        </style>
    </defs>
    <g id="prefix__online-shop" transform="translate(-2)">
        <g id="prefix__Group_143" data-name="Group 143" transform="translate(11.321 7.265)">
            <path id="prefix__Path_1113" d="M37.071 16.437a3.389 3.389 0 0 1 3.351 2.918h.947a4.323 4.323 0 0 0-8.6 0h.947a3.39 3.39 0 0 1 3.355-2.918z" class="prefix__cls-1" data-name="Path 1113" transform="translate(-27.67 -15.5)"/>
            <path id="prefix__Path_1114" d="M39.717 24.973a1.406 1.406 0 0 0-1.4-1.247h-1.865a4.289 4.289 0 0 1 .027.469v3.855a.469.469 0 0 1-.937 0v-3.855a3.352 3.352 0 0 0-.037-.469H28.8a3.424 3.424 0 0 0-.036.469v3.855a.469.469 0 0 1-.937 0v-3.855a4.411 4.411 0 0 1 .026-.469h-1.866a1.406 1.406 0 0 0-1.4 1.247l-1.07 9.427h5.275a3.394 3.394 0 0 1 6.724 0h5.275z" class="prefix__cls-1" data-name="Path 1114" transform="translate(-22.752 -19.87)"/>
            <circle id="prefix__Ellipse_16" cx="2.461" cy="2.461" r="2.461" class="prefix__cls-1" data-name="Ellipse 16" transform="translate(6.94 12.539)"/>
            <path id="prefix__Path_1115" d="M40.033 48.5h-5.384a3.394 3.394 0 0 1-6.724 0h-5.382l-.649 5.7a1.406 1.406 0 0 0 1.4 1.566h15.989a1.406 1.406 0 0 0 1.4-1.565z" class="prefix__cls-1" data-name="Path 1115" transform="translate(-21.886 -33.031)"/>
        </g>
        <path id="prefix__Path_1116" d="M8.577 23.53h7.734a.469.469 0 0 0 .466-.522l-.877-7.669a.469.469 0 0 0-.465-.415h-.877v-.08a2.117 2.117 0 1 0-4.234 0v.08h-.873a.469.469 0 0 0-.466.415l-.873 7.669a.469.469 0 0 0 .465.522zm2.688-8.687a1.18 1.18 0 1 1 2.359 0v.08h-2.359zm-1.4 1.017h5.155l.766 6.732H9.1z" class="prefix__cls-2" data-name="Path 1116" transform="translate(-3.245 -6.761)"/>
        <path id="prefix__Path_1117" d="M16.288 39.774H8.2a.469.469 0 1 0 0 .938h8.086a.469.469 0 1 0 0-.937z" class="prefix__cls-2" data-name="Path 1117" transform="translate(-3.046 -21.13)"/>
        <path id="prefix__Path_1118" d="M14.992 0H3.406A1.406 1.406 0 0 0 2 1.406v19.922a1.406 1.406 0 0 0 1.406 1.406h11.586a1.406 1.406 0 0 0 1.408-1.406V1.406A1.406 1.406 0 0 0 14.992 0zm-3.537.938a4.972 4.972 0 0 0-.6.973 1.707 1.707 0 0 1-1.507.9h-.302a1.709 1.709 0 0 1-1.507-.9 4.969 4.969 0 0 0-.6-.973zm4.006 20.391a.469.469 0 0 1-.469.469H3.406a.469.469 0 0 1-.469-.469V1.406a.469.469 0 0 1 .469-.468H4.93c1.3 0 1.658 1.263 1.784 1.417a2.643 2.643 0 0 0 2.333 1.4h.307a2.644 2.644 0 0 0 2.333-1.4c.123-.155.485-1.417 1.782-1.417h1.523a.469.469 0 0 1 .469.469z" class="prefix__cls-2" data-name="Path 1118"/>
    </g>
</svg>
