<svg xmlns="http://www.w3.org/2000/svg" id="prefix__photography" width="14.181" height="11.344" viewBox="0 0 14.181 11.344">
    <g id="prefix__Group_26" data-name="Group 26">
        <path id="prefix__Path_226" d="M.473 51.2h8.981a.473.473 0 0 1 .473.473v.945h.945a.473.473 0 0 1 .473.473v.945h.945a.473.473 0 0 1 .473.473v.945h.945a.473.473 0 0 1 .473.473v6.145a.473.473 0 0 1-.473.473H4.727a.473.473 0 0 1-.473-.473v-.945h-.945a.473.473 0 0 1-.473-.473v-.945h-.945a.473.473 0 0 1-.473-.473v-.946H.473A.473.473 0 0 1 0 57.818v-6.145a.473.473 0 0 1 .473-.473zm4.254 10.872h8.981v-6.145h-.945v4.727a.473.473 0 0 1-.473.473H4.727v.945zm-1.418-1.418h8.981v-6.145h-.945v4.727a.473.473 0 0 1-.473.473H3.309v.945zm-1.418-1.418h8.981v-6.145h-.946v4.727a.473.473 0 0 1-.473.473H1.891v.945zm7.563-1.418v-6.145H.473v6.145h8.981z" data-name="Path 226" transform="translate(0 -51.2)" style="fill:#fff"/>
    </g>
</svg>
