<svg xmlns="http://www.w3.org/2000/svg" width="595.649" height="344.224" viewBox="0 0 595.649 344.224">
    <defs>
        <style>
            .prefix__cls-1{fill:#e7e8e5}.prefix__cls-2{fill:#dadbd8}.prefix__cls-4{fill:#17282f}.prefix__cls-5{fill:#33535f}.prefix__cls-6{fill:#fafaf9}.prefix__cls-7{fill:#1ba0ff}.prefix__cls-9{fill:#2375af}.prefix__cls-10{fill:#fff}.prefix__cls-11{fill:#c0776a}.prefix__cls-12{fill:#b85549}
        </style>
    </defs>
    <g id="prefix__g10" transform="translate(-.234 522.69)">
        <g id="prefix__g12" transform="translate(.234 -522.69)">
            <path id="prefix__path14" d="M863.6-354.5a11.922 11.922 0 0 1 3.054 8.82 21.047 21.047 0 0 1-2.845 9.078c-2.983 5.425-8.575 9.839-13.925 12.954-3.072-6.15-1.177-13.9.031-17.766 1.911-6.116 9.076-16.009 13.685-13.087" class="prefix__cls-1" transform="translate(-295.989 465.443)"/>
            <path id="prefix__path16" d="M853.347-293.972a10.17 10.17 0 0 1 6.715-7.693 13.5 13.5 0 0 1 10.4.909c1.475.743 2.94 1.864 3.3 3.478a4.35 4.35 0 0 1-1.612 4.1 8.832 8.832 0 0 1-4.24 1.732c-5.222.9-10.439.809-14.554-2.529" class="prefix__cls-1" transform="translate(-297.738 447.448)"/>
            <path id="prefix__path18" d="M833.13-276.138a7.114 7.114 0 0 1 .651-1.1l1.877-2.921a35.739 35.739 0 0 1 7.409-8.753 21.854 21.854 0 0 1 10.407-4.721 14.808 14.808 0 0 1 3.49-.092 8.891 8.891 0 0 1 .94.133.938.938 0 0 1 .321.083 23.2 23.2 0 0 0-4.7.19 22.562 22.562 0 0 0-10.175 4.758 38.445 38.445 0 0 0-7.426 8.58c-.833 1.2-1.51 2.181-2 2.842a6.736 6.736 0 0 1-.795 1" class="prefix__cls-2" transform="translate(-290.835 444.533)"/>
            <path id="prefix__path20" d="M853.452-342.053a2.547 2.547 0 0 1-.151.534c-.133.388-.3.886-.516 1.5-.455 1.3-1.139 3.177-2 5.486-1.726 4.62-4.2 10.968-7.089 17.915s-5.653 13.18-7.712 17.66c-1.03 2.241-1.878 4.046-2.481 5.287l-.7 1.424a2.429 2.429 0 0 1-.272.484 2.677 2.677 0 0 1 .19-.522l.625-1.459 2.349-5.344c1.985-4.512 4.7-10.757 7.588-17.7s5.406-13.269 7.207-17.857c.886-2.255 1.609-4.1 2.135-5.434l.594-1.473a2.638 2.638 0 0 1 .236-.5" class="prefix__cls-2" transform="translate(-290.629 461.013)"/>
            <path id="prefix__path22" d="M831.964-301.667a23.79 23.79 0 0 0-5.391-21.055c-1.285-1.424-3.17-2.785-4.975-2.135s-2.394 2.913-2.43 4.835a20.325 20.325 0 0 0 12.49 18.778" class="prefix__cls-1" transform="translate(-286.067 455.199)"/>
            <path id="prefix__path24" d="M828.223-312.852a6.1 6.1 0 0 1 .835.861 11.682 11.682 0 0 1 .9 1.084c.32.446.732.922 1.085 1.518a20.638 20.638 0 0 1 1.156 1.948 23.582 23.582 0 0 1 1.115 2.349 26.434 26.434 0 0 1 1.6 5.737 25.942 25.942 0 0 1 .157 5.956 22.469 22.469 0 0 1-.4 2.572 19.335 19.335 0 0 1-.565 2.193 17.6 17.6 0 0 1-.63 1.757 10.621 10.621 0 0 1-.572 1.285 6.067 6.067 0 0 1-.577 1.052c-.092-.042.72-1.554 1.474-4.185a20.375 20.375 0 0 0 .5-2.175 23.8 23.8 0 0 0 .353-2.537 26.99 26.99 0 0 0-.19-5.852 27.55 27.55 0 0 0-1.537-5.65 24.823 24.823 0 0 0-1.062-2.331c-.343-.728-.744-1.361-1.093-1.949-1.452-2.321-2.625-3.57-2.55-3.634" class="prefix__cls-2" transform="translate(-289.159 451.043)"/>
            <path id="prefix__path26" d="M41.143-437.595s-8.08 2.605-.245 19.926 13.422 25.978 13.422 25.978 1.346 4-1.988 4.454a24.46 24.46 0 0 1-3.27.088c-3.483-.045-7.727-.09-8.952 2.84-1.725 4.123 1.137 8.224 7.152 11.987s18.892 12.488 20.054 13.282c1.14.779 2.232 2.661.01 3.335s-18.674 1.614-17.762 9.394 19.393 15.508 21.4 16.391 2.451 1.771 2.233 2.884-5.779.907-10.448 1.366-10 1.809-9.1 6.255 11.606 14.2 38.525 18.117l12.592 1 7.364-10.332c14.413-23.072 13.892-37.542 11.085-41.106s-7.285-.367-10.653 2.9-6.806 7.639-7.8 7.087-1.379-1.467-.757-3.568 6.674-21.194 1.329-26.921-16.7 6.219-18.649 7.478-2.681-.791-2.538-2.164c.145-1.4 1.813-16.864 2.832-23.885s-.26-11.856-4.521-13.206c-4.109-1.3-7.633 5.182-10.135 7.431s-4.683-1.362-4.683-1.362-2.992-9.857-11.141-27.034-15.519-12.547-15.519-12.547l.161-.064" class="prefix__cls-1" transform="translate(-19.17 493.807)"/>
            <path id="prefix__path28" d="M110.8-288.992c-5.935-12.639-16.106-35.278-24.939-54.669s-16.842-36.928-22.712-49.595l-6.964-14.994-1.892-4.078-.483-1.065c-.107-.241-.153-.369-.153-.369s.07.117.188.352.3.6.519 1.048l1.958 4.046c1.7 3.517 4.116 8.622 7.082 14.942 5.935 12.638 13.987 30.165 22.817 49.549s18.965 42.047 24.835 54.714" class="prefix__cls-2" transform="translate(-24.694 485.498)"/>
            <path id="prefix__path30" d="M56.692-352.614a4.11 4.11 0 0 1 .868.286c.55.205 1.336.527 2.3.932 1.934.815 4.578 2.007 7.471 3.377l7.393 3.533 2.246 1.056a4.056 4.056 0 0 1 .811.421 4.124 4.124 0 0 1-.871-.28c-.55-.207-1.337-.528-2.3-.944-1.927-.834-4.554-2.062-7.446-3.431l-7.415-3.479-2.249-1.045a4.073 4.073 0 0 1-.808-.427" class="prefix__cls-2" transform="translate(-25.73 464.621)"/>
            <path id="prefix__path32" d="M90.085-351.982c-.1-.042 2.12-5.6 4.959-12.412s5.22-12.3 5.321-12.262-2.12 5.6-4.959 12.413-5.22 12.3-5.321 12.261" class="prefix__cls-2" transform="translate(-37.13 472.829)"/>
            <path id="prefix__path34" d="M108.642-302.9a4.251 4.251 0 0 1 .549-.754l1.59-1.975c1.34-1.668 3.181-3.98 5.119-6.6s3.621-5.056 4.82-6.827l1.424-2.1a4.312 4.312 0 0 1 .56-.746 4.182 4.182 0 0 1-.431.828c-.3.519-.747 1.262-1.32 2.168-1.142 1.813-2.788 4.279-4.738 6.909s-3.824 4.923-5.221 6.549c-.7.81-1.277 1.459-1.687 1.9a4.31 4.31 0 0 1-.665.655" class="prefix__cls-2" transform="translate(-43.467 454.136)"/>
            <path id="prefix__path36" d="M75.765-298.549a3.718 3.718 0 0 1 .861.055l2.325.294c1.961.267 4.665.66 7.649 1.12s5.682.9 7.633 1.233l2.306.418a3.7 3.7 0 0 1 .837.206 3.586 3.586 0 0 1-.86-.055l-2.326-.294c-1.961-.266-4.666-.66-7.65-1.12s-5.682-.9-7.632-1.233l-2.307-.418a3.585 3.585 0 0 1-.837-.206" class="prefix__cls-2" transform="translate(-32.242 446.163)"/>
            <path id="prefix__path38" d="M86.971-255.735a5.886 5.886 0 0 1 1.1.082l2.981.366c2.515.327 5.986.805 9.815 1.358s7.3 1.074 9.8 1.471l2.964.49a6.031 6.031 0 0 1 1.079.233 5.984 5.984 0 0 1-1.1-.082l-2.981-.367c-2.515-.327-5.986-.8-9.817-1.357s-7.294-1.073-9.8-1.471l-2.964-.49a6.037 6.037 0 0 1-1.079-.233" class="prefix__cls-2" transform="translate(-36.068 431.545)"/>
            <path id="prefix__path40" d="M128.126-262.838a6.715 6.715 0 0 1 .671-.975c.5-.665 1.145-1.531 1.926-2.574 1.623-2.177 3.854-5.191 6.223-8.589s4.442-6.523 5.924-8.8c.713-1.092 1.3-2 1.757-2.695a6.831 6.831 0 0 1 .682-.964 6.746 6.746 0 0 1-.552 1.045c-.378.659-.939 1.605-1.653 2.762-1.422 2.316-3.458 5.475-5.837 8.875s-4.643 6.4-6.325 8.532c-.844 1.065-1.535 1.921-2.026 2.5a7.008 7.008 0 0 1-.791.879" class="prefix__cls-2" transform="translate(-50.12 442.364)"/>
            <path id="prefix__path42" fill="#f3f2f1" d="M421.757-358.193c-22.5-11.321-30.962-37.148-33.6-61.084-.441-3.994-1.483-8.123-.1-11.885s5.456-6.783 9.258-5.622c3.154.962 4.937 4.211 7 6.813a23.507 23.507 0 0 0 10.612 7.558c2.722.948 5.97 1.3 8.271-.441 3.156-2.388 2.875-7.185 2.28-11.136q-1.669-11.045-3.335-22.089c-.6-3.95-1.192-7.986-.5-11.917s2.9-7.81 6.51-9.407 8.575-.1 9.928 3.655c.563 1.563.478 3.282.824 4.908s1.375 3.331 3 3.563c1.646.235 3.065-1.115 4.08-2.443 3.5-4.582 5.531-10.126 7.379-15.615s3.6-11.088 6.678-15.978 7.7-9.081 13.314-10.221 12.155 1.484 14.39 6.837-.193 11.493-3.08 16.517a89.162 89.162 0 0 1-15.845 20.175c-1.119 1.065-2.332 2.216-2.6 3.749-.478 2.761 2.4 5.017 5.126 5.508 3.09.556 6.244-.213 9.379-.3s6.673.795 8.26 3.54c2.2 3.807-.564 8.532-3.488 11.787a76.415 76.415 0 0 1-20.511 16.153c-2.755 1.485-5.681 2.861-7.731 5.243s-2.953 6.142-1.134 8.722 5.588 2.949 8.553 1.942 5.453-3.053 8.2-4.568c5.137-2.837 12.209-3.476 16.368.716 2.734 2.756 3.557 7.026 2.932 10.872s-2.513 7.356-4.583 10.64c-7.232 11.477-17.192 21.315-29.166 27.509s-23.483 9.065-36.673 6.294" transform="translate(-138.636 518.288)"/>
            <path id="prefix__path44" d="M445.644-372.717a357.929 357.929 0 0 1 8.55-40.181q1.411-5.275 2.783-10.417c.921-3.417 1.834-6.806 2.933-10.065a178.712 178.712 0 0 1 7.382-18.366c2.631-5.729 5.336-11.069 7.9-16.043s5.068-9.56 7.516-13.644a141.917 141.917 0 0 1 12.972-18.4c1.7-2.045 3.064-3.588 4-4.62l1.077-1.169a2.945 2.945 0 0 1 .386-.38 2.808 2.808 0 0 1-.329.431c-.255.3-.594.705-1.023 1.217-.9 1.064-2.235 2.637-3.9 4.706a149.99 149.99 0 0 0-12.746 18.484c-2.412 4.09-4.87 8.682-7.42 13.659s-5.222 10.325-7.83 16.047a180.933 180.933 0 0 0-7.313 18.31c-1.087 3.243-1.989 6.6-2.91 10.029l-2.772 10.414a366.988 366.988 0 0 0-8.592 40.089" class="prefix__cls-2" transform="translate(-158.533 516.992)"/>
            <path id="prefix__path46" d="M461.356-417.939a8.226 8.226 0 0 1-.63-1.632c-.365-1.062-.844-2.617-1.406-4.546-1.128-3.856-2.5-9.236-4-15.171s-2.943-11.282-4.127-15.111c-.587-1.916-1.077-3.462-1.43-4.527a7.926 7.926 0 0 1-.469-1.684 7.952 7.952 0 0 1 .736 1.585c.436 1.037 1 2.561 1.654 4.463 1.315 3.8 2.85 9.145 4.346 15.09l3.79 15.215c.467 1.827.863 3.367 1.179 4.6a7.9 7.9 0 0 1 .356 1.713" class="prefix__cls-2" transform="translate(-159.777 501.493)"/>
            <path id="prefix__path48" d="M517.079-421.41a11.049 11.049 0 0 1-1.992.536c-1.288.3-3.153.736-5.44 1.342-4.584 1.176-10.86 3.021-17.693 5.361s-12.924 4.744-17.281 6.6c-2.186.913-3.934 1.7-5.146 2.236a10.981 10.981 0 0 1-1.914.774 11.035 11.035 0 0 1 1.79-1.036c1.177-.616 2.9-1.479 5.062-2.458 4.315-1.986 10.4-4.463 17.251-6.824a180.844 180.844 0 0 1 17.806-5.166c2.311-.544 4.2-.9 5.509-1.115a10.862 10.862 0 0 1 2.048-.252" class="prefix__cls-2" transform="translate(-166.034 488.114)"/>
            <path id="prefix__path50" d="M428.25-336.918a2.6 2.6 0 0 1-.438-.569l-1.135-1.714c-.979-1.493-2.34-3.689-3.986-6.424-3.295-5.47-7.608-13.169-12.252-21.727s-8.884-16.291-12.06-21.821l-3.78-6.54c-.408-.714-.744-1.3-1.019-1.786a2.648 2.648 0 0 1-.313-.649 2.7 2.7 0 0 1 .439.57c.306.465.681 1.028 1.135 1.713.979 1.492 2.34 3.689 3.986 6.424 3.295 5.47 7.608 13.169 12.254 21.731s8.882 16.288 12.057 21.819c1.554 2.686 2.831 4.9 3.78 6.539.408.714.744 1.3 1.019 1.785a2.726 2.726 0 0 1 .313.65" class="prefix__cls-2" transform="translate(-140.649 480.167)"/>
            <path id="prefix__path52" d="M510.8-353.065a2.724 2.724 0 0 1-.631.374l-1.867.94c-1.727.85-4.058 2-6.895 3.39-5.823 2.864-13.817 6.912-22.646 11.4S461.887-328.5 456-325.755c-2.941 1.373-5.332 2.46-7 3.177l-1.925.815a2.661 2.661 0 0 1-.692.237 2.761 2.761 0 0 1 .63-.374l1.867-.94 6.895-3.39c5.822-2.863 13.818-6.912 22.649-11.4s16.869-8.463 22.751-11.207c2.942-1.373 5.332-2.46 7-3.178.77-.326 1.406-.6 1.924-.814a2.7 2.7 0 0 1 .693-.238" class="prefix__cls-2" transform="translate(-158.787 464.775)"/>
            <path id="prefix__path56" d="M597.927-.466c0 .126-131.694.229-294.11.229-162.473 0-294.14-.1-294.14-.229s131.667-.228 294.14-.228c162.416 0 294.11.1 294.11.228" class="prefix__cls-4" transform="translate(-9.677 344.461)"/>
            <path id="prefix__path58" d="M314.879-178.7l-116.714-.54a25.423 25.423 0 0 1-25.306-25.531l1.236-292.607a25.424 25.424 0 0 1 25.542-25.316l116.715.538a25.426 25.426 0 0 1 25.306 25.532l-1.238 292.612a25.425 25.425 0 0 1-25.541 25.312" class="prefix__cls-5" transform="translate(-65.393 522.69)"/>
            <path id="prefix__path60" d="M320.2-506.816l-22.629-.1a5.621 5.621 0 0 0-5.519 5.719l-.018 4.105a5.62 5.62 0 0 1-5.518 5.719l-44.11-.2a5.627 5.627 0 0 1-5.47-5.77l.018-4.1a5.627 5.627 0 0 0-5.471-5.77l-7.958-.037-19.806-.09a17.8 17.8 0 0 0-17.887 17.73l-1.207 285.605a17.805 17.805 0 0 0 17.723 17.882l116.482.537a17.807 17.807 0 0 0 17.887-17.73l1.207-285.607a17.806 17.806 0 0 0-17.723-17.88" class="prefix__cls-6" transform="translate(-69.411 517.453)"/>
            <path id="prefix__path62" d="M186.24-428.39h19.089l17.039 17.039-17.711 17.711-18.216-18.216-.2-16.534" class="prefix__cls-1" transform="translate(-69.962 490.492)"/>
            <path id="prefix__path64" d="M242.041-418.824l-9.566-9.566H254z" class="prefix__cls-1" transform="translate(-85.749 490.492)"/>
            <path id="prefix__path66" d="M259.71-410.694l16.758-16.758h58.572s8.968 40.037-26.306 65.745l-49.024-48.987" class="prefix__cls-1" transform="translate(-95.048 490.172)"/>
            <path id="prefix__path68" d="M239.517-393.892l-17.935 17.936 49.618 49.621 17.936-18.534-49.622-49.024" class="prefix__cls-1" transform="translate(-82.03 478.713)"/>
            <path id="prefix__path70" d="M185.913-362.982l11.234-11.658-11.019-11.02z" class="prefix__cls-1" transform="translate(-69.851 475.903)"/>
            <path id="prefix__path72" d="M204.235-358.487l-17.263 17.263v23.988l35.647 36.469 30.191-28.1-48.575-49.622" class="prefix__cls-1" transform="translate(-70.212 466.625)"/>
            <path id="prefix__path74" d="M344.27-356.676s36.979-27.114 25.022-70.776h23l-.28 123.244-47.74-52.468" class="prefix__cls-1" transform="translate(-123.92 490.172)"/>
            <path id="prefix__path76" d="M324.469-309.179l-17.886 18.671 54.834 54.834 16.771-17.772-53.72-55.733" class="prefix__cls-1" transform="translate(-111.052 449.789)"/>
            <path id="prefix__path78" d="M280.672-273.069l-28.1 27.909 56.209 55.816 28.052-27.122-56.157-56.6" class="prefix__cls-1" transform="translate(-92.609 437.46)"/>
            <path id="prefix__path80" d="M272.873-83.856L315.84-128.4l40.876 41.67-83.843 2.874" class="prefix__cls-1" transform="translate(-99.542 388.063)"/>
            <path id="prefix__path82" d="M348.3-160.108l44.745-44.329c0 1.969-.388 91.948-.388 91.948L348.3-160.108" class="prefix__cls-1" transform="translate(-125.296 414.026)"/>
            <path id="prefix__path84" d="M265.289-174.94l25.384 25.383-50.115 51.724L217.4-125.61l47.893-49.329" class="prefix__cls-1" transform="translate(-80.6 403.955)"/>
            <path id="prefix__path86" d="M185.976-158.756c2.395-.24 63.783-57.723 63.783-57.723l-63.783-66.092v123.816" class="prefix__cls-1" transform="translate(-69.872 440.704)"/>
            <path id="prefix__path88" d="M184.625-81.463l14.781-13.1 20.464 24.174h-35.245v-11.074" class="prefix__cls-1" transform="translate(-69.411 376.511)"/>
            <path id="prefix__path90" d="M211.395-458.941a37.154 37.154 0 0 1-4.384-3.814v-.335l.007-.006.014-.013.026-.025.055-.051.108-.1.216-.2.422-.393.8-.736 1.379-1.228a6.354 6.354 0 0 1 1.35-1.048 6.316 6.316 0 0 1-1.128 1.283l-1.312 1.3-.785.757-.418.4-.214.2-.109.1-.054.051-.027.026-.014.012-.006.006v-.331a37.029 37.029 0 0 1 4.071 4.147" class="prefix__cls-4" transform="translate(-77.054 503.642)"/>
            <path id="prefix__path92" d="M396.977-465.478a.951.951 0 0 1-.952.952.952.952 0 0 1-.953-.952.953.953 0 0 1 .953-.953.952.952 0 0 1 .952.953" class="prefix__cls-4" transform="translate(-141.266 503.481)"/>
            <path id="prefix__path94" d="M396.7-461.177a.953.953 0 0 1 0 1.347.953.953 0 0 1-1.347 0 .952.952 0 0 1 0-1.347.952.952 0 0 1 1.347 0" class="prefix__cls-4" transform="translate(-141.266 501.782)"/>
            <path id="prefix__path96" d="M396.977-455.529a.952.952 0 0 1-.952.953.953.953 0 0 1-.953-.953.953.953 0 0 1 .953-.953.952.952 0 0 1 .952.953" class="prefix__cls-4" transform="translate(-141.266 500.084)"/>
            <path id="prefix__path98" d="M314.179-455.657h-41.073v-3.422h41.073v3.422" class="prefix__cls-4" transform="translate(-99.622 500.971)"/>
            <path id="prefix__path100" d="M289.04-362.657c-11.523 6.7-23.2-5.685-16.886-17.907a9.6 9.6 0 0 1 3.66-3.882c11.524-6.7 23.2 5.685 16.885 17.907a9.6 9.6 0 0 1-3.659 3.882zm16.1-13.926c0-16-16.813-26.139-33.954-18.117a19.467 19.467 0 0 0-9.02 8.646c-4.312 8.354-2.409 17.894 1.5 25.815l13.341 33.81a5.748 5.748 0 0 0 10.712-.045l13.08-33.987c4.529-10.352 4.339-16.122 4.339-16.122" class="prefix__cls-7" transform="translate(-95.048 479.948)"/>
            <path id="prefix__path102" fill="#f03d5f" d="M119.3-108.818h487.17V-180.3H119.3z" transform="translate(-47.105 405.785)"/>
            <path id="prefix__path104" d="M605.574-101.951H495.3c-.425-17.29 3.963-58.163 54.933-58.236h.135c50.5 0 55.438 40.607 55.2 58.237m-360.42 0H135.869c.718-17.367 7.441-56.505 53.321-57.966q1.258-.04 2.481-.04c45.292 0 52.473 40.747 53.484 58.006" class="prefix__cls-9" transform="translate(-52.764 398.918)"/>
            <path id="prefix__path106" d="M147.372-97.513a46.976 46.976 0 0 0 46.293 47.649 46.976 46.976 0 0 0 47.649-46.293A46.975 46.975 0 0 0 195.02-143.8a46.974 46.974 0 0 0-47.648 46.292" class="prefix__cls-4" transform="translate(-56.69 393.326)"/>
            <path id="prefix__path108" d="M147.38-73.692l-.008.12a46.976 46.976 0 0 0 46.293 47.649 46.976 46.976 0 0 0 47.649-46.293v-.121l-93.93-1.355" class="prefix__cls-4" transform="translate(-56.69 369.385)"/>
            <path id="prefix__path110" d="M168.622-90.054a32.98 32.98 0 0 0 32.5 33.452 32.98 32.98 0 0 0 33.453-32.5 32.981 32.981 0 0 0-32.5-33.453 32.981 32.981 0 0 0-33.452 32.5" class="prefix__cls-6" transform="translate(-63.946 386.07)"/>
            <path id="prefix__path112" d="M202.076-122.556a32.981 32.981 0 0 0-33.452 32.5l65.954.951a32.981 32.981 0 0 0-32.5-33.453" class="prefix__cls-2" transform="translate(-63.947 386.07)"/>
            <path id="prefix__path114" d="M188.194-83.185a20.09 20.09 0 0 0 19.8 20.377 20.09 20.09 0 0 0 20.378-19.8 20.09 20.09 0 0 0-19.8-20.378 20.089 20.089 0 0 0-20.378 19.8" class="prefix__cls-4" transform="translate(-70.629 379.387)"/>
            <path id="prefix__path116" d="M692.837-97.513a46.978 46.978 0 0 0 46.294 47.649 46.976 46.976 0 0 0 47.649-46.293 46.975 46.975 0 0 0-46.294-47.643 46.976 46.976 0 0 0-47.649 46.292" class="prefix__cls-4" transform="translate(-242.932 393.326)"/>
            <path id="prefix__path118" d="M692.846-73.692l-.009.12a46.978 46.978 0 0 0 46.294 47.649 46.976 46.976 0 0 0 47.649-46.293v-.121l-93.93-1.355" class="prefix__cls-4" transform="translate(-242.932 369.385)"/>
            <path id="prefix__path120" d="M714.09-90.054a32.979 32.979 0 0 0 32.5 33.454 32.981 32.981 0 0 0 33.453-32.5 32.981 32.981 0 0 0-32.5-33.453 32.98 32.98 0 0 0-33.452 32.5" class="prefix__cls-6" transform="translate(-250.189 386.07)"/>
            <path id="prefix__path122" d="M747.544-122.556a32.98 32.98 0 0 0-33.452 32.5l65.954.951a32.981 32.981 0 0 0-32.5-33.453" class="prefix__cls-2" transform="translate(-250.191 386.07)"/>
            <path id="prefix__path124" d="M733.661-83.185a20.09 20.09 0 0 0 19.8 20.377 20.09 20.09 0 0 0 20.378-19.8 20.09 20.09 0 0 0-19.8-20.378 20.09 20.09 0 0 0-20.378 19.8" class="prefix__cls-4" transform="translate(-256.872 379.387)"/>
            <path id="prefix__path126" d="M230.511-270.258s-69.175 5.1-94.815 10.852c-18.07 4.052-52.914 11.046-52.494 32.968l2.764 15.713s-12.928 5.9-12.928 20.966-3.156 38.431 27.012 39.365c4.972.153 14.416 0 14.416 0s-5.792-64.252 53.239-66.133c60.05-1.913 56.062 65.545 56.062 65.545h250.625S464.105-216.7 528.75-216.8s54.81 66.244 54.81 66.244 23.78 2.058 34.845-17.929 8.185-34.213 8.185-34.213l-.366-12.632a8.179 8.179 0 0 0-7.861-7.935s4.319-31.809-2.308-37.315-42.955-38.713-42.955-38.713l1.731-1.087a4.073 4.073 0 0 0-.841-7.3c-13.792-4.743-41.064-14.127-47.477-16.371a11.714 11.714 0 0 0-2.978-.626c-3.825-.293-14.659-.98-34.546-1.192-24.227-.259-120.415 0-120.415 0s-33.1 2.722-51.543 10.84c-19.389 8.534-86.516 44.772-86.516 44.772" class="prefix__cls-7" transform="translate(-31.278 455.527)"/>
            <path id="prefix__path128" d="M91.672-100.819a6.614 6.614 0 0 1-3.136-.784 9.517 9.517 0 0 1-4.389-6.209 22.267 22.267 0 0 1-.173-7.787c.216-1.89.593-3.931 2.013-5.194a7.9 7.9 0 0 1 5.135-1.454 16.037 16.037 0 0 1 3.133.313 2.608 2.608 0 0 1 2.006 1.2 4.709 4.709 0 0 1 .863 1.933c.624 3.331.352 6.2.413 9.589.043 2.386-.144 5-1.774 6.744a5.547 5.547 0 0 1-4.089 1.648" class="prefix__cls-9" transform="translate(-34.957 385.963)"/>
            <path id="prefix__path130" d="M91.285-160.151c7.344.016 14.466-.4 21.794-.892a3.543 3.543 0 0 0 2.234-.677 3.578 3.578 0 0 0 .765-2.674c.035-3.936-.161-8.409-3.146-10.973-1.824-1.567-4.327-2.054-6.721-2.279a43.466 43.466 0 0 0-17.689 1.782l2.764 15.713" class="prefix__cls-6" transform="translate(-36.597 404.954)"/>
            <path id="prefix__path132" d="M251.332-105.26s-.026-.213-.057-.627l-.121-1.843-.387-7.087c-.168-3.067-.376-6.842-.817-11.195a87.961 87.961 0 0 0-2.589-14.6 66.323 66.323 0 0 0-7.071-16.468 51.727 51.727 0 0 0-13.666-15.242c-11.852-8.429-27.857-13.194-44.6-13.4-16.786-.2-32.734 5.1-44.286 13.944a64.988 64.988 0 0 0-14.378 14.67 69.564 69.564 0 0 0-8.416 15.831 64.448 64.448 0 0 0-3.554 14.373 60.444 60.444 0 0 0-.431 11.182 56.39 56.39 0 0 0 .861 7.029l.329 1.816c.077.424.1.623.1.623s-.056-.207-.142-.613l-.374-1.808a52.881 52.881 0 0 1-.948-7.035 59.668 59.668 0 0 1 .355-11.226 64.251 64.251 0 0 1 3.5-14.453 69.577 69.577 0 0 1 8.41-15.938 65.2 65.2 0 0 1 14.436-14.789c11.608-8.913 27.662-14.266 44.541-14.063 16.836.209 32.91 5 44.845 13.515a51.992 51.992 0 0 1 13.742 15.387 66.348 66.348 0 0 1 7.059 16.578 87.406 87.406 0 0 1 2.532 14.664c.418 4.362.6 8.132.741 11.211s.232 5.455.3 7.092l.076 1.845c.015.415.011.63.011.63" class="prefix__cls-10" transform="translate(-44.16 407.795)"/>
            <path id="prefix__path134" d="M327.142-147.509s-.016-.177-.03-.526-.032-.875-.056-1.557l-.189-6.069-.655-23.025c-.282-9.907-.6-21.95-.979-35.741l-.288-10.67a36.028 36.028 0 0 1 .241-5.578q.2-1.4.4-2.827l.58-2.833a57.122 57.122 0 0 1 3.908-11.248 56.334 56.334 0 0 1 6.434-10.687l.018-.022.029-.019 43.4-27.342 11.721-7.381a91.989 91.989 0 0 1 12.407-6.926 126.612 126.612 0 0 1 13.472-5.381c2.306-.809 4.669-1.472 7.03-2.175 2.388-.6 4.769-1.282 7.206-1.769a163.987 163.987 0 0 1 27.973-3.532 263.621 263.621 0 0 1 27.081.09l.258.015-.058.255-11.664 52.17-.007.032-.019.032a56.93 56.93 0 0 0-5.231 11.206 30.644 30.644 0 0 0-1.771 11.6c.3 3.856.4 7.628.5 11.285l.209 10.663c.2 13.785.254 25.81.292 35.717l.024 23.008-.021 6.066q-.011 1.022-.015 1.556c-.005.349-.016.527-.016.527s-.01-.178-.016-.527-.01-.875-.017-1.556l-.038-6.066-.135-23.007c-.058-9.901-.155-21.931-.386-35.713l-.229-10.658c-.105-3.659-.217-7.417-.521-11.268a30.971 30.971 0 0 1 1.773-11.744 57.233 57.233 0 0 1 5.258-11.3l-.026.065 11.62-52.181.2.27a263.63 263.63 0 0 0-27.028-.079 163.809 163.809 0 0 0-27.9 3.525c-2.429.486-4.8 1.164-7.182 1.764-2.353.7-4.708 1.361-7.006 2.166a126.548 126.548 0 0 0-13.426 5.359 91.532 91.532 0 0 0-12.349 6.889l-11.718 7.371-43.435 27.311.047-.041a55.973 55.973 0 0 0-6.393 10.595 56.819 56.819 0 0 0-3.9 11.169c-1.975 7.525-.979 14.949-.962 21.825l.885 35.737c.246 9.916.419 17.7.544 23.025.056 2.652.1 4.688.128 6.072l.025 1.557v.527" class="prefix__cls-4" transform="translate(-117.308 451.135)"/>
            <path id="prefix__path136" d="M570.357-311.058s.139-.017.411-.027l1.207-.04 4.661-.113 17.289-.341 58.291-.994h.11l.069.086 8.167 10 23.324 28.6 2.652 3.255a18.632 18.632 0 0 1 2.181 3.5 18.3 18.3 0 0 1 1.744 7.641 18.223 18.223 0 0 1-1.413 7.182l-2.658 6.186-8.058 18.647-2.213 5.06-.586 1.311c-.134.3-.214.441-.214.441s.051-.158.171-.458.31-.758.544-1.329c.494-1.181 1.212-2.9 2.133-5.094l7.926-18.7c1.513-3.97 4.171-8.146 3.989-13.237a17.939 17.939 0 0 0-1.728-7.472 18.275 18.275 0 0 0-2.143-3.417l-2.659-3.25-23.349-28.571-8.163-10 .179.083-58.293.842-17.292.2-4.662.034h-1.208c-.273 0-.412-.016-.412-.016" class="prefix__cls-4" transform="translate(-201.115 450.949)"/>
            <path id="prefix__path138" d="M513-197.853c0-.025.247-.021.7-.1a4.84 4.84 0 0 0 1.847-.735 4.719 4.719 0 0 0 1.877-2.444 5.242 5.242 0 0 0 .24-1.933 4.754 4.754 0 0 0-.544-2.088 4.656 4.656 0 0 0-4.044-2.464l-5.918.018-13.568.018a4.6 4.6 0 0 0-3.092 1.2 4.592 4.592 0 0 0-1.467 2.874 5.132 5.132 0 0 0 .561 3.1 4.646 4.646 0 0 0 2.246 2 7.074 7.074 0 0 0 2.92.356l2.874.011 5.16.028 7.472.072 2.031.043a4.268 4.268 0 0 1 .708.046 3.959 3.959 0 0 1-.708.047l-2.031.043-7.472.073-5.16.027-2.874.012c-.5-.006-.982.02-1.517-.013a5.011 5.011 0 0 1-1.564-.356 5.062 5.062 0 0 1-2.465-2.171 5.581 5.581 0 0 1-.628-3.364 5.039 5.039 0 0 1 1.607-3.16 5.044 5.044 0 0 1 3.4-1.326l13.568.018 5.924.025a4.989 4.989 0 0 1 4.325 2.692 5.024 5.024 0 0 1 .549 2.234 5.461 5.461 0 0 1-.289 2.02 4.865 4.865 0 0 1-2.023 2.51 4.672 4.672 0 0 1-1.929.677 2.872 2.872 0 0 1-.712.011" class="prefix__cls-4" transform="translate(-173.18 415.257)"/>
            <path id="prefix__path140" d="M710.237-197.853c0-.025.245-.021.7-.1a4.828 4.828 0 0 0 1.846-.735 4.711 4.711 0 0 0 1.878-2.444 5.226 5.226 0 0 0 .24-1.933 4.757 4.757 0 0 0-.545-2.088 4.655 4.655 0 0 0-4.044-2.464l-5.918.018-13.568.018a4.6 4.6 0 0 0-3.093 1.2 4.6 4.6 0 0 0-1.468 2.874 5.139 5.139 0 0 0 .562 3.1 4.65 4.65 0 0 0 2.246 2 7.072 7.072 0 0 0 2.92.356l2.875.011 5.16.028 7.471.072 2.031.043a4.288 4.288 0 0 1 .709.046 3.977 3.977 0 0 1-.709.047l-2.031.043-7.471.073-5.16.027-2.875.012c-.5-.006-.982.02-1.517-.013a5.01 5.01 0 0 1-1.563-.356 5.07 5.07 0 0 1-2.467-2.171 5.586 5.586 0 0 1-.627-3.364 5.041 5.041 0 0 1 1.606-3.16 5.05 5.05 0 0 1 3.4-1.326l13.568.018 5.924.025a4.99 4.99 0 0 1 4.325 2.692 5.031 5.031 0 0 1 .549 2.234 5.48 5.48 0 0 1-.289 2.02 4.869 4.869 0 0 1-2.023 2.51 4.676 4.676 0 0 1-1.929.677 2.869 2.869 0 0 1-.712.011" class="prefix__cls-4" transform="translate(-240.526 415.257)"/>
            <path id="prefix__path142" d="M877.436-224.757h-25.992a9.592 9.592 0 0 0-8.489 5.127 9.59 9.59 0 0 0-.289 8.329l10.193 23.152 26.025-.256s5.534-29.348-1.448-36.353" class="prefix__cls-6" transform="translate(-293.813 420.964)"/>
            <path id="prefix__path144" d="M347.756-258.568l134.112-2.471 87.283-1.6 28.782-16.617a4.471 4.471 0 0 0 1.325-6.574l-17.918-23.542a9.965 9.965 0 0 0-7.853-3.931l-97.622-.794s-36.762-2.136-65.722 14.081c-30.483 17.069-62.387 41.448-62.387 41.448" class="prefix__cls-4" transform="translate(-125.11 451.5)"/>
            <path id="prefix__path146" d="M396.711-310.357s6.723 3.066 2.347 5.907-72.32 45.677-72.32 45.677l-15.619-7.069c27.667-15.415 55.613-30.385 85.593-44.514" class="prefix__cls-5" transform="translate(-112.6 450.191)"/>
            <path id="prefix__path148" d="M253.6-230.4s-.14.044-.418.107l-1.237.27-4.766.986c-4.144.825-10.151 1.983-17.6 3.262-14.894 2.563-35.58 5.551-58.562 7.538-5.747.5-11.364.91-16.79 1.266s-10.658.687-15.63 1.141a134.949 134.949 0 0 0-26.085 4.468 73.756 73.756 0 0 0-16.447 6.86c-1.869.986-3.2 1.949-4.146 2.532l-1.068.679c-.242.151-.373.219-.373.219s.113-.094.346-.257l1.043-.716c.931-.609 2.249-1.6 4.109-2.61a71.947 71.947 0 0 1 16.444-7.018 133.342 133.342 0 0 1 26.138-4.577c4.978-.468 10.215-.806 15.639-1.168s11.037-.776 16.779-1.276c22.967-1.985 43.647-4.921 58.548-7.4 7.453-1.238 13.465-2.347 17.62-3.118l4.782-.9 1.245-.225c.281-.048.428-.061.428-.061" class="prefix__cls-4" transform="translate(-37.265 422.893)"/>
            <path id="prefix__path150" d="M890.953-139.332c0 .126-8.939.229-19.963.229s-19.965-.1-19.965-.229 8.937-.229 19.965-.229 19.963.1 19.963.229" class="prefix__cls-4" transform="translate(-296.945 391.875)"/>
            <path id="prefix__path152" d="M546.5-104.694c0 .127-50.457.229-112.685.229-62.249 0-112.7-.1-112.7-.229s50.447-.227 112.7-.227c62.228 0 112.685.1 112.685.227" class="prefix__cls-4" transform="translate(-116.014 380.048)"/>
            <path id="prefix__path154" d="M110.37-138.185c0 .126-7.135.228-15.934.228s-15.935-.1-15.935-.228 7.133-.228 15.935-.228 15.934.1 15.934.228" class="prefix__cls-4" transform="translate(-33.176 391.483)"/>
            <path id="prefix__path156" d="M829.154-286.85s-5.988 6.705-3.634 11.625 26.68 22.141 26.68 22.141l17.658 3.313-40.7-37.079" class="prefix__cls-5" transform="translate(-288.05 442.165)"/>
            <path id="prefix__path158" d="M574.33-305.067l-3.973 42.879 71.054-2.025 28.639-16.647-18.54-24.207h-77.18" class="prefix__cls-5" transform="translate(-201.115 448.385)"/>
            <path id="prefix__path160" d="M373.308-260.039S416.173-291 433.086-297.15c16.323-5.939 24.832-7.427 40.164-7.863 14.656-.417 23.585-.013 23.585-.013l-11.328 43.595-112.2 1.393" class="prefix__cls-5" transform="translate(-133.835 448.431)"/>
            <path id="prefix__path162" d="M363.783-243.918a7.513 7.513 0 0 1 3.833-6.549l9.847-5.533a18.764 18.764 0 0 1 9.194-2.406 18.772 18.772 0 0 1 5.845.933 10.674 10.674 0 0 1 7.179 9.8 10.85 10.85 0 0 1-10.842 11.262H371.3a7.512 7.512 0 0 1-7.512-7.512" class="prefix__cls-7" transform="translate(-130.582 432.452)"/>
            <path id="prefix__path164" d="M363.775-244.027c.025 0 .029.333.113.952a7.589 7.589 0 0 0 .865 2.572 7.669 7.669 0 0 0 3.019 2.972 7.458 7.458 0 0 0 2.533.8 29.5 29.5 0 0 0 3.028.058l15.02-.05a11.441 11.441 0 0 0 4.181-.684 10.669 10.669 0 0 0 3.713-2.362 10.559 10.559 0 0 0 2.507-3.806 10.854 10.854 0 0 0 .655-4.644 10.64 10.64 0 0 0-4.431-7.861 11.3 11.3 0 0 0-4.07-1.715 18.635 18.635 0 0 0-4.253-.5 18.653 18.653 0 0 0-7.707 1.651c-1.134.506-2.169 1.147-3.2 1.7l-2.933 1.631-5.048 2.8a7.509 7.509 0 0 0-3.015 2.975 7.638 7.638 0 0 0-.874 2.568c-.09.619-.082.952-.108.951a4.647 4.647 0 0 1 .017-.962 7.345 7.345 0 0 1 .808-2.642 7.628 7.628 0 0 1 3.048-3.113l5.014-2.855 2.919-1.657c1.02-.561 2.051-1.212 3.212-1.739a18.924 18.924 0 0 1 7.864-1.728 18.956 18.956 0 0 1 4.354.5 11.723 11.723 0 0 1 4.226 1.772 11.071 11.071 0 0 1 4.63 8.192 11.293 11.293 0 0 1-.686 4.843 11 11 0 0 1-2.618 3.964 11.062 11.062 0 0 1-3.874 2.45 11.836 11.836 0 0 1-4.334.7l-15.02-.048a29.075 29.075 0 0 1-3.066-.092 7.689 7.689 0 0 1-2.617-.861 7.783 7.783 0 0 1-3.054-3.112 7.3 7.3 0 0 1-.8-2.646 5.629 5.629 0 0 1-.022-.963" class="prefix__cls-4" transform="translate(-130.574 432.562)"/>
            <path id="prefix__path166" d="M794.688-102.967s0-.207.025-.609.068-1.01.12-1.783.141-1.752.192-2.9.085-2.473.136-3.961c.014-1.49-.008-3.148-.025-4.96-.117-1.81-.126-3.784-.372-5.888a76.086 76.086 0 0 0-2.54-14.125 63.241 63.241 0 0 0-2.8-7.862 52.192 52.192 0 0 0-4.238-7.979 54.342 54.342 0 0 0-13.726-14.326 64.845 64.845 0 0 0-19.691-9.708 82.143 82.143 0 0 0-23.407-3.118 76.911 76.911 0 0 0-23.36 3.4 65.833 65.833 0 0 0-10.4 4.292 59.829 59.829 0 0 0-9.025 5.9 75.3 75.3 0 0 0-13.907 14.262 55.865 55.865 0 0 0-4.622 7.762 77.683 77.683 0 0 0-3.2 7.715 91.949 91.949 0 0 0-5.067 24.639c-.141 2.977-.126 5.293-.051 6.86q.067 1.159.1 1.783c.019.4.018.609.018.609s-.03-.2-.066-.605l-.148-1.783a68.626 68.626 0 0 1-.035-6.874 90.577 90.577 0 0 1 4.941-24.736 77.345 77.345 0 0 1 3.184-7.762 55.976 55.976 0 0 1 4.634-7.833 75.436 75.436 0 0 1 13.953-14.368 60.061 60.061 0 0 1 9.083-5.953 65.992 65.992 0 0 1 10.465-4.332 77.129 77.129 0 0 1 23.5-3.428A82.334 82.334 0 0 1 751.9-177.5a65.139 65.139 0 0 1 19.812 9.8 59.921 59.921 0 0 1 7.765 6.811 47.625 47.625 0 0 1 6.032 7.652 52.474 52.474 0 0 1 4.244 8.045 63.27 63.27 0 0 1 2.784 7.914 75.654 75.654 0 0 1 2.484 14.19c.234 2.111.231 4.09.335 5.9 0 1.818.013 3.478-.014 4.97-.067 1.49-.127 2.814-.177 3.965-.067 1.148-.176 2.114-.238 2.9s-.126 1.364-.164 1.78c-.04.4-.072.605-.072.605" class="prefix__cls-10" transform="translate(-231.224 405.902)"/>
            <path id="prefix__path168" d="M500.078-229.779a.706.706 0 0 1-.2.025l-.6.025-2.29.051-8.422.15c-7.111.134-16.934.4-27.783.691s-20.681.5-27.8.555c-3.557.029-6.436.031-8.425.006l-2.291-.035-.6-.02a.676.676 0 0 1-.2-.023.7.7 0 0 1 .2-.025l.6-.024q.844-.02 2.29-.051l8.422-.152c7.111-.133 16.934-.394 27.788-.689s20.675-.506 27.79-.557c3.558-.027 6.436-.03 8.427-.006l2.29.035.6.021a.719.719 0 0 1 .2.023" class="prefix__cls-10" transform="translate(-150.28 422.712)"/>
            <path id="prefix__path170" d="M515.175-209.8a64.576 64.576 0 0 1-7.693.229 64.563 64.563 0 0 1-7.693-.229 65.251 65.251 0 0 1 7.693-.227 65.272 65.272 0 0 1 7.693.227" class="prefix__cls-10" transform="translate(-177.02 415.935)"/>
            <path id="prefix__path172" d="M505.233-281.034c.047.117-9.5 4.094-21.328 8.879s-21.454 8.574-21.5 8.457 9.5-4.092 21.33-8.88 21.452-8.573 21.5-8.456" class="prefix__cls-10" transform="translate(-164.255 440.18)"/>
            <path id="prefix__path174" d="M476.9-276.481c.05.117-9.042 4.123-20.306 8.946s-20.441 8.642-20.49 8.526 9.042-4.121 20.309-8.947 20.438-8.641 20.487-8.525" class="prefix__cls-10" transform="translate(-155.276 438.625)"/>
            <path id="prefix__path176" d="M662.2-283.555c.048.117-9.5 4.093-21.328 8.879s-21.453 8.574-21.5 8.457 9.5-4.092 21.329-8.88 21.453-8.573 21.5-8.456" class="prefix__cls-10" transform="translate(-217.849 441.041)"/>
            <path id="prefix__path178" d="M633.867-279c.05.116-9.043 4.122-20.307 8.946s-20.44 8.642-20.489 8.526 9.042-4.121 20.309-8.947 20.438-8.641 20.487-8.525" class="prefix__cls-10" transform="translate(-208.87 439.486)"/>
            <path id="prefix__path180" d="M643.25-229.786c0 .126-18.992.342-42.416.481s-42.422.151-42.423.025 18.988-.342 42.42-.481 42.417-.15 42.418-.025" class="prefix__cls-10" transform="translate(-197.036 422.711)"/>
            <path id="prefix__path182" d="M706.836-210.871c0 .127-5.325.279-11.9.341s-11.9.009-11.9-.118 5.324-.278 11.9-.34 11.9-.009 11.9.117" class="prefix__cls-10" transform="translate(-239.589 416.272)"/>
            <path id="prefix__path184" d="M142.442-220.658a2.364 2.364 0 0 1-.516.1l-1.489.195c-.647.074-1.437.171-2.351.322s-1.959.277-3.1.508c-2.294.4-5 1-7.972 1.79-2.963.824-6.186 1.854-9.495 3.138-3.3 1.307-6.366 2.743-9.1 4.155-2.718 1.44-5.112 2.839-7.065 4.107-.994.607-1.85 1.221-2.618 1.734s-1.419.976-1.943 1.362l-1.224.868a2.3 2.3 0 0 1-.446.279 2.26 2.26 0 0 1 .39-.352l1.174-.938c.509-.408 1.142-.9 1.9-1.428s1.6-1.17 2.589-1.8c1.937-1.307 4.325-2.74 7.045-4.208a93.944 93.944 0 0 1 9.128-4.209 93.96 93.96 0 0 1 9.554-3.119c2.992-.773 5.718-1.344 8.027-1.7 1.149-.211 2.2-.321 3.121-.443s1.715-.2 2.366-.246l1.5-.111a2.24 2.24 0 0 1 .525-.007" class="prefix__cls-10" transform="translate(-38.851 419.568)"/>
            <path id="prefix__path186" d="M391.483-253.356c-.034.025-.259-.344-.846-.818a5.831 5.831 0 0 0-2.9-1.172 12.657 12.657 0 0 0-4.681.508 35.841 35.841 0 0 0-5.527 1.88 36.293 36.293 0 0 0-9 5.592c-2.086 1.754-3.19 3.047-3.256 2.986a6.011 6.011 0 0 1 .742-.934 28.619 28.619 0 0 1 2.3-2.3 33.388 33.388 0 0 1 9.024-5.767 33.538 33.538 0 0 1 5.611-1.87 12.421 12.421 0 0 1 4.825-.418 5.7 5.7 0 0 1 2.973 1.357 3.921 3.921 0 0 1 .587.675c.109.173.155.269.142.278" class="prefix__cls-10" transform="translate(-131.092 431.549)"/>
            <path id="prefix__path188" d="M786.064-296.121a14.081 14.081 0 0 1-3.738.381 23.024 23.024 0 0 1-4.383-.542 39.409 39.409 0 0 1-5.588-1.725c-2.027-.766-4.191-1.735-6.526-2.733l-3.645-1.471c-1.255-.5-2.579-.931-3.918-1.419a152.288 152.288 0 0 0-17.9-4.878 205.368 205.368 0 0 0-33.444-4.164c-2.157-.118-4.109-.118-5.824-.167h-4.4l-2.781.062h-.724a1.014 1.014 0 0 1-.248-.014 1.014 1.014 0 0 1 .246-.033l.722-.05 2.781-.147 4.406-.078c1.718.024 3.675 0 5.836.1a195.116 195.116 0 0 1 33.528 4.039 148.246 148.246 0 0 1 17.939 4.927c1.342.5 2.668.934 3.926 1.443l3.649 1.5c2.333 1.014 4.484 2 6.493 2.779a40.362 40.362 0 0 0 5.529 1.78 23.909 23.909 0 0 0 4.332.614 19.615 19.615 0 0 0 2.768-.1l.717-.087a.956.956 0 0 1 .248-.014" class="prefix__cls-4" transform="translate(-242.971 451.125)"/>
            <path id="prefix__path190" d="M159.723-309.191c-3.507-19.212-5.869-22.164-7.854-28.774-1.963-6.532-5.137-10.908-9.066-12.419-2.65-1.019-15.863-5.787-20.466-4.206a57.347 57.347 0 0 0-12.757 6.407 17.093 17.093 0 0 0-6.659 8.513l-7.071 19.817 12.368 12.334 6.2-13.174 6.727 15.767-1 15.94 38.582 10.38c3.515-5.62 2.986-19.685 1-30.586" class="prefix__cls-7" transform="translate(-39.099 465.403)"/>
            <path id="prefix__path192" d="M145.913-280.056a11.423 11.423 0 0 1-4.423-.755c-2.2-.971-4.073-5.24-3.167-7.469 1.953.418 3.1.977 4.308.977a5.089 5.089 0 0 0 2.795-.977 24.632 24.632 0 0 0 7.29-7.613c5.63-10.892 7.177-11.279 11.383-21.415-1.7 10-1.975 11.382-3.678 21.382-.585 3.433-2.294 8.789-4.739 11.268-1.811 1.838-3.587 3.608-6.1 4.2a16.447 16.447 0 0 1-3.67.4" class="prefix__cls-7" transform="translate(-53.522 452.565)"/>
            <path id="prefix__path194" d="M129.287-297.355a23.294 23.294 0 0 1-1.7-2.657l-3.975-6.482-4.073-6.423a23.471 23.471 0 0 1-1.637-2.7 3.059 3.059 0 0 1 .552.647c.331.434.794 1.073 1.354 1.87 1.12 1.6 2.617 3.836 4.192 6.361s2.927 4.855 3.867 6.562c.47.854.841 1.551 1.084 2.039a3.081 3.081 0 0 1 .34.781" class="prefix__cls-4" transform="translate(-46.627 451.987)"/>
            <path id="prefix__path196" d="M164.022-262.845a3.9 3.9 0 0 1-.905.341 9.626 9.626 0 0 1-1.094.3c-.432.1-.92.232-1.473.308a24.209 24.209 0 0 1-3.9.353 27.476 27.476 0 0 1-4.786-.409 27.579 27.579 0 0 1-4.624-1.307 24.19 24.19 0 0 1-3.528-1.71c-.491-.267-.9-.565-1.27-.809a10.014 10.014 0 0 1-.916-.67 3.96 3.96 0 0 1-.727-.639c.053-.071 1.136.78 3.072 1.836a27.292 27.292 0 0 0 3.518 1.6 29.674 29.674 0 0 0 4.557 1.25 29.776 29.776 0 0 0 4.7.439 27.479 27.479 0 0 0 3.856-.252c2.183-.306 3.5-.718 3.522-.634" class="prefix__cls-4" transform="translate(-54.445 435.417)"/>
            <path id="prefix__path198" d="M132.419-313.447c-.067.343-4.217 8.6-4.217 8.6l-19.561-10.306-2-8.431a5.239 5.239 0 0 0-2.259-3.194 5.25 5.25 0 0 0-4.075-.693l-5.768 2.362a1.54 1.54 0 0 0-.946 1.109c-.08.428.025.84.761.782 1.433-.112 4.418-.428 4.418-.428l-1.362 4.8a5.123 5.123 0 0 0 .387 3.767l.867 1.662 1.907 3.084-.039.027s19.016 19.534 29.693 20.805c6.415.763 13.688-17.227 13.688-17.227l-11.493-6.725" class="prefix__cls-11" transform="translate(-38.321 456.085)"/>
            <path id="prefix__path200" d="M101.218-321.543c-.021-.031.147-.2.475-.421a2.555 2.555 0 0 1 1.48-.457 1.563 1.563 0 0 1 1.312.842c.178.392.058.662.033.647-.049 0-.019-.251-.211-.551a1.5 1.5 0 0 0-1.148-.652 2.925 2.925 0 0 0-1.367.348c-.34.163-.551.278-.574.244" class="prefix__cls-12" transform="translate(-40.932 454.311)"/>
            <path id="prefix__path202" d="M103.484-317.3c-.041.015-.126-.159-.314-.391a2.267 2.267 0 0 0-.905-.678 2.26 2.26 0 0 0-1.124-.125c-.3.04-.477.11-.5.071s.137-.169.453-.268a1.956 1.956 0 0 1 1.273.055 1.962 1.962 0 0 1 .967.83c.163.288.18.5.147.5" class="prefix__cls-12" transform="translate(-40.736 453.065)"/>
            <path id="prefix__path204" d="M155.976-345.668l-5.3 25.106 14.04 8.438 5.395-15.429s-2.232-18.733-14.138-18.115" class="prefix__cls-7" transform="translate(-57.821 462.253)"/>
            <path id="prefix__path206" d="M149.682-344.991a1.451 1.451 0 0 1-.358.225c-.241.133-.6.328-1.067.563-.933.477-2.3 1.142-4.008 1.9a58.944 58.944 0 0 1-13.959 4.4 34.863 34.863 0 0 1-14.594-.494 24.923 24.923 0 0 1-4.186-1.5c-.481-.21-.832-.421-1.077-.548a1.474 1.474 0 0 1-.358-.223 14.5 14.5 0 0 1 1.506.608 29.242 29.242 0 0 0 4.194 1.351 36.236 36.236 0 0 0 14.439.356 63.9 63.9 0 0 0 13.906-4.247c1.724-.721 3.1-1.34 4.06-1.768a11.654 11.654 0 0 1 1.5-.627" class="prefix__cls-1" transform="translate(-43.956 462.018)"/>
            <path id="prefix__path208" d="M152.2-340.78a1.954 1.954 0 0 1-.39.285l-1.165.746a21.46 21.46 0 0 1-1.894 1.1c-.755.4-1.6.89-2.586 1.317l-1.536.705c-.536.241-1.113.444-1.7.681-1.17.49-2.464.884-3.818 1.325a57.569 57.569 0 0 1-9.06 1.889 57.5 57.5 0 0 1-9.254.278c-1.42-.113-2.77-.194-4.022-.4-.626-.092-1.235-.155-1.812-.264l-1.657-.328c-1.061-.184-1.995-.467-2.823-.677a21.479 21.479 0 0 1-2.1-.629l-1.308-.453a1.9 1.9 0 0 1-.445-.187 1.97 1.97 0 0 1 .475.1l1.33.37c.573.174 1.277.374 2.11.551s1.763.444 2.822.608l1.651.3c.575.1 1.181.154 1.8.237 1.244.186 2.587.252 4 .353a60.232 60.232 0 0 0 9.177-.312 60.289 60.289 0 0 0 9-1.839c1.346-.427 2.636-.8 3.8-1.275.586-.227 1.163-.42 1.7-.652l1.538-.674c.99-.4 1.839-.875 2.6-1.249s1.406-.726 1.923-1.028l1.207-.671a1.9 1.9 0 0 1 .438-.207" class="prefix__cls-1" transform="translate(-42.782 460.579)"/>
            <path id="prefix__path210" d="M164.259-312.385a8.167 8.167 0 0 1-1.14-.58l-3.093-1.734-10.56-6.085-.135-.079.03-.151 1.2-5.964 1.8-8.809c.293-1.35.525-2.641.793-3.849a13.789 13.789 0 0 1 1.127-3.263 6.553 6.553 0 0 1 3.631-3.324 4.138 4.138 0 0 1 1.343-.221 1.429 1.429 0 0 1 .47.051 6.3 6.3 0 0 0-1.754.337 6.511 6.511 0 0 0-3.4 3.3 13.837 13.837 0 0 0-1.046 3.2l-.748 3.843-1.765 8.815-1.215 5.96-.105-.229 10.478 6.224 3.03 1.843a8.163 8.163 0 0 1 1.063.71" class="prefix__cls-4" transform="translate(-57.36 462.514)"/>
            <path id="prefix__path212" d="M176.434-319.281a9.63 9.63 0 0 1-.07 2.341 35.869 35.869 0 0 1-1.008 5.561 35.987 35.987 0 0 1-1.861 5.338 9.545 9.545 0 0 1-1.091 2.071 15.726 15.726 0 0 1 .792-2.194 54.392 54.392 0 0 0 1.718-5.332 54.26 54.26 0 0 0 1.128-5.484 15.622 15.622 0 0 1 .392-2.3" class="prefix__cls-4" transform="translate(-65.236 453.238)"/>
            <path id="prefix__path214" d="M55.54-107.25l-.155 13.4s-13.677 4.35-13.948 6.823l25.981 1.234 1.1-20.876-12.978-.581" class="prefix__cls-5" transform="translate(-20.521 380.843)"/>
            <path id="prefix__path216" d="M74.216-88.054a1.061 1.061 0 0 1 .676 1.245 1.021 1.021 0 0 1-1.229.681 1.119 1.119 0 0 1-.709-1.322 1.058 1.058 0 0 1 1.357-.566" class="prefix__cls-2" transform="translate(-31.265 374.308)"/>
            <path id="prefix__path218" d="M67.416-75.966l.028-2.108-24.921-.4s-1.181.448-1.089 1.269l25.981 1.234" class="prefix__cls-2" transform="translate(-20.519 371.016)"/>
            <path id="prefix__path220" d="M61.986-87.179c0 .127.63.215 1.235.653.616.421.912.986 1.031.941.118-.019-.035-.787-.777-1.3s-1.511-.408-1.489-.291" class="prefix__cls-4" transform="translate(-27.537 374.024)"/>
            <path id="prefix__path222" d="M57.767-85.637c-.035.122.5.364.91.921.422.544.5 1.13.629 1.131.118.025.241-.713-.276-1.4s-1.254-.776-1.263-.655" class="prefix__cls-4" transform="translate(-26.096 373.479)"/>
            <path id="prefix__path224" d="M54.708-81.93c.114.032.321-.594.028-1.3s-.873-1.015-.932-.912c-.077.1.291.492.522 1.078s.256 1.117.381 1.136" class="prefix__cls-4" transform="translate(-24.74 372.961)"/>
            <path id="prefix__path226" d="M62.553-91.968c.048.118.638-.029 1.353.052s1.263.336 1.334.23c.077-.089-.445-.583-1.288-.669s-1.457.284-1.4.387" class="prefix__cls-4" transform="translate(-27.73 375.762)"/>
            <path id="prefix__path228" fill="#ba2c42" d="M82.172-100.1l.106-2.015h.005l-.111 2.015" transform="translate(-34.43 379.088)"/>
            <path id="prefix__path230" fill="#20353d" d="M75.538-100.34l-12.774-.49.031-2.389 12.857.73-.106 2.015-.008.133" transform="translate(-27.803 379.467)"/>
            <path id="prefix__path232" d="M62.678-96.871a2.45 2.45 0 0 0 1.3.055 5.91 5.91 0 0 0 1.382-.353 6.264 6.264 0 0 0 .766-.361 1.628 1.628 0 0 0 .408-.287.554.554 0 0 0 .09-.673.7.7 0 0 0-.542-.316 1.692 1.692 0 0 0-.491.043 4.712 4.712 0 0 0-.822.24 4.586 4.586 0 0 0-1.237.731c-.629.529-.858.994-.815 1.02.056.045.368-.339 1-.77a5.178 5.178 0 0 1 1.192-.6 4.767 4.767 0 0 1 .758-.194c.279-.06.513-.05.578.076l-.036.145a1.279 1.279 0 0 1-.3.209 6.7 6.7 0 0 1-.706.36 7.152 7.152 0 0 1-1.281.423 8.838 8.838 0 0 0-1.246.253" class="prefix__cls-4" transform="translate(-27.774 377.961)"/>
            <path id="prefix__path234" d="M62.1-97.744a2.075 2.075 0 0 0 .4-1.241 4.225 4.225 0 0 0-.11-1.432 4.214 4.214 0 0 0-.294-.805 1.073 1.073 0 0 0-.8-.7.606.606 0 0 0-.561.336 1.762 1.762 0 0 0-.156.471 2.878 2.878 0 0 0-.043.876 2.991 2.991 0 0 0 .492 1.371c.476.7 1 .874 1.01.832.045-.062-.386-.329-.743-.993a3 3 0 0 1-.354-1.242 2.7 2.7 0 0 1 .06-.751c.053-.274.168-.493.27-.458.13 0 .339.222.435.447a4.277 4.277 0 0 1 .288.722A4.649 4.649 0 0 1 62.19-99c0 .764-.158 1.233-.09 1.255" class="prefix__cls-4" transform="translate(-27.039 379.023)"/>
            <path id="prefix__path236" d="M109.018-263.81s-40.574-17.019-53.139-17.748c-7.88-.457-13.839 4.6-12.768 12.758.536 4.079 11.75 51.82 11.75 51.82l17.1-7.814-8.214-33 33.33 16.2 11.939-22.216" class="prefix__cls-4" transform="translate(-21.05 440.368)"/>
            <path id="prefix__path238" d="M66.73-258.157c-.132.113 1.216 1.846 2.626 4.139s2.368 4.268 2.528 4.2a12.979 12.979 0 0 0-2.02-4.514 13.008 13.008 0 0 0-3.133-3.826" class="prefix__cls-5" transform="translate(-29.154 432.37)"/>
            <path id="prefix__path240" d="M61.689-255.28c-.085.15 1.965 1.45 4.365 3.221s4.26 3.331 4.377 3.205a17.015 17.015 0 0 0-4.024-3.686 17.029 17.029 0 0 0-4.718-2.74" class="prefix__cls-5" transform="translate(-27.435 431.39)"/>
            <path id="prefix__path242" d="M145.818-244.354s-5.106 6.574-9.972 8.372c-6.115 2.261-51.33 23.593-51.33 23.593s-8.2 60.926-7.551 58.383l-18.924-.456 2.059-56.117c.247-7.19 6-15.437 12.192-19.107l41.867-24.908 31.66 10.24" class="prefix__cls-4" transform="translate(-26.19 431.152)"/>
            <path id="prefix__path244" d="M60.6-198.789a3.735 3.735 0 0 0 .077-.769l.115-2.207a74.283 74.283 0 0 1 .749-8.068 27.824 27.824 0 0 1 4.088-11.124 21.106 21.106 0 0 1 4.864-5.024 57.987 57.987 0 0 1 6.421-4.062c9.106-5.218 16.966-10.536 22.776-14.184 2.894-1.842 5.249-3.311 6.885-4.313l1.88-1.16a3.724 3.724 0 0 0 .637-.436 3.7 3.7 0 0 0-.7.332c-.447.238-1.106.587-1.939 1.064-1.674.941-4.065 2.358-6.991 4.156-5.871 3.559-13.771 8.822-22.848 14.023a56.964 56.964 0 0 0-6.48 4.116 21.47 21.47 0 0 0-4.966 5.182 27.753 27.753 0 0 0-4.046 11.363 63.055 63.055 0 0 0-.564 8.126v2.211a3.77 3.77 0 0 0 .043.772" class="prefix__cls-5" transform="translate(-27.049 429.631)"/>
            <path id="prefix__path246" d="M164.031-235.628a15.873 15.873 0 0 0-1.158-1.559 11.475 11.475 0 0 1-1.789-4.2 11.488 11.488 0 0 1 .017-4.568 15.829 15.829 0 0 0 .462-1.886 4.138 4.138 0 0 0-.87 1.783 9.977 9.977 0 0 0-.193 4.79 9.981 9.981 0 0 0 2.038 4.338 4.119 4.119 0 0 0 1.494 1.3" class="prefix__cls-5" transform="translate(-61.105 428.846)"/>
            <path id="prefix__path248" d="M68.592-153.347a1.25 1.25 0 0 0 .059-.311l.114-.92.378-3.547 1.284-13.058.858-9.02c.308-3.239.638-6.709.891-10.36.283-3.647.629-7.471 1.294-11.384a46.887 46.887 0 0 1 3.476-11.715 39.265 39.265 0 0 1 6.871-10.073 61.632 61.632 0 0 1 8.569-7.55 173.489 173.489 0 0 1 16.469-10.282c4.8-2.758 8.63-5.111 11.175-6.884 1.279-.876 2.248-1.591 2.894-2.091l.729-.574a1.255 1.255 0 0 0 .236-.212 1.259 1.259 0 0 0-.273.163l-.763.526c-.668.466-1.656 1.15-2.952 2-2.58 1.708-6.427 4-11.255 6.709a165.589 165.589 0 0 0-16.586 10.206 61.508 61.508 0 0 0-8.671 7.6 39.6 39.6 0 0 0-6.983 10.22 47.129 47.129 0 0 0-3.511 11.867c-.663 3.946-1 7.789-1.265 11.441-.24 3.655-.544 7.119-.837 10.361l-.784 9.022-1.095 13.072c-.114 1.51-.2 2.7-.268 3.557l-.054.927a1.254 1.254 0 0 0 0 .317" class="prefix__cls-5" transform="translate(-29.79 430.037)"/>
            <path id="prefix__path250" d="M123.385-403.868a7.4 7.4 0 0 0-8.458-4.55 9.144 9.144 0 0 1-2.357.508 16.989 16.989 0 0 1-2.861-.756 4.3 4.3 0 0 0-4.845 3.141 5.85 5.85 0 0 0-4.826.958 3.794 3.794 0 0 0-1.127 4.549c.344.64.9 1.149 1.218 1.805.516 1.082.281 2.38.644 3.522a4.75 4.75 0 0 0 4.092 2.939 13.966 13.966 0 0 0 5.241-.753" class="prefix__cls-4" transform="translate(-40.023 483.782)"/>
            <path id="prefix__path252" d="M118.344-365.9c-.222-1.7-.369-2.891-.369-2.891s-5.657-.039-7.942-7.048c-1.137-3.485-1.889-9.378-2.349-14.219a7.688 7.688 0 0 1 7.25-8.41l15.032-.787.323 2.329 3.961 28.9a8.025 8.025 0 0 1-6.909 9.047 8.029 8.029 0 0 1-9-6.923" class="prefix__cls-11" transform="translate(-43.129 480.546)"/>
            <path id="prefix__path254" d="M110.933-379.506a.933.933 0 0 0 1.037.789.892.892 0 0 0 .818-.983.933.933 0 0 0-1.036-.789.893.893 0 0 0-.819.983" class="prefix__cls-4" transform="translate(-44.247 474.139)"/>
            <path id="prefix__path256" d="M110.358-381.636c.134.1.75-.526 1.743-.681s1.8.226 1.887.087c.044-.062-.107-.261-.46-.442a2.565 2.565 0 0 0-1.535-.218 2.463 2.463 0 0 0-1.363.692c-.268.283-.336.517-.272.562" class="prefix__cls-4" transform="translate(-44.046 474.968)"/>
            <path id="prefix__path258" d="M125.255-381.936a.935.935 0 0 0 1.037.789.893.893 0 0 0 .818-.983.935.935 0 0 0-1.036-.789.894.894 0 0 0-.819.983" class="prefix__cls-4" transform="translate(-49.138 474.969)"/>
            <path id="prefix__path260" d="M125.216-383.709c.133.1.751-.526 1.743-.681s1.8.226 1.887.087c.044-.062-.105-.261-.461-.441a2.556 2.556 0 0 0-1.534-.219 2.459 2.459 0 0 0-1.363.692c-.267.283-.336.516-.272.562" class="prefix__cls-4" transform="translate(-49.119 475.676)"/>
            <path id="prefix__path262" d="M120.158-375.322a6.641 6.641 0 0 0-1.658-.034c-.258.014-.506 0-.576-.165a1.3 1.3 0 0 1 .05-.777l.443-2.05a33.568 33.568 0 0 0 .881-5.314 33.6 33.6 0 0 0-1.307 5.232l-.409 2.055a1.484 1.484 0 0 0 .026 1.016.644.644 0 0 0 .476.3 1.793 1.793 0 0 0 .44-.008 6.541 6.541 0 0 0 1.634-.258" class="prefix__cls-4" transform="translate(-46.493 475.22)"/>
            <path id="prefix__path264" d="M123.328-355.126a18.518 18.518 0 0 0 9.222-4.1s-1.552 5.311-8.855 5.782l-.367-1.682" class="prefix__cls-12" transform="translate(-48.482 466.877)"/>
            <path id="prefix__path266" d="M124.712-370.661c-.163.017.006 1.094-.794 2s-1.966.976-1.95 1.127c0 .069.289.169.776.1a2.711 2.711 0 0 0 1.638-.88 2.364 2.364 0 0 0 .6-1.67c-.031-.457-.193-.705-.266-.687" class="prefix__cls-4" transform="translate(-48.017 470.782)"/>
            <path id="prefix__path268" d="M123.893-389.456c.141.255 1.111-.032 2.3-.076 1.186-.069 2.179.123 2.3-.144.05-.126-.154-.355-.575-.555a3.822 3.822 0 0 0-1.769-.32 3.821 3.821 0 0 0-1.73.487c-.4.24-.582.487-.519.608" class="prefix__cls-4" transform="translate(-48.671 477.574)"/>
            <path id="prefix__path270" d="M110.209-386.11c.21.2.856-.145 1.677-.287.815-.17 1.542-.09 1.665-.35.052-.127-.094-.335-.432-.5a2.352 2.352 0 0 0-1.425-.152 2.347 2.347 0 0 0-1.268.667c-.254.277-.312.524-.218.623" class="prefix__cls-4" transform="translate(-43.988 476.512)"/>
            <path id="prefix__path272" d="M106.217-394.547a10.348 10.348 0 0 0 8.547-1.713c3-2 6.631-3.256 7.535-2.717s1.5 3.815 4.789 4.377c0 0 .58 6.319 3.06 5.778 1.768-.386.734-7.359-.006-11.335a3.471 3.471 0 0 0-3.282-2.826l-4.63-.179-5.781 1.613-6.2 1.689-4.714 1.955.68 3.357" class="prefix__cls-4" transform="translate(-42.407 481.878)"/>
            <path id="prefix__path274" d="M142.064-385.551c.095-.066 3.93-2.084 4.642 2.1s-3.641 4.036-3.669 3.917-.973-6.021-.973-6.021" class="prefix__cls-11" transform="translate(-54.879 476.051)"/>
            <path id="prefix__path276" d="M144.964-380.656c.017-.017.082.039.215.075a.743.743 0 0 0 .547-.082 1.831 1.831 0 0 0 .56-1.761 2.427 2.427 0 0 0-.381-1.009.854.854 0 0 0-.644-.467.377.377 0 0 0-.4.273c-.036.126 0 .206-.017.216s-.1-.054-.1-.234a.471.471 0 0 1 .121-.29.551.551 0 0 1 .385-.175 1.037 1.037 0 0 1 .871.519 2.509 2.509 0 0 1 .451 1.125 1.921 1.921 0 0 1-.758 1.989.79.79 0 0 1-.686 0c-.148-.081-.185-.171-.172-.181" class="prefix__cls-12" transform="translate(-55.796 475.374)"/>
            <path id="prefix__path278" d="M109.623-406.212c.037-.018.146.221.443.563a3.63 3.63 0 0 0 1.583 1.016 5.264 5.264 0 0 0 2.789.122 24.988 24.988 0 0 0 3.378-1.074 9.239 9.239 0 0 1 3.588-.639 3.942 3.942 0 0 1 2.725 1.224 2.908 2.908 0 0 1 .837 1.833 1.225 1.225 0 0 1-.126.728c-.041-.007.015-.265-.052-.71a2.917 2.917 0 0 0-.891-1.625 3.693 3.693 0 0 0-2.518-1.031 9.323 9.323 0 0 0-3.414.651 22.132 22.132 0 0 1-3.452 1.056 5.369 5.369 0 0 1-2.977-.234 3.481 3.481 0 0 1-1.611-1.209 1.345 1.345 0 0 1-.3-.673" class="prefix__cls-5" transform="translate(-43.801 482.929)"/>
            <path id="prefix__path280" d="M120.923-400.886c-.034.027-.214-.222-.649-.523a3.9 3.9 0 0 0-2.108-.624 6.81 6.81 0 0 0-3.2.781 33.485 33.485 0 0 1-3.808 1.781 9.48 9.48 0 0 1-7.5-.821 8.235 8.235 0 0 1-1.848-1.416 2.539 2.539 0 0 1-.529-.669 15.375 15.375 0 0 0 2.531 1.8 9.54 9.54 0 0 0 7.207.67 39.065 39.065 0 0 0 3.774-1.73 6.864 6.864 0 0 1 3.391-.72 3.808 3.808 0 0 1 2.2.8 1.6 1.6 0 0 1 .542.666" class="prefix__cls-5" transform="translate(-40.953 481.612)"/>
            <path id="prefix__path282" d="M97.3-300.773l-20.388-17.381-6.724 1.521S77.274-301.9 82.4-296.5c0 0 5.068 6.785 13.424 3.852s1.477-8.122 1.477-8.122" class="prefix__cls-11" transform="translate(-30.338 452.853)"/>
            <path id="prefix__path284" d="M72.469-347.212H63.8a2.2 2.2 0 0 0-2.011 2.762l8.715 16.975a1.973 1.973 0 0 0 1.756 1.072l10.566-.022a1.514 1.514 0 0 0 1.151-2.237l-8.409-16.619a3.454 3.454 0 0 0-3.1-1.931" class="prefix__cls-5" transform="translate(-27.435 462.775)"/>
            <path id="prefix__path286" d="M71.924-345.661h-8.667a1.45 1.45 0 0 0-1.294 2.109l8.508 16.606a1.973 1.973 0 0 0 1.755 1.072h10.446a.853.853 0 0 0 .763-1.237l-8.41-16.619a3.452 3.452 0 0 0-3.1-1.931" class="prefix__cls-4" transform="translate(-27.474 462.245)"/>
            <path id="prefix__path288" d="M72.735-335.1l-5.274 2.1-1.13 4.25 2.54 6.327 9.321 1.356-2.73-2.79.351-2.429s2.6-.816 2.665-1.214-.322-1.732-.722-1.8a19.952 19.952 0 0 0-3.126.952s3.229-2.556 3.138-2.966-.437-1.46-1.081-1.577-5.853 2.338-5.853 2.338l-.846 1.928-.738-3.075s4.629-1.3 3.485-3.4" class="prefix__cls-11" transform="translate(-29.021 458.641)"/>
            <path id="prefix__path290" d="M76.958-321.662c-.031.009-.13-.184-.179-.526a2.815 2.815 0 0 1 .158-1.331 2.823 2.823 0 0 1 .747-1.113c.26-.228.46-.311.477-.283a5.892 5.892 0 0 0-.969 1.49 5.894 5.894 0 0 0-.235 1.763" class="prefix__cls-12" transform="translate(-32.581 455.164)"/>
            <path id="prefix__path292" d="M73.255-324.351a11.776 11.776 0 0 0 .209-1.382 6.013 6.013 0 0 1 .265-1.531 2.271 2.271 0 0 1 .486-.816 2.393 2.393 0 0 1 .862-.542c1.261-.457 2.4-.828 3.228-1.1a7.333 7.333 0 0 1 1.362-.375 7.251 7.251 0 0 1-1.3.557c-.81.313-1.953.718-3.19 1.167a2.191 2.191 0 0 0-.773.476 2.054 2.054 0 0 0-.441.717 6.667 6.667 0 0 0-.31 1.466 2.828 2.828 0 0 1-.4 1.36" class="prefix__cls-12" transform="translate(-31.384 456.932)"/>
            <path id="prefix__path294" d="M71.395-323.875c-.074-.012-.059-.478.034-1.04s.228-1.008.3-1 .059.478-.034 1.041-.228 1.007-.3.995" class="prefix__cls-12" transform="translate(-30.734 455.502)"/>
            <path id="prefix__path296" d="M71.2-341.369a1.1 1.1 0 0 0 1.1 1.1 1.1 1.1 0 0 0 1.1-1.1 1.1 1.1 0 0 0-1.1-1.1 1.1 1.1 0 0 0-1.1 1.1" class="prefix__cls-6" transform="translate(-30.685 461.157)"/>
        </g>
    </g>
</svg>
