<svg xmlns="http://www.w3.org/2000/svg" width="18" height="14.611" viewBox="0 0 18 14.611">
    <path id="prefix__target_1_" d="M16.437 55.505l1.457-1.943a.527.527 0 0 0-.422-.844h-2.824a.527.527 0 0 0-.422.211l-.055.071a7.305 7.305 0 1 0 0 5l.056.074a.527.527 0 0 0 .422.211h2.824a.527.527 0 0 0 .422-.844zm-3.051 1.455a6.251 6.251 0 1 1 0-2.91l-.569.759-.127.169h-.366a5.046 5.046 0 1 0 0 1.055h.366l.127.169zm-3.344-1.982a2.787 2.787 0 1 0 0 1.055h1.22a3.991 3.991 0 1 1 0-1.055zm-2.737 1.055h1.65a1.732 1.732 0 1 1 0-1.055h-1.65a.527.527 0 0 0 0 1.055zm8.051-.211l1.062 1.416h-1.506l-1.3-1.732 1.3-1.732h1.506l-1.062 1.416a.527.527 0 0 0 0 .632z" data-name="target (1)" transform="translate(0 -48.2)" style="fill:#444f5e"/>
</svg>
