<svg xmlns="http://www.w3.org/2000/svg" width="27.96" height="20.451" viewBox="0 0 27.96 20.451">
    <path id="prefix__bed_4_" d="M.41 12.731H1.7v5.5a.428.428 0 0 0 .411.409v1.8a.376.376 0 0 0 .383.4h5.825a.4.4 0 0 0 .357-.189l1.144-1.986h8.315l1.144 1.986a.4.4 0 0 0 .357.189h5.829a.377.377 0 0 0 .383-.4v-1.8a.428.428 0 0 0 .411-.409v-5.5h1.286a.394.394 0 0 0 .409-.44L26.939 3A2.924 2.924 0 0 0 24.02.39H3.936A2.926 2.926 0 0 0 1.017 3L0 12.3a.384.384 0 0 0 .1.307.4.4 0 0 0 .306.124zm12.452-4.172H5.751v-.976A1.473 1.473 0 0 1 7.21 6.091h4.144a1.514 1.514 0 0 1 1.507 1.493zm-7.545.823h19a1.094 1.094 0 0 1 1.118 1.075v7.387H2.519v-7.387a1.094 1.094 0 0 1 1.118-1.076zm16.889-.823h-7.111v-.976A1.514 1.514 0 0 1 16.6 6.091h4.144a1.474 1.474 0 0 1 1.46 1.493zM8.081 20.018H2.93v-1.352h5.943zm16.946 0h-5.151l-.793-1.352h5.943zM1.835 3.079a2.1 2.1 0 0 1 2.1-1.866H24.02a2.1 2.1 0 0 1 2.1 1.866l.967 8.83h-.827v-1.452a1.918 1.918 0 0 0-1.941-1.9h-1.291v-.974a2.3 2.3 0 0 0-2.282-2.315H16.6a2.338 2.338 0 0 0-2.33 2.315v.976h-.588v-.976a2.338 2.338 0 0 0-2.33-2.315H7.21a2.3 2.3 0 0 0-2.282 2.315v.976H3.637a1.917 1.917 0 0 0-1.941 1.9v1.452H.869zm0 0" data-name="bed (4)" transform="translate(.002 -.39)" style="fill:#444f5e"/>
</svg>
