<svg xmlns="http://www.w3.org/2000/svg" width="26" height="25.133" viewBox="0 0 26 25.133">
    <path id="prefix__calendar_2_" d="M41.567 26.167H36.8v-.433a1.733 1.733 0 1 0-3.467 0v.433H32.9v-.433a1.733 1.733 0 1 0-3.467 0v.433H29v-.433a1.733 1.733 0 1 0-3.467 0v.433H25.1v-.433a1.733 1.733 0 1 0-3.467 0v.433h-5.2A.435.435 0 0 0 16 26.6v22.1a.435.435 0 0 0 .433.433h25.134A.435.435 0 0 0 42 48.7V26.6a.435.435 0 0 0-.433-.433zm-7.367-.434a.867.867 0 0 1 1.733 0v.433H34.2zm-3.9 0a.867.867 0 1 1 1.733 0v.433H30.3zm-3.9 0a.867.867 0 1 1 1.733 0v.433H26.4zm-3.9 0a.867.867 0 0 1 1.733 0v.433H22.5zm-.867 1.3v.867a.433.433 0 1 0 .867 0v-.867h3.033v.867a.433.433 0 0 0 .867 0v-.867h3.033v.867a.433.433 0 0 0 .867 0v-.867h3.033v.867a.433.433 0 1 0 .867 0v-.867h6.933v3.033H16.867v-3.033zm19.5 21.233H16.867v-1.733H34.2a7.806 7.806 0 0 0 6.933-4.23zm-12.567-5.2h-2.6v-2.6h2.6zm-3.467 0H22.5v-2.6h2.6zm-3.467 0h-2.6v-2.6h2.6zm.867-9.533h2.6v2.6H22.5zm3.467 0h2.6v2.6h-2.6zm3.467 0h2.6v2.6h-2.6zm3.467 0h2.6v2.6h-2.6zm3.467 0h2.6v2.6h-2.6zM38.1 39.6h-1.733V37h2.6v2.475a3.133 3.133 0 0 1-.867.125zm-8.667 0V37h2.6v2.6zm-10.4-2.6h2.6v2.6h-2.6zm3.467 0h2.6v2.6h-2.6zm3.467 0h2.6v2.6h-2.6zm-4.333-.867h-2.6v-2.6h2.6zm7.8 4.333h2.6v2.6h-2.6zM32.9 37h2.6v2.6h-2.6zm3.467 5.633v-2.166H38.1a3.9 3.9 0 0 0 3.028-1.446 6.947 6.947 0 0 1-6.159 6.6 3.9 3.9 0 0 0 1.398-2.988zm3.467-3.58V33.1a.435.435 0 0 0-.433-.433H18.6a.435.435 0 0 0-.433.433v10.4a.435.435 0 0 0 .433.433h13.867a.435.435 0 0 0 .433-.433v-3.033h2.6v2.167a3.035 3.035 0 0 1-3.033 3.033h-15.6V30.933h24.266v5.633a3.029 3.029 0 0 1-1.3 2.487z" data-name="calendar (2)" transform="translate(-16 -24)" style="fill:#444f5e"/>
</svg>
