<svg xmlns="http://www.w3.org/2000/svg" width="22" height="22" viewBox="0 0 22 22">
    <defs>
        <style>
            .prefix__cls-1{fill:#444f5e}
        </style>
    </defs>
    <g id="prefix__question_1_" data-name="question (1)" transform="translate(-.003)">
        <g id="prefix__Group_4" data-name="Group 4" transform="translate(.003)">
            <g id="prefix__Group_3" data-name="Group 3">
                <path id="prefix__Path_33" d="M21.916 19.922l-1.51-4.4a10.748 10.748 0 1 0-9.645 5.989h.017A10.791 10.791 0 0 0 15.53 20.4l4.4 1.51a1.579 1.579 0 0 0 .514.086 1.569 1.569 0 0 0 1.477-2.077zm-1.3.695a.252.252 0 0 1-.271.063l-4.658-1.6a.652.652 0 0 0-.517.04 9.45 9.45 0 1 1 3.948-3.948.652.652 0 0 0-.04.517l1.6 4.658a.252.252 0 0 1-.058.27z" class="prefix__cls-1" data-name="Path 33" transform="translate(-.003)"/>
            </g>
        </g>
        <g id="prefix__Group_6" data-name="Group 6" transform="translate(10.002 15.586)">
            <g id="prefix__Group_5" data-name="Group 5">
                <path id="prefix__Path_34" d="M233.372 362.748a.652.652 0 1 0 .652.652.66.66 0 0 0-.652-.652z" class="prefix__cls-1" data-name="Path 34" transform="translate(-232.719 -362.748)"/>
            </g>
        </g>
        <g id="prefix__Group_8" data-name="Group 8" transform="translate(7.41 5.486)">
            <g id="prefix__Group_7" data-name="Group 7">
                <path id="prefix__Path_35" d="M175.64 127.674a3.248 3.248 0 0 0-3.245 3.245.652.652 0 0 0 1.3 0 1.94 1.94 0 1 1 1.94 1.94.652.652 0 0 0-.652.652v2.66a.652.652 0 1 0 1.3 0V134.1a3.245 3.245 0 0 0-.652-6.424z" class="prefix__cls-1" data-name="Path 35" transform="translate(-172.395 -127.674)"/>
            </g>
        </g>
    </g>
</svg>
