<svg xmlns="http://www.w3.org/2000/svg" width="47.543" height="47.521" viewBox="0 0 47.543 47.521"><defs><style>.a{fill:#1ba0ff;}.b{fill:#414040;}.c{fill:#fff;}</style></defs><path class="a" d="M196.5-1447.382h6.676l1.946-1.167.5-2.155v-8.885l-1.566-1.571-.885-.435h-9.513l-1.436.888-.82,9.616h2.256Z" transform="translate(-158.558 1462.106)"/><path class="b" d="M46.8,2.015c-.936-.02-.674,4.849-.674,5.234v4.526a2,2,0,0,1-2,2H38.5a4.263,4.263,0,0,0-4.2-3.55h-.561V3.4a2,2,0,0,1,2-2h8.379a2.005,2.005,0,0,1,2,2c0,.9,1.3,8.094,1.392,0A3.4,3.4,0,0,0,44.11,0H35.746a3.4,3.4,0,0,0-3.4,3.4v6.832H13.131a4.261,4.261,0,0,0-4.256,4.194L7.549,20.847a4.8,4.8,0,0,0-3.308-1.2C1.863,19.651,0,21.081,0,22.906c0,1.731,1.677,3.1,3.879,3.242A5.9,5.9,0,0,0,2.723,29.66v4.825A2.316,2.316,0,0,0,1.2,36.657v1.269A2.316,2.316,0,0,0,2.723,40.1v4.493A2.932,2.932,0,0,0,5.652,47.52H7.26a2.932,2.932,0,0,0,2.929-2.929V40.238h1.923a.7.7,0,0,0,0-1.392h-8.6a.921.921,0,0,1-.92-.92V36.657a.921.921,0,0,1,.92-.92h40.5a.921.921,0,0,1,.92.92v1.269a.921.921,0,0,1-.92.92H16.286a.7.7,0,0,0,0,1.392H37.335v4.354a2.932,2.932,0,0,0,2.929,2.929h1.608A2.932,2.932,0,0,0,44.8,44.592V40.1a2.316,2.316,0,0,0,1.52-2.172V36.657a2.316,2.316,0,0,0-1.52-2.172V29.66a5.9,5.9,0,0,0-1.156-3.513c2.2-.138,3.876-1.512,3.876-3.242,0-1.825-1.863-3.254-4.241-3.254a4.8,4.8,0,0,0-3.3,1.193L38.8,15.169h5.323a3.4,3.4,0,0,0,3.4-3.4V7.248C47.52,6.864,47.738,2.035,46.8,2.015ZM4.115,40.238H8.8v4.354a1.538,1.538,0,0,1-1.54,1.536H5.652a1.538,1.538,0,0,1-1.537-1.537Zm39.293,4.354a1.538,1.538,0,0,1-1.537,1.537H40.264a1.538,1.538,0,0,1-1.537-1.537V40.238h4.681ZM37.386,15.2l.856,4.147L33.8,23.729H27.358L35.89,15.2h1.5Zm-10.471,0h7.006l-8.532,8.532H18.383Zm-10.5,8.532H12.327L20.859,15.2h4.087ZM13.131,11.619H34.3A2.87,2.87,0,0,1,37.088,13.8H10.348a2.87,2.87,0,0,1,2.783-2.181ZM10.137,15.2H18.89l-8.532,8.532h-1.7c-.094,0-.187,0-.28.007ZM1.392,22.906c0-1.009,1.3-1.862,2.849-1.862S7.09,21.9,7.09,22.906s-1.3,1.862-2.849,1.862S1.392,23.915,1.392,22.906Zm2.723,11.44V30.429H7.438a4.6,4.6,0,0,1,4.539,3.916Zm39.293,0H35.547a4.6,4.6,0,0,1,4.539-3.916h3.323Zm-.129-13.3c1.544,0,2.849.853,2.849,1.862s-1.3,1.862-2.849,1.862a3.876,3.876,0,0,1-1.665-.363c-.049-.026-.1-.052-.149-.076a1.731,1.731,0,0,1-1.035-1.423c0-1.008,1.305-1.864,2.849-1.864Zm-2.563,4.472a4.743,4.743,0,0,1,2.649,3.522H40.086a5.988,5.988,0,0,0-5.942,5.308H13.38A5.988,5.988,0,0,0,7.438,29.04H4.159a4.6,4.6,0,0,1,4.5-3.916h30.21a4.511,4.511,0,0,1,1.847.394Zm-1.567-1.779c-.093,0-.186-.007-.28-.007H35.782l2.8-2.76Z"/><path class="c" d="M409.31,43.452a2.134,2.134,0,0,0-2.171-2.089h-1.486a.638.638,0,0,0-.638.638v5.586a.638.638,0,0,0,1.275,0V45.844l1.9,2.163a.638.638,0,0,0,.957-.842l-1.484-1.687A2.11,2.11,0,0,0,409.31,43.452Zm-2.171.814h-.84V42.635h.845a.818.818,0,1,1,0,1.628Z" transform="translate(-366.587 -37.847)"/><path class="b" d="M197.89,329.847H187.346a.638.638,0,0,0,0,1.275H197.89a.638.638,0,0,0,0-1.275Z" transform="translate(-168.857 -299.155)"/></svg>