<svg xmlns="http://www.w3.org/2000/svg" width="19.275" height="16" viewBox="0 0 19.275 16">
    <defs>
        <style>
            .prefix__cls-2{fill:#c91d0f}.prefix__cls-5{fill:#fff}
        </style>
    </defs>
    <g id="prefix__underground_1_" data-name="underground (1)" transform="translate(0 -43.5)">
        <path id="prefix__Path_1070" d="M58.829 51a7.735 7.735 0 1 0 7.836 7.729A7.785 7.785 0 0 0 58.829 51zm0 12.723a4.989 4.989 0 1 1 5.054-4.994 5.02 5.02 0 0 1-5.054 4.994z" data-name="Path 1070" transform="translate(-49.194 -7.234)" style="fill:#e42111"/>
        <g id="prefix__Group_119" data-name="Group 119" transform="translate(4.47 43.766)">
            <path id="prefix__Path_1071" d="M99.012 123.822a4.3 4.3 0 0 0-.531-.033 5.182 5.182 0 0 0 0 10.315 4.284 4.284 0 0 0 .531-.033 5.24 5.24 0 0 1 0-10.249z" class="prefix__cls-2" data-name="Path 1071" transform="translate(-93.805 -121.212)"/>
            <path id="prefix__Path_1072" d="M241.449 51q-.268 0-.531.021a7.786 7.786 0 0 1 0 15.427q.263.02.531.021a7.75 7.75 0 0 0 0-15.469z" class="prefix__cls-2" data-name="Path 1072" transform="translate(-235.71 -51)"/>
        </g>
        <path id="prefix__Rectangle_112" d="M0 0H18.744V3.186H0z" data-name="Rectangle 112" transform="translate(.266 49.907)" style="fill:#223387"/>
        <path id="prefix__Rectangle_113" d="M0 0H1.062V3.186H0z" data-name="Rectangle 113" transform="translate(17.948 49.907)" style="fill:#1e2c75"/>
        <g id="prefix__Group_120" data-name="Group 120" transform="translate(.69 50.503)">
            <path id="prefix__Path_1073" d="M20.707 227.847a.265.265 0 0 0-.266.266v1.2h-.411v-1.2a.266.266 0 1 0-.531 0v1.345a.381.381 0 0 0 .378.383h.716a.381.381 0 0 0 .378-.383v-1.345a.265.265 0 0 0-.264-.266z" class="prefix__cls-5" data-name="Path 1073" transform="translate(-19.5 -227.847)"/>
            <path id="prefix__Path_1074" d="M366.118 227.847a.265.265 0 0 0-.266.266v1.2h-.411v-1.2a.266.266 0 1 0-.531 0v1.345a.381.381 0 0 0 .378.383h.716a.381.381 0 0 0 .378-.383v-1.345a.265.265 0 0 0-.264-.266z" class="prefix__cls-5" data-name="Path 1074" transform="translate(-351.762 -227.847)"/>
            <path id="prefix__Path_1075" d="M66.414 227.847a.265.265 0 0 0-.266.266v.56l-.453-.7a.266.266 0 0 0-.489.144v1.462a.266.266 0 1 0 .531 0v-.56l.453.7a.266.266 0 0 0 .489-.144v-1.462a.265.265 0 0 0-.265-.266z" class="prefix__cls-5" data-name="Path 1075" transform="translate(-63.589 -227.847)"/>
            <path id="prefix__Path_1076" d="M409.111 227.847a.265.265 0 0 0-.266.266v.56l-.453-.7a.266.266 0 0 0-.489.144v1.462a.266.266 0 1 0 .531 0v-.56l.453.7a.266.266 0 0 0 .489-.144v-1.462a.266.266 0 0 0-.265-.266z" class="prefix__cls-5" data-name="Path 1076" transform="translate(-393.004 -227.847)"/>
            <path id="prefix__Path_1077" d="M108.891 227.847h-.31a.381.381 0 0 0-.38.38v1.233a.381.381 0 0 0 .38.38h.31a.783.783 0 0 0 .782-.782v-.429a.783.783 0 0 0-.782-.782zm.251 1.211a.252.252 0 0 1-.251.251h-.159v-.931h.16a.252.252 0 0 1 .251.251v.429z" class="prefix__cls-5" data-name="Path 1077" transform="translate(-104.824 -227.847)"/>
            <path id="prefix__Path_1078" d="M152.4 228.378a.266.266 0 1 0 0-.531h-.829a.381.381 0 0 0-.378.383v1.228a.381.381 0 0 0 .378.383h.829a.266.266 0 1 0 0-.531h-.676v-.216h.676a.266.266 0 1 0 0-.531h-.676v-.185z" class="prefix__cls-5" data-name="Path 1078" transform="translate(-146.18 -227.847)"/>
            <path id="prefix__Path_1079" d="M236.545 228.378h.594a.266.266 0 1 0 0-.531h-.594a.621.621 0 0 0-.613.627v.929a.438.438 0 0 0 .438.438h.6a.438.438 0 0 0 .438-.438v-.37a.438.438 0 0 0-.438-.438h-.5v-.121a.09.09 0 0 1 .075-.096zm.328.931h-.411v-.184h.411z" class="prefix__cls-5" data-name="Path 1079" transform="translate(-227.693 -227.847)"/>
            <path id="prefix__Path_1080" d="M322.763 227.847h-.218a.628.628 0 0 0-.628.628v.738a.628.628 0 0 0 .628.628h.218a.628.628 0 0 0 .628-.628v-.738a.628.628 0 0 0-.628-.628zm.1 1.366a.1.1 0 0 1-.1.1h-.218a.1.1 0 0 1-.1-.1v-.738a.1.1 0 0 1 .1-.1h.218a.1.1 0 0 1 .1.1v.738z" class="prefix__cls-5" data-name="Path 1080" transform="translate(-310.406 -227.847)"/>
            <path id="prefix__Path_1081" d="M451.588 227.847h-.31a.381.381 0 0 0-.38.38v1.233a.381.381 0 0 0 .38.38h.31a.783.783 0 0 0 .782-.782v-.429a.783.783 0 0 0-.782-.782zm.251 1.211a.252.252 0 0 1-.251.251h-.16v-.931h.16a.252.252 0 0 1 .251.251z" class="prefix__cls-5" data-name="Path 1081" transform="translate(-434.475 -227.847)"/>
            <path id="prefix__Path_1082" d="M195.54 229.352l-.29-.193a.67.67 0 0 0 .409-.616v-.029a.67.67 0 0 0-.669-.669h-.425a.379.379 0 0 0-.378.378v1.347a.266.266 0 0 0 .531 0v-.131l.529.352a.265.265 0 1 0 .294-.442zm-.823-.976h.273a.138.138 0 0 1 .138.138v.029a.138.138 0 0 1-.138.138h-.273z" class="prefix__cls-5" data-name="Path 1082" transform="translate(-187.536 -227.845)"/>
            <path id="prefix__Path_1083" d="M280.279 229.352l-.29-.193a.67.67 0 0 0 .409-.616v-.029a.67.67 0 0 0-.669-.669h-.429a.379.379 0 0 0-.378.378v1.347a.266.266 0 1 0 .531 0v-.131l.529.352a.266.266 0 0 0 .294-.442zm-.823-.976h.273a.138.138 0 0 1 .138.138v.029a.138.138 0 0 1-.138.138h-.273z" class="prefix__cls-5" data-name="Path 1083" transform="translate(-269.05 -227.845)"/>
        </g>
        <path id="prefix__Path_1084" d="M18.993 49.524h-1.6A8.008 8.008 0 0 0 9.634 43.5a7.911 7.911 0 0 0-4.953 1.72.282.282 0 0 0 .35.443 7.351 7.351 0 0 1 4.6-1.6 7.444 7.444 0 0 1 7.173 5.459h-2.291a5.263 5.263 0 0 0-9.753 0H2.469a7.436 7.436 0 0 1 1.623-2.976.282.282 0 1 0-.421-.376 8 8 0 0 0-1.787 3.352H.282a.282.282 0 0 0-.282.284v3.388a.282.282 0 0 0 .282.282h1.6A8 8 0 0 0 13.4 58.559a.282.282 0 0 0-.266-.5 7.438 7.438 0 0 1-10.665-4.583h2.295a5.258 5.258 0 0 0 9.746 0h2.3a7.474 7.474 0 0 1-2.5 3.808.282.282 0 0 0 .355.439 8.038 8.038 0 0 0 2.727-4.247h1.6a.282.282 0 0 0 .282-.282v-3.388a.282.282 0 0 0-.281-.282zm-9.359 6.671a4.707 4.707 0 0 1-4.254-2.719h8.513a4.716 4.716 0 0 1-4.259 2.719zm9.076-3.283H.565v-2.824h5.449a.282.282 0 0 0 0-.565h-.638a4.7 4.7 0 0 1 8.521 0h-6.65a.282.282 0 0 0 0 .565h11.464z" data-name="Path 1084"/>
    </g>
</svg>
