<svg xmlns="http://www.w3.org/2000/svg" viewBox="0 0 1301.8 426.6" enable-background="new 0 0 1301.8 426.6"><style>.st2{opacity:.14}.st2,.st3{fill:#1ba0ff}.st4{fill:none;stroke:#1ba0ff;stroke-miterlimit:10}</style><filter filterUnits="userSpaceOnUse" height="426.564" id="Union_2" width="1301.767" x="0" y="0"><feOffset dy="3"/><feGaussianBlur result="blur" stdDeviation="3"/><feFlood flood-color="#b0c1d8" flood-opacity=".506"/><feComposite in2="blur" operator="in"/><feComposite in="SourceGraphic"/></filter><g id="Слой_1"><g transform="translate(-12.58 -6.5)" filter="url(#Union_2)" id="Component_64_1"><path id="Union_2-2_1_" d="M1259.7 425c-1.2-.5-2.4-1-3.5-1.6-1.2-.5-2.4-1-3.5-1.6l-3.5-1.6 2-1 2-1c.7-.3 1.3-.7 2-1s1.3-.7 2-1c.6-.1 1.2-.2 1.7-.3l1.7-.3 1.8-.3c.6-.1 1.2-.2 1.7-.3l2.2-1.7c.7-.6 1.5-1.1 2.2-1.7s1.5-1.1 2.2-1.7l2.2-1.7c.1.3.3.6.4.8l.4.8.4.8.4.8c.3-.1.5-.1.8-.2s.5-.1.8-.2l.8-.2.8-.2c.2.3.3.6.5.9s.3.6.5.9l.5.9.5.9-1.2.7c-.4.2-.8.5-1.2.7-.4.2-.8.5-1.2.7l-1.2.7c0 .3 0 .5.1.8s0 .5.1.8 0 .5.1.8l.1.8-.5-.4-.5-.4-.5-.4-.5-.4c-.8.6-1.7 1.2-2.5 1.9l-2.5 1.9c-.8.6-1.7 1.3-2.5 1.9-.8.6-1.7 1.3-2.5 1.9l-3.6-1.2zm25.8-11.4l-1.6-.3-1.6-.3-1.6-.3.6-.9.6-.9.6-.9.6-.9c-.6-.3-1.1-.7-1.7-1s-1.1-.7-1.7-1-1.1-.7-1.7-1l-1.7-1 .9-.6.9-.6.9-.6.9-.6c0-.4-.1-.7-.1-1s-.1-.7-.1-1-.1-.7-.1-1-.1-.7-.1-1l-1.5-1.6-1.5-1.6c-.5-.5-1-1.1-1.5-1.6l-1.5-1.6-.2.1c-.1 0-.2 0-.2.1s-.2 0-.2.1-.2 0-.2.1c-.3-.3-.5-.7-.8-1s-.5-.7-.8-1-.5-.7-.8-1l-.8-1 2.4 2c.8.7 1.6 1.3 2.4 2l2.4 2 2.4 2 .1.5.1.5.1.5.1.5h2.8c.3.4.6.8 1 1.1l1 1.2c.3.4.6.8 1 1.2l1 1.2 2 .4 2 .4 2 .4c.7.1 1.3.2 2 .4-.1.4-.1.8-.2 1.2-.1.4-.1.8-.2 1.2-.1.4-.1.8-.2 1.2-.1.4-.1.8-.2 1.2h-3.2c-.2.4-.5.8-.7 1.2l-.8 1.2c-.3.4-.5.8-.8 1.2s-.5.8-.7 1.2c-.8-.8-1.3-.9-1.8-1zm-918.6-10.7l-5.4-.6-5.4-.6-5.4-.6c-.8-1.4-1.5-2.8-2.3-4.2-.8-1.4-1.5-2.8-2.3-4.2-.8-1.4-1.5-2.8-2.3-4.2-.8-1.4-1.5-2.8-2.3-4.1.4-2.3.9-4.7 1.3-7s.9-4.6 1.3-6.9c.4-2.3.8-4.6 1.3-6.8.4-2.3.8-4.5 1.3-6.8 1.2-3.4 2.4-6.7 3.6-10 1.2-3.3 2.4-6.6 3.5-9.9 1.2-3.3 2.3-6.5 3.5-9.7 1.2-3.2 2.3-6.4 3.5-9.6l1.9-4.1c.6-1.4 1.3-2.7 1.9-4.1s1.3-2.7 1.9-4.1 1.3-2.7 1.9-4.1c-.1-1.3-.2-2.5-.3-3.8-.1-1.2-.2-2.5-.3-3.7-.1-1.2-.2-2.5-.3-3.7-.1-1.2-.2-2.5-.3-3.7-.7-.3-1.3-.5-2-.8l-2-.8-2-.7c-.7-.2-1.3-.5-2-.7l-2.1-.9-2.1-.9-2.1-.9-2.1-.9-2.6-3c-.9-1-1.8-2-2.6-3-.9-1-1.8-2-2.6-3l-2.7-3c-.9-.7-1.8-1.3-2.7-2-.9-.7-1.8-1.3-2.7-2-.9-.7-1.8-1.3-2.7-2l-2.7-2 .3-.4c.1-.1.2-.3.3-.4l.3-.4.3-.4c.5-.8.9-1.6 1.4-2.4.5-.8.9-1.6 1.4-2.4l1.4-2.4 1.4-2.4 2-2 2-2 2-2 2-2c0-.4.1-.8.1-1.1s.1-.8.1-1.1.1-.8.1-1.1.1-.8.1-1.1l.4-1.2c.1-.4.3-.8.4-1.2s.3-.8.4-1.2.3-.8.4-1.2l-1.2-1.1c-.4-.4-.8-.7-1.2-1.1l-1.2-1.1-1.2-1.1-.7.1-.7.1-.7.1-.7.1c-.3.1-.5.3-.8.4l-.8.4c-.3.1-.5.3-.8.4-.3.1-.5.3-.8.4l.3.3.3.3.3.3.3.3-2.3-.1c-.8 0-1.5-.1-2.3-.1s-1.5-.1-2.3-.1l-2.3-.1-.5.1-.5.1c-.2 0-.3.1-.5.1l-.5.1c-.7-.2-1.5-.4-2.2-.6l-2.2-.6-2.3-.6-2.3-.6c-.1-.2-.3-.5-.4-.7s-.3-.5-.4-.7l-.4-.7c-.1-.2-.3-.5-.4-.7-3.6-.5-7.1-.9-10.7-1.4-3.6-.5-7.1-.9-10.7-1.3-3.6-.4-7.1-.9-10.7-1.3l-10.8-1.2-2.4-.3-2.4-.3-2.4-.3-2.4-.3-2.6-.1c-.9 0-1.7-.1-2.6-.1-.9 0-1.7-.1-2.6-.1l-2.6-.1-2.1-.4c-.7-.1-1.4-.3-2.1-.4l-2.1-.4c-.7-.1-1.4-.3-2.1-.4 0-.3.1-.6.1-.9s.1-.6.1-.9.1-.6.1-.9.1-.6.1-.8l-3.6-1.8-3.6-1.8-3.6-1.8-3.6-1.8c0-.1.1-.3.1-.4s.1-.3.1-.4l.1-.4c0-.1.1-.3.1-.4-1.1-.7-2.2-1.4-3.3-2.2l-3.3-2.1-3.3-2.1-3.3-2.1c-.6 0-1.1-.1-1.7-.1s-1.1-.1-1.7-.1l-1.7-.1-1.7-.1c1.6 1.3 3.2 2.6 4.7 3.9 1.6 1.3 3.2 2.6 4.7 3.9 1.6 1.3 3.2 2.6 4.7 3.9 1.6 1.3 3.1 2.6 4.7 4l-.7.2c-.2.1-.5.2-.7.2s-.5.2-.7.2l-.7.2-1.8-.6-1.8-.6-1.8-.6-1.8-.6c0-.2-.1-.4-.1-.6s0-.4-.1-.6 0-.4-.1-.6 0-.4-.1-.6c-.8-.2-1.7-.4-2.5-.6s-1.7-.4-2.5-.6l-2.5-.6c-.8-.2-1.7-.4-2.5-.6l.9-.6.9-.6c.3-.2.6-.4.8-.6l.8-.6-8.7-4.8c-2.9-1.6-5.8-3.2-8.7-4.7-2.9-1.6-5.8-3.1-8.7-4.6l-8.7-4.5c0-1.8-.1-3.6-.1-5.4s-.1-3.6-.1-5.4c0-1.8-.1-3.5-.1-5.3s-.1-3.5-.1-5.2l2.2-.1c.7 0 1.4-.1 2.2-.1l2.2-.1 2.2-.1c-.2-.3-.3-.5-.5-.8l-.5-.8c-.2-.3-.3-.5-.5-.8-.2-.3-.3-.5-.5-.8-2.5-.8-5.1-1.6-7.6-2.4s-5.1-1.6-7.6-2.4c-2.5-.8-5.1-1.6-7.6-2.4s-5.1-1.5-7.7-2.3l-1.2.5c-.4.2-.8.3-1.2.5l-1.2.5-1.2.5c-2.9-.6-5.8-1.2-8.8-1.8s-5.9-1.2-8.8-1.8c-2.9-.6-5.9-1.2-8.8-1.8s-5.9-1.2-8.9-1.7c-.8.1-1.6.2-2.3.3l-2.3.3-2.3.3-2.3.3-3.5 1.5-3.5 1.5c-1.2.5-2.3 1-3.5 1.5s-2.3 1-3.5 1.5c.2-.4.5-.8.7-1.2.2-.4.5-.8.7-1.2.2-.4.5-.8.7-1.2s.5-.8.7-1.2c.6-.2 1.3-.4 1.9-.6l1.9-.6 1.9-.6c.6-.2 1.3-.4 1.9-.6l-.5-.1-.5-.1c-.2 0-.4-.1-.5-.1s-.4-.1-.5-.1l-2.3.8-2.3.9-2.3.9-2.4.9-2.1 1.5-2.1 1.5-2.1 1.6-2.1 1.6.9-.1.9-.1.9-.1.9-.1c-1.9.9-3.7 1.7-5.6 2.6-1.9.9-3.7 1.8-5.6 2.6-1.9.9-3.7 1.8-5.6 2.7l-5.6 2.7c.7-.6 1.3-1.3 2-1.9l2-1.9c.7-.6 1.3-1.3 2-1.9l2-1.9-2.5.8-2.5.8-2.5.8-2.5.8h-4.4l-1.3.5-1.3.5-1.3.5-1.3.5c-.1-.3-.2-.7-.3-1s-.2-.7-.3-1c-.1-.3-.2-.7-.3-1s-.2-.7-.3-1l-1.5.7-1.5.7-1.5.7-1.5.7-1.4-.2-1.4-.2-1.4-.2-1.4-.2c-.1-.3-.2-.5-.3-.8l-.3-.8-.5-.7c-.1-.3-.2-.5-.3-.8l.6-.7c.2-.2.4-.4.6-.7.2-.2.4-.4.6-.7s.4-.4.6-.7c1.5-.6 2.9-1.3 4.4-1.9l4.4-1.9c1.5-.6 2.9-1.3 4.4-1.9l4.4-1.9-.5-.4c-.2-.1-.3-.3-.5-.4l-.5-.4-.5-.4.6-.3.6-.3.6-.3.6-.3c-1.8.3-3.6.5-5.4.8-1.8.3-3.6.5-5.4.8l-5.4.8c-1.8.3-3.6.5-5.4.8h-6.8l2.5-.9 2.5-.9 2.5-.9c.8-.3 1.7-.6 2.5-.9l-.2-.1-.2-.1c-.1 0-.1 0-.2-.1-.1 0-.1 0-.2-.1l2-.7c.7-.2 1.3-.4 2-.7l2-.7 2-.7 1.4.1 1.4.1 1.3.1c.5 0 .9.1 1.3.1l1.7.2 1.4-.5 1.4-.5 1.4-.5-.4-.1-.4-.1-.4-.1-.4-.1v-.3V136.9l-1.9.2c-.6.1-1.2.2-1.9.3s-1.3.2-1.9.3l-1.9.3-1-.3-1-.3-1-.3-1-.3-2 .1-2 .1-1.9.1-2 .1c.1-.2.3-.3.4-.5l.5-.7.4-.5c.1-.2.3-.3.4-.5l2.3-.7 2.3-.7 2.3-.7 2.3-.7c.5-.3.9-.7 1.4-1l1.4-1c.5-.3.9-.7 1.4-1l1.4-1 1.9-.7 1.9-.7 1.9-.7 1.9-.7 3.5-1.3 3.5-1.3 3.5-1.3 3.5-1.3 16.8-1.8c5.6-.6 11.1-1.1 16.7-1.7 5.5-.5 11.1-1.1 16.6-1.6l16.5-1.5 1.7-1 1.7-1 1.7-1 1.7-1h8c1.2-.3 2.4-.6 3.5-1l3.5-.9 3.5-.9 3.5-.9.9-.6.9-.6.9-.6.9-.6.1-.3.1-.3.1-.3.1-.3 2.2.6 2.2.6 2.2.6 2.2.6 1.1-.9c.4-.3.7-.6 1.1-.9.4-.3.7-.6 1.1-.9l1.1-.9.2.3.2.3.2.3.2.3c-.1.1-.2.2-.2.3s-.2.2-.2.3l-.2.3c-.1.1-.2.2-.2.3l1.2-.3 1.2-.3 1.2-.3 1.2-.3.1-.2.1-.2.1-.2.1-.2.6-.1c.2 0 .4-.1.6-.1s.4-.1.5-.1l.6-.1c2-.1 4-.2 6-.2 2-.1 4-.2 6-.2 2-.1 4-.1 5.9-.2 2-.1 4-.1 5.9-.2l-.1-.1-.1-.1-.1-.1s0-.1-.1-.1l1.9.1 1.9.1c.6 0 1.3 0 1.9.1s1.3 0 1.9.1c-.4.2-.8.4-1.3.6l-1.3.6-1.3.6-1.2.6 6-.8c2-.3 4-.5 5.9-.7s4-.5 5.9-.7c2-.2 4-.5 5.9-.7l1.2.6 1.2.6 1.2.6 1.2.6v-3.1-1c.6-.3 1.2-.5 1.8-.8s1.2-.5 1.8-.8l1.8-.8 1.8-.8-2.6.7c-.9.2-1.7.4-2.6.7-.9.2-1.7.4-2.6.7l-2.6.7 1.4-.6c.5-.2.9-.4 1.4-.6.5-.2.9-.4 1.4-.6l1.4-.6 1.6-.2c.5-.1 1.1-.1 1.6-.2l1.6-.2c.5-.1 1.1-.1 1.6-.2l.4.3.1.2.4.3.4.3c1.8-.1 3.7-.3 5.5-.4l5.5-.4 5.5-.4c1.8-.1 3.7-.3 5.5-.4.4-.2.8-.4 1.1-.6l1.1-.6 1.1-.6c.4-.2.8-.4 1.1-.6.5 0 1.1 0 1.6-.1H290.6l-.4.6-.4.6c-.1.2-.2.4-.4.6s-.2.4-.4.6c.3.1.7.1 1 .2s.7.1 1 .2l1 .2c.3.1.7.1 1 .2l.5-.8.5-.8.5-.8.5-.8c.3-.2.7-.3 1-.5l1-.5 1-.5c.3-.2.7-.3 1-.5v-.7-.8l-.8.3c-.3.1-.5.2-.8.3s-.5.2-.8.3l-.8.3 1.1-.6 1.1-.6 1.1-.6 1.1-.6c-.8 0-1.7-.1-2.5-.1s-1.7-.1-2.5-.1-1.7-.1-2.5-.1-1.7-.1-2.5-.1c-.1-.3-.1-.5-.2-.8l-.2-.8c-.1-.3-.1-.5-.2-.8s-.1-.5-.2-.8c.3-.1.6-.3 1-.4l1-.4 1-.4 1-.4-.4-.1-.4-.1-.4-.1-.4-.1c.2-.2.4-.3.7-.5l.7-.5.7-.5c.2-.2.4-.3.7-.5-.1-.4-.2-.8-.2-1.2-.1-.4-.2-.8-.2-1.2-.1-.4-.1-.8-.2-1.2-.1-.4-.1-.8-.2-1.2l2.4-.7 2.4-.7c.8-.2 1.6-.5 2.4-.7l2.4-.7 2.5-.2c.8-.1 1.7-.1 2.5-.2l2.5-.2c.8-.1 1.7-.1 2.5-.2l-1.5 1.1c-.5.4-1 .7-1.5 1.1l-1.5 1.1-1.5 1.1-2.2.3c-.7.1-1.5.2-2.2.3l-2.2.3-2.2.3c-.1.3-.1.5-.2.8-.1.3-.1.5-.2.8-.1.3-.1.5-.2.8-.1.3-.1.5-.2.8.9.3 1.8.6 2.6.9.9.3 1.8.6 2.6.9l2.6.9 2.6.9-1.3.5-1.3.5-1.3.5c-.4.2-.9.4-1.3.5l2.2-.1c.7 0 1.5-.1 2.2-.1l2.2-.1c.7 0 1.5-.1 2.2-.1l-.6.2-.6.3-.6.3-.6.2.7.7c.2.2.4.5.7.7l.7.7.7.7c.4-.3.7-.6 1.1-1l1.1-1 1.1-.9c.4-.3.7-.6 1.1-.9l1 .2 1 .2 1 .2 1 .2-.2.4-.2.4c-.1.1-.1.3-.2.4s-.1.3-.2.4l1.4.5 1.4.5 1.4.5c.5.2.9.3 1.4.5.5-.4 1.1-.9 1.6-1.3l1.6-1.3 1.6-1.3 1.6-1.3-.4-.5-.4-.5c-.1-.2-.3-.3-.4-.5s-.3-.3-.4-.5c.3-.1.6-.2 1-.3l1-.3 1-.3 1-.3c.9 0 1.8.1 2.7.1l2.7.1 2.7.1 2.7.1c-.1.2-.1.3-.2.5s-.1.3-.2.5-.1.3-.2.5-.1.3-.2.5c-.4.1-.7.1-1 .2l-1.1.2c-.4.1-.7.1-1.1.2s-.7.1-1.1.2c.3.3.6.7.8 1l.8 1c.3.3.6.7.8 1 .3.3.6.7.8 1l-1.4.6-1.4.6-1.5.6-1.5.6c-.3 0-.6-.1-1-.1l-1-.1-1-.1-1-.1.4.4.4.4.4.4.4.4c-.2 0-.5-.1-.7-.1l-.7-.1-.7-.1c-.2 0-.5-.1-.7-.1l.1.1.1.1.1.1.1.1h-3l-.2-.2-.2-.2-.2-.2-.2-.2-1.1.3c-.4.1-.8.2-1.1.3l-1.1.3-1.1.3c.2 0 .5.1.7.1l.7.1.7.1c.2 0 .5.1.7.1l-.9.6-.9.6-.9.6-.9.6c-1.3.1-2.7.1-4 .2s-2.7.1-4 .2l-4 .2c-1.3.1-2.7.1-4 .2h7.9c1.3 0 2.6 0 3.9.1 1.3 0 2.6 0 3.9.1l-1 .8-1 .8-1 .8-1 .8-3.3.7-3.3.7c-1.1.2-2.2.5-3.3.7l-3.3.7h-6.4c.4 0 .7.1 1.1.1l1.1.1 1.1.1 1.1.1-.2.1-.2.1-.2.1-.2.1c.4 0 .8-.1 1.2-.1l1.2-.1 1.2-.1 1.2-.1.2.3c.1.1.1.2.2.3s.1.2.2.3l.2.3-1.3.3c-.4.1-.9.2-1.3.3l-1.3.3-1.3.3-2.7 3-2.7 3-2.7 3-2.7 3.1 1.5-.1h4.5c.2.2.4.5.6.7.2.2.4.5.6.7s.4.5.6.8.4.5.6.8c3.1.1 6.3.2 9.4.3s6.3.2 9.4.3c3.1.1 6.3.2 9.4.4 3.1.1 6.2.3 9.4.4-.1.4-.1.7-.2 1.1s-.1.7-.2 1.1-.1.7-.2 1.1-.1.7-.2 1.1l1.5 1 1.5 1c.5.3 1 .7 1.5 1l1.5 1.1 1.9-.8 1.8-.8 1.8-.8c.6-.3 1.2-.6 1.8-.8l-.1-.2-.2-.2-.1-.2-.1-.2-.8-1.2-.8-1.2c-.3-.4-.5-.8-.8-1.2l-.8-1.1 2.5-1 2.5-1c.8-.3 1.7-.7 2.5-1l2.5-1c0-.4.1-.9.1-1.3s.1-.8.1-1.3.1-.8.1-1.3.1-.8.1-1.3c-.3-.1-.7-.3-1-.4l-1-.4-1-.4c-.3-.1-.7-.3-1-.4.1-.8.2-1.6.4-2.4l.4-2.4c.1-.8.2-1.6.4-2.4l.4-2.4.7-.4.7-.4.7-.4.7-.4c2.3.1 4.6.2 6.9.4 2.3.1 4.6.3 6.9.4 2.3.1 4.6.3 6.9.4 2.3.1 4.6.3 6.9.4l-.3 1c-.1.3-.2.7-.3 1l-.3 1c-.1.3-.2.7-.3 1h1.6l-.5.5-.5.5-.5.5-.5.5 3.1-.4 3.1-.4 3.1-.4 3.1-.4c.1 0 .2 0 .4.1l.4.1.4.1.4.1 1.5-1.3 1.5-1.3c.5-.4 1-.9 1.5-1.3l1.5-1.3-.2.3c0 .1-.1.2-.2.3l-.2.3c-.1.1-.1.2-.2.3.9.6 1.8 1.1 2.8 1.7.9.6 1.8 1.1 2.8 1.7l2.8 1.7 2.8 1.7-.4.4-.4.4-.4.4-.4.4c.4.1.8.2 1.2.4l1.2.4 1.3.4 1.2.4.2.2.2.2.2.2s.2.2.2.3c.5 0 1 0 1.5.1.5 0 1 0 1.5.1s1 0 1.5.1l1.5.1.3.3.3.3.3.3.3.3-1.4.3-1.4.3-1.4.3-1.4.3-.3.2-.3.2-.3.2-.3.2c0 .1 0 .2-.1.3s0 .2-.1.3 0 .2-.1.3 0 .2-.1.3l2-.6 1.9-.6 1.9-.6 1.9-.6h2c0 .1 0 .2-.1.3s-.1.2-.1.3l-.1.3c0 .1-.1.2-.1.3l1.2-.2c.4-.1.8-.1 1.2-.2s.8-.1 1.2-.2.8-.1 1.2-.2v4c-1.6.5-3.3 1.1-4.9 1.6-1.6.6-3.3 1.1-4.9 1.7-1.6.6-3.3 1.1-5 1.7s-3.3 1.1-5 1.7l-2.8.9-2.8 1-2.8 1-2.8 1-.5.5-.5.5-.5.5c-.2.2-.4.3-.5.5-.4 0-.7.1-1.1.1l-1.1.1-1.1.1-1.1.1c.2.1.4.1.6.2l.6.2.6.2c.2.1.4.1.6.2l.8-.1.8-.1.8-.1.8-.1c-.2.1-.4.3-.5.4l-.5.4c-.2.1-.4.3-.5.4s-.4.3-.5.4l.4-.1.4-.1.4-.1.4-.1c.3.2.6.3.8.5l.8.5c.3.2.6.3.8.5l.8.5-.2.1-.2.1-.2.1-.2.1 1.9-.1 1.9-.1 1.9-.1 1.9-.1v.1l.1.1v.2l.4-.1.4-.1.4-.1.4-.1c.2-.3.5-.6.7-.9.2-.3.5-.6.7-.9l.7-.9c.2-.3.5-.6.7-.9 0 .2.1.3.1.5s0 .3.1.5 0 .3.1.5c0 .2 0 .3.1.5.2 0 .4.1.6.1l.6.2.6.1c.2.1.4.1.6.2l-1.3.3-1.3.3-1.3.3c-.4.1-.9.2-1.3.3.1 0 .2.1.3.1l.2.1.2.1.2.1-2.3.7-2.3.7-2.3.7c-.8.2-1.5.5-2.3.7h-2l-1.1.7-1.1.7-1.1.7-1.1.7h-2.8c.4-.3.9-.7 1.3-1l1.3-1 1.3-1c.4-.3.9-.7 1.3-1l.3.1.3.1.3.1.3.1.8-.3.8-.3.8-.3c.3-.1.5-.2.8-.3l-1.1.2c-.4.1-.8.1-1.1.2l-1.1.2-1.1.2.3-.3.3-.3.3-.3.3-.3c-1.3.4-2.6.9-3.9 1.3-1.3.4-2.6.9-3.9 1.3l-3.9 1.3c-1.3.4-2.6.9-3.9 1.3l-.2-.1-.2-.1-.2-.1-.2-.1c-.5.3-.9.5-1.4.8s-.9.5-1.4.8l-1.4.8-1.4.8v3.2l.2.1.2.1.2.1.2.1-1.1.1-1.1.1-1.1.1-1.1.1-.4.3-.4.3-.4.3-.4.3-.7.2-.7.2-.7.2-.7.2h1.6l-2.1.6-2.1.6-2.1.6-2.1.6c-.2.3-.5.7-.7 1l-.7 1-.7 1c-.2.3-.5.7-.7 1-.2-.1-.3-.3-.5-.4s-.3-.3-.5-.4l-.5-.4-.5-.4c.1.2.2.5.3.7l.4.7c.1.2.2.5.4.7l.4.7-.8.8-.8.8-.8.8-.8.8h-.3l.3-.5.3-.5.3-.5.3-.5c-.2-.1-.3-.1-.5-.2s-.3-.1-.5-.2l-.5-.2-.5-.2-.1.1-.1.1-.1.1-.1.1s0 .1.1.1l.1.1.1.1.1.1c0 .2-.1.3-.1.5s-.1.3-.1.5-.1.3-.1.5-.1.3-.1.5l.4.3c.1.1.3.2.4.3s.3.2.4.3.3.2.4.3l-.8.4-.8.4-.8.4-.8.4.8.1.8.1.8.1.8.1-.9.2-.9.2c-.3.1-.6.2-.9.2l-.9.2-.2.2c0 .1-.1.1-.1.2s-.1.1-.2.2l-.2.2h2.8l-.6.2c-.2.1-.4.2-.6.2l-.6.2-.6.2h-2c-1.3.8-2.5 1.6-3.8 2.4-1.3.8-2.5 1.6-3.8 2.4-1.3.8-2.5 1.6-3.8 2.4s-2.5 1.6-3.8 2.4c.2 1 .5 2.1.7 3.1s.5 2.1.7 3.1c.2 1 .5 2.1.7 3.1s.5 2.1.7 3.1l-.8.2-.8.2-.8.2c-.3.1-.5.1-.8.2l-1.2-1.2-1.2-1.2-1.2-1.2-1.2-1.2c-.1 0-.1.1-.2.1s-.1.1-.2.1l-.2.1-.2.1c0-.3-.1-.6-.1-.9 0-.3-.1-.6-.1-.9s-.1-.6-.1-.9-.1-.6-.1-.9l-1.3-.2-1.3-.2-1.3-.2c-.4-.1-.9-.2-1.3-.2-.3.1-.6.1-.9.2l-.9.2c-.3.1-.6.1-.9.2l-.9.2-2.4-.1-2.4-.1-2.4-.1-2.4-.1c-.8.2-1.5.4-2.3.6l-2.3.6c-.8.2-1.5.4-2.3.6l-2.3.6c.4.1.8.2 1.3.3s.8.2 1.3.3.8.2 1.3.3l1.3.3-.4.2-.4.2-.4.2-.4.2-.6-.2-.6-.2-.6-.2-.6-.2-.1.3-.1.3-.1.3-.1.3-2.6-.1-2.6-.1-2.6-.1c-.9 0-1.8 0-2.6-.1l-1.7.5-1.7.5-1.7.5-1.7.5-2.7 1.8-2.7 1.8-2.7 1.8-2.7 1.8.4.4.4.4.4.4.4.4-.8 1.4c-.3.5-.5 1-.8 1.5-.3.5-.5 1-.8 1.5-.3.5-.5 1-.8 1.5l.9 1.9.9 1.9.9 1.9c.3.6.6 1.3.9 1.9l2 .7 2 .7 2 .7 2 .7c.7-.2 1.3-.4 2-.6l2-.6 2-.6c.7-.2 1.3-.4 2-.6l.5.1.5.1.5.1.5.1.4-.2c.1-.1.2-.1.4-.2l.4-.2.4-.2v-.2-.2-.2-.2l1.6-1.5c.5-.5 1.1-1 1.6-1.5l1.6-1.5 1.6-1.5 1.6-.4 1.6-.4c.5-.1 1.1-.3 1.6-.4.5-.1 1.1-.3 1.6-.4l1.1.2 1.1.2c.4.1.8.1 1.1.2s.8.1 1.1.2c-.3.3-.6.5-.9.8l-.9.8-.9.8-.9.8H312.4l.3.1-.3.2-.3.2c-.1.1-.2.1-.3.2s-.2.1-.3.2l.2.1.2-.1.2-.1.2-.1.2-.1-.4.7-.4.7-.4.7c-.1.2-.3.5-.4.7-.1-.1-.1-.2-.2-.3s-.1-.2-.2-.3-.1-.2-.2-.3-.1-.2-.2-.3l-.3.3-.3.3-.3.3-.3.3v2.8l-.7.7-.7.7-.7.7-.7.7c1.4-.2 2.9-.4 4.3-.5l4.3-.5 4.3-.5c1.4-.2 2.9-.3 4.3-.5.3.2.6.5.9.7l.9.7.9.7.9.7-.7 1.4c-.2.5-.5.9-.7 1.4s-.5.9-.7 1.4-.5.9-.7 1.4c.9.4 1.8.9 2.7 1.3.9.4 1.8.9 2.7 1.3.9.4 1.8.9 2.7 1.3l2.7 1.3c.7-.2 1.4-.3 2-.5l2-.5c.7-.2 1.4-.3 2-.5l2-.5 1.6.5 1.6.5 1.6.5c.5.2 1.1.3 1.6.5.6-.6 1.2-1.3 1.8-1.9s1.2-1.3 1.8-1.9c.6-.6 1.2-1.3 1.8-1.9.6-.6 1.2-1.3 1.8-1.9 1.1-.4 2.2-.7 3.3-1.1s2.2-.7 3.3-1.1 2.2-.7 3.3-1.1 2.2-.7 3.3-1c2.9.2 5.7.3 8.6.5 2.9.2 5.7.4 8.5.6 2.8.2 5.7.4 8.5.6 2.8.2 5.7.4 8.5.6 1.4.5 2.8 1.1 4.1 1.6l4.1 1.6c1.4.5 2.8 1.1 4.1 1.6 1.4.5 2.8 1.1 4.1 1.6H435.9l.4.3.4.3c.1.1.3.2.4.3l.4.3c1 .8 2 1.6 3.1 2.5l3.1 2.5 3.1 2.5c1 .8 2 1.7 3.1 2.5 1.5 0 3 0 4.5.1 1.5 0 3 .1 4.5.1s3 .1 4.5.1 3 .1 4.5.1c1 .2 2 .5 3 .7l3 .7 3 .7 3 .7 2.8.7 2.8.7 2.8.8 2.8.8 2 .1 1.9.1 1.9.1 1.9.1.3.9.3.9.3.9.3.9-1.4 2.6-1.4 2.6c-.5.9-.9 1.7-1.4 2.6l-1.4 2.6-.5.4-.5.5-.5.4-.5.5-2 1.8-2 1.8-2 1.8c-.7.6-1.3 1.2-2 1.8-.4 1-.8 2-1.2 3.1L482 270c-.4 1-.8 2.1-1.2 3.1l-1.2 3.1-.9 1.4c-.3.5-.6.9-.9 1.4s-.6.9-.9 1.4l-.9 1.4-1.3 1.3-1.3 1.3-1.3 1.3-1.3 1.3c-.6.1-1.2.2-1.9.2l-1.9.2c-.6.1-1.3.2-1.9.2l-1.9.2-3.5 1.8-3.5 1.8-3.5 1.8c-1.2.6-2.4 1.2-3.5 1.8-.2.7-.4 1.5-.6 2.2s-.4 1.5-.6 2.2-.4 1.5-.6 2.2-.4 1.5-.6 2.2c-1.9 1.7-3.8 3.3-5.8 5s-3.9 3.4-5.8 5c-1.9 1.7-3.9 3.4-5.8 5.1-1.9 1.7-3.9 3.4-5.8 5.1-.4 0-.8-.1-1.2-.1l-1.2-.1-1.2-.1-1.2-.1-2.2-.2-2.2-.2-2.2-.2c-.7-.1-1.4-.1-2.2-.2l1.4 1 1.4 1 1.4 1c.5.3 1 .7 1.4 1 .1.3.2.7.3 1 .1.3.2.7.3 1s.2.7.3 1 .2.7.3 1l-.9.9-.9.9-.9.9c-.3.3-.6.6-.8.9l-4.7 1.3c-1.6.4-3.1.8-4.7 1.3-1.6.4-3.1.9-4.7 1.3l-4.7 1.3c-.1.5-.1 1.1-.2 1.6s-.1 1.1-.2 1.6-.1 1.1-.2 1.6-.1 1.1-.2 1.6l-2.5.2-2.5.2-2.5.2c-.8.1-1.6.1-2.5.2l.3 1.8.3 1.8.3 1.8.3 1.8c-1 1-2.1 1.9-3.1 2.9l-3.1 2.9-3.1 2.9-3.1 2.9c.2.3.4.5.7.8l.7.8.7.8.7.8.9.3.9.3.9.3.9.3c-1 1-2 1.9-2.9 2.9l-2.9 2.9c-1 1-2 2-3 2.9l-3 3c.1 1 .2 1.9.3 2.9s.2 1.9.3 2.9c.1 1 .2 1.9.3 2.9.1 1 .2 1.9.3 2.9.5.2 1 .5 1.5.7.5.2 1 .5 1.5.7l1.5.7 1.5.7c.9 0 1.7.1 2.6.1s1.7.1 2.6.1 1.7.1 2.6.1l2.6.1-3.2 1.4-3.2 1.4-3.2 1.4c-1.1.5-2.1.9-3.2 1.4-1.4 1.3-3.2 1-5 .8zm797.3-10.2c-.6-.4-1.3-.8-1.9-1.3l-1.9-1.3c-.6-.4-1.3-.8-1.9-1.3-.2-.6-.3-1.2-.5-1.8s-.3-1.2-.5-1.8-.3-1.2-.5-1.8l-.5-1.7c.6.3 1.1.5 1.7.8l1.7.8c.6.3 1.1.5 1.7.8l1.7.8h6c-.3.7-.5 1.5-.8 2.2l-.8 2.3c-.3.8-.5 1.5-.8 2.3s-.5 1.5-.8 2.3l-1.9-1.3zm-766.6-3.8c-.2 0-.5 0-.7-.1s-.5 0-.7 0h-.7l.2-.5.2-.5c.1-.2.1-.4.2-.5l.2-.5.9-.6.9-.6.9-.6.9-.6.2-.1.2-.1c.1 0 .1 0 .2-.1l.2-.1c.2-.1.5-.2.7-.3l.7-.3.7-.3.7-.3h3.2l.2.1.2.1.2.1.2.1.3.2.3.2.3.2.3.2-.4.3c-.1.1-.3.2-.4.3l-.4.3-.4.3-.4.3-.4.3-.4.3c-.1.1-.3.2-.4.3l-.9.7c-.3.2-.6.4-.9.7s-.6.4-.9.7-.6.4-.9.7v-.3-.3-.3c0-.1 0-.2.1-.3v-.5-.5-.5-.5l-.6.6-.6.6-.6.6-.6.6c-.1.1-.2.2-.3.2l-.3.2-.3.2c-.1.1-.2.2-.3.2-.4-.3-.6-.3-.8-.3zm771.5-12.3H1159.5l-1.4-.6-1.4-.6c-.5-.2-1-.4-1.4-.6l-1.4-.6-1.7-.1-1.7-.1-1.7-.1-1.7-.1c-1-.7-2-1.3-3-2l-3-2-3-2-3-2-1.7-2.5-1.7-2.5-1.7-2.5-1.7-2.5c-.4.2-.8.3-1.3.5s-.8.3-1.3.5l-1.3.5c-.4.2-.8.3-1.3.5.2-.6.5-1.1.7-1.7s.5-1.1.7-1.6.5-1.1.7-1.6l.7-1.6-1.9 1.3-1.9 1.3-1.9 1.3c-.6.4-1.2.9-1.9 1.3l-2.7-2.4-2.7-2.4-2.7-2.4-2.7-2.4-4.3-1.3-4.3-1.3c-1.4-.4-2.8-.9-4.2-1.3s-2.8-.9-4.2-1.3l-4.8.3-4.8.3-4.8.3c-1.6.1-3.2.2-4.8.4l-.4.4-.4.4-.4.4-.4.4c-2.2-.1-4.4-.2-6.6-.2s-4.4-.2-6.6-.2c-2.2-.1-4.4-.1-6.6-.2l-6.6-.2-1.7-.9-1.7-.9c-.6-.3-1.1-.6-1.7-.9l-1.6-.9.6-.7.6-.7.6-.7.6-.7c-.3-.6-.7-1.3-1-1.9s-.7-1.3-1-1.9l-1-1.9c-.3-.6-.7-1.3-1-1.9l-1.7-2.7c-.6-.9-1.1-1.8-1.7-2.7-.6-.9-1.1-1.8-1.7-2.7l-1.7-2.7c.1-1.2.2-2.5.4-3.7.1-1.2.2-2.5.4-3.7.1-1.2.2-2.5.4-3.7.1-1.2.2-2.4.4-3.7.1.2.3.4.4.6l.4.6.4.6.4.6 1.2-.8c.4-.3.8-.6 1.2-.8l1.2-.8c.4-.3.8-.6 1.2-.8l4.7-.2c1.6-.1 3.1-.1 4.7-.2s3.2-.1 4.7-.2c1.6-.1 3.1-.1 4.7-.2 1.9-.9 3.7-1.8 5.6-2.7 1.9-.9 3.7-1.8 5.6-2.7 1.9-.9 3.7-1.8 5.6-2.7s3.7-1.8 5.6-2.6l2.3 1.1 2.3 1.1 2.3 1.1 2.3 1.1c.3-.4.5-.9.8-1.3s.5-.9.8-1.3.5-.9.8-1.3.5-.9.8-1.3c.7.1 1.5.2 2.2.3.7.1 1.5.2 2.2.3l2.2.3 2.2.3-.2-.7-.2-.6c-.1-.2-.1-.4-.2-.6s-.1-.4-.2-.7c1.5.5 2.9.9 4.4 1.4s2.9.9 4.4 1.4l4.4 1.4c1.5.5 2.9.9 4.4 1.4-.3.3-.6.5-1 .8l-1 .8-1 .8-1 .8.3 1 .3 1c.1.3.2.7.3 1s.2.7.3 1l3.9 2.2 3.9 2.2 3.9 2.2 3.9 2.3c.7-1.3 1.5-2.7 2.2-4s1.5-2.7 2.2-4c.7-1.3 1.5-2.6 2.2-4 .7-1.3 1.5-2.6 2.2-3.9.5.9 1 1.8 1.6 2.6l1.6 2.6c.5.9 1 1.8 1.6 2.7.5.9 1 1.8 1.6 2.7.5.2.9.4 1.4.6s.9.4 1.4.6l1.4.6c.5.2.9.4 1.4.6.4.9.8 1.8 1.3 2.7l1.3 2.7 1.3 2.7c.4.9.9 1.8 1.3 2.7l2.2 1.1 2.2 1.1 2.2 1.1 2.2 1.2 1.5 2c.5.7 1 1.3 1.5 2s1 1.3 1.5 2 1 1.3 1.5 2h2.7c.3.4.6.7.8 1.1.3.4.6.7.8 1.1.3.4.6.7.8 1.1l.8 1.1c.7.5 1.3 1.1 2 1.7.7.6 1.3 1.1 2 1.7s1.3 1.1 2 1.7 1.3 1.1 2 1.7c.3 1.1.5 2.2.8 3.3s.5 2.2.8 3.3c.3 1.1.5 2.2.8 3.3s.5 2.2.8 3.3l-1 2.1c-.3.7-.7 1.4-1 2.2l-1 2.2-1 2.2c-.9 1-1.7 2-2.6 3-.9 1-1.7 2-2.6 3-.9 1-1.7 2-2.6 3-.9 1-1.7 2-2.6 3.1l-2.6-.4zm58.7-25.3c-.4-.4-.7-.9-1.1-1.3-.4-.4-.7-.9-1.1-1.3s-.7-.9-1.1-1.3l-1-1-1-1-1-1-1-1c.5.3 1 .6 1.4.8l1.4.9 1.4.9 1.5.9c.3.4.6.7.8 1.1s.6.7.8 1.1l.8 1.1c.3.4.6.7.8 1.1l-.2.3-.2.3-.2.3-.2.3c-.1-.4-.5-.8-.8-1.2zm42.6-.7c0-.3-.1-.6-.1-.8 0-.3-.1-.5-.1-.8s-.1-.6-.1-.8h4.4c.1-.3.3-.6.4-.8l.4-.8.4-.8.4-.8c.6.3 1.2.6 1.9.8s1.2.6 1.9.9l1.9.9c.6.3 1.2.6 1.9.9-.3.1-.6.3-.9.4l-.9.4-.9.4-.9.4-.3.4c-.1.1-.2.3-.3.4l-.3.4c-.1.1-.2.3-.3.4l-2 .1h-2l-2 .1c-.7 0-1.4 0-2 .1-.4-.8-.4-1.1-.5-1.4zm-36.7-13.1l-.5-.5-.5-.5-.5-.5c0-.1 0-.3-.1-.4s0-.3-.1-.4 0-.3-.1-.4 0-.3-.1-.4c.5.2.9.4 1.4.5l1.4.5 1.4.5 1.4.5-.8.4-.8.4c-.3.1-.5.3-.8.4-.3.1-.5.3-.8.4l-.5-.5zm-552.3-26l-1.9-1.2-1.9-1.2c-.6-.4-1.2-.8-1.9-1.2-.3-.7-.6-1.3-.9-2l-.9-2c-.3-.7-.6-1.3-.9-2s-.6-1.3-.9-2l-2.2-1.9c-.7-.6-1.5-1.3-2.2-1.9s-1.5-1.3-2.2-1.9-1.5-1.3-2.2-1.9c-.1-.5-.2-1.1-.3-1.6s-.2-1.1-.3-1.6-.2-1.1-.3-1.6-.2-1.1-.3-1.6c-.1-.2-.1-.5-.2-.7s-.1-.5-.2-.7-.1-.5-.2-.7-.1-.5-.2-.7l-.2-.8c-.1-.3-.1-.5-.2-.8s-.1-.5-.2-.8-.1-.5-.2-.8c-.7-.9-1.4-1.9-2.1-2.8-.7-.9-1.4-1.9-2.1-2.8l-2.1-2.8c-.7-.9-1.4-1.9-2.1-2.8l.8-2.6c.3-.9.6-1.7.8-2.6s.6-1.7.8-2.6c.3-.9.6-1.7.8-2.6.2-.6.4-1.2.6-1.7s.4-1.1.6-1.7c.2-.6.4-1.1.6-1.7s.4-1.1.6-1.7c-.5-1.3-.9-2.6-1.4-3.9-.5-1.3-.9-2.6-1.4-3.9s-.9-2.6-1.4-3.8c-.5-1.3-.9-2.6-1.4-3.8l-2.4-1.7-2.4-1.7c-.8-.6-1.6-1.1-2.4-1.7-.8-.5-1.6-1.1-2.4-1.7.1-1 .2-1.9.3-2.9s.2-1.9.3-2.8c.1-.9.2-1.9.3-2.8s.2-1.9.3-2.8l-1.2-.9-1.2-.9-1.2-.9-1.2-.9h-6.8c-.5-.3-.9-.6-1.4-.9l-1.4-.9-1.4-.9-1.4-.9c-1.8.3-3.6.6-5.5 1s-3.6.6-5.5 1c-1.8.3-3.6.6-5.5 1s-3.6.7-5.5 1c-1.7.1-3.4.3-5.1.4l-5.1.4c-1.7.2-3.4.3-5.1.5s-3.4.3-5.1.5c-1-.3-2-.7-3-1l-3-1-3-1-3-1-2.9-2.2c-1-.7-1.9-1.4-2.8-2.1s-1.9-1.4-2.8-2.1c-1-.7-1.9-1.4-2.9-2.1-.9-.7-1.8-1.4-2.7-2.2l-2.7-2.2-2.7-2.1-2.7-2.1 1-1.7c.3-.6.7-1.1 1-1.7l1-1.7c.3-.6.7-1.1 1-1.7-.3-.7-.6-1.5-.9-2.2-.3-.7-.6-1.5-.9-2.2-.3-.7-.6-1.5-.9-2.2-.3-.7-.6-1.4-.9-2.2 2.2-1.7 4.4-3.3 6.5-5 2.2-1.7 4.4-3.3 6.5-4.9 2.2-1.6 4.3-3.2 6.5-4.9 2.2-1.6 4.3-3.2 6.5-4.8.1-.4.3-.9.4-1.3l.4-1.3.4-1.3c.1-.4.3-.9.4-1.3 1.2-.7 2.3-1.4 3.5-2.1l3.5-2.1c1.2-.7 2.3-1.4 3.5-2.1l3.5-2.1 1.2.3 1.2.3 1.2.3 1.2.3c.3 0 .7-.1 1-.1l1-.1 1-.1 1-.1.7.2c.2.1.5.1.7.2l.7.2c.2.1.5.1.7.2 3.4-.5 6.7-1 10.1-1.4 3.4-.5 6.7-.9 10.1-1.4 3.4-.5 6.7-.9 10.1-1.3s6.7-.9 10.1-1.3c.5 0 1 .1 1.5.1l1.5.1 1.5.2 1.5.2v3.6c-.3.2-.6.4-.8.6s-.6.4-.8.6l-.8.6c-.3.2-.6.4-.8.6 2.4.6 4.7 1.2 7.1 1.9 2.4.6 4.8 1.3 7.1 1.9 2.4.6 4.8 1.3 7.1 1.9s4.8 1.3 7.1 2c.6-.1 1.1-.1 1.7-.2l1.7-.2c.6 0 1.2-.1 1.7-.1s1.2-.1 1.7-.2c-.1-.1-.1-.3-.2-.4s-.1-.3-.1-.4-.1-.3-.1-.4-.1-.3-.1-.4l.5-.4.5-.4c.2-.1.3-.3.5-.4l.5-.4 2.2-.1 2.2-.1c.7 0 1.5 0 2.2-.1.7 0 1.5 0 2.2-.1l.3.3.3.3.3.3.3.3c.4 0 .8.1 1.2.1l1.2.1c.4 0 .8.1 1.2.1l1.2.1.5.3.5.3.5.3.5.3 2.1.4c.7.1 1.4.3 2.1.4s1.4.3 2.1.4 1.4.3 2.1.4l2.4-.3 2.3-.3 2.3-.3 2.4-.3 1.8.3 1.8.3 1.8.3 1.8.3 1.4-.3 1.4-.3 1.4-.3 1.4-.3.7-.3.7-.3c.2-.1.5-.2.7-.3l.7-.3 1.2-2.6 1.2-2.6c.4-.9.8-1.8 1.2-2.6l1.2-2.6-.6.1-.6.1c-.2 0-.4.1-.6.1l-.6.1-.6-.1-.6-.1c-.2 0-.4-.1-.6-.1-.2 0-.4-.1-.6-.1l-.7.3c-.2.1-.5.2-.7.3s-.5.2-.7.3l-.7.3H727l-1.3-.4c-.4-.1-.9-.2-1.3-.4l-1.3-.4-1.4-.4h-3.2l-.6.3-.6.2-.6.3-.6.3-1.5-.4-1.5-.4-1.5-.4-1.5-.4c-.4-.5-.7-1-1.1-1.6-.4-.5-.7-1-1.1-1.6-.4-.5-.7-1-1.1-1.5l-1.1-1.5h-2.8l3.2-.7 3.2-.7 3.2-.7 3.2-.7c-.2-.1-.4-.1-.7-.2-.2-.1-.4-.1-.7-.2l-.7-.2c-.2-.1-.4-.1-.7-.2l5.4-.5c1.8-.2 3.6-.3 5.4-.5 1.8-.2 3.6-.3 5.4-.5 1.8-.2 3.6-.3 5.4-.5l.3.3.3.3.3.3.3.3 2.1.4 2.1.4c.7.1 1.4.3 2.1.4.7.1 1.4.3 2.1.4 1-.1 2-.1 3.1-.2 1-.1 2-.1 3.1-.2l3.1-.2 3.1-.2c0-.2-.1-.5-.1-.7s-.1-.5-.1-.7-.1-.5-.1-.7-.1-.5-.1-.7l-4-1.5c-1.3-.5-2.7-1-4-1.5l-4-1.5c-1.3-.5-2.7-1-4-1.5h-.4l.2-.1.2-.1.2-.1.2-.1.7.1c.2 0 .5.1.7.1s.5.1.7.1l.7.1c.3-.1.5-.3.8-.4.3-.1.5-.3.8-.4l.8-.4.8-.4c-.3-.1-.5-.2-.8-.4s-.5-.2-.8-.4-.5-.2-.8-.4-.5-.2-.8-.4h2.8l.6-.2.6-.2c.2-.1.4-.1.6-.2l.6-.2-.7-.1c-.2 0-.4-.1-.7-.1s-.4-.1-.7-.1l-.7-.1-1.7.3-1.7.3-1.7.3-1.7.3v-.4c-.4.1-.8.2-1.1.3l-1.1.3-1.1.3c-.4.1-.8.2-1.1.3l.1.4.1.4.1.4.1.4 1.4.1 1.4.1c.5 0 .9.1 1.4.1l1.4.1-1.3.2-1.3.2-1.3.2-1.3.2-1.7.2-1.7.2-1.7.2-1.7.2-.3-.2-.3-.2-.3-.2-.3-.2-.4-.3-.4-.3-.4-.3-.4-.3.7-.4.7-.4.7-.4c.2-.1.5-.3.7-.4h-3.6l-.6-.2c-.2-.1-.4-.1-.6-.2l-.6-.2-.6-.2 1-.1 1-.1 1-.1 1-.1h-6.4l-1 .6-1 .6-1 .6-1 .6c0 .2-.1.3-.1.5s-.1.3-.1.5l-.1.5-.1.5h-.4c-.2 0-.4.1-.6.2s-.4.1-.6.2-.4.1-.6.2-.4.1-.6.2l-.8 1.5c-.3.5-.5 1-.8 1.5s-.5 1-.8 1.5c-.3.5-.5 1-.8 1.5l1 .5 1 .5 1 .5 1 .5c-.4 0-.8 0-1.2.1l-1.2.1-1.2.1-1.2.1c-.4.2-.9.4-1.3.6s-.9.4-1.3.6l-1.3.6c-.4.2-.9.4-1.3.6l.5-.4.5-.4.5-.4c.2-.1.4-.3.5-.4-.6-.1-1.3-.1-1.9-.2l-2-.2-2-.2-2-.2-.6.1-.6.1c-.2 0-.4.1-.6.1l-.6.1v.8l-.9-.1c-.3 0-.6-.1-.9-.1l-.9-.1-.9-.1c0 .3.1.7.1 1 0 .3.1.7.1 1s.1.7.1 1c0 .3.1.7.1 1 .3.2.7.4 1 .7.3.2.7.4 1 .7l1 .7c.3.2.7.4 1 .7l-.9-.1-.9-.1-.9-.1-.9-.1c0 .2.1.5.1.7 0 .2.1.5.1.7s.1.5.1.7.1.5.1.7c-.3 0-.6 0-.9.1s-.6 0-.9.1l-.9.1c-.3 0-.6 0-.9.1l-.5-.1-.5-.2-.5-.1c-.2 0-.3-.1-.5-.2l-.5-.3c-.2-.1-.3-.2-.5-.3l-.5-.3c-.2-.1-.3-.2-.5-.3.1-.2.3-.3.4-.5l.4-.5.4-.5c.1-.2.3-.3.4-.5-.2-.1-.5-.1-.7-.2l-.7-.2-.7-.2-.7-.2c-.2-.1-.3-.3-.5-.4l-.5-.4-.5-.4c-.2-.1-.3-.3-.5-.4l-.6-.6-.6-.6-.6-.6-.6-.6c-.1-.3-.2-.6-.4-1l-.4-1c-.1-.3-.2-.6-.4-1s-.2-.6-.4-1l-1.1-.4-1.1-.4-1.1-.4c-.4-.1-.7-.2-1.1-.4-.1-.1-.2-.2-.3-.4l-.3-.4-.3-.4-.3-.4c-.6-.1-1.3-.2-1.9-.4l-1.9-.4-1.9-.4c-.6-.1-1.3-.2-1.9-.4-.3-.2-.5-.4-.8-.7l-.8-.7-.8-.7-.8-.7-.2-.2-.2-.2-.2-.2-.2-.2c-.3-.1-.5-.2-.7-.3l-.7-.3-.7-.3c-.2-.1-.5-.2-.7-.3l-.7.3c-.2.1-.5.2-.7.3s-.5.2-.7.3l-.7.3v2l.6.2.6.2c.2.1.4.1.6.2s.4.1.6.2c.1.1.2.2.3.2l.3.2.3.2.3.2.7.6c.2.2.5.4.7.6s.5.4.7.6l.7.6c.3.1.5.2.8.2.3.1.5.2.8.2.3.1.5.2.8.2l.8.2c.2 0 .5.1.7.1.2 0 .4.1.7.1l.7.1.7.1v1l1.1.3 1.1.3 1.1.3c.4.1.7.2 1.1.3l1.2.6 1.2.6 1.2.6c.4.2.8.4 1.1.6l-.3.1-.3.1-.3.1-.3.1-1-.3c-.3-.1-.7-.2-1-.3-.3-.1-.7-.2-1-.3l-1-.3-.3.2-.3.2-.3.2-.3.2.4.3c.1.1.3.2.4.3l.4.3.4.3-1.1.6c-.1.2-.3.3-.4.5-.1.2-.3.3-.4.5-.1.2-.3.3-.4.5l-.5.1-.5.1-.5.1c-.2 0-.4.1-.5.1l-.2.1-.2.1c-.1 0-.1 0-.2.1l-.2.1-.2-.3c.1-.1.2-.2.3-.2l.3-.2.3-.2.3-.2-.5-.7c-.2-.2-.4-.4-.5-.7l-.5-.7-.5-.7-1.2-.3-1.2-.3-1.2-.3-1.2-.3-1.1-.4-1.1-.4c-.4-.1-.8-.3-1.1-.4-.4-.1-.7-.3-1.1-.4l-1.3-.5-1.3-.5-1.3-.5c-.4-.2-.9-.4-1.3-.5-.3-.2-.5-.4-.8-.6s-.5-.4-.8-.6l-.8-.6c-.3-.2-.5-.4-.8-.6-.3-.2-.6-.3-.9-.5l-.9-.5-.9-.5-.9-.5H641l-2.1.7-2.1.7-2.1.7-2.1.7c-.6-.1-1.1-.2-1.7-.2l-1.7-.2-1.7-.2-1.7-.2-.9.4-.9.4c-.3.1-.6.2-.9.4s-.6.2-.9.4v2.4c-1 .5-2 1-3 1.4-1 .5-2 1-3 1.4l-3 1.5-3 1.5c.1.2.1.3.2.5s.1.3.2.5l.2.5.2.5-.6.5-.6.5c-.2.2-.4.4-.6.5-.2.2-.4.4-.6.5-.3 0-.5.1-.8.1s-.5.1-.8.1l-.8.1-.8.1-.5.3c-.2.1-.3.2-.5.3s-.3.2-.5.3l-.5.3h-6.8l-1.2.5c-.4.2-.8.3-1.2.5l-1.2.5-1.2.4-.6-.5c-.2-.2-.4-.3-.6-.5l-.6-.5-.6-.5-2.4.1-2.4.1c-.8 0-1.6 0-2.4.1-.8 0-1.6 0-2.4.1 0-.3.1-.5.1-.8l.1-.8c0-.3.1-.5.1-.8 0-.3.1-.5.1-.8H579v-.3-.3-.3-.3l.3-.9.3-.9.3-.9.3-.8c0-.2-.1-.4-.2-.6V135c-.1-.2-.1-.4-.2-.6s-.1-.4-.2-.6l.3-.6.3-.6.3-.6.3-.6c-.1-.1-.3-.2-.4-.3l-.4-.2-.4-.2-.4-.3.9-.2.9-.2c.3-.1.6-.1.9-.2.3-.1.6-.1.9-.2l-.1-.1-.1-.1-.1-.1-.1-.1h22l.6-.9.6-.9.6-.9.6-.9c.1-.1.2-.3.2-.4l.2-.4.2-.4.2-.4-.9-1c-.3-.3-.6-.7-.9-1l-.8-1c-.3-.3-.6-.7-.8-1l-2.2-.4-2-.6-2.2-.4c-.7-.1-1.5-.3-2.2-.4.1 0 .2 0 .3-.1l.3-.1c.1 0 .2 0 .3-.1l.3-.1-.4-.3-.4-.3-.4-.2-.4-.2 1.1-.1 1.1-.1c.4 0 .8-.1 1.1-.1l1.1-.1.7.1.7.1.7.1c.2 0 .5.1.7.1.3-.1.7-.1 1-.2s.7-.1 1-.2l1-.2c.3-.1.6-.1 1-.2l-.3-.5c-.1-.2-.2-.3-.3-.5s-.2-.3-.3-.5-.2-.3-.3-.5l.6.1.6.1.6.1.6.1.3.2.3.2.3.2.3.2 1.2-.1 1.2-.1 1.2-.1 1.2-.1h-1.2l1.1-.3c.4-.1.7-.2 1.1-.3l1.1-.3 1.1-.3c.1-.2.2-.3.2-.5s.2-.3.2-.5.2-.3.2-.5.2-.3.2-.5l2.3-.3c.8-.1 1.5-.2 2.3-.3l2.3-.3c.8-.1 1.5-.2 2.3-.3l-.6-.1-.6-.1c-.2 0-.4-.1-.6-.1l-.6-.1.4-.1.4-.1c.1 0 .3 0 .4-.1l.4-.1c.2-.2.4-.5.5-.7l.5-.7.5-.7.5-.7c.7-.1 1.4-.3 2.1-.4l2.1-.4 2-.4c.7-.1 1.4-.3 2-.4l.1-.2.1-.2.1-.2.1-.2h4.8c.2-.1.4-.1.6-.2l.6-.2.6-.2c.2-.1.4-.1.6-.2-.3-.5-.6-.9-.9-1.4-.3-.5-.6-.9-.9-1.4l-.9-1.4c-.3-.5-.6-.9-.9-1.4l.8-.7c.3-.2.5-.4.8-.7s.5-.4.8-.7l.8-.7 1.4-.4 1.4-.4 1.4-.4c.5-.1.9-.3 1.4-.4.1.3.1.5.2.8l.2.8.2.8c.1.3.1.5.2.8-.2.2-.5.4-.7.6l-.7.6-.7.6-.7.6-.1.1-.1.1-.1.1-.1.1.2-.1.2-.1.2-.1c.1 0 .1-.1.2-.1l.3.1.3.1c.1 0 .2 0 .3.1l.3.1v1.2c-.2-.1-.3-.2-.5-.3-.2-.1-.3-.2-.5-.2l-.5-.2-.5-.2c-.1.1-.2.1-.2.2l-.2.2-.2.2-.2.2c.5.1.9.3 1.4.4s.9.3 1.4.4l1.4.4c.5.1.9.3 1.4.4-.1.1-.2.2-.2.3s-.2.2-.2.3l-.3.3-.3.3 1.7-.3 1.7-.3 1.7-.3 1.7-.3 1.5.5 1.5.5c.5.2 1 .3 1.5.5l1.5.5c0-.1 0-.1.1-.2s0-.1.1-.2l.1-.2.1-.2h-2c1.4-.2 2.8-.3 4.2-.5l4.2-.5 4.2-.5 4.2-.5c-.1 0-.2-.1-.4-.1l-.4-.1-.4-.1-.4-.1 1.1.2c.4 0 .7.1 1.1.1l1.1.1 1.1.1.2-.3.2-.3.2-.3.2-.3h1.2l.3-.1.3-.1.3-.1c.1 0 .2-.1.3-.1l.9-1.5.9-1.5.9-1.5.9-1.5 1.7.4 1.7.4 1.7.4 1.7.4.6-.4.6-.4.6-.4.6-.4c0-.2 0-.3.1-.5s0-.3.1-.5 0-.3.1-.5.1-.3.1-.5h-1.4c-.1-.1-.3-.1-.4-.2l-.4-.2-.4-.2-.4-.2c-.1-.1-.1-.3-.2-.4l-.2-.4-.2-.4c-.1-.1-.1-.3-.2-.4 1.2 0 2.3-.1 3.5-.1l3.5-.1 3.5-.1c1.2 0 2.3-.1 3.5-.1l.5-.2.5-.2.5-.2.5-.2h7.6l-1.5-.4c-.5-.1-1-.3-1.5-.4s-1-.3-1.5-.4l-1.5-.4c0-.1.1-.1.1-.2l.1-.2.1-.2c0-.1.1-.1.1-.2-1.7.1-3.4.2-5 .4-1.7.1-3.4.2-5 .4-1.7.1-3.4.3-5 .4s-3.4.3-5 .4c-.4-.2-.8-.5-1.2-.7s-.8-.5-1.2-.7-.8-.5-1.2-.7-.8-.5-1.2-.7c-.1-.4-.2-.7-.3-1.1s-.2-.7-.3-1.1-.2-.7-.3-1.1-.2-.7-.3-1.1c1.2-.6 2.4-1.1 3.7-1.7 1.2-.6 2.4-1.1 3.7-1.7 1.2-.6 2.4-1.1 3.7-1.7s2.4-1.1 3.7-1.7c-.5-.2-.9-.3-1.4-.5l-1.4-.5-1.4-.5-1.4-.5c-.6.1-1.1.2-1.7.3l-1.7.3-1.7.3-1.7.3c-.1.2-.2.4-.3.7s-.2.4-.3.7c-.1.2-.2.4-.3.7l-.3.7-2.5 1-2.5 1-2.5 1-2.5 1c-.3.5-.7 1-1 1.5l-1 1.5c-.3.5-.7 1-1 1.5s-.7 1.1-1 1.6l1.4.5 1.4.5 1.4.5c.5.2 1 .3 1.4.5l-1.9 1.1c-.6.4-1.3.8-1.9 1.1l-1.9 1.1c-.6.4-1.3.8-1.9 1.1l-.3.9-.3.9-.3.9-.3 1c-.5.1-1 .3-1.5.4s-1 .3-1.5.4l-1.5.4-1.5.4-.3.3-.3.3-.3.3-.3.3-1.6.4-.6.1-.6.1-.6.1c-.2-.1-.4-.1-.6-.2l-.6-.2c-.2-.1-.4-.1-.6-.2l-.6-.2-2-2.6c-.7-.9-1.3-1.8-2-2.6-.7-.9-1.3-1.7-2-2.6l-2-2.6-2 1c-.7.3-1.3.7-2 1l-2 1c-.7.3-1.3.7-2 1-.7-.1-1.5-.2-2.2-.3l-2.2-.3-2.3-.3-2.3-.3-.9-1.2-.9-1.2-.9-1.2-.9-1.2.9-1 .9-1 .9-1c.3-.3.6-.7.9-1l1.7-.5 1.7-.5c.6-.2 1.1-.3 1.7-.5l1.7-.5c.4-.2.9-.4 1.3-.6l1.3-.6c.4-.2.9-.4 1.3-.6.4-.2.9-.4 1.3-.6l2.1-1.2 2.1-1.2 2.1-1.2 2.1-1.2 1.7-.7c.6-.2 1.1-.5 1.7-.7.6-.2 1.1-.5 1.7-.7.6-.2 1.1-.5 1.7-.7.2-.1.4-.3.5-.4.2-.1.4-.3.5-.4l.5-.4c.2-.1.4-.3.5-.4 1.4-.7 2.7-1.3 4.1-2 1.4-.7 2.7-1.3 4.1-2l4.1-2c1.3-.7 2.7-1.3 4-1.9l3.6-.6 3.6-.6 3.6-.6 3.6-.6 1.1-.5 1.1-.5c.4-.2.8-.3 1.1-.5l1.1-.5c.5 0 1-.1 1.5-.1l1.5-.1 1.5-.1 1.5-.1c-.3.3-.7.5-1 .8s-.7.5-1 .8-.7.5-1 .8-.7.5-1 .8l1.3-.6 1.3-.6c.4-.2.9-.4 1.3-.6l1.3-.6c.1.1.1.2.2.4l.2.4c.1.1.1.2.2.4l.2.4c.2-.1.5-.3.7-.4l.7-.4.7-.4.7-.4h3.6c-.1.1-.3.2-.4.3l-.4.3c-.1.1-.3.2-.4.3l-.3.5.8-.2.8-.2.8-.2.8-.2 1.6.3c.5.1 1.1.2 1.7.3l1.7.3 1.7.3-.6.3-.6.3-.6.3-.6.3-1.3-.1-1.3-.1-1.3-.1-1.4-.1.8.3.8.3.8.3.8.3 2-.1 2-.1 2-.1 2-.1.9.2c.3.1.6.1.9.2l.9.2.9.2h-3.2l7.8 1.8 7.8 1.8 7.8 1.8c2.6.6 5.2 1.2 7.8 1.9-.1.2-.1.4-.2.6-.1.2-.1.4-.2.6-.1.2-.1.4-.2.6l-.2.6-.7.3c-.2.1-.5.2-.7.3s-.5.2-.7.3l-.7.3c-2.2-.3-4.3-.5-6.5-.8-2.2-.3-4.3-.5-6.5-.8-2.1-.3-4.3-.5-6.5-.8-2.2-.3-4.3-.5-6.4-.8l1.7.9c.6.3 1.1.6 1.7.9l1.7.9 1.7.9c.2.3.3.7.5 1 .2.3.3.7.5 1s.3.7.5 1 .3.7.5 1c.7.1 1.5.3 2.2.4l2.2.4 2.2.4c.7.1 1.5.3 2.2.4-.1-.1-.1-.2-.2-.4-.1-.1-.1-.2-.2-.4l-.2-.4-.2-.4-.8-.3-.8-.3-.8-.3-.8-.3h5.6l1.9.3 1.9.3 1.9.3 1.9.4-.5-.7c-.2-.2-.3-.4-.5-.7s-.3-.4-.5-.7l-.5-.7 2.4-.6 2.4-.6 2.4-.6 2.4-.6 1.5.3 1.5.3 1.5.3 1.5.3c.1-.2.1-.3.2-.5s.1-.3.2-.5.1-.3.2-.5l.2-.5-.6-.4-.5-.4-.5-.4-.6-.4.3-.6.3-.6.3-.6.3-.6c-.2-.1-.4-.2-.6-.4l-.6-.4-.6-.4-.6-.4c.6.1 1.2.1 1.8.2l1.8.2 1.8.2c.6.1 1.2.1 1.8.2.3.2.7.4 1 .5l1 .5 1 .5c.3.2.7.4 1 .5H769.6l-1.3.1.5.5.5.5.5.5.5.5c.4 0 .8.1 1.2.1.4 0 .8.1 1.2.1l1.2.1 1.2.1.4-.4.5-.4.5-.4.4-.4 4.9-.8c1.6-.3 3.3-.5 4.9-.8s3.3-.5 4.9-.8c1.6-.3 3.3-.5 4.9-.8l1 .5c.3.2.6.3 1 .5l1 .5c.3.2.6.3 1 .5l1.1-.3 1.1-.3 1.1-.3 1.1-.3 3 .1 3 .1 3 .1 3 .1-.3.2c-.1.1-.2.2-.3.2l-.3.2c-.1.1-.2.2-.3.2l1.2-.1c.4 0 .8-.1 1.2-.1.4 0 .8-.1 1.2-.1l1.2-.1-.3-.6-.3-.6-.3-.6-.3-.6 6 .8c2 .3 4 .5 6 .8 2 .3 4 .6 6 .8 2 .3 4 .6 6 .8.5.2 1 .4 1.6.6l1.6.6c.5.2 1 .4 1.6.6l1.6.6c0-.2 0-.4.1-.6s0-.4.1-.6c0-.2 0-.4.1-.6s0-.4.1-.6l-1.7-.7-1.7-.7c-.6-.2-1.1-.4-1.7-.7l-1.7-.7.3-.6.3-.6.3-.6.3-.6c-.3-.1-.7-.3-1-.4l-1-.4-1-.4-1-.4c.5-.2 1.1-.3 1.6-.5l1.6-.5 1.6-.5 1.6-.5.6-.7.6-.7c.2-.2.4-.5.6-.7l.6-.7c1 .1 2 .2 3 .2 1 .1 2 .2 3 .2 1 .1 2 .2 3 .2l3 .3h1.6l-.3.4-.3.4-.3.4-.3.4-.4.4-.4.4c-.1.1-.2.3-.4.4-.1.1-.2.3-.3.4l.5.6.5.6.5.6.5.6.1.1.1.1.1.1.1.1v.8c0 .4-.1.8-.1 1.2s-.1.8-.1 1.2c0 .4-.1.8-.1 1.2 0 .4-.1.8-.1 1.2l.4.2.4.2.4.2.4.2.5.3.5.3c.2.1.3.2.5.3l.5.3-.4.4-.4.4c-.1.1-.3.2-.4.4l-.4.4-.3.2-.3.2-.3.2-.3.2-1.7.3c-.6.1-1.1.2-1.7.3-.6.1-1.1.2-1.7.3l-1.7.4c-.4-.1-.9-.1-1.3-.2l-1.4-.2-1.3-.2-1.3-.2c.9.2 1.7.4 2.6.5l2.6.5 2.6.5 2.6.6.9-.3.9-.3.9-.3.9-.3 1.4-.4c.5-.1.9-.3 1.4-.4l1.4-.4 1.4-.4.3-.9.3-.9.3-.9.3-.9h4.8c.4.2.7.4 1.1.6l1.1.6 1.1.6 1.1.6c-.2-.2-.3-.4-.5-.6l-.5-.6c-.2-.2-.3-.4-.5-.6-.2-.2-.3-.4-.5-.6l-2.9-.3-2.9-.3-2.9-.3-2.9-.3-.3-.6-.3-.6-.3-.6-.3-.6.4-.6.4-.6.4-.6c.1-.2.3-.4.4-.6l-.7-.7-.7-.7-.7-.7-.7-.7c.4-.1.9-.2 1.3-.3l1.3-.3c.4-.1.9-.2 1.3-.3s.9-.2 1.3-.3c0-.2-.1-.4-.1-.6s-.1-.4-.1-.6-.1-.4-.1-.6-.1-.4-.1-.6c.2.2.5.3.7.5l.7.5.7.5.7.5.1.7c0 .2.1.4.1.7l.1.7.1.7 3 .5 3 .5 3 .5 3 .5-2.3-.6-2.3-.6-2.3-.6-2.3-.6 1-.4 1-.4 1-.4 1-.4 4.4.7 4.5.7 4.5.7 4.5.7c-.1-.2-.3-.4-.4-.5l-.4-.5-.4-.5c-.1-.2-.3-.4-.4-.5l-1.2-.2c-.4-.1-.8-.1-1.2-.2l-1.2-.2c-.4-.1-.8-.1-1.2-.2-.2-.3-.4-.6-.5-.9s-.4-.6-.5-.9l-.5-.9-.5-.9c1.8.1 3.7.1 5.5.2s3.7.2 5.5.2c1.8.1 3.7.2 5.5.2l5.5.3.8-.9c.3-.3.6-.6.8-.9s.6-.6.8-.9.6-.6.8-.9c3.7-.1 7.5-.1 11.3-.2s7.5-.1 11.3-.2c3.8 0 7.5-.1 11.3-.1s7.5-.1 11.3-.1c.2-.1.4-.3.6-.4l.6-.4.6-.4.6-.4 1.8-.2 1.8-.2 1.8-.2 1.8-.2c.9.2 1.7.3 2.6.5l2.6.5 2.6.5 2.6.5h-6.8l2.8.5 2.8.5 2.8.5c.9.2 1.8.3 2.8.5-.4.1-.7.2-1.1.3l-1.1.3-1.1.3-1.1.3 1.5.2 1.5.2 1.5.2 1.5.2.1-.4.1-.4.1-.4.1-.4c1 .2 2 .3 3 .5l3 .5c1 .2 2 .3 3 .5s2 .3 3 .5c.8.4 1.6.8 2.4 1.1l2.4 1.1 2.4 1.1 2.4 1.2c-.1.1-.2.2-.4.3l-.4.3-.4.3-.4.3c-2.4.3-4.9.7-7.3 1-2.4.3-4.9.7-7.3 1-2.4.4-4.8.7-7.3 1.1s-4.8.7-7.3 1.1h20.5c2.5.3 4.9.7 7.4 1 2.5.3 5 .7 7.4 1 2.5.3 5 .7 7.5 1.1 2.5.4 5 .7 7.5 1.1l-.8.1-.8.1-.8.1-.8.1c.5.2 1 .3 1.4.5l1.4.5 1.4.5 1.4.5c1.1.1 2.1.2 3.2.3l3.2.3 3.2.3 3.2.3c.3-.1.5-.2.8-.3l.8-.3.8-.3.8-.3 3.4.3 3.4.3c1.1.1 2.3.2 3.4.3 1.1.1 2.3.2 3.4.3.4.3.9.5 1.3.8s.9.5 1.3.8l1.3.8 1.3.8.1 1.4.1 1.4.1 1.4c0 .5.1.9.1 1.4l1.7.7c.6.2 1.1.4 1.7.6.6.2 1.1.4 1.7.7l1.7.6c.4-.1.7-.3 1.1-.4l1.1-.4 1.1-.4 1.1-.4h4c.5.1 1 .3 1.5.4l1.5.4 1.5.4c.5.1 1 .3 1.6.4.5 0 1 .1 1.5.1l1.5.1c.5 0 1 .1 1.5.1s1 .1 1.5.1l1.5.5 1.5.5c.5.2 1 .3 1.5.5l1.5.5h6.8l-.6-.6-.6-.6-.6-.6-.6-.6.9-.3.9-.3.9-.3.9-.3c2.9.7 5.9 1.4 8.8 2.2s5.9 1.5 8.9 2.2c3 .7 5.9 1.5 8.9 2.2 3 .7 5.9 1.5 8.9 2.3l2.2 1.2 2.2 1.2c.7.4 1.5.8 2.2 1.2l2.2 1.2 6.1 1.1c2 .4 4.1.7 6.1 1.1 2 .4 4.1.7 6.1 1.1 2 .4 4.1.7 6.1 1.1l1 .5 1 .5 1 .5 1 .5v2.4c2.7.6 5.4 1.1 8.1 1.7s5.4 1.2 8.1 1.7c2.7.6 5.4 1.2 8.2 1.8 2.7.6 5.4 1.2 8.2 1.8l1.4.8 1.4.8c.5.3.9.5 1.4.8l1.4.8 1.4.2 1.4.2c.5.1.9.1 1.4.2.5.1.9.1 1.4.2-.2-.3-.3-.7-.5-1l-.5-1-.5-1-.5-1c2 .5 4 1.1 6 1.6s4 1.1 6 1.7l6 1.7c2 .6 4 1.1 6 1.7l2.1.9 2.1.9 2.1.9 2.1.9 6.4 2.7c2.1.9 4.3 1.8 6.4 2.7 2.1.9 4.3 1.8 6.4 2.7l6.5 2.7c.5.3 1 .6 1.4.9l1.4.9 1.4.9 1.4.9c-.2-.2-.3-.4-.5-.6s-.3-.4-.5-.6l-.5-.6c-.2-.2-.3-.4-.5-.6l2.6.7 2.7.7 2.7.7c.9.2 1.8.5 2.7.7l2 1.1 2 1.1c.7.4 1.4.7 2 1.1s1.4.7 2 1.1c-.4 0-.8.1-1.2.1l-1.2.1c-.4.1-.8.1-1.2.2-.4.1-.8.1-1.2.2l-1.4-.4-1.4-.4-1.4-.4-1.4-.4-.3.9-.3.9-.3.9-.3.9-3-1-3-1-3-1c-1-.3-2-.7-3-1l-.8-.7-.8-.7-.8-.7c-.3-.2-.5-.5-.8-.7-.7-.2-1.4-.3-2.1-.5l-2.1-.5-2.1-.5c-.7-.2-1.4-.3-2.1-.5-.2-.2-.5-.4-.7-.6s-.5-.4-.7-.6l-.7-.6c-.2-.2-.5-.4-.7-.6-.1.2-.1.4-.2.7-.1.2-.1.4-.2.7s-.1.4-.2.7c-.1.2-.1.4-.2.7l-3-.2-3-.2-3-.2c-1-.1-2-.1-3-.2l2.3 1.8 2.3 1.8 2.3 1.8 2.3 1.8-.4.2-.4.2-.4.2-.4.2-2.4-.7c-.8-.2-1.6-.4-2.4-.7l-2.4-.7-2.4-.6c-2.1.2-4.1.4-6.2.6-2.1.2-4.1.4-6.2.6-2.1.2-4.1.4-6.2.6s-4.1.4-6.1.6l-2.2-.8c-.7-.3-1.4-.5-2.2-.8l-2.2-.8-2.2-.8c-.6 0-1.2.1-1.8.2l-1.8.2-1.8.2-1.8.2c0-.2-.1-.3-.1-.5s-.1-.3-.1-.5-.1-.3-.1-.5-.1-.3-.1-.5c-.8-.1-1.7-.1-2.5-.2l-2.5-.2-2.5-.2-2.5-.2-1.7 1-1.7 1-1.7 1c-.6.3-1.1.7-1.7 1l1.5.6 1.5.6 1.5.6 1.5.6c.1.3.3.6.4.9s.3.6.4.9.3.6.4.9.3.6.4.9l-6 2.4c-2 .8-4 1.6-6 2.5-2 .8-4 1.7-6 2.5s-4 1.7-6 2.5l-1.5-1.9-1.5-1.9c-.5-.6-1-1.2-1.5-1.9l-1.5-1.8c-.1-.5-.1-1-.2-1.5s-.1-1-.2-1.5-.1-1-.2-1.5-.1-1-.2-1.5l1.8-1.3 1.8-1.3c.6-.4 1.2-.9 1.8-1.3.6-.4 1.2-.9 1.8-1.3l5.7-1.2 5.7-1.2 5.7-1.2 5.7-1.2c.1-.2.2-.5.3-.7s.2-.5.3-.7c.1-.2.2-.5.3-.7s.2-.5.3-.7l1 .1c.3 0 .7.1 1 .1l1 .1 1 .1c-.5-.1-1-.2-1.5-.4s-1-.2-1.6-.4l-1.6-.4-1.6-.4-3 .7c-1 .2-2 .5-3 .7-1 .2-2 .5-3 .8l-3 .8-.2-1c-.1-.3-.1-.7-.2-1-.1-.3-.1-.7-.2-1-.1-.3-.1-.7-.2-1-1.1-.1-2.1-.1-3.2-.2s-2.1-.1-3.2-.2l-3.2-.2-3.2-.2-2.4.7-2.4.7c-.8.2-1.6.5-2.4.7-.8.2-1.6.5-2.4.7l.7.5.7.5.7.5.7.5-3.7-.4c-1.2-.1-2.5-.3-3.7-.4l-3.7-.4c-1.2-.1-2.4-.3-3.7-.4l.9-.1c.3 0 .6-.1.9-.1l.9-.1.9-.1-2.5-.7-2.5-.7-2.5-.7-2.5-.7-1 .1-1 .1-1 .1-1 .1-5.3-.9c-1.8-.3-3.5-.6-5.3-.9l-5.3-.9c-1.8-.3-3.5-.6-5.3-.9-2.4.6-4.7 1.1-7.1 1.7s-4.7 1.1-7.1 1.7c-2.3.6-4.7 1.2-7 1.8-2.3.6-4.7 1.2-7 1.8.5.2 1.1.4 1.6.6l1.6.6 1.6.6 1.6.6.4.5c.1.2.3.3.4.5l.4.5.4.5 1.5-.1 1.5-.1c.5 0 1 0 1.5-.1s1-.1 1.5-.1l2.7 1.2 2.7 1.2 2.7 1.2 2.7 1.2c-2 1.6-4.1 3.3-6.1 4.9s-4.1 3.3-6.1 5c-2 1.7-4.1 3.4-6.1 5.1s-4.1 3.4-6.1 5.1h-6l-.7-.4-.7-.4-.7-.4c-.2-.1-.5-.3-.7-.4l-4.1 1.7c-1.4.6-2.7 1.1-4.1 1.7-1.4.6-2.7 1.2-4.1 1.7-1.4.6-2.7 1.2-4.1 1.7l2 2 2 2 2 2 2 2c-.3.2-.5.5-.8.7l-.8.7-.8.7c-.3.2-.5.5-.8.7l-1.9-.1-1.9-.1-1.9-.1c-.6 0-1.3-.1-1.9-.1-.1-.7-.2-1.3-.3-2-.1-.7-.2-1.3-.3-2-.1-.7-.2-1.3-.3-2-.1-.7-.2-1.3-.3-2-.4-.1-.9-.3-1.3-.4l-1.3-.4-1.3-.4-1.3-.4c.1-.2.3-.5.4-.7s.3-.5.4-.7l.4-.7.4-.7-1.2-.5-1.2-.5-1.2-.5-1.2-.5c-.9.1-1.8.3-2.6.4s-1.8.3-2.6.4c-.9.1-1.8.3-2.6.4s-1.7.3-2.6.4l.9-.9.9-.9.9-.9.9-.9-1.2-.3-1.2-.3-1.2-.3-1.2-.3c-1 .2-2 .4-3.1.7l-3.1.7c-1 .2-2 .4-3 .7l-3.1.7c.4.2.7.5 1.1.7.4.2.7.5 1.1.7l1.1.7 1.1.7c1.2.2 2.5.5 3.7.7 1.2.2 2.5.5 3.7.7l3.7.8 3.7.8-3.1.9c-1 .3-2.1.6-3.1.9l-3.1.9-3.1.9 2.5 2.1 2.5 2.1c.8.7 1.7 1.4 2.5 2.1l2.5 2.2c-.6-.1-1.1-.3-1.7-.4-.6-.1-1.1-.3-1.7-.4l-1.7-.4-1.7-.4 1.8.9 1.8.9 1.9.9c.6.3 1.2.6 1.9.9l-1.3.3-1.3.3c-.4.1-.9.2-1.3.3l-1.3.3 1.7.5 1.7.5 1.7.5c.6.2 1.1.3 1.7.5-1.6.9-3.2 1.8-4.8 2.8s-3.2 1.9-4.8 2.8c-1.6.9-3.2 1.9-4.8 2.8-1.6.9-3.2 1.9-4.8 2.9-1.9.1-3.7.2-5.6.3l-5.5.4-5.5.4-5.5.4-.6.5c-.2.2-.4.4-.6.5l-.6.5-.6.5-.4-.5-.4-.5-.4-.5-.4-.5h2c-.7-.1-1.3-.3-2-.4l-2-.4-2-.4c-.7-.1-1.3-.3-2-.4l-1.7.6-1.7.6c-.6.2-1.2.4-1.7.6l-1.7.6 2.3 1.9-.3.6-.3.6-.3.6c1.1 1 2.3 2.1 3.4 3.1l3.4 3.1 3.4 3.2c1.1 1.1 2.3 2.1 3.4 3.2v5.2c-1.2.4-2.5.8-3.7 1.2s-2.4.8-3.7 1.2c-1.2.4-2.4.8-3.7 1.2s-2.4.8-3.7 1.3c-.1-.3-.1-.6-.2-.8s-.1-.5-.2-.8l-.2-.8c-.1-.3-.1-.5-.2-.8l-3.8-1.9c-1.3-.6-2.5-1.3-3.8-1.9-1.3-.6-2.5-1.3-3.8-1.9-1.3-.6-2.5-1.3-3.8-1.9v-.4-.4-.4-.4l-1.2 1.4-1.2 1.5-1.2 1.5-1.2 1.5v1.6l.6.9.6.9.6.9.6.9.6.6.6.6.6.6.6.6c.9.6 1.8 1.1 2.7 1.7l2.7 1.7c.9.6 1.8 1.1 2.7 1.7l2.7 1.7c.3.7.7 1.4 1 2.2.3.7.7 1.5 1 2.2l1 2.2 1 2.2c-.7-.3-1.4-.7-2.2-1l-2.1-1-2.1-1-2.1-1-.6-.9-.6-.9-.6-.9-.6-.9c-.2-.3-.3-.6-.5-.9-.2-.3-.4-.6-.5-.9s-.4-.6-.5-.9l-.5-.9c-.6-.5-1.1-.9-1.7-1.4-.5-.5-1.1-.9-1.6-1.4s-1.1-.9-1.6-1.4-1.1-.9-1.7-1.4l-.6-2.4-.6-2.4-.6-2.3-.6-2.3-.6.3-.6.3-.6.3-.6.3c-.2-.5-.4-.9-.6-1.4s-.4-.9-.6-1.4-.4-.9-.6-1.4-.4-.9-.6-1.4l-.3-1.5-.3-1.5-.3-1.5-.3-1.5c-.2-.3-.4-.5-.5-.8-.2-.3-.4-.5-.5-.8l-.5-.8c-.2-.3-.4-.5-.5-.8-.3.2-.6.3-.9.5s-.6.3-.9.5l-.9.5c-.3.2-.6.3-.9.5l-1 .1-1 .1-1 .1-1 .1-.5-.5-.5-.5-.5-.5c-.2-.2-.4-.3-.5-.5 0-.2.1-.5.1-.7l.1-.7.1-.7c0-.2.1-.5.1-.7l-3-2.9-3-2.9-3-2.9c-1-1-2-1.9-3-2.9l-1.2.3-1.2.3-1.2.3-1.3.3-2.8-.1-2.8-.1-2.8-.1-2.8-.1v1.6c-1.8.7-3.7 1.4-5.5 2.1-1.8.7-3.7 1.4-5.5 2.1-1.8.7-3.7 1.4-5.5 2.1-1.8.7-3.7 1.4-5.5 2.2-.1.7-.3 1.4-.4 2.1s-.3 1.4-.4 2.1-.3 1.4-.4 2.1-.3 1.4-.4 2.1c-.2.3-.5.6-.7 1s-.5.6-.7 1-.5.6-.7 1-.5.6-.7 1l-.3.6-.3.6-.3.6-.3.6-.2.1-.2.1-.2.1-.2.1-1 .3-1 .3-1 .3-1 .3c-.7-.7-1.5-1.3-2.2-2-.7-.7-1.5-1.3-2.2-2-.7-.7-1.5-1.3-2.2-2s-1.5-1.3-2.2-2c-.8-1-1.6-1.9-2.3-2.9-.8-1-1.6-1.9-2.3-2.9-.8-1-1.6-1.9-2.3-2.9l-2.3-2.9c0-1.1 0-2.3-.1-3.4v-3.4c0-1.1 0-2.2-.1-3.3v-3.3l-.9.6-.9.6-.9.6-.9.6-.8.1-.8.1-.8.1-.8.1c-.6-.3-1.1-.6-1.7-.9l-1.7-.9-1.7-.9-1.7-.9c.4-.1.9-.1 1.3-.2l1.3-.2 1.3-.2c.4-.1.9-.1 1.3-.2h-2.8c-.6-.2-1.2-.4-1.8-.7l-1.8-.7-1.8-.7c-.6-.2-1.2-.4-1.8-.7-.3-.3-.6-.6-.8-.9s-.6-.6-.8-.9l-.8-.9c-.3-.3-.6-.6-.8-.9l-7.2-.6-7.2-.6c-2.4-.2-4.8-.4-7.1-.6-2.4-.2-4.8-.4-7.1-.6l-2.5-.9-2.5-.9-2.5-.9-2.5-.9-2-.1-2-.1-2-.1-2-.1c-1.2-.7-2.3-1.4-3.5-2-1.2-.7-2.3-1.3-3.5-2-1.2-.7-2.3-1.3-3.5-2s-2.3-1.3-3.5-2l-1.7.3-1.7.3-1.7.3-1.7.3c.9.9 1.7 1.8 2.6 2.6s1.7 1.8 2.6 2.7l2.6 2.7c.9.9 1.7 1.8 2.6 2.7.1-.3.1-.5.2-.8s.1-.5.2-.8l.2-.8c.1-.3.1-.5.2-.8l.4 1.2.4 1.2c.1.4.3.8.4 1.2.1.4.3.8.4 1.3h10.4c.6-.3 1.2-.6 1.8-1l1.8-1c.6-.3 1.2-.6 1.8-1l1.8-1c.1.4.3.7.4 1.1l.4 1.1.5 1.1.5 1.1 1.8.6 1.8.6 1.8.6 1.8.6c.3.3.6.7.9 1s.6.7.9 1c.3.3.6.7.9 1s.6.7.8 1l-1.2.8-1.2.8c-.4.3-.8.5-1.2.8l-1.2.8c-.1-.1-.1-.2-.2-.2l-.2-.2-.2-.2-.2-.2c-.1.3-.2.5-.4.8l-.4.8c-.1.3-.2.5-.4.8s-.2.5-.4.8l-2 .6-2 .6-2 .6-2 .6-.5.5-.5.5-.5.5c-.2.2-.3.4-.5.5l-.8-.1-.8-.1-.8-.1-.8-.1c-.3.1-.7.1-1 .2l-1 .2-1 .2-1 .2-.8.5c-.3.2-.5.3-.8.5l-.8.5-.8.5c-2.2.4-4.4.8-6.5 1.2-2.2.4-4.4.8-6.5 1.2-2.2.4-4.4.8-6.5 1.2-2.2.4-4.4.8-6.5 1.2l-1.1-.4-1.1-.4c-.4-.1-.7-.3-1.1-.4s-.7-.3-1.1-.4c-2.6-2.9-5.3-5.7-7.9-8.5-2.6-2.8-5.2-5.6-7.9-8.4-2.6-2.8-5.2-5.5-7.8-8.2l-7.8-8.1.2-.8c.1-.3.1-.5.2-.8s.1-.5.2-.8.1-.5.2-.8l-.6.9-.6.9-.6.9-.6.9-1.5-1.2-1.5-1.2-1.5-1.2-1.5-1.2c1.5 2 3 4 4.5 6.1 1.5 2 3 4.1 4.5 6.2 1.5 2.1 3 4.1 4.5 6.2l4.5 6.3 1 .6c.3.2.7.4 1 .6s.7.4 1 .6.7.4 1 .6c.3.5.7 1 1 1.5.3.5.7 1 1 1.5l1 1.5 1 1.5 1.1.3 1.1.3 1.1.3 1.1.3c1.1.8 2.2 1.7 3.4 2.5l3.4 2.5 3.4 2.5c1.1.8 2.2 1.7 3.4 2.5 1.9-.1 3.9-.3 5.8-.4 1.9-.1 3.9-.3 5.8-.4 1.9-.1 3.9-.3 5.8-.4l5.8-.4c-.4.7-.8 1.4-1.2 2l-1.2 2-1.2 2.1-1.2 2.1-1.6 2.2c-.5.7-1.1 1.5-1.6 2.2l-1.6 2.2-1.6 2.2-3.4 1.2-3.4 1.2-3.4 1.3c-1.1.4-2.3.8-3.4 1.3-1.5 1.3-3 2.7-4.5 4.1-1.5 1.4-3 2.7-4.5 4.1-1.5 1.4-3 2.7-4.5 4.1l-4.5 4.2c.5 1.4 1.1 2.9 1.6 4.4s1.1 2.9 1.6 4.4c.5 1.5 1.1 2.9 1.6 4.4.5 1.5 1.1 3 1.6 4.5l.1.4.1.4.1.4.1.4c-1.8 1.2-3.6 2.4-5.3 3.7-1.8 1.2-3.6 2.5-5.3 3.7-1.8 1.2-3.6 2.5-5.4 3.7-1.8 1.3-3.6 2.5-5.4 3.8l.8 1.1.8 1.1c.3.4.5.8.8 1.1l.8 1.1c-.1.4-.1.9-.2 1.3s-.1.9-.2 1.3-.1.9-.2 1.3-.1.9-.2 1.3l-1.8.5-1.8.5c-.6.2-1.2.3-1.8.5l-1.8.5-.8 2.1c-.2.7-.5 1.4-.7 2.1s-.5 1.4-.8 2.1c-.3.7-.5 1.4-.8 2.1-1.7 1.2-3.4 2.3-5.2 3.5s-3.4 2.4-5.2 3.6c-1.7 1.2-3.5 2.4-5.2 3.6s-3.5 2.4-5.2 3.6l-6 .9c-2 .3-4 .6-6 1-2 .3-4 .6-6 1s-4 .7-6 1c-1.2-1-1.9-1.5-2.5-1.9zm485.3-11.2l-3.1-1.2c-1-.4-2.1-.8-3.1-1.2-1-.4-2.1-.8-3.1-1.2l-1.8-1.3c-.6-.4-1.2-.9-1.8-1.3l-1.8-1.3c-.6-.4-1.2-.9-1.8-1.3-.6-.2-1.3-.4-1.9-.5l-1.9-.5c-.6-.2-1.3-.3-1.9-.5l-1.9-.5-.8.6-.8.6c-.3.2-.5.4-.8.6s-.5.4-.8.6l-2-.3c-.7-.1-1.4-.2-2-.3l-2-.3-2-.3-1.1-.8c-.4-.3-.8-.5-1.1-.8s-.8-.5-1.1-.8-.8-.5-1.1-.8l-2.1-.3-2.1-.3-2.1-.3-2.1-.3 1-.5 1-.5 1-.5 1-.5-.9-1.2-.9-1.2-.9-1.2-.9-1.2-3.7-1.6-3.7-1.6-3.7-1.5c-1.2-.5-2.4-1-3.7-1.5l-.8-.7-.8-.7-.8-.7c-.3-.2-.6-.5-.8-.7-.2.1-.5.3-.7.4l-.7.4c-.2.1-.5.3-.7.4l-.7.4-1-1-1-1-1-1-1-1 1.8.3 1.8.3 1.8.3 1.8.3v-.2-.2-.2-.2l-1.8-.4c-.6-.1-1.2-.2-1.8-.4l-1.8-.4c-.6-.1-1.2-.2-1.8-.4-.1-.1-.2-.3-.2-.4l-.2-.4-.2-.4-.2-.4c-.3-.1-.6-.2-.9-.2s-.6-.2-.9-.2l-.9-.2-.9-.2 2.2-.1 2.2-.1 2.2-.1 2.2-.1c.3.2.6.3.9.5l.9.5.9.5.9.5c.2.3.3.6.5.9l.5 1 .5 1 .5 1 .9.6.9.6.9.6.9.6c.3-.1.5-.3.8-.4.3-.1.5-.3.8-.4l.8-.4c.3-.1.5-.3.8-.4.6 0 1.2 0 1.7-.1.6 0 1.2 0 1.7-.1l1.7-.1 1.7-.1c2.3 1 4.7 1.9 7 2.9s4.7 1.9 7.1 2.9c2.4 1 4.7 2 7.1 2.9s4.7 2 7.1 3c.2.3.4.5.6.8l.6.8.6.8.6.8 2.1 1.2 2.1 1.2 2.1 1.2 2.1 1.2-.9-.1-.9-.1-.9-.1-.9-.1c1.3 1 2.7 2.1 4 3.1l4 3.1c1.3 1 2.7 2.1 4 3.1 1.3 1 2.7 2.1 4 3.2-.5-1.1-1.5-1.5-2.6-1.9zm22-5l-.8-.1-.8-.1-.8-.1c-.2-.3-.3-.6-.5-.9l-.5-.9c-.2-.3-.3-.6-.5-.9s-.3-.6-.5-.9l.7.5.7.5.7.5c.2.2.5.3.7.5l.6.4.6.4c.2.1.4.3.6.4l.6.4-.8.3zm-23.5-5.7l-2.1-.9-2.1-.9-2.1-.9c.4.1.8.1 1.2.2s.8.1 1.2.2.8.1 1.2.2l1.2.2h6l2 .1c.1-.1.2-.3.3-.4l.3-.4c.1-.1.2-.3.3-.4s.2-.3.3-.4c0 .2.1.4.1.6s.1.4.1.6.1.4.1.6.1.4.1.6l-.4.3c-.1.1-.2.2-.4.3l-.4.3c-.1.1-.2.2-.4.3-.4.1-.8.1-1.2.2s-.8.1-1.2.2l-1.2.2-1.2.2-1.7-1zm-72.7 0l-1.2-.2-1.2-.2-1.2-.2 1.1-.1 1.1-.1c.4 0 .7-.1 1.1-.1l1.1-.1.1.3c0 .1.1.2.1.3s.1.2.1.3.1.2.1.3l-1.2-.2zm82.4-2.4c-.8-.6-1.5-1.2-2.3-1.8l-2.3-1.8-2.3-1.8 1.9 1.1 1.9 1.1 1.9 1.1 1.9 1.1.3.1.3.1.3.1.3.1c0 .2 0 .4.1.6s0 .4.1.6 0 .4.1.6 0 .4 0 .6l-2.2-1.8zm-401.2 1.3c-.5-.1-.9-.3-1.4-.4s-.9-.3-1.4-.4-.9-.3-1.4-.4l-.5-2.4c-.2-.8-.4-1.6-.5-2.4-.2-.8-.4-1.6-.5-2.4l-.5-2.4.9-1.1.9-1.1c.3-.4.6-.7.9-1.1.3-.4.6-.7.9-1.1l-.5-1.3c-.2-.4-.3-.8-.5-1.3-.2-.4-.3-.8-.5-1.3s-.3-.8-.5-1.3l.5-.9c.2-.3.3-.6.5-.9.2-.3.3-.6.5-.9s.3-.6.5-.9l1.8-.3 1.8-.3 1.8-.3 1.8-.3 1.7-1.3 1.7-1.3c.6-.4 1.1-.9 1.7-1.3l1.7-1.3.3-.3.3-.3.3-.3.3-.3 1 .3 1 .3c.3.1.7.2 1 .3s.7.2 1 .3h.4l.1.1c.1.6.1 1.1.2 1.7s.1 1.1.2 1.7c.1.6.1 1.1.2 1.7.1.6.1 1.1.2 1.7-.2-.1-.3-.2-.5-.3l-.5-.3-.5-.3-.5-.3c-.7 2-1.5 3.9-2.2 5.9s-1.5 4-2.2 6c-.7 2-1.5 4-2.2 6-.7 2-1.5 4.1-2.2 6.1l-1.3.2-1.3.2-1.3.2-1.3.2c-.9.1-1.4 0-1.9-.1zm289.9-7.7l.2-.5c.1-.2.1-.3.2-.5s.1-.3.2-.5l1.1-.2c.4-.1.7-.1 1.1-.2s.7-.1 1.1-.2.7-.1 1.1-.2c.1-.1.2-.1.2-.2s.1-.1.2-.2l.2-.2.2-.2 1.9.2 1.9.2c.6.1 1.3.1 1.9.2l2 .2-2.4.6-2.4.6-2.4.6-2.4.6h-4.4l.5-.1zm2.5-3.7l-3.4-.1-3.4-.1-3.4-.1-.6-.1-.6-.1-.6-.1c-.2 0-.4-.1-.6-.1l-1.1-.5-1.1-.5c-.4-.2-.7-.3-1.1-.5-.4-.2-.7-.3-1.1-.5 1.7.2 3.4.5 5 .7l5.1.7c1.7.2 3.4.5 5.1.8s3.4.5 5.1.8c-1-.2-2.2-.2-3.3-.3zm-24.8-2.9l-2.5-.4-2.5-.4c-.8-.1-1.7-.3-2.5-.4l.6-.3.6-.3.6-.3.6-.3.9.4c.3.1.6.2.9.4s.6.2.9.4l.9.3c.1-.1.2-.1.3-.2l.3-.2.3-.2.3-.2c.2.2.5.4.7.5l.7.6c.2.2.5.4.7.6l.7.5-2.5-.5zm-14.9-2.8l-2.6-.7-2.6-.7-2.6-.7h-.3l-.3.1-.3.1-.3.1c-1.6-.4-3.3-.9-4.9-1.3-1.6-.4-3.3-.9-4.9-1.3l-4.9-1.3c-1.6-.4-3.3-.9-4.9-1.3v-.8l-.7-.6c-.2-.2-.5-.4-.7-.6s-.5-.4-.7-.6c-.2-.2-.5-.4-.7-.6l.5-.1.5-.1.5-.1.5-.1c2 .4 4 .9 6 1.3s4 .9 6 1.4c2 .5 4 .9 6 1.4 2 .5 4 .9 6 1.4l1 .6 1 .6c.3.2.7.4 1 .7.3.2.7.4 1 .7l1 .8c.3.3.6.5 1 .8l1 .8c.3.3.6.5 1 .8-.8-.2-1.7-.5-2.6-.7zm61.8-1.6l-2-.7-2-.7-1.9-.7c-.1 0-.2.1-.3.2l-.3.2c-.1.1-.2.1-.3.2l-.3.2-.7-.4-.7-.4-.7-.4-.7-.4h5.4l1.6 1 1.6 1 1.6 1 1.6 1c-.6-.7-1.2-.9-1.9-1.1zm-29-.3c-.2-.1-.4-.2-.6-.4l-.6-.4c-.2-.1-.4-.3-.6-.4l1-.2 1-.2 1-.2c.3-.1.6-.1 1-.2l-.4.6c-.1.2-.3.4-.4.6-.1.2-.3.4-.4.6l-.4.6-.6-.4zm-9.7-1.8l-1-.2-1-.2-1-.2c.1-.3.1-.6.2-.9.1-.3.1-.6.1-.9 0-.3.1-.6.1-.9s.1-.6.1-.9c-.2-.1-.4-.3-.6-.4l-.6-.4c-.2-.1-.4-.3-.6-.4-.2-.1-.4-.3-.6-.4 0-.3.1-.7.1-1 0-.3.1-.7.1-1 0-.3.1-.6.1-1s.1-.6.1-1v-1.2c.4-.4.8-.8 1.2-1.3.4-.4.8-.8 1.2-1.3l1.2-1.3 1.2-1.2 3.1.7 3.1.7c1 .2 2.1.5 3.1.7l3.1.7-.8.2c-.3.1-.5.1-.8.2s-.5.1-.8.2l-.8.2c-.9-.1-1.8-.3-2.7-.4l-2.7-.4-2.7-.4-2.7-.4c.4.3.8.7 1.1 1s.8.7 1.1 1 .8.7 1.1 1 .8.7 1.1 1h4.4l.2.1.2.1.2.1.2.1c.2.1.4.1.5.2l.5.2.5.2.5.2-1.9.2-1.9.2-1.9.2-1.9.2c.4.3.7.6 1.1.9l1.1.9 1.1.9c.4.3.7.6 1.1.9-.1.1-.1.2-.2.3s-.1.2-.2.3l-.2.3-.2.3c.2.2.4.4.6.5.2.2.4.4.6.5l.6.5.6.5-.6.2-.6.2-.6.2c-.2.1-.4.1-.7.2l-.6-.4-.6-.4c-.2-.1-.4-.2-.6-.4l-.6-.4-.8-1.1-.8-1.1-.8-1.1c-.3-.4-.5-.7-.8-1.1l-.2 1.7c-.1.6-.1 1.1-.2 1.7l-.2 1.7c-.1.6-.1 1.1-.2 1.7l.2-.3zm29.7-6.5l-.8-.5-.8-.5-.8-.5-.1-.4-.1-.4-.1-.4-.1-.4c0-.3-.1-.5-.1-.8 0-.3-.1-.5-.1-.8l-.1-.8c0-.3-.1-.5-.1-.8l.9-.3.9-.3.9-.3.9-.3c0 .1.1.2.1.4s.1.2.1.4.1.2.1.4.1.2.1.4c-.1.1-.2.1-.2.2l-.2.2-.2.2-.2.2v1.6l.2.1.2.1.2.1.2.1.4.4.4.4.4.4c.1.1.3.2.4.4l-.5.6c-.2.2-.3.4-.5.6l-.5.6-.5.6-.4-.9zm-45 .1l-.3-.3-.3-.3c-.1-.1-.2-.2-.2-.3l-1.3.2-1.3.2-1.3.2-1.3.2c-.1-.2-.2-.3-.3-.5l-.3-.5-.3-.5-.3-.5-2.3-.3-2.3-.3-2.3-.3c-.8-.1-1.6-.2-2.3-.3-.1-.1-.1-.3-.2-.4s-.1-.3-.2-.4-.1-.3-.2-.4c-.1-.1-.1-.3-.2-.4l-1.4-.2c-.5-.1-.9-.1-1.4-.2l-1.4-.2c-.5-.1-.9-.1-1.4-.2l-.6-1.2-.6-1.2-.6-1.2-.6-1.2c-.1 0-.2.1-.3.1l-.3.1-.3.1-.3.1-.3-.6-.3-.6-.3-.6-.3-.6c0-.1.1-.1.1-.2l.1-.2c0-.1.1-.1.1-.2l.1-.2-.3-.4-.3-.4-.3-.4c-.1-.1-.2-.3-.3-.4 0-.2.1-.4.1-.6l.1-.6c0-.2.1-.4.1-.6s.1-.4.1-.6c.2 0 .4-.1.6-.1l.6-.1.6-.1c.2 0 .4-.1.6-.1.5.2 1.1.4 1.6.6.5.2 1.1.4 1.6.6s1.1.4 1.6.6l1.6.6c0-.2 0-.4-.1-.6s0-.4-.1-.6 0-.4-.1-.6 0-.4-.1-.6c1.6-.6 3.3-1.3 4.9-1.9 1.6-.6 3.3-1.2 4.9-1.9 1.6-.6 3.3-1.2 4.9-1.8 1.6-.6 3.3-1.2 4.9-1.8.8.4 1.6.9 2.4 1.3.8.4 1.6.9 2.4 1.3.8.4 1.6.9 2.4 1.3l2.4 1.4h-3.9c.1.1.3.2.4.4l.4.4.4.4.4.4-1.1.1-1.1.1-1.1.1-1.1.1.6.9.6.9.6.9.6.9c0 .1 0 .2-.1.3 0 .1 0 .2-.1.3s0 .2-.1.3 0 .2-.1.3c.2.1.4.3.6.4.2.1.4.3.6.4s.4.3.6.4.4.3.6.4c-.4.6-.8 1.3-1.2 2l-1.2 2-1.2 2-1.2 2-.6.9-.6.9-.6.9-.6.9c.1.1 0 0-.1-.2zm-40.3-1.3c-.3-.1-.7-.3-1-.4l-1-.4c-.3-.1-.7-.3-1-.4v1.2c-.2-.2-.4-.3-.6-.5s-.4-.3-.6-.5l-.6-.5-.6-.5c-2.9-2.5-5.8-4.9-8.7-7.4-2.9-2.4-5.7-4.9-8.6-7.3-2.9-2.4-5.7-4.8-8.6-7.2-2.8-2.4-5.7-4.7-8.5-7.1.5.1 1.1.2 1.6.4l1.6.4c.5.1 1.1.2 1.6.4l1.6.4c2.2 1.2 4.3 2.4 6.5 3.7 2.2 1.2 4.3 2.5 6.5 3.7 2.2 1.2 4.4 2.5 6.5 3.7 2.2 1.3 4.4 2.5 6.5 3.8l-.2.4c-.1.1-.1.3-.2.4l-.2.4-.2.4c.3.1.5.2.8.3l.8.3.8.3.7.3.4 1 .4 1c.1.3.2.7.4 1l.4 1 1.3.6 1.3.6 1.3.6c.4.2.9.4 1.3.6 0 .3 0 .5-.1.8s0 .5-.1.8l-.1.8-.1.8v2.4c-.6 0-1-.2-1.3-.3zm3.7-5.9l-.6-.2c-.2-.1-.4-.1-.6-.2-.2-.1-.4-.1-.5-.2l-.5-.5-.5-.5-.5-.5-.5-.5-.5-.1-.5-.1-.5-.1-.4-.2c.2 0 .4 0 .6-.1l.6-.1.6-.1.6-.1-.1-.2-.1-.2-.1-.2-.1-.2c.4.3.7.5 1.1.8l1.1.8c.4.3.7.5 1.1.8s.7.5 1.1.8c0 .1 0 .2-.1.3l-.1.3-.1.3c0 .1 0 .2-.1.3l-.4-.1zm71.7-11.2c-.1-.2-.3-.4-.4-.7s-.3-.4-.4-.7-.3-.4-.4-.7c0 .2-.1.4-.1.6s-.1.4-.1.6-.1.4-.1.6-.1.4-.1.6h-1.6l-1.2-.4-1.2-.4-1.2-.4c-.4-.1-.8-.3-1.2-.4l-.6-.8c-.2-.3-.4-.6-.6-.8l-.6-.8c-.2-.3-.4-.6-.6-.8l.1.2.1.2.1.2.1.2c-.1-.1-.2-.2-.3-.2l-.3-.2c-.1-.1-.2-.2-.3-.2l-.3-.2c-.3.1-.7.2-1 .3l-1 .3-1 .3-1 .3 1.2-.9 1.2-.9 1.2-.9 1.2-.9.3.5.3.4c.1.1.2.3.3.4s.2.3.3.4l1.7-.3 1.7-.3 1.7-.3 1.7-.3c-.1-.2-.1-.3-.2-.5s-.1-.3-.2-.5l-.2-.5c-.1-.2-.1-.3-.2-.5l.6.4c.2.1.4.3.6.4s.4.3.6.4.4.3.6.4l.3.3.3.3.3.3.3.3-.2.1-.2.1-.2.1c-.1 0-.1.1-.2.1l.3.1.3.1c.1 0 .2.1.3.1s.2.1.3.1c0 .3.1.6.1 1s.1.6.1 1 .1.6.1 1 .1.6.1 1l-.2-.1-.2-.1-.2-.1-.2-.1v1.5c-.1.2-.3 0-.4-.3zm-12.3-7.6l-.5-.3-.5-.3c-.2-.1-.3-.2-.5-.3.1-.2.2-.4.2-.6s.2-.4.3-.6l.3-.6.2-.6c-.4-.3-.8-.6-1.1-.9s-.7-.6-1.1-.9c-.4-.3-.7-.6-1.1-.9s-.7-.6-1.1-.9l.5.1c.2 0 .3 0 .5.1l.5.1.5.1c.4.2.8.4 1.2.7l1.2.7c.4.2.8.4 1.2.7.4.2.8.4 1.2.7-.1.4-.2.7-.4 1.1s-.2.7-.4 1.1-.2.7-.4 1.1-.2.7-.3 1.1c-.1-.5-.3-.6-.4-.7zm1.8-1.5c.2-.3.3-.6.5-1l.5-1c.2-.4.3-.6.5-.9h.5l-.6 1-.6 1-.6 1-.6 1c0-.5.2-.8.4-1.1zm4.9-.4l-.8-1c-.3-.3-.5-.7-.8-1l-.8-1 .7.2.7.2c.2.1.4.1.7.2s.4.1.7.2c.1.3.2.5.3.8s.2.5.3.8.2.5.3.8.2.5.3.8c-.1-.1-.1-.2-.2-.3l-.2-.2-.2-.2c-.1-.1-.1-.2-.2-.2l.1.3c0 .1 0 .2.1.3s0 .2.1.3 0 .2.1.3l-1.2-1.3zm-26.7-1.3l1.9-1.5 1.9-1.5c.6-.5 1.3-1 1.9-1.5l.3.2.3.2.3.2.3.2.1.5.1.5c0 .2.1.3.1.5s.1.3.1.5l-2.3.8c-.8.3-1.5.6-2.3.8l-2.3.8-2.3.8 1.9-1.5zm26.4-1.6l-.8-.8-.8-.8-.8-.8c.4.1.8.3 1.2.4l1.2.4 1.2.4 1.2.4-.4.4-.4.4-.4.4-.4.4-.8-.8zm-3.5-.9l-.5-.4c-.2-.1-.4-.3-.5-.4l-.5-.4-.4.1-.4.1-.4.1-.4.1c0-.1.1-.3.1-.4s.1-.3.1-.4.1-.3.1-.4.1-.3.1-.4c.3.1.6.2.8.3l.8.3c.3.1.6.2.8.3l.8.3v1.2c-.1.3-.3.1-.5 0zm-.8-2.5l-1.5-.9-1.5-.9-1.5-.9c0 .1-.1.3-.1.4s-.1.3-.1.4-.1.3-.1.4-.1.3-.1.4l-.5-.3c-.2-.1-.3-.2-.5-.3s-.3-.2-.5-.3-.3-.2-.5-.3c-.3 0-.5-.1-.8-.1l-.8-.1-.8-.1-.8-.1c-.1-.2-.2-.4-.3-.5s-.2-.4-.3-.5l-.3-.5-.3-.5-.9-.4c-.3-.1-.6-.3-.8-.4l-.8-.4c-.3-.1-.6-.3-.8-.4-.1-.3-.1-.5-.2-.8-.1-.3-.1-.5-.2-.8-.1-.3-.1-.5-.2-.8-.1-.3-.1-.5-.2-.8l.5.3.5.3.5.3c.2.1.3.2.5.3v-1.3-1.3-1.3-1.3c.2 0 .4 0 .6-.1l.6-.1.6-.1.6-.1 1 .2 1 .2c.3.1.7.1 1 .2s.7.2 1 .2v5.6h-1.7v2.4l.5.5.5.5.5.5.5.5c.1 0 .3-.1.4-.1l.4-.1.4-.1.4-.1 1.1.5 1.1.5 1.2.5 1.2.5h1.6l-.4.2c-.1.1-.2.1-.4.2l-.4.2c-.1.1-.2.1-.4.2.1.2.3.4.4.6.1.2.3.4.4.6s.3.4.4.6l.4.6c-.1-1.1-.6-1.4-1.1-1.7zm-10.4-.7l-.9-.9-.9-.9-.9-.9c.2 0 .4.1.7.1l.6.1c.2 0 .4.1.6.1l.7.1c.1.3.2.5.2.8.1.3.2.5.2.8.1.3.2.5.2.8s.2.5.2.8l-.7-.9zm-151.5-6.9l-.2-.5-.2-.5-.2-.5.1-.6c0-.2 0-.4.1-.6s0-.4.1-.6 0-.4.1-.6l.1-.1.1-.1.1-.1.1-.1.1-.3c0-.1 0-.2.1-.3s0-.2.1-.3 0-.2 0-.3l.6.1.6.1.6.1.6.1.7 1.1.7 1.1.7 1.1c.2.4.5.8.7 1.1l-.8.2-.8.2-.8.2c-.3.1-.6.1-.8.2l-.5.1-.5.1-.5.1c-.2 0-.4 0-.5.1-.4-.2-.4-.3-.5-.5zm107-12.2l-.5-.1-.5-.2-.5-.1c-.1-.2-.3-.4-.4-.6l-.4-.6-.4-.6-.4-.6 1.8-.1 1.8-.1c.6 0 1.2-.1 1.8-.1l1.8-.1v-.4c.1.1.2.2.3.4s.2.2.4.4l.4.4c.2.2.2.2.3.4-.1.1-.3.2-.4.3l-.4.3c-.1.1-.3.2-.4.3s-.3.2-.4.3l-.7.1-.7.1-.7.1-.7.1c-.1 0-.1.1-.2.1s-.1.1-.2.1l-.2.1-.2.1h-.3zm-655.7-1.6l-1-.2-1-.2-1-.2 1.7-.2 1.7-.2 1.7-.2 1.7-.2.2.2.2.2.2.2c.1.1.1.1.2.1l-.9.2c-.3.1-.6.1-.9.2s-.6.1-.9.2l-.9.2-1-.1zm696.7-1.8l-.8-1-.8-1c-.3-.3-.5-.7-.8-1l1.1-.7 1.1-.7 1.1-.7c.4-.2.7-.4 1.1-.7.1.3.3.5.4.8s.3.5.4.8c.1.3.3.5.4.8.1.3.3.5.4.8-.2.3-.4.6-.7.9l-.7.9-.7.9c-.2.3-.5.6-.7.9l-.8-1zm-675-.6c-.1-.1-.3-.2-.4-.3l-.4-.3-.4-.3c-.2 0-.5.1-.7.1l-.7.1-.7.1c-.2 0-.5.1-.7.1l-1.5.1-1.5.1-1.5.1-1.5.1c.6-.1 1.3-.2 1.9-.4l1.9-.4 1.9-.4 1.9-.3-1-.5c-.3-.2-.7-.3-1-.5l-1-.5-1-.5 2.1-.4 2.1-.4c.7-.1 1.4-.3 2.1-.4l2.1-.4 2.5.5c.8.2 1.6.3 2.5.5l2.5.5 2.5.5-2.5.4-2.7.5c-.8.1-1.6.3-2.5.4l-2.5.4c-.1.2-.2.3-.4.5l-.4.4c-.1.2-.2.3-.4.4s-.2.3-.4.4l-.2-.2zm-21.8-2.4c.2-.1.4-.3.6-.4l.6-.4.6-.4c-1.5-.2-3.1-.3-4.6-.5s-3.1-.3-4.6-.5c-1.5-.2-3.1-.3-4.6-.5-1.5-.2-3.1-.3-4.6-.5l-2.6.6-2.6.7-2.6.7-2.6.7c.4-.2.9-.5 1.3-.7s.9-.5 1.3-.7l1.3-.7c.4-.2.9-.5 1.3-.7l2.1-.4 2.1-.4 2.1-.4 2.1-.4 3.5.3c1.2.1 2.3.2 3.5.3l3.5.3 3.5.3.3-.3 2.9.5 2.9.5 2.9.5c1 .2 1.9.4 2.9.5l-1.1.3-1.1.3-1.1.3-1.1.3-2.1.3-2.1.3-2.1.3-2.1.3.3-.4zm39.3-.6l1.2-.3 1.2-.3 1.2-.3s.1 0 .1.1l.1.1.1.1s.1 0 .1.1l-1.4.3c-.5.1-.9.2-1.4.3s-.9.2-1.4.3l-1.4.3 1.6-.7zm693.4-11.5l-.7-1.2c-.2-.4-.4-.8-.7-1.2l-.6-1.2-.5.2-.5.2-.5.2-.5.2c0-.1-.1-.3-.1-.4s-.1-.3-.1-.4l-.1-.4c0-.1-.1-.3-.1-.4.4-.2.8-.3 1.2-.5l1.2-.5 1.2-.5c.4-.2.8-.3 1.2-.5 1.3 0 2.6-.1 3.8-.1l3.8-.1 3.8-.1 3.8-.1.7.2.7.2.7.2.7.2 1.5-.9 1.5-.9 1.5-.9 1.5-.9-.1.3-.1.3-.1.3-.1.3h4l1.5-1.2c.5-.4 1-.8 1.5-1.1s1-.8 1.5-1.1l1.5-1.1-.3-.4c-.1-.1-.2-.3-.3-.4s-.2-.3-.3-.4l-.3-.4 1.7-.4c.6-.1 1.1-.3 1.7-.4l1.7-.4c.6-.1 1.1-.3 1.7-.4v1.6l.5.6c.2.2.4.4.5.6l.5.6c.2.2.4.4.5.6-.3.8-.6 1.5-.9 2.3l-.9 2.3-.9 2.3c-.3.8-.6 1.6-.9 2.3-.3.1-.6.1-.9.2l-.9.2-.9.2-.9.2c0-.1.1-.2.1-.3s.1-.2.1-.3l.1-.3c0-.1.1-.2.1-.3l-.7.4-.7.4-.7.4-.7.4-.3-.3-.3-.3-.3-.3-.3-.3-1.8-.2-1.8-.2-1.8-.2-1.8-.2.1.4.1.4.1.4c0 .1.1.3.1.4l-1.1.3-1.1.3-1.1.3-1.1.3c-.1-.3-.2-.5-.3-.8l-.3-.8-.3-.8c-.1-.3-.2-.5-.3-.8-1.4-.1-2.8-.2-4.2-.2-1.4-.1-2.8-.1-4.2-.2-1.4-.1-2.8-.1-4.2-.2l-4.2-.2.7.3.7.3c.2.1.5.2.7.3l.7.3.4.4c.1.1.2.3.4.4s.2.3.4.4.2.3.4.4c-.3.3-.7.5-1 .8s-.7.5-1 .8-.7.5-1.1.8-.7.5-1.1.8l-1.8-1.1zm12.5-1.8l-.5-.2-.5-.2-.5-.2-1.1.2c-.4.1-.7.1-1.1.2l-1.1.2-1.1.2c.1-.2.2-.5.3-.7l.3-.7c.1-.2.2-.5.3-.7s.2-.5.3-.7l1.7.4c.6.1 1.2.3 1.7.4.6.1 1.2.3 1.7.4s1.2.3 1.7.5l-.4.2-.4.2-.4.2-.4.2-.5.1zm31.3-15.1l-1.4-.6-1.4-.6-1.4-.6c-.5-.1-1-.2-1.5-.2l-1.5-.2-1.5-.2c-.5-.1-1-.2-1.5-.2l.8.5c.3.2.5.3.8.5l.8.5.8.5c-.3.1-.5.1-.8.1l-.8.1c-.3 0-.5.1-.8.1l-.8.1-.5-.7-.5-.7-.5-.7c-.2-.2-.3-.4-.5-.7l.4-.2c.2-.1.3-.1.4-.2l.4-.2c.2-.1.3-.1.5-.2.1-.1.1-.2.2-.3l.2-.3c.1-.1.1-.2.2-.3s.1-.2.2-.3l.9.3.9.3.9.3.9.3.6-1.2.6-1.2.6-1.2.6-1.2c.5.3 1 .6 1.5 1l1.5 1 1.5 1c.5.3 1 .6 1.5 1 .6.1 1.1.2 1.7.3l1.7.2 1.7.2 1.7.2.5.7.5.7.5.7.5.7c-.7 0-1.4.1-2.1.1l-2.1.1-2.1.1-2.1.1c-.1.1-.1.2-.2.3s-.1.2-.2.3l-.2.3c-.1.1-.1.2-.2.3l-1.9-.7zm-.1-9.7l-.8-.6c-.3-.2-.5-.4-.8-.6s-.5-.4-.8-.6c-.2.1-.3.3-.5.4s-.3.3-.5.4-.3.3-.5.4-.3.3-.5.4c-.1-1.1-.2-2.1-.3-3.2s-.2-2.1-.3-3.2c-.1-1.1-.2-2.1-.3-3.1s-.2-2.1-.3-3.1c-.2-.2-.3-.4-.5-.7s-.3-.4-.5-.7l-.5-.7c-.2-.2-.3-.4-.5-.7.1-.3.1-.7.2-1 .1-.3.1-.7.2-1 .1-.3.1-.7.2-1 .1-.3.1-.7.2-1 .2 0 .3 0 .5.1s.3 0 .5.1.3 0 .5 0 .3 0 .5.1l-.2-.6-.2-.6-.2-.6-.2-.6c.9 1.3 1.9 2.7 2.8 4 .9 1.3 1.9 2.7 2.8 4 .9 1.4 1.9 2.7 2.8 4.1s1.9 2.7 2.8 4.1c-.4-.2-.7-.4-1.1-.6l-1.1-.6-1.1-.6-1.1-.6-1 .4-1 .4-1 .4c-.3.1-.6.3-1 .4l.9 1.6.9 1.6c.3.5.6 1 .9 1.6l.9 1.6c-.3.3-.6.1-.8-.1zm-1093.6.2H27.6l1.8-.5c.6-.2 1.2-.3 1.8-.5l1.8-.4c.6-.2 1.2-.3 1.8-.5 0 .1 0 .2.1.3l.1.3c0 .1.1.2.1.2l.1.2-.6.2-.6.2-.6.2-.7.2c-.7.1-1.1.1-1.5.1zm144.2-1.2c-1.3-.2-2.6-.5-3.9-.7l-3.9-.7c-1.3-.2-2.6-.5-3.9-.7 1.4.1 2.9.1 4.3.2s2.9.2 4.3.2l4.3.2 4.3.3-.5.5-.5.5-.5.5-.5.5c-.9-.3-2.2-.5-3.5-.8zm-94.9-1.6c.1-.2.1-.4.2-.6l.2-.6.2-.6 1.8-.4 1.8-.4 1.8-.4 1.8-.4-1.9 1c-.7.3-1.3.6-1.9 1l-1.9 1-1.9 1-.2-.6zm70.5-3.5l-1.4-.7c-.5-.2-.9-.5-1.4-.7l-1.4-.7 1.3-.1 1.3-.1 1.3-.1c.4 0 .9-.1 1.3-.1 0 .3.1.6.1.9l.1.9c0 .3.1.6.1.9l.1.9c-.5-.6-.9-.9-1.4-1.1zm-66.2-.6l.6-.4c.2-.1.4-.3.6-.4l.6-.4H89c-.1 0-.1.1-.2.1s-.1.1-.2.1l-.2.1-.2.1H87.9h-.1l-.9.3-.9.3-.9.3-.9.3.6-.4zm1219.8-2.3l-3.1-.7c-1-.2-2.1-.5-3.1-.7l-3.1-.7c-.1-.1-.1-.3-.2-.4s-.1-.3-.2-.4l-.2-.4c-.1-.1-.1-.3-.2-.4l1.3.3c.4.1.9.2 1.3.3s.9.2 1.3.3l1.3.3 2 .8 2 .8c.7.3 1.4.5 2 .8.7.3 1.4.5 2 .8l-3.1-.7zm-575-5l-1.6-.2c-.5-.1-1-.1-1.6-.2s-1-.1-1.6-.2l2-.2 2-.2 2-.2c.7-.1 1.3-.1 2-.2l-.4.4-.4.4-.4.4-.4.4-1.6-.2zm-28.2-.8c-.8-.1-1.6-.1-2.4-.2l-2.4-.2-2.4-.2c.1-.1.1-.2.2-.2s.1-.2.2-.2c.1-.1.1-.2.2-.2s.1-.2.2-.2l2.2.4c.7.1 1.5.3 2.2.4s1.5.3 2.2.4l2.2.4c-.8-.1-1.6-.1-2.4-.2zm-40.8-4.9l-1.5-.7-1.5-.7-1.5-.7h9.4l.4.1.1.1.1.1s0 .1.1.1l.1.1c-.1.2-.2.3-.3.5l-.3.5-.3.5c-.1.2-.2.3-.3.5-.3 0-.5.1-.8.1l-.8.1-.8.1-.8.1-1.3-.8zm-19.2-4.3c0-.1 0-.3.1-.4l.1-.4.1-.4-.2-.1-.2-.1-.2-.1-.2-.1.2-.3.2-.3.2-.3c.1-.1.2-.2.2-.3-.1-.1-.3-.2-.4-.3l-.4-.3-.4-.3-.4-.3c.5 0 1 .1 1.4.1l1.4.1 1.4.1 1.4.1c-.1.2-.1.4-.2.7-.1.2-.1.4-.2.7s-.1.4-.2.7c-.1.2-.1.5-.2.7-.1.1-.3.2-.4.2l-.4.2-.1.2c-.1.1-.3.2-.4.2l-.6.1-.6.1-.6.1c-.2 0-.4.1-.6.1.1-.2.2-.3.2-.4zm-19.7-.2l-.5-.2-.5-.2c-.2-.1-.4-.1-.5-.2h4l-.5.2c-.2.1-.3.1-.5.2l-.5.2-.5.2-.5-.2zm-216.8-2.8l-.4-.2-.4-.2-.4-.2 1.5-.1c.5 0 1-.1 1.5-.1s1-.1 1.5-.1 1-.1 1.5-.1c-.4.1-.7.2-1.1.3l-1.1.3-1.1.3c-.4.1-.7.2-1.1.3l-.4-.2zm-2.2-.9c-.1-.1-.2-.2-.2-.3l-.2-.3c-.1-.1-.2-.2-.2-.3l.4.2.4.2.4.2c.1.1.3.2.4.2h-.8c-.1.2-.1.1-.2.1zm240.5-1.9l-.5-.4-.5-.4-.5-.4.6-.2.6-.2.6-.2.6-.2c.1-.1.1-.2.2-.2l.2-.2.2-.2.2-.2c-.1.3-.1.6-.2.9s-.1.6-.2.9c-.1.3-.1.6-.2.9-.1.3-.1.6-.2.9l-.9-.8zm-211.5-1.5l.5-.3c.2-.1.3-.2.5-.3s.3-.2.5-.3c-1.2 0-2.4.1-3.6.1l-3.6-.1-3.6.1-3.6.1c0-.2.1-.4.1-.6s.1-.4.1-.6.1-.4.1-.6.1-.4.1-.6c.3-.2.7-.4 1-.6l1-.6 1-.6 1-.6 2.5-1.5 2.5-1.5c.8-.5 1.7-1 2.5-1.5s1.7-1 2.5-1.5l-.4.4-.4.4-.4.4-.4.4c-.2.2-.4.4-.6.5l-.6.5-.6.5c-.2.2-.4.4-.6.5l.4.1.4.1.4.1.4.1.1.3c0 .1.1.2.1.3s.1.2.1.3.1.2.1.3l1.6-.2 1.6-.2 1.6-.2c.5-.1 1.1-.2 1.6-.2.2.1.4.3.5.4l.5.4.5.4.5.4.3.2.3.2.3.2.3.2c0 .3.1.6.1.9 0 .3.1.6.1.9s.1.6.1.9c0 .3.1.6.1.9l-.7.2-.7.2-.7.2-.7.2-.3-.3-.3-.3-.3-.3-.3-.4-1.7.5-1.7.5-1.7.5-1.7.5 1.3-.4zm835.8-9.6l-2.1-.1-2.1-.1-2.1-.1-.8-.2c-.3-.1-.5-.1-.8-.2s-.5-.1-.8-.2-.5-.1-.8-.2l-1.2-.1-1.2-.1c-.4 0-.8-.1-1.2-.1l-1.2-.1-.3-.6-.3-.6-.3-.6-.3-.6c1.1.1 2.1.3 3.2.5l3.2.5 3.2.5 3.2.5c.4.2.8.4 1.1.5s.8.4 1.1.5.8.4 1.1.5.8.4 1.1.5l-1.7-.1zm-674.2-8.2c.3-.2.7-.3 1-.5s.7-.3 1-.5.7-.3 1-.5c.4-.1.9-.1 1.3-.2s.9-.1 1.3-.2l1.3-.2c.4-.1.9-.1 1.3-.2.1-.1.3-.2.4-.3l.4-.3c.1-.1.3-.2.4-.3s.3-.2.4-.3c-.3.1-.6.1-.9.2l-.9.2-.9.2-.9.2c-.2 0-.4-.1-.6-.1s-.4-.1-.6-.1-.4-.1-.6-.1-.4-.1-.6-.1l.1-.1.1-.1.1-.1.1-.1h-4v-.4l1-.2 1-.2 1-.2 1-.2c0-.1.1-.3.1-.4s.1-.3.1-.4.1-.3.1-.4.1-.3.1-.4l-.6.1-.6.1-.6.1-.6.1c0-.1.1-.2.1-.4l.1-.4.1-.4.1-.4.5.1.5.1c.2 0 .3.1.5.1l.5.1H601.9l.4-.1c-.1-.3-.1-.7-.2-1.1-.1-.3-.1-.7-.2-1s-.1-.7-.2-1-.1-.7-.2-1c-.5 0-1.1.1-1.6.1s-1.1.1-1.6.1-1.1.1-1.6.1-1.1.1-1.6.1c0-.3.1-.6.1-.9l.1-.8c0-.3.1-.6.1-.8s.1-.6.1-.8h-.8c-.2.2-.4.4-.7.6l-.7.6-.6.6-.6.6.6-.9.6-.9.6-.9.6-.9-.3-.2-1 .3c-.3.1-.7.2-1 .3s-.7.2-1 .3-.7.2-1 .3v-.4c.2-.2.5-.3.7-.5l.7-.5.7-.5c.2-.2.5-.3.7-.5l-.2-.2V95.8v-.1l-.2-.2-.2-.2-.2-.2-.2-.2h2.4c-.1-.1-.2-.1-.3-.2s-.2-.1-.3-.2l-.3-.2c-.1-.1-.2-.1-.3-.2l.1-.1.1-.1.1-.1.1-.1h1.2c.1 0 .2-.1.3-.1l.3-.1.3-.1.3-.1 1.5-.2 1.5-.2 1.5-.1 1.5-.1-.9.5-.9.5-.9.5c-.3.2-.6.3-.9.5h-1.2 1.6l-.3.2c-.1.1-.2.1-.3.2l-.3.2-.3.2.3.1 2-.1 2-.1 2-.1 2-.1c-.2.3-.5.6-.7.9s-.5.6-.7.9-.5.6-.7.9l-.7.9-.6.1-.6.1-.6.1c-.2 0-.4.1-.6.1l3 1.4 3 1.5 3 1.5 3 1.5-.6-.1-.6-.1-.6-.1c-.2 0-.4-.1-.6-.1.2.2.4.3.7.5l.7.5c.2.2.4.3.7.5s.4.3.6.5c.5.1.9.1 1.4.2l1.4.2c.5.1.9.1 1.4.2l1.4.2c-.4.2-.7.5-1.1.7l-1.1.7c-.4.2-.7.5-1.1.7s-.7.5-1.1.7l.6.3.6.3.6.3.6.3-1.6.2-1.5.2-1.5.2-1.5.2-.7-.1-.7-.1-.7-.1-.7-.1c-1.2.2-2.5.4-3.7.6l-3.7.6c-1.2.2-2.5.4-3.8.6l-3.7.6.5-1.2zm-16-2.9l.3-.1.3-.1.3-.1h-.6c-.2 0-.4 0-.6-.1l-.6-.1-.6-.1v-.2V108.8c.5-.1 1-.2 1.5-.4l1.5-.4 1.4-.4 1.4-.4-1 .1-1.1.1-1.1.1c-.4 0-.7.1-1.1.1.3-.1.6-.3.8-.4l.8-.4c.3-.1.6-.3.8-.4l.8-.4-1-.1c-.3 0-.7-.1-1-.1s-.7-.1-1-.1-.7-.1-1-.1l.5-.5c.2-.2.3-.4.5-.6s.3-.4.5-.6.3-.4.5-.5h2.8l.7-.2.7-.2.7-.2.7-.2-.6-.1-.6-.1-.6-.1-.6-.1c.5-.1 1-.3 1.5-.4l1.5-.4 1.5-.4c.5-.1 1-.3 1.5-.4l-.1.1-.1.1-.1.1-.1.1.8-.1.8-.1.8-.1.8-.1.6.3.6.3.6.3.6.3c-.3.2-.5.4-.8.5-.3.2-.5.4-.8.5s-.5.4-.8.5-.5.4-.8.5c.1.2.2.3.3.5l.3.5.3.5c.1.2.2.4.3.5-.1.1-.2.3-.3.4l-.3.4c-.1.1-.2.3-.3.4l-.3.4-3.2.6-3.2.6-3.2.6-3.2.6.4.4zm18.5-6.8c.1-.1.2-.2.3-.2l.3-.2.3-.2-.2.2-.2.2c-.1.1-.1.2-.2.2l-.2.2h-.7c.4 0 .5-.1.6-.2zm-261.9-.7l-.2-.2-.2-.2-.2-.2.3-.3.3-.3.3-.3.3-.3 1.7-.4 1.7-.4 1.7-.4 1.7-.4-1.8.8-1.8.8c-.6.3-1.2.5-1.8.8l-1.8.8-.2.2zm13.7-.3l-.4-.3c-.1-.1-.2-.2-.4-.3l-.4-.3.7-.3.7-.3.7-.3.7-.3-.3.6-.3.6-.3.6-.3.6c-.1-.1-.3-.2-.4-.3zm304.8-2l-1-.6-1-.6-1-.6.2-.2.2-.2.2-.2.2-.2h2.4l.7.4c.2.2.4.3.7.4.2.1.4.3.7.4l.7.5-.5.4c-.2.1-.3.3-.5.4l-.5.4-.5.4-1-.7zm-324.2 0l-.4-.4-.4-.4-.4-.4-1.4.3c-.4.1-.9.2-1.4.3l-1.4.3-1.4.3 1-.5c.3-.2.6-.4 1-.5l1-.5.9-.5c0-.1 0-.2-.1-.3l-.1-.3-.1-.3c0-.1 0-.2-.1-.3.3-.4.6-.7 1-1.1l1-1.1 1-1.1 1-1.1.3.5c.1.2.2.3.2.5.1.2.2.3.3.5s.2.3.2.5l1.6-.1 1.6-.1c.5 0 1 0 1.6-.1l1.6-.1 1.3.6 1.3.6 1.3.6 1.3.6h5.6l-.8.3c-.3.1-.5.2-.8.3l-.8.3-.8.3-1.8-.3-1.8-.3-1.8-.3-1.8-.3-2 1c-.7.3-1.3.7-2 1l-2 1c-.7.3-1.4.7-2 1l-.5-.4zm261.9-.5s-.1-.1-.2-.1-.1-.1-.2-.1l-.2-.1.3-.1.3-.1.3-.1.3-.1c0 .1-.1.2-.1.2l-.1.2c0 .1-.1.2-.1.2l-.1.2-.2-.1zm-361.3-1l-.8-.4-.8-.4c-.3-.1-.6-.3-.8-.4-1.1 0-2.3-.1-3.4-.1l-3.4-.1-3.4-.1c-1.1 0-2.3 0-3.4-.1 1.7-.4 3.4-.8 5.1-1.1l5.1-1.1 5.1-1.1 5.1-1.1-5 .6-5 .6-5 .6c-1.7.2-3.3.4-5 .6-.3 0-.7-.1-1-.1l-1-.1c-.3 0-.7-.1-1-.1l-1-.1c.7-.2 1.4-.5 2.1-.7l2.1-.7 2.1-.7 2.1-.7-2 .4-2 .4-2 .4-2 .4.2-.1.2-.1.2-.1.2-.1c-.3.1-.6.1-.9.2l-.9.2-.9.2c-.3.1-.6.1-.9.2.3-.2.6-.5 1-.7l1-.7c.3-.2.6-.5 1-.7l1-.7h-1.6l4.1-1.4 4.1-1.3c1.4-.4 2.7-.9 4.1-1.3l4.1-1.3-.3.6-.3.6-.3.6-.3.6c.3-.1.6-.1.8-.2l.8-.2.8-.2.8-.2.6-.4.6-.4.6-.4.6-.4 1.6.1 1.6.1 1.6.1 1.6.1c-.1.1-.3.2-.4.3s-.3.2-.4.3l-.4.3-.4.3c.3-.1.6-.2.8-.3s.6-.2.8-.3l.8-.3c.3-.1.6-.2.8-.3l.9-.1.9-.1 1-.1 1-.1-.8-.3-.8-.3-.8-.2c-.3-.1-.6-.2-.8-.2h7.6c.1.2.3.4.4.6.1.2.3.4.4.6s.3.4.4.6.3.4.4.6l.7-.1.7-.1.7-.1.7-.1c-.2-.3-.5-.6-.7-.9-.2-.3-.5-.6-.7-.9s-.5-.6-.7-.9-.5-.6-.7-.9l.1-.3.1-.3.1-.3.1-.3h7.4l1.3.9 1.3.9c.4.3.9.6 1.3.9l1.3.9-.1.5-.1.5c0 .2-.1.3-.1.5l-.1.5 3.2.2 3.2.2c1.1.1 2.2.1 3.2.2 1.1.1 2.2.1 3.2.2l-.7.5c-.2.2-.5.3-.7.5s-.5.3-.7.5-.5.3-.7.5l-.9.2-.9.2c-.3.1-.6.2-.9.2s-.6.2-.9.2H264c.1.1.1.2.1.4 0 .1.1.2.1.4 0 .1.1.2.1.4 0 .1.1.2.1.4.4-.1.8-.3 1.2-.4.4-.1.8-.3 1.2-.4l1.2-.4 1.2-.4c0 .1.1.2.1.3s.1.2.1.3.1.2.1.3l.1.3-1 .3-1 .3c-.3.1-.6.2-1 .3-.3.1-.6.2-1 .3l-2.2.2-2.2.2-2.2.2-2.2.2.3-.1.3-.1.3-.1.3-.1-1.3.1c-.4 0-.9.1-1.3.1l-1.3.1-1.3.1.1-.2.1-.2c0-.1.1-.1.1-.2l.1-.2c-2 .5-4 1.1-5.9 1.6s-4 1.1-6 1.6-4 1.1-6 1.6-4 1.1-6 1.6c.1-1.1-.2-1.2-.5-1.3zM183.5 95l1.9-1.7 1.9-1.7 1.9-1.7-.6-.4-.6-.4c-.2-.1-.4-.3-.6-.4s-.4-.3-.6-.4l5.2-.8 5.2-.8 5.2-.8c1.7-.3 3.5-.5 5.2-.8l-.1.2-.1.2-.1.2-.1.2 2.1-.4 2.1-.4 2.1-.4 2.1-.4 1 .1c.3 0 .6.1 1 .1l1 .1 1 .1c0 .1 0 .2.1.3s0 .2 0 .3v.7c-1.4.5-2.8 1-4.3 1.6l-4.3 1.6c-1.4.5-2.9 1.1-4.3 1.6s-2.9 1.1-4.3 1.6l-.3.6-.3.6-.3.6-.3.6-.9.3-.9.3-.9.3-.9.3h-.8l-.4.2-.4.2-.4.2c-.1.1-.3.1-.4.2h-11.7c-.2 0-.3.1-.5.1l-.5.1-.5.1-.5.1c.6-1 1.2-1.6 1.9-2.2zm403.4 1c0-.1-.1-.2-.1-.3l-.1-.3c0-.1-.1-.2-.1-.3l-.4-.3h1.6c-.1.1-.1.2-.2.4s-.1.2-.2.3l-.1.4-.1.3-.3-.2zm-191.9.2H386.9c-.2-.1-.3-.1-.5-.2l-.5-.2-.5-.2-.5-.2h-5.6s.1-.1.2-.1l.2-.1.2-.1.2-.1c-.4 0-.8 0-1.1-.1l-1.1-.1-1.1-.1-1.1-.1.7-.2.7-.2.7-.2c.2-.1.5-.2.7-.2l-2.7-.5-2.7-.5c-.9-.2-1.8-.3-2.7-.4l-2.7-.4-.1.2c0 .1-.1.1-.1.2l-.1.2c0 .1 0 .1-.1.2-.9.1-1.7.2-2.6.4l-2.6.4-2.6.4-2.6.4-.6-.3-.6-.3-.6-.3-.6-.3c.3-.2.5-.3.8-.5l.8-.5c.3-.2.5-.3.8-.5l.8-.5c1.1-.2 2.2-.3 3.3-.5l3.3-.5c1.1-.2 2.2-.3 3.3-.5l3.3-.5-.7-.3-.7-.3-.7-.3c-.2-.1-.5-.2-.7-.3l2-1.2c.7-.4 1.4-.8 2-1.2l2-1.2 2-1.2c-.2-.2-.4-.3-.7-.5-.2-.2-.4-.3-.7-.5-.2-.2-.4-.3-.7-.5s-.4-.3-.7-.5l-2.1-.3-2.1-.3-2.1-.3-2.1-.3-1 .3c-.3.1-.7.2-1 .3l-1 .3-1 .3.9-.5.9-.5.9-.5.9-.5-1.7-.2-1.7-.2-1.7-.2c-.6-.1-1.2-.1-1.7-.2 0-.1-.1-.2-.1-.3s-.1-.2-.1-.3-.1-.2-.1-.3l-.1-.3-1.5-.1-1.5-.1-1.5-.1-1.5-.1c.2.1.5.2.7.3l.7.3c.2.1.5.2.7.3.2.1.5.2.7.3l-2.8.2-2.8.2-2.8.2-2.8.2c.3.1.5.2.8.2l.8.2.8.2.8.2-.8-.1c-.3 0-.5 0-.8-.1l-.8-.1-.8-.1-.4.2-.4.2-.4.2-.4.2-5.4.2c-1.8.1-3.6.1-5.4.2-1.8.1-3.6.2-5.4.2l-5.4.2-1.3-.4-1.3-.4c-.4-.1-.9-.2-1.3-.4l-1.3-.4 2.1-.2c.7-.1 1.4-.1 2.1-.2s1.4-.1 2.1-.2c.7-.1 1.4-.1 2.1-.2h-9.2c-.1-.2-.1-.3-.2-.5s-.1-.3-.2-.5-.1-.3-.2-.5-.1-.3-.2-.5l2.2-1.6 2.2-1.6c.7-.5 1.4-1 2.2-1.5l2.1-1.5 2.6-.5 2.6-.4 2.6-.4 2.6-.4c-.1.1-.1.2-.2.4l-.2.4-.2.4c-.1.1-.1.2-.2.4l3.1-.7c1-.2 2.1-.4 3.1-.7l3.1-.6c1-.2 2.1-.4 3.1-.6l1 .5 1 .5 1 .5 1 .5-.1.5-.1.5-.1.5-.1.5h1.6l1-.2 1-.2 1-.2 1-.2.8-.4.8-.4.8-.4.8-.4 1.1-.2c.4-.1.7-.1 1.1-.2l1.1-.2 1.1-.2 5.1.6 5.1.6 5.1.6 5.1.6c-.3.1-.7.3-1 .4-.3.1-.7.3-1 .4l-1 .4-1 .4 1-.2 1-.2c.3-.1.7-.2 1-.2l1-.2 2.5.1 2.5.1 2.5.1 2.5.1-1.3.4-1.3.4-1.3.4c-.4.1-.9.3-1.3.4l.6.1c.2 0 .4.1.6.1l.6.1.6.1 1 .1.9-.4.9-.4c.3-.1.6-.3.9-.4l.8.3.8.3.8.3.9.3-1.3.3-1.3.3-1.3.3-1.3.3c.2.1.3.1.5.2l.5.2.5.2.5.2c0 .1.1.2.1.3l.1.3.1.3c0 .1.1.2.1.3l-.8.1-.8.1-.8.1-.8.1c1.7.2 3.4.3 5.1.5l5.1.5 5.1.6 5.1.6-.4.3-.4.3-.4.3-.4.3 1.5-.2c.5-.1 1-.1 1.5-.2s1-.1 1.5-.2l1.5-.2c.1.2.2.4.3.5.1.2.2.4.3.5l.3.5c.1.2.2.4.3.5-.3 0-.6.1-1 .1-.3 0-.6.1-1 .1l-1 .1c-.3 0-.6.1-1 .1l.7.1.3.3.7.1.7.1c-.5.1-1.1.2-1.6.3l-1.6.3-1.6.3c-.5.1-1.1.2-1.6.3v2.8c-.6-.2-1.1-.3-1.7-.4s-1.1-.3-1.7-.4l-1.7-.4c-.6-.1-1.1-.3-1.7-.4l.7-.4c.2-.1.5-.3.7-.4l.7-.4.7-.4c-.3.1-.6.2-.9.2l-.9.2-.9.2-.9.2-.8-.3c-.3-.1-.6-.2-.8-.3s-.6-.2-.8-.3l-.8-.3-.8.1-.8.1c-.3 0-.5.1-.8.1l-.8.1.2.4c.1.1.1.2.2.4s.2.3.2.4l.2.4H390.9l.2.3.2.3c.1.1.1.2.2.3l.2.3h2.4c.1.1.2.3.3.4l.3.4.3.5c.1.2.2.3.3.5.2 0 .5-.1.7-.1s.5-.1.7-.1l.7-.1c.2 0 .5-.1.7-.1l1.1.5 1.1.5 1.1.5 1.1.5.1.5c0 .2.1.3.1.5l.1.5c0 .2.1.3.1.5l-.4-.2c-.1-.1-.3-.1-.4-.2s-.3-.1-.4-.2l-.4-.2.2.5.2.5.2.5c.1.2.1.3.2.5h-1.2c.1.1.1.2.2.2s.1.2.2.2l.2.2c.1.1.1.2.2.2-.9-.2-1.7-.4-2.6-.6l-2.6-.6c-.9-.2-1.7-.4-2.6-.5l-2.6-.5c0 .1.1.1.1.2s.1.1.1.2.1.1.1.2.1.1.1.2l-1-.1-1-.1-1-.1c-.3 0-.6-.1-1-.1.2.1.3.2.5.4s.3.2.5.4l.5.4.5.4 1.8.3 1.8.3 1.8.3 1.8.3.1.4c0 .1.1.2.1.4s.1.2.1.4.1.2.1.4l-2.3-.6zm196.6-.7l-1-.1c-.3 0-.6-.1-1-.1-.3 0-.7-.1-1-.1l.1-.1.1-.1.1-.1.1-.1h.8l.2.1.2.1.2.1.2.1c.1.1.3.1.4.2s.3.1.4.2.3.1.4.2.3.1.4.2l-.6-.5zm84.2-.7l.9-.6.9-.6.9-.6-.2.4c-.1.1-.1.2-.2.4l-.2.4c-.1.1-.1.2-.2.4-.2.1-.5.2-.7.3l-.7.3-.7.3-.7.3.9-1zm-88.3-.6h.8l.5-.4.5-.4c.2-.1.3-.2.5-.4l.5-.4-.2.2-.2.2-.2.2-.2.2.1.1.1.1.1.1.1.1-.6.2-.6.2c-.2.1-.4.1-.6.2s-.4.1-.6.2v-.4zm-112.6-.1l-4-.2-4-.2-4-.2h-2.8c-1.4-1.2-2.9-2.4-4.3-3.6s-2.9-2.4-4.3-3.6c-1.4-1.2-2.9-2.4-4.3-3.5-1.4-1.2-2.9-2.3-4.3-3.5.1-.5.3-.9.4-1.4s.3-.9.4-1.4.3-.9.4-1.4.3-.9.4-1.4l2-.6 2-.6c.7-.2 1.3-.4 2-.6l2-.5c.1-.2.1-.4.2-.6l.2-.6c.1-.2.1-.4.2-.6s.1-.4.2-.6l-1.9.4c-.6.1-1.2.3-1.9.4s-1.2.3-1.9.4c-.6.1-1.2.3-1.9.4-.5 0-.9 0-1.4-.1l-1.4-.1c-.5 0-.9 0-1.4-.1l-1.4-.1v-.7-.7-.7-.7l-.9-.6-.9-.6-.9-.6-.9-.6v-1.3-1.3-1.3-1.3c-1-.6-1.9-1.3-2.9-1.9l-2.9-1.9-2.9-1.9c-1-.6-1.9-1.3-2.8-1.9-2.5.2-4.9.3-7.4.5s-4.9.4-7.4.5-4.9.4-7.4.6-4.9.4-7.4.6c-1.6-.4-3.2-.9-4.8-1.3s-3.2-.9-4.8-1.3c-1.6-.4-3.2-.8-4.8-1.3s-3.2-.8-4.8-1.2l.3-.4.3-.4.3-.4c.1-.1.2-.3.3-.4 2.1-.5 4.2-.9 6.3-1.4 2.1-.5 4.2-.9 6.3-1.4 2.1-.5 4.2-.9 6.2-1.4 2.1-.5 4.2-.9 6.2-1.3l.6-.7.6-.7c.2-.2.4-.4.6-.7l.6-.7c-.8 0-1.5 0-2.3-.1s-1.5 0-2.3-.1l-2.3-.1-1.9-.1c2.5-.8 5-1.5 7.5-2.3 2.5-.8 5-1.5 7.5-2.3 2.5-.7 5-1.5 7.4-2.2 2.5-.7 5-1.5 7.4-2.2 4.2-.3 8.3-.6 12.5-.9s8.3-.5 12.4-.8c4.1-.3 8.3-.5 12.4-.7s8.3-.5 12.4-.7h.8-.4l-2.4-.6-2.4-.6-2.4-.6-2.4-.6 2.7-.7 2.7-.7 2.7-.7c.9-.2 1.8-.5 2.7-.7l.4-.1.4-.1.4-.1.4-.1 4.1-.1c1.4 0 2.7 0 4.1-.1l4.1-.1c1.4 0 2.7 0 4.1-.1l.9-.4.9-.4.9-.4c.3-.1.6-.3.9-.4h23.8c3.8 0 7.6 0 11.4.1 3.8 0 7.6.1 11.4.1s7.6.1 11.4.2l-2.7.5-2.7.5c-.9.2-1.8.3-2.7.5-.9.2-1.8.3-2.7.5l1.8.1 1.8.1 1.8.1c.6 0 1.2 0 1.8.1-.1.3-.3.5-.4.8s-.3.5-.4.8c-.1.3-.3.5-.4.8l-.4.8 2.3-.5 2.3-.5 2.3-.5 2.3-.5h6l.9-.3.9-.3.9-.3.9-.3 2.3-.2 2.2-.2 2.2-.2 2.2-.2 2.5.3 2.5.3 2.5.3c.8.1 1.7.2 2.5.3l-4.1.8c-1.4.3-2.7.6-4.1.8l-4.1.9-4.1.9.5.2.5.2.5.2.5.2c-1.1.4-2.2.8-3.2 1.2l-3.3 1.2-3.3 1.2c-1.1.4-2.2.8-3.3 1.3l-.9.9-.9.9-.9.9-.9.9 1.5.6 1.5.6 1.5.6 1.5.6-2.1.9-2.1.9c-.7.3-1.4.6-2.1 1l-2.1 1 1.4.4 1.4.4 1.4.4 1.4.4.6 1.3.6 1.3c.2.4.4.8.6 1.3.2.4.4.8.6 1.3l-2.8 2.1-2.8 2.1c-.9.7-1.8 1.4-2.8 2.1-.9.7-1.8 1.4-2.8 2.2.1.2.2.5.3.7s.2.5.4.7.2.5.4.8.2.5.4.7l-.4.7-.4.7c-.1.2-.3.4-.4.7s-.3.4-.4.7c-4.9 1.3-9.8 2.5-14.6 3.8l-14.7 3.9c-4.9 1.3-9.8 2.7-14.7 4-4.9 1.4-9.9 2.7-14.8 4.1-1.2 1.4-2.3 2.7-3.5 4.1s-2.4 2.8-3.5 4.1c-1.2 1.4-2.4 2.8-3.5 4.2s-2.4 2.8-3.6 4.2l-4.6-.7zm213.3-1.4l-.2-.4-.2-.4-.2-.4h5.6l-1.2.4-1.2.4-1.2.4c-.4.1-.8.3-1.2.4-.1-.2-.1-.3-.2-.4zm-87.4-1.3l-.1-.1-.1-.1-.1-.1c.1 0 .2 0 .2-.1l.2-.1.2-.1c.1 0 .2 0 .2-.1h1.6-1.6l-.2.3-.3.4zm-321.5-.6l-.4-.1c-.1 0-.2-.1-.4-.1l-.4-.1 1.1-.4c.4-.1.7-.3 1.1-.4s.7-.3 1.1-.4c.4-.1.7-.3 1.1-.4l.3-.4.3-.4.3-.4.3-.4 2.6.3 2.6.3c.9.1 1.7.2 2.6.4l2.6.4-1.4.5c-.5.2-.9.3-1.4.5l-1.4.5c-.5.2-.9.3-1.4.5l-1.5-.1-1.5-.1-1.5-.1-1.5-.1-.1.1-.1.1-.1.1-.1.1-.4-.1-.4-.1-.4-.1-.4-.1-.2.1-.2.1-.2.1c-.1 0-.1.1-.2.1-.2.1-.3.1-.4.1zm402.6-3.4V87.1h.5l-.1.1-.1.1-.1.1-.1.1-.1-.1zm433.5-1.1l-1.8-.4-1.8-.4-1.8-.4-1.9-.3-1.9-.3-1.9-.3-1.9-.3 1.1-.2c.4-.1.7-.1 1.1-.2s.7-.1 1.1-.1c.4 0 .7-.1 1.1-.1l-.5-.5-.5-.5-.5-.5-.5-.5 2.2.8 2.2.8 2.2.8 2.2.8.9.6.9.6.9.6.9.6c-.6-.3-1.2-.4-1.8-.6zm25.2-.9l-2.9-.4-2.9-.3-2.9-.3-1.6-.7-1.6-.7c-.5-.2-1.1-.5-1.6-.7l-1.6-.7c.8.1 1.6.1 2.4.2l2.4.2 2.4.2 2.4.2V83l2.1.4 2.1.4c.7.1 1.4.3 2.1.4l2.1.4c0 .1 0 .2-.1.3s0 .2-.1.3 0 .2-.1.3l-.1.3-2.5-.4zM361.1 84l1.8-.7 1.8-.7 1.8-.7-.3.6-.3.6-.3.6-.3.6-1.5.1-1.5.1-1.5.1c-.5 0-1 0-1.5.1l1.8-.7zm-83.3-1.5c-1-.2-2.1-.4-3.1-.6l-3.1-.6-3.1-.6.4-.4c.1-.1.3-.2.4-.4l.4-.4.4-.4c.3 0 .6.1 1 .1.3 0 .6.1.9.1l.9.1.9.1.7-.5.7-.5.7-.5.7-.5-1.1-.1c-.4 0-.7-.1-1.1-.1l-1.1-.1-1.1-.1.7-.4c.2-.1.5-.3.7-.4l.7-.4.7-.4 3.6-.4c1.2-.1 2.4-.3 3.6-.4s2.4-.3 3.6-.4l3.5-.4-.6.2-.6.2c-.2.1-.4.2-.6.2l-.6.2.4.1c.1 0 .3 0 .4.1.1 0 .3 0 .4.1.1 0 .3 0 .4.1l-1.3.5-1.3.5-1.3.5-1.3.5 1.3.1 1.3.1 1.3.1c.4 0 .9.1 1.3.1l.4-.1c.1 0 .3-.1.4-.1l.4-.1.4-.2.2.2.2.2.2.2.2.2-2.5 1.2-2.5 1.2-2.5 1.2c-.8.4-1.7.8-2.5 1.2l-3.1-.1zm-78.3-3.2c1.2-.6 2.5-1.2 3.7-1.8 1.2-.6 2.5-1.2 3.7-1.8 1.2-.6 2.5-1.2 3.7-1.8l1.7-.3 1.7-.3c.6-.1 1.2-.2 1.7-.3l1.7-.3c.4-.1.8-.1 1.3-.1l1.2-.1 1.2-.1 1.2-.1-.4.4-.4.4-.4.4-.4.4-.5.1-.5.1-.5.1-.5.1-.8.7-.8.7-.8.7c-.3.2-.5.4-.8.7l-.6-.3-.6-.3-.6-.3-.6-.3-.5.1-.5.1-.6.1-.6.1-.6.3-.6.3-.6.3-.6.3.1.2.2.2.2.2.1.2h-2.8v1.2c-.3.1-.5.2-.8.3l-.8.3c-.3.1-.5.2-.8.3l-.8.3c-.2 0-.4-.1-.5-.2l-.5-.2-.5-.2c-.2 0-.4-.1-.5-.2-.1.1-.3.2-.4.3s-.3.2-.4.2l-.4.2-.4.2-1 .1c-.3 0-.7.1-1 .1s-.7.1-1 .1-.7.1-1 .1l4-1.9zm916.5 1.8l-1.1-.1-1.1-.1-1.1-.1-.7-.3-.7-.3c-.2-.1-.5-.2-.7-.3l-.7-.3c-.6-.1-1.3-.2-1.9-.2l-1.9-.2-1.9-.2-1.9-.2-.9.2-.9.2c-.3.1-.6.1-.9.2l-.9.2-1.1-.4-1.1-.4-1.1-.4-1.1-.4-.7-.6c-.2-.2-.5-.4-.7-.6-.2-.2-.5-.4-.7-.6-.2-.2-.5-.4-.7-.6.4-.1.7-.3 1.1-.4l1.1-.4 1.1-.4 1.1-.4 2.7.8 2.7.8 2.7.8 2.7.8c0-.1.1-.3.1-.4 0-.1.1-.3.1-.4s.1-.3.1-.4.1-.3.1-.4l3.8 1.2 3.9 1.2 3.9 1.2 3.9 1.2-.8.2-.8.2-.8.2-.8.2-1-.2-1-.2-1-.2c-.3-.1-.7-.1-1-.2l.4.3.4.3.4.3.4.3-1-.5zm-858.6-.2l-1.7-.2-1.7-.2-1.7-.2 1.7-.5c.6-.2 1.1-.3 1.7-.5l1.7-.5 1.7-.5.6.2c.2.1.4.1.6.2l.6.2.6.2-.6.5c-.2.2-.4.3-.6.5l-.6.5-.6.5-1.7-.2zm-29.2-1.2l3.1-1 3.1-1 3.1-1-2.6.5-2.6.5-2.6.5-2.6.5c0-.1-.1-.2-.1-.3 0-.1-.1-.2-.1-.3 0-.1-.1-.2-.1-.3 0-.1-.1-.2-.1-.3l-.9.6-.9.6-.9.6-.9.6-1.1.1-1.1.1-1.1.1-1.1.1.1-.1.1-.1.1-.1.1-.1c-.5.1-.9.1-1.4.2l-1.4.2-1.4.2-1.4.2 2.5-.8 2.5-.8 2.5-.8 2.5-.8-2 .4-2 .4c-.7.1-1.3.2-2 .4l-2 .4 2.2-.6 2.2-.6 2.2-.6c.7-.2 1.5-.4 2.2-.6l-1.7.3c-.6.1-1.1.2-1.7.3l-1.7.3c-.6.1-1.1.2-1.7.3v-.1-.1-.2c.6-.1 1.2-.2 1.9-.4l1.9-.4c.6-.1 1.2-.2 1.9-.4.6-.1 1.2-.2 1.9-.4h-4.2l1.2-.3 1.2-.3 1.2-.3 1.2-.3 2.5.1 2.5.1c.8 0 1.6.1 2.5.1l2.4.1c-.1 0-.2.1-.3.1l-.3.1-.3.1c-.1 0-.2.1-.3.1l.7.1.7.1c.3 0 .5.1.8.1l.7.1 2.3-.4 2.3-.4 2.3-.4 2.3-.4-1-.1-1-.1-1-.1-1-.1.7-.2.7-.2c.2-.1.5-.1.7-.2l.7-.2-1-.1-1-.1-1-.1-1-.1 1-.6 1-.6 1-.6c.3-.2.7-.4 1-.6.7.2 1.4.4 2.1.7.7.2 1.4.5 2.1.7.7.2 1.4.5 2.1.7l2.1.7.5-.4c.2-.1.4-.3.5-.4l.5-.4.5-.4.6.3.6.3.6.3.6.3-.8.5-.8.6-.8.6c-.3.2-.5.4-.8.6-.3.1-.7.1-1 .1-.3 0-.7.1-1 .1l-1 .1-1 .1-.5.2c-.2.1-.4.1-.5.2l-.5.2c-.2.1-.4.1-.5.2-2 .3-4 .7-6 1.1-2 .4-4 .7-6 1.1-2 .4-4 .7-6 1.1s-4 .7-6 1.1c1.3-.3 2.3-.6 3.3-.9zm-19.2 0l1.7-.7 1.7-.7c.6-.2 1.1-.5 1.7-.7-.2.2-.4.4-.7.5l-.7.5-.7.5-.7.5-1 .2c-.3.1-.7.1-1 .2s-.7.1-1 .2-.7.1-1 .2l1.7-.7zm343.2-1.2c-.1-.1-.3-.1-.4-.2l-.4-.2-.4-.2-1.6.2c-.5.1-1.1.1-1.6.2s-1.1.1-1.6.2l-1.6.2c.3-.1.5-.3.8-.4l.8-.4.8-.4.8-.4h-.8v-.4c-.1 0-.1-.1-.2-.2l-.2-.2-.2-.2-.2-.2h-6.4l2-.2 2-.2 2-.2 2-.2V74.8v-.1H545l.7-.2c.2-.1.5-.1.7-.2l.7-.2.7-.2h-2.4l-2.4.1-2.4.1-2.4.1.4-.1.4-.1.4-.1c.1 0 .3-.1.4-.1v-.4h2.2l-.2-.3-.2-.3-.2-.3c-.1-.1-.1-.2-.2-.3.3 0 .7-.1 1-.2l1-.2 1-.2 1-.2 1 .2 1 .2c.3.1.7.1 1 .2l1 .2-.4.2-.4.2-.4.2-.4.2.5.3.5.3.5.4.5.4c.2-.2.4-.5.6-.7l.6-.7c.2-.2.4-.5.6-.7.2-.2.4-.5.6-.7l.8.2.8.2.8.2.8.2c.1-.1.3-.2.4-.3l.4-.3.4-.3.4-.3.8.3.8.3.8.3.8.3c0-.1-.1-.2-.1-.3 0-.1-.1-.2-.1-.3 0-.1-.1-.2-.1-.3 0-.1-.1-.2-.1-.3l3.9.3 3.9.3 3.9.3 3.9.3c.1.1.2.2.2.3l.2.3.2.3c.1.1.2.2.2.3-.5.2-1.1.4-1.6.6l-1.6.6-1.6.6c-.5.2-1.1.4-1.6.6l-2.4.6-2.4.6-2.4.6-2.4.6h-8l.2.1zm-326.7-5.1l1-.2 1-.2 1-.2.3.1c.1 0 .2 0 .3.1l.3.1.3.1-1.3.2-1.3.2-1.3.2-1.3.2 1-.6zm53.3-2l-.7-.1-.7-.1c-.2 0-.5-.1-.7-.1l.5-.1.5-.1.5-.1.5-.1h-2.8l.6-.2.6-.2.6-.2.6-.2h-.5l.5-.2c.2-.1.3-.1.5-.2s.4-.1.5-.2l.5-.2-1.9.3-1.9.3-1.9.4-1.9.4-.7-.2-.7-.2-.7-.2c-.2-.1-.5-.1-.7-.2-.3 0-.5.1-.8.1-.3 0-.5.1-.8.1l-.8.1-.8.1c.2-.1.4-.1.6-.2l.6-.2.6-.2.6-.2c.4-.1.8-.1 1.2-.2l1.2-.2c.4-.1.8-.1 1.2-.2.4-.1.8-.1 1.2-.2.5 0 .9-.1 1.4-.1.5 0 .9-.1 1.4-.1l1.4-.1c.5 0 .9-.1 1.4-.1l-.5-.3-.5-.3-.5-.3-.5-.3.4-.1.4-.1.4-.1c.1 0 .3 0 .4-.1l-.6-.2-.6-.2-.6-.2-.6-.2c.8-.1 1.6-.2 2.5-.3l2.5-.3 2.5-.3 2.5-.3.4.2c.1.1.3.2.4.2l.4.2c.1.1.2.2.4.2v2.5h-1.2l-.2.2-.2.2-.3.2-.2.2.4.1c.1 0 .3.1.4.1l.4.1c.1 0 .3 0 .4.1-.7.1-1.3.3-2 .4l-2 .4-2 .4-2 .4-.5.8zm16.8-1.2L294 70l-1.6-.2-1.6-.2 1.7-.7 1.7-.7 1.7-.7 1.7-.7 1.2.3 1.2.3 1.2.3 1.2.3-1.2.6-1.2.6-1.2.6-1.2.6c-1-.1-1.5-.2-2-.2zm-61.6-.1h-3l1.1-.6 1.1-.6 1.1-.6 1.1-.6 2.3-.4 2.3-.4 2.3-.4c.8-.1 1.5-.3 2.3-.4l-1.2.4-1.2.4c-.4.1-.8.3-1.2.4l-1.2.4h2.8l-.3.2-.3.2-.3.2-.3.2-1.6.4-1.6.4-1.6.4-1.6.4h-1zm-7.6-.2l-.8-.1-.8-.1c-.3 0-.5-.1-.8-.1.5 0 .9-.1 1.4-.1l1.4-.1 1.4-.1 1.4-.1c-.2.1-.4.1-.6.2l-.6.2c-.2.1-.4.1-.6.2-.2.1-.4.1-.6.2l-.8-.1zm124.8-.5c-.2 0-.4-.1-.6-.1-.2 0-.4-.1-.6-.1l-.6-.1-.3-.2-.3-.2c-.1-.1-.2-.2-.3-.2s-.2-.2-.3-.2l.2-.5c.1-.2.1-.3.2-.5s.1-.3.2-.5.1-.3.2-.5l2-.1 2-.1h4l1.8.4c.6.1 1.2.3 1.8.4l1.8.4c.6.1 1.2.3 1.8.4l-3.1.5c-1 .2-2 .3-3.1.5-1 .2-2 .3-3.1.5l-3.1.5-.6-.3zm-88.6-.2l-.2-.2c-.1-.1-.2-.1-.2-.2l-.2-.2c.3-.1.6-.1.9-.2l.9-.2.9-.1.9-.1.6.1.6.1c.2 0 .4.1.6.1s.4 0 .6.1l-1.3.3-1.3.3-1.3.3-1.3.3-.2-.4zm44.2-2c-.2-.4-.4-.7-.6-1.1l-.6-1.1-.6-1.1c-1 0-1.9.1-2.9.2l-2.9.2-2.9.2-2.9.2c0-.2.1-.3.1-.5s.1-.3.1-.5.1-.3.1-.5.1-.3.1-.5c1.6-.1 3.1-.2 4.7-.3 1.6-.1 3.1-.2 4.7-.3 1.6-.1 3.1-.2 4.7-.3l4.7-.3.5.1c.2 0 .3.1.5.1l.5.1c.2 0 .3.1.5.1h3.5l-1 .3-1 .3-1 .3c-.3.1-.7.2-1.1.3.6.1 1.2.2 1.9.2l1.9.2c.6.1 1.2.2 1.9.2l1.9.2.6-.2.6-.2.6-.2.6-.2c.6 0 1.1 0 1.7-.1l1.7-.1 1.7-.1 1.7-.1-.3-.1-.3-.1c-.1 0-.2 0-.3-.1s-.2 0-.3-.1l1.5-.3 1.5-.3 1.5-.3 1.5-.3c1.5-.1 2.9-.1 4.4-.2l4.4-.2c1.5-.1 2.9-.1 4.4-.2l4.4-.2-.7.3-.7.3-.7.3-.7.3h3.2l-.8.4c-.3.1-.5.2-.8.4l-.8.4-.8.4-2.3.3c-.8.1-1.5.2-2.3.3l-2.3.3c-.8.1-1.5.2-2.3.3l-.6-.2-.6-.2-.6-.2-.7-.2.1.3.1.3.1.3.1.3-2.6.3-2.6.3-2.6.3-2.6.3v.7c-.6.1-1.1.1-1.7.2l-1.7.2-1.7.2c-.6.1-1.1.1-1.7.2l-.5-.3-.5-.3-.5-.3c-.2-.1-.3-.2-.5-.3l-.1.3-.1.3c0 .1-.1.2-.1.3 0 .1-.1.2-.1.3-.1 0-.2-.1-.3-.1l-.3-.1-.3-.1c-.1 0-.2-.1-.2-.1l-.8.3c-.3.1-.6.2-.8.3-.3.1-.6.2-.8.3s-.6.2-.8.3c-.2-.1-.4-.1-.6-.2l-.6-.2-.6-.2-.6-.2c-.4.1-.7.1-1.1.2s-.7.1-1.1.2l-1.1.2c-.4.1-.7.1-1.1.2-1.2-.3-1.4-.6-1.6-1zm-75.4.1H230.8l2-.6 2-.6 2-.6c.7-.2 1.3-.4 2-.6l1.7-.1 1.7-.1 1.7-.1c.6 0 1.2-.1 1.7-.1-.8.2-1.7.4-2.5.5l-2.5.5-2.5.5-2.5.5c-.3.1-.7.1-1 .2l-1 .2-1 .2c-.3.1-.7.1-1 .2h-.2zm29.3-.6l-.9-.1-.9-.1-.9-.1-.2-.3-.2-.3c-.1-.1-.1-.2-.2-.3-.1-.1-.1-.2-.2-.3l1.4.1 1.4.1 1.4.1 1.4.1-.3.2-.3.2-.3.2-.3.2c-.3.4-.6.3-.9.3zm403.2-.6l-.2-.1-.2-.1-.2-.1.5-.2c.2-.1.4-.2.5-.2l.5-.2.5-.2-.3.3-.3.3-.3.3-.3.3-.2-.1zm116.3-1.2c.1-.2.2-.3.2-.5.1-.2.2-.3.2-.5.1-.2.2-.3.2-.5.4.1.7.2 1.1.3l1.1.3 1.1.3 1.1.3-1.3.2-1.3.2c-.4.1-.9.1-1.3.2s-.9.1-1.3.2c.1-.2.1-.3.2-.5zm-114.4.2v-.2-.4h1.2c-.1.1-.2.1-.3.2l-.3.2-.3.2-.3.2c.1 0 .1-.1 0-.2zm-6.5-.2V64.6h2l-.5.1-.5.1-.5.1-.5.1v-.1zm159.4-.8c-.5-.2-1.1-.3-1.6-.5s-1.1-.3-1.6-.5-1.1-.3-1.6-.5c.2 0 .3-.1.5-.1l.5-.1.5-.1.5-.1 1.2.6 1.2.6 1.2.6 1.2.6-2-.5zM664.6 64l.2-.2.2-.2.2-.2h.8l.2.1h.2c.1 0 .1 0 .2.1s.1 0 .2 0l.4-.2.4-.2.4-.2.4-.2.3.2.3.2.3.2.3.2c-.4.1-.9.1-1.3.2s-.9.1-1.3.2l-1.3.2-1.3.2.2-.4zm-.9-.4H661.9l.5-.3.6-.3.6-.3.6-.3v1.3l-.5-.1zM272 63.3l-.1-.2-.2-.2-.1-.2 1.1-.1c.4 0 .8 0 1.1-.1l1.1-.1c.4 0 .8 0 1.1-.1l-1 .2-1 .2-1 .2-1 .2v.2zm4.4-1.5l-.7-.2c-.2-.1-.4-.1-.7-.2l-.7-.2-3.3.2c-1.1.1-2.2.1-3.3.2l-3.3.2-3.3.2 1.5-.4 1.5-.4 1.5-.4 1.5-.4-.7.1H264.3c.1 0 .2-.1.3-.1.1 0 .2-.1.3-.1l.3-.1.3-.1-1.1.2-1.1.2-1.1.2c-.4.1-.7.2-1.1.3.1-.1.2-.2.3-.2l.2-.2.2-.2.2-.2c-.3 0-.5.1-.8.1s-.5.1-.8.1l-.8.1-.8.1 1.5-.5c.5-.2 1-.4 1.5-.5l1.5-.5 1.5-.5 1.2.2 1.2.2h1.8l1.2.2 2.5-.2 2.4-.1c.8 0 1.6-.1 2.4-.1l2.4-.1c.2.1.3.2.5.4s.3.2.5.4l.5.4.5.4c-.4.2-.8.3-1.2.5-.4.2-.8.3-1.2.5l-1.2.5-1.2.5-.7-.5zm394.7-.3l.4-.2.4-.2c.1-.1.3-.2.4-.2l.6.1.6.1.6.1.6.1-1.1.2-1.1.2-1.1.2c-.4.1-.7.1-1.1.2.5-.5.7-.5.8-.6zm-355.4-.2l-.7-.2-.7-.2c-.2-.1-.5-.1-.7-.2.2 0 .4 0 .6.1s.4 0 .6.1h.6l.6.1.1.1.1.1.1.1.1.1c-.3 0-.5 0-.7-.1zm491.9-.4l-2.6-.1-2.6-.1-2.6-.1-2-.5-2-.5-1.9-.5-1.9-.5-.5-.6c-.2-.2-.3-.4-.5-.6l-.5-.6c-.2-.2-.3-.4-.5-.6.3-.1.5-.2.8-.3l.8-.3.8-.3.6-.3c.1-.1.2-.3.3-.4s.2-.3.3-.4.2-.3.3-.4l.3-.4c.3-.1.6-.2 1-.3l1-.3c.3-.1.6-.2 1-.3l1-.3V50.4c1.8-.5 3.5-1 5.3-1.5s3.5-1 5.3-1.5c1.8-.5 3.5-1 5.3-1.4 1.8-.5 3.5-.9 5.3-1.4 2.5 0 5-.1 7.6-.1 2.5 0 5.1 0 7.6-.1h15.2l-3.1.6-3.1.6-3.1.6-3.1.6c-1.5.2-3.1.3-4.6.5l-4.6.5-4.6.5c-1.5.2-3.1.4-4.6.5l-2.1.6-2.1.6-2.1.6c-.7.2-1.4.4-2.1.7-.4.2-.8.5-1.2.7l-1.2.7c-.4.2-.8.5-1.2.7l-1.2.7-.7.5-.7.5-.7.5c-.2.2-.4.3-.7.5l1.8 1.2 1.8 1.2 1.8 1.2 1.7 1.2c-.7.1-1.6.1-2.5 0zm-490.7-.1l.1-.2.1-.2.1-.2 2.4-.7 2.4-.7c.8-.2 1.6-.5 2.4-.7s1.6-.5 2.4-.7c-.4-.1-.7-.1-1.1-.2l-1.1-.2-1.1-.2-1.1-.2 1.6-.2 1.6-.2 1.6-.2c.5-.1 1-.2 1.6-.2.3.1.7.2 1 .3s.7.2 1 .3l1 .3c.3.1.7.2 1 .3l.4-.2.4-.2.4-.2.4-.2c.1-.3.1-.6.2-.9s.1-.6.2-.9l.2-.9c.1-.3.1-.6.2-.9-.5.2-1 .4-1.4.6-.5.2-1 .4-1.4.6l-1.4.6-1.4.6-.7-.4c-.2-.1-.5-.2-.7-.4s-.5-.2-.7-.4-.5-.2-.7-.4c1.2-.2 2.4-.4 3.6-.5l3.6-.5 3.6-.5 3.6-.5-2.8-1.1c-.9-.4-1.9-.8-2.8-1.1l-2.8-1.1L330 47l2.3-.2 2.3-.2 2.3-.2 2.3-.2 2.2.3 2.2.3 2.2.3c.7.1 1.5.2 2.2.3l-1.6-.4c-.5-.1-1-.3-1.6-.4l-1.6-.4-1.6-.4c1.6-.3 3.2-.7 4.8-1l4.8-1c1.6-.3 3.2-.6 4.8-1 1.6-.3 3.2-.6 4.8-1h-.7l-.7-.1H358l1.2-.6 1.2-.6 1.2-.6 1.2-.6c-1.7.5-3.5.9-5.2 1.4l-5.2 1.4c-1.7.5-3.5.9-5.2 1.4l-5.2 1.4.9-.4.9-.4.9-.4.9-.4-1.2.3-1.2.3-1.2.3-1.2.3.3-.2.3-.2c.1-.1.2-.1.3-.2.1-.1.2-.1.3-.2l-1.4.5-1.4.5-1.4.5-1.4.5-1.9.1-1.9.1-1.9.1-1.9.1c.7-.2 1.4-.5 2.1-.7l2.1-.7c.7-.2 1.4-.5 2-.7.7-.2 1.4-.5 2-.7l-4.4.7-4.4.7c-1.5.2-3 .5-4.4.7l-4.5.7 4-.9 4-.9 4-.9 3.9-.9c-1.6.2-3.2.5-4.7.8l-4.7.8-4.7.8-4.7.8 1.3-.6c.4-.2.9-.4 1.3-.6s.9-.4 1.3-.6l1.3-.6-1.4.4-1.4.4-1.4.4c-.5.1-1 .3-1.4.4l-1.5-.1-1.5-.1-2-.7c-.5 0-1-.1-1.5-.1l5.5-1.1c1.8-.4 3.7-.7 5.5-1.1l5.5-1.1c1.8-.4 3.7-.7 5.5-1.1-.3 0-.5 0-.8-.1l-.8-.1c-.3 0-.6 0-.8-.1l-.8-.1c.4-.1.8-.1 1.2-.2l1.2-.2 1.2-.2 1.2-.2-.2-.2-.2-.2-.2-.2-.2-.2h5.7c1.9 0 3.8 0 5.6.1l5.6.1c1.9 0 3.8.1 5.6.1l-2.8-.3-2.8-.3-2.8-.3c-.9-.1-1.9-.2-2.8-.3l1.2-.5 1.2-.1c.4-.2.8-.3 1.2-.5s.8-.3 1.2-.5l1.1-.2 1.1-.2 1.1-.2 1.1-.2.6-.2.6-.2c.2-.1.4-.1.6-.2l.6-.2H368l-1.4-.3-1.4-.3-1.4-.3-1.4-.3 2.4-.2 2.4-.2 2.4-.2c.8-.1 1.6-.2 2.4-.2l1.6.2 1.6.2 1.6.2 1.6.2c-.1-.1-.2-.2-.4-.3l-.4-.3-.4-.3-.3-.3 6-.6 6-.6 6-.6 6-.6c-.5.2-1.1.4-1.6.5l-1.6.5c-.5.2-1.1.4-1.6.5l-1.6.5c2.1-.1 4.1-.3 6.2-.4 2.1-.1 4.1-.2 6.2-.4 2.1-.1 4.1-.2 6.1-.4 2-.1 4.1-.2 6.1-.3-2.2.4-4.4.9-6.7 1.3s-4.5.9-6.7 1.3-4.5.9-6.7 1.3c-2.2.5-4.5.9-6.7 1.4h1.7l1.7-.1 1.7-.1h1.7l-3 .7-3 .7-3 .7-3 .7 4.9-.9c1.6-.3 3.3-.6 4.9-.9s3.2-.6 4.9-.9l4.9-.9-6.5 1.9c-2.2.6-4.3 1.3-6.5 1.9-2.2.6-4.3 1.3-6.5 1.9-2.2.7-4.4 1.3-6.5 2l1.2-.1 1.2-.1.9.1c.4 0 .8-.1 1.2-.1l-1.2.5-1.2.5-1.2.5-1.2.5-1.3.1-1.3.1-1.3.1-1.3.1.2.2.2.2.2.2.2.2-3.3.6-3.3.6-3.3.6-3.3.6h8c-.6.1-1.2.1-1.8.2-.6.1-1.2.1-1.8.2s-1.2.1-1.8.2l-1.8.2 1.7.1c.6 0 1.2.1 1.7.1l1.7.1c.6 0 1.2.1 1.7.1l-1.6.3-1.6.2-1.6.2-1.6.2.9.1.9.1.9.1.9.1-1.2.5-1.2.5-1.2.5-1.2.5c-.4 0-.8 0-1.2.1s-.8 0-1.2.1-.8 0-1.2.1l-1.2.1V53c-.3.2-.7.4-1 .6s-.7.4-1 .6l-1 .6-1 .6 1.2-.1c.4 0 .8 0 1.2-.1l1.2-.1 1.2-.1c0 .1.1.2.1.3s.1.2.1.3l.1.3c0 .1.1.2.1.3l-.6.2-.6.2-.6.2-.5.2h-1.6c-.1.1-.3.1-.4.2l-.4.2-.4.2-.4.2c-.5.1-1.1.3-1.6.4l-1.6.4-1.6.4-1.6.4c0-.1 0-.2-.1-.4s0-.2-.1-.4 0-.2-.1-.4 0-.2-.1-.4c-2.5.3-5 .5-7.5.8s-5 .6-7.5.8c-2.5.3-5 .6-7.6.9-2.5.3-5 .6-7.6.9.1-.2.2-.3.2-.4zm359.6-.1H674.7l.6-.2c.2-.1.4-.2.6-.2s.4-.2.6-.2l.6-.2v.8h-.6zm-380.8-.5c.9-.1 1.9-.3 2.8-.4l2.8-.4 2.8-.4c-.1.1-.3.2-.4.3l-.4.3-.4.3c-.1.1-.3.2-.4.3l-2.4.1-2.4.1-2.4.1-2.4.1c.9-.1 1.9-.3 2.8-.4zm-5.9.2l-.7-.1c-.2 0-.5-.1-.7-.1s-.5-.1-.7-.1c.3-.1.5-.1.8-.2l.8-.2.8-.2.8-.2-1.3-.2-1.3-.2-1.3-.2-1.3-.2c.5-.1.9-.3 1.4-.4l1.4-.4 1.4-.4c.5-.1.9-.3 1.4-.4l1.8.1 1.8.1 1.8.1 1.8.1c0 .1-.1.2-.1.3s-.1.2-.2.3-.1.2-.2.3l-.2.3-1.8.5-1.8.5-1.8.5-1.8.5-.8-.1zm388.5-.6l-.3-.1-.3-.1c-.1 0-.2 0-.3-.1l.7-.1.7-.1.7-.1.7-.1c-.1 0-.3.1-.4.1l-.4.1-.4.1c-.1 0-.3.1-.4.1l-.3.3zm-365.4-.7l-.5-.2-.5-.2-.5-.2h5.6l-.9.2-.9.2c-.3.1-.6.1-.9.2l-.9.2c-.2 0-.4-.1-.5-.2zm369.9.1l-.1-.1-.1-.1-.1-.1h1.6l-.3.1-.3.1-.3.1-.3.1-.1-.1zm4.1-.3l.2-.2.2-.2.2-.2h2.8l-.9.2-.9.2c-.3.1-.6.1-.9.2l-.9.2.2-.2zm3.6-1.1l-.9-.2-.9-.2-.9-.2 1.3-.1 1.3-.1c.4 0 .9 0 1.3-.1l1.3.1-.4.2c-.1.1-.3.2-.4.2l-.4.2-.4.2h-.1c-.3.1-.5.1-.8 0zm163-1.5l.4-.3.5-.3.4-.3 1 .3 1 .3 1 .3 1 .3h-6l.7-.3zm-547.3-.4l1.2-.2 1.2-.2 1.2-.2-1.8.1-1.8.1-1.8.1-1.8.1c.2 0 .4-.1.6-.1l.6-.1c.2 0 .4-.1.6-.1s.4-.1.6-.1h-4.4l3.5-.7 3.5-.7c1.2-.2 2.3-.5 3.5-.7s2.3-.5 3.5-.7l-1.9.2-1.9.2-1.9.2-1.9.2 1.3-.2 1.3-.2 1.3-.2 1.3-.2c-.6 0-1.1.1-1.7.1-.6 0-1.1.1-1.7.1l-1.7.1c-.6 0-1.2.1-1.7.1l-1 .3c-.3.1-.7.2-1 .3l-1 .3-1 .3s0-.1.1-.1l.1-.1v-.1s0-.1.1-.1l-.7.2-.7.2c-.2.1-.4.1-.7.2l-.7.2h-2.4l-.1-.1-.1-.1-.1-.1-.1-.1c.3-.1.6-.2 1-.3l1-.3 1-.3c.3-.1.6-.2 1-.3l-1.9-.1-2-.1-2-.1-2-.1c.7-.1 1.3-.1 2-.2l2-.2c.7-.1 1.3-.1 2-.2s1.3-.1 2-.2c-.1 0-.2-.1-.2-.1l-.2-.1-.2-.1-.2-.1.4-.2.4-.2.4-.2.4-.2-1.2.2-1.2.2c-.4.1-.8.1-1.2.2-.4.1-.8.1-1.2.2l.2-.1H297c-.4 0-.7 0-1.1.1l-1.1.1-1.1.1-1.1.1 2.2-.7c.7-.2 1.4-.4 2.2-.7.7-.2 1.4-.4 2.2-.6l2.2-.6H297c.7-.2 1.5-.4 2.2-.6s1.5-.4 2.2-.6l2.2-.6 2.2-.6-1.2.1-1.2.1-1.2.1-1.2.1c.5-.1 1-.2 1.6-.2l1.6-.2 1.5-.2 1.5-.2 2.8.4 2.8.4 2.8.4 2.8.4.3.2.3.2.3.2c.1.1.2.1.3.2.3 0 .5 0 .8.1l.8.1c.3 0 .5 0 .8.1l.8.1c-.1-.1-.2-.1-.3-.2l-.3-.2-.3-.2-.3-.2.8.2.8.2.8.2.8.2.3.5.3.5c.1.2.2.3.3.5l.3.5c.4 0 .9-.1 1.3-.1l1.3-.1 1.3-.1c.4 0 .8-.1 1.3-.1.1-.1.2-.1.2-.2s.1-.1.2-.2l.2-.2.2-.2.7.2.7.2.7.2.7.2-1.9.4-1.9.4-1.9.4-1.9.4-.6.4c-.2.1-.4.3-.6.4l-.6.4-.6.4-.1-.4c0-.1-.1-.2-.1-.4s-.1-.2-.1-.4-.1-.2-.1-.4c-.3.2-.6.3-1 .5l-1 .5-1 .5-1 .5c0 .1 0 .3-.1.4s0 .3 0 .4v.4c0 .1 0 .3-.1.4l-1.1-.3-1.1-.3-1.1-.3-1.1-.3.5.4.5.4.5.4.5.4-1.1-.1-1.1-.1-1.1-.1-1.1-.1.4.1.4.1.4.1.4.1h-9.6l.8-.3zm660.4-6.2l-.8-.2-.8-.2c-.3-.1-.5-.1-.8-.2l-2.3-.1-2.3-.1-2.3-.1-2.3-.1 1.7-.8c.6-.3 1.1-.5 1.7-.8l1.7-.8c.6-.3 1.1-.5 1.7-.8l1.7.1c.6 0 1.2 0 1.7.1s1.2 0 1.7.1l1.7.1c-.1 0-.3.1-.4.1l-.4.1c-.1 0-.3.1-.4.1l-.4.1 1 .1c.3 0 .7.1 1 .1s.7.1 1 .1l1 .1 1.4.8 1.5.8c.5.3 1 .5 1.5.8l1.5.8h-9.6c-.2-.1-.5-.1-.7-.2zm-13.7-4.4l-3.9-.4-3.9-.4c-1.3-.1-2.6-.3-3.9-.4l-1.5-.7-1.5-.7-1.5-.7c-.5-.2-1-.4-1.5-.7l-1.9-.2-1.8-.2-1.8-.2-1.8-.2-.7-.3c-.3-.1-.5-.2-.7-.3l-.7-.3c-.2-.1-.5-.2-.7-.3l.5-.4.5-.4.5-.4.5-.4h4l.6-.3.6-.3.6-.3.6-.3 1.9-.2 1.9-.2 1.9-.2 1.9-.2 2 .7 2 .7 2 .8c.7.2 1.3.5 2 .8l-.6.3-.6.3-.6.3-.6.3 1.2.3 1.2.3 1.2.3 1.2.3c-.2.1-.5.2-.7.2-.2.1-.5.2-.7.2-.2.1-.5.2-.7.2-.2.1-.5.2-.7.2l1.8.1c.6 0 1.2.1 1.8.1.6 0 1.2.1 1.8.1l1.8.1c.1.3.1.5.2.8s.1.5.2.8c.1.3.1.5.2.8.1.3.1.5.2.8-1.2.1-2.5 0-3.8-.2zm-276.4-1.9l-2.1-.8-2.1-.8c-.7-.3-1.4-.6-2.1-.8h6.5l.2-.3c.1-.1.2-.2.2-.3.1-.1.2-.2.2-.3.1-.1.2-.2.2-.3l-1.9-.2-1.9-.2-1.9-.2c-.6-.1-1.2-.1-1.9-.2.8-.2 1.5-.3 2.3-.5l2.3-.5 2.3-.5 2.3-.5-1.3-.1-1.3-.1c-.4 0-.9-.1-1.3-.1l-1.3-.1-2 .2c-.7.1-1.4.1-2 .2l-2 .2-2 .2V35l-1.2-.4-1.2-.4-1.2-.4-1.2-.4c.1-.2.1-.4.2-.5.1-.2.1-.4.2-.5s.1-.4.2-.5c.1-.2.1-.4.2-.5.6 0 1.3-.1 1.9-.1l1.9-.1 1.9-.1 1.9-.1c-.1.1-.2.1-.3.2-.1.1-.2.1-.3.2l-.3.2-.3.2s.1 0 .2.1.3.1.6.2.5.1.7.2c.2 0 .4.1.6.1h.2v-.1-.1c-.1-.1.1-.2.3-.3.3-.1.6-.2.9-.2.3 0 .6-.1.9-.1h.4l.2.8c.1.3.1.6.2.8s.1.6.2.8.1.6.2.8l1.2.1 1.2.1 1.2.1 1.2.1c-.1-.3-.2-.6-.4-.9s-.2-.6-.4-.9l-.4-.9-.4-.9 1.3-.1c.4 0 .9-.1 1.3-.1l1.3-.1c.4 0 .9-.1 1.3-.1l1.5.9 1.5.9 1.5.9 1.5.9 1.4.4 1.4.4 1.4.4 1.4.4.4.5.4.5.4.5.4.5-1.5.1-1.5.1-1.5.1-1.5.1.6-.5.6-.5.6-.5.6-.5h-3.6s-.2.1-.6.4l-1.3.8-1.3.8c-.4.2-.7.4-.7.4-.1 0-.5.4-1 .9s-1.2 1.2-1.9 1.8c-.7.7-1.4 1.3-1.9 1.8l-.8.8-2.3-1.1zm21.7-1.3c-.1-.1-.1-.2-.2-.4l-.2-.4c-.1-.1-.1-.2-.2-.4l-1.3.1-1.3.1-1.4.1-1.3.1c.1-.1.2-.3.3-.4l.3-.4c.1-.1.2-.3.3-.4s.2-.3.3-.4l-.2-.2-.2-.2c-.1-.1-.1-.2-.2-.2-.1-.1-.1-.2-.2-.2l.9-.1.9-.1.9-.1.9-.1.7-.1.7-.1.7-.1.7-.1.5.4c.2.1.3.2.5.4l.5.4.5.4c.1 0 .2 0 .3.1.1 0 .2 0 .3.1l.3.1c.1 0 .2 0 .3.1-.1.1-.2.3-.3.4-.1.1-.2.3-.3.4l-.3.4c-.1.1-.2.3-.3.4l-.7.2-.7.2-.7.2-.7.2c0-.1 0-.2-.1-.4zm1.2-8.1h-.2c-.4-.1-.7-.2-1.1-.3-.5-.2-1-.4-1.6-.6s-1-.4-1.4-.6l-.6-.3c-.1.1-.2.2-.4.2l-.4.2-.4.2c-.1.1-.2.2-.4.2l-.6-.2c-.4-.1-.9-.3-1.4-.4s-1-.3-1.3-.4-.5-.2-.4-.2c.1 0 .5 0 1.1-.1.5-.1 1.2-.1 1.8-.2s1.2-.2 1.7-.2l.7-.1h-8.1l-.4-.4-.4-.4-.4-.4-.4-.4 1.1.1c.4 0 .7 0 1.1.1.4 0 .7 0 1.1.1l1.1.1c-.1-.1-.2-.3-.3-.4l-.3-.4-.3-.4c-.1-.1-.2-.3-.3-.4v-.2l1.8.6 1.8.6 1.8.6 1.8.6 1.5-.4c.5-.1 1-.3 1.5-.4l1.5-.4c.5-.1 1-.3 1.5-.4h1.8l1.8.3 1.8.3 1.8.3c-.1.2-.1.5-.2.7s-.1.5-.2.7c-.1.2-.1.5-.2.7l-.2.7c-.1.1-.3.2-.4.3s-.3.2-.4.3c-.1.1-.3.2-.4.3-.1.1-.3.2-.4.3l-.8.1c-.5 0-1.2.1-1.9.1-.7.1-1.5.1-2.1.1-.8-.2-1.4-.2-1.8-.2zm115.7-2.9l-.4-.2c-.1-.1-.3-.1-.4-.2-.1-.1-.3-.1-.4-.2.3 0 .6.1.9.1s.6.1.9.1l.9.1c.3 0 .6.1.9.1l-.5.1-.5.1-.5.1-.5.1-.4-.2zm-4.7-1.1l-2.3-.1-2.3-.1c-.8 0-1.5-.1-2.3-.1.7-.1 1.5-.1 2.2-.2l2.2-.2 2.2-.2 2.2-.2.6.2.6.2.6.2c.2.1.4.1.6.2h-3.2l.2.1.2.1.2.1.2.1-1.9-.1zm7.9-.5l-.7-.1-.7-.1c-.2 0-.5-.1-.7-.1-.1-.1-.3-.2-.4-.3-.1-.1-.3-.2-.4-.3l-.4-.3-.4-.3 1.8-.2 1.8-.2 1.8-.2c.6-.1 1.2-.1 1.8-.2l.9.4.9.4c.3.1.6.3.9.4l.9.4-1.5.1-1.5.1-1.5.1-1.5.1c-.6.4-.8.3-1.1.3zm-23.8-.1l-1.2-.1-1.2-.1-1.2-.1 1.8-.1c.6 0 1.2 0 1.8-.1l1.8-.1 1.8-.1c-.2.1-.4.1-.6.2-.2.1-.4.1-.6.2l-.6.2-.6.2c-.4-.1-.8-.1-1.2-.1zm33.3-.4l-.4-.2-.4-.2-.4-.2h4.8l.3-.2c.1-.1.2-.2.3-.2l.3-.2.3-.2h3.2c-.1.1-.2.2-.3.4-.1.1-.2.2-.3.4s-.2.2-.3.4l-.3.4c-.6 0-1.1 0-1.7.1l-1.7.1-1.7.1c-.6 0-1.1 0-1.7.1V29zm-49.6-.5c-.7-.1-1.3-.1-2-.2s-1.3-.1-2-.2l-2-.2 1.2-.3 1.2-.3 1.2-.3 1.2-.3-1.5.1-1.5.1c-.5 0-1 .1-1.5.1s-1 .1-1.5.1c-.4-.1-.7-.1-1.1-.2l-1.1-.2-1.1-.2-1.1-.2 4.4-.1c1.5 0 2.9-.1 4.4-.1 1.5 0 2.9-.1 4.4-.1 1.5 0 2.9 0 4.4-.1.4.1.9.1 1.3.2s.8.2 1.3.2l1.3.2 1.3.2-2.4.1-2.4.1-2.4.1c-.8 0-1.6.1-2.4.1l.2.3.2.3c.1.1.1.2.2.3l.2.3-2.4.2zm23.8-.7l-1.7-.3-1.7-.3c-.6-.1-1.1-.2-1.7-.3.6-.1 1.1-.1 1.7-.2l1.7-.2 1.7-.2 1.7-.2 1.7.3 1.7.2c.6.1 1.2.2 1.7.3l1.7.3-1.8.2c-.6.1-1.2.1-1.8.2l-1.8.2-1.8.2-1.3-.2zm4.6-1.7l-1.4-.2-1.4-.1-1.4-.1 1.5-.4c.5-.1 1-.2 1.5-.4s1-.2 1.5-.3l1.5-.3h6.8l-1.4.1-1.4.1-1.4.1-1.4.1.7.3c.2.1.5.2.7.3.2.1.5.2.7.3l.7.3-1.1.1-1.1.1c-.4 0-.7.1-1.1.1l-1.1.1-1.4-.2z" fill="#f2f5f8"/></g><circle class="st2" cx="313.7" cy="146.4" r="9"/><circle class="st3" cx="313.7" cy="146.5" r="2.5"/><circle class="st4" cx="313.7" cy="146.5" r="4"/><circle class="st2" cx="413.8" cy="303.9" r="9"/><circle class="st3" cx="413.8" cy="304.1" r="2.5"/><circle class="st4" cx="413.8" cy="304.1" r="4"/><circle class="st2" cx="456.9" cy="239.5" r="9"/><circle class="st3" cx="456.9" cy="239.7" r="2.5"/><circle class="st4" cx="456.9" cy="239.7" r="4"/><circle class="st2" cx="563.1" cy="156.4" r="9"/><circle class="st3" cx="563.1" cy="156.5" r="2.5"/><circle class="st4" cx="563.1" cy="156.5" r="4"/><circle class="st2" cx="593.3" cy="109.8" r="9"/><circle class="st3" cx="593.3" cy="110" r="2.5"/><circle class="st4" cx="593.3" cy="110" r="4"/><circle class="st2" cx="657" cy="107.5" r="9"/><circle class="st3" cx="657" cy="107.6" r="2.5"/><circle class="st4" cx="657" cy="107.6" r="4"/><circle class="st2" cx="766.8" cy="273.4" r="9"/><circle class="st3" cx="766.8" cy="273.5" r="2.5"/><circle class="st4" cx="766.8" cy="273.5" r="4"/><circle class="st2" cx="743.2" cy="213.3" r="9"/><circle class="st3" cx="743.2" cy="213.4" r="2.5"/><circle class="st4" cx="743.2" cy="213.4" r="4"/><circle class="st2" cx="863.4" cy="163.1" r="9"/><circle class="st3" cx="863.4" cy="163.2" r="2.5"/><circle class="st4" cx="863.4" cy="163.2" r="4"/><circle class="st2" cx="981.6" cy="211" r="9"/><circle class="st3" cx="981.6" cy="211.1" r="2.5"/><circle class="st4" cx="981.6" cy="211.1" r="4"/><circle class="st2" cx="1095.6" cy="265.3" r="9"/><circle class="st3" cx="1095.6" cy="265.4" r="2.5"/><circle class="st4" cx="1095.6" cy="265.4" r="4"/><circle class="st2" cx="1038.9" cy="317.6" r="9"/><circle class="st3" cx="1038.9" cy="317.8" r="2.5"/><circle class="st4" cx="1038.9" cy="317.8" r="4"/><circle class="st2" cx="723.4" cy="103.8" r="9"/><circle class="st3" cx="723.4" cy="104" r="2.5"/><circle class="st4" cx="723.4" cy="104" r="4"/><circle class="st2" cx="695.7" cy="68.4" r="9"/><circle class="st3" cx="695.7" cy="68.5" r="2.5"/><circle class="st4" cx="695.7" cy="68.5" r="4"/><circle class="st2" cx="248.3" cy="202.4" r="9"/><circle class="st3" cx="248.3" cy="202.6" r="2.5"/><circle class="st4" cx="248.3" cy="202.6" r="4"/><circle class="st2" cx="188.1" cy="158.7" r="9"/><circle class="st3" cx="188.1" cy="158.9" r="2.5"/><circle class="st4" cx="188.1" cy="158.9" r="4"/></g></svg>