<svg xmlns="http://www.w3.org/2000/svg" id="prefix__alamo-3" width="77.266" height="35.516" viewBox="0 0 77.266 35.516">
    <defs>
        <style>
            .prefix__cls-2{fill-rule:evenodd;fill:#fff22d}
        </style>
    </defs>
    <path id="prefix__Path_1234" fill="#2360a5" fill-rule="evenodd" d="M80.778 91.5a4.992 4.992 0 0 0 4.992-4.992V60.979a4.992 4.992 0 0 0-4.992-4.992H13.5a4.992 4.992 0 0 0-5 4.992V86.51a4.992 4.992 0 0 0 5 4.99h67.278z" data-name="Path 1234" transform="translate(-8.504 -55.987)"/>
    <path id="prefix__Path_1235" d="M15.6 91.8a4.366 4.366 0 0 1-4.606-4.488V62.9a4.365 4.365 0 0 1 4.606-4.485h65.865a4.365 4.365 0 0 1 4.607 4.485v24.408a4.366 4.366 0 0 1-4.607 4.492zm65.135-1.013c2.636 0 4.224-1.494 4.224-4.007V63.434c0-2.512-1.588-4.007-4.224-4.007H16.329c-2.635 0-4.223 1.494-4.223 4.007v23.342c0 2.513 1.588 4.007 4.223 4.007z" class="prefix__cls-2" data-name="Path 1235" transform="translate(-9.899 -57.348)"/>
    <path id="prefix__Path_1236" d="M81.554 94.739c-3.236 0-6.294-1.66-6.294-5.281s3.058-5.281 6.294-5.281 6.294 1.66 6.294 5.281-3.057 5.281-6.294 5.281zm-54.628-3.056h7.52l1.369 2.791h4.427l-7-13.68h-4.816l-6.657 13.68h3.884zm17.3-10.75h-3.405v13.541h3.406zm12.238 11.58v-5.432c-.661-2.591-3.784-2.765-5.553-2.765-2.569 0-5.233.433-5.611 3.508h3.322c.094-.585.238-1.534 1.889-1.534.849 0 2.307.056 2.307 1.169 0 .566-.636.735-1.155.792l-3.109.359c-2.1.245-3.654 1.244-3.654 3.205 0 2.076 1.933 2.924 3.819 2.924a6.082 6.082 0 0 0 4.193-1.452 3.673 3.673 0 0 0 .306 1.187H56.5l-.038-1.961zm18.306-4.771c0-2.207-2.3-3.08-4.707-3.08a3.991 3.991 0 0 0-3.294 1.6 3.717 3.717 0 0 0-3.433-1.6c-2.181 0-2.254.936-2.671 1.6h-.046v-1.475h-3.386v9.687h3.525v-5.763c0-1.094.488-1.714 2.018-1.684 1.486.029 1.533.91 1.533 1.759v5.689h3.664v-5.67c0-1.188.3-1.817 1.926-1.779 1.228.029 1.714.514 1.624 1.7v5.744h3.248v-6.728zm6.784-1.34c-2.444 0-2.9 1.773-2.9 3.056s.452 3.055 2.9 3.055 2.9-1.773 2.9-3.055S84 86.4 81.554 86.4zm-50.939-2.691l2.543 5.356h-4.936zm22.065 7.161c0 1.226-1.486 1.98-2.947 1.98-.636 0-1.532-.283-1.532-1.206 0-1.094 1.014-1.34 2.24-1.509a5.663 5.663 0 0 0 2.24-.548v1.283zm36.42-7.088a1.422 1.422 0 1 1-1.42-1.416 1.369 1.369 0 0 1 1.42 1.416zm-.408 0a1.016 1.016 0 1 0-1.012 1.086 1.029 1.029 0 0 0 1.008-1.086zm-.357.761h-.386l-.352-.641h-.154v.641h-.326V83.02h.57c.393 0 .625.113.625.461a.356.356 0 0 1-.367.4zm-.371-1.1c0-.157-.168-.168-.292-.168h-.229v.367h.288c.143.002.229-.028.229-.197z" class="prefix__cls-2" data-name="Path 1236" transform="translate(-15.937 -69.888)"/>
</svg>
