<svg xmlns="http://www.w3.org/2000/svg" id="prefix__AVIS_logo_2012" width="84.083" height="25.661" viewBox="0 0 84.083 25.661">
    <path id="prefix__path14" fill="#d4002a" d="M81.6 2.54v-.668h.382c.221 0 .469.063.469.32 0 .284-.275.348-.521.348zm-.423 1.321h.423v-.98h.308l.543.98h.512l-.632-1.027a.626.626 0 0 0 .542-.634c0-.5-.433-.688-.882-.688h-.813zM80.234 2.7a1.76 1.76 0 1 1 1.752 1.761A1.756 1.756 0 0 1 80.234 2.7zm-.33 0A2.09 2.09 0 1 0 81.986.619 2.061 2.061 0 0 0 79.9 2.7zM49.535 25.04h5.932V.619h-5.932zM47.172.619h-6.518L35 18.267 29.24.619h-6.623L31.86 25.04h5.9L47.172.619zM26.216 25.04L16.228.619h-5.875L0 25.04h6.525l1.791-4.794h9.454l1.9 4.794zm-10.07-9.518h-6.137l3.1-8.382zm57.725-8.809a6.365 6.365 0 0 0-4.488-1.851c-1.517 0-3.415.519-3.415 2.451 0 1.619 1.45 2.168 3.762 2.9 3.311 1.07 7.587 2.451 7.587 7.314 0 5.621-4.519 8.139-9.347 8.139a12.877 12.877 0 0 1-9.141-3.518l3.616-3.711A7.735 7.735 0 0 0 67.97 20.8c1.792 0 3.38-.693 3.38-2.656 0-1.863-1.864-2.486-5.071-3.525-3.1-1-6.241-2.548-6.241-6.96 0-5.416 4.9-7.658 9.448-7.658a12.226 12.226 0 0 1 8 3l-3.615 3.712"/>
</svg>
