<svg xmlns="http://www.w3.org/2000/svg" id="prefix__Hertz_Logo" width="94.299" height="35.796" viewBox="0 0 94.299 35.796">
    <defs>
        <style>
            .prefix__cls-2{fill:#272425}
        </style>
    </defs>
    <path id="prefix__Path_1221" fill="#fff400" fill-rule="evenodd" d="M0 35.8L7.848 0H94.3l-7.848 35.8z" data-name="Path 1221"/>
    <path id="prefix__Path_1222" d="M88.177 47.2c-.608-.658-.253-1.949.076-3.443l1.063-5.012h4.354l.785-3.721H90.1l.785-3.721H86.76L84.076 44.11c-.405 1.924-.557 3.418.278 5.038.759 1.494 3.392 2.937 6.709 2.025L91.8 47.7c-2.278.278-3.164-.025-3.62-.506M53.369 31.3l-1.975 9.24h-7.215l1.949-9.24H42l-4.2 19.847h4.152l1.443-6.886h7.215l-1.468 6.886h4.1l4.2-19.847h-4.073zm23.7 5.114a8.664 8.664 0 0 0-2.79 5.286l-2 9.443h4.126l1.645-7.822c.38-1.823.684-2.987 1.367-3.7.937-.962 2.3-1.013 3.949-.886l.785-3.721a7.886 7.886 0 0 0-7.088 1.392m32.1-1.392H96.329l-.785 3.721h7.443l-9.316 8.81-.759 3.595h12.835l.785-3.721h-7.494l9.367-8.86zm-43.34-.278a8.306 8.306 0 0 0-5.139 1.9c-4.228 3.316-6.3 14.809 2.734 14.809a11.584 11.584 0 0 0 6.759-2.126l-1.62-2.785c-1.367 1.063-8.278 3.367-7.544-2.253h10.76s1.367-4.506-.608-7.215c-1.671-2.3-4.759-2.329-5.342-2.329m2.683 6.152H61.9a4.177 4.177 0 0 1 4.228-2.861 2.43 2.43 0 0 1 2.38 2.861" class="prefix__cls-2" data-name="Path 1222" transform="translate(-28.231 -23.376)"/>
    <path id="prefix__Path_1223" d="M316.158 94a2.777 2.777 0 0 0-2.607 2.152l-.051.456a1.622 1.622 0 0 0 1.721 1.671 2.8 2.8 0 0 0 2.582-2.152l.051-.43a1.621 1.621 0 0 0-1.7-1.7m1.367 2.076a2.5 2.5 0 0 1-2.3 1.924 1.3 1.3 0 0 1-1.418-1.392l.025-.38a2.529 2.529 0 0 1 2.278-1.924 1.356 1.356 0 0 1 1.444 1.399l-.025.38m-1.544-.962h-.911l-.43 2.051h.456l.127-.658h.354l.3.658h.532l-.354-.734a.869.869 0 0 0 .582-.633c.1-.43-.177-.684-.658-.684m.2.709a.39.39 0 0 1-.405.3h-.456l.127-.608h.456c.2 0 .3.1.279.3" class="prefix__cls-2" data-name="Path 1223" transform="translate(-234.137 -70.204)"/>
</svg>
