<svg xmlns="http://www.w3.org/2000/svg" viewBox="0 0 150.4 100"><path d="M11.6 95.5c.5-.9 1-1.8 1.7-2.6l-1.6.2c-2 3.1-5.2 6.5-9.2 6.5C1.1 99.6.2 99 .2 98c0-.6.4-1 .9-1s.9.2.9.8-.4.8-.7.8c-.2 0-.3 0-.3.2 0 .4.9.6 1.6.6 3.6 0 5.9-3.9 7.6-6.1-1.9.4-3.6 1.3-4.7 2.3l-.2-.1c.8-1 3.3-2.3 5.1-2.5 1.4-2.1 4.5-5.6 7-7.2v-.1c-1 .6-1.9 1-2.9 1-1.7 0-2.2-1.7-4.3-1.7s-4.4 1.9-4.4 4c0 1.3 1 1.8 1.8 1.8 1.8 0 4.2-2 4.6-3.6h.2c-.4 1.9-2.3 3.9-4.5 3.9-1.4 0-2.3-.7-2.3-2.2 0-2.2 3.4-4.6 5.5-4.6 1.8 0 2.9 1.8 4.6 1.8 1 0 2.2-.8 3.1-1.5l.1.2c-2.9 2.1-4.8 5-6.7 7.9l1.6-.2c.8-1.2 1.9-2.4 2.4-2.8l.1.1c-.7.6-1.5 1.8-2.1 2.7l1.6-.2c1.3-1.7 6.5-7.7 8.7-7.7.4 0 .6.2.6.6 0 2.6-5.3 6.7-7.9 7.1-.9 1.3-3.3 4.3-3.3 5.9 0 .8.7 1.2 1.4 1.2 3.1 0 6.2-3.8 6.2-5.2 0-.6-.3-1-.9-1-1.4 0-2.9 1.6-3.7 2.5h-.2c.9-1 2.4-2.7 3.9-2.7.8 0 1.2.6 1.2 1.4 0 2.5-3.9 5.4-6.2 5.4-1.6 0-2.2-.8-2.2-2.2 0-1.6 1.4-3.6 2.2-4.8L14 93c-.5.6-1 1.6-1.5 2.6h-.9v-.1zM24.2 85c-1.4 0-6.3 6.3-7.1 7.2 2.7-.6 7.5-5 7.5-7 0-.1-.2-.2-.4-.2zM30.2 95.8c-.3.2-1 .6-1.6.6-.5 0-.8-.2-1-.4-2 2.5-3.7 3.6-5.3 3.6-.6 0-1.3-.5-1.3-1.3 0-2 3.9-5.6 6.1-5.6.4 0 .7.2.8.5.1-.1.2-.1.2-.1.3 0 .4.2.4.6 0 .7-.5 1.8-.9 2.2.3.2.6.3 1 .3.3 0 1-.2 1.5-.6l.1.2zm-2.6-2.4c0-.2-.2-.4-.5-.4-.9 0-2.6 2-4.8 4.6-.5.6-.6.9-.6 1.3 0 .2.2.6.7.6 1.4 0 3.4-1.6 4.8-3.5-.2-.3-.2-.6-.2-1 .1-.7.3-1.3.6-1.6z"/><path d="M36.5 88.8h1.4l-2.7 2.8h1.4l-.2.2H35l-5 5.6c-.9 1-1.4 1.4-1.4 1.7 0 .2.2.2.5.2.6 0 1.8-.6 5.2-3.6l.2.2c-2.9 2.6-4.6 3.7-5.5 3.7-.5 0-.7-.3-.7-.8 0-.6.3-1.4 1.5-2.7l3.9-4.3h-1.4l.2-.2h1.4l2.6-2.8z"/><path d="M40.9 96.2c-1.9 1.7-4.4 3.5-6.7 3.5-.6 0-1.4-.2-1.4-1 0-2.2 4.1-5.7 6.3-5.7.5 0 .9.4.9.9 0 1.9-3.7 3-5.1 3-1.3 1.4-1.4 1.8-1.4 2.1 0 .4.4.5.8.5 1.8 0 4-1.5 6.5-3.5l.1.2zm-1.7-3c-.8 0-1.9 1-4.1 3.4 2.2 0 4.5-1.9 4.5-3 0-.3-.2-.4-.4-.4z"/><path d="M46.5 96.5c-3.1 2.8-4.7 3.2-5.6 3.2-.8 0-1.2-.5-1.2-1.3 0-2.5 10.5-13.7 12.6-13.7.4 0 .7.2.7.7 0 2.4-6.1 6.3-9.2 8.4 0 0-3.7 4.5-3.7 5 0 .3.2.5.5.5 1.2 0 2.7-.6 5.1-2.7l.8-.1zm5.9-11.4c-.8 0-3.8 2.7-8.2 8.4h.1c4-2.8 8.5-5.7 8.5-7.8.1-.5-.1-.6-.4-.6zM66.5 93.2c-1.4 1.3-3.2 3.4-4.7 5-.3.4-.5.6-.5.8 0 .3.2.4.5.4 1.3 0 4.4-2.5 5.4-3.6l.2.2c-1 1-4.2 3.7-5.7 3.7-.6 0-.9-.4-.9-.8 0-.3.1-.6.2-.8-1.2 1-2.2 1.7-3.1 1.7-.8 0-1.4-.5-1.4-1.4 0-2.6 4.6-5.4 6.3-5.4.6 0 1.3.3 1.3.8 0 .2 0 .2-.1.5h.1l1-1 1.4-.1zm-3.4 0c-.9 0-1.7.4-5.1 4.1-.8.9-.8 1.4-.8 1.6 0 .3.2.6.8.6 1.9 0 5.9-4.4 5.9-5.5-.1-.6-.5-.8-.8-.8z"/><path d="M69.7 93.2H71l-1.8 1.9.1.1c1-.9 2.6-2.2 3.5-2.2.7 0 1.3.5 1.3 1.3 0 1.7-3.5 4.2-3.5 4.9 0 .2.1.2.3.2.6 0 2-1 4.9-3.6v.2c-2.2 2.1-4.1 3.6-4.9 3.6-.5 0-.8-.2-.8-.9 0-1.6 3.5-4.1 3.5-4.9 0-.3-.2-.6-.6-.6-1.3 0-4.6 2.8-7.4 6.1h-1.4l5.5-6.1z"/><path d="M88.7 87.1h1.5L79.7 97.9c-.6.6-.8 1-.8 1.2s.2.3.6.3c1.2 0 2.7-1 5.5-3.6v.2c-3 2.7-4.3 3.7-5.7 3.7-.3 0-.9-.2-.9-.7 0-.3 0-.6.2-.8-.9.9-2 1.6-2.9 1.6-1 0-1.3-.6-1.3-1.4 0-2.2 3.9-5.3 6.1-5.3.7 0 1.4.2 1.4.8 0 .2-.1.4-.2.6l7-7.4zm-8 6.2c-1 0-4.1 2.6-5.2 4.2-.6.8-.6 1-.6 1.4 0 .4.3.6.8.6 1.7 0 5.9-4.5 5.9-5.5-.1-.5-.5-.7-.9-.7zM100.9 86.6c0 2.8-2.7 6.2-5.5 6.2-1.2 0-1.8-.8-1.8-1.9 0-3.1 5.3-6.4 10.2-6.4 1.4 0 2.6.2 3.2.6.5-.2 1-.4 1.4-.5l.1.2c-.4.2-.8.3-1.2.4 1 .6 1.9 1.5 1.9 2.7 0 2.2-2.6 3.5-4.4 3.9.2.3.2.6.2.9 0 1.4-3.1 3.7-3.1 5.5 0 .9.8 1.3 1.6 1.3 1.8 0 5.1-3.1 5.1-4.9 0-.6-.5-1-1-1-.8 0-1.8 1-2.3 1.6l-.3-.2c.6-.6 1.6-1.8 2.6-1.8.6 0 1.4.4 1.4 1.4 0 2.2-2.9 5.1-5.4 5.1-1.4 0-2.3-.9-2.3-2.3 0-2.2 3.2-4.1 3.2-5.6-.2.1-.6.2-1.2.2-.7 0-1.4-.5-1.4-1h-.1c-2.5 3.5-5.6 8.9-10.7 8.9-1.5 0-2.5-.6-2.5-1.7 0-.6.6-1 1-1 .6 0 1 .4 1 1 0 .7-1 .6-1 .8 0 .3.7.6 1.7.6 5.4 0 9.5-12.1 15.4-14.2-.8-.4-2.2-.5-2.7-.5-5.6 0-10.1 3.7-10.1 6 0 1 .5 1.8 1.6 1.8 1.9 0 5.3-3.3 5.3-5.9l.1-.2zm6-1.3c-1.4.8-2.7 2-5 5.1l.1.1c.2-.2.5-.2.8-.2.5 0 1.4.2 1.8 1 1.7-.4 3.5-2.2 3.5-3.9.1-1.1-.5-1.7-1.2-2.1zm-2.6 6.3c-.2-.6-.9-.9-1.6-.9-.4 0-.6.1-.6.3s.4.6 1.2.6h1zM116.9 96.2c-1.9 1.7-4.7 3.5-6.9 3.5-.6 0-1.4-.2-1.4-1 0-2.2 4.1-5.7 6.3-5.7.5 0 .9.4.9.9 0 1.9-3.7 3-5.1 3-1.3 1.4-1.4 1.8-1.4 2.1 0 .4.4.5.8.5 1.8 0 4.3-1.5 6.7-3.5l.1.2zm-1.9-3c-.8 0-1.9 1-4.1 3.4 2.2 0 4.5-1.9 4.5-3 0-.3-.1-.4-.4-.4zM131.2 95.8c-.4.2-1 .6-1.7.6-.5 0-.7-.2-1-.4-2 2.5-3.7 3.6-5.2 3.6-.6 0-1.4-.5-1.4-1.3 0-2 3.9-5.6 6.1-5.6.4 0 .7.2.9.5.1-.1.2-.1.2-.1.2 0 .4.2.4.6 0 .7-.6 1.8-.9 2.2.2.2.6.3.9.3.4 0 1-.2 1.5-.6l.2.2zm-2.5-2.4c-.1-.2-.2-.4-.5-.4-.9 0-2.6 2-4.8 4.6-.5.6-.6.9-.6 1.3 0 .2.2.6.8.6 1.4 0 3.4-1.6 4.8-3.5-.2-.3-.2-.6-.2-1-.1-.7.2-1.3.5-1.6z"/><path d="M133.3 93.2h1.4l-2.7 2.9c.6-.5 1.5-.8 2.6-1.2.2-.9 1.3-1.9 1.8-1.9.3 0 .5.1.5.4 0 .7-1.4 1.5-2 1.7 0 .6.2 1 .7 1 .4 0 3.6-1.5 3.8-1.7l.1.2c-.2.2-3.5 1.8-3.9 1.8-.6 0-1-.5-1-1.3-1.8.4-3 1.4-4.2 2.7l-1.3 1.5h-1.4l5.6-6.1z"/><path d="M143.6 88.8h1.4l-2.7 2.8h1.3l-.2.2H142l-5.1 5.5c-.8 1-1.3 1.4-1.3 1.7 0 .2.2.2.4.2.6 0 2.8-.4 6.3-3.4l-.1.2c-2.7 2.7-5.2 3.5-6.3 3.5-.5 0-.7-.3-.7-.8 0-.6.4-1.4 1.6-2.7l3.9-4.3h-1.4l.2-.2h1.4l2.7-2.7zM2.6 59.8H0v-.6h14.3l.2 5.2h-.6c-.4-1.7-.7-3.5-2.5-4.3-.6-.2-1.6-.3-2.7-.3H5.9v7.4c2.4 0 3.8-.4 3.9-3.1h.6v7.2h-.5c-.2-2.9-1.2-3.5-3.9-3.4v7.8h2.5v.6H0v-.6h2.6V59.8zM14.9 69.6c0-3.1 2.7-6.3 6-6.3 3.1 0 6 3.1 6 6.3 0 3.5-2.2 7.1-6 7.1s-6-3.6-6-7.1zm9.1-2c0-.7-.1-1.4-.3-1.9-.3-1.2-1.2-2-2.8-2-1.8 0-2.6.8-2.9 2-.2.6-.2 1.2-.2 1.9v4.2c0 .7 0 1.5.2 2.2.4 1.4 1.2 2.2 3 2.2s2.6-.9 2.9-2.2c.2-.6.2-1.4.2-2.2l-.1-4.2zM41.6 63.5v.5h-1.9v8c0 1.9-.4 2.8-1.2 3.6-.8.6-2 1-3.8 1-1.4 0-2.6-.4-3.4-1-.8-.6-1.2-1.8-1.2-4V64h-1.9v-.5h6.3v.5h-1.9v7c0 2.7-.2 5 3.2 5 2.2 0 3.1-1.4 3.1-3.5V64H37v-.5h4.6zM47.4 75.8h1.9v.5H43v-.5h2V64h-1.9v-.5h6.4c2.1 0 4.6.2 4.6 2.9 0 2.2-2.2 2.9-4.1 3.1 3 .5 3.7 2.1 3.7 5.2 0 .6.1 1.4 1.9 1v.4c-.5.2-1 .2-1.6.2-2 0-3-1-3-2.9 0-1.6-.2-2.8-.7-3.2-.6-.4-1.2-.6-1.8-.6h-1l-.1 6.2zm0-6.6H49c1.8 0 2.4-.8 2.4-2.6 0-2.1-.6-2.7-2.3-2.7h-1.7v5.3zM63.6 76.5h-.4v-5.1h.7c.5 2.5 2 4.7 4.7 4.7 2 0 3.9-1.5 3.9-3.6 0-2.4-2.2-2.9-4.1-3.6-.5-.2-1-.3-1.6-.5-2.3-.7-3.6-2.5-3.6-5 0-2.7 2-4.7 4.7-4.7 1.5 0 2.6.3 3.8 1.3l1-1h.4v4.8h-.8c-.2-2.4-1.8-4.5-4.4-4.5-1.7 0-3.2 1.3-3.2 3 0 2 1.4 2.2 3 2.6.6.2 1.2.4 1.6.5.5.2 1.2.3 1.8.6 2.2 1 2.9 2.7 2.9 5.1 0 3.2-2.1 5.6-5.4 5.6-1.3 0-2.8-.5-3.7-1.4l-1.3 1.2zM80.7 64v5.5c1.8 0 2.8-.2 2.9-2.3h.5v5.3h-.5c-.2-2.1-.8-2.6-2.9-2.5v5.9h2.7c2.5 0 3.1-1.4 3.5-3.6h.5l-.2 4.1H76.3v-.5h1.9V64h-1.9v-.5H87l.1 3.5h-.5c-.4-1.8-1.2-2.6-2.2-2.8-.5-.2-1-.2-1.7-.2h-2zM88.8 76.3v-.5h1.6L95 63.3h.6l4.3 12.5h1.6v.5h-6.1v-.5h2l-1.2-3.3H92l-1.2 3.3h1.9v.5h-3.9zm3.5-4.3h3.8l-1.8-5.4-2 5.4zM103.5 76.5h-.3v-3.9h.5c.4 1.8 1.5 3.5 3.6 3.5 1.5 0 2.8-1.2 2.8-2.7 0-1.8-1.6-2.2-3-2.7-.4-.2-.8-.2-1.2-.4-1.8-.5-2.7-1.8-2.7-3.7 0-2 1.5-3.5 3.5-3.5 1 0 1.9.2 2.7.9l.7-.7h.3V67h-.4c-.2-1.8-1.4-3.4-3.3-3.4-1.3 0-2.4.9-2.4 2.2 0 1.4 1 1.6 2.2 1.9.5.2.8.2 1.2.4.4.1.9.2 1.4.4 1.6.7 2.2 2 2.2 3.8 0 2.4-1.6 4.3-4.1 4.3-.9 0-2.1-.4-2.7-1l-1 .9zM113.7 69.6c0-3.1 2.7-6.3 6-6.3 3.1 0 5.9 3.1 5.9 6.3 0 3.5-2.2 7.1-5.9 7.1-3.8-.1-6-3.6-6-7.1zm9.1-2c0-.7-.1-1.4-.2-1.9-.4-1.2-1.2-2-2.8-2-1.8 0-2.6.8-2.9 2-.2.6-.2 1.2-.2 1.9v4.2c0 .7 0 1.5.2 2.2.3 1.4 1.2 2.2 3 2.2s2.6-.9 2.9-2.2c.2-.6.2-1.4.2-2.2l-.2-4.2zM138.4 76.5h-.6l-8.1-12.1v11.4h1.9v.5h-4.4v-.5h1.9V64h-1.9v-.5h4.9l5.7 8.4V64H136v-.5h4.3v.5h-1.9zM142.7 76.5h-.3v-3.9h.6c.4 1.8 1.5 3.5 3.5 3.5 1.5 0 2.9-1.2 2.9-2.7 0-1.8-1.7-2.2-3.1-2.7-.3-.2-.7-.2-1.2-.4-1.8-.5-2.7-1.8-2.7-3.7 0-2 1.5-3.5 3.5-3.5 1.2 0 1.9.2 2.8.9l.7-.7h.3V67h-.6c-.2-1.8-1.4-3.4-3.2-3.4-1.3 0-2.4.9-2.4 2.2 0 1.4 1 1.6 2.2 1.9.5.2.9.2 1.3.4.3.1.8.2 1.3.4 1.6.7 2.2 2 2.2 3.8 0 2.4-1.6 4.3-4 4.3-.9 0-2.1-.4-2.7-1l-1.1.9zM87.6 35.4c.3 0 .6-.3.6-.6s-.2-.6-.6-.6-.6.3-.6.6c.1.3.3.6.6.6z"/><path d="M86.9 34.1l.5.2.2-.5.2.5.6-.2-.3.5.6.3-.6.1.3.6-.6-.3-.2.5-.2-.5-.5.3.2-.6-.5-.1.5-.3zM72.7 9c.9.1 1.7.5 1.8 1.7-1.2-.1-1.6-.8-1.8-1.7zM72.7 7.2c.9.1 1.7.5 1.8 1.6-1.2 0-1.6-.6-1.8-1.6zM72.8 5.4c.9.1 1.6.5 1.8 1.7-1.2-.1-1.7-.8-1.8-1.7zM72.8 3.7c.9.1 1.7.5 1.8 1.6-1.2-.1-1.7-.7-1.8-1.6zM72.8 1.8c.9.1 1.7.6 1.8 1.7-1.2-.1-1.7-.8-1.8-1.7zM72.9.1c.9.1 1.6.5 1.8 1.6-1.2 0-1.7-.7-1.8-1.6z"/><path d="M72.3 49.6h4.9v-.2l-1.6-.7L74.8.1c0-.1 0-.1-.1-.1v.1l-.8 48.7-1.6.7v.1zM86 15.7c-.2 1-.6 1.7-1.8 1.7.2-1.2.9-1.7 1.8-1.7zM86.2 17.3c-.2.9-.6 1.6-1.8 1.6.1-1.1.8-1.5 1.8-1.6zM80.5 15.6c-1 0-1.6-.6-1.8-1.6 1 .1 1.7.5 1.8 1.6z"/><path d="M77.5 20.8c-1.2 0-1.7-.6-1.8-1.6.9.1 1.6.6 1.8 1.6zM89.4 25.8c-.9.1-1.7.5-1.8 1.6 1.2 0 1.6-.7 1.8-1.6zM87.9 32.2c1 .1 1.8.5 1.8 1.6-1.1 0-1.7-.7-1.8-1.6zM89.9 29.9c-1-.1-1.8-.5-1.8-1.7 1.2.1 1.7.8 1.8 1.7zM59.8 35.3c-.2-.2-.2-.3-.2-.3l-.3-9.5c0-.2-.1-.2-.1-.2-.1 0-.1.1-.1.2l-.4 10s0 .2.2.3L74.6 45v-2l-14.8-7.7z"/><path d="M89.5 35.3c.2-.2.2-.3.2-.3l.3-9.5c0-.2 0-.2.1-.2 0 0 .1.1.1.2l.3 10s.1.2-.1.3L74.6 45v-2l14.9-7.7zM62.6 28.5c-.2-.1-.2-.2-.2-.2l-.2-8c0-.1 0-.2-.1-.2 0 0-.1.1-.1.2l-.2 8.4s-.1.2.1.2l12.9 7.6v-1.8l-12.2-6.2z"/><path d="M86.7 28.5c.2-.1.2-.2.2-.2l.3-8v-.2c.1 0 .1.1.1.2l.3 8.4s0 .2-.1.2l-12.9 7.6v-1.8l12.1-6.2zM65.6 21.8c-.2-.1-.2-.2-.2-.2l-.2-5.9-.1-.1-.2.1-.2 6.5s0 .2.1.2l9.6 5.7v-1.6l-8.8-4.7zM83.9 21.8c.1-.1.1-.2.1-.2l.2-6c.1 0 .1.1.1.1l.2 6.5s0 .2-.1.2l-9.7 5.7v-1.6l9.2-4.7zM68.4 15.3c-.1 0-.1 0 0 0l-.3-4.3c0-.1-.1-.1-.1-.1v.1l-.2 4.6s0 .2.1.2l6.8 4.1v-1.2l-6.3-3.4zM70.6 9.9l-.2-2.7c0-.1 0-.1-.1-.1v.1l-.2 3s0 .1.1.1l4.4 2.6V12l-4-2.1zM78.7 9.9c.1 0 .1-.1 0 0l.3-2.8V7v.1l.2 3v.1l-4.5 2.6V12l4-2.1z"/><path d="M81 15.3c.1 0 .1 0 0 0l.2-4.3v-.1c.1 0 .1 0 .1.1l.2 4.6s0 .2-.1.2l-6.8 4.1v-1.2l6.4-3.4zM79 8.7c1.2 0 1.7-.6 1.8-1.6-.8 0-1.5.5-1.8 1.6zM79 7.1c1.2 0 1.7-.6 1.8-1.6-.9 0-1.6.5-1.8 1.6zM78.9 8c-1 0-1.6-.7-1.8-1.7 1 .1 1.7.6 1.8 1.7zM78.8 9.6c-1-.1-1.6-.7-1.8-1.7 1 .1 1.7.5 1.8 1.7zM83.2 11c-.2 1-.6 1.7-1.8 1.7.2-1.1.9-1.6 1.8-1.7z"/><path d="M83.1 9.3c-.9.1-1.7.6-1.8 1.7 1.2 0 1.7-.7 1.8-1.7zM63.4 14.1c.9.1 1.7.5 1.8 1.7-1.2-.1-1.7-.9-1.8-1.7zM63.4 15.7c.2 1 .6 1.7 1.8 1.7-.2-1.2-.9-1.7-1.8-1.7zM63.3 17.3c.2.9.6 1.6 1.8 1.6-.2-1.1-.9-1.5-1.8-1.6zM63.2 18.9c.2 1 .6 1.7 1.8 1.7-.2-1.2-.8-1.6-1.8-1.7zM64.9 22.2c-1 0-1.6-.6-1.8-1.6 1 0 1.7.4 1.8 1.6zM67.9 15.6c-1.2 0-1.7-.6-1.8-1.6.9.1 1.6.5 1.8 1.6zM67.1 18.5c-.9.1-1.7.6-1.8 1.7 1.2 0 1.7-.8 1.8-1.7zM65.5 21.7c1-.1 1.6-.7 1.8-1.7-1 .2-1.7.6-1.8 1.7zM68.5 20.8c-.2.9-.6 1.6-1.8 1.6.1-1.1.9-1.5 1.8-1.6zM69.8 21.4c-.2.9-.6 1.6-1.8 1.6.2-1.1.9-1.5 1.8-1.6zM71.2 22.2c-.2.9-.6 1.6-1.8 1.6.1-1.1.9-1.6 1.8-1.6zM72.5 22.8c-.2.9-.7 1.6-1.8 1.7.1-1.2.8-1.6 1.8-1.7zM72 25.1c1-.1 1.6-.7 1.8-1.7-.9.1-1.8.5-1.8 1.7zM68.3 15.3c1.2 0 1.7-.6 1.8-1.6-1 0-1.7.4-1.8 1.6zM71.3 14.3c-.2.9-.6 1.6-1.8 1.7.1-1.2.9-1.6 1.8-1.7zM72.7 14.9c-.2.9-.6 1.6-1.8 1.7.1-1.1.8-1.5 1.8-1.7zM74 15.7c-.2.9-.6 1.7-1.8 1.7.2-1.2.9-1.7 1.8-1.7zM65.9 22.9c-.2.9-.7 1.6-1.8 1.6.1-1.1.7-1.5 1.8-1.6zM65.3 25.2c.2-1 .8-1.6 1.8-1.7-.2 1.1-.8 1.7-1.8 1.7zM66.5 25.9c.2-1 .8-1.6 1.8-1.7-.1 1.1-.7 1.7-1.8 1.7zM67.8 26.7c.2-1.2.8-1.6 1.8-1.7-.2.9-.8 1.7-1.8 1.7zM70.3 28.1c.2-1 .8-1.5 1.8-1.6-.2 1-.8 1.6-1.8 1.6zM68.7 16.2c-.2.9-.6 1.6-1.8 1.7.1-1.2.8-1.6 1.8-1.7zM68.1 18.6c.2-1 .9-1.5 1.8-1.6-.2.9-.7 1.6-1.8 1.6zM69.4 19.3c.1-1 .8-1.5 1.8-1.6-.2.9-.7 1.6-1.8 1.6zM70.7 20.1c.1-1 .8-1.5 1.8-1.6-.2.9-.8 1.6-1.8 1.6zM71.9 20.8c1 0 1.6-.6 1.8-1.6-.9.1-1.7.6-1.8 1.6zM71 10.7c-.2.9-.7 1.6-1.8 1.7.1-1.2.8-1.6 1.8-1.7zM70.5 13c.1-1 .8-1.5 1.8-1.6-.3.9-.7 1.6-1.8 1.6zM71.7 13.7c.1-1 .8-1.5 1.8-1.6-.2 1-.6 1.6-1.8 1.6zM70.2 10.1c-1 0-1.6-.6-1.8-1.6.9.2 1.7.6 1.8 1.6zM70.3 8.7c-1 0-1.6-.6-1.8-1.6.9 0 1.7.5 1.8 1.6zM70.4 7.1c-1 0-1.6-.6-1.8-1.6.9 0 1.7.5 1.8 1.6zM70.4 7.9c1.2 0 1.7-.6 1.8-1.7-.9.1-1.6.6-1.8 1.7zM70.6 9.6c1-.1 1.6-.7 1.8-1.7-1 .1-1.7.5-1.8 1.7zM66.1 12.4c.2.9.6 1.6 1.8 1.7-.1-1.2-.9-1.7-1.8-1.7zM66.2 10.9c.2.9.6 1.6 1.8 1.6-.1-1.1-.9-1.5-1.8-1.6zM66.2 9.3c1 .1 1.7.6 1.8 1.7-1.2 0-1.7-.7-1.8-1.7zM60 25.8c.9.1 1.7.5 1.8 1.6-1.1 0-1.6-.7-1.8-1.6zM60.2 21c.9.1 1.7.6 1.8 1.7-1.1 0-1.7-.8-1.8-1.7zM60.1 22.7c.9.1 1.7.5 1.8 1.7-1.1-.2-1.7-.9-1.8-1.7zM79.9 27.4c.3 0 .6-.2.6-.6s-.2-.6-.6-.6c-.3 0-.6.2-.6.6s.3.6.6.6z"/><path d="M79.2 26l.5.2.2-.5.2.5.5-.2-.2.5.5.3-.5.2.2.6-.5-.3-.2.5-.2-.5-.5.3.2-.6-.6-.2.6-.3zM77.9 32c.3 0 .6-.3.6-.6s-.2-.6-.6-.6c-.3 0-.6.2-.6.6 0 .2.3.6.6.6z"/><path d="M77.2 30.5l.6.3.1-.5.3.5.4-.3-.1.6.5.2-.5.3.1.4-.4-.1-.3.5-.1-.5-.6.1.2-.4-.5-.3.5-.2zM81.8 36.8c.3 0 .6-.3.6-.6s-.2-.6-.6-.6-.6.2-.6.6c-.1.3.2.6.6.6z"/><path d="M81 35.3l.5.3.3-.5.2.5.5-.3-.3.7.6.1-.6.3.3.5-.5-.2-.2.5-.3-.5-.5.2.1-.5-.5-.3.5-.1zM83 43c.3 0 .6-.3.6-.6 0-.2-.2-.6-.6-.6s-.6.3-.6.6c0 .2.3.6.6.6z"/><path d="M82.2 41.5l.5.3.3-.5.2.5.5-.3-.2.6.6.1-.6.3.2.6-.5-.2-.2.5-.3-.5-.5.2.2-.6-.5-.3.5-.1zM81.4 42.9c.2.9-.1 1.8-1 2.2-.4-1.2.1-1.8 1-2.2zM88.5 40.2c-1-.1-1.8-.6-1.8-1.7 1.2.1 1.7.9 1.8 1.7zM79.4 36.5c-1-.1-1.8-.5-1.8-1.6 1.1 0 1.7.7 1.8 1.6zM87 26.3c-1-.1-1.6-.7-1.8-1.7 1 .1 1.7.5 1.8 1.7zM81 31.5c-1 0-1.7-.6-1.8-1.6 1 .1 1.6.5 1.8 1.6zM84 20.2c-1.2 0-1.7-.6-1.8-1.7.9.1 1.7.5 1.8 1.7zM92.9 33.4c-1-.1-1.8-.5-1.8-1.7 1.2.2 1.7.8 1.8 1.7zM82.3 26.1c.2.9-.1 1.8-1 2.2-.4-1.1.2-1.8 1-2.2zM83.6 32.2c.2.9-.1 1.8-1 2.2-.4-1.1.2-1.8 1-2.2zM79.2 40.6c-1 0-1.6-.6-1.8-1.7.9.1 1.6.5 1.8 1.7zM86.4 47.3c0-1.3 1-2.3 2.3-2.3 1.3 0 2.2 1 2.2 2.3s-1 2.3-2.2 2.3c-1.2 0-2.3-1-2.3-2.3zm4.1 0c0-1-.8-1.8-1.8-1.8s-1.9.8-1.9 1.8.8 1.8 1.9 1.8c1 .1 1.8-.7 1.8-1.8zm-.6 1.3h-.6l-.6-1h-.5v1h-.6v-2.5H89c.2 0 .5 0 .6.2.2.1.2.3.2.6 0 .5-.2.6-.6.6l.7 1.1zm-.9-1.5c.2 0 .5-.1.5-.3 0-.3-.4-.3-.6-.3h-.6v.6h.7zM148.5 96.4c-.2.2-2 1.5-3.7 2.2.2-.2.3-.4.5-.6.5-.6.7-1.2.7-2-.1-.9-.8-1.5-1.4-2.2.3-.3 1-1 1-1.6 0-.2-.2-.3-.3-.3-.7 0-1 .8-1 1.4 0 .2.2.5.2.5-1 1.5-3 2.8-3.5 3.3-.2.2-.7.8-.7 1.5-.1.7.1 1.4 1.2 1.4.7 0 1.9-.3 2.9-1 2.2-.6 4.3-2.4 4.3-2.4l-.2-.2zm-7.3 3.3c-.6 0-.7-.6-.7-1 .1-.6.3-1 .6-1.3.4-.5 2.4-1.8 3.5-3.5 0 0 .6 1 .6 1.5.2 1.9-2.7 4.1-4 4.3zM123.3 96.3c-.2.2-2 1.4-3.7 2.1.2-.2.3-.4.5-.6.5-.6.7-1.2.7-2-.1-.9-.8-1.5-1.4-2.2.3-.4 1-1 1-1.6 0-.2-.2-.4-.3-.4-.7 0-1 .8-1 1.4 0 .2.2.5.2.5-1 1.5-3 2.9-3.5 3.3-.2.2-.7.9-.7 1.5-.1.7.1 1.4 1.2 1.4.7 0 1.9-.3 2.9-1 2.2-.6 4.3-2.4 4.3-2.4h-.2zm-7.4 3.2c-.6.1-.7-.5-.7-1 .1-.5.3-.9.6-1.3.4-.5 2.4-1.8 3.5-3.5 0 0 .6 1 .6 1.5.2 2-2.7 4.2-4 4.3zM53.2 96.3c-.3.2-2 1.5-3.8 2.1.2-.2.4-.3.5-.6.5-.6.8-1 .7-2-.1-.9-.8-1.5-1.4-2.2.3-.3 1-1 1-1.6 0-.2-.2-.3-.3-.3-.6 0-1 .8-1 1.4 0 .2.1.5.1.5-1 1.5-2.9 2.8-3.4 3.3-.2.2-.7.8-.8 1.5-.1.7.1 1.4 1.2 1.4.7 0 1.9-.2 2.9-1 2.2-.6 4.3-2.3 4.3-2.3v-.2zm-7.4 3.2c-.6.1-.7-.5-.6-1 0-.5.3-.9.6-1.3.4-.5 2.4-1.8 3.6-3.4 0 0 .5.9.5 1.5.1 2-2.8 4.1-4.1 4.2z"/></svg>