<svg xmlns="http://www.w3.org/2000/svg" viewBox="0 0 131.1 100"><g fill="#15304D"><path d="M13.8 99.8v-3.6H10v3.6H8.5v-8.3H10v3.3h3.8v-3.3h1.4v8.3zM20.8 100c-2.1 0-4-1.6-4-4.3 0-2.7 1.9-4.3 4-4.3s4 1.6 4 4.3c-.1 2.7-1.9 4.3-4 4.3m0-7.4c-1.6 0-2.5 1.3-2.5 3s1 3 2.5 3c1.6 0 2.5-1.3 2.5-3 0-1.6-1-3-2.5-3M29.5 92.9v6.9H28v-6.9h-2.6v-1.4H32l.2 1.4zM33.8 99.8v-8.3h5.1v1.4h-3.6v2h2.9l.2 1.3h-3.1v2.3h3.8v1.3zM41.1 99.8v-8.3h1.4v7h3.1l.3 1.3zM49.7 99.9c-1 0-2-.2-2.8-.6l.2-1.3c.8.4 1.9.7 2.7.7.9 0 1.6-.4 1.6-1.1s-.4-1-1.6-1.3c-1.7-.6-2.6-1.1-2.6-2.4 0-1.4 1.2-2.4 2.8-2.4.9 0 1.8.2 2.4.5l-.2 1.4c-.8-.4-1.5-.6-2.2-.6-.8 0-1.4.4-1.4 1s.5.8 1.7 1.3c1.7.6 2.5 1.2 2.5 2.5-.1 1.3-1.3 2.3-3.1 2.3M64.4 99.9l-1.1-1.1c-.7.7-1.5 1.2-2.6 1.2-1.8 0-2.7-.9-2.7-2.3 0-1.2.7-1.9 1.8-2.5-.5-.6-.8-1.1-.8-1.8 0-1.1.8-2 2.3-2 .8 0 1.6.2 2.1.5l-.2 1.3c-.6-.4-1.3-.6-1.9-.6-.7 0-1 .4-1 .9s.2.8.7 1.3l2.1 2.2c.2-.5.4-1.2.5-2l1.2.3c-.1 1-.4 1.8-.8 2.6l1.8 1.8-1.4.2zM60.5 96c-.7.4-1.1.9-1.1 1.6 0 .8.5 1.3 1.5 1.3.6 0 1.2-.3 1.7-.8L60.5 96zM75.9 99.9l-2.4-3.3h-.9v3.2h-1.5v-8.3h2.5c1.9 0 3.1.9 3.1 2.5 0 1.2-.7 2-1.7 2.4l2.3 3.1-1.4.4zm-2.2-7.1h-1.1v2.7h1.1c1.1 0 1.7-.5 1.7-1.4-.1-.8-.7-1.3-1.7-1.3M79.1 99.8v-8.3h5.1v1.4h-3.7v2h3l.2 1.3h-3.2v2.3h3.8v1.3zM88.8 99.9c-1 0-2-.2-2.8-.6l.2-1.3c.8.4 1.9.7 2.7.7.9 0 1.6-.4 1.6-1.1s-.4-1-1.6-1.3c-1.7-.6-2.6-1.1-2.6-2.4 0-1.4 1.2-2.4 2.8-2.4.9 0 1.8.2 2.4.5l-.2 1.4c-.8-.4-1.5-.6-2.2-.6-.8 0-1.4.4-1.4 1s.5.8 1.7 1.3c1.7.6 2.5 1.2 2.5 2.5-.1 1.3-1.3 2.3-3.1 2.3M97.1 100c-2.1 0-4-1.6-4-4.3 0-2.7 1.9-4.3 4-4.3s4 1.6 4 4.3c-.1 2.7-1.9 4.3-4 4.3m-.1-7.4c-1.6 0-2.5 1.3-2.5 3s.9 3 2.5 3c1.5 0 2.5-1.3 2.5-3 0-1.6-1-3-2.5-3M107.5 99.9l-2.4-3.3h-.9v3.2h-1.5v-8.3h2.6c1.9 0 3.1.9 3.1 2.5 0 1.2-.7 2-1.7 2.4l2.3 3.1-1.5.4zm-2.2-7.1h-1.1v2.7h1.1c1.1 0 1.7-.5 1.7-1.4 0-.8-.6-1.3-1.7-1.3M113.8 92.9v6.9h-1.5v-6.9h-2.6v-1.4h6.6l.1 1.4zM120.1 99.9c-1 0-2-.2-2.8-.6l.2-1.3c.8.4 1.8.7 2.7.7.9 0 1.6-.4 1.6-1.1s-.4-1-1.6-1.3c-1.7-.6-2.6-1.1-2.6-2.4 0-1.4 1.2-2.4 2.8-2.4.9 0 1.8.2 2.4.5l-.2 1.4c-.8-.4-1.5-.6-2.2-.6-.8 0-1.4.4-1.4 1s.5.8 1.7 1.3c1.7.6 2.5 1.2 2.5 2.5-.1 1.3-1.3 2.3-3.1 2.3M75.2 24c0-3.5-2.4-6.3-6.8-7.7v-8h8.1v19.6H74c.9-1.2 1.2-2.7 1.2-3.9M64 0C49.4 0 38.5 9.3 38.5 19.3c0 5.2 2.9 9.5 6.6 12.5l.3-.2c-2.9-2.4-5.5-6.2-5.5-11.3.7-10.9 14.2-17 26.1-17 8.5 0 23.7 2 23.7 16.1 0 7.4-7.9 17-24.5 17-8.4 0-15-4.5-15-11.1 0-5.7 4.4-9.7 11-9.7 1.8 0 3.5.4 4.8.8-2.8-.5-7 .2-9.2 2V28h8.1V17.1c1.5.3 2.7.8 3.5 1.4V28h2.1c-1.7 1.9-4.8 3-7.4 2.6v.4c7.7.6 11-3 11-7.2 0-4.8-4.6-7.7-9.2-8.3V8.3h-8.1v7.3c-5.3 1.1-10.4 4.2-10.4 9.4 0 7.9 11.1 12.9 20.8 12.9 14.7 0 26-7.1 26-17.1C93.2 8.6 76.9 0 64 0M28.7 49.5v28.3l2.2.2v1.7H20V78l2.4-.2V64.9H8.5v12.9l2.1.2v1.7H0V78l2.1-.2V49.5L0 49.2v-1.6h10.6v1.6l-2.1.3v12.1h13.9V49.5l-2.4-.3v-1.6h10.9v1.6zM43.1 77.9l2 .3v1.5h-10v-1.5l2-.3V58.6l-2-.3v-1.5H43c.1.1.1 21.1.1 21.1zm.7-28.2c0 2.1-1.5 3.7-3.4 3.7-2 0-3.4-1.5-3.4-3.6 0-2 1.4-3.6 3.4-3.6 1.9 0 3.4 1.6 3.4 3.5M49.4 78.2l2-.3V48.4l-2-.3v-1.4h8v31.2l2 .3v1.5h-10zM71.4 56.9h5.4V59h-5.4v13.6c0 3.5.7 4.6 3.9 4.6 1.2 0 2.2 0 3.2-.2v1.6c-2.9 1-5.3 1.5-7.3 1.5-4.6 0-5.7-2.1-5.7-6.1V59h-4.2v-2.1h4.3v-4.8l5.8-1.7v6.5zM103.5 68.5c0 7.1-4.8 11.9-12.3 11.9-7.3 0-11.9-3.1-11.9-11.9 0-7.3 4.8-12.3 12.3-12.3 7.4.1 11.9 4.5 11.9 12.3m-6.5-.1c0-7.2-2.1-10.4-5.6-10.4-3.3 0-5.5 3-5.5 10.4 0 7.2 2.1 10.2 5.5 10.2 3.6 0 5.6-2.8 5.6-10.2M131.1 78.2v1.5h-10v-1.5l2-.3V65c0-3.6-1.3-5.2-4-5.2-1.3 0-3.3.9-4.7 1.9V78l2 .3v1.5h-10v-1.5l2-.3V58.8l-2-.3v-1.6h8v3.2c2.5-2 4.9-3.6 8.2-3.6 4.5 0 6.5 2.6 6.5 7.8V78l2 .2zM94.5 36.7l.9-2.4h.4v2.9h-.3V35l-.8 2.2h-.3l-.9-2.2v2.2h-.4v-2.9h.5l.9 2.4zm-3.1-2.1h-.7v-.3h1.8v.3h-.7v2.6h-.4v-2.6"/></g></svg>