<svg xmlns="http://www.w3.org/2000/svg" viewBox="0 0 421.5 100"><path fill="#CA0538" d="M127.9 61.3c-28.8 8-56.6 20.3-84 37.5-.3.2-.4.6-.2.9.2.3.6.4.9.2 24.2-12.2 52.8-22.1 83.3-29.1v-9.5z"/><path fill="#003671" d="M254.1 99.4h11.8L221.5 0h-3l-42.8 99.4h7.6l33.9-86.7zM140.3 43.1v33.2h-9.9V44.7L102.9 2h10.9l22.8 38.8L160.1 2h7.4zM52.3 76.3V38.9H9.7v37.4H0V2h9.7v31.9h42.6V2h9.6v74.3zM335.6 7V2h-59.2v5h24.7v69.3h9.9V7zM421.5 7V2h-54.3v5h22.3v69.3h9.8V7z"/><path fill="#CA0538" d="M313.5 73c25.5 6.6 49.3 15.7 70.1 26.2.3.2.7.1.9-.2.2-.3.1-.7-.2-.9-23.5-14.7-46.7-26-70.7-34-.1 0-.1 8.9-.1 8.9zM252 62.1c16 1.4 31.7 3.9 46.8 7.3v-9.7c-16.6-4.5-33.8-7.5-51.9-9l5.1 11.4zM194.2 50.3c-17.6 1.2-34.7 3.5-51.5 7.2v10.2c15.3-2.9 31-5 46.6-6.2l4.9-11.2zM201 60.9c5.8-.3 11.5-.4 17.2-.4 5.6 0 11.2.1 16.7.4l-4.6-11.2c-4-.1-8.1-.2-12.1-.2-4.3 0-8.6.1-12.8.2L201 60.9z"/></svg>