<svg xmlns="http://www.w3.org/2000/svg" viewBox="0 0 364.3 100"><g fill="#897869"><path d="M126 99.1c.9-.1 1.5-.3 1.7-.5s.4-.9.4-1.9v-10c0-.8-.1-1.3-.4-1.6-.2-.2-.8-.4-1.6-.5v-.4h6.4v.4c-.9.1-1.4.2-1.7.5-.2.2-.4.8-.4 1.6v4.5h7v-4.5c0-.8-.1-1.3-.4-1.6-.2-.2-.8-.4-1.6-.5v-.4h6.4v.4c-.9.1-1.4.2-1.6.5-.2.2-.4.8-.4 1.6V97c0 .8.1 1.4.4 1.6.2.2.8.4 1.6.5v.4h-6.4v-.4c.9-.1 1.5-.2 1.7-.5.2-.2.4-.9.4-1.9v-4.5h-7V97c0 .8.1 1.4.4 1.6.2.2.8.4 1.7.5v.4h-6.4l-.2-.4z"/><path d="M126 99.1c.9-.1 1.5-.3 1.7-.5s.4-.9.4-1.9v-10c0-.8-.1-1.3-.4-1.6-.2-.2-.8-.4-1.6-.5v-.4h6.4v.4c-.9.1-1.4.2-1.7.5-.2.2-.4.8-.4 1.6v4.5h7v-4.5c0-.8-.1-1.3-.4-1.6-.2-.2-.8-.4-1.6-.5v-.4h6.4v.4c-.9.1-1.4.2-1.6.5-.2.2-.4.8-.4 1.6V97c0 .8.1 1.4.4 1.6.2.2.8.4 1.6.5v.4h-6.4v-.4c.9-.1 1.5-.2 1.7-.5.2-.2.4-.9.4-1.9v-4.5h-7V97c0 .8.1 1.4.4 1.6.2.2.8.4 1.7.5v.4h-6.4l-.2-.4zM152.7 97.3c.9 1.2 2.2 1.8 3.6 1.8 1.3 0 2.5-.6 3.5-1.7 1-1.2 1.5-3 1.5-5.5s-.5-4.4-1.5-5.5-2.2-1.7-3.5-1.7c-1.4 0-2.6.6-3.6 1.8-.9 1.2-1.5 3-1.5 5.4.1 2.4.6 4.2 1.5 5.4M151 85.9c1.4-1.3 3.2-2 5.3-2 2.1 0 3.9.7 5.3 2 1.6 1.5 2.3 3.4 2.3 6 0 2.5-.8 4.5-2.4 6-1.5 1.3-3.2 2-5.2 2-2.2 0-4-.8-5.4-2.2-1.5-1.5-2.2-3.4-2.2-5.8 0-2.5.7-4.5 2.3-6"/><path d="M152.7 97.3c.9 1.2 2.2 1.8 3.6 1.8 1.3 0 2.5-.6 3.5-1.7 1-1.2 1.5-3 1.5-5.5s-.5-4.4-1.5-5.5-2.2-1.7-3.5-1.7c-1.4 0-2.6.6-3.6 1.8-.9 1.2-1.5 3-1.5 5.4.1 2.4.6 4.2 1.5 5.4M151 85.9c1.4-1.3 3.2-2 5.3-2 2.1 0 3.9.7 5.3 2 1.6 1.5 2.3 3.4 2.3 6 0 2.5-.8 4.5-2.4 6-1.5 1.3-3.2 2-5.2 2-2.2 0-4-.8-5.4-2.2-1.5-1.5-2.2-3.4-2.2-5.8 0-2.5.7-4.5 2.3-6M169.1 84.2h13.1l.1 3.9h-.5c-.3-1.2-.6-2-1.1-2.4s-1.3-.6-2.6-.6h-1.3V97c0 .9.1 1.5.4 1.7.3.2.9.4 1.8.4v.4h-6.8v-.4c1-.1 1.6-.2 1.8-.5.2-.2.4-.9.4-1.9V85.1h-1.3c-1.3 0-2.2.2-2.6.6-.5.4-.8 1.2-1.1 2.4h-.6l.3-3.9z"/><path d="M169.1 84.2h13.1l.1 3.9h-.5c-.3-1.2-.6-2-1.1-2.4s-1.3-.6-2.6-.6h-1.3V97c0 .9.1 1.5.4 1.7.3.2.9.4 1.8.4v.4h-6.8v-.4c1-.1 1.6-.2 1.8-.5.2-.2.4-.9.4-1.9V85.1h-1.3c-1.3 0-2.2.2-2.6.6-.5.4-.8 1.2-1.1 2.4h-.6l.3-3.9zM189.3 99.1c.9-.1 1.4-.2 1.6-.5.2-.2.4-.8.4-1.6V86.6c0-.8-.1-1.3-.4-1.6-.2-.2-.8-.4-1.6-.5v-.4h12.3l.1 3.3h-.6c-.2-1.1-.5-1.7-.9-2-.4-.3-1.3-.5-2.6-.5h-3.2c-.4 0-.5.1-.6.2-.1.1-.1.3-.1.6V91h3.6c1 0 1.6-.2 1.9-.5.3-.3.5-.9.6-1.8h.5v5.4h-.5c-.2-.9-.4-1.5-.6-1.8-.3-.3-.9-.5-1.9-.5h-3.6v5.7c0 .5.2.8.4.8.3.1 1.2.1 2.6.1 1.6 0 2.7-.2 3.4-.5.8-.4 1.4-1.2 2-2.5h.6l-1.1 3.9H189c.3.1.3-.2.3-.2z"/><path d="M189.3 99.1c.9-.1 1.4-.2 1.6-.5.2-.2.4-.8.4-1.6V86.6c0-.8-.1-1.3-.4-1.6-.2-.2-.8-.4-1.6-.5v-.4h12.3l.1 3.3h-.6c-.2-1.1-.5-1.7-.9-2-.4-.3-1.3-.5-2.6-.5h-3.2c-.4 0-.5.1-.6.2-.1.1-.1.3-.1.6V91h3.6c1 0 1.6-.2 1.9-.5.3-.3.5-.9.6-1.8h.5v5.4h-.5c-.2-.9-.4-1.5-.6-1.8-.3-.3-.9-.5-1.9-.5h-3.6v5.7c0 .5.2.8.4.8.3.1 1.2.1 2.6.1 1.6 0 2.7-.2 3.4-.5.8-.4 1.4-1.2 2-2.5h.6l-1.1 3.9H189c.3.1.3-.2.3-.2zM209.8 99.1c.9-.1 1.4-.2 1.6-.5.2-.2.4-.8.4-1.6V86.6c0-.8-.1-1.3-.4-1.6-.2-.2-.8-.4-1.7-.5v-.4h6.5v.4c-.9.1-1.4.2-1.7.4-.3.2-.4.8-.4 1.5v11.2c0 .2.1.5.1.6.1.1.3.2.6.3.2 0 .4.1.5.1h1.1c2 0 3.4-.2 4.2-.5.7-.4 1.4-1.2 2.1-2.6h.6l-1.1 4h-12.5l.1-.4z"/><path d="M209.8 99.1c.9-.1 1.4-.2 1.6-.5.2-.2.4-.8.4-1.6V86.6c0-.8-.1-1.3-.4-1.6-.2-.2-.8-.4-1.7-.5v-.4h6.5v.4c-.9.1-1.4.2-1.7.4-.3.2-.4.8-.4 1.5v11.2c0 .2.1.5.1.6.1.1.3.2.6.3.2 0 .4.1.5.1h1.1c2 0 3.4-.2 4.2-.5.7-.4 1.4-1.2 2.1-2.6h.6l-1.1 4h-12.5l.1-.4zM228.4 94.9c.4 1.1.9 1.9 1.4 2.5.9 1.1 2 1.6 3.4 1.6.8 0 1.4-.2 1.9-.7.5-.5.8-1.1.8-2 0-.8-.3-1.4-.8-2-.4-.4-1.1-.9-2.2-1.6l-2-1.2c-.6-.4-1.1-.8-1.5-1.2-.6-.8-1-1.5-1-2.4 0-1.2.4-2.2 1.2-2.9s1.8-1.2 3.1-1.2c.5 0 1.2.1 1.9.4.8.2 1.2.4 1.3.4.3 0 .5-.1.6-.2.1-.1.2-.4.2-.6h.5l.5 5h-.5c-.4-1.5-1-2.5-1.8-3.1-.8-.6-1.6-.9-2.5-.9-.6 0-1.2.2-1.6.6-.5.4-.7.9-.7 1.6 0 .6.2 1.1.5 1.5.4.4.9.9 1.7 1.3l2 1.3c1.3.8 2.2 1.5 2.7 2.2.5.6.8 1.5.8 2.3 0 1.2-.5 2.2-1.4 3-.9.8-2.1 1.2-3.5 1.2-.7 0-1.5-.1-2.3-.4-.8-.3-1.2-.4-1.3-.4-.3 0-.5.1-.5.2-.1.2-.2.4-.2.5h-.5l-.7-5h.5v.2z"/><path d="M228.4 94.9c.4 1.1.9 1.9 1.4 2.5.9 1.1 2 1.6 3.4 1.6.8 0 1.4-.2 1.9-.7.5-.5.8-1.1.8-2 0-.8-.3-1.4-.8-2-.4-.4-1.1-.9-2.2-1.6l-2-1.2c-.6-.4-1.1-.8-1.5-1.2-.6-.8-1-1.5-1-2.4 0-1.2.4-2.2 1.2-2.9s1.8-1.2 3.1-1.2c.5 0 1.2.1 1.9.4.8.2 1.2.4 1.3.4.3 0 .5-.1.6-.2.1-.1.2-.4.2-.6h.5l.5 5h-.5c-.4-1.5-1-2.5-1.8-3.1-.8-.6-1.6-.9-2.5-.9-.6 0-1.2.2-1.6.6-.5.4-.7.9-.7 1.6 0 .6.2 1.1.5 1.5.4.4.9.9 1.7 1.3l2 1.3c1.3.8 2.2 1.5 2.7 2.2.5.6.8 1.5.8 2.3 0 1.2-.5 2.2-1.4 3-.9.8-2.1 1.2-3.5 1.2-.7 0-1.5-.1-2.3-.4-.8-.3-1.2-.4-1.3-.4-.3 0-.5.1-.5.2-.1.2-.2.4-.2.5h-.5l-.7-5h.5v.2zM285.6 48.7c.9 2.4 2 4.3 3.2 5.8 2.2 2.5 4.8 3.7 7.9 3.7 1.7 0 3.2-.5 4.4-1.6 1.3-1.1 1.9-2.6 1.9-4.6 0-1.8-.6-3.3-1.9-4.6-.8-.8-2.6-2-5.2-3.7l-4.6-2.9c-1.4-.9-2.5-1.8-3.3-2.6-1.5-1.7-2.3-3.6-2.3-5.6 0-2.7.9-5 2.7-6.8 1.8-1.8 4.2-2.7 7.2-2.7 1.2 0 2.7.3 4.4.9 1.8.6 2.7.9 3 .9.6 0 1.1-.2 1.3-.5.2-.3.5-.8.6-1.3h1.1l1.2 11.4h-1.3c-.9-3.4-2.3-5.8-4.2-7.2-1.9-1.3-3.9-2-5.7-2-1.5 0-2.7.4-3.9 1.3-1.1.9-1.6 2-1.6 3.6 0 1.4.4 2.6 1.3 3.6.8 1 2.2 2 3.9 3.1l4.7 2.9c3 1.8 5 3.5 6.3 5 1.2 1.5 1.8 3.4 1.8 5.4 0 2.8-1.1 5.2-3.2 7.1-2.1 1.9-4.8 2.9-8.1 2.9-1.6 0-3.4-.3-5.2-.9-1.8-.6-2.9-.9-3.1-.9-.6 0-1.1.2-1.3.6-.2.4-.4.8-.4 1.2H286l-1.6-11.4 1.2-.1zM117.1 58.5c2.2-.2 3.6-.5 4.3-1 .6-.5 1-1.8 1-3.9V29.8c0-2-.4-3.3-1-3.8-.6-.6-2-.9-4.3-1.1v-1H133v1c-2.2.1-3.6.5-4.3 1.1-.6.6-1 1.8-1 3.8v23.9c0 2.1.4 3.4 1 3.9s2 .8 4.3 1v1h-15.9v-1.1zM230.3 54.3c2.2 2.7 5 4 8.2 4 3.2 0 5.9-1.3 8.1-3.9 2.3-2.6 3.4-6.8 3.4-12.7s-1.1-10.1-3.4-12.7c-2.3-2.6-5-3.9-8.1-3.9-3.2 0-6 1.3-8.2 4.1-2.2 2.7-3.3 6.9-3.3 12.6-.1 5.6 1 9.8 3.3 12.5M226.2 28c3.3-3.2 7.4-4.7 12.2-4.7s8.9 1.6 12.2 4.8c3.6 3.4 5.4 8.1 5.4 13.8 0 5.8-1.9 10.5-5.5 13.9-3.3 3.1-7.4 4.6-12 4.6-5 0-9.2-1.7-12.6-5.1-3.4-3.5-5.1-7.9-5.1-13.4.1-5.9 1.8-10.5 5.4-13.9M55.8 58.5c2-.2 3.3-.6 3.9-1.2.5-.6.8-2 .8-4.3V29.7c0-1.9-.3-3.1-.9-3.7-.6-.6-1.8-1-3.7-1.1v-1h14.9c3.1 0 5.7.4 7.8 1.2 3.9 1.5 5.9 4.2 5.9 8.2 0 2.7-.9 4.7-2.6 6.2-1.8 1.5-4.1 2.4-7.1 2.8l11 13.7c.7.8 1.3 1.5 2 1.8.7.4 1.6.6 2.6.8v1h-8.6L69 43l-3 .1v10.6c0 2 .3 3.3.9 3.8.6.5 1.9.9 4 1.1v1H55.8v-1.1zm18.4-18.6c2.9-1.2 4.3-3.4 4.3-6.6 0-3.1-1.3-5.3-3.9-6.4-1.3-.6-3.2-.9-5.4-.9-1.5 0-2.5.1-2.8.4-.4.2-.5.7-.5 1.5v13.3c3.9-.2 6.6-.6 8.3-1.3M182.1 0l4.3 5.7-2.3 13.7 5-13.7h6.3l-13.3 20.1-13.3-20.1h6.4l5.1 13.7-2.5-13.7z"/><path d="M198.1 11.9l-16 23.4-15.9-23.4h-7.8l18.9 29.3-17.5 26.9L0 68.3l31.5 5.1 132.7.4 17.9-27.4 18 27.4 132.7-.4 31.5-5.1-159.9-.2L187 41.2l19-29.3z"/></g></svg>