<svg xmlns="http://www.w3.org/2000/svg" viewBox="0 0 315.6 100"><g fill="#8E8777"><path d="M96.6 0H78.7c1.9 1 3.1 3.3 3.1 5.7 0 2.3-.7 5.5-2 9.1l-8.9 24.7L54.8 0H40.4c4.1 3.1 6 9.3 3 16.2L32.8 40.6 16.8 0H0c2.7 1.9 4.7 6.1 7.1 11.9l16.5 41.2c2.2 5.6 4.7 8.5 10 10.9l17.1-38.5 11.7 27.6c2.4 5.5 4.8 8.5 10.1 10.9L96.6 0zM134.7 52.2c-4.1 3.1-8.5 4.4-14.5 4.4-3.3 0-6.2-.3-8.3-.8V40h4.4c5.4 0 7.2.4 8.6 2v-9.3h-13V19.9s2-.3 6.2-.3c4.8 0 8.2.8 10.1 2.9V13H96.8c2.5 1.3 2.9 3.3 2.9 11.7v26.8c0 8.4-.4 10.4-2.9 11.7h34.3l3.6-11zM175.2 47.7c0-15.4-23.3-14.4-23.3-23.7 0-2.8 2.5-5.2 6.8-5.2 4.6 0 8.5 1.7 12.9 5.7V13.6c-4.4-1.1-8-1.9-12.4-1.9-9.6 0-19.4 5.7-19.4 15.2 0 17.3 23.3 14.8 23.3 24.5 0 3.4-3.1 6-8.4 6-6 0-11.7-2.4-17.7-7.6l3.2 12c4.8 1.8 8.8 2.6 13.3 2.6 12.3.1 21.7-6.6 21.7-16.7zM219.9 13h-41.1l-2.8 9.5c3.1-2.1 5.9-2.9 10.9-2.9h4.9v31.9c0 8.4-.4 10.4-3 11.7h18c-2.5-1.3-2.9-3.3-2.9-11.7V19.6h4.3c4.5 0 7.6.7 9.2 2.9l2.5-9.5zM243.4 63.3c-2.5-1.3-2.9-3.3-2.9-11.7V24.7c0-8.4.4-10.4 2.9-11.7h-18c2.5 1.3 2.9 3.3 2.9 11.7v26.8c0 8.4-.4 10.4-2.9 11.7l18 .1zM303.2 13h-16.5c3.3 1.8 3.6 5.4 3.6 10.9v20.4l-21-24.9c-2.1-2.6-3.5-4.5-4.9-6.3h-14.5c3 1.8 4.4 5 4.4 11.8v27.5c0 5.6-.4 9.3-3.6 10.9h16.5c-3.3-1.8-3.6-5.4-3.6-10.9V31.5l21.8 25.7c3.1 3.6 7 5.2 14.4 6.3V24c-.3-5.7.2-9.3 3.4-11zM27.6 91.7v4.4c0 1.1.2 2.9-1.1 3.3v.1h4.7v-.1c-1.2-.4-1.1-2.3-1.1-3.3v-9.3c0-1.1-.2-2.9 1.1-3.3v-.1h-4.7v.1c1.2.4 1.1 2.3 1.1 3.3v3h-8.8v-3c0-1.1-.2-2.9 1.1-3.3v-.1h-4.7v.1c1.2.4 1.1 2.3 1.1 3.3v9.3c0 1.1.2 2.9-1.1 3.3v.1h4.7v-.1c-1.2-.4-1.1-2.3-1.1-3.3v-4.4h8.8zM47.1 83.1C42 83 38 86.9 38 91.5c0 5 4.1 8.5 8.9 8.5s9-3.6 9-8.6c0-4.4-3.7-8.3-8.8-8.3zm-.1 1.7c3.9 0 6.2 3.4 6.2 7s-2.4 6.3-6.1 6.3c-3.9 0-6.3-3.5-6.3-7s2.4-6.3 6.2-6.3zM67.9 85.3h2.2c.8 0 1.8.1 2.1 1h.1l.8-2.9H73c-.4.2-.7.2-1.1.2H62.1c-.4-.1-.6-.1-1-.2H61l-.9 2.9h.1c.8-.7 1.9-1 2.9-1h2.1v10.9c0 1.1.2 2.9-1.1 3.3v.1h4.8v-.1c-1.3-.8-1.2-1.7-1.2-3.1l.2-11.1zM83.3 91.7h1.9c.8 0 1.8 0 2.2.7h.1v-2.6h-.1c-.4.2-.8.2-1.1.2h-2.9v-4.6c.8-.2 1.7-.2 2.5-.2 1.1 0 2.1.1 2.9 1h.1v-2.9h-.1c-.4.2-.7.1-1.1.1h-7.8v.1c1.2.4 1.1 2.3 1.1 3.3v9.3c0 1.1.2 2.9-1.1 3.3v.1H90l1.1-3.2H91c-1.2 1.1-2.9 1.6-4.5 1.4l-3.1-.3-.1-5.7zM101.1 97.6V87c0-1.1-.2-2.9 1.1-3.3v-.1h-4.7v.1c1.2.4 1.1 2.3 1.1 3.3v9.3c0 1.1.2 2.9-1.1 3.3v.1h10l1.2-3.3h-.1c-1.2 1.1-2.6 1.6-4.3 1.5l-3.2-.3zM124.9 83.6c-1.1-.4-2.4-.5-3.6-.5-3 0-6.2 1.1-6.2 4.2 0 5.2 8.5 4.5 8.5 8.3 0 1.7-2.1 2.6-3.5 2.6-1.9 0-3.9-.8-5.4-2l.7 3.1c1.4.5 2.9.7 4.4.7 3.8 0 6.5-2.5 6.5-5 0-4.5-8.5-4.5-8.5-7.8 0-1.7 1.8-2.2 3.2-2.2 1.4 0 2.9.5 3.9 1.6v-3zM161.3 99.6c-4.6-2.2-8.2-6-11.9-9.5 1.1-1 2.1-2 2.1-3.6 0-2-1.6-3.3-3.5-3.3s-3.8 1.4-3.8 3.4c0 1.4 1.1 2.6 1.9 3.4-1.8 1.4-3.3 2.8-3.3 5.3 0 3 2.7 4.7 5.6 4.7 2.4 0 3.9-.9 5.1-2.8.8.7 2 1.7 2.9 2.1.7.4 1.4.4 2.3.4l2.6-.1zm-13.3-11c-.6-.6-1.7-1.6-1.7-2.6s.7-1.4 1.6-1.4 1.7.5 1.7 1.5c.1 1.1-.8 2-1.6 2.5zm4.4 7.6c-.9 1.1-2.1 2.1-3.6 2.1-1.9 0-3.4-1.2-3.4-3.2 0-1.5 1-2.7 2.2-3.6l4.8 4.7zM175.3 83.5c1.2.5 1.1 2.3 1.1 3.4v9.3c0 1.1.2 2.9-1.1 3.3v.1h4.7v-.1c-1.2-.4-1.1-2.2-1.1-3.3V85.3c.5-.1 1.1-.2 1.7-.2 1.7-.1 3.2 1 3.2 2.7 0 2.3-2.3 3.2-4.2 3.5l2.3 3.4 3 3.7c.7.9 1.6 1.2 2.8 1.2h2.3c-1.4-.9-2.9-2.1-4-3.4l-3.5-4.4c2-.4 3.9-2.1 3.9-4.3s-1.8-4-5-4h-6.1zM199.4 91.7h1.9c.8 0 1.8 0 2.2.7h.1v-2.6h-.1c-.3.2-.7.2-1.1.2h-2.9v-4.6c.8-.2 1.7-.2 2.5-.2 1.1 0 2.1.1 2.9 1h.1v-2.9h-.1c-.4.2-.7.1-1.1.1H196v.1c1.2.4 1.1 2.3 1.1 3.3v9.3c0 1.1.2 2.9-1.1 3.3v.1h10.2l1.1-3.2h-.3c-1.2 1.1-2.9 1.6-4.5 1.4l-3.1-.3v-5.7zM223.6 83.6c-1.1-.4-2.4-.5-3.6-.5-3 0-6.2 1.1-6.2 4.2 0 5.2 8.5 4.5 8.5 8.3 0 1.7-2.1 2.6-3.5 2.6-1.9 0-3.9-.8-5.4-2l.7 3.1c1.4.5 2.9.7 4.4.7 3.8 0 6.5-2.5 6.5-5 0-4.5-8.5-4.5-8.5-7.8 0-1.7 1.8-2.2 3.2-2.2s2.9.5 3.9 1.6v-3zM240.8 83.1c-5.1-.1-9.2 3.8-9.2 8.5 0 5 4.1 8.5 8.9 8.5 4.8 0 9-3.6 9-8.6 0-4.5-3.6-8.4-8.7-8.4zm-.2 1.7c3.9 0 6.2 3.4 6.2 7s-2.4 6.3-6.1 6.3c-3.9 0-6.3-3.5-6.3-7s2.4-6.3 6.2-6.3zM256.3 83.5c1.2.5 1.1 2.3 1.1 3.4v9.3c0 1.1.2 2.9-1.1 3.3v.1h4.7v-.1c-1.2-.4-1.1-2.2-1.1-3.3V85.3c.5-.1 1.1-.2 1.7-.2 1.7-.1 3.2 1 3.2 2.7 0 2.3-2.3 3.2-4.2 3.5l2.3 3.4 3 3.7c.7.9 1.6 1.2 2.8 1.2h2.3c-1.4-.9-2.9-2.1-4-3.4l-3.5-4.4c2-.4 3.9-2.1 3.9-4.3s-1.8-4-5-4h-6.1zM281.8 85.3h2.2c.8 0 1.8.1 2.1 1h.1l.8-2.9h-.1c-.4.2-.7.2-1.1.2H276c-.4-.1-.6-.1-1-.2h-.1l-.9 2.9h.1c.8-.7 1.9-1 2.9-1h2.1v10.9c0 1.1.2 2.9-1.1 3.3v.1h4.8v-.1c-1.3-.8-1.2-1.7-1.2-3.1l.2-11.1zM301.9 83.6c-1.1-.4-2.4-.5-3.6-.5-3 0-6.2 1.1-6.2 4.2 0 5.2 8.5 4.5 8.5 8.3 0 1.7-2.1 2.6-3.5 2.6-1.9 0-3.9-.8-5.4-2l.7 3.1c1.4.5 2.9.7 4.4.7 3.8 0 6.5-2.5 6.5-5 0-4.5-8.5-4.5-8.5-7.8 0-1.7 1.8-2.2 3.2-2.2s2.9.5 3.9 1.6v-3z"/></g><path fill="#8E8777" d="M305.9 19.7c0-2.6 1.9-4.4 4.3-4.4s4.3 1.9 4.3 4.4c0 2.6-1.9 4.5-4.3 4.5s-4.3-1.9-4.3-4.5zm4.3 5.4c2.9 0 5.4-2.3 5.4-5.4s-2.5-5.3-5.4-5.3c-2.9 0-5.4 2.3-5.4 5.3 0 3.1 2.5 5.4 5.4 5.4zm-1.1-4.9h1.1l1.6 2.6h1.1l-1.8-2.7c.9-.1 1.6-.6 1.6-1.7 0-1.2-.7-1.8-2.2-1.8h-2.3v6.2h1v-2.6zm0-.8v-1.9h1.2c.6 0 1.3.2 1.3.9 0 1-.7 1-1.5 1h-1z"/></svg>